<svg width="56" height="56" viewBox="0 0 56 56" fill="none" xmlns="http://www.w3.org/2000/svg">
<path opacity="0.4" d="M37.7765 4.66669H18.2232C9.72984 4.66669 4.6665 9.73002 4.6665 18.2234V37.7534C4.6665 46.27 9.72984 51.3334 18.2232 51.3334H37.7532C46.2465 51.3334 51.3098 46.27 51.3098 37.7767V18.2234C51.3332 9.73002 46.2698 4.66669 37.7765 4.66669Z" fill="#5384B7"/>
<path d="M37.3332 26.25H29.7498V18.6667C29.7498 17.71 28.9565 16.9167 27.9998 16.9167C27.0432 16.9167 26.2498 17.71 26.2498 18.6667V26.25H18.6665C17.7098 26.25 16.9165 27.0434 16.9165 28C16.9165 28.9567 17.7098 29.75 18.6665 29.75H26.2498V37.3334C26.2498 38.29 27.0432 39.0834 27.9998 39.0834C28.9565 39.0834 29.7498 38.29 29.7498 37.3334V29.75H37.3332C38.2898 29.75 39.0832 28.9567 39.0832 28C39.0832 27.0434 38.2898 26.25 37.3332 26.25Z" fill="#5384B7"/>
</svg>
