<svg width="61" height="56" viewBox="0 0 61 56" fill="none" xmlns="http://www.w3.org/2000/svg">
<g clip-path="url(#clip0_651_1961)">
<path d="M52.9203 48.3799C50.0542 51.7125 46.4124 54.1425 42.2809 55.8532C41.8197 56.045 41.5681 56.1511 41.4783 55.4666C41.0051 51.8375 38.9581 49.6313 35.2773 48.6866C35.2099 48.6095 35.1441 48.5311 35.0872 48.4468C34.9943 48.3116 34.9254 48.1648 34.9209 47.9919C34.894 46.9236 34.7442 45.8321 35.0557 44.7828C35.2204 44.7915 35.3837 44.8002 35.5454 44.8046C41.6535 45.0008 46.5936 42.0185 48.1689 36.0495C48.2363 35.798 48.2483 35.5175 48.5313 35.3649C50.2189 34.4464 50.5768 32.8869 50.5888 31.2039C50.6023 29.252 50.1051 27.5356 48.0147 26.7043C47.6942 26.5764 47.6179 26.2944 47.4921 26.0328C45.7266 22.3718 42.8125 20.1495 38.696 19.4476C37.4831 19.2397 36.0126 19.3444 34.7922 19.3211C34.4657 19.3139 34.1527 19.3197 33.8922 19.0653C33.2483 18.4375 32.6793 18.1468 31.7973 18.0334C31.3226 17.9738 31.1773 17.7515 31.1878 17.3111C31.2102 16.3432 31.2162 15.3738 31.1878 14.4058C31.1743 13.9698 31.3375 13.7169 31.7029 13.4597C32.9982 12.5484 32.9563 10.9686 31.649 10.0486C31.2327 9.92796 30.8569 9.88145 30.5184 9.91342C30.2399 9.86255 30.0078 9.97882 29.599 10.2419C28.7155 10.7971 28.3965 11.7171 28.7589 12.5934C28.8832 12.9408 29.0988 13.2722 29.4028 13.557C29.6679 13.7155 29.7248 13.9538 29.7218 14.2401C29.7113 15.2575 29.6978 16.2748 29.7263 17.2908C29.7397 17.7805 29.5406 17.9782 29.0554 18.0422C28.4085 18.1264 27.7436 18.2805 27.266 18.7151C26.8901 19.0581 26.7149 19.2281 25.6487 19.3618C25.1306 19.4258 24.4043 19.4824 23.3441 19.5449C20.0946 19.7368 15.788 21.9706 13.7679 26.136C13.5448 26.5953 13.2872 26.9572 12.7931 27.165C11.7224 27.6141 11.1474 28.4585 10.8853 29.5267C10.4525 31.2708 10.6218 33.8229 12.3303 34.8824C12.7871 35.1571 13.0042 35.5568 13.139 36.048C14.4672 41.4052 19.1288 44.4413 24.6769 44.5517C25.0138 44.5648 25.6277 44.5299 25.7999 44.6985C25.9452 44.8148 25.9946 45.0212 26.0141 45.3787C26.0605 46.1998 26.0395 47.0225 26.0231 47.8451C26.0186 48.002 25.9841 48.1445 25.9242 48.2753C25.8568 48.425 25.761 48.5601 25.6457 48.6895C22.3154 49.5252 19.6185 51.9915 19.4298 55.4709C19.3819 56.0566 19.1917 56.0915 18.6975 55.8851C15.9512 54.737 13.431 53.2385 11.1399 51.3739C-10.4953 33.8345 3.1794 -1.24995 31.3914 0.0348312C56.6715 0.337133 69.8056 30.2607 52.9203 48.3799Z" fill="#5384B7"/>
<path d="M35.0548 44.7828C34.7433 45.8321 34.8931 46.9236 34.92 47.9919C34.9245 48.1648 34.9934 48.3116 35.0863 48.4468C32.0315 47.7535 28.9766 47.8 25.9218 48.5601C25.9218 48.4657 25.9233 48.3697 25.9233 48.2753C25.9832 48.1445 26.0177 48.002 26.0222 47.8451C26.0386 47.0225 26.0596 46.1998 26.0132 45.3787C25.9937 45.0212 25.9443 44.8148 25.799 44.6985C25.6268 44.5299 25.0129 44.5648 24.676 44.5517C19.1279 44.4413 14.4663 41.4052 13.1381 36.048C13.0033 35.5568 12.7862 35.1571 12.3294 34.8824C10.6208 33.8229 10.4516 31.2708 10.8844 29.5267C11.1465 28.4585 11.7215 27.6141 12.7922 27.165C13.2863 26.9572 13.5439 26.5953 13.767 26.136C15.7871 21.9706 20.0937 19.7368 23.3432 19.5449C24.4034 19.4824 25.1297 19.4258 25.6478 19.3618C25.6149 19.6496 25.3109 19.6612 25.0758 19.731C23.7146 20.1336 22.3759 20.5841 21.1779 21.3544C17.5705 23.6711 15.4486 26.7973 15.5355 31.1211C15.561 32.3274 15.4217 33.5395 15.6523 34.74C16.4969 39.1524 19.0425 42.1624 23.445 43.6434C24.8257 44.107 26.2528 44.2698 27.7008 44.2799C29.968 44.2988 32.2351 44.2727 34.5023 44.2959C34.8736 44.3003 35.3288 44.1796 35.5445 44.6535V44.8046C35.3828 44.8002 35.2195 44.7915 35.0548 44.7828Z" fill="#A4BBCC"/>
<path d="M43.8646 30.6459C43.7388 29.8625 43.4723 29.0864 42.9991 28.4222C41.3773 26.1433 39.0698 25.1652 36.277 25.1594C32.3372 25.1521 28.3974 25.1303 24.4591 25.1739C23.2507 25.1884 22.0752 25.3846 20.9161 25.8933C18.1923 27.088 16.551 30.3392 16.9703 33.134C17.4301 36.1919 20.7364 39.0071 23.8736 38.8385C26.0105 38.7237 28.1593 38.8167 30.3037 38.8167C32.3237 38.8167 34.3438 38.8211 36.3624 38.8138C36.9838 38.8124 37.6068 38.8545 38.2282 38.7455C42.2219 38.0435 44.4831 34.5017 43.8646 30.6459ZM24.1506 33.8607C23.0934 33.8564 22.2548 33.0178 22.2863 31.9946C22.3177 30.9903 23.1443 30.22 24.1761 30.2345C25.2288 30.2491 25.988 31.0121 25.9835 32.0527C25.982 33.0541 25.1599 33.8636 24.1506 33.8607ZM36.7592 33.8651C35.7619 33.8709 34.9398 33.0541 34.9323 32.0484C34.9248 31.0107 35.6915 30.2447 36.7442 30.2375C37.779 30.2287 38.628 31.0165 38.6445 31.9989C38.6595 33.009 37.8014 33.8593 36.7592 33.8651Z" fill="#5384B7"/>
</g>
<defs>
<clipPath id="clip0_651_1961">
<rect width="60" height="56" fill="white" transform="translate(0.5)"/>
</clipPath>
</defs>
</svg>
