<svg width="141" height="18" viewBox="0 0 141 18" fill="none" xmlns="http://www.w3.org/2000/svg">
<path d="M14.3027 14H10.084C9.87565 14 9.77148 13.8893 9.77148 13.668C9.77148 13.4596 9.86589 13.3359 10.0547 13.2969C10.3151 13.2904 10.4453 13.1895 10.4453 12.9941C10.4453 12.877 10.3932 12.7207 10.2891 12.5254C9.97656 11.8678 9.53711 10.9271 8.9707 9.70312H3.95117L2.7793 12.291C2.69466 12.4668 2.65234 12.6133 2.65234 12.7305C2.65234 12.776 2.66536 12.8444 2.69141 12.9355C2.72396 13.0202 2.8737 13.1341 3.14062 13.2773C3.27734 13.3555 3.3457 13.4792 3.3457 13.6484C3.3457 13.8828 3.20898 14 2.93555 14H1.24609C0.972656 14 0.835938 13.8828 0.835938 13.6484C0.835938 13.4792 0.904297 13.3555 1.04102 13.2773L1.30469 13.1309C1.51302 13.0332 1.69857 12.9225 1.86133 12.7988C2.02409 12.6686 2.16081 12.4798 2.27148 12.2324L7.47656 0.748047H8.00391L13.4922 12.3203C13.6224 12.6198 13.7461 12.8346 13.8633 12.9648C13.987 13.0951 14.166 13.1602 14.4004 13.1602C14.5762 13.1602 14.6966 13.2285 14.7617 13.3652C14.7878 13.4303 14.8008 13.4954 14.8008 13.5605C14.8008 13.8535 14.6348 14 14.3027 14ZM8.72656 9.17578C7.54818 6.6237 6.7832 4.97331 6.43164 4.22461L4.19531 9.17578H8.72656ZM17.75 14L15.6895 13.9902C15.416 13.9902 15.2793 13.8763 15.2793 13.6484C15.2793 13.4792 15.3477 13.3555 15.4844 13.2773C15.8099 13.1016 16.0117 12.8184 16.0898 12.4277V3.63867C16.0898 3.09831 16.0378 2.71745 15.9336 2.49609C15.8359 2.27474 15.6797 2.10547 15.4648 1.98828C15.3411 1.90365 15.2793 1.78646 15.2793 1.63672C15.2793 1.39583 15.4062 1.27539 15.6602 1.27539C16.6758 1.27539 17.7533 1.10286 18.8926 0.757812L18.9805 0.748047C19.1302 0.748047 19.2376 0.790365 19.3027 0.875C19.3743 0.953125 19.4102 1.10938 19.4102 1.34375V12.4277C19.4753 12.8184 19.6771 13.1016 20.0156 13.2773C20.1458 13.362 20.2109 13.4792 20.2109 13.6289C20.2109 13.8698 20.0742 13.9902 19.8008 13.9902L17.75 14ZM23.7852 14L21.7246 13.9902C21.4512 13.9902 21.3145 13.8763 21.3145 13.6484C21.3145 13.4792 21.3828 13.3555 21.5195 13.2773C21.8451 13.1016 22.0469 12.8184 22.125 12.4277V3.63867C22.125 3.09831 22.0729 2.71745 21.9688 2.49609C21.8711 2.27474 21.7148 2.10547 21.5 1.98828C21.3763 1.90365 21.3145 1.78646 21.3145 1.63672C21.3145 1.39583 21.4414 1.27539 21.6953 1.27539C22.7109 1.27539 23.7884 1.10286 24.9277 0.757812L25.0156 0.748047C25.1654 0.748047 25.2728 0.790365 25.3379 0.875C25.4095 0.953125 25.4453 1.10938 25.4453 1.34375V12.4277C25.5104 12.8184 25.7122 13.1016 26.0508 13.2773C26.181 13.362 26.2461 13.4792 26.2461 13.6289C26.2461 13.8698 26.1094 13.9902 25.8359 13.9902L23.7852 14ZM34.5078 3.62891C34.1562 3.62891 33.834 3.57682 33.541 3.47266C33.2546 3.36198 33.0234 3.20247 32.8477 2.99414C32.6784 2.7793 32.5938 2.51237 32.5938 2.19336C32.5938 1.86784 32.6784 1.60091 32.8477 1.39258C33.0234 1.17773 33.2546 1.01823 33.541 0.914062C33.834 0.803385 34.1562 0.748047 34.5078 0.748047C35.0352 0.748047 35.4844 0.878255 35.8555 1.13867C36.2331 1.39258 36.4219 1.74414 36.4219 2.19336C36.4219 2.64258 36.2331 2.99414 35.8555 3.24805C35.4844 3.50195 35.0352 3.62891 34.5078 3.62891ZM34.5078 14L32.4473 13.9902C32.1803 13.9902 32.0469 13.8698 32.0469 13.6289C32.0469 13.4727 32.112 13.3555 32.2422 13.2773C32.4049 13.1927 32.5352 13.0885 32.6328 12.9648C32.7305 12.8346 32.8021 12.6556 32.8477 12.4277V6.98828C32.8477 6.44792 32.7988 6.06706 32.7012 5.8457C32.6035 5.62435 32.4473 5.45508 32.2324 5.33789C32.1087 5.25977 32.0469 5.13932 32.0469 4.97656C32.0469 4.74219 32.1738 4.625 32.4277 4.625C33.4759 4.625 34.5241 4.45898 35.5723 4.12695C35.6243 4.10742 35.6797 4.09766 35.7383 4.09766C35.8945 4.09766 36.0052 4.13997 36.0703 4.22461C36.1354 4.30273 36.168 4.45898 36.168 4.69336V12.4277C36.2135 12.6556 36.2852 12.8346 36.3828 12.9648C36.4805 13.0885 36.6107 13.1927 36.7734 13.2773C36.9102 13.3555 36.9785 13.4792 36.9785 13.6484C36.9785 13.8763 36.8418 13.9902 36.5684 13.9902L34.5078 14ZM46.6562 14C46.3242 14 46.0117 13.9382 45.7188 13.8145C45.0677 13.5475 44.7422 13.0039 44.7422 12.1836V7.7793C44.7422 6.95898 44.6934 6.33073 44.5957 5.89453C44.4395 5.23047 44.0846 4.89844 43.5312 4.89844C43.1667 4.89844 42.8444 5.09701 42.5645 5.49414C42.2845 5.88477 42.0892 6.4056 41.9785 7.05664V12.4277C42.0436 12.8184 42.2454 13.1016 42.584 13.2773C42.7142 13.362 42.7793 13.4792 42.7793 13.6289C42.7793 13.8698 42.6426 13.9902 42.3691 13.9902L40.3184 14L38.2578 13.9902C37.9844 13.9902 37.8477 13.8763 37.8477 13.6484C37.8477 13.4792 37.916 13.3555 38.0527 13.2773C38.3783 13.1016 38.5801 12.8184 38.6582 12.4277V6.98828C38.6582 6.44792 38.6094 6.06706 38.5117 5.8457C38.4141 5.62435 38.2546 5.45508 38.0332 5.33789C37.9095 5.25326 37.8477 5.12956 37.8477 4.9668C37.8477 4.73893 37.9746 4.625 38.2285 4.625C39.2767 4.625 40.3216 4.46224 41.3633 4.13672C41.4284 4.11068 41.4902 4.09766 41.5488 4.09766C41.6986 4.09766 41.806 4.13997 41.8711 4.22461C41.9427 4.30273 41.9785 4.45898 41.9785 4.69336V5.34766C42.5124 4.33854 43.4466 3.83398 44.7812 3.83398C46.9492 3.83398 48.043 5.30859 48.0625 8.25781V12.0371C48.0625 12.291 48.1146 12.4668 48.2188 12.5645C48.3294 12.6621 48.4824 12.7402 48.6777 12.7988C48.7949 12.8444 48.8535 12.9225 48.8535 13.0332C48.8535 13.0397 48.8503 13.0788 48.8438 13.1504C48.8438 13.222 48.7884 13.3066 48.6777 13.4043C48.4889 13.5605 48.2057 13.7005 47.8281 13.8242C47.457 13.9414 47.0664 14 46.6562 14ZM59.3223 14.1855C58.3783 14.1855 57.5156 13.9805 56.7344 13.5703C55.9596 13.1536 55.3411 12.5612 54.8789 11.793C54.4167 11.0247 54.1855 10.11 54.1855 9.04883C54.1855 7.98112 54.4167 7.06315 54.8789 6.29492C55.3411 5.52669 55.9596 4.9375 56.7344 4.52734C57.5156 4.11068 58.3783 3.90234 59.3223 3.90234C60.2663 3.90234 61.1257 4.10091 61.9004 4.49805C62.6816 4.88867 63.3034 5.4681 63.7656 6.23633C64.2344 6.99805 64.4688 7.93555 64.4688 9.04883C64.4688 10.1556 64.2344 11.0931 63.7656 11.8613C63.3034 12.623 62.6816 13.2025 61.9004 13.5996C61.1257 13.9902 60.2663 14.1855 59.3223 14.1855ZM59.3223 13.6582C59.8887 13.6582 60.3184 13.3587 60.6113 12.7598C60.9694 12.0436 61.1484 10.8066 61.1484 9.04883C61.1484 7.29102 60.9694 6.05078 60.6113 5.32812C60.3184 4.73568 59.8887 4.43945 59.3223 4.43945C59.0684 4.43945 58.8307 4.49154 58.6094 4.5957C58.3945 4.69336 58.2025 4.89844 58.0332 5.21094C57.8704 5.52344 57.7402 5.98568 57.6426 6.59766C57.5514 7.20964 57.5059 8.02669 57.5059 9.04883C57.5059 10.071 57.5514 10.888 57.6426 11.5C57.7402 12.112 57.8704 12.5742 58.0332 12.8867C58.2025 13.1992 58.3945 13.4076 58.6094 13.5117C58.8307 13.6094 59.0684 13.6582 59.3223 13.6582ZM73.707 14C73.375 14 73.0625 13.9382 72.7695 13.8145C72.1185 13.5475 71.793 13.0039 71.793 12.1836V7.7793C71.793 6.95898 71.7441 6.33073 71.6465 5.89453C71.4902 5.23047 71.1354 4.89844 70.582 4.89844C70.2174 4.89844 69.8952 5.09701 69.6152 5.49414C69.3353 5.88477 69.14 6.4056 69.0293 7.05664V12.4277C69.0944 12.8184 69.2962 13.1016 69.6348 13.2773C69.765 13.362 69.8301 13.4792 69.8301 13.6289C69.8301 13.8698 69.6934 13.9902 69.4199 13.9902L67.3691 14L65.3086 13.9902C65.0352 13.9902 64.8984 13.8763 64.8984 13.6484C64.8984 13.4792 64.9668 13.3555 65.1035 13.2773C65.429 13.1016 65.6309 12.8184 65.709 12.4277V6.98828C65.709 6.44792 65.6602 6.06706 65.5625 5.8457C65.4648 5.62435 65.3053 5.45508 65.084 5.33789C64.9603 5.25326 64.8984 5.12956 64.8984 4.9668C64.8984 4.73893 65.0254 4.625 65.2793 4.625C66.3275 4.625 67.3724 4.46224 68.4141 4.13672C68.4792 4.11068 68.541 4.09766 68.5996 4.09766C68.7493 4.09766 68.8568 4.13997 68.9219 4.22461C68.9935 4.30273 69.0293 4.45898 69.0293 4.69336V5.34766C69.5632 4.33854 70.4974 3.83398 71.832 3.83398C74 3.83398 75.0938 5.30859 75.1133 8.25781V12.0371C75.1133 12.291 75.1654 12.4668 75.2695 12.5645C75.3802 12.6621 75.5332 12.7402 75.7285 12.7988C75.8457 12.8444 75.9043 12.9225 75.9043 13.0332C75.9043 13.0397 75.901 13.0788 75.8945 13.1504C75.8945 13.222 75.8392 13.3066 75.7285 13.4043C75.5397 13.5605 75.2565 13.7005 74.8789 13.8242C74.5078 13.9414 74.1172 14 73.707 14ZM81.3145 14.2637C80.4355 14.2637 79.6283 14.0814 78.8926 13.7168C78.1569 13.3522 77.5482 12.7923 77.0664 12.0371C76.5326 11.1322 76.2656 10.1654 76.2656 9.13672C76.2656 8.99349 76.2721 8.84701 76.2852 8.69727C76.4089 7.2194 76.946 6.03776 77.8965 5.15234C78.8535 4.26693 80.071 3.82422 81.5488 3.82422C82.4017 3.82422 83.1211 3.96419 83.707 4.24414C84.293 4.51758 84.7487 4.8724 85.0742 5.30859C85.4518 5.82292 85.6406 6.38932 85.6406 7.00781C85.6406 7.41146 85.5397 7.82487 85.3379 8.24805C85.1361 8.67122 84.7845 9.05208 84.2832 9.39062C83.7819 9.72266 83.1374 9.94076 82.3496 10.0449C82.0892 10.084 81.8158 10.1035 81.5293 10.1035C80.9368 10.1035 80.2826 10.0254 79.5664 9.86914C79.6966 10.3314 79.8919 10.748 80.1523 11.1191C80.4193 11.4837 80.7611 11.7767 81.1777 11.998C81.5944 12.2129 82.0892 12.3203 82.6621 12.3203C83.5085 12.3203 84.2995 12.0859 85.0352 11.6172C85.1068 11.5716 85.1784 11.5488 85.25 11.5488C85.3021 11.5488 85.3509 11.5651 85.3965 11.5977C85.4746 11.6562 85.5137 11.7344 85.5137 11.832C85.5137 11.8776 85.5007 11.9232 85.4746 11.9688C84.9993 12.6784 84.3971 13.2383 83.668 13.6484C82.9453 14.0586 82.1608 14.2637 81.3145 14.2637ZM79.4297 9.26367C80.7578 9.26367 81.7246 8.86328 82.3301 8.0625C82.7142 7.50911 82.9062 6.84831 82.9062 6.08008C82.9062 5.01237 82.4766 4.45898 81.6172 4.41992C81.0768 4.43945 80.6178 4.69336 80.2402 5.18164C79.8691 5.66992 79.625 6.19727 79.5078 6.76367C79.3971 7.32357 79.3418 7.80534 79.3418 8.20898C79.3418 8.56055 79.3711 8.91211 79.4297 9.26367ZM93.541 17.3398L91.4805 17.3301C91.207 17.3301 91.0703 17.2161 91.0703 16.9883C91.0703 16.819 91.1419 16.6921 91.2852 16.6074C91.4349 16.5293 91.5586 16.4284 91.6562 16.3047C91.7604 16.181 91.8353 16.0052 91.8809 15.7773V6.98828C91.8809 6.44792 91.832 6.06706 91.7344 5.8457C91.6367 5.62435 91.4772 5.45508 91.2559 5.33789C91.1322 5.25326 91.0703 5.12956 91.0703 4.9668C91.0703 4.73893 91.1973 4.625 91.4512 4.625C92.4993 4.625 93.5443 4.46224 94.5859 4.13672C94.651 4.11068 94.7129 4.09766 94.7715 4.09766C94.9212 4.09766 95.0286 4.13997 95.0938 4.22461C95.1654 4.30273 95.2012 4.45898 95.2012 4.69336V5.20117C95.748 4.28971 96.653 3.83398 97.916 3.83398C98.6452 3.83398 99.2767 4.02279 99.8105 4.40039C100.344 4.77799 100.777 5.27604 101.109 5.89453C101.617 6.85156 101.871 7.93555 101.871 9.14648C101.871 9.48503 101.835 9.92448 101.764 10.4648C101.692 10.9987 101.497 11.5749 101.178 12.1934C100.859 12.8118 100.429 13.3132 99.8887 13.6973C99.3483 14.0749 98.6908 14.2637 97.916 14.2637C96.653 14.2637 95.748 13.8079 95.2012 12.8965V15.7773C95.2467 16.0052 95.3184 16.181 95.416 16.3047C95.5137 16.4284 95.6439 16.5326 95.8066 16.6172C95.9368 16.7018 96.002 16.8223 96.002 16.9785C96.002 17.2129 95.8685 17.3301 95.6016 17.3301L93.541 17.3398ZM96.6562 13.1211C97.3464 13.1211 97.8737 12.5807 98.2383 11.5C98.4596 10.8164 98.5703 9.99935 98.5703 9.04883C98.5703 7.85742 98.3913 6.86458 98.0332 6.07031C97.6491 5.28906 97.2096 4.89844 96.7148 4.89844C96.4414 4.89844 96.1615 5.04167 95.875 5.32812C95.5885 5.60807 95.3639 6.05404 95.2012 6.66602V11.4512C95.4876 12.5645 95.9727 13.1211 96.6562 13.1211ZM104.801 14L102.74 13.9902C102.467 13.9902 102.33 13.8763 102.33 13.6484C102.33 13.4792 102.398 13.3555 102.535 13.2773C102.861 13.1016 103.062 12.8184 103.141 12.4277V3.63867C103.141 3.09831 103.089 2.71745 102.984 2.49609C102.887 2.27474 102.73 2.10547 102.516 1.98828C102.392 1.90365 102.33 1.78646 102.33 1.63672C102.33 1.39583 102.457 1.27539 102.711 1.27539C103.727 1.27539 104.804 1.10286 105.943 0.757812L106.031 0.748047C106.181 0.748047 106.288 0.790365 106.354 0.875C106.425 0.953125 106.461 1.10938 106.461 1.34375V12.4277C106.526 12.8184 106.728 13.1016 107.066 13.2773C107.197 13.362 107.262 13.4792 107.262 13.6289C107.262 13.8698 107.125 13.9902 106.852 13.9902L104.801 14ZM111.832 12.3887C112.464 12.3887 112.984 11.9167 113.395 10.9727C113.395 9.65104 113.398 8.67122 113.404 8.0332C113.131 8.24154 112.831 8.4043 112.506 8.52148C111.965 8.74935 111.565 9.07161 111.305 9.48828C110.999 9.96354 110.846 10.4518 110.846 10.9531C110.846 11.3177 110.927 11.6497 111.09 11.9492C111.253 12.2422 111.5 12.3887 111.832 12.3887ZM115.309 14C114.977 14 114.667 13.9414 114.381 13.8242C114.094 13.707 113.86 13.5215 113.678 13.2676C113.502 13.0072 113.408 12.6654 113.395 12.2422C112.691 13.4141 111.692 14 110.396 14C109.85 14 109.368 13.8796 108.951 13.6387C108.541 13.3978 108.219 13.082 107.984 12.6914C107.757 12.3008 107.643 11.8776 107.643 11.4219C107.643 10.7773 107.783 10.2728 108.062 9.9082C108.349 9.53711 108.723 9.2474 109.186 9.03906C109.648 8.83073 110.152 8.65495 110.699 8.51172C111.728 8.27083 112.457 8.01693 112.887 7.75C113.147 7.59375 113.32 7.41471 113.404 7.21289C113.411 6.88737 113.414 6.55208 113.414 6.20703C113.414 5.95964 113.382 5.71549 113.316 5.47461C113.251 5.23372 113.128 5.0319 112.945 4.86914C112.77 4.70638 112.522 4.625 112.203 4.625C111.91 4.625 111.669 4.70312 111.48 4.85938C111.298 5.01562 111.161 5.2207 111.07 5.47461C110.986 5.72201 110.943 5.98893 110.943 6.27539C110.943 6.71159 110.823 7.03385 110.582 7.24219C110.348 7.45052 110.077 7.55469 109.771 7.55469C109.446 7.55469 109.166 7.45378 108.932 7.25195C108.697 7.04362 108.58 6.73112 108.58 6.31445C108.58 5.95638 108.72 5.60807 109 5.26953C109.286 4.93099 109.703 4.65104 110.25 4.42969C110.797 4.20833 111.467 4.09766 112.262 4.09766C113.447 4.09766 114.459 4.39388 115.299 4.98633C116.243 5.66341 116.715 6.60742 116.715 7.81836V12.0371C116.715 12.291 116.764 12.4668 116.861 12.5645C116.959 12.6556 117.102 12.7305 117.291 12.7891C117.421 12.8411 117.486 12.9388 117.486 13.082C117.486 13.362 117.154 13.6061 116.49 13.8145C116.113 13.9382 115.719 14 115.309 14ZM122.906 14.2637C122.027 14.2637 121.22 14.0814 120.484 13.7168C119.749 13.3522 119.14 12.7923 118.658 12.0371C118.124 11.1322 117.857 10.1654 117.857 9.13672C117.857 8.00391 118.115 7.00456 118.629 6.13867C119.059 5.40951 119.641 4.8431 120.377 4.43945C121.119 4.0293 121.985 3.82422 122.975 3.82422C123.658 3.82422 124.316 3.9349 124.947 4.15625C125.579 4.37109 126.093 4.69336 126.49 5.12305C126.894 5.54622 127.096 6.06706 127.096 6.68555C127.096 7.12826 126.939 7.50586 126.627 7.81836C126.321 8.12435 125.947 8.27734 125.504 8.27734C125.068 8.27734 124.716 8.12109 124.449 7.80859C124.182 7.49609 124.049 7.12174 124.049 6.68555L124.059 6.28516C124.059 6.0638 124.046 5.81315 124.02 5.5332C124 5.25326 123.919 4.99935 123.775 4.77148C123.632 4.54362 123.388 4.42643 123.043 4.41992C122.385 4.45898 121.868 4.85286 121.49 5.60156C121.113 6.34375 120.924 7.2194 120.924 8.22852C120.937 9.34831 121.201 10.2826 121.715 11.0312C122.301 11.8906 123.147 12.3203 124.254 12.3203C125.1 12.3203 125.891 12.0859 126.627 11.6172C126.699 11.5716 126.77 11.5488 126.842 11.5488C126.894 11.5488 126.943 11.5651 126.988 11.5977C127.066 11.6562 127.105 11.7344 127.105 11.832C127.105 11.8776 127.092 11.9232 127.066 11.9688C126.591 12.6784 125.989 13.2383 125.26 13.6484C124.537 14.0586 123.753 14.2637 122.906 14.2637ZM132.662 14.2637C131.783 14.2637 130.976 14.0814 130.24 13.7168C129.505 13.3522 128.896 12.7923 128.414 12.0371C127.88 11.1322 127.613 10.1654 127.613 9.13672C127.613 8.99349 127.62 8.84701 127.633 8.69727C127.757 7.2194 128.294 6.03776 129.244 5.15234C130.201 4.26693 131.419 3.82422 132.896 3.82422C133.749 3.82422 134.469 3.96419 135.055 4.24414C135.641 4.51758 136.096 4.8724 136.422 5.30859C136.799 5.82292 136.988 6.38932 136.988 7.00781C136.988 7.41146 136.887 7.82487 136.686 8.24805C136.484 8.67122 136.132 9.05208 135.631 9.39062C135.13 9.72266 134.485 9.94076 133.697 10.0449C133.437 10.084 133.163 10.1035 132.877 10.1035C132.285 10.1035 131.63 10.0254 130.914 9.86914C131.044 10.3314 131.24 10.748 131.5 11.1191C131.767 11.4837 132.109 11.7767 132.525 11.998C132.942 12.2129 133.437 12.3203 134.01 12.3203C134.856 12.3203 135.647 12.0859 136.383 11.6172C136.454 11.5716 136.526 11.5488 136.598 11.5488C136.65 11.5488 136.699 11.5651 136.744 11.5977C136.822 11.6562 136.861 11.7344 136.861 11.832C136.861 11.8776 136.848 11.9232 136.822 11.9688C136.347 12.6784 135.745 13.2383 135.016 13.6484C134.293 14.0586 133.508 14.2637 132.662 14.2637ZM130.777 9.26367C132.105 9.26367 133.072 8.86328 133.678 8.0625C134.062 7.50911 134.254 6.84831 134.254 6.08008C134.254 5.01237 133.824 4.45898 132.965 4.41992C132.424 4.43945 131.965 4.69336 131.588 5.18164C131.217 5.66992 130.973 6.19727 130.855 6.76367C130.745 7.32357 130.689 7.80534 130.689 8.20898C130.689 8.56055 130.719 8.91211 130.777 9.26367ZM139.215 14C138.805 14 138.45 13.8828 138.15 13.6484C137.857 13.4076 137.711 13.0462 137.711 12.5645C137.711 12.0827 137.857 11.7214 138.15 11.4805C138.45 11.2396 138.805 11.1191 139.215 11.1191C139.632 11.1191 139.986 11.2493 140.279 11.5098C140.572 11.7637 140.719 12.1152 140.719 12.5645C140.719 13.0137 140.572 13.3652 140.279 13.6191C139.986 13.873 139.632 14 139.215 14Z" fill="#405D72"/>
</svg>
