<svg width="57" height="56" viewBox="0 0 57 56" fill="none" xmlns="http://www.w3.org/2000/svg">
<rect opacity="0.25" x="3.75" y="3" width="50" height="50" rx="5" fill="#5384B7"/>
<path d="M33.681 29.5395C33.2176 29.0694 32.9425 28.4458 32.9077 27.7866C32.8729 27.1274 33.0807 26.4783 33.492 25.962C34.2066 25.0669 34.6817 24.0047 34.8726 22.8753C35.0635 21.746 34.9639 20.5866 34.5831 19.5064C34.2023 18.4262 33.5529 17.4606 32.696 16.7006C31.8391 15.9406 30.803 15.4111 29.685 15.162C29.223 15.065 28.753 15.0108 28.281 15C26.4908 15 24.7739 15.7112 23.508 16.977C22.2422 18.2429 21.531 19.9598 21.531 21.75C21.5376 23.2834 22.0661 24.769 23.0295 25.962C23.4276 26.4685 23.6314 27.1008 23.6042 27.7444C23.577 28.3881 23.3205 29.0009 22.881 29.472C21.9782 30.4265 21.3448 31.6035 21.0455 32.8828C20.7463 34.1621 20.7918 35.4979 21.1775 36.7539C21.5632 38.0098 22.2753 39.141 23.241 40.0318C24.2067 40.9226 25.3915 41.5412 26.6745 41.8245C27.2018 41.9423 27.7406 42.0012 28.281 42C29.7193 41.9891 31.1236 41.5606 32.323 40.7666C33.5224 39.9727 34.4654 38.8474 35.0374 37.5276C35.6093 36.2079 35.7856 34.7503 35.5448 33.3322C35.304 31.9141 34.6565 30.5965 33.681 29.5395ZM29.631 19.05C29.898 19.05 30.159 19.1292 30.381 19.2775C30.603 19.4259 30.7761 19.6367 30.8782 19.8834C30.9804 20.1301 31.0071 20.4015 30.9551 20.6634C30.903 20.9252 30.7744 21.1658 30.5856 21.3546C30.3968 21.5434 30.1562 21.672 29.8944 21.7241C29.6325 21.7761 29.3611 21.7494 29.1144 21.6472C28.8677 21.5451 28.6568 21.372 28.5085 21.15C28.3602 20.928 28.281 20.667 28.281 20.4C28.281 20.042 28.4232 19.6986 28.6764 19.4454C28.9296 19.1922 29.273 19.05 29.631 19.05ZM26.931 36.6C26.664 36.6 26.403 36.5208 26.181 36.3725C25.959 36.2241 25.7859 36.0133 25.6838 35.7666C25.5816 35.5199 25.5548 35.2485 25.6069 34.9866C25.659 34.7247 25.7876 34.4842 25.9764 34.2954C26.1652 34.1066 26.4057 33.978 26.6676 33.9259C26.9295 33.8738 27.2009 33.9006 27.4476 34.0027C27.6943 34.1049 27.9051 34.278 28.0535 34.5C28.2018 34.722 28.281 34.983 28.281 35.25C28.281 35.608 28.1388 35.9514 27.8856 36.2046C27.6324 36.4578 27.289 36.6 26.931 36.6ZM28.281 32.55C28.281 32.283 28.3602 32.022 28.5085 31.8C28.6568 31.578 28.8677 31.4049 29.1144 31.3028C29.3611 31.2006 29.6325 31.1738 29.8944 31.2259C30.1562 31.278 30.3968 31.4066 30.5856 31.5954C30.7744 31.7842 30.903 32.0247 30.9551 32.2866C31.0071 32.5485 30.9804 32.8199 30.8782 33.0666C30.7761 33.3133 30.603 33.5241 30.381 33.6725C30.159 33.8208 29.898 33.9 29.631 33.9C29.273 33.9 28.9296 33.7578 28.6764 33.5046C28.4232 33.2514 28.281 32.908 28.281 32.55ZM30.981 37.95C30.714 37.95 30.453 37.8708 30.231 37.7225C30.009 37.5741 29.8359 37.3633 29.7338 37.1166C29.6316 36.8699 29.6048 36.5985 29.6569 36.3366C29.709 36.0747 29.8376 35.8342 30.0264 35.6454C30.2152 35.4566 30.4557 35.328 30.7176 35.2759C30.9795 35.2238 31.2509 35.2506 31.4976 35.3527C31.7443 35.4549 31.9551 35.628 32.1035 35.85C32.2518 36.072 32.331 36.333 32.331 36.6C32.331 36.958 32.1888 37.3014 31.9356 37.5546C31.6824 37.8078 31.339 37.95 30.981 37.95Z" fill="#5384B7"/>
</svg>
