<svg width="24" height="24" viewBox="0 0 24 24" fill="none" xmlns="http://www.w3.org/2000/svg">
<g clip-path="url(#clip0_1482_5780)">
<path opacity="0.25" d="M20.5679 0C22.279 0 23.6704 1.3925 23.6704 3.104V20.5664C23.6704 22.2787 22.279 23.6704 20.5679 23.6704H3.104C1.39288 23.6704 0 22.2787 0 20.5664V3.104C0 1.39288 1.3925 0 3.104 0H20.5679Z" fill="#5384B7"/>
<path d="M12 4.5C8.96875 4.5 6.5 6.96875 6.5 10V16.4553C6.49944 17.2559 6.81372 18.0247 7.375 18.5956C7.65028 18.8814 7.98032 19.1088 8.34543 19.2642C8.71053 19.4195 9.10321 19.4997 9.5 19.5C10.6519 19.5 11.5994 19.0119 12.3163 18.0494C12.4563 17.8619 12.6147 17.5887 12.7981 17.2728C13.2769 16.4488 13.9322 15.3206 14.7722 14.7497C15.5775 14.2025 16.2481 13.5141 16.7097 12.7584C17.2347 11.9044 17.5 10.9763 17.5 10C17.5 6.96875 15.0328 4.5 12 4.5ZM15 10.25C14.8674 10.25 14.7402 10.1973 14.6464 10.1036C14.5527 10.0098 14.5 9.88261 14.5 9.75C14.5 8.50938 13.3784 7.5 12 7.5C10.6216 7.5 9.5 8.50938 9.5 9.75V10.7006C10.3497 10.4556 11.325 10.4906 11.5088 10.5C11.7831 10.5026 12.0516 10.5804 12.2848 10.725C12.518 10.8696 12.7071 11.0754 12.8315 11.32C12.9559 11.5646 13.0108 11.8386 12.9903 12.1122C12.9697 12.3858 12.8745 12.6486 12.715 12.8719C12.7056 12.8847 12.6959 12.8972 12.6853 12.9094C12.1681 13.5031 11.5603 14.3306 11.4834 14.6281C11.4475 14.7539 11.3637 14.8605 11.2501 14.9252C11.1364 14.9899 11.0019 15.0075 10.8755 14.9743C10.749 14.941 10.6406 14.8595 10.5735 14.7472C10.5064 14.635 10.486 14.5009 10.5166 14.3737C10.6888 13.7194 11.6706 12.555 11.9122 12.2753C11.9619 12.1999 11.9903 12.1124 11.9943 12.0222C11.9983 11.932 11.9778 11.8423 11.935 11.7628C11.8921 11.6833 11.8285 11.6169 11.7509 11.5706C11.6734 11.5243 11.5847 11.4999 11.4944 11.5H11.4669C10.9481 11.4722 10.0328 11.525 9.5 11.7597V13.5C9.5 13.6326 9.44732 13.7598 9.35355 13.8536C9.25979 13.9473 9.13261 14 9 14C8.86739 14 8.74022 13.9473 8.64645 13.8536C8.55268 13.7598 8.5 13.6326 8.5 13.5V9.75C8.5 7.95781 10.07 6.5 12 6.5C13.93 6.5 15.5 7.95781 15.5 9.75C15.5 9.88261 15.4473 10.0098 15.3536 10.1036C15.2598 10.1973 15.1326 10.25 15 10.25Z" fill="#5384B7"/>
</g>
<defs>
<clipPath id="clip0_1482_5780">
<rect width="24" height="24" fill="white"/>
</clipPath>
</defs>
</svg>
