<svg width="24" height="24" viewBox="0 0 24 24" fill="none" xmlns="http://www.w3.org/2000/svg">
<g clip-path="url(#clip0_1482_6020)">
<path opacity="0.25" d="M20.5679 0C22.279 0 23.6704 1.3925 23.6704 3.104V20.5664C23.6704 22.2787 22.279 23.6704 20.5679 23.6704H3.104C1.39288 23.6704 0 22.2787 0 20.5664V3.104C0 1.39288 1.3925 0 3.104 0H20.5679Z" fill="#5384B7"/>
<path d="M15.3 5C16.6333 5 17.7501 5.47963 18.6504 6.43889C19.5507 7.39815 20.0005 8.53889 20 9.86111C20 10.0944 19.9867 10.3247 19.96 10.5518C19.9333 10.7789 19.8867 11.0024 19.82 11.2222H14.82L13.46 9.23889C13.3933 9.13518 13.3 9.05092 13.18 8.98611C13.06 8.9213 12.9333 8.88889 12.8 8.88889C12.6267 8.88889 12.4701 8.94074 12.3304 9.04444C12.1907 9.14815 12.0939 9.27778 12.04 9.43333L10.96 12.5833L10.26 11.5722C10.1933 11.4685 10.1 11.3843 9.98 11.3194C9.86 11.2546 9.73333 11.2222 9.6 11.2222H4.18C4.11333 11.0019 4.06667 10.7784 4.04 10.5518C4.01333 10.3252 4 10.1014 4 9.88055C4 8.54537 4.44667 7.39815 5.34 6.43889C6.23333 5.47963 7.34667 5 8.68 5C9.32 5 9.92347 5.12315 10.4904 5.36944C11.0573 5.61574 11.5605 5.95926 12 6.4C12.4267 5.95926 12.9235 5.61574 13.4904 5.36944C14.0573 5.12315 14.6605 5 15.3 5ZM12 19C11.76 19 11.5301 18.958 11.3104 18.874C11.0907 18.79 10.8939 18.6635 10.72 18.4944L5.36 13.2639C5.28 13.1861 5.20667 13.1083 5.14 13.0306C5.07333 12.9528 5.00667 12.8685 4.94 12.7778H9.16L10.52 14.7611C10.5867 14.8648 10.68 14.9491 10.8 15.0139C10.92 15.0787 11.0467 15.1111 11.18 15.1111C11.3533 15.1111 11.5133 15.0593 11.66 14.9556C11.8067 14.8518 11.9067 14.7222 11.96 14.5667L13.04 11.4167L13.72 12.4278C13.8 12.5315 13.9 12.6157 14.02 12.6806C14.14 12.7454 14.2667 12.7778 14.4 12.7778H19.04L18.84 13.0111L18.64 13.2444L13.26 18.4944C13.0867 18.663 12.8933 18.7895 12.68 18.874C12.4667 18.9585 12.24 19.0005 12 19Z" fill="#5384B7"/>
</g>
<defs>
<clipPath id="clip0_1482_6020">
<rect width="24" height="24" fill="white"/>
</clipPath>
</defs>
</svg>
