<svg width="24" height="24" viewBox="0 0 24 24" fill="none" xmlns="http://www.w3.org/2000/svg">
<g clip-path="url(#clip0_1482_5788)">
<path opacity="0.25" d="M20.8543 0C22.5892 0 24 1.41189 24 3.14722V20.8528C24 22.5889 22.5892 24 20.8543 24H3.14722C1.41227 24 0 22.5889 0 20.8528V3.14722C0 1.41227 1.41189 0 3.14722 0H20.8543Z" fill="#5384B7"/>
<path d="M11.9992 5C12.2114 5 12.4149 5.08194 12.5649 5.22781C12.715 5.37367 12.7993 5.5715 12.7993 5.77778V9.66667C12.7993 9.93972 12.8732 10.208 13.0137 10.4444C13.1541 10.6809 13.3561 10.8773 13.5993 11.0138V8.311C13.5993 7.345 14.3954 6.55556 15.3859 6.55556C15.6835 6.55556 15.9764 6.62867 16.2836 6.79433L16.4276 6.88533C17.7837 7.842 18.6358 9.24589 19.4463 11.8164C19.8058 12.9593 19.9903 14.2711 19.9999 15.752C20.0127 17.4592 18.6742 18.8818 16.9252 18.9938L16.7356 19C14.9995 19 13.5993 17.6101 13.5993 15.9044V12.6798C13.0214 12.5344 12.4968 12.2349 12.0848 11.8149L11.9992 11.7231L11.9136 11.8149C11.5018 12.2347 10.9775 12.5343 10.3999 12.6798L10.3991 15.9044C10.3991 17.6101 8.99893 19 7.26358 19L7.04916 18.9922C5.32501 18.8818 3.98729 17.4592 4.00009 15.7528C4.00969 14.2709 4.19424 12.959 4.55374 11.8172C5.36261 9.24511 6.21469 7.84122 7.61161 6.85889L7.76202 6.76789C8.02275 6.62828 8.31564 6.55522 8.6133 6.55556C9.60299 6.55556 10.3991 7.345 10.3991 8.311L10.3999 11.0138C10.643 10.8772 10.8448 10.6807 10.9851 10.4443C11.1254 10.2078 11.1992 9.93964 11.1991 9.66667V5.77778C11.1991 5.5715 11.2834 5.37367 11.4335 5.22781C11.5835 5.08194 11.787 5 11.9992 5Z" fill="#5384B7"/>
</g>
<defs>
<clipPath id="clip0_1482_5788">
<rect width="24" height="24" fill="white"/>
</clipPath>
</defs>
</svg>
