<svg width="181" height="154" viewBox="0 0 181 154" fill="none" xmlns="http://www.w3.org/2000/svg">
<g filter="url(#filter0_d_454_2715)">
<path d="M167.734 89.3014C175.061 84.5598 177.151 74.7839 172.403 67.4663C167.655 60.1486 157.867 58.0603 150.541 62.8019C143.214 67.5435 141.124 77.3194 145.872 84.637C150.619 91.9546 160.408 94.0429 167.734 89.3014Z" fill="#5C85A3"/>
<path d="M148.154 73.2717C147.188 70.7822 146.905 68.1998 147.2 65.7214C143.493 69.9972 142.209 76.123 144.396 81.7653C147.548 89.897 156.704 93.9365 164.845 90.7877C170.495 88.6037 174.165 83.531 174.833 77.9142C173.198 79.8007 171.094 81.3302 168.603 82.2942C160.461 85.443 151.306 81.4026 148.154 73.2717Z" fill="#334A5B"/>
<path d="M163.927 64.7312C165.542 66.03 165.995 68.1449 164.938 69.4556C163.881 70.7663 161.716 70.7759 160.101 69.4771C158.486 68.1783 158.033 66.0634 159.09 64.7527C160.146 63.4419 162.312 63.4324 163.927 64.7312Z" fill="#EDEEF2"/>
<path d="M146.546 67.0704C147.221 58.2011 140.57 50.4646 131.689 49.7904C122.809 49.1161 115.063 55.7595 114.387 64.6287C113.712 73.4979 120.364 81.2345 129.245 81.9087C138.125 82.583 145.871 75.9396 146.546 67.0704Z" fill="#5C85A3"/>
<path d="M118.986 67.2032C117.154 65.1869 115.936 62.8319 115.307 60.3647C113.347 65.793 114.375 72.0938 118.528 76.6647C124.513 83.2518 134.712 83.7449 141.307 77.7662C145.883 73.6177 147.516 67.4458 146.09 61.8536C145.226 64.2484 143.786 66.4746 141.767 68.3047C135.171 74.2834 124.973 73.7903 118.986 67.2032Z" fill="#334A5B"/>
<path d="M130.867 53.2972C132.881 53.9423 134.089 55.7899 133.564 57.4243C133.039 59.0588 130.981 59.8613 128.967 59.2163C126.953 58.5712 125.745 56.7236 126.27 55.0892C126.794 53.4547 128.853 52.653 130.867 53.2972Z" fill="#EDEEF2"/>
<path d="M149.454 125.908C151.573 120.887 149.215 115.101 144.188 112.984C139.16 110.868 133.367 113.223 131.248 118.244C129.128 123.265 131.486 129.052 136.514 131.168C141.542 133.284 147.335 130.929 149.454 125.908Z" fill="#80A0B8"/>
<path d="M133.264 121.985C132.311 120.614 131.759 119.087 131.574 117.539C129.951 120.679 130.073 124.589 132.231 127.694C135.342 132.171 141.497 133.281 145.98 130.174C149.09 128.018 150.572 124.399 150.153 120.889C149.437 122.275 148.385 123.513 147.013 124.464C142.529 127.571 136.374 126.461 133.264 121.985Z" fill="#1A2D3C"/>
<path d="M120.491 108.804C123.2 112.703 122.233 118.057 118.329 120.764C114.425 123.47 109.064 122.503 106.354 118.604C103.645 114.706 104.613 109.35 108.516 106.645C112.42 103.938 117.782 104.905 120.491 108.804Z" fill="#80A0B8"/>
<path d="M107.253 113.63C106.424 112.436 105.943 111.107 105.782 109.758C104.368 112.494 104.474 115.899 106.354 118.604C109.064 122.502 114.425 123.47 118.329 120.764C121.038 118.886 122.329 115.733 121.964 112.677C121.34 113.884 120.424 114.962 119.228 115.79C115.325 118.496 109.964 117.529 107.253 113.63Z" fill="#1A2D3C"/>
<path d="M125.854 89.061C128.47 81.1248 124.149 72.5734 116.203 69.9609C108.257 67.3484 99.6945 71.664 97.0787 79.6002C94.4628 87.5364 98.7839 96.0878 106.73 98.7003C114.676 101.313 123.239 96.9972 125.854 89.061Z" fill="#5C85A3"/>
<path d="M101.403 88.4494C99.2374 87.0838 97.5435 85.2569 96.3545 83.1818C95.9436 88.5863 98.4561 94.032 103.363 97.1291C110.436 101.592 119.791 99.4834 124.259 92.4198C127.359 87.5189 127.286 81.5227 124.592 76.8182C124.41 79.2019 123.666 81.5784 122.298 83.741C117.83 90.8029 108.475 92.9114 101.403 88.4494Z" fill="#334A5B"/>
<path d="M108.663 72.886C110.649 72.9655 112.206 74.3351 112.141 75.9457C112.077 77.5563 110.415 78.7986 108.43 78.7191C106.445 78.6403 104.888 77.27 104.952 75.6594C105.017 74.0488 106.679 72.8072 108.663 72.886Z" fill="#EDEEF2"/>
<path d="M139.57 100.017C147.211 99.7193 153.163 93.2914 152.865 85.6601C152.567 78.0288 146.131 72.0839 138.49 72.3817C130.849 72.6796 124.897 79.1075 125.195 86.7388C125.493 94.3701 131.929 100.315 139.57 100.017Z" fill="#5C85A3"/>
<path d="M129.242 87.7948C127.597 86.1325 126.465 84.1569 125.835 82.0635C124.353 86.7911 125.464 92.1589 129.194 95.9281C134.57 101.36 143.337 101.41 148.775 96.0418C152.549 92.3164 153.723 86.9621 152.295 82.217C151.641 84.3024 150.487 86.2654 148.822 87.9086C143.385 93.2772 134.618 93.2263 129.242 87.7948Z" fill="#334A5B"/>
<path d="M138.924 75.4327C140.675 75.9123 141.779 77.4528 141.389 78.8741C140.999 80.2954 139.263 81.059 137.511 80.5794C135.76 80.0998 134.656 78.5584 135.047 77.1379C135.436 75.7158 137.173 74.9531 138.924 75.4327Z" fill="#EDEEF2"/>
<path d="M109.774 93.6749C114.545 95.5575 116.884 100.946 114.999 105.711C113.114 110.476 107.719 112.812 102.948 110.929C98.1771 109.047 95.8382 103.658 97.7232 98.8932C99.6089 94.129 105.004 91.7923 109.774 93.6749Z" fill="#5C85A3"/>
<path d="M100.776 105.924C99.3151 105.347 98.0856 104.441 97.1323 103.326C97.5026 106.628 99.6385 109.623 102.948 110.929C107.719 112.812 113.114 110.475 114.999 105.711C116.307 102.405 115.578 98.8009 113.417 96.2733C113.58 97.7304 113.403 99.2463 112.826 100.705C110.942 105.47 105.547 107.806 100.776 105.924Z" fill="#334A5B"/>
<path d="M103.373 95.7205C104.578 95.5416 105.673 96.1898 105.818 97.1673C105.962 98.1448 105.104 99.0825 103.898 99.2614C102.693 99.4404 101.598 98.7922 101.453 97.8147C101.309 96.8364 102.167 95.8987 103.373 95.7205Z" fill="#EDEEF2"/>
<path d="M167.515 109.475C173.199 105.06 174.224 96.8784 169.803 91.2011C165.382 85.5237 157.19 84.5005 151.506 88.9156C145.821 93.3308 144.797 101.512 149.217 107.19C153.638 112.867 161.83 113.89 167.515 109.475Z" fill="#5C85A3"/>
<path d="M150.284 97.6596C149.316 95.6815 148.902 93.5786 148.97 91.5219C146.223 95.295 145.598 100.419 147.791 104.903C150.952 111.365 158.759 114.045 165.23 110.888C169.72 108.697 172.38 104.272 172.536 99.6098C171.323 101.274 169.703 102.679 167.722 103.645C161.251 106.801 153.444 104.122 150.284 97.6596Z" fill="#334A5B"/>
<path d="M162.647 89.5382C164.066 90.4927 164.586 92.1995 163.81 93.3504C163.034 94.5012 161.255 94.6603 159.836 93.7067C158.418 92.7523 157.897 91.0454 158.674 89.8945C159.45 88.7429 161.229 88.5838 162.647 89.5382Z" fill="#EDEEF2"/>
<path d="M129.604 91.7183C135.368 95.4962 136.976 103.226 133.193 108.985C129.411 114.743 121.671 116.348 115.905 112.57C110.14 108.792 108.533 101.062 112.315 95.3038C116.098 89.5462 123.839 87.9404 129.604 91.7183Z" fill="#5C85A3"/>
<path d="M114.412 105.389C112.647 104.232 111.277 102.703 110.327 100.976C109.912 105.424 111.904 109.949 115.905 112.57C121.67 116.348 129.411 114.743 133.193 108.985C135.818 104.99 135.843 100.046 133.689 96.1317C133.506 98.0938 132.858 100.042 131.7 101.804C127.918 107.562 120.178 109.167 114.412 105.389Z" fill="#334A5B"/>
<path d="M120.618 92.6656C122.253 92.7586 123.516 93.9103 123.441 95.237C123.365 96.5636 121.978 97.5634 120.343 97.4703C118.708 97.3773 117.444 96.2264 117.52 94.8989C117.596 93.5723 118.983 92.5725 120.618 92.6656Z" fill="#EDEEF2"/>
<path d="M166.087 115.631C167.05 121.029 163.451 126.183 158.047 127.146C152.643 128.108 147.481 124.512 146.518 119.116C145.554 113.719 149.155 108.564 154.558 107.601C159.962 106.64 165.123 110.235 166.087 115.631Z" fill="#5C85A3"/>
<path d="M149.862 114.327C149.567 112.675 149.703 111.047 150.185 109.553C147.381 111.745 145.85 115.37 146.519 119.115C147.482 124.512 152.644 128.107 158.048 127.145C161.797 126.478 164.674 123.789 165.765 120.404C164.528 121.371 163.046 122.062 161.392 122.356C155.987 123.319 150.825 119.724 149.862 114.327Z" fill="#334A5B"/>
<path d="M160.625 110.957C161.465 111.953 161.489 113.313 160.679 113.994C159.869 114.675 158.531 114.42 157.692 113.424C156.851 112.428 156.828 111.068 157.637 110.388C158.447 109.706 159.785 109.961 160.625 110.957Z" fill="#EDEEF2"/>
<path d="M152.09 99.2964C156.433 104.081 156.07 111.476 151.278 115.814C146.487 120.151 139.082 119.788 134.74 115.002C130.397 110.217 130.761 102.822 135.552 98.4852C140.343 94.1481 147.747 94.5116 152.09 99.2964Z" fill="#A4BBCC"/>
<path d="M135.078 108.134C133.749 106.669 132.865 104.959 132.41 103.167C130.984 107.107 131.727 111.682 134.74 115.002C139.083 119.787 146.487 120.151 151.278 115.813C154.603 112.804 155.79 108.323 154.758 104.263C154.129 106 153.083 107.617 151.616 108.944C146.825 113.282 139.42 112.919 135.078 108.134Z" fill="#334A5B"/>
<path d="M143.709 98.0437C145.171 98.513 146.047 99.8548 145.666 101.041C145.285 102.228 143.79 102.809 142.328 102.34C140.866 101.871 139.99 100.529 140.371 99.3426C140.752 98.1559 142.247 97.5745 143.709 98.0437Z" fill="#EDEEF2"/>
<path d="M126.977 130.139C132.83 129.926 137.402 125.015 137.189 119.169C136.976 113.323 132.058 108.756 126.204 108.969C120.351 109.182 115.779 114.094 115.992 119.94C116.205 125.786 121.123 130.352 126.977 130.139Z" fill="#5C85A3"/>
<path d="M119.285 121.632C117.887 120.512 116.852 119.108 116.188 117.57C115.477 121.298 116.796 125.285 119.967 127.825C124.537 131.485 131.212 130.753 134.876 126.19C137.419 123.023 137.84 118.845 136.336 115.361C136.022 117.006 135.318 118.6 134.196 119.997C130.53 124.56 123.855 125.293 119.285 121.632Z" fill="#334A5B"/>
<path d="M125.563 111.374C126.939 111.585 127.914 112.66 127.742 113.776C127.571 114.892 126.317 115.625 124.942 115.414C123.567 115.203 122.591 114.128 122.763 113.012C122.935 111.896 124.188 111.163 125.563 111.374Z" fill="#EDEEF2"/>
</g>
<g filter="url(#filter1_d_454_2715)">
<path d="M104.892 104.091C103.317 102.709 104.737 101.094 106.489 99.1029C108.242 97.112 109.663 95.4991 111.238 96.8825C112.813 98.2658 112.669 101.001 110.917 102.99C109.165 104.981 106.467 105.474 104.892 104.091Z" fill="#5384B7"/>
<path d="M95.7793 21.8838C94.2296 24.4722 92.1278 23.2191 89.5362 21.6723C86.9446 20.1255 84.8438 18.8685 86.3935 16.2801C87.9433 13.6918 91.2997 12.8477 93.8923 14.3955C96.4829 15.9423 97.3281 19.2955 95.7793 21.8838Z" fill="#5384B7"/>
<path d="M36.3831 111.666C37.8194 109.013 39.9734 110.174 42.6303 111.607C45.2861 113.042 47.4391 114.206 46.0028 116.859C44.5664 119.512 41.2491 120.5 38.5933 119.066C35.9364 117.632 34.9468 114.319 36.3831 111.666Z" fill="#5384B7"/>
<path d="M68.687 119.412C68.1631 116.395 71.0036 115.901 74.5086 115.294C78.0136 114.687 80.8542 114.197 81.3781 117.213C81.9021 120.23 79.4861 123.168 75.9811 123.774C72.4771 124.381 69.211 122.428 68.687 119.412Z" fill="#5384B7"/>
<path d="M118.428 77.1414C125.064 47.794 106.623 18.6299 77.2389 12.0016C47.8544 5.3733 18.6534 23.7908 12.0168 53.1382C5.38009 82.4856 23.8209 111.65 53.2054 118.278C82.5899 124.906 111.791 106.489 118.428 77.1414Z" fill="#C9D6E0"/>
<path d="M65.2341 108.666C39.1012 108.666 17.1277 90.9098 10.729 66.8209C11.6163 96.1326 35.6705 119.626 65.2341 119.626C94.7977 119.626 118.851 96.1326 119.739 66.8209C113.341 90.9098 91.368 108.666 65.2341 108.666Z" fill="#C9D6E0"/>
<path d="M72.287 12.2442C72.287 16.1348 69.1293 16.1368 65.2338 16.1368C61.3384 16.1368 58.1807 16.1338 58.1807 12.2442C58.1807 8.3537 61.3384 5.2 65.2338 5.2C69.1293 5.2 72.287 8.3537 72.287 12.2442Z" fill="#5384B7"/>
<path d="M93.7277 33.6496C91.6731 36.9547 88.9891 35.2927 85.6798 33.2406C82.3706 31.1886 79.6896 29.5225 81.7442 26.2174C83.7988 22.9123 88.148 21.8969 91.4563 23.9499C94.7665 26.0019 95.7833 30.3455 93.7277 33.6496Z" fill="#5384B7"/>
<path d="M57.1761 107.449C57.8837 104.659 60.1501 105.23 62.9445 105.938C65.7389 106.645 68.0033 107.22 67.2956 110.011C66.588 112.801 63.7485 114.491 60.9541 113.784C58.1598 113.076 56.4685 110.24 57.1761 107.449Z" fill="#5384B7"/>
<path d="M27.5063 46.7557C31.2954 47.6559 30.5677 50.7245 29.6663 54.5097C28.765 58.294 28.0313 61.3615 24.2422 60.4613C20.4532 59.5611 18.1115 55.7628 19.0128 51.9785C19.9142 48.1942 23.7163 45.8555 27.5063 46.7557Z" fill="#5384B7"/>
<path d="M100.4 89.0182C97.2236 86.7677 99.0484 84.1934 101.302 81.0206C103.555 77.8479 105.384 75.2765 108.562 77.5281C111.738 79.7786 112.487 84.1754 110.234 87.3491C107.98 90.5219 103.577 91.2697 100.4 89.0182Z" fill="#5384B7"/>
<path d="M55.2871 90.6181C55.9756 86.7888 59.0841 87.3441 62.9173 88.0318C66.7516 88.7195 69.8591 89.2789 69.1705 93.1082C68.482 96.9376 64.8164 99.4838 60.9822 98.7962C57.149 98.1085 54.5985 94.4465 55.2871 90.6181Z" fill="#5384B7"/>
<path d="M74.8015 40.3821C75.1558 45.6189 70.905 45.9097 65.6616 46.2635C60.4181 46.6174 56.1664 46.9011 55.8121 41.6643C55.4577 36.4275 59.4214 31.8943 64.6649 31.5405C69.9093 31.1866 74.4472 35.1453 74.8015 40.3821Z" fill="#5384B7"/>
<path d="M110.084 38.9055C107.893 40.6588 106.469 38.8855 104.713 36.6971C102.958 34.5088 101.537 32.7334 103.728 30.9801C105.919 29.2268 109.119 29.5797 110.874 31.7681C112.628 33.9564 112.275 37.1522 110.084 38.9055Z" fill="#5384B7"/>
<path d="M12.5137 66.6204C15.3081 66.3477 15.5319 68.6093 15.8049 71.4001C16.0779 74.1909 16.2977 76.4534 13.5034 76.7261C10.709 76.9988 8.22179 74.9578 7.94878 72.1669C7.67577 69.3761 9.71934 66.894 12.5137 66.6204Z" fill="#5384B7"/>
<path d="M27.9168 81.3946C30.5486 80.4172 31.3435 82.5474 32.3221 85.1748C33.3008 87.8033 34.0927 89.9345 31.4609 90.9119C28.8292 91.8892 25.9023 90.552 24.9237 87.9236C23.9451 85.2951 25.285 82.372 27.9168 81.3946Z" fill="#5384B7"/>
<path d="M116.001 71.6477C113.756 71.1946 114.122 69.3761 114.576 67.1336C115.03 64.8911 115.399 63.0737 117.644 63.5268C119.89 63.9799 121.342 66.1653 120.888 68.4088C120.435 70.6512 118.247 72.1018 116.001 71.6477Z" fill="#5384B7"/>
<path d="M24.1946 29.0424C25.92 30.2323 24.9555 31.6307 23.764 33.3539C22.5726 35.0772 21.605 36.4736 19.8797 35.2837C18.1543 34.0937 17.7206 31.732 18.9131 30.0077C20.1035 28.2845 22.4682 27.8525 24.1946 29.0424Z" fill="#5384B7"/>
<path d="M87.7092 108.525C86.6553 106.715 88.1248 105.859 89.9375 104.807C91.7502 103.754 93.2207 102.902 94.2746 104.714C95.3285 106.524 94.7132 108.846 92.8995 109.898C91.0878 110.95 88.7632 110.335 87.7092 108.525Z" fill="#5384B7"/>
<path d="M29.7969 100.912C31.167 99.3275 32.4547 100.435 34.0426 101.805C35.6295 103.173 36.9163 104.284 35.5452 105.869C34.1751 107.454 31.7772 107.631 30.1893 106.261C28.6024 104.893 28.4268 102.498 29.7969 100.912Z" fill="#5384B7"/>
<path d="M102.387 60.1716C98.4373 61.3695 97.4617 58.1727 96.2622 54.227C95.0628 50.2824 94.0922 47.0826 98.0428 45.8846C101.992 44.6867 106.168 46.9131 107.367 50.8588C108.567 54.8035 106.337 58.9727 102.387 60.1716Z" fill="#5384B7"/>
<path d="M47.6206 55.3688C50.7663 58.0394 48.6002 60.5876 45.9273 63.7293C43.2534 66.871 41.0844 69.4152 37.9387 66.7457C34.793 64.0751 34.4106 59.3636 37.0845 56.2229C39.7574 53.0802 44.4749 52.6983 47.6206 55.3688Z" fill="#5384B7"/>
<path d="M82.5995 87.2679C79.1125 85.0605 80.9022 82.2356 83.1124 78.7541C85.3226 75.2716 87.1162 72.4497 90.6032 74.6571C94.0901 76.8645 95.1249 81.4768 92.9147 84.9593C90.7045 88.4418 86.0864 89.4753 82.5995 87.2679Z" fill="#5384B7"/>
<path d="M46.3692 20.3541C49.2379 22.9855 47.104 25.3102 44.4692 28.1752C41.8344 31.0402 39.6965 33.3619 36.8279 30.7305C33.9592 28.0991 33.7695 23.6431 36.4043 20.7781C39.0381 17.9121 43.4996 17.7226 46.3692 20.3541Z" fill="#5384B7"/>
<path d="M75.7419 61.6722C78.0575 64.7919 77.1552 69.3771 73.7275 71.9153C70.2998 74.4525 65.6445 73.9814 63.3289 70.8617C61.0133 67.7421 61.9157 63.1569 65.3434 60.6187C68.7721 58.0815 73.4274 58.5526 75.7419 61.6722Z" fill="#5384B7"/>
</g>
<defs>
<filter id="filter0_d_454_2715" x="90.911" y="49.7433" width="89.4357" height="103.602" filterUnits="userSpaceOnUse" color-interpolation-filters="sRGB">
<feFlood flood-opacity="0" result="BackgroundImageFix"/>
<feColorMatrix in="SourceAlpha" type="matrix" values="0 0 0 0 0 0 0 0 0 0 0 0 0 0 0 0 0 0 127 0" result="hardAlpha"/>
<feMorphology radius="8" operator="erode" in="SourceAlpha" result="effect1_dropShadow_454_2715"/>
<feOffset dy="16"/>
<feGaussianBlur stdDeviation="6.7"/>
<feComposite in2="hardAlpha" operator="out"/>
<feColorMatrix type="matrix" values="0 0 0 0 0 0 0 0 0 0 0 0 0 0 0 0 0 0 0.2 0"/>
<feBlend mode="normal" in2="BackgroundImageFix" result="effect1_dropShadow_454_2715"/>
<feBlend mode="normal" in="SourceGraphic" in2="effect1_dropShadow_454_2715" result="shape"/>
</filter>
<filter id="filter1_d_454_2715" x="2.52432" y="5.2" width="123.847" height="140.085" filterUnits="userSpaceOnUse" color-interpolation-filters="sRGB">
<feFlood flood-opacity="0" result="BackgroundImageFix"/>
<feColorMatrix in="SourceAlpha" type="matrix" values="0 0 0 0 0 0 0 0 0 0 0 0 0 0 0 0 0 0 127 0" result="hardAlpha"/>
<feMorphology radius="8" operator="erode" in="SourceAlpha" result="effect1_dropShadow_454_2715"/>
<feOffset dy="16"/>
<feGaussianBlur stdDeviation="6.7"/>
<feComposite in2="hardAlpha" operator="out"/>
<feColorMatrix type="matrix" values="0 0 0 0 0 0 0 0 0 0 0 0 0 0 0 0 0 0 0.2 0"/>
<feBlend mode="normal" in2="BackgroundImageFix" result="effect1_dropShadow_454_2715"/>
<feBlend mode="normal" in="SourceGraphic" in2="effect1_dropShadow_454_2715" result="shape"/>
</filter>
</defs>
</svg>
