<svg width="57" height="56" viewBox="0 0 57 56" fill="none" xmlns="http://www.w3.org/2000/svg">
<rect opacity="0.25" x="3.75" y="3" width="50" height="50" rx="5" fill="#5384B7"/>
<path d="M27.6295 17.2969L27.0949 18.0724C25.8835 19.8324 23.7165 20.7399 21.561 20.3879L18.1712 19.8434C16.0839 19.5079 14.1843 21.0644 14.19 23.1104C14.19 23.9849 14.554 24.8264 15.191 25.4479L16.8517 27.0539C17.4773 27.6589 17.83 28.4784 17.83 29.3364C17.83 30.2054 17.466 31.0359 16.8233 31.6464L16.0782 32.3504C15.4469 32.9444 15.0943 33.7584 15.0943 34.6109C15.0943 36.6349 17.0337 38.1419 19.0812 37.7019L22.6245 36.9429C23.0625 36.8494 23.5175 36.7999 23.9668 36.7999H24.5355C26.0825 36.7999 27.5897 37.3114 28.8011 38.2464L30.5529 39.6049C31.1501 40.0669 31.8951 40.3199 32.6573 40.3199C34.5171 40.3199 36.0299 38.8624 36.0299 37.0584V35.6724C36.0299 33.7529 37.2471 32.0314 39.0955 31.3384L41.1942 30.5519C42.4682 30.0734 43.3099 28.8854 43.3099 27.5654C43.3099 26.0199 42.1668 24.6889 40.5913 24.4139L38.9988 24.1334C36.9229 23.7649 35.2792 22.2359 34.8128 20.2449L34.409 18.5124C34.028 16.8569 32.5037 15.6799 30.7519 15.6799C29.5007 15.6799 28.3291 16.2849 27.6295 17.2969ZM23.2843 24.4799C23.767 24.4799 24.2299 24.6654 24.5712 24.9954C24.9125 25.3255 25.1043 25.7732 25.1043 26.2399C25.1043 26.7067 24.9125 27.1544 24.5712 27.4844C24.2299 27.8145 23.767 27.9999 23.2843 27.9999C22.8016 27.9999 22.3386 27.8145 21.9973 27.4844C21.656 27.1544 21.4643 26.7067 21.4643 26.2399C21.4643 25.7732 21.656 25.3255 21.9973 24.9954C22.3386 24.6654 22.8016 24.4799 23.2843 24.4799ZM30.5643 25.3599C30.5643 25.1265 30.6601 24.9027 30.8308 24.7377C31.0015 24.5726 31.2329 24.4799 31.4743 24.4799C31.7156 24.4799 31.9471 24.5726 32.1177 24.7377C32.2884 24.9027 32.3843 25.1265 32.3843 25.3599C32.3843 25.5933 32.2884 25.8172 32.1177 25.9822C31.9471 26.1472 31.7156 26.2399 31.4743 26.2399C31.2329 26.2399 31.0015 26.1472 30.8308 25.9822C30.6601 25.8172 30.5643 25.5933 30.5643 25.3599ZM30.5643 29.7599C31.047 29.7599 31.5099 29.9454 31.8512 30.2754C32.1925 30.6055 32.3843 31.0532 32.3843 31.5199C32.3843 31.9867 32.1925 32.4344 31.8512 32.7644C31.5099 33.0945 31.047 33.2799 30.5643 33.2799C30.0816 33.2799 29.6186 33.0945 29.2773 32.7644C28.936 32.4344 28.7443 31.9867 28.7443 31.5199C28.7443 31.0532 28.936 30.6055 29.2773 30.2754C29.6186 29.9454 30.0816 29.7599 30.5643 29.7599Z" fill="#5384B7"/>
</svg>
