<svg width="57" height="56" viewBox="0 0 57 56" fill="none" xmlns="http://www.w3.org/2000/svg">
<g clip-path="url(#clip0_651_1969)">
<path d="M28.5 56C43.964 56 56.5 43.464 56.5 28C56.5 12.536 43.964 0 28.5 0C13.036 0 0.5 12.536 0.5 28C0.5 43.464 13.036 56 28.5 56Z" fill="#5384B7"/>
<path d="M38.7822 39.3811C30.6403 39.3811 32.4568 35.3881 31.9043 31.3901H25.1566C24.6043 35.3881 26.4208 39.3811 18.2787 39.3811C13.0753 39.3811 11.2998 41.6612 11.2998 46.6774V50.0569C16.0511 53.7715 22.032 55.986 28.5305 55.986C35.029 55.986 41.0099 53.7715 45.7612 50.0571V46.6774C45.7611 41.6611 43.9857 39.3811 38.7822 39.3811Z" fill="white"/>
<path opacity="0.1" d="M32.0431 33.7089C32.0253 33.0237 32.0018 32.3164 31.904 31.6089H25.1564C25.059 32.3132 25.0353 33.0172 25.0176 33.6994C25.9939 34.3251 27.1547 34.7011 28.5377 34.7011C29.9139 34.7012 31.0698 34.3289 32.0431 33.7089Z" fill="#334A5B"/>
<path d="M38.7822 39.3811C37.72 39.3811 36.8287 39.3125 36.0781 39.1854L28.5305 40.0079L20.983 39.1854C20.2324 39.3125 19.3409 39.3811 18.2787 39.3811C13.0753 39.3811 11.2998 41.6612 11.2998 46.6774V50.057C16.0511 53.7716 22.032 55.986 28.5305 55.986C35.029 55.986 41.0099 53.7716 45.7612 50.0571V46.6774C45.7611 41.6611 43.9857 39.3811 38.7822 39.3811Z" fill="#5384B7"/>
<path d="M31.9883 40.0577H25.0723L27.4671 43.2057L26.8263 55.9363C27.372 55.968 27.9214 55.9859 28.475 55.9859C29.066 55.9859 29.6519 55.9653 30.2338 55.9293L29.5935 43.2057L31.9883 40.0577Z" fill="#47687F"/>
<path d="M38.7824 39.3811C37.7201 39.3811 36.8288 39.3125 36.0782 39.1854L28.5381 54.1994L20.983 39.1854C20.2324 39.3125 19.3409 39.3811 18.2787 39.3811C13.0753 39.3811 11.2998 41.6612 11.2998 46.6774V50.057C16.0511 53.7716 22.032 55.986 28.5305 55.986C35.029 55.986 41.0099 53.7716 45.7612 50.0571V46.6774C45.7612 41.6611 43.9858 39.3811 38.7824 39.3811Z" fill="white"/>
<path opacity="0.2" d="M27.4678 43.2057H29.594C29.594 43.2057 29.0543 43.3992 28.5309 43.3992C28.0075 43.3992 27.4678 43.2057 27.4678 43.2057Z" fill="#334A5B"/>
<path d="M24.7552 36.3181H24.2365L20.957 39.1483L24.4768 44.1313L28.5308 40.0078L24.7552 36.3181Z" fill="#5384B7"/>
<path d="M32.3171 36.3181H32.8243L36.1039 39.1483L32.5841 44.1313L28.5303 40.0078L32.3171 36.3181Z" fill="#5384B7"/>
<path d="M20.3481 26.2041C21.1817 26.2041 21.8574 25.4074 21.8574 24.4247C21.8574 23.4419 21.1817 22.6453 20.3481 22.6453C19.5146 22.6453 18.8389 23.4419 18.8389 24.4247C18.8389 25.4074 19.5146 26.2041 20.3481 26.2041Z" fill="white"/>
<path d="M36.728 26.2041C37.5616 26.2041 38.2373 25.4074 38.2373 24.4247C38.2373 23.4419 37.5616 22.6453 36.728 22.6453C35.8945 22.6453 35.2188 23.4419 35.2188 24.4247C35.2188 25.4074 35.8945 26.2041 36.728 26.2041Z" fill="white"/>
<path d="M30.0387 11.6528H27.0369C23.0896 11.6528 19.8896 16.2821 19.8896 20.2295C19.8896 20.2295 20.1208 34.095 28.5377 34.095C36.9548 34.095 37.1858 20.2295 37.1858 20.2295C37.1858 16.2821 33.9859 11.6528 30.0387 11.6528Z" fill="white"/>
<path opacity="0.1" d="M36.6731 20.5487C36.3328 18.7744 33.9069 18.0157 33.0412 14.1365C31.1497 19.6829 21.7218 19.8543 20.8959 20.5487C20.3476 21.0097 20.3156 22.0265 20.3559 22.6582C20.3937 22.1341 20.5292 21.5773 20.8959 21.2689C21.7218 20.5745 31.1497 20.403 33.0412 14.8567C33.9069 18.736 36.3328 19.4948 36.6731 21.2689C36.7519 21.6793 36.7924 22.0395 36.8099 22.354C36.8379 21.9204 36.821 21.3195 36.6731 20.5487Z" fill="#334A5B"/>
<path d="M37.4762 22.8796C38.7502 20.9666 40.225 9.16843 33.0411 9.47271C26.6998 4.04137 15.2823 11.2844 19.5996 22.8796L20.4152 23.3931C20.4152 23.3931 20.0699 21.4368 20.8958 20.7424C21.7217 20.048 31.1496 19.8766 33.0412 14.3302C33.9069 18.2095 36.3327 18.9682 36.6731 20.7424C37.0133 22.5167 36.6606 23.3931 36.6606 23.3931L37.4762 22.8796Z" fill="#334A5B"/>
<path opacity="0.1" d="M24.4763 44.568L28.5303 40.3344L32.5841 44.568L36.4307 39.239L36.428 39.2382C36.3084 39.2218 36.191 39.2044 36.0779 39.1853L32.5842 44.1314L28.5304 40.0078L24.4764 44.1314L20.9828 39.1853C20.8696 39.2046 20.7523 39.2218 20.6326 39.2382L20.6299 39.239L24.4763 44.568Z" fill="#334A5B"/>
<path d="M23.3286 37.1012L18.2783 39.3811L22.5674 43.2057L20.4528 44.568L28.5376 54.1995L23.3286 37.1012Z" fill="white"/>
<path d="M33.7472 37.1012L38.7973 39.3811L34.5084 43.2057L36.623 44.568L28.5381 54.1995L33.7472 37.1012Z" fill="white"/>
<path opacity="0.1" d="M38.8005 39.3811L34.499 43.2058L34.7838 43.3894L39.202 39.3867C39.07 39.3835 38.9371 39.3811 38.8005 39.3811Z" fill="#334A5B"/>
<path opacity="0.1" d="M18.2383 39.3811L22.5399 43.2058L22.2551 43.3894L17.8369 39.3867C17.9688 39.3835 18.1017 39.3811 18.2383 39.3811Z" fill="#334A5B"/>
<path opacity="0.1" d="M36.3845 44.8521L28.5379 54.1995L20.6915 44.8521L20.4531 45.0055L28.5379 54.6656L36.6228 45.0055L36.3845 44.8521Z" fill="#334A5B"/>
</g>
<defs>
<clipPath id="clip0_651_1969">
<rect width="56" height="56" fill="white" transform="translate(0.5)"/>
</clipPath>
</defs>
</svg>
