<svg width="80" height="80" viewBox="0 0 80 80" fill="none" xmlns="http://www.w3.org/2000/svg">
<path opacity="0.4" d="M49.7765 16.6667H30.2232C21.7298 16.6667 16.6665 21.73 16.6665 30.2234V49.7534C16.6665 58.27 21.7298 63.3334 30.2232 63.3334H49.7532C58.2465 63.3334 63.3098 58.27 63.3098 49.7767V30.2234C63.3332 21.73 58.2698 16.6667 49.7765 16.6667Z" fill="#5384B7"/>
<path d="M49.3332 38.25H41.7498V30.6667C41.7498 29.71 40.9565 28.9167 39.9998 28.9167C39.0432 28.9167 38.2498 29.71 38.2498 30.6667V38.25H30.6665C29.7098 38.25 28.9165 39.0434 28.9165 40C28.9165 40.9567 29.7098 41.75 30.6665 41.75H38.2498V49.3334C38.2498 50.29 39.0432 51.0834 39.9998 51.0834C40.9565 51.0834 41.7498 50.29 41.7498 49.3334V41.75H49.3332C50.2898 41.75 51.0832 40.9567 51.0832 40C51.0832 39.0434 50.2898 38.25 49.3332 38.25Z" fill="#5384B7"/>
</svg>
