<svg width="24" height="24" viewBox="0 0 24 24" fill="none" xmlns="http://www.w3.org/2000/svg">
<g clip-path="url(#clip0_1482_5798)">
<path opacity="0.25" d="M20.5679 0C22.279 0 23.6704 1.3925 23.6704 3.104V20.5664C23.6704 22.2787 22.279 23.6704 20.5679 23.6704H3.104C1.39288 23.6704 0 22.2787 0 20.5664V3.104C0 1.39288 1.3925 0 3.104 0H20.5679Z" fill="#5384B7"/>
<path fill-rule="evenodd" clip-rule="evenodd" d="M6.20044 4.82385C6.84552 4.44102 7.60941 4.24829 8.47979 4.24829C9.33872 4.24829 10.0709 4.68216 10.5761 4.98138C11.0038 5.23659 11.4825 5.56837 12 5.56837C12.5175 5.56837 12.9962 5.23571 13.4239 4.98138C13.93 4.68304 14.6622 4.24829 15.5202 4.24829C16.3915 4.24829 17.1554 4.44102 17.7996 4.82385C18.4438 5.20667 18.9199 5.75143 19.2569 6.37979C19.917 7.60834 20.0666 9.18892 19.976 10.7273C19.8835 12.2894 19.5359 13.9227 19.095 15.3432C18.6567 16.7521 18.1058 18.0168 17.5725 18.8176C16.96 19.7355 16.109 20.1923 15.2069 20.0655C14.3788 19.9494 13.7355 19.3676 13.4134 18.7226C13.0693 18.0344 12.91 17.2661 12.6081 16.5594C12.4579 16.2115 12.3157 15.9636 12.1813 15.8157C12.0405 15.6609 11.9551 15.6653 11.8196 15.8157C11.6847 15.9636 11.5421 16.2115 11.3919 16.5594C11.09 17.2661 10.9316 18.0344 10.5875 18.7226C10.2645 19.3676 9.62122 19.9494 8.79397 20.0655C7.89103 20.1923 7.04002 19.7355 6.4275 18.8176C5.89418 18.0168 5.34327 16.7521 4.905 15.3432C4.46409 13.9227 4.11647 12.2894 4.02495 10.7281C3.93342 9.18804 4.08303 7.60834 4.74307 6.37979C5.08013 5.75143 5.55624 5.20667 6.20044 4.82385Z" fill="#5384B7"/>
</g>
<defs>
<clipPath id="clip0_1482_5798">
<rect width="24" height="24" fill="white"/>
</clipPath>
</defs>
</svg>
