<svg width="24" height="24" viewBox="0 0 24 24" fill="none" xmlns="http://www.w3.org/2000/svg">
<g clip-path="url(#clip0_1482_6266)">
<path opacity="0.25" d="M20.6411 0.210938C22.3522 0.210938 23.7437 1.60344 23.7437 3.31494V20.7773C23.7437 22.4896 22.3522 23.8813 20.6411 23.8813H3.17725C1.46612 23.8813 0.0732422 22.4896 0.0732422 20.7773V3.31494C0.0732422 1.60382 1.46575 0.210938 3.17725 0.210938H20.6411Z" fill="#5384B7"/>
<path d="M13.3475 18.1152C13.2501 18.0355 13.118 17.9908 12.9804 17.9908C12.8428 17.9908 12.7108 18.0355 12.6134 18.1152L10.1689 20.1182L9.86471 19.8688L13.1425 17.1847C13.24 17.1049 13.2947 16.9966 13.2948 16.8837C13.2948 16.7708 13.2402 16.6624 13.1428 16.5825C13.0455 16.5027 12.9134 16.4578 12.7757 16.4577C12.638 16.4577 12.5059 16.5025 12.4084 16.5823L9.13148 19.2668L8.82792 19.0179L12.6402 15.8947C12.7312 15.8139 12.7805 15.7074 12.7779 15.5975C12.7752 15.4876 12.7209 15.3827 12.6262 15.3049C12.5315 15.2271 12.4037 15.1824 12.2697 15.18C12.1357 15.1776 12.0057 15.2178 11.907 15.2922L8.0941 18.4152L7.79053 18.1658L10.7825 15.7145C10.8733 15.6337 10.9226 15.5271 10.9198 15.4172C10.9171 15.3073 10.8626 15.2026 10.7679 15.1248C10.6731 15.0471 10.5453 15.0024 10.4113 15.0001C10.2772 14.9978 10.1473 15.0381 10.0487 15.1126L6.19945 18.2627C6.19599 17.813 6.19412 17.3633 6.19384 16.9135C6.19384 16.2254 5.13342 16.1235 5.08056 16.1714C5.02888 16.2213 4.5 21 4.5 21H10.569L10.9071 20.7228L10.9027 20.7196L13.3481 18.7162C13.4453 18.6364 13.4999 18.5281 13.5 18.4153C13.5001 18.3024 13.4455 18.1942 13.3484 18.1143L13.3475 18.1152Z" fill="#5384B7"/>
<path d="M14.9049 4.50027C12.1399 4.50027 9.59225 6.6333 9.06117 8.98219C8.94224 9.50587 8.8092 10.8695 8.8092 10.8695L7.53872 14.1621C7.50716 14.2389 7.49458 14.3225 7.50213 14.4055C7.50968 14.4885 7.5371 14.5683 7.58196 14.6377C7.62682 14.7071 7.68771 14.7641 7.75919 14.8034C7.83067 14.8427 7.91051 14.8632 7.99157 14.863H8.42527L9.1998 14.0671C9.3087 13.955 9.44516 13.8753 9.59464 13.8367C9.74411 13.798 9.90099 13.8018 10.0485 13.8476C10.1961 13.8935 10.3287 13.9796 10.4324 14.0969C10.5361 14.2142 10.6068 14.3583 10.6371 14.5137L10.8742 14.2701C11.033 14.1114 11.2457 14.0225 11.4672 14.0224C11.6886 14.0223 11.9015 14.1109 12.0604 14.2695C12.2194 14.428 12.312 14.6441 12.3187 14.8717C12.3253 15.0994 12.2454 15.3207 12.096 15.4888C12.2471 15.52 12.3873 15.5928 12.5014 15.6994C12.6155 15.806 12.6994 15.9424 12.7441 16.0942C12.7888 16.2459 12.7926 16.4073 12.7552 16.5611C12.7178 16.7149 12.6405 16.8554 12.5315 16.9676L12.2841 17.2215C12.4427 17.2546 12.5938 17.3337 12.7164 17.4598C12.8763 17.6243 12.9661 17.8473 12.9661 18.0798C12.9661 18.3124 12.8763 18.5354 12.7164 18.6998L12.167 19.264V21H18.6716V15.6847C20.0876 14.5396 21 12.7596 21 10.7625C21 7.30308 18.2725 4.5 14.9049 4.5V4.50027ZM10.3101 12.1202C10.2208 12.1203 10.1324 12.1023 10.0499 12.0672C9.96739 12.0322 9.8924 11.9807 9.82921 11.9159C9.7016 11.7849 9.62981 11.6072 9.62963 11.4218C9.62946 11.2364 9.70091 11.0585 9.82827 10.9273C9.95564 10.796 10.1285 10.7222 10.3088 10.722C10.4891 10.7219 10.6621 10.7953 10.7897 10.9263C10.9173 11.0573 10.9891 11.235 10.9892 11.4204C10.9894 11.6058 10.918 11.7837 10.7906 11.9149C10.6632 12.0462 10.4904 12.12 10.3101 12.1202ZM13.4912 13.7489C13.661 13.7489 13.8015 13.892 13.8015 14.066C13.8015 14.2422 13.661 14.3842 13.4912 14.3842C13.4496 14.386 13.408 14.3791 13.369 14.364C13.3301 14.3488 13.2945 14.3257 13.2644 14.296C13.2343 14.2663 13.2104 14.2307 13.194 14.1913C13.1777 14.1519 13.1692 14.1094 13.1692 14.0666C13.1692 14.0237 13.1777 13.9813 13.194 13.9419C13.2104 13.9025 13.2343 13.8668 13.2644 13.8372C13.2945 13.8075 13.3301 13.7844 13.369 13.7692C13.408 13.7541 13.4496 13.7472 13.4912 13.7489ZM13.3066 15.7378C13.2659 15.7377 13.2257 15.7294 13.1881 15.7133C13.1506 15.6972 13.1165 15.6737 13.0877 15.6441C13.059 15.6145 13.0363 15.5793 13.0208 15.5407C13.0053 15.502 12.9973 15.4606 12.9974 15.4187C12.9975 15.3769 13.0056 15.3355 13.0212 15.2969C13.0368 15.2583 13.0597 15.2232 13.0885 15.1937C13.1173 15.1642 13.1515 15.1408 13.1891 15.1248C13.2267 15.1089 13.267 15.1007 13.3077 15.1008C13.3898 15.101 13.4685 15.1346 13.5265 15.1945C13.5845 15.2543 13.617 15.3354 13.6168 15.4198C13.6167 15.5043 13.5839 15.5852 13.5257 15.6449C13.4676 15.7045 13.3887 15.7379 13.3066 15.7378ZM13.9675 17.1074C13.8445 17.0968 13.7307 17.0365 13.651 16.9396C13.5712 16.8428 13.5322 16.7173 13.5423 16.5909C13.5533 16.4648 13.6124 16.3484 13.7067 16.2671C13.8009 16.1857 13.9226 16.146 14.0452 16.1567C14.2998 16.1791 14.4895 16.4106 14.4667 16.6718C14.4618 16.7342 14.4449 16.7949 14.4172 16.8505C14.3894 16.9061 14.3513 16.9556 14.3049 16.996C14.2585 17.0364 14.2049 17.0671 14.147 17.0862C14.0891 17.1052 14.0281 17.1126 13.9675 17.1074ZM14.4134 15.1996C14.3526 15.1996 14.2924 15.1873 14.2363 15.1633C14.1801 15.1394 14.1291 15.1044 14.0861 15.0601C14.0431 15.0159 14.009 14.9635 13.9857 14.9057C13.9624 14.8479 13.9505 14.786 13.9505 14.7235C13.9505 14.661 13.9624 14.5991 13.9857 14.5413C14.009 14.4836 14.0431 14.4311 14.0861 14.3869C14.1291 14.3427 14.1801 14.3076 14.2363 14.2837C14.2924 14.2598 14.3526 14.2474 14.4134 14.2474C14.6675 14.2474 14.8745 14.4603 14.8745 14.7232C14.8745 14.9862 14.6675 15.1996 14.4134 15.1996ZM15.0714 16.198C14.8995 16.198 14.7601 16.0562 14.7601 15.8792C14.7634 15.7969 14.7976 15.7191 14.8554 15.662C14.9132 15.605 14.9902 15.5731 15.0704 15.5731C15.1505 15.5731 15.2275 15.605 15.2853 15.662C15.3431 15.7191 15.3773 15.7969 15.3806 15.8792C15.3806 16.056 15.2425 16.198 15.0714 16.198ZM15.7632 14.3481H15.6549V13.7798L15.7619 13.7788C16.0938 13.7777 16.4118 13.6418 16.6468 13.4008C16.8817 13.1597 17.0146 12.833 17.0164 12.4917C17.0146 12.1505 16.8818 11.8239 16.647 11.5828C16.4121 11.3418 16.0942 11.2059 15.7624 11.2047L15.6549 11.2041V10.6364H15.7632C16.7596 10.6364 17.5696 11.4682 17.5696 12.4917C17.5696 13.5153 16.7596 14.3481 15.7632 14.3481Z" fill="#5384B7"/>
</g>
<defs>
<clipPath id="clip0_1482_6266">
<rect width="24" height="24" fill="white"/>
</clipPath>
</defs>
</svg>
