<svg width="24" height="24" viewBox="0 0 24 24" fill="none" xmlns="http://www.w3.org/2000/svg">
<g clip-path="url(#clip0_1482_6215)">
<path opacity="0.25" d="M20.5679 0C22.279 0 23.6704 1.3925 23.6704 3.104V20.5664C23.6704 22.2787 22.279 23.6704 20.5679 23.6704H3.104C1.39288 23.6704 0 22.2787 0 20.5664V3.104C0 1.39288 1.3925 0 3.104 0H20.5679Z" fill="#5384B7"/>
<path fill-rule="evenodd" clip-rule="evenodd" d="M5.01558 12.6133C5.01558 12.6133 3.8618 13.6525 4.0138 14.4862C4.16624 15.3196 5.66891 15.5493 5.66891 15.5493V15.564H6.66669C6.78468 15.564 6.89784 15.6109 6.98127 15.6943C7.0647 15.7777 7.11157 15.8909 7.11157 16.0089C7.11157 16.1269 7.0647 16.24 6.98127 16.3235C6.89784 16.4069 6.78468 16.4538 6.66669 16.4538H5.76002C6.29424 18.8738 9.04313 18.6716 10.4871 18.3862C11.0205 18.2809 11.376 18.164 11.376 18.164V18.7973C11.376 18.7973 11.4093 18.9031 11.5125 19.0524C11.7436 19.3876 12.3267 19.9404 13.6711 20C13.6702 19.9861 13.6698 19.972 13.6698 19.9578V18.8178C13.6699 18.3539 13.4968 17.9068 13.1844 17.564C12.8719 17.2211 12.4427 17.0073 11.9809 16.9644L11.3831 16.9093C11.3061 16.9019 11.2289 16.8984 11.1516 16.8987H9.4409C9.11392 16.8986 8.79838 16.7783 8.55427 16.5607C8.31016 16.3432 8.15451 16.0435 8.11691 15.7187C8.53957 15.7569 9.08891 15.7867 9.77779 15.7867C9.89578 15.7867 10.0089 15.7398 10.0924 15.6564C10.1758 15.5729 10.2227 15.4598 10.2227 15.3418C10.2227 15.2238 10.1758 15.1106 10.0924 15.0272C10.0089 14.9438 9.89578 14.8969 9.77779 14.8969C9.00046 14.8969 8.41691 14.8578 8.00535 14.8138L6.02891 14.4929C5.89602 14.4711 5.82047 14.34 5.89691 14.2289C6.15913 13.8489 6.94402 13.1178 9.11113 13.1178H10.4338C10.5893 13.1178 10.7443 13.1255 10.8987 13.1409C12.0533 13.2568 13.1238 13.7976 13.9022 14.6583C14.6805 15.519 15.1114 16.6382 15.1111 17.7987V19.8498C15.9556 19.6053 16.8209 19.104 17.1258 18.4831V15.6151C18.7493 14.4009 20 12.7645 20 10.6445C20 8.88223 19.2649 7.19201 17.9569 5.94579C16.6489 4.69957 14.8747 4.00002 13.0245 4.00002C11.6163 3.99739 10.2231 4.28958 8.93468 4.85779C7.9347 5.25603 7.05131 5.90004 6.36624 6.73024C5.75395 7.58486 5.41169 8.60329 5.38358 9.65423C5.3778 9.89423 5.38136 10.1218 5.38447 10.3418C5.39602 11.1191 5.40624 11.804 5.01558 12.6133ZM16.8347 9.49157C16.4689 9.1089 15.9253 8.89246 15.2222 8.89246H14.7778V9.78223H15.2222C15.7396 9.78223 16.0298 9.93646 16.192 10.1067C16.36 10.2822 16.4444 10.5298 16.4444 10.8076C16.4444 11.16 16.2089 11.5751 15.8498 11.9765C15.5882 12.2656 15.295 12.5244 14.9756 12.748L14.6058 12.9947L15.0991 13.7347L15.4689 13.488C15.8506 13.2232 16.2004 12.9152 16.5116 12.5702C16.9022 12.1333 17.3333 11.5049 17.3333 10.8071C17.3333 10.3556 17.1951 9.86846 16.8347 9.49157Z" fill="#5384B7"/>
</g>
<defs>
<clipPath id="clip0_1482_6215">
<rect width="24" height="24" fill="white"/>
</clipPath>
</defs>
</svg>
