<svg width="24" height="24" viewBox="0 0 24 24" fill="none" xmlns="http://www.w3.org/2000/svg">
<path opacity="0.4" d="M15.48 3H7.52C4.07 3 2 5.06 2 8.52V16.47C2 19.94 4.07 22 7.52 22H15.47C18.93 22 20.99 19.94 20.99 16.48V8.52C21 5.06 18.93 3 15.48 3Z" fill="#5384B7"/>
<path d="M21.02 2.98003C19.23 1.18003 17.48 1.14003 15.64 2.98003L14.51 4.10003C14.41 4.20003 14.38 4.34003 14.42 4.47003C15.12 6.92003 17.08 8.88003 19.53 9.58003C19.56 9.59003 19.61 9.59003 19.64 9.59003C19.74 9.59003 19.84 9.55003 19.91 9.48003L21.02 8.36003C21.93 7.45003 22.38 6.58003 22.38 5.69003C22.38 4.79003 21.93 3.90003 21.02 2.98003Z" fill="#5384B7"/>
<path d="M17.8601 10.42C17.5901 10.29 17.3301 10.16 17.0901 10.01C16.8901 9.88997 16.6901 9.75997 16.5001 9.61997C16.3401 9.51997 16.1601 9.36997 15.9801 9.21997C15.9601 9.20997 15.9001 9.15997 15.8201 9.07997C15.5101 8.82997 15.1801 8.48997 14.8701 8.11997C14.8501 8.09997 14.7901 8.03997 14.7401 7.94997C14.6401 7.83997 14.4901 7.64997 14.3601 7.43997C14.2501 7.29997 14.1201 7.09997 14.0001 6.88997C13.8501 6.63997 13.7201 6.38997 13.6001 6.12997C13.4701 5.84997 13.3701 5.58997 13.2801 5.33997L7.9001 10.72C7.5501 11.07 7.2101 11.73 7.1401 12.22L6.7101 15.2C6.6201 15.83 6.7901 16.42 7.1801 16.81C7.5101 17.14 7.9601 17.31 8.4601 17.31C8.5701 17.31 8.6801 17.3 8.7901 17.29L11.7601 16.87C12.2501 16.8 12.9101 16.47 13.2601 16.11L18.6401 10.73C18.3901 10.65 18.1401 10.54 17.8601 10.42Z" fill="#5384B7"/>
</svg>
