<svg width="27" height="27" viewBox="0 0 27 27" fill="none" xmlns="http://www.w3.org/2000/svg">
<path d="M27 13.5822C27 20.3614 22.0632 25.9803 15.6097 26.9991V17.5081H18.7549L19.3538 13.5822H15.6097V11.0345C15.6097 9.9602 16.1323 8.91321 17.8095 8.91321H19.5118V5.5707C19.5118 5.5707 19.5101 5.57028 19.5071 5.56985C19.5037 5.56943 19.4919 5.56772 19.4724 5.56431C19.4669 5.56303 19.4609 5.56218 19.4546 5.56133C19.4249 5.55664 19.383 5.54982 19.3301 5.54173C19.3135 5.53917 19.2962 5.53661 19.278 5.53363C19.2767 5.53363 19.2754 5.53363 19.2742 5.53363C19.2555 5.53065 19.2356 5.52767 19.2149 5.52468C19.192 5.5217 19.1674 5.51787 19.1416 5.51446C19.1187 5.51105 19.0946 5.50764 19.07 5.50423C19.0687 5.50423 19.0675 5.5038 19.0658 5.5038C19.0277 5.49826 18.9874 5.49272 18.9451 5.48719C18.9002 5.48122 18.8532 5.47525 18.804 5.46886C18.7735 5.4646 18.7422 5.46077 18.7104 5.45693C18.7092 5.45693 18.7079 5.45693 18.7062 5.45693C18.6071 5.44457 18.5012 5.43221 18.3898 5.42028C18.3885 5.42028 18.3868 5.42028 18.3856 5.41986C18.3491 5.4156 18.3123 5.41176 18.2746 5.40793C18.2145 5.40153 18.1526 5.39557 18.0891 5.3896C18.0315 5.38406 17.9726 5.37852 17.9133 5.37341C17.9078 5.37298 17.9023 5.37256 17.8964 5.37171C17.8629 5.36915 17.829 5.36617 17.7947 5.36318C17.7397 5.35892 17.6838 5.35466 17.627 5.35082C17.5995 5.34869 17.5715 5.34656 17.5431 5.34486C17.5254 5.34315 17.508 5.34188 17.4902 5.34102C17.4762 5.34017 17.4622 5.33932 17.4483 5.33847C17.3826 5.33421 17.3161 5.33037 17.2492 5.32696C16.9997 5.31375 16.7439 5.30608 16.4898 5.30608C13.406 5.30608 11.3908 7.18656 11.3908 10.5904V13.5831H7.96303V17.509H11.3908V27C11.3908 27 11.3882 26.9996 11.3869 26.9996C4.9347 25.9782 0 20.3602 0 13.5822C0 6.08077 6.04438 0 13.5 0C20.9556 0 27 6.08077 27 13.5822Z" fill="#343A40"/>
<path d="M11.3871 17.508H11.3909V26.9991C11.3909 26.9991 11.3884 26.9986 11.3871 26.9986V17.508Z" fill="white"/>
<path d="M16.4898 5.30519C13.406 5.30519 11.3908 7.18567 11.3908 10.5895V13.5822H7.96308V17.5076H7.95927V13.5813H11.387V10.5891C11.387 7.18524 13.4022 5.30476 16.486 5.30476C16.7414 5.30476 16.9985 5.31286 17.2493 5.32607C16.9998 5.31286 16.744 5.30519 16.4898 5.30519Z" fill="white"/>
<path d="M19.3501 13.5814H15.6098L15.6097 13.5822L19.3501 13.5822V13.5814Z" fill="white"/>
</svg>
