<svg width="80" height="80" viewBox="0 0 80 80" fill="none" xmlns="http://www.w3.org/2000/svg">
<path opacity="0.4" d="M52.9034 30.13C52.7401 30.1066 52.5768 30.1066 52.4134 30.13C48.7968 30.0133 45.9268 27.05 45.9268 23.41C45.9268 19.7 48.9368 16.6666 52.6701 16.6666C56.3801 16.6666 59.4134 19.6766 59.4134 23.41C59.3901 27.05 56.5201 30.0133 52.9034 30.13Z" fill="#5384B7"/>
<path opacity="0.4" d="M60.5101 46.2999C57.8967 48.0499 54.2334 48.7033 50.8501 48.2599C51.7367 46.3466 52.2034 44.2233 52.2267 41.9833C52.2267 39.65 51.7134 37.4333 50.7334 35.4966C54.1867 35.03 57.8501 35.6833 60.4867 37.4333C64.1734 39.8599 64.1734 43.8499 60.5101 46.2999Z" fill="#5384B7"/>
<path opacity="0.4" d="M27.0266 30.13C27.1899 30.1066 27.3533 30.1066 27.5166 30.13C31.1333 30.0133 34.0033 27.05 34.0033 23.41C34.0033 19.7 30.9933 16.6666 27.2599 16.6666C23.5499 16.6666 20.5166 19.6766 20.5166 23.41C20.5399 27.05 23.4099 30.0133 27.0266 30.13Z" fill="#5384B7"/>
<path opacity="0.4" d="M27.2831 41.9834C27.2831 44.2467 27.7731 46.3934 28.6598 48.3301C25.3698 48.68 21.9398 47.98 19.4198 46.3234C15.7331 43.8734 15.7331 39.8834 19.4198 37.4334C21.9165 35.7534 25.4398 35.0767 28.7531 35.45C27.7965 37.41 27.2831 39.6267 27.2831 41.9834Z" fill="#5384B7"/>
<path d="M40.2802 49.03C40.0935 49.0067 39.8835 49.0067 39.6735 49.03C35.3802 48.89 31.9502 45.3667 31.9502 41.0267C31.9502 36.5933 35.5202 33 39.9769 33C44.4102 33 48.0035 36.5933 48.0035 41.0267C48.0035 45.3667 44.5969 48.89 40.2802 49.03Z" fill="#5384B7"/>
<path d="M32.6967 53.86C29.1734 56.2167 29.1734 60.09 32.6967 62.4234C36.71 65.1067 43.29 65.1067 47.3034 62.4234C50.8267 60.0667 50.8267 56.1934 47.3034 53.86C43.3134 51.1767 36.7334 51.1767 32.6967 53.86Z" fill="#5384B7"/>
</svg>
