<svg width="114" height="23" viewBox="0 0 114 23" fill="none" xmlns="http://www.w3.org/2000/svg">
<path d="M5.68359 17H1.69922L1.23047 16.9883C0.902344 16.9883 0.738281 16.8438 0.738281 16.5547C0.738281 16.375 0.816406 16.2344 0.972656 16.1328C1.37891 15.9219 1.62109 15.582 1.69922 15.1133V2.98438C1.62109 2.51562 1.37891 2.17578 0.972656 1.96484C0.816406 1.86328 0.738281 1.72266 0.738281 1.54297C0.738281 1.25391 0.898438 1.10938 1.21875 1.10938C1.53906 1.10156 4.75391 1.09766 10.8633 1.09766C11.3164 1.09766 11.6758 1.15625 11.9414 1.27344C12.207 1.38281 12.3789 1.59375 12.457 1.90625C12.8008 3.14844 12.9727 3.79687 12.9727 3.85156C12.9727 4.00781 12.875 4.08594 12.6797 4.08594C12.5156 4.08594 12.4023 4.01172 12.3398 3.86328C12.082 3.11328 11.5781 2.57422 10.8281 2.24609C10.0781 1.91016 9.19531 1.74219 8.17969 1.74219H5.68359V8.72656H7.45312C7.80469 8.72656 8.16406 8.67578 8.53125 8.57422C9.35938 8.35547 9.82422 7.88672 9.92578 7.16797C9.94922 7.01172 10.0586 6.93359 10.2539 6.93359C10.4648 6.93359 10.5703 7.01172 10.5703 7.16797V10.9648C10.5703 11.0977 10.4648 11.1641 10.2539 11.1641C10.0586 11.1641 9.94922 11.0938 9.92578 10.9531C9.87891 10.5703 9.72656 10.2617 9.46875 10.0273C8.97656 9.58984 8.30469 9.37109 7.45312 9.37109H5.68359V15.1133C5.77734 15.582 6.01953 15.9219 6.41016 16.1328C6.57422 16.2266 6.65625 16.375 6.65625 16.5781C6.65625 16.8516 6.49219 16.9883 6.16406 16.9883L5.68359 17ZM17.5664 17.3164C16.5117 17.3164 15.543 17.0977 14.6602 16.6602C13.7773 16.2227 13.0469 15.5508 12.4688 14.6445C11.8281 13.5586 11.5078 12.3984 11.5078 11.1641C11.5078 10.9922 11.5156 10.8164 11.5312 10.6367C11.6797 8.86328 12.3242 7.44531 13.4648 6.38281C14.6133 5.32031 16.0742 4.78906 17.8477 4.78906C18.8711 4.78906 19.7344 4.95703 20.4375 5.29297C21.1406 5.62109 21.6875 6.04688 22.0781 6.57031C22.5312 7.1875 22.7578 7.86719 22.7578 8.60938C22.7578 9.09375 22.6367 9.58984 22.3945 10.0977C22.1523 10.6055 21.7305 11.0625 21.1289 11.4688C20.5273 11.8672 19.7539 12.1289 18.8086 12.2539C18.4961 12.3008 18.168 12.3242 17.8242 12.3242C17.1133 12.3242 16.3281 12.2305 15.4688 12.043C15.625 12.5977 15.8594 13.0977 16.1719 13.543C16.4922 13.9805 16.9023 14.332 17.4023 14.5977C17.9023 14.8555 18.4961 14.9844 19.1836 14.9844C20.1992 14.9844 21.1484 14.7031 22.0312 14.1406C22.1172 14.0859 22.2031 14.0586 22.2891 14.0586C22.3516 14.0586 22.4102 14.0781 22.4648 14.1172C22.5586 14.1875 22.6055 14.2812 22.6055 14.3984C22.6055 14.4531 22.5898 14.5078 22.5586 14.5625C21.9883 15.4141 21.2656 16.0859 20.3906 16.5781C19.5234 17.0703 18.582 17.3164 17.5664 17.3164ZM15.3047 11.3164C16.8984 11.3164 18.0586 10.8359 18.7852 9.875C19.2461 9.21094 19.4766 8.41797 19.4766 7.49609C19.4766 6.21484 18.9609 5.55078 17.9297 5.50391C17.2812 5.52734 16.7305 5.83203 16.2773 6.41797C15.832 7.00391 15.5391 7.63672 15.3984 8.31641C15.2656 8.98828 15.1992 9.56641 15.1992 10.0508C15.1992 10.4727 15.2344 10.8945 15.3047 11.3164ZM29.5664 17.3164C28.5117 17.3164 27.543 17.0977 26.6602 16.6602C25.7773 16.2227 25.0469 15.5508 24.4688 14.6445C23.8281 13.5586 23.5078 12.3984 23.5078 11.1641C23.5078 10.9922 23.5156 10.8164 23.5312 10.6367C23.6797 8.86328 24.3242 7.44531 25.4648 6.38281C26.6133 5.32031 28.0742 4.78906 29.8477 4.78906C30.8711 4.78906 31.7344 4.95703 32.4375 5.29297C33.1406 5.62109 33.6875 6.04688 34.0781 6.57031C34.5312 7.1875 34.7578 7.86719 34.7578 8.60938C34.7578 9.09375 34.6367 9.58984 34.3945 10.0977C34.1523 10.6055 33.7305 11.0625 33.1289 11.4688C32.5273 11.8672 31.7539 12.1289 30.8086 12.2539C30.4961 12.3008 30.168 12.3242 29.8242 12.3242C29.1133 12.3242 28.3281 12.2305 27.4688 12.043C27.625 12.5977 27.8594 13.0977 28.1719 13.543C28.4922 13.9805 28.9023 14.332 29.4023 14.5977C29.9023 14.8555 30.4961 14.9844 31.1836 14.9844C32.1992 14.9844 33.1484 14.7031 34.0312 14.1406C34.1172 14.0859 34.2031 14.0586 34.2891 14.0586C34.3516 14.0586 34.4102 14.0781 34.4648 14.1172C34.5586 14.1875 34.6055 14.2812 34.6055 14.3984C34.6055 14.4531 34.5898 14.5078 34.5586 14.5625C33.9883 15.4141 33.2656 16.0859 32.3906 16.5781C31.5234 17.0703 30.582 17.3164 29.5664 17.3164ZM27.3047 11.3164C28.8984 11.3164 30.0586 10.8359 30.7852 9.875C31.2461 9.21094 31.4766 8.41797 31.4766 7.49609C31.4766 6.21484 30.9609 5.55078 29.9297 5.50391C29.2812 5.52734 28.7305 5.83203 28.2773 6.41797C27.832 7.00391 27.5391 7.63672 27.3984 8.31641C27.2656 8.98828 27.1992 9.56641 27.1992 10.0508C27.1992 10.4727 27.2344 10.8945 27.3047 11.3164ZM38.1797 17L35.707 16.9883C35.3789 16.9883 35.2148 16.8516 35.2148 16.5781C35.2148 16.375 35.2969 16.2266 35.4609 16.1328C35.8516 15.9219 36.0938 15.582 36.1875 15.1133V4.56641C36.1875 3.91797 36.125 3.46094 36 3.19531C35.8828 2.92969 35.6953 2.72656 35.4375 2.58594C35.2891 2.48437 35.2148 2.34375 35.2148 2.16406C35.2148 1.875 35.3672 1.73047 35.6719 1.73047C36.8906 1.73047 38.1836 1.52344 39.5508 1.10938L39.6562 1.09766C39.8359 1.09766 39.9648 1.14844 40.043 1.25C40.1289 1.34375 40.1719 1.53125 40.1719 1.8125V15.1133C40.25 15.582 40.4922 15.9219 40.8984 16.1328C41.0547 16.2344 41.1328 16.375 41.1328 16.5547C41.1328 16.8438 40.9688 16.9883 40.6406 16.9883L38.1797 17ZM45.3984 4.55469C44.9766 4.55469 44.5898 4.49219 44.2383 4.36719C43.8945 4.23438 43.6172 4.04297 43.4062 3.79297C43.2031 3.53516 43.1016 3.21484 43.1016 2.83203C43.1016 2.44141 43.2031 2.12109 43.4062 1.87109C43.6172 1.61328 43.8945 1.42188 44.2383 1.29688C44.5898 1.16406 44.9766 1.09766 45.3984 1.09766C46.0312 1.09766 46.5703 1.25391 47.0156 1.56641C47.4688 1.87109 47.6953 2.29297 47.6953 2.83203C47.6953 3.37109 47.4688 3.79297 47.0156 4.09766C46.5703 4.40234 46.0312 4.55469 45.3984 4.55469ZM45.3984 17L42.9258 16.9883C42.6055 16.9883 42.4453 16.8438 42.4453 16.5547C42.4453 16.3672 42.5234 16.2266 42.6797 16.1328C42.875 16.0312 43.0312 15.9062 43.1484 15.7578C43.2656 15.6016 43.3516 15.3867 43.4062 15.1133V8.58594C43.4062 7.9375 43.3477 7.48047 43.2305 7.21484C43.1133 6.94922 42.9258 6.74609 42.668 6.60547C42.5195 6.51172 42.4453 6.36719 42.4453 6.17188C42.4453 5.89062 42.5977 5.75 42.9023 5.75C44.1602 5.75 45.418 5.55078 46.6758 5.15234C46.7383 5.12891 46.8047 5.11719 46.875 5.11719C47.0625 5.11719 47.1953 5.16797 47.2734 5.26953C47.3516 5.36328 47.3906 5.55078 47.3906 5.83203V15.1133C47.4453 15.3867 47.5312 15.6016 47.6484 15.7578C47.7656 15.9062 47.9219 16.0312 48.1172 16.1328C48.2812 16.2266 48.3633 16.375 48.3633 16.5781C48.3633 16.8516 48.1992 16.9883 47.8711 16.9883L45.3984 17ZM59.9766 17C59.5781 17 59.2031 16.9258 58.8516 16.7773C58.0703 16.457 57.6797 15.8047 57.6797 14.8203V9.53516C57.6797 8.55078 57.6211 7.79688 57.5039 7.27344C57.3164 6.47656 56.8906 6.07812 56.2266 6.07812C55.7891 6.07812 55.4023 6.31641 55.0664 6.79297C54.7305 7.26172 54.4961 7.88672 54.3633 8.66797V15.1133C54.4414 15.582 54.6836 15.9219 55.0898 16.1328C55.2461 16.2344 55.3242 16.375 55.3242 16.5547C55.3242 16.8438 55.1602 16.9883 54.832 16.9883L52.3711 17L49.8984 16.9883C49.5703 16.9883 49.4062 16.8516 49.4062 16.5781C49.4062 16.375 49.4883 16.2266 49.6523 16.1328C50.043 15.9219 50.2852 15.582 50.3789 15.1133V8.58594C50.3789 7.9375 50.3203 7.48047 50.2031 7.21484C50.0859 6.94922 49.8945 6.74609 49.6289 6.60547C49.4805 6.50391 49.4062 6.35547 49.4062 6.16016C49.4062 5.88672 49.5586 5.75 49.8633 5.75C51.1211 5.75 52.375 5.55469 53.625 5.16406C53.7031 5.13281 53.7773 5.11719 53.8477 5.11719C54.0273 5.11719 54.1562 5.16797 54.2344 5.26953C54.3203 5.36328 54.3633 5.55078 54.3633 5.83203V6.61719C55.0039 5.40625 56.125 4.80078 57.7266 4.80078C60.3281 4.80078 61.6406 6.57031 61.6641 10.1094V14.6445C61.6641 14.9492 61.7266 15.1602 61.8516 15.2773C61.9844 15.3945 62.168 15.4883 62.4023 15.5586C62.543 15.6133 62.6133 15.707 62.6133 15.8398C62.6133 15.8477 62.6094 15.8945 62.6016 15.9805C62.6016 16.0664 62.5352 16.168 62.4023 16.2852C62.1758 16.4727 61.8359 16.6406 61.3828 16.7891C60.9375 16.9297 60.4688 17 59.9766 17ZM69.2578 22.5078C67.6094 22.5078 66.1992 22.2344 65.0273 21.6875C63.7461 21.1016 63.1055 20.3047 63.1055 19.2969C63.1055 18.8906 63.1836 18.5508 63.3398 18.2773C63.5039 18.0117 63.7109 17.8125 63.9609 17.6797C64.2188 17.5547 64.4922 17.4922 64.7812 17.4922C65.8281 17.5078 66.3516 18.0664 66.3516 19.168C66.3516 19.2852 66.3438 19.4023 66.3281 19.5195V19.6953C66.3281 20.4297 66.6055 20.9727 67.1602 21.3242C67.7148 21.6758 68.4336 21.8516 69.3164 21.8516C69.9023 21.8516 70.4766 21.7695 71.0391 21.6055C71.6094 21.4414 72.0859 21.207 72.4688 20.9023C72.8516 20.6055 73.043 20.2578 73.043 19.8594C73.043 19.1094 72.3828 18.5586 71.0625 18.207C70.1641 17.9727 68.9492 17.793 67.418 17.668C66.7617 17.6133 66.2617 17.5547 65.918 17.4922C65.1055 17.2969 64.4609 16.9062 63.9844 16.3203C63.5156 15.7266 63.2812 15.043 63.2812 14.2695C63.2812 13.7852 63.3984 13.3164 63.6328 12.8633C63.875 12.4023 64.2305 12.0273 64.6992 11.7383C64.3711 11.1367 64.207 10.4258 64.207 9.60547C64.207 8.59766 64.4375 7.76172 64.8984 7.09766C65.3594 6.43359 65.9766 5.9375 66.75 5.60938C67.5312 5.28125 68.3945 5.11719 69.3398 5.11719C70.0664 5.11719 70.75 5.22266 71.3906 5.43359C71.2969 5.18359 71.25 4.9375 71.25 4.69531C71.25 3.36719 72.1602 2.70312 73.9805 2.70312C74.8086 2.70312 75.3477 2.94922 75.5977 3.44141C75.7227 3.69922 75.7852 3.95313 75.7852 4.20312C75.7852 5.17188 75.2852 5.65625 74.2852 5.65625C73.793 5.65625 73.375 5.37891 73.0312 4.82422C72.7969 4.44141 72.5625 4.25 72.3281 4.25C72.0703 4.25 71.9414 4.40234 71.9414 4.70703C71.9414 4.77734 71.9492 4.85938 71.9648 4.95312C72.0508 5.35938 72.2188 5.69141 72.4688 5.94922C73.0859 6.33203 73.5742 6.83203 73.9336 7.44922C74.293 8.06641 74.4727 8.78516 74.4727 9.60547C74.4727 10.5352 74.2422 11.3359 73.7812 12.0078C73.3203 12.6719 72.6992 13.1836 71.918 13.543C71.1445 13.9023 70.2852 14.082 69.3398 14.082C68.4492 14.082 67.6328 13.9375 66.8906 13.6484C66.1484 13.3516 65.543 12.9102 65.0742 12.3242C64.9648 12.5273 64.9102 12.7266 64.9102 12.9219C64.9102 13.5625 65.3945 14.0312 66.3633 14.3281C67.0742 14.5469 68.1719 14.7422 69.6562 14.9141C70.5312 15.0078 71.3789 15.1289 72.1992 15.2773C73.0273 15.4258 73.7461 15.6523 74.3555 15.957C75.3242 16.5039 75.8086 17.3008 75.8086 18.3477C75.8086 18.8086 75.6719 19.332 75.3984 19.918C75.125 20.5117 74.6172 21.0273 73.875 21.4648C72.625 22.1602 71.0859 22.5078 69.2578 22.5078ZM69.3398 13.4492C69.6523 13.4492 69.9375 13.3477 70.1953 13.1445C70.4531 12.9336 70.6562 12.5547 70.8047 12.0078C70.9609 11.4531 71.0391 10.6523 71.0391 9.60547C71.0391 8.55859 70.9609 7.75781 70.8047 7.20312C70.6562 6.64844 70.4531 6.26953 70.1953 6.06641C69.9375 5.85547 69.6523 5.75 69.3398 5.75C68.793 5.75 68.3906 5.96484 68.1328 6.39453C67.8047 6.95703 67.6406 8.02734 67.6406 9.60547C67.6406 11.1836 67.8047 12.25 68.1328 12.8047C68.3906 13.2344 68.793 13.4492 69.3398 13.4492ZM93.9961 15.1133C94.0742 15.582 94.3164 15.9219 94.7227 16.1328C94.8789 16.2344 94.957 16.375 94.957 16.5547C94.957 16.8438 94.793 16.9883 94.4648 16.9883L92.0039 17L89.5312 16.9883C89.2031 16.9883 89.0391 16.8516 89.0391 16.5781C89.0391 16.375 89.1211 16.2266 89.2852 16.1328C89.6758 15.9219 89.918 15.582 90.0117 15.1133V4.56641C90.0117 4.17578 89.9688 3.80859 89.8828 3.46484C89.8047 3.12109 89.6523 2.84375 89.4258 2.63281C89.1992 2.42188 88.8672 2.31641 88.4297 2.31641C88.1719 2.31641 87.9375 2.38672 87.7266 2.52734C87.4766 2.69141 87.1914 3.00391 86.8711 3.46484C86.4883 4.01172 86.1562 4.38281 85.875 4.57812C85.625 4.75781 85.3086 4.84766 84.9258 4.84766C84.1133 4.84766 83.5273 4.54297 83.168 3.93359C82.9961 3.65234 82.9102 3.32422 82.9102 2.94922C82.9102 2.44922 83.1055 1.98828 83.4961 1.56641C84.0195 1.05859 84.7539 0.804688 85.6992 0.804688C86.207 0.804688 86.7266 0.863281 87.2578 0.980469C87.7969 1.09766 88.3008 1.21875 88.7695 1.34375C89.6133 1.55469 90.1523 1.66016 90.3867 1.66016C91.1836 1.66016 92.1797 1.47656 93.375 1.10938L93.4805 1.09766C93.6602 1.09766 93.7891 1.14844 93.8672 1.25C93.9531 1.34375 93.9961 1.53125 93.9961 1.8125V15.1133ZM85.5117 17L83.0391 16.9883C82.7109 16.9883 82.5469 16.8516 82.5469 16.5781C82.5469 16.375 82.6289 16.2266 82.793 16.1328C83.1836 15.9219 83.4258 15.582 83.5195 15.1133V8.58594C83.5195 7.9375 83.4609 7.48047 83.3438 7.21484C83.2266 6.94922 83.0352 6.74609 82.7695 6.60547C82.6211 6.50391 82.5469 6.35547 82.5469 6.16016C82.5469 5.88672 82.6992 5.75 83.0039 5.75C84.2617 5.75 85.5234 5.55078 86.7891 5.15234C86.8516 5.12891 86.918 5.11719 86.9883 5.11719C87.168 5.11719 87.2969 5.16797 87.375 5.26953C87.4609 5.36328 87.5039 5.55078 87.5039 5.83203V15.1133C87.582 15.582 87.8242 15.9219 88.2305 16.1328C88.3867 16.2344 88.4648 16.375 88.4648 16.5547C88.4648 16.8438 88.3008 16.9883 87.9727 16.9883L85.5117 17ZM98.7891 17L96.3164 16.9883C95.9883 16.9883 95.8242 16.8516 95.8242 16.5781C95.8242 16.375 95.9062 16.2266 96.0703 16.1328C96.4609 15.9219 96.7031 15.582 96.7969 15.1133V4.56641C96.7969 3.91797 96.7344 3.46094 96.6094 3.19531C96.4922 2.92969 96.3047 2.72656 96.0469 2.58594C95.8984 2.48437 95.8242 2.34375 95.8242 2.16406C95.8242 1.875 95.9766 1.73047 96.2812 1.73047C97.5 1.73047 98.793 1.52344 100.16 1.10938L100.266 1.09766C100.445 1.09766 100.574 1.14844 100.652 1.25C100.738 1.34375 100.781 1.53125 100.781 1.8125V15.1133C100.859 15.582 101.102 15.9219 101.508 16.1328C101.664 16.2344 101.742 16.375 101.742 16.5547C101.742 16.8438 101.578 16.9883 101.25 16.9883L98.7891 17ZM106.523 12.4648C106.266 12.4648 106.137 12.3633 106.137 12.1602C106.137 11.2148 106.289 10.3945 106.594 9.69922C106.898 8.99609 107.281 8.38281 107.742 7.85938C108.211 7.32812 108.699 6.84375 109.207 6.40625C109.715 5.96875 110.09 5.48438 110.332 4.95312C110.527 4.53125 110.625 4.12109 110.625 3.72266C110.625 3.62109 110.605 3.42187 110.566 3.125C110.527 2.82813 110.305 2.51953 109.898 2.19922C109.5 1.87891 108.91 1.71875 108.129 1.71875C107.707 1.71875 107.312 1.80859 106.945 1.98828C106.117 2.38672 105.703 3.11328 105.703 4.16797C105.703 4.64453 105.551 5.01953 105.246 5.29297C104.895 5.59766 104.508 5.75 104.086 5.75C103.734 5.75 103.414 5.62891 103.125 5.38672C102.844 5.14453 102.703 4.73828 102.703 4.16797C102.766 3.26953 103.309 2.53516 104.332 1.96484C105.355 1.39453 106.605 1.10938 108.082 1.10938C109.52 1.10938 110.688 1.44922 111.586 2.12891C112.492 2.80078 112.969 3.76172 113.016 5.01172C113 6.17578 112.383 7.24219 111.164 8.21094C110.625 8.63281 110.074 9.03125 109.512 9.40625C109.059 9.70312 108.641 9.99609 108.258 10.2852C107.398 10.9336 106.969 11.5586 106.969 12.1602C106.969 12.3633 106.82 12.4648 106.523 12.4648ZM106.863 17C106.363 17 105.938 16.8594 105.586 16.5781C105.234 16.2891 105.059 15.8555 105.059 15.2773C105.059 14.6992 105.234 14.2656 105.586 13.9766C105.938 13.6875 106.363 13.543 106.863 13.543C107.355 13.543 107.777 13.6992 108.129 14.0117C108.48 14.3164 108.656 14.7383 108.656 15.2773C108.656 15.8164 108.48 16.2383 108.129 16.543C107.777 16.8477 107.355 17 106.863 17Z" fill="white"/>
</svg>
