<svg width="24" height="24" viewBox="0 0 24 24" fill="none" xmlns="http://www.w3.org/2000/svg">
<path opacity="0.25" d="M1 9.66667C1 7.46633 1 6.36733 1.71622 5.68367C2.43244 5 3.58378 5 5.88889 5H18.1111C20.4162 5 21.5676 5 22.2838 5.68367C23 6.36733 23 7.46633 23 9.66667V14.3333C23 16.5337 23 17.6327 22.2838 18.3163C21.5676 19 20.4162 19 18.1111 19H5.88889C3.58378 19 2.43244 19 1.71622 18.3163C1 17.6327 1 16.5337 1 14.3333V9.66667Z" fill="#5384B7"/>
<path d="M12 14C13.1046 14 14 13.1046 14 12C14 10.8954 13.1046 10 12 10C10.8954 10 10 10.8954 10 12C10 13.1046 10.8954 14 12 14Z" fill="#5384B7"/>
<path d="M7.5 8H5.5C5.22386 8 5 8.22386 5 8.5C5 8.77614 5.22386 9 5.5 9H7.5C7.77614 9 8 8.77614 8 8.5C8 8.22386 7.77614 8 7.5 8Z" fill="#5384B7"/>
<path d="M18.5 15H16.5C16.2239 15 16 15.2239 16 15.5C16 15.7761 16.2239 16 16.5 16H18.5C18.7761 16 19 15.7761 19 15.5C19 15.2239 18.7761 15 18.5 15Z" fill="#5384B7"/>
</svg>
