<svg width="32" height="32" viewBox="0 0 32 32" fill="none" xmlns="http://www.w3.org/2000/svg">
<path opacity="0.4" d="M29.3334 10.4133V21.5866C29.3334 26.44 26.4401 29.3333 21.5868 29.3333H10.4134C10.1467 29.3333 9.88008 29.32 9.62675 29.3066C7.98675 29.2 6.60008 28.7333 5.50675 27.9333C4.94675 27.5466 4.45341 27.0533 4.06675 26.4933C3.14675 25.2266 2.66675 23.5733 2.66675 21.5866V10.4133C2.66675 5.82663 5.25341 2.98663 9.62675 2.70663C9.88008 2.67996 10.1467 2.66663 10.4134 2.66663H21.5868C23.5734 2.66663 25.2267 3.14663 26.4934 4.06663C27.0534 4.45329 27.5467 4.94663 27.9334 5.50663C28.8534 6.77329 29.3334 8.42663 29.3334 10.4133Z" fill="#A2ABB4"/>
<path d="M10.8799 8.8667H21.1066C21.9599 8.8667 22.6533 9.56003 22.6533 10.4134V12.12C22.6533 12.7467 22.2666 13.52 21.8799 13.9067L18.5466 16.8534C18.0799 17.24 17.7733 18.0134 17.7733 18.64V21.9734C17.7733 22.44 17.4666 23.0534 17.0799 23.2934L15.9999 23.9734C14.9866 24.6 13.5999 23.8934 13.5999 22.6534V18.5467C13.5999 18 13.2933 17.3067 12.9733 16.92L10.0266 13.8134C9.63992 13.44 9.33325 12.7334 9.33325 12.2667V10.4934C9.33325 9.56003 10.0266 8.8667 10.8799 8.8667Z" fill="#A2ABB4"/>
</svg>
