<svg width="24" height="24" viewBox="0 0 24 24" fill="none" xmlns="http://www.w3.org/2000/svg">
<g clip-path="url(#clip0_1482_5481)">
<path opacity="0.25" d="M20.8543 0C22.5892 0 24 1.41189 24 3.14722V20.8528C24 22.5889 22.5892 24 20.8543 24H3.14722C1.41227 24 0 22.5889 0 20.8528V3.14722C0 1.41227 1.41189 0 3.14722 0H20.8543Z" fill="#5384B7"/>
<path d="M19.0449 15.7125C17.8786 13.575 16.7123 13.9125 15.4294 13.8C15.5461 14.1375 15.5461 14.475 15.5461 14.925C17.4121 15.375 17.8786 17.5125 17.8786 18.75V19.875H15.5461V18.75H16.7123C16.7123 18.75 16.7123 15.9375 14.9629 15.9375C13.2135 15.9375 13.2135 18.6375 13.2135 18.75H14.3798V19.875H12.0473V18.75C12.0473 17.5125 12.5138 15.2625 14.3798 14.925C14.3798 14.25 14.2632 13.6875 14.1465 13.4625C13.9133 13.35 13.68 13.125 13.68 12.7875C13.68 12.1125 14.6131 12.3375 15.3128 11.1C15.3128 11.1 16.3625 8.5125 16.0126 6.2625H14.8463C14.8463 6.0375 14.9629 5.925 14.9629 5.7C14.9629 5.475 14.9629 5.3625 14.8463 5.1375H15.7793C15.4294 4.0125 14.2632 3 12.0473 3C9.83135 3 8.66508 4.0125 8.19857 5.25H9.13159C9.13159 5.475 9.01496 5.5875 9.01496 5.8125C9.01496 6.0375 9.01496 6.15 9.13159 6.375H7.96532C7.73206 8.625 8.66508 11.2125 8.66508 11.2125C9.36484 12.3375 10.2979 12.1125 10.2979 12.9C10.2979 13.4625 9.71472 13.6875 9.01496 13.8C8.78171 14.025 8.54845 14.475 8.54845 15.375V16.725C9.24822 16.95 9.71472 17.625 9.71472 18.3C9.71472 19.0875 8.89833 19.875 7.96532 19.875C7.0323 19.875 6.21591 19.0875 6.21591 18.1875C6.21591 17.4 6.68242 16.8375 7.38218 16.6125V15.2625C7.38218 14.7 7.49881 14.25 7.61544 13.8C6.79905 13.9125 5.86603 14.25 5.04964 15.7125C4.34988 16.95 4 21 4 21H19.9779C20.0945 21 19.7446 16.95 19.0449 15.7125ZM10.2979 5.8125C10.2979 4.9125 11.1142 4.125 12.0473 4.125C12.9803 4.125 13.7967 4.9125 13.7967 5.8125C13.7967 6.7125 12.9803 7.5 12.0473 7.5C11.1142 7.5 10.2979 6.7125 10.2979 5.8125Z" fill="#5384B7"/>
</g>
<defs>
<clipPath id="clip0_1482_5481">
<rect width="24" height="24" fill="white"/>
</clipPath>
</defs>
</svg>
