<svg width="137" height="32" viewBox="0 0 137 32" fill="none" xmlns="http://www.w3.org/2000/svg">
<path d="M39.1202 3.39542C39.412 3.20742 39.5589 2.94535 39.5589 2.60923C39.5589 2.07181 39.2595 1.79836 38.6606 1.79076C38.0617 1.78317 35.2752 1.77937 30.3048 1.77937L29.4065 1.80216C28.7923 1.80216 28.4852 2.05662 28.4852 2.56555C28.4852 2.94346 28.6397 3.22071 28.9468 3.39542C29.6773 3.78851 30.1312 4.42088 30.3067 5.29442V15.9934H18.7715V5.29442C18.8744 4.78548 19.0347 4.38859 19.254 4.10374C19.4733 3.81889 19.7651 3.58342 20.1313 3.39352C20.4232 3.21881 20.57 2.95675 20.57 2.60733C20.57 2.06992 20.2706 1.80026 19.6717 1.80026L15.0446 1.77747L11.3159 1.80026V1.77747L9.78053 1.75658C8.87458 1.75658 7.9381 1.78507 6.97302 1.84394C4.18076 2.01864 2.21435 2.99473 1.0738 4.77029C0.503522 5.65902 0.181192 6.41102 0.108715 7.0301C0.0362383 7.64917 0 8.06695 0 8.28534C0 9.04304 0.139231 9.77035 0.415787 10.4692C0.766727 11.3712 1.32937 12.1137 2.10373 12.6967C2.87809 13.2797 3.85843 13.5702 5.04285 13.5702C5.87633 13.5702 6.67357 13.3955 7.43267 13.0461C8.19368 12.6967 8.81354 12.1916 9.29609 11.5288C9.77863 10.8661 10.0209 10.0704 10.0209 9.13798C10.0209 8.32331 9.78244 7.69284 9.30753 7.24848C8.83262 6.80411 8.27378 6.58194 7.62912 6.58194C7.22096 6.58194 6.82234 6.67309 6.43326 6.85539C6.04608 7.0377 5.72375 7.31685 5.46817 7.69665C5.2126 8.07645 5.08481 8.55499 5.08481 9.13798C5.08481 9.64692 4.9246 10.0324 4.60227 10.2945C4.28184 10.5565 3.92328 10.6876 3.52847 10.6876C2.87046 10.6876 2.42034 10.3495 2.18002 9.6716C1.9397 8.99366 1.81764 8.39358 1.81764 7.86946C1.81764 6.0787 2.59199 4.7551 4.14261 3.89485C4.84449 3.54543 5.94881 3.37073 7.45365 3.37073C8.0678 3.37073 8.66287 3.44669 9.24077 3.60051C9.81868 3.75243 10.3089 4.01259 10.7094 4.3753C11.1118 4.7399 11.3121 5.24124 11.3121 5.88121V27.8906C11.2091 28.4014 11.0489 28.7964 10.8295 29.0812C10.6102 29.3661 10.3184 29.6016 9.95219 29.7915C9.64512 29.9662 9.49063 30.2434 9.49063 30.6213C9.49063 31.1303 9.7977 31.3847 10.4118 31.3847L15.0389 31.4075L19.666 31.3847C20.2649 31.3847 20.5643 31.1151 20.5643 30.5777C20.5643 30.2282 20.4174 29.9662 20.1256 29.7915C19.7594 29.6016 19.4676 29.3661 19.2483 29.0812C19.0289 28.7983 18.8687 28.4014 18.7657 27.8906V17.1916H30.301V27.8906C30.1255 28.7641 29.6716 29.3965 28.9411 29.7896C28.634 29.9643 28.4795 30.2415 28.4795 30.6194C28.4795 31.1284 28.7866 31.3828 29.4007 31.3828L30.2991 31.4056H37.7546L38.632 31.3828C39.2461 31.3828 39.5532 31.1132 39.5532 30.5758C39.5532 30.2415 39.4063 29.9795 39.1145 29.7896C38.3535 29.3965 37.9015 28.7641 37.7546 27.8906V5.29061C37.8996 4.41708 38.3535 3.78471 39.1145 3.39162L39.1202 3.39542Z" fill="white"/>
<path d="M54.8439 22.5677C56.612 22.3341 58.0596 21.8442 59.1868 21.0941C60.3121 20.344 61.1017 19.497 61.5557 18.5494C62.0096 17.6037 62.2346 16.6789 62.2346 15.7769C62.2346 14.3944 61.8112 13.1278 60.9625 11.977C60.232 11.0028 59.2078 10.2052 57.8918 9.58614C56.5757 8.96707 54.9603 8.65753 53.0454 8.65753C49.7267 8.65753 46.9955 9.64691 44.8536 11.6276C42.7117 13.6082 41.5025 16.2497 41.224 19.554C41.1954 19.8882 41.1802 20.2167 41.1802 20.5358C41.1802 22.8354 41.7791 24.9984 42.9787 27.0208C44.0602 28.709 45.4277 29.9605 47.0794 30.777C48.7311 31.5917 50.5449 32 52.519 32C54.493 32 56.1848 31.5404 57.8155 30.6251C59.4462 29.7079 60.7946 28.4565 61.8608 26.8689C61.9199 26.7664 61.9486 26.6657 61.9486 26.5632C61.9486 26.3448 61.8608 26.1701 61.6854 26.0391C61.5824 25.9669 61.4736 25.9308 61.3554 25.9308C61.1952 25.9308 61.0331 25.9821 60.8728 26.0827C59.2211 27.131 57.4436 27.6551 55.5439 27.6551C54.2565 27.6551 53.1465 27.412 52.21 26.924C51.2735 26.4359 50.5106 25.7808 49.9174 24.9585C49.3243 24.1363 48.8837 23.2076 48.59 22.1746C50.1978 22.524 51.6683 22.6987 52.9977 22.6987C53.6404 22.6987 54.2546 22.655 54.8401 22.5677H54.8439ZM48.2867 20.8206C48.1551 20.0344 48.0883 19.2482 48.0883 18.4621C48.0883 17.56 48.2161 16.4795 48.4717 15.2205C48.7273 13.9614 49.2766 12.7859 50.1158 11.694C50.9569 10.6021 51.983 10.0343 53.198 9.99063C55.1281 10.078 56.0932 11.3161 56.0932 13.7032C56.0932 15.4218 55.6622 16.8992 54.8001 18.1354C53.4402 19.9262 51.2697 20.8206 48.2867 20.8206Z" fill="white"/>
<path d="M84.9772 28.7033C84.5538 28.5723 84.2315 28.4014 84.0121 28.1906C83.7928 27.9798 83.6822 27.5905 83.6822 27.0227V17.5904C83.6822 14.8824 82.6217 12.7727 80.5027 11.2573C78.6164 9.93365 76.3429 9.2709 73.6823 9.2709C71.899 9.2709 70.3922 9.51777 69.1639 10.0134C67.9357 10.509 67.003 11.1338 66.3679 11.8915C65.7327 12.6492 65.4142 13.4278 65.4142 14.2273C65.4142 15.1597 65.6774 15.8547 66.2038 16.3124C66.7303 16.7719 67.3597 16.9998 68.0901 16.9998C68.7768 16.9998 69.3871 16.7662 69.9211 16.301C70.4552 15.8357 70.7222 15.1141 70.7222 14.1399C70.7222 13.5 70.8214 12.8999 71.0178 12.3378C71.2162 11.7776 71.5213 11.3218 71.939 10.9724C72.3548 10.623 72.8927 10.4483 73.5507 10.4483C74.2659 10.4483 74.8267 10.6306 75.2291 10.9933C75.6315 11.3579 75.9043 11.808 76.0511 12.3473C76.1961 12.8866 76.2705 13.4316 76.2705 13.9842C76.2705 14.7552 76.2628 15.5053 76.2476 16.2326C76.0569 16.6846 75.6697 17.0853 75.0861 17.4328C74.121 18.0291 72.4826 18.5969 70.1729 19.1362C68.9446 19.4571 67.8117 19.8502 66.7741 20.3155C65.7366 20.7807 64.8993 21.4264 64.2622 22.2487C63.6271 23.0709 63.3086 24.2027 63.3086 25.6441C63.3086 26.6638 63.568 27.6095 64.0868 28.4831C64.6055 29.3566 65.3284 30.063 66.2572 30.6004C67.1861 31.1398 68.2637 31.4075 69.492 31.4075C72.4006 31.4075 74.6455 30.0972 76.2247 27.4766C76.2533 28.4223 76.4688 29.1838 76.8713 29.7592C77.2737 30.3346 77.7963 30.7524 78.439 31.0144C79.0818 31.2765 79.7761 31.4075 80.5218 31.4075C81.443 31.4075 82.328 31.2689 83.1748 30.9935C84.6663 30.5283 85.4121 29.9814 85.4121 29.3566C85.4121 29.0357 85.2652 28.8192 84.9734 28.7014L84.9772 28.7033ZM76.2266 24.6414C75.3054 26.7531 74.1362 27.807 72.7172 27.807C71.9715 27.807 71.4164 27.4766 71.0502 26.8138C70.684 26.1511 70.5029 25.4124 70.5029 24.5977C70.5029 23.4773 70.8462 22.3854 71.5328 21.3219C72.1183 20.3895 73.0166 19.6698 74.2297 19.1609C74.9602 18.8988 75.6334 18.5361 76.2476 18.069C76.2323 19.4951 76.2247 21.6865 76.2247 24.6414H76.2266Z" fill="white"/>
<path d="M97.5861 29.7953C96.8251 29.4022 96.373 28.7698 96.2262 27.8963V3.11436C96.2262 2.59024 96.1499 2.23703 95.9954 2.05472C95.8409 1.87242 95.5968 1.78127 95.2611 1.78127L95.0627 1.80405C92.5051 2.57505 90.0847 2.96054 87.8036 2.96054C87.2334 2.96054 86.9492 3.2302 86.9492 3.76762C86.9492 4.10184 87.0884 4.3639 87.365 4.5538C87.8475 4.81586 88.2023 5.19376 88.4292 5.6894C88.6562 6.18504 88.7687 7.03579 88.7687 8.24356V27.8944C88.5932 28.7679 88.1393 29.4003 87.4088 29.7934C87.1018 29.9681 86.9473 30.2453 86.9473 30.6232C86.9473 31.1322 87.2543 31.3866 87.8685 31.3866L92.4955 31.4094L97.1016 31.3866C97.7158 31.3866 98.0228 31.117 98.0228 30.5796C98.0228 30.2453 97.876 29.9833 97.5842 29.7934L97.5861 29.7953Z" fill="white"/>
<path d="M103.804 7.7631C104.454 8.06884 105.175 8.22266 105.965 8.22266C107.149 8.22266 108.162 7.85995 109.001 7.13643C109.843 6.41101 110.262 5.40834 110.262 4.12652C110.262 2.8447 109.843 1.83633 109.001 1.10142C108.16 0.368406 107.148 0 105.965 0C105.175 0 104.454 0.153821 103.804 0.45956C103.154 0.767197 102.635 1.22106 102.248 1.82494C101.861 2.42882 101.666 3.19602 101.666 4.12462C101.666 5.05323 101.861 5.79384 102.248 6.39582C102.635 6.9997 103.154 7.45546 103.804 7.7612V7.7631Z" fill="white"/>
<path d="M111.051 29.7953C110.685 29.6054 110.393 29.3699 110.174 29.085C109.955 28.8021 109.793 28.4052 109.692 27.8944V10.6002C109.692 10.0761 109.619 9.72286 109.472 9.54056C109.325 9.35826 109.077 9.26711 108.727 9.26711C108.595 9.26711 108.471 9.28989 108.355 9.33357C106.001 10.0761 103.647 10.4464 101.292 10.4464C100.722 10.4464 100.437 10.7084 100.437 11.2326C100.437 11.5972 100.577 11.8649 100.853 12.0396C101.336 12.3017 101.687 12.6796 101.906 13.1752C102.125 13.6709 102.234 14.5216 102.234 15.7294V27.8925C102.131 28.4033 101.971 28.7983 101.752 29.0831C101.532 29.368 101.24 29.6035 100.874 29.7934C100.582 29.9681 100.436 30.2301 100.436 30.5796C100.436 31.1189 100.735 31.3866 101.334 31.3866L105.961 31.4094L110.588 31.3866C111.202 31.3866 111.509 31.1322 111.509 30.6232C111.509 30.2453 111.357 29.9681 111.05 29.7934L111.051 29.7953Z" fill="white"/>
<path d="M136.777 30.1219C136.558 29.8162 136.235 29.6206 135.812 29.5313C135.286 29.4439 134.855 29.273 134.519 29.0186C134.183 28.7641 133.781 28.3084 133.313 27.6532L126.537 18.3956L131.889 12.2162C132.503 11.5174 133.05 11.0484 133.533 10.8072C134.015 10.5679 134.542 10.4464 135.112 10.4464C135.579 10.4464 135.814 10.2489 135.814 9.8577C135.814 9.4665 135.587 9.26711 135.135 9.26711H130.201C129.733 9.26711 129.499 9.4646 129.499 9.8577C129.499 10.2508 129.739 10.4464 130.222 10.4464C130.821 10.4464 131.12 10.5489 131.12 10.7521C131.12 10.9553 131.025 11.1604 130.836 11.3636L125.726 17.26L122.261 12.5429C121.837 12.0036 121.626 11.5896 121.626 11.2971C121.626 11.0047 121.866 10.8319 122.348 10.8167C122.625 10.773 122.776 10.6743 122.799 10.5223C122.821 10.3685 122.831 10.2717 122.831 10.228C122.831 10.0248 122.764 9.82731 122.635 9.63741C122.474 9.39054 122.232 9.26711 121.91 9.26711H112.436C111.925 9.26711 111.639 9.35446 111.582 9.52917C111.523 9.70388 111.494 9.83491 111.494 9.92226C111.494 10.1255 111.574 10.3362 111.736 10.5546C111.94 10.8452 112.255 11.0427 112.679 11.1452C113.205 11.2174 113.64 11.3845 113.983 11.6465C114.326 11.9086 114.725 12.3606 115.179 13.0005L121.956 22.2809L116.604 28.4603C115.974 29.1876 115.427 29.6604 114.96 29.8788C114.492 30.0972 113.966 30.2055 113.38 30.2055C112.926 30.2055 112.701 30.4086 112.701 30.8169C112.701 31.2252 112.921 31.4075 113.359 31.4075H118.294C118.776 31.4075 119.016 31.21 119.016 30.8169C119.016 30.4238 118.776 30.2055 118.294 30.2055C117.679 30.2055 117.372 30.082 117.372 29.8351C117.372 29.7041 117.475 29.5218 117.679 29.2901L122.789 23.3956L126.232 28.1128C126.67 28.6521 126.89 29.0661 126.89 29.3566C126.89 29.6623 126.64 29.8219 126.144 29.837C125.881 29.8807 125.738 29.9795 125.717 30.1314C125.696 30.2852 125.684 30.3764 125.684 30.4048C125.684 30.6232 125.757 30.8454 125.904 31.0714C126.051 31.2974 126.283 31.4094 126.606 31.4094H136.079C136.577 31.4094 136.853 31.3145 136.912 31.1265C136.97 30.9366 137 30.8055 137 30.7334C137 30.5302 136.928 30.327 136.781 30.1219H136.777Z" fill="white"/>
</svg>
