<svg width="57" height="56" viewBox="0 0 57 56" fill="none" xmlns="http://www.w3.org/2000/svg">
<rect opacity="0.25" x="3.25" y="3" width="50" height="50" rx="5" fill="#5384B7"/>
<path opacity="0.2" d="M24.2198 29.815L27.8498 28L31.4798 29.815C33.2737 30.712 34.7824 32.0908 35.8369 33.797C36.8913 35.5032 37.4498 37.4693 37.4498 39.475V40H18.2498V39.475C18.2497 37.4693 18.8082 35.5032 19.8626 33.797C20.9171 32.0908 22.4258 30.712 24.2198 29.815ZM37.4498 16.525V16H18.2498V16.525C18.2497 18.5307 18.8082 20.4968 19.8626 22.203C20.9171 23.9092 22.4258 25.288 24.2198 26.185L27.8498 28L31.4798 26.185C33.2737 25.288 34.7824 23.9092 35.8369 22.203C36.8913 20.4968 37.4498 18.5307 37.4498 16.525Z" fill="#5384B7"/>
<path d="M38.6501 39.4749V43.5999C38.6501 43.9182 38.5237 44.2234 38.2986 44.4485C38.0736 44.6735 37.7684 44.7999 37.4501 44.7999C37.1319 44.7999 36.8266 44.6735 36.6016 44.4485C36.3765 44.2234 36.2501 43.9182 36.2501 43.5999V39.4749C36.256 37.6907 35.7619 35.9405 34.824 34.4227C33.886 32.9049 32.5416 31.6802 30.9431 30.8874L23.6831 27.2589C21.6852 26.268 20.0048 24.7372 18.8324 22.84C17.6601 20.9428 17.0426 18.7551 17.0501 16.525V12.4C17.0501 12.0817 17.1765 11.7765 17.4016 11.5514C17.6266 11.3264 17.9319 11.2 18.2501 11.2C18.5684 11.2 18.8736 11.3264 19.0986 11.5514C19.3237 11.7765 19.4501 12.0817 19.4501 12.4V16.525C19.4442 18.3092 19.9383 20.0594 20.8763 21.5772C21.8143 23.095 23.1587 24.3197 24.7571 25.1125L32.0171 28.7409C34.0151 29.7319 35.6955 31.2627 36.8678 33.1599C38.0402 35.0571 38.6576 37.2448 38.6501 39.4749ZM32.6501 38.7999H19.4756C19.5334 37.9825 19.6962 37.1758 19.9601 36.4H30.8666C31.1849 36.4 31.4901 36.2735 31.7151 36.0485C31.9402 35.8234 32.0666 35.5182 32.0666 35.1999C32.0666 34.8817 31.9402 34.5765 31.7151 34.3514C31.4901 34.1264 31.1849 34 30.8666 34H21.1691C21.7713 33.1294 22.5139 32.365 23.3666 31.7379C23.4939 31.6447 23.6015 31.5273 23.6834 31.3924C23.7652 31.2575 23.8197 31.1078 23.8438 30.9519C23.8678 30.796 23.8609 30.6368 23.8234 30.4836C23.7859 30.3303 23.7186 30.186 23.6254 30.0587C23.5321 29.9314 23.4147 29.8238 23.2798 29.7419C23.1449 29.6601 22.9953 29.6056 22.8393 29.5815C22.6834 29.5575 22.5243 29.5644 22.371 29.6019C22.2177 29.6394 22.0734 29.7067 21.9461 29.7999C20.4303 30.9174 19.1977 32.3748 18.3474 34.0551C17.4971 35.7354 17.0527 37.5917 17.0501 39.4749V43.5999C17.0501 43.9182 17.1765 44.2234 17.4016 44.4485C17.6266 44.6735 17.9319 44.7999 18.2501 44.7999C18.5684 44.7999 18.8736 44.6735 19.0986 44.4485C19.3237 44.2234 19.4501 43.9182 19.4501 43.5999V41.1999H32.6501C32.9684 41.1999 33.2736 41.0735 33.4986 40.8485C33.7237 40.6234 33.8501 40.3182 33.8501 40C33.8501 39.6817 33.7237 39.3765 33.4986 39.1514C33.2736 38.9264 32.9684 38.7999 32.6501 38.7999ZM37.4501 11.2C37.1319 11.2 36.8266 11.3264 36.6016 11.5514C36.3765 11.7765 36.2501 12.0817 36.2501 12.4V14.8H23.0501C22.7319 14.8 22.4266 14.9264 22.2016 15.1514C21.9765 15.3765 21.8501 15.6817 21.8501 16C21.8501 16.3182 21.9765 16.6234 22.2016 16.8485C22.4266 17.0735 22.7319 17.2 23.0501 17.2H36.2246C36.1669 18.0174 36.004 18.8241 35.7401 19.6H24.8336C24.5154 19.6 24.2101 19.7264 23.9851 19.9514C23.76 20.1765 23.6336 20.4817 23.6336 20.8C23.6336 21.1182 23.76 21.4234 23.9851 21.6485C24.2101 21.8735 24.5154 22 24.8336 22H34.5311C33.929 22.8705 33.1863 23.6349 32.3336 24.262C32.2066 24.3552 32.0991 24.4726 32.0174 24.6074C31.9357 24.7422 31.8814 24.8918 31.8575 25.0475C31.8336 25.2033 31.8407 25.3623 31.8782 25.5154C31.9158 25.6685 31.9831 25.8126 32.0764 25.9397C32.2647 26.1963 32.5473 26.3676 32.862 26.4158C33.0178 26.4397 33.1767 26.4327 33.3298 26.3951C33.4829 26.3576 33.6271 26.2902 33.7541 26.197C35.2696 25.0798 36.5019 23.6229 37.3522 21.9431C38.2025 20.2634 38.647 18.4076 38.6501 16.525V12.4C38.6501 12.0817 38.5237 11.7765 38.2986 11.5514C38.0736 11.3264 37.7684 11.2 37.4501 11.2Z" fill="#5384B7"/>
</svg>
