<svg width="27" height="27" viewBox="0 0 27 27" fill="none" xmlns="http://www.w3.org/2000/svg">
<path d="M13.5653 10.9842C12.1884 10.9842 11.0681 12.104 11.0681 13.481C11.0681 14.8579 12.1884 15.9782 13.5653 15.9782C14.9422 15.9782 16.0621 14.8579 16.0621 13.481C16.0621 12.104 14.9422 10.9842 13.5653 10.9842Z" fill="#343A40"/>
<path d="M16.6595 7.05581H10.3402C8.53934 7.05581 7.07473 8.52042 7.07473 10.3213V16.641C7.07473 18.4415 8.53934 19.9065 10.3402 19.9065H16.6595C18.4604 19.9065 19.925 18.4415 19.925 16.641V10.3213C19.925 8.52042 18.4604 7.05581 16.6595 7.05581ZM13.5651 17.3792C11.4156 17.3792 9.66681 15.6304 9.66681 13.4809C9.66681 11.3315 11.4156 9.58308 13.5651 9.58308C15.7146 9.58308 17.463 11.3315 17.463 13.4809C17.463 15.6304 15.7142 17.3792 13.5651 17.3792ZM17.6904 10.2489C17.1779 10.2489 16.7624 9.8334 16.7624 9.32091C16.7624 8.80843 17.1779 8.39293 17.6904 8.39293C18.2029 8.39293 18.6184 8.80843 18.6184 9.32091C18.6184 9.8334 18.2029 10.2489 17.6904 10.2489Z" fill="#343A40"/>
<path d="M13.5 0C6.04438 0 0 6.04395 0 13.5C0 20.956 6.04438 27 13.5 27C20.9556 27 27 20.956 27 13.5C27 6.04395 20.956 0 13.5 0ZM21.4143 16.641C21.4143 19.2627 19.2814 21.3957 16.6596 21.3957H10.3404C7.71864 21.3957 5.58568 19.2627 5.58568 16.641V10.3213C5.58568 7.69958 7.71864 5.56662 10.3404 5.56662H16.6596C19.2814 5.56662 21.4143 7.69958 21.4143 10.3213V16.641Z" fill="#343A40"/>
</svg>
