<svg width="24" height="24" viewBox="0 0 24 24" fill="none" xmlns="http://www.w3.org/2000/svg">
<g clip-path="url(#clip0_1482_3950)">
<path opacity="0.25" d="M20.5679 0C22.279 0 23.6704 1.3925 23.6704 3.104V20.5664C23.6704 22.2787 22.279 23.6704 20.5679 23.6704H3.104C1.39288 23.6704 0 22.2787 0 20.5664V3.104C0 1.39288 1.3925 0 3.104 0H20.5679Z" fill="#5384B7"/>
<path d="M14.2388 5.71271H13.4962C13.1729 5.71271 12.8628 5.83875 12.6356 6.06227C12.1315 6.55874 11.2959 6.52156 10.8402 5.98248L10.6697 5.78072C10.4589 5.53238 10.3423 5.2178 10.3401 4.89207L10.3374 4.29224H8.16836V5.19993C8.16836 5.95437 8.3733 6.69612 8.76231 7.349L8.78634 7.3898C9.03386 7.80386 9.35285 8.17074 9.72848 8.47341L10.7976 9.3353C11.6486 10.0217 11.9039 11.1851 11.4142 12.1486C11.265 12.4389 11.0575 12.6953 10.8047 12.9018C10.5518 13.1082 10.2591 13.2602 9.94475 13.3483L9.70173 13.4176C9.3406 13.5198 8.96385 13.5551 8.59002 13.5219C7.24707 13.4013 5.97123 14.1535 5.47296 15.3708L5.23039 15.963C5.04775 16.4092 4.95366 16.8868 4.95337 17.3689V19.7075H7.1174V17.247C7.1174 16.8571 7.2702 16.4821 7.54541 16.1978C7.78271 15.9556 8.09047 15.7944 8.42478 15.7374C8.75909 15.6804 9.10286 15.7305 9.40703 15.8805L10.3224 16.3311C10.735 16.5342 11.1916 16.6403 11.6545 16.6403H13.2033C13.8389 16.6403 14.4687 16.5225 15.059 16.294C16.0758 15.9032 16.936 15.1892 17.5073 14.2619L17.7884 13.803C18.289 12.9877 18.5544 12.0498 18.5551 11.0931C18.5551 10.2045 18.3252 9.32986 17.8868 8.55048L17.4407 7.7575C17.1542 7.25009 16.7595 6.81201 16.2845 6.47441L16.0048 6.27492C15.4891 5.90814 14.8717 5.71159 14.2388 5.71271Z" fill="#5384B7"/>
<path fill-rule="evenodd" clip-rule="evenodd" d="M7.70819 3.83887H10.8062C10.8089 4.35392 10.6688 5.06302 11.0302 5.49057C11.8227 6.42909 13.1412 5.25707 14.2334 5.25707C16.1966 5.25707 17.4099 6.77729 18.2817 8.32835C19.2769 10.0979 19.2348 12.3109 18.1752 14.0429C17.4498 15.229 16.5534 16.2047 15.2218 16.7211C13.2482 17.4864 11.0447 17.198 9.20484 16.2922C8.50254 15.9467 7.5953 16.4363 7.5953 17.2384V20.1609H4.5V17.3599C4.50026 16.8181 4.60606 16.2816 4.81148 15.7803C5.7831 13.4045 7.36679 13.5977 9.57707 12.967C11.0179 12.5562 11.8753 10.8075 10.5052 9.70257C9.71626 9.06647 8.89381 8.48159 8.36607 7.59476C7.66603 6.41912 7.70819 5.15234 7.70819 3.83887Z" fill="#5384B7"/>
</g>
<defs>
<clipPath id="clip0_1482_3950">
<rect width="24" height="24" fill="white"/>
</clipPath>
</defs>
</svg>
