<svg width="27" height="27" viewBox="0 0 27 27" fill="none" xmlns="http://www.w3.org/2000/svg">
<path d="M13.5 0C6.04438 0 0 6.04395 0 13.5C0 20.956 6.04438 27 13.5 27C20.9556 27 27 20.9556 27 13.5C27 6.04438 20.956 0 13.5 0ZM9.81137 20.1666H7.03843V11.2595H9.81137V20.1666ZM8.42511 10.0439C7.5361 10.0439 6.81777 9.32344 6.81777 8.43739C6.81777 7.55134 7.5361 6.83344 8.42511 6.83344C9.31413 6.83344 10.0303 7.55261 10.0303 8.43739C10.0303 9.32217 9.31201 10.0439 8.42511 10.0439ZM20.1822 20.1666H17.4157V15.8363C17.4157 14.8024 17.3953 13.4742 15.9769 13.4742C14.5584 13.4742 14.3157 14.5991 14.3157 15.7609V20.1666H11.5483V11.2595H14.2044V12.478H14.2404C14.611 11.777 15.5139 11.0388 16.8625 11.0388C19.6655 11.0388 20.1822 12.8825 20.1822 15.2814V20.1666Z" fill="#343A40"/>
</svg>
