<svg width="163" height="93" viewBox="0 0 163 93" fill="none" xmlns="http://www.w3.org/2000/svg">
<g clip-path="url(#clip0_21_2790)">
<path d="M46.7635 58.7324C47.1086 58.5072 47.2822 58.1933 47.2822 57.7906C47.2822 57.1468 46.9281 56.8192 46.22 56.8101C45.5118 56.801 42.2168 56.7964 36.3394 56.7964L35.2771 56.8237C34.5509 56.8237 34.1878 57.1286 34.1878 57.7383C34.1878 58.191 34.3705 58.5231 34.7336 58.7324C35.5974 59.2033 36.1341 59.9609 36.3416 61.0074V73.8244H22.7014V61.0074C22.8232 60.3977 23.0127 59.9222 23.272 59.581C23.5314 59.2397 23.8765 58.9576 24.3095 58.7301C24.6545 58.5208 24.8282 58.2069 24.8282 57.7883C24.8282 57.1445 24.4741 56.8215 23.7659 56.8215L18.2945 56.7942L13.8854 56.8215V56.7942L12.0698 56.7691C10.9985 56.7691 9.89118 56.8033 8.74999 56.8738C5.44819 57.0831 3.12295 58.2524 1.77426 60.3795C1.09992 61.4442 0.718773 62.345 0.63307 63.0867C0.547368 63.8283 0.504517 64.3288 0.504517 64.5904C0.504517 65.4981 0.669155 66.3694 0.996178 67.2066C1.41116 68.2872 2.07648 69.1767 2.99214 69.8751C3.9078 70.5735 5.06704 70.9216 6.4676 70.9216C7.45317 70.9216 8.3959 70.7123 9.29352 70.2937C10.1934 69.8751 10.9264 69.27 11.497 68.476C12.0676 67.6821 12.354 66.7289 12.354 65.6119C12.354 64.6359 12.0721 63.8806 11.5105 63.3483C10.9489 62.816 10.2881 62.5498 9.52582 62.5498C9.04318 62.5498 8.57182 62.659 8.11173 62.8774C7.6539 63.0958 7.27275 63.4302 6.97053 63.8852C6.66832 64.3402 6.51721 64.9135 6.51721 65.6119C6.51721 66.2216 6.32777 66.6834 5.94662 66.9973C5.56772 67.3113 5.14372 67.4682 4.67687 67.4682C3.89878 67.4682 3.36652 67.0633 3.08235 66.2511C2.79818 65.439 2.65384 64.7201 2.65384 64.0922C2.65384 61.9469 3.5695 60.3613 5.40308 59.3307C6.23304 58.9121 7.53888 58.7028 9.31833 58.7028C10.0445 58.7028 10.7482 58.7938 11.4316 58.9781C12.1149 59.1601 12.6945 59.4718 13.1682 59.9063C13.644 60.3431 13.8809 60.9437 13.8809 61.7103V88.077C13.7591 88.689 13.5696 89.1622 13.3103 89.5034C13.0509 89.8447 12.7058 90.1267 12.2728 90.3542C11.9097 90.5635 11.727 90.8957 11.727 91.3484C11.727 91.9581 12.0901 92.2629 12.8163 92.2629L18.2878 92.2902L23.7592 92.2629C24.4673 92.2629 24.8214 91.9399 24.8214 91.2961C24.8214 90.8775 24.6478 90.5635 24.3027 90.3542C23.8697 90.1267 23.5246 89.8447 23.2653 89.5034C23.0059 89.1644 22.8165 88.689 22.6947 88.077V75.2599H36.3349V88.077C36.1274 89.1235 35.5906 89.8811 34.7268 90.352C34.3637 90.5613 34.181 90.8934 34.181 91.3461C34.181 91.9558 34.5441 92.2606 35.2704 92.2606L36.3326 92.288H45.1487L46.1861 92.2606C46.9123 92.2606 47.2755 91.9376 47.2755 91.2938C47.2755 90.8934 47.1018 90.5795 46.7567 90.352C45.8569 89.8811 45.3223 89.1235 45.1487 88.077V61.0028C45.3201 59.9563 45.8569 59.1988 46.7567 58.7279L46.7635 58.7324Z" fill="#5384B7"/>
<path d="M65.3564 81.7003C67.4471 81.4205 69.1588 80.8336 70.4917 79.935C71.8224 79.0363 72.7561 78.0217 73.2929 76.8865C73.8296 75.7536 74.0958 74.6457 74.0958 73.5651C74.0958 71.9089 73.5951 70.3915 72.5915 69.0129C71.7277 67.8459 70.5166 66.8904 68.9604 66.1487C67.4042 65.4071 65.4939 65.0363 63.2296 65.0363C59.3053 65.0363 56.0757 66.2215 53.543 68.5943C51.0102 70.9671 49.5804 74.1316 49.2511 78.09C49.2173 78.4904 49.1992 78.8839 49.1992 79.2661C49.1992 82.0211 49.9074 84.6123 51.326 87.0351C52.6048 89.0575 54.2218 90.5567 56.1749 91.5349C58.1281 92.5109 60.2729 93 62.6071 93C64.9414 93 66.9419 92.4495 68.8702 91.3529C70.7985 90.2541 72.393 88.7549 73.6537 86.8531C73.7236 86.7302 73.7575 86.6097 73.7575 86.4868C73.7575 86.2252 73.6537 86.0159 73.4462 85.8589C73.3244 85.7725 73.1959 85.7293 73.056 85.7293C72.8666 85.7293 72.6749 85.7907 72.4855 85.9113C70.5323 87.167 68.4304 87.7949 66.1841 87.7949C64.6617 87.7949 63.3491 87.5037 62.2418 86.9191C61.1344 86.3344 60.2323 85.5495 59.5309 84.5645C58.8295 83.5794 58.3085 82.467 57.9612 81.2294C59.8624 81.648 61.6013 81.8573 63.1732 81.8573C63.9333 81.8573 64.6595 81.805 65.3519 81.7003H65.3564ZM57.6026 79.6074C57.4469 78.6655 57.368 77.7237 57.368 76.7819C57.368 75.7013 57.5191 74.4068 57.8213 72.8985C58.1235 71.3902 58.7731 69.982 59.7654 68.6739C60.76 67.3658 61.9734 66.6856 63.41 66.6333C65.6924 66.738 66.8336 68.2212 66.8336 71.0808C66.8336 73.1397 66.3239 74.9096 65.3045 76.3906C63.6964 78.5359 61.1299 79.6074 57.6026 79.6074Z" fill="#5384B7"/>
<path d="M100.988 89.0507C100.488 88.8937 100.106 88.689 99.847 88.4364C99.5877 88.1839 99.4569 87.7176 99.4569 87.0373V75.7377C99.4569 72.4936 98.2029 69.9661 95.6972 68.1507C93.4667 66.5651 90.7784 65.7711 87.6322 65.7711C85.5235 65.7711 83.7418 66.0668 82.2893 66.6606C80.8369 67.2544 79.734 68.0028 78.983 68.9105C78.232 69.8182 77.8554 70.751 77.8554 71.7087C77.8554 72.8257 78.1666 73.6584 78.7891 74.2066C79.4115 74.7572 80.1558 75.0302 81.0196 75.0302C81.8315 75.0302 82.5532 74.7503 83.1847 74.193C83.8162 73.6356 84.1319 72.7711 84.1319 71.6041C84.1319 70.8374 84.2492 70.1185 84.4815 69.4452C84.7161 68.774 85.0769 68.2281 85.5708 67.8095C86.0625 67.3909 86.6985 67.1816 87.4766 67.1816C88.3223 67.1816 88.9854 67.4 89.4613 67.8345C89.9371 68.2713 90.2596 68.8104 90.4333 69.4565C90.6047 70.1026 90.6927 70.7555 90.6927 71.4175C90.6927 72.3412 90.6836 73.2398 90.6656 74.1111C90.4401 74.6525 89.9822 75.1325 89.2921 75.5488C88.1509 76.2632 86.2136 76.9434 83.4824 77.5895C82.03 77.9739 80.6903 78.4449 79.4634 79.0022C78.2365 79.5596 77.2464 80.3331 76.4931 81.3181C75.7421 82.3032 75.3655 83.659 75.3655 85.3857C75.3655 86.6074 75.6722 87.7403 76.2856 88.7868C76.8991 89.8333 77.7539 90.6795 78.8522 91.3234C79.9506 91.9694 81.2248 92.2902 82.6772 92.2902C86.1166 92.2902 88.7711 90.7205 90.6385 87.5811C90.6724 88.714 90.9272 89.6262 91.4031 90.3156C91.879 91.0049 92.4969 91.5054 93.257 91.8193C94.017 92.1332 94.838 92.2902 95.7198 92.2902C96.8091 92.2902 97.8556 92.1241 98.8569 91.7943C100.621 91.2369 101.502 90.5817 101.502 89.8333C101.502 89.4488 101.329 89.1895 100.984 89.0484L100.988 89.0507ZM90.6408 84.1846C89.5515 86.7143 88.169 87.9769 86.491 87.9769C85.6092 87.9769 84.9529 87.5811 84.5198 86.7871C84.0868 85.9931 83.8726 85.1082 83.8726 84.1322C83.8726 82.79 84.2785 81.4819 85.0904 80.2079C85.7828 79.0909 86.8451 78.2287 88.2795 77.6191C89.1433 77.3051 89.9394 76.8706 90.6656 76.311C90.6476 78.0194 90.6385 80.6447 90.6385 84.1846H90.6408Z" fill="#5384B7"/>
<path d="M115.898 90.3588C114.998 89.8879 114.464 89.1303 114.29 88.0838V58.3957C114.29 57.7678 114.2 57.3447 114.017 57.1263C113.835 56.9079 113.546 56.7987 113.149 56.7987L112.914 56.826C109.89 57.7496 107.028 58.2115 104.331 58.2115C103.656 58.2115 103.32 58.5345 103.32 59.1783C103.32 59.5787 103.485 59.8926 103.812 60.1201C104.383 60.4341 104.802 60.8868 105.07 61.4806C105.339 62.0743 105.472 63.0935 105.472 64.5404V88.0816C105.264 89.128 104.728 89.8856 103.864 90.3565C103.501 90.5658 103.318 90.8979 103.318 91.3507C103.318 91.9603 103.681 92.2652 104.407 92.2652L109.879 92.2925L115.325 92.2652C116.052 92.2652 116.415 91.9422 116.415 91.2983C116.415 90.8979 116.241 90.584 115.896 90.3565L115.898 90.3588Z" fill="#5384B7"/>
<path d="M123.251 63.9648C124.02 64.3311 124.872 64.5153 125.806 64.5153C127.206 64.5153 128.404 64.0808 129.396 63.2141C130.391 62.345 130.887 61.1439 130.887 59.6083C130.887 58.0727 130.391 56.8647 129.396 55.9843C128.402 55.1061 127.204 54.6648 125.806 54.6648C124.872 54.6648 124.02 54.8491 123.251 55.2153C122.482 55.5839 121.868 56.1276 121.41 56.851C120.952 57.5745 120.722 58.4935 120.722 59.606C120.722 60.7184 120.952 61.6057 121.41 62.3268C121.868 63.0503 122.482 63.5963 123.251 63.9625V63.9648Z" fill="#5384B7"/>
<path d="M131.821 90.3588C131.388 90.1313 131.043 89.8492 130.783 89.5079C130.524 89.169 130.332 88.6935 130.213 88.0816V67.3636C130.213 66.7357 130.127 66.3125 129.953 66.0941C129.78 65.8758 129.487 65.7666 129.072 65.7666C128.916 65.7666 128.769 65.7939 128.632 65.8462C125.849 66.7357 123.066 67.1793 120.28 67.1793C119.606 67.1793 119.27 67.4932 119.27 68.1211C119.27 68.5579 119.435 68.8787 119.762 69.088C120.332 69.4019 120.747 69.8546 121.007 70.4484C121.266 71.0422 121.394 72.0613 121.394 73.5082V88.0793C121.273 88.6912 121.083 89.1644 120.824 89.5057C120.565 89.8469 120.219 90.129 119.786 90.3565C119.441 90.5658 119.268 90.8797 119.268 91.2983C119.268 91.9444 119.622 92.2652 120.33 92.2652L125.801 92.2925L131.273 92.2652C131.999 92.2652 132.362 91.9603 132.362 91.3507C132.362 90.8979 132.182 90.5658 131.819 90.3565L131.821 90.3588Z" fill="#5384B7"/>
<path d="M162.241 90.7501C161.981 90.3838 161.6 90.1495 161.099 90.0426C160.477 89.9379 159.967 89.7332 159.57 89.4283C159.173 89.1235 158.697 88.5775 158.145 87.7926L150.132 76.7022L156.46 69.2996C157.186 68.4624 157.834 67.9005 158.404 67.6115C158.975 67.3249 159.597 67.1793 160.272 67.1793C160.824 67.1793 161.102 66.9427 161.102 66.4741C161.102 66.0054 160.833 65.7666 160.299 65.7666H154.464C153.912 65.7666 153.634 66.0032 153.634 66.4741C153.634 66.945 153.918 67.1793 154.489 67.1793C155.197 67.1793 155.551 67.3021 155.551 67.5456C155.551 67.789 155.439 68.0347 155.215 68.2781L149.173 75.3418L145.075 69.6908C144.575 69.0448 144.324 68.5488 144.324 68.1985C144.324 67.8481 144.608 67.6411 145.179 67.6229C145.506 67.5706 145.684 67.4523 145.711 67.2703C145.738 67.086 145.75 66.97 145.75 66.9177C145.75 66.6743 145.671 66.4377 145.517 66.2102C145.328 65.9144 145.041 65.7666 144.66 65.7666H133.458C132.854 65.7666 132.515 65.8712 132.448 66.0805C132.378 66.2898 132.344 66.4468 132.344 66.5514C132.344 66.7948 132.439 67.0474 132.63 67.309C132.872 67.657 133.244 67.8936 133.745 68.0165C134.367 68.1029 134.881 68.3031 135.287 68.6171C135.693 68.931 136.165 69.4725 136.701 70.2391L144.714 81.3568L138.386 88.7595C137.642 89.6308 136.994 90.1973 136.442 90.4589C135.889 90.7205 135.267 90.8502 134.575 90.8502C134.038 90.8502 133.772 91.0936 133.772 91.5827C133.772 92.0718 134.031 92.2902 134.55 92.2902H140.384C140.955 92.2902 141.239 92.0536 141.239 91.5827C141.239 91.1118 140.955 90.8502 140.384 90.8502C139.658 90.8502 139.295 90.7023 139.295 90.4066C139.295 90.2496 139.417 90.0312 139.658 89.7536L145.7 82.6922L149.771 88.3432C150.29 88.9893 150.549 89.4852 150.549 89.8333C150.549 90.1995 150.254 90.3906 149.667 90.4088C149.356 90.4612 149.187 90.5794 149.162 90.7614C149.137 90.9457 149.124 91.0549 149.124 91.089C149.124 91.3507 149.209 91.6168 149.383 91.8875C149.557 92.1583 149.832 92.2925 150.213 92.2925H161.415C162.004 92.2925 162.331 92.1787 162.401 91.9535C162.468 91.726 162.504 91.5691 162.504 91.4826C162.504 91.2392 162.419 90.9958 162.245 90.7501H162.241Z" fill="#5384B7"/>
<path d="M55.6562 28.8145C55.6562 26.419 53.7234 24.4694 51.3463 24.4694C48.9692 24.4694 47.0364 26.419 47.0364 28.8145C47.0364 31.21 48.9692 33.1597 51.3463 33.1597C53.7234 33.1597 55.6562 31.21 55.6562 28.8145Z" fill="#5384B7"/>
<path d="M111.654 33.1597C114.031 33.1597 115.964 31.21 115.964 28.8145C115.964 26.419 114.031 24.4694 111.654 24.4694C109.277 24.4694 107.344 26.419 107.344 28.8145C107.344 29.9747 107.793 31.0667 108.607 31.888C109.421 32.7092 110.503 33.1597 111.654 33.1597Z" fill="#5384B7"/>
<path d="M80.5347 0.0523239C80.8505 0.0181996 81.1639 0 81.4774 0C83.5771 0 85.6137 0.773483 87.1789 2.1885C88.9786 3.81509 90.0093 6.14237 90.0093 8.57657C90.0093 10.1486 89.5831 11.6887 88.7779 13.0264C85.2529 18.873 83.39 25.2997 83.39 31.6127V33.6625C83.39 38.4967 84.6574 43.3901 87.1609 48.2062C87.6322 49.1162 87.8848 50.1422 87.8848 51.175C87.8916 54.5442 85.1852 57.4357 81.8518 57.6177C80.0769 57.7132 78.3922 57.0922 77.1066 55.8637C75.8211 54.6352 75.1107 52.9745 75.1107 51.1864C75.1107 50.1627 75.343 49.1822 75.7985 48.2767C78.3245 43.2605 79.6055 38.1964 79.6055 33.2188V30.746C79.6055 24.7264 77.7765 18.6523 74.3145 13.1811C73.2793 11.5431 72.835 9.64579 73.029 7.69161C73.4259 3.70135 76.5811 0.489114 80.5325 0.0500489L80.5347 0.0523239Z" fill="#5384B7"/>
<path d="M62.3185 30.6027V33.2166C62.3185 35.9215 61.6532 38.7697 60.3428 41.6817C60.088 42.2459 59.9594 42.8487 59.9594 43.4743C59.9594 44.6687 60.4285 45.7811 61.2833 46.6069C62.093 47.3941 63.1485 47.8195 64.2671 47.8195C64.3257 47.8195 64.3844 47.8195 64.4453 47.8172C66.651 47.7285 68.4665 45.9176 68.5748 43.695C68.6109 42.9829 68.471 42.2686 68.1733 41.6293C66.8788 38.8539 66.2225 36.1217 66.2225 33.5055V30.4798C66.2225 26.8399 67.3975 23.1636 69.619 19.849C70.3294 18.7866 70.706 17.5467 70.7083 16.2636C70.7128 12.8944 68.0064 10.0052 64.6753 9.82325C62.9026 9.7277 61.2156 10.351 59.9301 11.5795C58.6446 12.808 57.9364 14.4687 57.9364 16.2523C57.9364 17.4989 58.2905 18.7092 58.9626 19.7511C61.1593 23.1636 62.3208 26.9172 62.3208 30.6049L62.3185 30.6027Z" fill="#5384B7"/>
<path d="M100.63 33.3007V30.6709C100.63 27.0333 101.793 23.3524 103.995 20.0241C104.696 18.964 105.066 17.7264 105.064 16.4456C105.057 13.0878 102.35 10.21 99.0307 10.028C97.2535 9.93017 95.571 10.5558 94.2855 11.7843C92.9999 13.0127 92.2917 14.6734 92.2917 16.4593C92.2917 17.8015 92.6977 19.0868 93.4645 20.1788C95.5981 23.2113 96.7257 26.8399 96.7257 30.6732V33.1506C96.7257 36.0011 96.0672 38.8266 94.8245 41.3268C94.5223 41.9342 94.3689 42.5871 94.3689 43.2719C94.3689 44.4662 94.838 45.5787 95.6928 46.4045C96.5024 47.1893 97.5579 47.617 98.6766 47.617C98.7352 47.617 98.7961 47.617 98.8547 47.6147C101.06 47.526 102.876 45.7151 102.984 43.4925C103.02 42.7805 102.88 42.0661 102.583 41.4269C101.288 38.6537 100.632 35.9215 100.632 33.3053L100.63 33.3007Z" fill="#5384B7"/>
</g>
<defs>
<clipPath id="clip0_21_2790">
<rect width="162" height="93" fill="white" transform="translate(0.5)"/>
</clipPath>
</defs>
</svg>
