<svg width="19" height="17" viewBox="0 0 19 17" fill="none" xmlns="http://www.w3.org/2000/svg">
<path d="M2.63328 8.73778C2.63328 8.08766 2.10873 7.55855 1.46361 7.55855C0.818489 7.55855 0.293945 8.08766 0.293945 8.73778C0.293945 9.38789 0.818489 9.917 1.46361 9.917C2.10873 9.917 2.63328 9.38789 2.63328 8.73778Z" fill="white"/>
<path d="M17.8303 9.917C18.4754 9.917 19 9.38789 19 8.73778C19 8.08766 18.4754 7.55855 17.8303 7.55855C17.1852 7.55855 16.6606 8.08766 16.6606 8.73778C16.6606 9.05265 16.7824 9.349 17.0034 9.57188C17.2244 9.79476 17.5182 9.917 17.8303 9.917Z" fill="white"/>
<path d="M9.38507 0.932047C9.47076 0.922786 9.55584 0.917847 9.64092 0.917847C10.2108 0.917847 10.7635 1.12776 11.1882 1.51178C11.6767 1.95322 11.9564 2.58482 11.9564 3.24543C11.9564 3.67205 11.8407 4.09003 11.6222 4.45306C10.6655 6.03977 10.16 7.78391 10.16 9.49719V10.0535C10.16 11.3654 10.5039 12.6934 11.1833 14.0005C11.3113 14.2474 11.3798 14.5259 11.3798 14.8062C11.3816 15.7205 10.6472 16.5053 9.74252 16.5546C9.26082 16.5806 8.80361 16.412 8.45473 16.0786C8.10585 15.7452 7.91304 15.2945 7.91304 14.8093C7.91304 14.5314 7.97609 14.2653 8.09972 14.0196C8.78524 12.6583 9.1329 11.2839 9.1329 9.93307V9.26196C9.1329 7.62833 8.63651 5.97988 7.69698 4.49504C7.41604 4.05052 7.29546 3.53561 7.3481 3.00526C7.45583 1.92235 8.31211 1.05059 9.38446 0.931429L9.38507 0.932047Z" fill="white"/>
<path d="M4.44133 9.22307V9.93246C4.44133 10.6665 4.26077 11.4395 3.90515 12.2298C3.83599 12.3829 3.8011 12.5465 3.8011 12.7163C3.8011 13.0404 3.92841 13.3423 4.16039 13.5665C4.38012 13.7801 4.66657 13.8955 4.97016 13.8955C4.98607 13.8955 5.00198 13.8955 5.01851 13.8949C5.61711 13.8708 6.10983 13.3794 6.13921 12.7762C6.149 12.5829 6.11105 12.3891 6.03026 12.2156C5.67893 11.4624 5.50082 10.7209 5.50082 10.0109V9.18973C5.50082 8.2019 5.81971 7.20418 6.4226 6.30464C6.6154 6.01631 6.71762 5.67983 6.71823 5.33162C6.71945 4.41726 5.98497 3.63316 5.08094 3.58377C4.59985 3.55784 4.14203 3.72701 3.79315 4.0604C3.44427 4.3938 3.25208 4.84449 3.25208 5.32853C3.25208 5.66687 3.34817 5.99532 3.53057 6.27809C4.12672 7.20418 4.44194 8.22289 4.44194 9.22369L4.44133 9.22307Z" fill="white"/>
<path d="M14.8386 9.9553V9.24159C14.8386 8.25437 15.1545 7.25542 15.7518 6.35217C15.9422 6.06446 16.0426 5.7286 16.042 5.381C16.0401 4.46973 15.3056 3.68872 14.4047 3.63933C13.9224 3.61278 13.4658 3.78257 13.1169 4.11596C12.768 4.44935 12.5758 4.90005 12.5758 5.38471C12.5758 5.74897 12.686 6.0978 12.8941 6.39415C13.4731 7.21714 13.7791 8.20189 13.7791 9.2422V9.91455C13.7791 10.6881 13.6004 11.455 13.2632 12.1335C13.1811 12.2983 13.1395 12.4755 13.1395 12.6613C13.1395 12.9855 13.2668 13.2874 13.4988 13.5115C13.7185 13.7245 14.005 13.8406 14.3086 13.8406C14.3245 13.8406 14.341 13.8406 14.3569 13.84C14.9555 13.8159 15.4483 13.3244 15.4776 12.7212C15.4874 12.528 15.4495 12.3341 15.3687 12.1606C15.0174 11.408 14.8392 10.6665 14.8392 9.95653L14.8386 9.9553Z" fill="white"/>
</svg>
