<svg width="57" height="56" viewBox="0 0 57 56" fill="none" xmlns="http://www.w3.org/2000/svg">
<path opacity="0.5" d="M29.9166 33.8333H27.5833C26.9644 33.8333 26.3709 33.5875 25.9333 33.1499C25.4958 32.7123 25.2499 32.1188 25.2499 31.5C25.2499 30.8811 25.4958 30.2876 25.9333 29.85C26.3709 29.4125 26.9644 29.1666 27.5833 29.1666H29.9166C30.5354 29.1666 31.1289 29.4125 31.5665 29.85C32.0041 30.2876 32.2499 30.8811 32.2499 31.5C32.2499 32.1188 32.0041 32.7123 31.5665 33.1499C31.1289 33.5875 30.5354 33.8333 29.9166 33.8333ZM29.9166 43.1666H27.5833C26.9644 43.1666 26.3709 42.9208 25.9333 42.4832C25.4958 42.0456 25.2499 41.4521 25.2499 40.8333C25.2499 40.2145 25.4958 39.621 25.9333 39.1834C26.3709 38.7458 26.9644 38.5 27.5833 38.5H29.9166C30.5354 38.5 31.1289 38.7458 31.5665 39.1834C32.0041 39.621 32.2499 40.2145 32.2499 40.8333C32.2499 41.4521 32.0041 42.0456 31.5665 42.4832C31.1289 42.9208 30.5354 43.1666 29.9166 43.1666ZM18.2499 33.8333H15.9166C15.2977 33.8333 14.7043 33.5875 14.2667 33.1499C13.8291 32.7123 13.5833 32.1188 13.5833 31.5C13.5833 30.8811 13.8291 30.2876 14.2667 29.85C14.7043 29.4125 15.2977 29.1666 15.9166 29.1666H18.2499C18.8688 29.1666 19.4622 29.4125 19.8998 29.85C20.3374 30.2876 20.5833 30.8811 20.5833 31.5C20.5833 32.1188 20.3374 32.7123 19.8998 33.1499C19.4622 33.5875 18.8688 33.8333 18.2499 33.8333ZM18.2499 43.1666H15.9166C15.2977 43.1666 14.7043 42.9208 14.2667 42.4832C13.8291 42.0456 13.5833 41.4521 13.5833 40.8333C13.5833 40.2145 13.8291 39.621 14.2667 39.1834C14.7043 38.7458 15.2977 38.5 15.9166 38.5H18.2499C18.8688 38.5 19.4622 38.7458 19.8998 39.1834C20.3374 39.621 20.5833 40.2145 20.5833 40.8333C20.5833 41.4521 20.3374 42.0456 19.8998 42.4832C19.4622 42.9208 18.8688 43.1666 18.2499 43.1666ZM41.5833 33.8333H39.2499C38.6311 33.8333 38.0376 33.5875 37.6 33.1499C37.1624 32.7123 36.9166 32.1188 36.9166 31.5C36.9166 30.8811 37.1624 30.2876 37.6 29.85C38.0376 29.4125 38.6311 29.1666 39.2499 29.1666H41.5833C42.2021 29.1666 42.7956 29.4125 43.2332 29.85C43.6708 30.2876 43.9166 30.8811 43.9166 31.5C43.9166 32.1188 43.6708 32.7123 43.2332 33.1499C42.7956 33.5875 42.2021 33.8333 41.5833 33.8333ZM41.5833 43.1666H39.2499C38.6311 43.1666 38.0376 42.9208 37.6 42.4832C37.1624 42.0456 36.9166 41.4521 36.9166 40.8333C36.9166 40.2145 37.1624 39.621 37.6 39.1834C38.0376 38.7458 38.6311 38.5 39.2499 38.5H41.5833C42.2021 38.5 42.7956 38.7458 43.2332 39.1834C43.6708 39.621 43.9166 40.2145 43.9166 40.8333C43.9166 41.4521 43.6708 42.0456 43.2332 42.4832C42.7956 42.9208 42.2021 43.1666 41.5833 43.1666Z" fill="#5384B7"/>
<path opacity="0.25" fill-rule="evenodd" clip-rule="evenodd" d="M41.5833 3.5C42.2022 3.5 42.7955 3.74601 43.2331 4.18359C43.6707 4.62118 43.9167 5.21449 43.9167 5.83333V15.1667H50.9167C51.5355 15.1667 52.1288 15.4127 52.5664 15.8503C53.004 16.2878 53.25 16.8812 53.25 17.5V50.1667C53.25 50.7855 53.004 51.3788 52.5664 51.8164C52.1288 52.254 51.5355 52.5 50.9167 52.5H6.58333C5.96449 52.5 5.37118 52.254 4.93359 51.8164C4.49601 51.3788 4.25 50.7855 4.25 50.1667V17.5C4.25 16.8812 4.49601 16.2878 4.93359 15.8503C5.37118 15.4127 5.96449 15.1667 6.58333 15.1667H13.5833V5.83333C13.5833 5.21449 13.8293 4.62118 14.2669 4.18359C14.7045 3.74601 15.2978 3.5 15.9167 3.5H41.5833ZM15.9167 38.5C15.2978 38.5 14.7045 38.746 14.2669 39.1836C13.8293 39.6212 13.5833 40.2145 13.5833 40.8333C13.5833 41.4522 13.8293 42.0455 14.2669 42.4831C14.7045 42.9207 15.2978 43.1667 15.9167 43.1667H18.25C18.8688 43.1667 19.4622 42.9207 19.8997 42.4831C20.3373 42.0455 20.5833 41.4522 20.5833 40.8333C20.5833 40.2145 20.3373 39.6212 19.8997 39.1836C19.4622 38.746 18.8688 38.5 18.25 38.5H15.9167ZM27.5833 38.5C26.9645 38.5 26.3712 38.746 25.9336 39.1836C25.496 39.6212 25.25 40.2145 25.25 40.8333C25.25 41.4522 25.496 42.0455 25.9336 42.4831C26.3712 42.9207 26.9645 43.1667 27.5833 43.1667H29.9167C30.5355 43.1667 31.1288 42.9207 31.5664 42.4831C32.004 42.0455 32.25 41.4522 32.25 40.8333C32.25 40.2145 32.004 39.6212 31.5664 39.1836C31.1288 38.746 30.5355 38.5 29.9167 38.5H27.5833ZM39.25 38.5C38.6312 38.5 38.0378 38.746 37.6003 39.1836C37.1627 39.6212 36.9167 40.2145 36.9167 40.8333C36.9167 41.4522 37.1627 42.0455 37.6003 42.4831C38.0378 42.9207 38.6312 43.1667 39.25 43.1667H41.5833C42.2022 43.1667 42.7955 42.9207 43.2331 42.4831C43.6707 42.0455 43.9167 41.4522 43.9167 40.8333C43.9167 40.2145 43.6707 39.6212 43.2331 39.1836C42.7955 38.746 42.2022 38.5 41.5833 38.5H39.25ZM15.9167 29.1667C15.2978 29.1667 14.7045 29.4127 14.2669 29.8503C13.8293 30.2878 13.5833 30.8812 13.5833 31.5C13.5833 32.1188 13.8293 32.7122 14.2669 33.1497C14.7045 33.5873 15.2978 33.8333 15.9167 33.8333H18.25C18.8688 33.8333 19.4622 33.5873 19.8997 33.1497C20.3373 32.7122 20.5833 32.1188 20.5833 31.5C20.5833 30.8812 20.3373 30.2878 19.8997 29.8503C19.4622 29.4127 18.8688 29.1667 18.25 29.1667H15.9167ZM27.5833 29.1667C26.9645 29.1667 26.3712 29.4127 25.9336 29.8503C25.496 30.2878 25.25 30.8812 25.25 31.5C25.25 32.1188 25.496 32.7122 25.9336 33.1497C26.3712 33.5873 26.9645 33.8333 27.5833 33.8333H29.9167C30.5355 33.8333 31.1288 33.5873 31.5664 33.1497C32.004 32.7122 32.25 32.1188 32.25 31.5C32.25 30.8812 32.004 30.2878 31.5664 29.8503C31.1288 29.4127 30.5355 29.1667 29.9167 29.1667H27.5833ZM39.25 29.1667C38.6312 29.1667 38.0378 29.4127 37.6003 29.8503C37.1627 30.2878 36.9167 30.8812 36.9167 31.5C36.9167 32.1188 37.1627 32.7122 37.6003 33.1497C38.0378 33.5873 38.6312 33.8333 39.25 33.8333H41.5833C42.2022 33.8333 42.7955 33.5873 43.2331 33.1497C43.6707 32.7122 43.9167 32.1188 43.9167 31.5C43.9167 30.8812 43.6707 30.2878 43.2331 29.8503C42.7955 29.4127 42.2022 29.1667 41.5833 29.1667H39.25Z" fill="#5384B7"/>
<path d="M28.9166 21C27.6347 21 26.4053 20.4907 25.4989 19.5843C24.5925 18.6779 24.0833 17.4485 24.0833 16.1667C24.0833 14.2083 25.2082 12.4525 26.9501 11.6944C27.0115 11.6676 27.0795 11.66 27.1453 11.6724C27.2111 11.6849 27.2716 11.7169 27.319 11.7643C27.3663 11.8116 27.3983 11.8721 27.4108 11.9379C27.4233 12.0037 27.4156 12.0717 27.3889 12.1331C27.1889 12.5923 27.0832 13.1804 27.0832 13.8333C27.0832 16.1308 28.9524 18 31.2499 18C31.9028 18 32.4909 17.8944 32.9501 17.6944C33.0115 17.6676 33.0795 17.66 33.1453 17.6724C33.2111 17.6849 33.2716 17.7169 33.319 17.7642C33.3663 17.8116 33.3983 17.8721 33.4108 17.9379C33.4232 18.0037 33.4156 18.0717 33.3888 18.1331C32.6307 19.875 30.8749 21 28.9166 21Z" fill="#5384B7"/>
</svg>
