<svg width="115" height="167" viewBox="0 0 115 167" fill="none" xmlns="http://www.w3.org/2000/svg">
<g filter="url(#filter0_d_454_2187)">
<path d="M5.71484 26.1607C5.71484 21.1231 9.92311 17.0354 15.1216 17.0354H95.1007C99.5125 17.0354 103.154 20.392 103.374 24.6665L109.277 137.154C109.453 140.5 106.735 143.323 103.286 143.382L11.6174 144.999C8.37183 145.058 5.71484 142.523 5.71484 139.374V26.1607Z" fill="#334A5B"/>
<path d="M25.0176 143.083L14.7583 142.955C11.3311 142.912 8.53662 140.169 8.53662 136.845V121.823C8.53662 121.705 8.63564 121.609 8.75666 121.609C8.87768 121.609 8.9767 121.705 8.9767 121.823V136.845C8.9767 139.94 11.5732 142.491 14.7638 142.534L25.0231 142.662C25.1441 142.662 25.2432 142.758 25.2377 142.875C25.2377 142.993 25.1386 143.083 25.0176 143.083Z" fill="#A4BBCC"/>
<path d="M8.75666 117.377C8.63564 117.377 8.53662 117.281 8.53662 117.164V114.73C8.53662 114.613 8.63564 114.517 8.75666 114.517C8.87768 114.517 8.9767 114.613 8.9767 114.73V117.164C8.9767 117.281 8.87768 117.377 8.75666 117.377Z" fill="#A4BBCC"/>
<path d="M12.2667 18.7697C12.2557 17.1581 13.7189 15.9094 15.3637 16.1282C26.2832 17.5637 63.8441 22.009 94.8972 19.6983C96.311 19.5915 97.5432 20.6322 97.6202 22.009L103.809 134.998C103.891 136.546 102.676 137.875 101.08 137.966C88.021 138.713 34.2377 141.616 15.0502 139.663C13.884 139.545 12.9983 138.59 12.9873 137.453L12.2667 18.7751V18.7697Z" fill="#A4BBCC"/>
<path d="M13.5543 21.5981C13.5433 20.0451 14.9516 18.8444 16.5359 19.0526C27.0483 20.4347 63.1899 24.7092 93.0713 22.4839C94.4356 22.3825 95.6183 23.3858 95.6898 24.7092L101.647 133.446C101.73 134.934 100.558 136.21 99.0179 136.301C86.4481 137.021 34.6892 139.812 16.2278 137.934C15.1056 137.821 14.253 136.904 14.242 135.804L13.5488 21.5927L13.5543 21.5981Z" fill="#E5ECF4"/>
<g opacity="0.6">
<path d="M89.7812 32.0096C89.9187 32.0096 90.0288 31.9028 90.0233 31.7694L89.9902 30.6861C89.9902 30.5527 89.8692 30.4406 89.7317 30.4406L59.5092 29.9176C59.3717 29.9176 59.2947 30.0137 59.3442 30.1418L59.9383 31.7801C59.9823 31.9028 60.1308 32.0096 60.2683 32.0096H89.7812Z" fill="#334A5B"/>
</g>
<g opacity="0.6">
<path d="M59.5151 34.2669C59.3775 34.2669 59.3005 34.3629 59.35 34.491L59.9441 36.1293C59.9881 36.2521 60.1367 36.3588 60.2742 36.3588H89.7816C89.9191 36.3588 90.0291 36.2521 90.0236 36.1186L89.9906 35.0353C89.9906 34.9019 89.8696 34.7899 89.7321 34.7899L59.5096 34.2669H59.5151Z" fill="#334A5B"/>
</g>
<g opacity="0.6">
<path d="M59.5151 38.6748C59.3775 38.6748 59.3005 38.7709 59.35 38.899L59.9441 40.5373C59.9881 40.66 60.1367 40.7667 60.2742 40.7667H89.7816C89.9191 40.7667 90.0291 40.66 90.0236 40.5266L89.9906 39.4433C89.9906 39.3099 89.8696 39.1978 89.7321 39.1978L59.5096 38.6748H59.5151Z" fill="#334A5B"/>
</g>
<g opacity="0.6">
<path d="M92.5815 62.0273C92.719 62.0273 92.8235 61.9206 92.8125 61.7872L92.741 60.7038C92.73 60.5704 92.6145 60.4637 92.477 60.4584L23.5219 59.9301C23.3844 59.9301 23.3403 60.0154 23.4284 60.1168L24.8366 61.8352C24.9246 61.9366 25.1062 62.022 25.2437 62.022H92.5815V62.0273Z" fill="#334A5B"/>
</g>
<g opacity="0.6">
<path d="M23.5219 66.7928C23.3844 66.7928 23.3403 66.8782 23.4284 66.9796L24.8366 68.6979C24.9246 68.7993 25.1062 68.8847 25.2437 68.8847H92.5815C92.719 68.8847 92.8235 68.778 92.8125 68.6445L92.741 67.5612C92.73 67.4278 92.6145 67.3211 92.477 67.3158L23.5219 66.7874V66.7928Z" fill="#334A5B"/>
</g>
<g opacity="0.6">
<path d="M23.8129 75.4005C23.6754 75.4005 23.6314 75.4859 23.7194 75.5873L25.1276 77.3057C25.2156 77.4071 25.3972 77.4924 25.5347 77.4924H92.8725C93.01 77.4924 93.1145 77.3857 93.1035 77.2523L93.032 76.169C93.021 76.0356 92.9055 75.9288 92.768 75.9235L23.8129 75.3952V75.4005Z" fill="#334A5B"/>
</g>
<path d="M32.6258 93.9235H32.6093L26.9047 93.8701C26.0906 93.8648 25.4195 93.3205 25.3424 92.6054L24.8419 87.9626C24.8143 87.6905 24.9024 87.4183 25.0894 87.2049C25.2984 86.9647 25.6175 86.8099 25.9641 86.7886C26.4426 86.7566 27.1193 86.7032 27.8399 86.6392C29.3472 86.5164 31.2285 86.3617 32.2847 86.3457C33.0493 86.3457 33.6985 86.7833 33.88 87.429C34.1771 88.4963 34.1495 90.5135 34.0945 92.6587C34.078 93.3578 33.4234 93.9181 32.6313 93.9181H32.6258V93.9235ZM25.9916 87.2102C25.766 87.2262 25.557 87.3222 25.425 87.477C25.3149 87.6051 25.2654 87.7598 25.2819 87.9199L25.7825 92.5627C25.8375 93.059 26.3216 93.4432 26.9157 93.4485L32.6203 93.5019H32.6313C33.1814 93.5019 33.6435 93.123 33.6545 92.6534C33.7095 90.5348 33.737 88.555 33.4564 87.541C33.3299 87.0874 32.8458 86.7726 32.2902 86.7726C31.2505 86.7833 29.3802 86.938 27.8784 87.0661C27.1578 87.1248 26.4812 87.1835 25.9971 87.2155L25.9916 87.2102Z" fill="#334A5B"/>
<path opacity="0.6" d="M26.6028 87.6905C27.802 87.6104 30.404 87.3543 31.6417 87.3382C32.1643 87.3329 32.6264 87.6371 32.7474 88.08C32.9839 88.9339 32.9564 90.6415 32.9124 92.2105C32.9014 92.6801 32.4558 93.059 31.9112 93.0536L27.3509 93.0109C26.7898 93.0109 26.3277 92.6374 26.2727 92.1518L25.8711 88.4429C25.8271 88.0587 26.1572 87.7171 26.6028 87.6905Z" fill="#334A5B"/>
<g opacity="0.6">
<path d="M37.6376 90.839C37.8026 91.4474 38.3692 91.8689 39.0183 91.8636L91.7894 91.426C92.389 91.426 92.8621 90.9457 92.8511 90.3641C92.8401 89.8037 92.367 89.3501 91.7839 89.3501L39.0128 89.1153C38.0831 89.1153 37.401 89.9638 37.6376 90.839Z" fill="#334A5B"/>
</g>
<path d="M32.6258 105.781H32.6093L26.9047 105.728C26.0906 105.722 25.4195 105.178 25.3424 104.463L24.8419 99.8203C24.8143 99.5482 24.9024 99.276 25.0894 99.0625C25.2984 98.8224 25.6175 98.6676 25.9641 98.6463C26.4426 98.6143 27.1193 98.5609 27.8399 98.4969C29.3472 98.3741 31.2285 98.2194 32.2847 98.2034H32.3067C33.0548 98.2034 33.704 98.6463 33.88 99.2867C34.1771 100.354 34.1495 102.371 34.0945 104.516C34.078 105.216 33.4234 105.776 32.6313 105.776H32.6258V105.781ZM25.9916 99.0679C25.766 99.0839 25.557 99.1799 25.425 99.3347C25.3149 99.4628 25.2654 99.6175 25.2819 99.7776L25.7825 104.42C25.8375 104.917 26.3216 105.301 26.9157 105.306L32.6203 105.36H32.6313C33.1814 105.36 33.6435 104.981 33.6545 104.511C33.7095 102.392 33.737 100.413 33.4564 99.3987C33.3299 98.9451 32.8348 98.6196 32.2902 98.6303C31.2505 98.6409 29.3802 98.7957 27.8784 98.9238C27.1578 98.9825 26.4812 99.0412 25.9971 99.0732L25.9916 99.0679Z" fill="#334A5B"/>
<path opacity="0.6" d="M26.6028 99.5481C27.802 99.4681 30.404 99.2119 31.6417 99.1959C32.1643 99.1906 32.6264 99.4948 32.7474 99.9377C32.9839 100.792 32.9564 102.499 32.9124 104.068C32.9014 104.538 32.4558 104.917 31.9112 104.911L27.3509 104.869C26.7898 104.869 26.3277 104.495 26.2727 104.009L25.8711 100.301C25.8271 99.9164 26.1572 99.5748 26.6028 99.5481Z" fill="#334A5B"/>
<g opacity="0.6">
<path d="M37.6376 102.697C37.8026 103.305 38.3692 103.727 39.0183 103.721L91.7894 103.284C92.389 103.284 92.8621 102.803 92.8511 102.222C92.8401 101.661 92.367 101.208 91.7839 101.208L39.0128 100.973C38.0831 100.973 37.401 101.821 37.6376 102.697Z" fill="#334A5B"/>
</g>
<path d="M32.6258 117.639H32.6093L26.9047 117.585C26.0906 117.58 25.4195 117.036 25.3424 116.321L24.8419 111.678C24.8143 111.406 24.9024 111.134 25.0894 110.92C25.2984 110.68 25.6175 110.525 25.9641 110.504C26.4426 110.472 27.1193 110.419 27.8399 110.355C29.3472 110.232 31.2285 110.077 32.2847 110.061H32.3067C33.0548 110.061 33.704 110.504 33.88 111.144C34.1771 112.212 34.1495 114.229 34.0945 116.374C34.078 117.073 33.4234 117.633 32.6313 117.633H32.6258V117.639ZM25.9916 110.926C25.766 110.942 25.557 111.038 25.425 111.192C25.3149 111.32 25.2654 111.475 25.2819 111.635L25.7825 116.278C25.8375 116.774 26.3216 117.159 26.9157 117.164L32.6203 117.217H32.6313C33.1814 117.217 33.6435 116.838 33.6545 116.369C33.7095 114.25 33.737 112.27 33.4564 111.256C33.3299 110.803 32.8348 110.477 32.2902 110.488C31.2505 110.499 29.3802 110.653 27.8784 110.781C27.1578 110.84 26.4812 110.899 25.9971 110.931L25.9916 110.926Z" fill="#334A5B"/>
<path opacity="0.6" d="M26.6028 111.406C27.802 111.326 30.404 111.07 31.6417 111.054C32.1643 111.048 32.6264 111.352 32.7474 111.795C32.9839 112.649 32.9564 114.357 32.9124 115.926C32.9014 116.395 32.4558 116.774 31.9112 116.769L27.3509 116.726C26.7898 116.726 26.3277 116.353 26.2727 115.867L25.8711 112.158C25.8271 111.774 26.1572 111.433 26.6028 111.406Z" fill="#334A5B"/>
<g opacity="0.6">
<path d="M37.6376 114.554C37.8026 115.163 38.3692 115.584 39.0183 115.579L91.7894 115.141C92.389 115.141 92.8621 114.661 92.8511 114.079C92.8401 113.519 92.367 113.065 91.7839 113.065L39.0128 112.831C38.0831 112.831 37.401 113.679 37.6376 114.554Z" fill="#334A5B"/>
</g>
<path d="M32.6258 129.497H32.6093L26.9047 129.443C26.0906 129.438 25.4195 128.893 25.3424 128.178L24.8419 123.536C24.8143 123.263 24.9024 122.991 25.0894 122.778C25.2984 122.538 25.6175 122.383 25.9641 122.362C26.4426 122.33 27.1193 122.276 27.8399 122.212C29.3472 122.089 31.2285 121.935 32.2847 121.919H32.3067C33.0548 121.919 33.704 122.362 33.88 123.002C34.1771 124.069 34.1495 126.086 34.0945 128.232C34.078 128.931 33.4234 129.491 32.6313 129.491H32.6258V129.497ZM25.9916 122.783C25.766 122.799 25.557 122.895 25.425 123.05C25.3149 123.178 25.2654 123.333 25.2819 123.493L25.7825 128.136C25.8375 128.632 26.3216 129.016 26.9157 129.022L32.6203 129.075H32.6313C33.1814 129.075 33.6435 128.696 33.6545 128.226C33.7095 126.108 33.737 124.128 33.4564 123.114C33.3299 122.66 32.8348 122.335 32.2902 122.346C31.2505 122.356 29.3802 122.511 27.8784 122.639C27.1578 122.698 26.4812 122.757 25.9971 122.789L25.9916 122.783Z" fill="#334A5B"/>
<path opacity="0.6" d="M26.6028 123.263C27.802 123.183 30.404 122.927 31.6417 122.911C32.1643 122.906 32.6264 123.21 32.7474 123.653C32.9839 124.507 32.9564 126.215 32.9124 127.783C32.9014 128.253 32.4558 128.632 31.9112 128.627L27.3509 128.584C26.7898 128.584 26.3277 128.21 26.2727 127.725L25.8711 124.016C25.8271 123.632 26.1572 123.29 26.6028 123.263Z" fill="#334A5B"/>
<g opacity="0.6">
<path d="M37.6376 126.412C37.8026 127.02 38.3692 127.442 39.0183 127.437L91.7894 126.999C92.389 126.999 92.8621 126.519 92.8511 125.937C92.8401 125.377 92.367 124.923 91.7839 124.923L39.0128 124.688C38.0831 124.688 37.401 125.537 37.6376 126.412Z" fill="#334A5B"/>
</g>
<path d="M60.0701 1.69829C57.182 -0.249528 54.6681 -0.212172 52.9022 0.294794C51.2904 0.759069 50.2453 2.2693 50.3993 3.89159L51.1639 11.9657L60.2406 12.7448C60.2406 12.7448 65.7416 5.51922 60.0755 1.69829H60.0701ZM56.0763 8.21414C54.8276 8.21414 53.8154 7.23223 53.8154 6.02085C53.8154 4.80946 54.8276 3.82755 56.0763 3.82755C57.325 3.82755 58.3372 4.80946 58.3372 6.02085C58.3372 7.23223 57.325 8.21414 56.0763 8.21414Z" fill="#334A5B"/>
<path d="M52.0607 8.57169C51.9507 8.57169 51.8517 8.48631 51.8406 8.37958L51.7196 7.09349C51.7086 6.97608 51.7966 6.87469 51.9177 6.86402C52.0387 6.85334 52.1432 6.93873 52.1542 7.05613L52.2752 8.34222C52.2862 8.45963 52.1982 8.56102 52.0772 8.57169H52.0552H52.0607ZM51.8241 6.04753C51.7141 6.04753 51.6151 5.96215 51.6041 5.85542L51.5106 4.87884C51.3621 3.33126 52.3688 1.89041 53.898 1.45282C54.9817 1.1433 56.0984 1.10061 57.2151 1.3194C57.3361 1.34075 57.4077 1.45282 57.3857 1.57022C57.3637 1.68229 57.2481 1.757 57.1271 1.73565C56.0819 1.52753 55.0367 1.57022 54.0245 1.85839C52.6933 2.23728 51.8241 3.49136 51.9507 4.84149L52.0442 5.81806C52.0552 5.93547 51.9672 6.03686 51.8462 6.04753H51.8241Z" fill="#A4BBCC"/>
<path d="M38.771 17.1848V13.1237C38.771 11.7202 39.9702 10.5996 41.4115 10.6476L70.2642 11.6082C71.546 11.6509 72.5802 12.6328 72.6572 13.8708L72.8992 17.7718L38.771 17.1848Z" fill="#334A5B"/>
<path d="M49.5297 12.1792H48.2864C48.1654 12.1792 48.0664 12.0831 48.0664 11.9657C48.0664 11.8483 48.1654 11.7522 48.2864 11.7522H49.5297C49.6507 11.7522 49.7497 11.8483 49.7497 11.9657C49.7497 12.0831 49.6507 12.1792 49.5297 12.1792Z" fill="#A4BBCC"/>
<path d="M40.3328 15.9094C40.2118 15.9094 40.1128 15.8133 40.1128 15.6959V14.0523C40.1128 12.7822 41.1745 11.7522 42.4837 11.7522H47.0441C47.1651 11.7522 47.2641 11.8483 47.2641 11.9657C47.2641 12.0831 47.1651 12.1792 47.0441 12.1792H42.4837C41.4165 12.1792 40.5474 13.0223 40.5474 14.0576V15.7012C40.5474 15.8186 40.4484 15.9147 40.3273 15.9147L40.3328 15.9094Z" fill="#A4BBCC"/>
<path d="M27.0146 18.2094C27.0862 16.8059 28.2799 15.6959 29.7321 15.6959H80.1873C82.0027 15.6959 83.554 16.9607 83.862 18.695L83.906 18.9352C84.2471 20.8349 82.7398 22.5746 80.7484 22.5746H28.984C27.7958 22.5746 26.8496 21.6087 26.9046 20.4561L27.0146 18.2094Z" fill="#A4BBCC"/>
<path d="M38.8692 54.743C46.1 54.743 51.9616 49.0566 51.9616 42.0421C51.9616 35.0277 46.1 29.3413 38.8692 29.3413C31.6385 29.3413 25.7769 35.0277 25.7769 42.0421C25.7769 49.0566 31.6385 54.743 38.8692 54.743Z" fill="#5384B7"/>
</g>
<defs>
<filter id="filter0_d_454_2187" x="0.314844" y="0" width="114.37" height="166.4" filterUnits="userSpaceOnUse" color-interpolation-filters="sRGB">
<feFlood flood-opacity="0" result="BackgroundImageFix"/>
<feColorMatrix in="SourceAlpha" type="matrix" values="0 0 0 0 0 0 0 0 0 0 0 0 0 0 0 0 0 0 127 0" result="hardAlpha"/>
<feMorphology radius="8" operator="erode" in="SourceAlpha" result="effect1_dropShadow_454_2187"/>
<feOffset dy="16"/>
<feGaussianBlur stdDeviation="6.7"/>
<feComposite in2="hardAlpha" operator="out"/>
<feColorMatrix type="matrix" values="0 0 0 0 0 0 0 0 0 0 0 0 0 0 0 0 0 0 0.2 0"/>
<feBlend mode="normal" in2="BackgroundImageFix" result="effect1_dropShadow_454_2187"/>
<feBlend mode="normal" in="SourceGraphic" in2="effect1_dropShadow_454_2187" result="shape"/>
</filter>
</defs>
</svg>
