<svg width="64" height="65" viewBox="0 0 64 65" fill="none" xmlns="http://www.w3.org/2000/svg">
<path d="M55.5 17.9867C60.1944 17.9867 64 14.1811 64 9.48669C64 4.79227 60.1944 0.986694 55.5 0.986694C50.8056 0.986694 47 4.79227 47 9.48669C47 14.1811 50.8056 17.9867 55.5 17.9867Z" fill="#5384B7"/>
<path d="M55.8 21.596C48.949 21.596 43.4 16.0442 43.4 9.1898C43.4 6.92566 44.051 4.81661 45.136 2.98669H15.5C6.944 2.98669 0 9.90315 0 18.4324V36.9797V40.0812C0 48.6105 6.944 55.527 15.5 55.527H20.15C20.987 55.527 22.103 56.0852 22.63 56.7676L27.28 62.9397C29.326 65.669 32.674 65.669 34.72 62.9397L39.37 56.7676C39.959 55.9922 40.889 55.527 41.85 55.527H46.5C55.056 55.527 62 48.6105 62 40.0812V19.8591C60.171 20.9447 58.063 21.596 55.8 21.596Z" fill="#C9D6E0"/>
<path d="M31 33.9867C29.32 33.9867 28 32.6367 28 30.9867C28 29.3367 29.35 27.9867 31 27.9867C32.65 27.9867 34 29.3367 34 30.9867C34 32.6367 32.68 33.9867 31 33.9867Z" fill="#5384B7"/>
<path d="M43 33.9867C41.32 33.9867 40 32.6367 40 30.9867C40 29.3367 41.35 27.9867 43 27.9867C44.65 27.9867 46 29.3367 46 30.9867C46 32.6367 44.68 33.9867 43 33.9867Z" fill="#5384B7"/>
<path d="M18.5 33.9867C16.54 33.9867 15 32.6367 15 30.9867C15 29.3367 16.575 27.9867 18.5 27.9867C20.425 27.9867 22 29.3367 22 30.9867C22 32.6367 20.46 33.9867 18.5 33.9867Z" fill="#5384B7"/>
</svg>
