<svg width="54" height="56" viewBox="0 0 54 56" fill="none" xmlns="http://www.w3.org/2000/svg">
<path d="M23.2889 7.73886C23.1685 8.94292 23.0153 10.147 23.0153 11.3729C22.7197 11.3948 22.4351 11.4496 22.1724 11.5919C22.0849 11.3182 22.0411 11.0117 21.8988 10.7709C21.3515 9.91712 21.253 8.97576 21.3296 8.00156C21.3405 7.80453 21.3296 7.59656 21.2968 7.39953C21.1107 5.51681 20.0927 4.59734 18.21 4.59734C17.4985 4.59734 16.7979 4.73964 16.1193 4.94761C15.6267 5.10086 15.1341 5.19937 14.6197 5.12275C14.6197 5.12275 14.6197 5.1337 14.6087 5.14464C14.543 5.1337 14.4664 5.12275 14.4007 5.1118C13.6783 4.96951 12.9778 4.71775 12.2334 4.61923C10.2631 4.36747 8.97151 5.16653 8.63218 6.92885C8.54461 7.35575 8.48988 7.79359 8.51177 8.23143C8.55556 9.10711 8.47893 9.92807 7.99731 10.6943C7.83312 10.946 7.81122 11.2744 7.72366 11.57C7.4719 11.5043 7.22014 11.4386 6.97933 11.3729C6.81514 10.1142 6.61811 8.85535 6.74946 7.57467C6.85892 6.42533 7.06689 5.33073 8.18339 4.67396C8.34758 4.57545 8.41326 4.40031 8.4242 4.20328C8.55556 2.25489 9.77057 1.20407 11.4672 0.547303C12.1459 0.284597 12.8792 0.273651 13.547 0H15.7362C15.6267 0.0218921 15.5282 0.0437822 15.4297 0.0766204C15.5391 0.0766204 15.6377 0.0656763 15.7362 0H16.174C16.4914 0.197029 16.8527 0.175135 17.2029 0.251758C18.9324 0.667708 20.4868 1.40109 21.7127 2.72557C21.7674 2.79124 21.855 2.83503 21.9316 2.88976C22.0083 3.01016 22.0739 3.14152 22.1506 3.26192C23.1029 4.60829 23.475 6.10789 23.3108 7.73886H23.2889Z" fill="#37587A"/>
<path d="M34.3221 40.2268C34.3221 40.6974 34.3221 41.1681 34.344 41.6388C34.2783 41.6169 34.2127 41.595 34.147 41.5622C34.1032 41.5512 34.0594 41.5293 34.0266 41.5184C33.4136 41.3651 32.8225 41.0587 32.1548 41.2228C32.1767 41.2557 32.1876 41.3104 32.1876 41.3542C32.1329 41.3323 32.0891 41.3214 32.0344 41.2995C31.6732 41.1791 31.2901 41.1243 30.9507 40.9382C30.1736 40.5004 29.8671 39.7451 29.6372 38.9461C29.67 38.9242 29.7138 38.9132 29.7467 38.8913C30.1736 38.6615 30.6005 38.4535 30.9945 38.1689C32.1548 37.337 32.7787 36.1548 33.1399 34.8194C33.5231 34.9508 33.9171 35.0383 34.147 34.6005C34.4754 33.9547 34.7819 33.2979 35.0227 32.6192C35.3292 31.7545 35.1321 31.24 34.4097 30.7475C34.4644 30.4629 34.5191 30.1783 34.5848 29.8937C35.8546 31.448 37.1571 32.9805 38.8757 34.0751C38.9085 34.097 38.9414 34.1189 38.9632 34.1517C39.007 34.2064 39.0399 34.2612 39.0399 34.3378C36.2486 35.0164 34.355 37.3698 34.3221 40.2377V40.2268Z" fill="#456E98"/>
<path d="M35.4061 3.73258C34.5852 4.58637 33.8189 5.48395 33.4577 6.64423C33.2169 7.41045 32.8776 8.13289 32.4835 8.83344C31.8705 9.90615 31.2466 10.9679 30.6555 12.0625C29.8893 13.4746 29.4077 14.9742 29.539 16.6051C29.6594 18.0829 30.1739 19.4402 30.8854 20.7209C31.3999 21.6403 31.9143 22.5598 32.1223 23.6106C31.9581 23.4683 31.783 23.337 31.6297 23.1837C29.9003 21.6622 27.9081 21.2463 25.686 21.7607C23.8471 22.1329 22.1833 22.8553 20.7384 24.0703C20.3881 23.8186 20.0379 23.5668 19.6985 23.326C19.6329 22.9101 19.5781 22.5051 19.5125 22.0891C19.6219 21.9468 19.7314 21.7936 19.8408 21.6513C20.9902 20.1845 21.6469 18.5207 21.7345 16.6489C21.7454 16.4957 21.7673 16.3424 21.7783 16.1892C22.4132 16.233 22.9167 15.9812 23.0809 15.3573C23.2888 14.5254 23.6391 13.7482 23.869 12.9382C24.066 12.2048 23.8361 11.7232 23.1794 11.4167C23.1356 11.3948 23.0918 11.3839 23.048 11.362C23.048 10.147 23.2013 8.9429 23.3217 7.72789C23.4859 6.09693 23.1137 4.59732 22.1614 3.25095C22.0738 3.13055 22.0191 2.99919 21.9425 2.87879C23.2232 2.63797 24.5148 2.45189 25.8174 2.40811C28.1489 2.29865 30.4585 2.49567 32.7462 2.9773C32.8119 2.98825 32.8776 3.03203 32.9433 3.05392C33.7752 3.27285 34.6071 3.49177 35.4499 3.72163L35.4061 3.73258Z" fill="#5384B7"/>
<path d="M53.7295 30.8898C53.0946 30.6271 52.405 30.5724 51.7483 30.3863C51.7702 30.3096 51.7921 30.244 51.803 30.1673C51.8358 29.9375 51.803 29.7076 51.7811 29.4668C51.6826 28.6896 51.3214 28.011 50.9383 27.3542C50.1502 26.0297 49.8984 24.6396 50.3362 23.1728C50.3581 23.1071 50.38 23.0415 50.4019 22.9648C50.8288 21.8155 51.4637 20.7537 52.0438 19.681C53.434 23.2932 54.0032 27.0258 53.7295 30.8788V30.8898Z" fill="#5384B7"/>
<path d="M38.9528 52.4972C38.8762 50.4065 38.7011 48.3377 38.4493 46.2579C38.1428 43.7841 36.7636 42.3283 34.4321 41.6497C34.3993 41.6497 34.3664 41.6497 34.3445 41.6278C34.2789 41.6059 34.2132 41.584 34.1475 41.5511C34.1037 41.5402 34.0599 41.5183 34.0271 41.5074C33.4141 41.3541 32.823 41.0476 32.1553 41.2118C32.1772 41.2447 32.1882 41.2994 32.1882 41.3432C31.4767 43.2259 30.0208 44.1563 28.1272 44.4956C27.35 44.6379 26.5619 44.5723 25.7957 44.3752C25.6862 44.3533 25.5767 44.3314 25.4673 44.3096C25.4016 44.2877 25.325 44.2548 25.2593 44.222C23.9567 43.6856 22.9169 42.8756 22.3696 41.5402C22.3477 41.4745 22.3148 41.4089 22.2929 41.3432C21.3406 41.5074 20.4102 41.7372 19.5126 42.0875C17.7394 42.7771 16.6448 44.014 16.3602 45.9296C15.9771 48.4362 15.8676 50.9538 15.7144 53.4823C17.4219 54.3252 19.228 54.9163 21.0889 55.3213C21.6909 55.4417 22.2929 55.5402 22.884 55.6825C23.4861 55.8139 24.1209 55.7482 24.7011 55.9999H29.1889C29.2546 55.8357 29.3969 55.9014 29.5173 55.8905C30.809 55.7372 32.1006 55.573 33.3594 55.2228C34.3226 55.0148 35.275 54.7411 36.1944 54.358C37.1029 54.0734 37.9677 53.6903 38.7996 53.2525C39.0185 53.0336 38.9747 52.749 38.9638 52.4863L38.9528 52.4972Z" fill="#456E98"/>
<path d="M10.3725 22.1001C10.2959 22.527 10.2192 22.9539 10.1426 23.3808C9.03708 24.1908 7.83301 24.8804 6.92449 25.9422C6.9026 25.9641 6.8807 25.9969 6.85881 26.0188C5.74231 26.3691 4.72433 26.9164 3.71729 27.4856C3.09337 27.8468 2.4585 28.0767 1.73606 28.1424C1.2216 28.1861 0.718078 28.3613 0.203613 28.4817C0.236451 26.9602 0.378748 25.4496 0.718076 23.961C1.04646 21.9578 1.71417 20.0532 2.53512 18.2033C2.90729 17.3605 3.31229 16.5286 3.81581 15.7624C4.43974 14.6568 5.17312 13.6279 5.93934 12.6208C6.10353 13.606 6.58516 14.4926 6.82597 15.4559C6.95733 16.0141 7.46084 16.2549 8.06288 16.2002C8.07382 16.3206 8.08477 16.441 8.09571 16.5505C8.05193 16.7694 8.04098 16.9774 8.16139 17.1854C8.4022 19.0571 9.13559 20.699 10.3725 22.1111V22.1001Z" fill="#5384B7"/>
<path d="M52.8214 16.6379C52.7339 17.7107 52.3836 18.6958 52.0333 19.6919C51.4422 20.7646 50.8183 21.8154 50.3914 22.9757C50.3695 23.0414 50.3476 23.1071 50.3257 23.1837C49.8879 24.6614 50.1397 26.0406 50.9278 27.3651C51.3109 28.0218 51.6721 28.7005 51.7706 29.4777C51.8035 29.7075 51.8254 29.9483 51.7925 30.1782C51.7925 30.2548 51.7597 30.3205 51.7378 30.3971C50.5337 30.1125 49.3625 29.7075 48.2022 29.2806C48.1365 29.2478 48.0709 29.2259 48.0052 29.1931C47.2827 28.8537 46.5494 28.5144 45.9145 28.0218C45.1592 27.4417 44.601 26.7521 44.7104 25.7232C44.7323 25.7122 44.7433 25.7013 44.7542 25.6794C45.7612 24.8146 46.4289 23.6872 47.0419 22.5379C47.0638 22.4941 47.0857 22.4612 47.1076 22.4175C47.6549 21.082 48.1584 19.7247 48.4759 18.3127C48.4868 18.258 48.5087 18.1923 48.5196 18.1266C48.7057 17.229 48.6619 16.3205 48.6729 15.401C48.6072 15.3354 48.5415 15.2806 48.454 15.2259C48.1037 14.7662 47.644 14.394 47.2718 13.9343C46.626 13.1462 46.3961 12.2376 46.3414 11.2525C46.3304 11.0117 46.3414 10.7818 46.3195 10.541C46.0787 8.65827 44.8199 7.70597 42.9153 7.97962C42.7401 8.00151 42.5431 7.97962 42.3789 8.0453C41.558 8.39557 40.7589 8.28611 39.9708 8.00151C39.9051 7.97962 39.8504 7.95773 39.7847 7.93584C39.7847 7.93584 39.7847 7.93584 39.7737 7.93584C39.6205 7.93584 39.4891 7.88111 39.4016 7.7607C39.4016 7.7607 39.4016 7.74975 39.4016 7.73881C39.4235 7.71691 39.4454 7.69502 39.4673 7.66219H39.3797C39.3797 7.68408 39.4016 7.70597 39.4016 7.73881C39.1389 7.99056 38.7667 7.92489 38.4602 7.97962C37.278 8.19854 36.5775 8.82247 36.3038 10.0046C36.1944 10.4644 36.1178 10.9351 36.1287 11.4057C36.1397 12.5222 35.7128 13.4526 34.9465 14.2517C34.6182 14.591 34.246 14.8975 33.9942 15.2916C33.9176 15.3573 33.8519 15.4339 33.7972 15.4996C33.7972 16.3752 33.8629 17.24 33.9942 18.1047C33.9614 18.0938 33.9286 18.0828 33.8848 18.0719C33.9286 18.1376 33.9723 18.2142 34.0161 18.2799C34.1365 18.6958 34.235 19.1227 34.3664 19.5387C35.0451 21.7279 35.866 23.8404 37.5517 25.4824C37.7049 26.6207 37.1905 27.4308 36.2929 28.0437C35.8441 28.3502 35.3734 28.602 34.9028 28.8756C34.651 28.7771 34.7714 28.5691 34.7714 28.405C34.7714 27.7263 34.6838 27.0586 34.5087 26.4018C34.1694 25.1211 33.2937 24.2783 32.1991 23.6215C32.1772 23.6215 32.1662 23.5996 32.1443 23.5887C31.9364 22.5379 31.4219 21.6184 30.9074 20.6989C30.196 19.4073 29.6815 18.0609 29.5611 16.5832C29.4297 14.9523 29.9114 13.4526 30.6776 12.0406C31.2687 10.9569 31.9035 9.89518 32.5056 8.81152C32.8996 8.11097 33.239 7.38853 33.4798 6.62231C33.841 5.46203 34.6072 4.56445 35.4282 3.71066C36.2601 3.25093 37.0263 2.68173 37.9458 2.38619C38.1975 2.29862 38.4602 2.23294 38.712 2.15632C42.1381 1.31347 45.1701 1.97024 47.6987 4.52067C48.1694 4.99135 48.5306 5.5496 48.7386 6.17352C49.3296 7.95773 50.2929 9.5449 51.2343 11.143C52.2304 12.8287 52.9966 14.5801 52.8324 16.6051L52.8214 16.6379Z" fill="#37587A"/>
<path d="M34.7059 28.9743C34.7278 28.9852 34.7497 28.9962 34.7716 29.0071C34.6074 29.237 34.6731 29.5435 34.6074 29.8062C34.5855 29.8062 34.5746 29.8062 34.5527 29.8171C34.5527 29.839 34.5746 29.8609 34.5855 29.8828C34.5308 30.1674 34.4761 30.452 34.4104 30.7366C34.3666 30.7147 34.3228 30.7147 34.2681 30.7147C33.9944 30.7147 33.6989 30.9117 33.469 30.6052C33.4362 30.4301 33.3048 30.3316 33.1516 30.2659C31.9256 29.7295 31.039 28.832 30.3385 27.7045C30.021 27.1901 29.6489 27.1025 29.0687 27.3433C28.193 27.7155 27.3064 28.011 26.3869 28.2409C26.3651 28.2409 26.3541 28.2409 26.3322 28.2518C26.2884 28.2409 26.2556 28.2299 26.2118 28.219C25.2267 28.5693 24.1977 28.624 23.1688 28.6787C21.8772 28.7553 21.0562 29.5544 20.9468 30.8351C20.8811 30.8241 20.8045 30.8022 20.7388 30.7913C20.5089 30.7475 20.2681 30.7256 20.0273 30.7585C19.5457 29.5216 19.2282 28.2518 19.3158 26.9055C19.4253 26.2925 19.6223 25.7014 19.885 25.1431C20.1367 24.8257 20.3885 24.5192 20.6403 24.2018C20.6731 24.1689 20.695 24.1252 20.7278 24.0923C22.1618 22.8773 23.8365 22.1549 25.6754 21.7827C27.8866 21.2792 29.8897 21.6842 31.6192 23.2057C31.7833 23.348 31.9475 23.4903 32.1117 23.6326C32.1117 23.6545 32.1117 23.6764 32.1117 23.6873C32.1227 23.6873 32.1446 23.6873 32.1555 23.6764C32.1555 23.6764 32.1555 23.6764 32.1665 23.6654C33.2611 24.3112 34.1367 25.1541 34.4761 26.4457C34.6512 27.1025 34.7278 27.7702 34.7388 28.4488C34.7388 28.613 34.6184 28.821 34.8701 28.9195C34.8045 28.9414 34.7497 28.9743 34.695 29.0071L34.7059 28.9743Z" fill="#37587A"/>
<path d="M20.0375 30.7474C19.9937 30.7693 19.9499 30.8021 19.9171 30.824C19.2712 31.2619 19.2712 31.9077 19.4135 32.5863C19.4135 32.6192 19.4245 32.652 19.4354 32.6958C18.505 33.1884 18.1 33.1008 17.5089 32.2361C17.3119 31.9515 17.1149 31.6669 16.9178 31.3932C16.9178 31.3713 16.9178 31.3494 16.9178 31.3385C16.9069 31.3385 16.885 31.3385 16.8741 31.3385C16.885 31.3604 16.896 31.3713 16.9178 31.3932C16.7537 31.6012 16.8084 31.842 16.8084 32.0828C16.8084 33.7904 16.7974 35.498 16.7865 37.2056C16.7208 37.2822 16.6442 37.326 16.5676 37.3588C16.4691 37.3916 16.3705 37.3916 16.2501 37.3588C15.3307 37.107 14.4003 36.8662 13.4917 36.5926C13.437 36.5707 13.3823 36.5488 13.3275 36.5269C13.2071 36.4612 13.1196 36.3627 13.0758 36.2095C13.0758 34.7865 13.0758 33.3526 13.0758 31.9296C13.0758 31.7216 13.1086 31.4917 12.9773 31.2947C12.9882 31.2728 13.0101 31.2619 13.021 31.24C12.9992 31.24 12.9882 31.24 12.9663 31.24C12.9663 31.2619 12.9663 31.2837 12.9663 31.3056C12.7474 31.6231 12.5394 31.9405 12.3205 32.247C11.6528 33.1993 11.0945 33.265 10.2298 32.4878C10.2079 32.444 10.1751 32.4112 10.1422 32.3784C9.54021 31.5574 8.93817 30.7364 8.33614 29.9264C8.24857 29.806 8.13911 29.7075 8.12817 29.5543C7.17586 28.5691 6.39869 27.5183 6.82559 26.0296C6.86937 26.0296 6.9241 26.0296 6.96788 26.0296C6.94599 26.0077 6.9241 25.9859 6.89126 25.964C7.79978 24.9022 9.00385 24.2126 10.1094 23.4026C10.0875 23.5011 10.0547 23.5887 10.0437 23.6872C9.79197 24.8694 9.97805 25.9859 10.602 27.0476C10.6239 27.0914 10.6458 27.1242 10.6786 27.168C10.996 27.4964 11.2916 27.8357 11.62 28.1532C12.2767 28.788 13.0758 29.2478 13.634 29.9702C13.6669 30.014 13.6997 30.0578 13.7325 30.1016C13.8967 30.1016 14.0609 30.1016 14.2251 30.1016C14.247 30.1016 14.258 30.1016 14.2798 30.1016C14.9038 30.2658 15.5168 30.1016 16.1297 30.0797C16.1516 30.1235 16.1735 30.1563 16.1845 30.2001C16.2064 30.1782 16.2282 30.1563 16.2611 30.1454C16.2173 30.1235 16.1735 30.1016 16.1297 30.0906C16.4362 29.5324 16.9507 29.1821 17.4323 28.799C18.0343 28.3174 18.6035 27.792 19.0961 27.1899C19.1727 27.1024 19.2384 27.0038 19.3041 26.9163C19.2275 28.2626 19.534 29.5324 20.0156 30.7693L20.0375 30.7474Z" fill="#456E98"/>
<path d="M21.5479 16.9445C21.2305 17.448 20.8474 17.8968 20.3439 18.2361C19.9827 18.4878 19.7966 18.5097 19.6324 18.0062C19.2712 16.8788 18.5597 16.0797 17.3447 15.817C16.9397 15.7294 16.5346 15.5981 16.1406 15.4558C15.7246 15.3135 15.4072 15.5105 15.035 15.5981C14.7614 15.6638 14.3454 15.2588 13.9076 15.4448C13.6668 15.5543 13.4041 15.6528 13.1195 15.62C13.0976 15.6419 13.0757 15.6638 13.0538 15.6857C13.0429 15.6966 13.021 15.7185 13.01 15.7294C11.587 15.9812 10.7223 16.8459 10.3501 18.2032C10.2407 18.5864 10.0765 18.5426 9.81377 18.4003C9.15701 18.0391 8.64255 17.5355 8.29227 16.8678C8.29227 16.8678 8.28133 16.8459 8.27038 16.835C8.21565 16.7255 8.16092 16.627 8.10619 16.5176C8.0624 16.7365 8.05146 16.9445 8.17187 17.1524C8.41268 19.0242 9.14607 20.6661 10.383 22.0782C10.4377 22.1329 10.4924 22.1767 10.5472 22.2314C11.2915 22.921 12.1234 23.5121 13.0429 23.9609C13.9295 24.3987 14.849 24.5082 15.8013 24.3002C15.856 24.3002 15.9107 24.2783 15.9655 24.2674C15.9983 24.2674 16.0421 24.2674 16.0749 24.2783C17.3118 23.8076 18.3955 23.0961 19.3697 22.2095C19.4244 22.1657 19.4682 22.1219 19.512 22.0782C19.6214 21.9359 19.7309 21.7826 19.8404 21.6403C20.9897 20.1735 21.6465 18.5097 21.734 16.638C21.6793 16.7365 21.6136 16.835 21.5589 16.9335L21.5479 16.9445ZM18.4502 19.7576C18.078 20.6442 16.7098 21.5309 15.8232 20.9069C15.7903 20.885 15.7684 20.8631 15.7356 20.8412C15.5276 20.6661 15.3853 20.4362 15.3087 20.1626C15.2649 19.9875 15.2321 19.7904 14.9803 19.8014C14.7723 19.8014 14.7395 19.9875 14.6848 20.1407C14.6519 20.2611 14.5863 20.3706 14.5315 20.48C14.1375 21.0492 13.6121 21.2572 12.9991 21.0273C12.2657 20.7646 11.5323 20.3268 11.4557 19.5715C11.39 18.9147 12.1891 18.6411 12.7145 18.3018C12.8568 18.2142 13.01 18.1595 13.1633 18.0938C13.2071 18.0719 13.2618 18.05 13.3056 18.0281C13.3493 18.0281 13.3822 18.0281 13.426 18.0391C14.0718 17.842 14.7286 17.6559 15.0131 16.824C15.2868 17.7216 16.0202 17.8639 16.7426 18.061C17.3447 18.2251 17.8482 18.5973 18.297 19.0242C18.5268 19.2431 18.5706 19.4511 18.4393 19.7466L18.4502 19.7576Z" fill="#37587A"/>
</svg>
