<svg width="32" height="32" viewBox="0 0 32 32" fill="none" xmlns="http://www.w3.org/2000/svg">
<path opacity="0.4" d="M25.2533 7.22666L18.36 3.24C17.04 2.48 14.9733 2.48 13.6533 3.24L6.69332 7.25333C3.93332 9.12 3.77332 9.4 3.77332 12.3733V19.6133C3.77332 22.5867 3.93332 22.88 6.74665 24.7733L13.64 28.76C14.3066 29.1467 15.16 29.3333 16 29.3333C16.84 29.3333 17.6933 29.1467 18.3466 28.76L25.3066 24.7467C28.0666 22.88 28.2267 22.6 28.2267 19.6267V12.3733C28.2267 9.4 28.0667 9.12 25.2533 7.22666Z" fill="#A2ABB4"/>
<path d="M16 20.3333C18.3932 20.3333 20.3333 18.3932 20.3333 16C20.3333 13.6068 18.3932 11.6667 16 11.6667C13.6067 11.6667 11.6666 13.6068 11.6666 16C11.6666 18.3932 13.6067 20.3333 16 20.3333Z" fill="#A2ABB4"/>
</svg>
