<svg width="33" height="32" viewBox="0 0 33 32" fill="none" xmlns="http://www.w3.org/2000/svg">
<path opacity="0.4" d="M16.25 29.3333C23.6138 29.3333 29.5833 23.3638 29.5833 16C29.5833 8.63616 23.6138 2.66663 16.25 2.66663C8.88616 2.66663 2.91663 8.63616 2.91663 16C2.91663 23.3638 8.88616 29.3333 16.25 29.3333Z" fill="#5384B7"/>
<path d="M21.1967 21.24C21.0234 21.24 20.85 21.2 20.69 21.0933L16.5567 18.6266C15.53 18.0133 14.77 16.6666 14.77 15.48V10.0133C14.77 9.46664 15.2234 9.01331 15.77 9.01331C16.3167 9.01331 16.77 9.46664 16.77 10.0133V15.48C16.77 15.96 17.17 16.6666 17.5834 16.9066L21.7167 19.3733C22.1967 19.6533 22.3434 20.2666 22.0634 20.7466C21.8634 21.0666 21.53 21.24 21.1967 21.24Z" fill="#5384B7"/>
</svg>
