<svg width="32" height="32" viewBox="0 0 32 32" fill="none" xmlns="http://www.w3.org/2000/svg">
<path d="M22.3333 4.74667V2.66667C22.3333 2.12001 21.88 1.66667 21.3333 1.66667C20.7866 1.66667 20.3333 2.12001 20.3333 2.66667V4.66667H11.6666V2.66667C11.6666 2.12001 11.2133 1.66667 10.6666 1.66667C10.12 1.66667 9.66665 2.12001 9.66665 2.66667V4.74667C6.06665 5.08 4.31998 7.22667 4.05331 10.4133C4.02665 10.8 4.34665 11.12 4.71998 11.12H27.28C27.6666 11.12 27.9866 10.7867 27.9466 10.4133C27.68 7.22667 25.9333 5.08 22.3333 4.74667Z" fill="#5384B7"/>
<path opacity="0.4" d="M26.6667 13.12C27.4 13.12 28 13.72 28 14.4533V22.6667C28 26.6667 26 29.3333 21.3333 29.3333H10.6667C6 29.3333 4 26.6667 4 22.6667V14.4533C4 13.72 4.6 13.12 5.33333 13.12H26.6667Z" fill="#5384B7"/>
<path d="M11.3333 20C10.9867 20 10.64 19.8533 10.3867 19.6133C10.1467 19.36 10 19.0133 10 18.6667C10 18.32 10.1467 17.9733 10.3867 17.72C10.76 17.3467 11.3467 17.2266 11.84 17.44C12.0133 17.5066 12.16 17.6 12.28 17.72C12.52 17.9733 12.6667 18.32 12.6667 18.6667C12.6667 19.0133 12.52 19.36 12.28 19.6133C12.0267 19.8533 11.68 20 11.3333 20Z" fill="#5384B7"/>
<path d="M16 20C15.6533 20 15.3066 19.8533 15.0533 19.6133C14.8133 19.36 14.6666 19.0133 14.6666 18.6667C14.6666 18.32 14.8133 17.9733 15.0533 17.72C15.1733 17.6 15.32 17.5066 15.4933 17.44C15.9866 17.2266 16.5733 17.3467 16.9466 17.72C17.1866 17.9733 17.3333 18.32 17.3333 18.6667C17.3333 19.0133 17.1866 19.36 16.9466 19.6133C16.88 19.6666 16.8133 19.72 16.7466 19.7733C16.6666 19.8266 16.5866 19.8667 16.5066 19.8933C16.4266 19.9333 16.3466 19.96 16.2666 19.9733C16.1733 19.9867 16.0933 20 16 20Z" fill="#5384B7"/>
<path d="M20.6667 20C20.32 20 19.9734 19.8533 19.72 19.6133C19.48 19.36 19.3334 19.0133 19.3334 18.6667C19.3334 18.32 19.48 17.9734 19.72 17.72C19.8534 17.6 19.9867 17.5067 20.16 17.44C20.4 17.3333 20.6667 17.3067 20.9334 17.36C21.0134 17.3733 21.0934 17.4 21.1734 17.44C21.2534 17.4667 21.3334 17.5067 21.4134 17.56C21.48 17.6134 21.5467 17.6667 21.6134 17.72C21.8534 17.9734 22 18.32 22 18.6667C22 19.0133 21.8534 19.36 21.6134 19.6133C21.5467 19.6667 21.48 19.72 21.4134 19.7733C21.3334 19.8267 21.2534 19.8667 21.1734 19.8934C21.0934 19.9334 21.0134 19.96 20.9334 19.9734C20.84 19.9867 20.7467 20 20.6667 20Z" fill="#5384B7"/>
<path d="M11.3333 24.6667C11.16 24.6667 10.9867 24.6267 10.8267 24.56C10.6533 24.4934 10.52 24.4 10.3867 24.28C10.1467 24.0267 10 23.68 10 23.3333C10 22.9867 10.1467 22.64 10.3867 22.3867C10.52 22.2667 10.6533 22.1733 10.8267 22.1067C11.0667 22 11.3333 21.9733 11.6 22.0267C11.68 22.04 11.76 22.0667 11.84 22.1067C11.92 22.1333 12 22.1734 12.08 22.2267C12.1467 22.28 12.2133 22.3334 12.28 22.3867C12.52 22.64 12.6667 22.9867 12.6667 23.3333C12.6667 23.68 12.52 24.0267 12.28 24.28C12.2133 24.3333 12.1467 24.4 12.08 24.44C12 24.4933 11.92 24.5334 11.84 24.56C11.76 24.6 11.68 24.6267 11.6 24.64C11.5067 24.6534 11.4267 24.6667 11.3333 24.6667Z" fill="#5384B7"/>
<path d="M16 24.6667C15.6533 24.6667 15.3066 24.52 15.0533 24.28C14.8133 24.0267 14.6666 23.68 14.6666 23.3333C14.6666 22.9867 14.8133 22.64 15.0533 22.3867C15.5466 21.8933 16.4533 21.8933 16.9466 22.3867C17.1866 22.64 17.3333 22.9867 17.3333 23.3333C17.3333 23.68 17.1866 24.0267 16.9466 24.28C16.6933 24.52 16.3466 24.6667 16 24.6667Z" fill="#5384B7"/>
<path d="M20.6667 24.6667C20.32 24.6667 19.9734 24.52 19.72 24.28C19.48 24.0267 19.3334 23.68 19.3334 23.3333C19.3334 22.9867 19.48 22.64 19.72 22.3867C20.2134 21.8933 21.12 21.8933 21.6134 22.3867C21.8534 22.64 22 22.9867 22 23.3333C22 23.68 21.8534 24.0267 21.6134 24.28C21.36 24.52 21.0134 24.6667 20.6667 24.6667Z" fill="#5384B7"/>
</svg>
