<svg width="32" height="32" viewBox="0 0 32 32" fill="none" xmlns="http://www.w3.org/2000/svg">
<path opacity="0.4" d="M29.3333 10.4133V21.5867C29.3333 25.3333 27.6133 27.9066 24.5866 28.88C23.7066 29.1866 22.6933 29.3333 21.5866 29.3333H10.4133C9.30662 29.3333 8.29329 29.1866 7.41329 28.88C4.38662 27.9066 2.66663 25.3333 2.66663 21.5867V10.4133C2.66663 5.56 5.55996 2.66667 10.4133 2.66667H21.5866C26.44 2.66667 29.3333 5.56 29.3333 10.4133Z" fill="#A2ABB4"/>
<path d="M24.5867 28.88C23.7067 29.1866 22.6933 29.3333 21.5867 29.3333H10.4133C9.30666 29.3333 8.29333 29.1866 7.41333 28.88C7.88 25.36 11.56 22.6266 16 22.6266C20.44 22.6266 24.12 25.36 24.5867 28.88Z" fill="#A2ABB4"/>
<path d="M20.7734 15.44C20.7734 18.08 18.64 20.2266 16 20.2266C13.36 20.2266 11.2267 18.08 11.2267 15.44C11.2267 12.8 13.36 10.6667 16 10.6667C18.64 10.6667 20.7734 12.8 20.7734 15.44Z" fill="#A2ABB4"/>
</svg>
