<svg width="24" height="24" viewBox="0 0 24 24" fill="none" xmlns="http://www.w3.org/2000/svg">
<g clip-path="url(#clip0_1482_4632)">
<path opacity="0.25" d="M20.5679 0C22.279 0 23.6704 1.3925 23.6704 3.104V20.5664C23.6704 22.2787 22.279 23.6704 20.5679 23.6704H3.104C1.39288 23.6704 0 22.2787 0 20.5664V3.104C0 1.39288 1.3925 0 3.104 0H20.5679Z" fill="#5384B7"/>
<path d="M13.75 19C13.5815 19 13.4161 18.9839 13.2538 18.9518C13.0915 18.9196 12.9328 18.8709 12.7778 18.8055V5.19444C12.9333 5.12963 13.0923 5.08115 13.2546 5.049C13.4168 5.01685 13.582 5.00052 13.75 5C14.4241 5 15.0043 5.22685 15.4907 5.68055C15.977 6.13426 16.2394 6.69167 16.2778 7.35278C17.0426 7.45648 17.6876 7.8 18.2129 8.38333C18.7381 8.96666 19.0005 9.6537 19 10.4444C19 10.7296 18.9645 11.0018 18.8934 11.2611C18.8224 11.5204 18.7153 11.7667 18.5722 12C18.7148 12.2333 18.8219 12.483 18.8934 12.749C18.965 13.015 19.0005 13.2838 19 13.5555C19 14.3593 18.7376 15.0497 18.2129 15.6268C17.6881 16.2039 17.0366 16.544 16.2583 16.6472C16.1935 17.2954 15.9247 17.8497 15.4518 18.3101C14.9789 18.7705 14.4116 19.0005 13.75 19ZM10.25 19C9.58889 19 9.01852 18.7698 8.53889 18.3093C8.05926 17.8489 7.78704 17.2951 7.72222 16.648C6.94444 16.5438 6.2963 16.2 5.77778 15.6167C5.25926 15.0333 5 14.3463 5 13.5555C5 13.2833 5.03578 13.0145 5.10733 12.749C5.17889 12.4835 5.2857 12.2338 5.42778 12C5.28519 11.7667 5.17837 11.5204 5.10733 11.2611C5.0363 11.0018 5.00052 10.7296 5 10.4444C5 9.6537 5.25926 8.97003 5.77778 8.39344C6.2963 7.81685 6.93796 7.47644 7.70278 7.37222C7.74167 6.71111 8.00741 6.15059 8.5 5.69067C8.99259 5.23074 9.57592 5.00052 10.25 5C10.4185 5 10.5839 5.01944 10.7462 5.05833C10.9085 5.09722 11.0672 5.14907 11.2222 5.21389V18.8055C11.0667 18.8704 10.908 18.9191 10.7462 18.9518C10.5844 18.9844 10.419 19.0005 10.25 19Z" fill="#5384B7"/>
</g>
<defs>
<clipPath id="clip0_1482_4632">
<rect width="24" height="24" fill="white"/>
</clipPath>
</defs>
</svg>
