<svg width="24" height="24" viewBox="0 0 24 24" fill="none" xmlns="http://www.w3.org/2000/svg">
<g clip-path="url(#clip0_1482_5447)">
<path opacity="0.25" d="M20.5679 0C22.279 0 23.6704 1.3925 23.6704 3.104V20.5664C23.6704 22.2787 22.279 23.6704 20.5679 23.6704H3.104C1.39288 23.6704 0 22.2787 0 20.5664V3.104C0 1.39288 1.3925 0 3.104 0H20.5679Z" fill="#5384B7"/>
<path fill-rule="evenodd" clip-rule="evenodd" d="M11.587 5.28662C12.14 5.33562 12.4641 5.52462 12.6608 5.74302C12.9009 6.00972 13.05 6.43112 13.05 7.02472C13.0501 7.21045 13.0009 7.39289 12.9075 7.55341C12.814 7.71393 12.6797 7.8468 12.5182 7.93846C12.3566 8.03012 12.1737 8.07729 11.9879 8.07515C11.8022 8.07302 11.6204 8.02166 11.461 7.92632L11.37 7.86472C11.2965 7.80957 11.2128 7.76944 11.1237 7.74662C11.0347 7.72381 10.942 7.71876 10.851 7.73176C10.76 7.74476 10.6725 7.77555 10.5934 7.82239C10.5143 7.86922 10.4452 7.93118 10.39 8.00472C10.3348 8.07826 10.2947 8.16195 10.2719 8.25099C10.2491 8.34004 10.244 8.43271 10.257 8.52372C10.2833 8.7075 10.3815 8.87333 10.53 8.98472C10.894 9.25772 11.3268 9.42396 11.78 9.46482C12.2331 9.50568 12.6887 9.41955 13.0957 9.21607C13.5026 9.01259 13.8449 8.6998 14.0841 8.31276C14.3233 7.92572 14.45 7.47972 14.45 7.02472C14.45 6.54522 14.3786 6.06642 14.2064 5.62962C16.991 6.55362 19 9.17932 19 12.2747C19 16.1408 15.8661 19.2747 12 19.2747C8.1339 19.2747 5 16.1408 5 12.2747C5 8.54722 7.9134 5.50082 11.587 5.28662ZM13.848 14.5371C13.7054 14.4184 13.5215 14.3611 13.3367 14.3779C13.1518 14.3947 12.9812 14.4842 12.8624 14.6267C12.6111 14.9277 12.3038 15.0747 12 15.0747C11.6962 15.0747 11.3889 14.9277 11.1376 14.6267C11.0173 14.4892 10.8479 14.4042 10.6658 14.3898C10.4836 14.3754 10.303 14.4329 10.1626 14.5499C10.0222 14.6669 9.93317 14.8341 9.91444 15.0159C9.89571 15.1977 9.94881 15.3796 10.0624 15.5227C10.5328 16.0876 11.2132 16.4747 12 16.4747C12.7868 16.4747 13.4672 16.0876 13.9376 15.5227C14.0564 15.3801 14.1136 15.1962 14.0968 15.0114C14.08 14.8266 13.9905 14.656 13.848 14.5371ZM9.55 10.8747C9.27152 10.8747 9.00445 10.9853 8.80754 11.1823C8.61062 11.3792 8.5 11.6462 8.5 11.9247C8.5 12.2032 8.61062 12.4703 8.80754 12.6672C9.00445 12.8641 9.27152 12.9747 9.55 12.9747C9.82848 12.9747 10.0955 12.8641 10.2925 12.6672C10.4894 12.4703 10.6 12.2032 10.6 11.9247C10.6 11.6462 10.4894 11.3792 10.2925 11.1823C10.0955 10.9853 9.82848 10.8747 9.55 10.8747ZM14.45 10.8747C14.1715 10.8747 13.9045 10.9853 13.7075 11.1823C13.5106 11.3792 13.4 11.6462 13.4 11.9247C13.4 12.2032 13.5106 12.4703 13.7075 12.6672C13.9045 12.8641 14.1715 12.9747 14.45 12.9747C14.7285 12.9747 14.9955 12.8641 15.1925 12.6672C15.3894 12.4703 15.5 12.2032 15.5 11.9247C15.5 11.6462 15.3894 11.3792 15.1925 11.1823C14.9955 10.9853 14.7285 10.8747 14.45 10.8747Z" fill="#5384B7"/>
</g>
<defs>
<clipPath id="clip0_1482_5447">
<rect width="24" height="24" fill="white"/>
</clipPath>
</defs>
</svg>
