<svg width="233" height="228" viewBox="0 0 233 228" fill="none" xmlns="http://www.w3.org/2000/svg">
<path d="M202.953 194.355C198.251 199.216 193.801 202.354 190.287 204.839C148.967 233.971 100.071 225.483 89.6798 223.404C74.3334 220.34 44.6771 214.419 23.2292 189.643C-9.21649 152.156 -4.16001 93.0885 21.0044 54.1023C25.6058 46.9725 49.919 7.39007 99.3461 1.03866C129.255 -2.80365 164.12 4.94722 189.368 25.7321C242.369 69.3639 238.593 157.497 202.962 194.363L202.953 194.355Z" fill="#EDF1F5"/>
<path d="M72.808 142.136C72.808 142.136 73.558 111.306 59.1049 103.05C44.6518 94.7944 17.1699 89.6354 16.1417 45.366C15.535 19.447 14.886 8.11877 14.4478 3.17511C14.2793 1.24567 16.0238 -0.311128 17.9536 0.0532292C31.6398 2.58717 76.1031 13.0127 85.4323 42.8403C96.4807 78.1913 72.808 142.144 72.808 142.144V142.136Z" fill="#B2D8A7"/>
<path opacity="0.3" d="M28.5469 12.3668C43.5731 25.5334 60.9421 48.8357 70.2039 72.138C71.3922 75.9803 74.8727 84.1452 76.3812 98.6532C77.7296 110.752 77.0554 123.545 75.4205 132.008C75.3194 132.547 74.7884 132.895 74.2491 132.795C73.3136 132.621 73.44 131.628 73.4485 131.661C75.3194 117.194 74.544 99.1998 70.2629 82.9527C64.7935 63.0125 52.5989 43.6684 39.9914 27.2723L38.6936 25.6576C28.9262 13.3274 26.8614 13.2363 27.78 12.3751C27.9992 12.1681 28.3363 12.1681 28.5554 12.3586L28.5469 12.3668Z" fill="white"/>
<path d="M96.0341 201.41C97.9893 202.354 77.519 177.065 71.1141 137.341C68.0971 118.627 68.0549 95.1753 57.2003 86.1409C48.1661 78.6219 17.4396 83.3668 7.38562 85.172C6.12993 85.3956 5.70856 86.9607 6.68614 87.7639C11.5066 91.747 21.8219 101.129 24.5102 110.586C28.0498 123.057 40.1179 130.982 50.9135 133.126C61.709 135.271 67.7178 137.358 72.985 154.325C78.2437 171.293 90.4804 198.727 96.0341 201.402V201.41Z" fill="#3E8D7A"/>
<path opacity="0.3" d="M21.5269 90.4469C34.3535 90.9769 48.124 96.7238 55.1103 107.514L55.7677 108.541C57.293 110.95 65.9228 128.108 70.718 142.335C70.777 142.509 70.6758 142.707 70.4989 142.765C70.1955 142.865 70.0354 142.533 70.0691 142.567C66.7318 134.534 61.9281 124.349 58.1105 116.73C54.0148 108.416 51.141 102.794 41.7949 97.3945C31.387 91.5897 21.451 90.9934 21.4848 90.9934C21.3331 90.9769 21.2235 90.8444 21.2404 90.6953C21.2572 90.5546 21.3836 90.4469 21.5269 90.4552V90.4469Z" fill="white"/>
<path d="M59.8802 41.3415C59.8802 33.5244 66.3273 27.1813 74.2912 27.1813H196.818C203.577 27.1813 209.156 32.3899 209.493 39.0229L218.536 213.575C218.805 218.767 214.642 223.147 209.358 223.239L68.9229 225.748C63.9507 225.839 59.8802 221.905 59.8802 217.02V41.3415Z" fill="#1A2D3C"/>
<path d="M89.4522 222.775L73.735 222.576C68.4847 222.51 64.2036 218.253 64.2036 213.095V189.784C64.2036 189.602 64.3552 189.453 64.5407 189.453C64.7261 189.453 64.8777 189.602 64.8777 189.784V213.095C64.8777 217.897 68.8555 221.856 73.7434 221.922L89.4607 222.121C89.6461 222.121 89.7978 222.27 89.7893 222.452C89.7893 222.634 89.6376 222.775 89.4522 222.775Z" fill="#A4BBCC"/>
<path d="M64.5407 182.886C64.3552 182.886 64.2036 182.737 64.2036 182.555V178.779C64.2036 178.597 64.3552 178.447 64.5407 178.447C64.7261 178.447 64.8777 178.597 64.8777 178.779V182.555C64.8777 182.737 64.7261 182.886 64.5407 182.886Z" fill="#A4BBCC"/>
<path d="M69.9174 29.8726C69.9005 27.3717 72.1422 25.434 74.662 25.7735C91.3906 28.0011 148.933 34.899 196.506 31.3134C198.672 31.1478 200.56 32.7626 200.678 34.899L210.159 210.229C210.285 212.631 208.423 214.693 205.979 214.833C185.972 215.993 103.577 220.498 74.1817 217.467C72.3951 217.285 71.0382 215.802 71.0214 214.038L69.9174 29.8808V29.8726Z" fill="#A4BBCC"/>
<path d="M71.8894 34.2614C71.8726 31.8517 74.03 29.9885 76.4571 30.3114C92.562 32.4562 147.93 39.0891 193.708 35.636C195.798 35.4787 197.61 37.0355 197.72 39.0891L206.847 207.82C206.973 210.13 205.178 212.109 202.818 212.25C183.562 213.368 104.268 217.699 75.9852 214.784C74.266 214.61 72.9597 213.186 72.9428 211.48L71.881 34.2531L71.8894 34.2614Z" fill="#EDF1F5"/>
<g opacity="0.6">
<path d="M188.669 50.4173C188.879 50.4173 189.048 50.2517 189.04 50.0447L188.989 48.3637C188.989 48.1567 188.804 47.9828 188.593 47.9828L142.292 47.1712C142.082 47.1712 141.964 47.3203 142.04 47.519L142.95 50.0613C143.017 50.2517 143.245 50.4173 143.455 50.4173H188.669Z" fill="#334A5B"/>
</g>
<g opacity="0.6">
<path d="M142.301 53.9201C142.09 53.9201 141.972 54.0692 142.048 54.2679L142.958 56.8101C143.026 57.0006 143.253 57.1662 143.464 57.1662H188.669C188.879 57.1662 189.048 57.0006 189.04 56.7936L188.989 55.1125C188.989 54.9055 188.804 54.7316 188.593 54.7316L142.292 53.9201H142.301Z" fill="#334A5B"/>
</g>
<g opacity="0.6">
<path d="M142.301 60.7601C142.09 60.7601 141.972 60.9092 142.048 61.1079L142.958 63.6501C143.026 63.8406 143.253 64.0062 143.464 64.0062H188.669C188.879 64.0062 189.048 63.8406 189.04 63.6336L188.989 61.9525C188.989 61.7455 188.804 61.5716 188.593 61.5716L142.292 60.7601H142.301Z" fill="#334A5B"/>
</g>
<g opacity="0.6">
<path d="M192.958 96.9971C193.169 96.9971 193.329 96.8314 193.312 96.6244L193.203 94.9434C193.186 94.7364 193.009 94.5708 192.798 94.5625L87.16 93.7427C86.9493 93.7427 86.8818 93.8752 87.0167 94.0325L89.1741 96.6989C89.309 96.8563 89.5871 96.9888 89.7977 96.9888H192.958V96.9971Z" fill="#334A5B"/>
</g>
<g opacity="0.6">
<path d="M87.16 104.392C86.9493 104.392 86.8818 104.524 87.0167 104.682L89.1741 107.348C89.309 107.505 89.5871 107.638 89.7977 107.638H192.958C193.169 107.638 193.329 107.472 193.312 107.265L193.203 105.584C193.186 105.377 193.009 105.212 192.798 105.203L87.16 104.384V104.392Z" fill="#334A5B"/>
</g>
<g opacity="0.6">
<path d="M87.6066 117.749C87.3959 117.749 87.3285 117.881 87.4633 118.039L89.6208 120.705C89.7556 120.862 90.0337 120.995 90.2444 120.995H193.405C193.616 120.995 193.776 120.829 193.759 120.622L193.649 118.941C193.633 118.734 193.456 118.569 193.245 118.56L87.6066 117.741V117.749Z" fill="#334A5B"/>
</g>
<path d="M101.107 146.492H101.082L92.3429 146.409C91.0956 146.401 90.0674 145.556 89.9495 144.446L89.1826 137.242C89.1404 136.82 89.2753 136.397 89.5618 136.066C89.882 135.693 90.3708 135.453 90.9018 135.42C91.6349 135.371 92.6715 135.288 93.7755 135.188C96.0846 134.998 98.9668 134.758 100.585 134.733C101.756 134.733 102.751 135.412 103.029 136.414C103.484 138.07 103.442 141.2 103.358 144.529C103.332 145.614 102.329 146.483 101.116 146.483H101.107V146.492ZM90.9439 136.074C90.5984 136.099 90.2781 136.248 90.0759 136.488C89.9073 136.687 89.8315 136.927 89.8568 137.176L90.6236 144.38C90.7079 145.15 91.4495 145.746 92.3597 145.755L101.099 145.838H101.116C101.959 145.838 102.666 145.25 102.683 144.521C102.768 141.233 102.81 138.161 102.38 136.588C102.186 135.884 101.445 135.395 100.593 135.395C99.0006 135.412 96.1352 135.652 93.8345 135.851C92.7305 135.942 91.6939 136.033 90.9523 136.083L90.9439 136.074Z" fill="#334A5B"/>
<path opacity="0.6" d="M91.8793 136.82C93.7165 136.695 97.7027 136.298 99.5989 136.273C100.399 136.265 101.107 136.737 101.293 137.424C101.655 138.749 101.613 141.399 101.546 143.834C101.529 144.562 100.846 145.15 100.012 145.142L93.0255 145.076C92.1659 145.076 91.458 144.496 91.3737 143.742L90.7585 137.987C90.6911 137.391 91.1967 136.861 91.8793 136.82Z" fill="#334A5B"/>
<g opacity="0.6">
<path d="M108.785 141.705C109.038 142.649 109.906 143.304 110.9 143.295L191.745 142.616C192.663 142.616 193.388 141.871 193.371 140.968C193.354 140.099 192.63 139.395 191.736 139.395L110.892 139.031C109.467 139.031 108.422 140.347 108.785 141.705Z" fill="#334A5B"/>
</g>
<path d="M101.107 164.892H101.082L92.3429 164.809C91.0956 164.801 90.0674 163.956 89.9495 162.846L89.1826 155.642C89.1404 155.22 89.2753 154.797 89.5618 154.466C89.882 154.093 90.3708 153.853 90.9018 153.82C91.6349 153.771 92.6715 153.688 93.7755 153.588C96.0846 153.398 98.9668 153.158 100.585 153.133H100.619C101.765 153.133 102.759 153.82 103.029 154.814C103.484 156.47 103.442 159.6 103.358 162.929C103.332 164.014 102.329 164.883 101.116 164.883H101.107V164.892ZM90.9439 154.474C90.5984 154.499 90.2781 154.648 90.0759 154.888C89.9073 155.087 89.8315 155.327 89.8568 155.576L90.6236 162.78C90.7079 163.55 91.4495 164.146 92.3597 164.155L101.099 164.238H101.116C101.959 164.238 102.666 163.65 102.683 162.921C102.768 159.633 102.81 156.561 102.38 154.988C102.186 154.284 101.428 153.779 100.593 153.795C99.0006 153.812 96.1352 154.052 93.8345 154.251C92.7305 154.342 91.6939 154.433 90.9523 154.483L90.9439 154.474Z" fill="#334A5B"/>
<path opacity="0.6" d="M91.8793 155.22C93.7165 155.095 97.7027 154.698 99.5989 154.673C100.399 154.665 101.107 155.137 101.293 155.824C101.655 157.149 101.613 159.799 101.546 162.234C101.529 162.962 100.846 163.55 100.012 163.542L93.0255 163.476C92.1659 163.476 91.458 162.896 91.3737 162.142L90.7585 156.387C90.6911 155.791 91.1967 155.261 91.8793 155.22Z" fill="#334A5B"/>
<g opacity="0.6">
<path d="M108.785 160.105C109.038 161.049 109.906 161.704 110.9 161.695L191.745 161.016C192.663 161.016 193.388 160.271 193.371 159.368C193.354 158.499 192.63 157.795 191.736 157.795L110.892 157.431C109.467 157.431 108.422 158.747 108.785 160.105Z" fill="#334A5B"/>
</g>
<path d="M101.107 183.292H101.082L92.3429 183.209C91.0956 183.201 90.0674 182.356 89.9495 181.246L89.1826 174.042C89.1404 173.62 89.2753 173.197 89.5618 172.866C89.882 172.494 90.3708 172.253 90.9018 172.22C91.6349 172.171 92.6715 172.088 93.7755 171.988C96.0846 171.798 98.9668 171.558 100.585 171.533H100.619C101.765 171.533 102.759 172.22 103.029 173.214C103.484 174.87 103.442 178 103.358 181.329C103.332 182.414 102.329 183.283 101.116 183.283H101.107V183.292ZM90.9439 172.874C90.5984 172.899 90.2781 173.048 90.0759 173.288C89.9073 173.487 89.8315 173.727 89.8568 173.976L90.6236 181.18C90.7079 181.95 91.4495 182.546 92.3597 182.555L101.099 182.638H101.116C101.959 182.638 102.666 182.05 102.683 181.321C102.768 178.033 102.81 174.961 102.38 173.388C102.186 172.684 101.428 172.179 100.593 172.195C99.0006 172.212 96.1352 172.452 93.8345 172.651C92.7305 172.742 91.6939 172.833 90.9523 172.883L90.9439 172.874Z" fill="#334A5B"/>
<path opacity="0.6" d="M91.8793 173.62C93.7165 173.496 97.7027 173.098 99.5989 173.073C100.399 173.065 101.107 173.537 101.293 174.224C101.655 175.549 101.613 178.199 101.546 180.634C101.529 181.362 100.846 181.95 100.012 181.942L93.0255 181.876C92.1659 181.876 91.458 181.296 91.3737 180.543L90.7585 174.787C90.6911 174.191 91.1967 173.661 91.8793 173.62Z" fill="#334A5B"/>
<g opacity="0.6">
<path d="M108.785 178.505C109.038 179.449 109.906 180.104 110.9 180.095L191.745 179.416C192.663 179.416 193.388 178.671 193.371 177.768C193.354 176.899 192.63 176.195 191.736 176.195L110.892 175.831C109.467 175.831 108.422 177.147 108.785 178.505Z" fill="#334A5B"/>
</g>
<path d="M101.107 201.692H101.082L92.3429 201.609C91.0956 201.601 90.0674 200.756 89.9495 199.646L89.1826 192.442C89.1404 192.02 89.2753 191.597 89.5618 191.266C89.882 190.894 90.3708 190.653 90.9018 190.62C91.6349 190.571 92.6715 190.488 93.7755 190.388C96.0846 190.198 98.9668 189.958 100.585 189.933H100.619C101.765 189.933 102.759 190.62 103.029 191.614C103.484 193.27 103.442 196.4 103.358 199.729C103.332 200.814 102.329 201.683 101.116 201.683H101.107V201.692ZM90.9439 191.274C90.5984 191.299 90.2781 191.448 90.0759 191.689C89.9073 191.887 89.8315 192.127 89.8568 192.376L90.6236 199.58C90.7079 200.35 91.4495 200.946 92.3597 200.955L101.099 201.038H101.116C101.959 201.038 102.666 200.45 102.683 199.721C102.768 196.433 102.81 193.361 102.38 191.788C102.186 191.084 101.428 190.579 100.593 190.595C99.0006 190.612 96.1352 190.852 93.8345 191.051C92.7305 191.142 91.6939 191.233 90.9523 191.283L90.9439 191.274Z" fill="#334A5B"/>
<path opacity="0.6" d="M91.8793 192.02C93.7165 191.896 97.7027 191.498 99.5989 191.473C100.399 191.465 101.107 191.937 101.293 192.624C101.655 193.949 101.613 196.599 101.546 199.034C101.529 199.762 100.846 200.35 100.012 200.342L93.0255 200.276C92.1659 200.276 91.458 199.696 91.3737 198.943L90.7585 193.187C90.6911 192.591 91.1967 192.061 91.8793 192.02Z" fill="#334A5B"/>
<g opacity="0.6">
<path d="M108.785 196.905C109.038 197.849 109.906 198.504 110.9 198.495L191.745 197.816C192.663 197.816 193.388 197.071 193.371 196.168C193.354 195.299 192.63 194.595 191.736 194.595L110.892 194.231C109.467 194.231 108.422 195.547 108.785 196.905Z" fill="#334A5B"/>
</g>
<path d="M143.152 3.38213C138.728 0.359624 134.876 0.41759 132.171 1.20427C129.702 1.9247 128.101 4.26819 128.337 6.78556L129.508 19.3145L143.413 20.5235C143.413 20.5235 151.841 9.31122 143.16 3.38213H143.152ZM137.034 13.493C135.121 13.493 133.57 11.9694 133.57 10.0896C133.57 8.20986 135.121 6.68619 137.034 6.68619C138.947 6.68619 140.497 8.20986 140.497 10.0896C140.497 11.9694 138.947 13.493 137.034 13.493Z" fill="#334A5B"/>
<path d="M130.882 14.0479C130.713 14.0479 130.561 13.9154 130.545 13.7497L130.359 11.7541C130.342 11.5719 130.477 11.4145 130.663 11.398C130.848 11.3814 131.008 11.5139 131.025 11.6961L131.21 13.6918C131.227 13.874 131.092 14.0313 130.907 14.0479H130.873H130.882ZM130.519 10.131C130.351 10.131 130.199 9.99852 130.182 9.8329L130.039 8.31751C129.811 5.91607 131.354 3.68024 133.696 3.00121C135.357 2.52092 137.067 2.45467 138.778 2.79419C138.964 2.82731 139.073 3.00121 139.039 3.18338C139.006 3.35728 138.829 3.47321 138.643 3.44009C137.042 3.11714 135.441 3.18338 133.89 3.63055C131.851 4.21849 130.519 6.16449 130.713 8.25954L130.856 9.77494C130.873 9.95712 130.738 10.1145 130.553 10.131H130.519Z" fill="#A4BBCC"/>
<path d="M110.521 27.4131V21.1114C110.521 18.9335 112.358 17.1946 114.566 17.2691L158.768 18.7596C160.732 18.8259 162.316 20.3496 162.434 22.2707L162.805 28.324L110.521 27.4131Z" fill="#1A2D3C"/>
<path d="M127.005 19.6457H125.1C124.915 19.6457 124.763 19.4967 124.763 19.3145C124.763 19.1323 124.915 18.9832 125.1 18.9832H127.005C127.19 18.9832 127.342 19.1323 127.342 19.3145C127.342 19.4967 127.19 19.6457 127.005 19.6457Z" fill="#A4BBCC"/>
<path d="M112.914 25.434C112.729 25.434 112.577 25.285 112.577 25.1028V22.5523C112.577 20.5814 114.204 18.9832 116.209 18.9832H123.196C123.381 18.9832 123.533 19.1323 123.533 19.3145C123.533 19.4967 123.381 19.6457 123.196 19.6457H116.209C114.574 19.6457 113.243 20.9541 113.243 22.5606V25.1111C113.243 25.2932 113.091 25.4423 112.906 25.4423L112.914 25.434Z" fill="#A4BBCC"/>
<path d="M92.5114 29.0031C92.621 26.8252 94.4497 25.1028 96.6746 25.1028H173.971C176.752 25.1028 179.129 27.0653 179.601 29.7566L179.668 30.1293C180.191 33.0772 177.882 35.7768 174.831 35.7768H95.5284C93.7081 35.7768 92.2586 34.278 92.3429 32.4893L92.5114 29.0031Z" fill="#A4BBCC"/>
<path d="M110.673 85.6937C121.75 85.6937 130.73 76.87 130.73 65.9853C130.73 55.1007 121.75 46.2769 110.673 46.2769C99.5952 46.2769 90.6152 55.1007 90.6152 65.9853C90.6152 76.87 99.5952 85.6937 110.673 85.6937Z" fill="#E83D1F"/>
<path d="M122.159 60.5365H115.493V54.8973C115.493 53.5723 114.398 52.4958 113.049 52.4958H108.17C106.821 52.4958 105.726 53.5723 105.726 54.8973V60.5365H99.0596C97.7112 60.5365 96.6156 61.613 96.6156 62.938V68.511C96.6156 69.8359 97.7112 70.9124 99.0596 70.9124H105.726V76.5517C105.726 77.8766 106.821 78.9531 108.17 78.9531H113.049C114.398 78.9531 115.493 77.8766 115.493 76.5517V70.9124H122.159C123.508 70.9124 124.603 69.8359 124.603 68.511V62.938C124.603 61.613 123.508 60.5365 122.159 60.5365Z" fill="white"/>
<path d="M42.4607 88.0786C42.4607 88.0786 39.2752 89.6023 38.6937 91.3495C38.2217 92.749 34.6991 92.9312 34.3535 95.6887C34.1765 97.113 33.0978 98.2557 31.6567 98.471C28.0582 99.0093 22.5214 100.848 21.6281 106.984C20.9539 111.662 23.381 113.443 25.9345 114.056C27.8054 114.511 29.0527 116.3 28.6734 118.155C28.311 119.935 28.8504 121.997 31.9938 123.628C39.0308 127.28 46.0677 114.983 46.0677 114.983L47.5088 93.5108L42.4692 88.0786H42.4607Z" fill="#1A2D3C"/>
<g filter="url(#filter0_d_4_599)">
<path d="M80.772 82.9859C80.772 82.9859 66.715 104.831 50.0033 109.054C50.0033 109.054 53.2563 118.171 55.7761 119.215C55.7761 119.215 76.3391 102.355 81.6231 86.0912L80.772 82.9859Z" fill="url(#paint0_linear_4_599)"/>
</g>
<path d="M13.5208 222.717L13.0657 226.394C12.9815 227.089 12.4168 227.644 11.7089 227.727C10.5122 227.859 8.58233 228 6.69458 227.801C5.86869 227.718 5.32933 226.89 5.58216 226.112C6.04567 224.688 6.87998 222.559 8.09354 221.301H12.2483C13.0152 221.301 13.6135 221.963 13.5208 222.709V222.717Z" fill="#1A2D3C"/>
<path d="M46.0677 179.607L46.7671 183.656C46.7671 183.656 44.4159 207.025 44.0029 216.374C43.9355 217.839 44.3232 219.289 45.1069 220.539L49.1943 227.056L38.82 221.036L38.6094 219.794L40.3117 217.5L38.0869 191.316C37.952 189.776 38.2807 188.235 39.0139 186.869L41.1629 182.911L46.0761 179.598L46.0677 179.607Z" fill="url(#paint1_linear_4_599)"/>
<path d="M49.8685 228H46.5565C45.9328 228 45.3513 227.718 44.9721 227.238C43.9439 225.922 41.8034 223.346 40.7752 223.28C39.4015 223.189 39.5785 228 39.5785 228H38.8032L37.8256 222.021C37.5812 220.514 38.3397 219.032 39.7134 218.32C39.7134 218.32 40.0252 220.605 41.736 221.615C43.4383 222.626 48.6802 226.253 48.6802 226.253C48.6802 226.253 49.3207 226.162 50.0286 226.286C51.0736 226.468 50.9303 227.992 49.8685 227.992V228Z" fill="#1A2D3C"/>
<path d="M31.8506 181.536C31.8506 181.536 18.097 207.174 15.9058 213.028C13.7231 218.883 12.9562 223.769 12.9225 224.232C12.8804 224.953 11.9618 225.648 9.44195 225.648C6.92214 225.648 7.50363 225.135 7.19182 224.638C6.92214 224.216 6.91371 223.686 7.13282 223.239C7.925 221.657 10.4532 216.597 11.3887 214.303C12.5011 211.563 14.9114 199.158 16.2261 194.844C17.5407 190.529 19.0324 185.851 24.7715 181.536C24.7715 181.536 28.7071 177.744 31.8506 181.536Z" fill="url(#paint2_linear_4_599)"/>
<path d="M40.5393 139.519C44.0873 124.746 35.0952 116.391 35.0952 116.391C40.7668 111.041 51.0989 108.607 51.0989 108.607C51.0989 108.607 60.959 115.695 59.7876 121.235C59.105 124.481 52.8518 140.703 52.8518 140.703C52.8518 140.703 47.079 143.386 40.5224 139.527H40.5393V139.519Z" fill="#EE814A"/>
<path d="M32.6764 146.831C34.1175 142.558 40.5477 139.519 40.5477 139.519C47.0958 143.386 52.8771 140.695 52.8771 140.695C52.8771 140.695 54.1749 145.556 53.2816 150.077C52.3883 154.599 46.7756 183.656 46.7756 183.656C37.9352 185.412 24.3417 181.884 24.3417 181.884C29.9712 172.063 31.2353 151.104 32.6764 146.831Z" fill="#334A5B"/>
<path d="M44.6603 98.8354L41.7781 111.571C41.5 112.689 42.545 112.507 43.6996 112.292C45.5873 111.944 48.0228 111.224 48.8403 109.774C48.9246 109.625 48.9667 109.46 48.992 109.294L50.2308 100.467C50.332 99.7628 49.9443 99.0838 49.287 98.8023L46.8936 97.7589C45.975 97.3614 44.9047 97.8748 44.6687 98.8354H44.6603Z" fill="url(#paint3_linear_4_599)"/>
<path d="M35.1035 116.391C35.1035 116.391 14.9703 130.543 32.5247 145.423C32.5247 145.423 33.1905 146.169 34.5136 146.558C35.1794 146.757 37.143 148.214 38.1459 148.976C38.4661 149.224 38.9296 149.142 39.1487 148.802C39.3173 148.537 39.3341 148.206 39.1993 147.924L36.7048 142.74C36.0137 142.103 34.9518 142.061 34.2102 142.633C33.7383 142.997 33.0388 142.848 32.7691 142.31C31.4123 139.594 28.8504 131.603 39.3426 122.577C39.7386 122.237 39.8398 121.674 39.5954 121.219C38.8622 119.827 37.1683 117.062 35.1035 116.391Z" fill="url(#paint4_linear_4_599)"/>
<path d="M50.1887 87.2339C50.1887 87.2339 53.2563 89.2793 54.5795 94.4797C55.9026 99.68 53.7536 101.552 51.554 101.436C49.3544 101.32 46.1688 100.657 43.4046 96.9225C40.6404 93.1879 46.1604 84.7414 50.1887 87.2339Z" fill="url(#paint5_linear_4_599)"/>
<path d="M46.1941 94.8192C46.1941 94.8192 45.0648 87.3664 51.3686 88.5009L52.6411 89.801C52.6411 89.801 55.7256 86.3893 52.3125 83.814C48.8993 81.2386 44.1631 81.8928 41.5422 86.588C38.9212 91.2833 37.9689 94.5791 40.1685 97.5022C42.3681 100.417 44.0198 97.9162 44.0198 97.9162C44.0198 97.9162 43.017 95.3906 43.8513 94.3058C44.6856 93.221 45.7643 94.9351 45.7643 94.9351L46.1941 94.8109V94.8192Z" fill="#1A2D3C"/>
<path d="M45.3261 95.4568C45.3261 95.4568 44.7699 91.6228 42.781 92.7159C40.7837 93.8089 43.4973 96.3015 44.5845 97.1461L45.3261 95.4568Z" fill="url(#paint6_linear_4_599)"/>
<g filter="url(#filter1_d_4_599)">
<path d="M80.6708 87.4824C80.713 87.9295 79.0106 88.2442 78.4628 86.323C78.6145 85.4867 78.8758 81.8348 79.5247 81.2717C82.9884 78.2492 89.1741 74.8458 89.1741 74.8458C89.8652 75.8809 88.955 76.5682 88.955 76.5682L85.8706 78.6136C86.1908 79.657 86.6628 80.5844 86.7133 81.7851C86.7555 82.6877 86.4099 83.5738 85.8032 84.2611C85.188 84.9484 84.3621 85.8427 83.6204 86.5135C82.2131 87.7887 80.6708 87.4741 80.6708 87.4741V87.4824Z" fill="url(#paint7_linear_4_599)"/>
<path d="M82.2384 85.9504L81.9771 85.8428C82.0361 85.6937 83.5109 82.1743 84.2104 81.4539C84.5053 81.1475 84.6486 80.8825 84.6318 80.6589C84.6318 80.5016 84.5391 80.3608 84.3789 80.2118L81.7833 81.5781L80.6624 83.3005L80.4265 83.1515L81.581 81.3711L81.6147 81.3545L84.4126 79.8888L84.4885 79.9468C84.7582 80.1621 84.893 80.394 84.9099 80.6424C84.9267 80.9488 84.7666 81.28 84.4126 81.6444C83.7469 82.3234 82.2468 85.909 82.2299 85.9421H82.2384V85.9504Z" fill="#EE814A"/>
</g>
<path d="M216.454 126.667H174.409V137.54H216.454V126.667Z" fill="#A4BBCC"/>
<path d="M229.449 132.779H161.414C159.729 132.779 158.364 134.121 158.364 135.776V221.45C158.364 223.105 159.729 224.448 161.414 224.448H229.449C231.134 224.448 232.5 223.105 232.5 221.45V135.776C232.5 134.121 231.134 132.779 229.449 132.779Z" fill="#A4BBCC"/>
<path opacity="0.3" d="M222.1 151.841H168.755C168.196 151.841 167.743 152.286 167.743 152.835V209.145C167.743 209.693 168.196 210.138 168.755 210.138H222.1C222.659 210.138 223.112 209.693 223.112 209.145V152.835C223.112 152.286 222.659 151.841 222.1 151.841Z" fill="white"/>
<path d="M222.876 130.162H167.988C167.693 130.162 167.457 129.93 167.457 129.64V114.064C167.457 113.517 167.912 113.07 168.468 113.07H222.404C222.96 113.07 223.415 113.517 223.415 114.064V129.64C223.415 129.93 223.179 130.162 222.884 130.162H222.876Z" fill="#5C85A3"/>
<path opacity="0.6" d="M219.168 115.505H217.162V127.909H219.168V115.505Z" fill="#A4BBCC"/>
<path opacity="0.6" d="M215.03 115.505H213.024V127.909H215.03V115.505Z" fill="#A4BBCC"/>
<path opacity="0.6" d="M210.9 115.505H208.895V127.909H210.9V115.505Z" fill="#A4BBCC"/>
<path opacity="0.6" d="M206.763 115.505H204.757V127.909H206.763V115.505Z" fill="#A4BBCC"/>
<path opacity="0.6" d="M202.633 115.505H200.627V127.909H202.633V115.505Z" fill="#A4BBCC"/>
<path opacity="0.6" d="M198.495 115.505H196.489V127.909H198.495V115.505Z" fill="#A4BBCC"/>
<path opacity="0.6" d="M194.366 115.505H192.36V127.909H194.366V115.505Z" fill="#A4BBCC"/>
<path opacity="0.6" d="M190.228 115.505H188.222V127.909H190.228V115.505Z" fill="#A4BBCC"/>
<path opacity="0.6" d="M186.098 115.505H184.093V127.909H186.098V115.505Z" fill="#A4BBCC"/>
<path opacity="0.6" d="M181.96 115.505H179.955V127.909H181.96V115.505Z" fill="#A4BBCC"/>
<path opacity="0.6" d="M177.831 115.505H175.825V127.909H177.831V115.505Z" fill="#A4BBCC"/>
<path opacity="0.6" d="M173.693 115.505H171.687V127.909H173.693V115.505Z" fill="#A4BBCC"/>
<path d="M143.017 226.509C151.175 228.298 166.167 228.133 174.772 226.104C177.595 225.441 179.584 222.949 179.584 220.1V134.046H137.885V220.208C137.885 223.23 140.009 225.855 143.009 226.509H143.017Z" fill="#F3A57E"/>
<path d="M180.578 143.055H136.89C136.595 143.055 136.359 142.823 136.359 142.533V129.632C136.359 129.085 136.815 128.638 137.371 128.638H180.106C180.663 128.638 181.118 129.085 181.118 129.632V142.533C181.118 142.823 180.882 143.055 180.587 143.055H180.578Z" fill="#EE814A"/>
<path opacity="0.6" d="M177.722 130.7H176.112V141.167H177.722V130.7Z" fill="white"/>
<path opacity="0.6" d="M174.409 130.7H172.8V141.167H174.409V130.7Z" fill="white"/>
<path opacity="0.6" d="M171.106 130.7H169.496V141.167H171.106V130.7Z" fill="white"/>
<path opacity="0.6" d="M167.802 130.7H166.193V141.167H167.802V130.7Z" fill="white"/>
<path opacity="0.6" d="M164.49 130.7H162.881V141.167H164.49V130.7Z" fill="white"/>
<path opacity="0.6" d="M161.195 130.7H159.586V141.167H161.195V130.7Z" fill="white"/>
<path opacity="0.6" d="M157.883 130.7H156.274V141.167H157.883V130.7Z" fill="white"/>
<path opacity="0.6" d="M154.571 130.7H152.962V141.167H154.571V130.7Z" fill="white"/>
<path opacity="0.6" d="M151.268 130.7H149.658V141.167H151.268V130.7Z" fill="white"/>
<path opacity="0.6" d="M147.964 130.7H146.354V141.167H147.964V130.7Z" fill="white"/>
<path opacity="0.6" d="M144.661 130.7H143.051V141.167H144.661V130.7Z" fill="white"/>
<path opacity="0.6" d="M141.349 130.7H139.739V141.167H141.349V130.7Z" fill="white"/>
<path opacity="0.4" d="M171.005 156.752H147.265C145.826 156.752 144.661 157.897 144.661 159.31V204.027C144.661 205.44 145.826 206.586 147.265 206.586H171.005C172.443 206.586 173.609 205.44 173.609 204.027V159.31C173.609 157.897 172.443 156.752 171.005 156.752Z" fill="white"/>
<path d="M107.993 192.699L132.062 195.44C127.072 204.59 124.915 214.726 125.092 225.069L104.453 222.717C96.051 221.765 89.9748 214.221 90.9439 205.973C91.9131 197.717 99.5905 191.746 107.984 192.699H107.993Z" fill="white"/>
<path d="M132.062 195.431L152.153 197.717C160.555 198.669 166.631 206.213 165.662 214.461C164.693 222.717 157.015 228.687 148.621 227.735L125.1 225.06C124.915 214.726 127.072 204.582 132.07 195.431H132.062Z" fill="#5C85A3"/>
<defs>
<filter id="filter0_d_4_599" x="44.4033" y="81.3859" width="42.8198" height="47.4287" filterUnits="userSpaceOnUse" color-interpolation-filters="sRGB">
<feFlood flood-opacity="0" result="BackgroundImageFix"/>
<feColorMatrix in="SourceAlpha" type="matrix" values="0 0 0 0 0 0 0 0 0 0 0 0 0 0 0 0 0 0 127 0" result="hardAlpha"/>
<feOffset dy="4"/>
<feGaussianBlur stdDeviation="2.8"/>
<feComposite in2="hardAlpha" operator="out"/>
<feColorMatrix type="matrix" values="0 0 0 0 0 0 0 0 0 0 0 0 0 0 0 0 0 0 0.08 0"/>
<feBlend mode="normal" in2="BackgroundImageFix" result="effect1_dropShadow_4_599"/>
<feBlend mode="normal" in="SourceGraphic" in2="effect1_dropShadow_4_599" result="shape"/>
</filter>
<filter id="filter1_d_4_599" x="72.8628" y="73.2458" width="22.1704" height="24.175" filterUnits="userSpaceOnUse" color-interpolation-filters="sRGB">
<feFlood flood-opacity="0" result="BackgroundImageFix"/>
<feColorMatrix in="SourceAlpha" type="matrix" values="0 0 0 0 0 0 0 0 0 0 0 0 0 0 0 0 0 0 127 0" result="hardAlpha"/>
<feOffset dy="4"/>
<feGaussianBlur stdDeviation="2.8"/>
<feComposite in2="hardAlpha" operator="out"/>
<feColorMatrix type="matrix" values="0 0 0 0 0 0 0 0 0 0 0 0 0 0 0 0 0 0 0.08 0"/>
<feBlend mode="normal" in2="BackgroundImageFix" result="effect1_dropShadow_4_599"/>
<feBlend mode="normal" in="SourceGraphic" in2="effect1_dropShadow_4_599" result="shape"/>
</filter>
<linearGradient id="paint0_linear_4_599" x1="82" y1="84.5" x2="50.5091" y2="115.025" gradientUnits="userSpaceOnUse">
<stop stop-color="#FEBBBA"/>
<stop offset="1" stop-color="#FFBD8E"/>
</linearGradient>
<linearGradient id="paint1_linear_4_599" x1="47.3823" y1="255.641" x2="36.2485" y2="123.239" gradientUnits="userSpaceOnUse">
<stop stop-color="#FEBBBA"/>
<stop offset="1" stop-color="#FF928E"/>
</linearGradient>
<linearGradient id="paint2_linear_4_599" x1="24.19" y1="257.604" x2="13.0561" y2="125.177" gradientUnits="userSpaceOnUse">
<stop stop-color="#FEBBBA"/>
<stop offset="1" stop-color="#FF928E"/>
</linearGradient>
<linearGradient id="paint3_linear_4_599" x1="48.6465" y1="125.168" x2="46.554" y2="109.591" gradientUnits="userSpaceOnUse">
<stop stop-color="#FEBBBA"/>
<stop offset="1" stop-color="#F4BF99"/>
</linearGradient>
<linearGradient id="paint4_linear_4_599" x1="39.7302" y1="132.754" x2="25.3361" y2="132.754" gradientUnits="userSpaceOnUse">
<stop stop-color="#FED2BA"/>
<stop offset="1" stop-color="#FF928E"/>
</linearGradient>
<linearGradient id="paint5_linear_4_599" x1="52.4939" y1="106.403" x2="40.8738" y2="70.2666" gradientUnits="userSpaceOnUse">
<stop stop-color="#FEBBBA"/>
<stop offset="1" stop-color="#FFBD8E"/>
</linearGradient>
<linearGradient id="paint6_linear_4_599" x1="48.1118" y1="107.813" x2="36.4821" y2="71.6827" gradientUnits="userSpaceOnUse">
<stop stop-color="#FEBBBA"/>
<stop offset="1" stop-color="#FFB08E"/>
</linearGradient>
<linearGradient id="paint7_linear_4_599" x1="73.0755" y1="95.7701" x2="48.2089" y2="130.691" gradientUnits="userSpaceOnUse">
<stop stop-color="#FEBBBA"/>
<stop offset="1" stop-color="#FF928E"/>
</linearGradient>
</defs>
</svg>
