<svg width="343" height="211" viewBox="0 0 343 211" fill="none" xmlns="http://www.w3.org/2000/svg">
<path d="M325.74 169.697C322.281 148.891 351.988 135.748 340.231 107.266C337.602 100.888 332.355 95.4906 328.299 89.6377C322.176 80.8059 318.12 71.0861 316.391 61.1211C315.257 54.6023 315.105 47.955 313.224 41.5531C308 23.7608 288.413 9.12282 265.531 5.87512C247.089 3.26995 227.385 6.61111 211.305 14.1696C139.069 48.1303 67.5122 19.8122 42.3158 31.5296C26.5155 38.8778 18.8491 53.0836 11.8371 66.1795C-5.21368 98.0023 -2.1401 143.026 10.2828 169.931C15.1094 180.386 35.7246 203.961 52.5533 204.23C53.313 204.242 65.5138 205.153 67.594 205.165C95.1044 205.375 258.799 205.761 302.121 205.492C308.935 205.445 316.297 205.27 321.696 201.999C327.446 198.506 329.445 192.302 329.153 186.601C328.86 180.9 326.687 175.363 325.752 169.709L325.74 169.697Z" fill="#EDF1F5"/>
<path d="M246.937 65.0814H220.537V91.4718H246.937V65.0814Z" fill="#212529"/>
<path d="M244.226 67.7917H223.237V88.7732H244.226V67.7917Z" fill="#C9D6E0"/>
<path d="M279.777 36.0974H253.376V62.4879H279.777V36.0974Z" fill="#212529"/>
<path d="M277.077 38.8077H256.088V59.7892H277.077V38.8077Z" fill="#C9D6E0"/>
<path d="M307.077 72.0324H273.419V105.678H307.077V72.0324Z" fill="#212529"/>
<path d="M303.629 75.4787H276.867V102.231H303.629V75.4787Z" fill="#C9D6E0"/>
<g style="mix-blend-mode:multiply" opacity="0.5">
<path d="M37.9332 57.0906H33.4923V75.0464H37.9332V57.0906Z" fill="#C9D6E0"/>
</g>
<path d="M76.8966 74.8362V71.3081H58.9343V74.8362H76.8966Z" fill="white"/>
<g style="mix-blend-mode:multiply">
<path d="M79.2922 71.2964V67.7683H61.3299V71.2964H79.2922Z" fill="#C9D6E0"/>
</g>
<path d="M75.5642 67.8384V64.3104H57.6019V67.8384H75.5642Z" fill="#C9D6E0"/>
<path d="M43.0521 49.8593H38.5177V74.7778H43.0521V49.8593Z" fill="white"/>
<path d="M32.9664 52.6046H28.7826V74.7778H32.9664V52.6046Z" fill="#C9D6E0"/>
<path d="M46.8081 52.8391L43.0477 54.6725L52.7713 74.6015L56.5317 72.7682L46.8081 52.8391Z" fill="#C9D6E0"/>
<path d="M91.3529 50.6186C90.2544 50.6186 89.3545 51.5065 89.3545 52.6163V54.836C89.3545 55.2448 89.0273 55.5719 88.6183 55.5719H87.7067V51.5299C87.7067 50.0579 86.5147 48.8546 85.0305 48.8546C83.5463 48.8546 82.3542 50.0462 82.3542 51.5299V60.0463H81.84C81.1856 60.0463 80.6597 59.5206 80.6597 58.8664V57.0907C80.6597 55.9925 79.7715 55.093 78.6613 55.093C77.5627 55.093 76.6628 55.9808 76.6628 57.0907V60.0463C76.6628 62.2426 78.4509 64.03 80.648 64.03H82.3425V69.1118H87.6833V59.5556H89.3312C91.5282 59.5556 93.3163 57.7682 93.3163 55.5719V52.6163C93.3163 51.5182 92.4281 50.6186 91.3179 50.6186H91.3529Z" fill="#C9D6E0"/>
<g style="mix-blend-mode:multiply" opacity="0.5">
<path d="M84.9953 69.1119V48.8663C83.5345 48.8897 82.3658 50.0696 82.3658 51.5416V60.058H81.8516C81.1972 60.058 80.6713 59.5323 80.6713 58.8781V57.1024C80.6713 56.0042 79.7831 55.1047 78.6729 55.1047C77.5743 55.1047 76.6744 55.9925 76.6744 57.1024V60.058C76.6744 62.2543 78.4625 64.0417 80.6596 64.0417H82.3541V69.1235H84.9836L84.9953 69.1119Z" fill="#C9D6E0"/>
</g>
<path d="M97.2664 74.6493H25.4637V76.682H97.2664V74.6493Z" fill="#212529"/>
<path d="M81.1506 69.1118H88.7236V72.0675C88.7236 73.4927 87.5666 74.6493 86.1408 74.6493H83.7334C82.3076 74.6493 81.1506 73.4927 81.1506 72.0675V69.1118Z" fill="white"/>
<path d="M332.601 205H27.3993C26.6297 205 26 204.776 26 204.5C26 204.224 26.6297 204 27.3993 204H332.601C333.37 204 334 204.224 334 204.5C334 204.776 333.37 205 332.601 205Z" fill="#212529"/>
<path d="M179.657 139.323H234.526V194.545H179.657C175.392 194.545 171.932 191.087 171.932 186.823V147.045C171.932 142.781 175.392 139.323 179.657 139.323Z" fill="#334A5B"/>
<path d="M64.088 110.14H176.373V182.01H52.5299V121.694C52.5299 115.316 57.7071 110.14 64.088 110.14Z" fill="#334A5B"/>
<path d="M85.3811 110.14H186.108C192.489 110.14 197.666 115.316 197.666 121.694V182.01H73.823V121.694C73.823 115.316 79.0002 110.14 85.3811 110.14Z" fill="#80A0B8"/>
<path d="M100.971 137.372C131.882 138.774 145.474 147.722 150.861 152.886C151.773 158.131 143.65 158.131 135.739 158.131H107.539C102.327 158.131 95.5717 137.033 100.971 137.372Z" fill="#FD5655"/>
<path d="M101.193 204.312H99.2998L104.255 192.77H110.39L101.193 204.312Z" fill="#1A2D3C"/>
<path d="M54.4231 204.312H52.5299L57.4967 192.77H63.6322L54.4231 204.312Z" fill="#1A2D3C"/>
<path d="M196.743 204.312H198.636L193.681 192.77H187.546L196.743 204.312Z" fill="#1A2D3C"/>
<path d="M243.513 204.312H245.406L240.439 192.77H234.304L243.513 204.312Z" fill="#1A2D3C"/>
<path d="M55.5685 139.323H110.437V194.545H55.5685C51.3029 194.545 47.8436 191.087 47.8436 186.823V147.045C47.8436 142.781 51.3029 139.323 55.5685 139.323Z" fill="#47687F"/>
<path d="M223.12 158.132H121.574V172.279H223.12V158.132Z" fill="#C9D6E0"/>
<path d="M110.893 139.323C115.696 138.844 117.87 140.129 119.319 141.566C119.985 142.232 121.54 144.218 121.773 146.566C121.995 148.856 121.75 164.136 121.75 172.267C119.343 174.674 115.451 152.325 114.247 150.187C113.043 148.05 110.905 139.311 110.905 139.311L110.893 139.323Z" fill="white"/>
<path d="M236.968 139.323H231.604C226.953 139.323 223.178 143.108 223.178 147.769V172.279H121.902V147.769C121.902 143.108 118.127 139.323 113.476 139.323H108.112C103.46 139.323 99.6855 143.108 99.6855 147.769V194.545H245.394V147.769C245.394 143.108 241.62 139.323 236.968 139.323Z" fill="#A4BBCC"/>
<path d="M209.89 76.2146C209.785 76.0744 209.061 75.9109 208.885 75.6188C208.71 75.3384 207.798 75.2917 207.062 76.2029C206.969 76.3198 206.782 76.2847 206.735 76.1445C206.034 73.9365 205.251 74.1585 205.029 74.287C204.865 74.3805 205.461 76.1445 205.344 78.1072L205.262 80.502C205.017 81.1446 197.982 100.117 196.544 101.028C195.072 101.951 196.077 106.565 199.548 104.591C201.721 103.353 208.64 81.0628 208.64 81.0628C208.991 80.7123 209.996 76.3548 209.902 76.2146H209.89Z" fill="#F8C9B1"/>
<path d="M206.139 76.4016L204.339 72.9553C204.269 72.6282 204.97 72.1725 205.239 72.1725L208.219 72.2076C208.371 72.2076 208.511 72.3011 208.57 72.4296L212.321 80.8292C212.438 81.0862 211.924 81.6119 211.631 81.647L208.511 81.2498C208.371 81.2498 208.242 81.1563 208.184 81.0278L206.127 76.3899L206.139 76.4016Z" fill="#1A2D3C"/>
<path d="M205.952 76.6002L204.363 73.0604C204.246 72.8034 204.433 72.523 204.701 72.5113H207.798C207.95 72.4996 208.091 72.5814 208.149 72.7216L211.889 81.1329C212.006 81.3899 211.807 81.6937 211.515 81.6703L208.324 81.46C208.184 81.46 208.055 81.3666 207.997 81.2381L205.952 76.6118V76.6002Z" fill="#80A0B8"/>
<path d="M176.478 102.325C185.407 103.353 192.968 101.904 195.446 99.5326C197.923 97.1611 204.491 82.196 204.491 82.196C206.969 82.5348 208.336 84.1119 208.336 84.1119C204.994 97.7686 203.252 103.178 200.272 106.484C197.292 109.79 185.886 115.865 179.447 116.612C176.104 110.421 176.467 102.313 176.467 102.313L176.478 102.325Z" fill="white"/>
<path d="M180.195 140.409C181.702 144.101 182.672 144.533 182.672 144.533C202.762 152.057 208.43 154.475 210.288 158.938C212.146 163.4 211.316 169.171 208.99 182.921C207.436 192.08 206.256 199.499 206.256 199.499C203.615 201.894 200.822 199.405 200.822 199.405C198.718 178.529 198.309 165.445 198.309 165.445C188.27 156.402 169.198 144.615 169.198 144.615C169.198 144.615 178.594 136.437 180.206 140.409H180.195Z" fill="#1A2D3C"/>
<path d="M172.259 144.533C191.788 153.272 198.811 155.888 200.436 162.01C202.014 167.956 197.187 178.213 191.11 187.758C185.033 197.302 180.943 199.51 180.943 199.51C179.973 200.912 177.507 201.006 175.508 199.417C175.508 199.417 186.762 170.176 185.652 166.087C180.814 163.61 165.329 163.844 158.142 159.51C150.955 155.176 153.304 144.638 153.549 143.645C161.239 140.666 172.271 144.545 172.271 144.545L172.259 144.533Z" fill="#1A2D3C"/>
<path d="M186.272 166.087C186.833 165.9 187.394 165.597 187.803 165.188C188.188 164.825 188.481 164.428 188.726 163.961C188.726 163.949 188.749 163.926 188.761 163.903C188.352 164.44 187.955 164.919 187.394 165.316C186.856 165.69 186.26 165.924 185.629 166.087C185.886 166.169 186.143 166.262 186.424 166.297C186.996 166.368 187.627 166.286 188.177 166.099C187.557 166.204 186.891 166.251 186.272 166.099V166.087Z" fill="white"/>
<path d="M200.81 199.405L200.74 203.588C200.74 203.938 201.009 204.218 201.359 204.218L211.083 204.324C211.795 204.335 212.076 203.412 211.492 203.027L206.268 199.499C206.268 199.499 203.954 201.029 200.833 199.405H200.81Z" fill="#FF5B7E"/>
<path d="M175.496 199.405L175.426 203.588C175.426 203.938 175.695 204.218 176.046 204.218L185.839 204.394C186.552 204.405 186.832 203.482 186.248 203.097L180.954 199.499C180.954 199.499 178.64 201.029 175.52 199.405H175.496Z" fill="#FF5B7E"/>
<path d="M163.948 105.836C166.919 102.866 166.919 98.051 163.948 95.081C160.977 92.111 156.16 92.111 153.189 95.081C150.218 98.051 150.218 102.866 153.189 105.836C156.16 108.806 160.977 108.806 163.948 105.836Z" fill="#1A2D3C"/>
<path d="M167.386 99.8247C168.964 99.6962 170.985 99.5327 170.985 99.5327C173.744 100.748 175.789 101.308 175.789 101.308C178.827 117.477 179.447 139.907 179.447 139.907C178.208 144.86 168.859 147.594 165.294 146.227C161.227 125.9 164.137 101.016 164.137 101.016C166.428 100.444 167.386 99.8247 167.386 99.8247Z" fill="white"/>
<path d="M169.782 88.7264C171.161 86.1213 172.797 82.196 172.797 82.196C170.974 77.1843 166.486 74.6258 162.583 74.1468C158.165 73.6095 152.637 74.0534 150.125 80.7123C147.823 86.8339 151.106 93.5629 156.88 95.8527C160.748 97.3831 162.828 97.0209 166.802 97.0326C168.438 97.0326 169.782 88.7148 169.782 88.7148V88.7264Z" fill="#1A2D3C"/>
<path d="M170.986 99.5327L169.583 94.077L163.763 96.6238L164.091 100.701C164.161 101.554 164.827 102.231 165.668 102.313C166.65 102.407 168.929 101.893 170.179 101.262C170.81 100.946 171.149 100.234 170.986 99.5327Z" fill="#F8C9B1"/>
<g opacity="0.6">
<path d="M170.553 97.8738L169.572 94.0887L163.798 97.3364L163.915 98.8084C165.388 99.042 168.216 99.1121 170.542 97.8738H170.553Z" fill="#F3A57E"/>
</g>
<path d="M175.006 89.5326C175.006 88.9835 174.947 88.4461 174.842 87.897C174.573 86.425 174.048 84.9998 173.487 83.8199C173.37 83.5629 173.265 83.3058 173.159 83.0372C172.762 81.9741 172.154 80.9577 171.301 80.0465C168.578 77.1025 164.161 76.2847 160.561 78.0605C155.711 80.4554 154.04 86.3783 156.716 90.8994C156.062 90.9228 155.466 91.1798 155.115 91.6821C154.426 92.6517 154.846 94.1354 156.062 94.9882C157.277 95.841 158.808 95.7593 159.498 94.7896C159.591 94.6494 159.661 94.5092 159.72 94.3574C162.384 97.9789 167.304 99.0771 171.056 96.7756C172.891 95.6541 174.129 93.9134 174.667 91.9508C174.714 91.834 174.749 91.6938 174.784 91.5419C174.947 90.876 175.006 90.1985 174.983 89.5092L175.006 89.5326Z" fill="#F8C9B1"/>
<path d="M172.797 82.196C170.436 78.3992 168.122 78.4576 164.897 77.71C165.411 84.6259 157.558 84.9414 158.68 91.3316C157.476 91.098 156.728 90.9227 156.728 90.9227C153.386 89.4274 152.205 82.0792 154.975 77.8034C157.745 73.5277 163.985 73.4342 167.842 75.9459C170.588 77.7333 172.107 80.5838 172.797 82.2077V82.196Z" fill="#1A2D3C"/>
<path d="M153.596 106.519C157.114 103.166 164.079 100.701 164.079 100.701C173.744 114.323 169.42 133.096 168.426 140.351C167.421 147.606 165.762 152.43 164.733 154.288C163.705 156.145 149.868 157.08 148.512 156.145C150.312 141.835 153.292 138.482 152.544 125.105C151.796 111.717 151.668 107.629 153.596 106.519Z" fill="#5C85A3"/>
<path d="M172.259 100.07C176.817 114.334 175.73 127.816 176.876 134.685C178.021 141.554 182.672 144.533 182.672 144.533C180.721 135.701 180.23 120.771 179.786 115.187C179.201 107.675 177.46 101.892 177.46 101.892C176.256 100.701 172.248 100.07 172.248 100.07H172.259Z" fill="#5C85A3"/>
<path d="M144.095 120.783L135.037 121.834L132.513 143.155C132.513 143.155 132.56 143.155 132.653 143.143L133.717 144.159L138.216 145.479C138.216 145.479 140.039 145.514 140.133 145.479C140.226 145.444 140.647 144.65 140.647 144.65L137.164 141.729L144.095 120.806V120.783Z" fill="#F8C9B1"/>
<path d="M140.577 131.414C137.445 131.087 135.318 130.678 134.032 130.374L132.525 143.143C132.525 143.143 132.572 143.143 132.665 143.131L133.729 144.148L138.228 145.468C138.228 145.468 140.051 145.503 140.145 145.468C140.238 145.433 140.659 144.638 140.659 144.638L137.176 141.718L140.589 131.426L140.577 131.414Z" fill="#FDEDE5"/>
<path d="M140.647 144.627L141.652 145.503C142.119 145.9 141.769 146.671 141.161 146.578L132.735 145.386C132.443 145.339 132.233 145.071 132.279 144.767L132.525 143.003C137.877 145.585 139.899 145.316 140.635 144.615L140.647 144.627Z" fill="#1A2D3C"/>
<path d="M128.633 118.446L121.317 113.002L104.863 126.799C104.863 126.799 104.909 126.834 104.979 126.893L105.05 128.353L107.422 132.395C107.422 132.395 108.731 133.669 108.824 133.704C108.918 133.727 109.771 133.447 109.771 133.447L109.245 128.937L128.633 118.446Z" fill="#F8C9B1"/>
<path d="M118.77 123.774C116.713 121.39 115.451 119.638 114.714 118.528L104.863 126.788C104.863 126.788 104.909 126.823 104.979 126.881L105.05 128.341L107.422 132.383C107.422 132.383 108.731 133.657 108.824 133.692C108.918 133.715 109.771 133.435 109.771 133.435L109.245 128.926L118.781 123.774H118.77Z" fill="#FDEDE5"/>
<path d="M109.771 133.435L109.9 134.767C109.97 135.374 109.187 135.701 108.813 135.222L103.495 128.587C103.308 128.353 103.343 128.014 103.577 127.827L104.968 126.718C107.095 132.267 108.743 133.447 109.771 133.458V133.435Z" fill="#1A2D3C"/>
<path d="M142.19 81.0745C139.514 83.2358 135.213 86.8222 132.174 91.32C126.857 99.1939 123.059 103.119 113.277 107.442C118.758 110.678 115.206 117.617 125.385 119.089C132.256 120.082 135.704 124.042 140.168 122.29C144.632 120.538 147.332 124.346 150.452 123.049C151.002 109.907 151.282 97.1728 150.873 90.7709C150.534 85.5138 147.905 82.0442 147.905 82.0442C146.444 81.8339 142.19 81.0628 142.19 81.0628V81.0745Z" fill="#FD5655"/>
<path d="M149.05 94.3457C148.033 91.8924 145.883 88.0606 144.305 87.4881C141.266 91.2265 139.689 95.5373 139.689 95.5373C140.472 98.563 144.772 103.096 145.088 103.341C145.357 103.563 149.015 104.743 151.06 104.731C151.118 102.103 151.153 100.385 151.153 98.1425C150.885 98.0023 150.499 97.7219 150.405 97.5233C150.253 97.2312 149.657 95.7826 149.061 94.3457H149.05Z" fill="white"/>
<path d="M163.284 103.119C163.167 103.119 163.179 103.143 163.273 103.224C163.997 103.82 166.288 105.689 166.183 105.911C166.054 106.168 163.974 104.544 163.74 104.696C163.506 104.836 165.587 106.379 165.4 106.636C165.213 106.893 163.378 105.432 163.261 105.514C163.144 105.596 164.757 107.185 164.745 107.395C164.733 107.605 162.805 106.122 162.63 106.18C162.466 106.238 163.448 107.71 163.331 107.804C163.214 107.909 163.156 107.991 159.977 105.327L158.773 104.229L158.271 102.792L159.65 101.6C159.65 101.6 164.757 102.465 164.862 102.652C164.967 102.827 164.406 103.201 163.273 103.131L163.284 103.119Z" fill="#F8C9B1"/>
<path d="M141.454 86.2031C145.532 85.8409 147.531 91.7405 150.137 97.4766C150.943 99.2523 160.059 101.425 160.059 101.425L159.252 104.731C149.833 105.479 145.217 103.119 145.217 103.119C140.542 98.4228 138.286 93.6915 138.123 90.5372C137.994 88.2358 139.362 86.39 141.465 86.2031H141.454Z" fill="#FD5655"/>
<path d="M180.089 148.739C179.926 148.739 179.937 148.786 180.089 148.879C181.176 149.615 184.565 151.975 184.437 152.29C184.285 152.664 181.2 150.643 180.907 150.877C180.604 151.11 183.666 153.003 183.443 153.388C183.221 153.762 180.487 151.94 180.335 152.068C180.183 152.197 182.614 154.23 182.614 154.522C182.614 154.825 179.762 152.968 179.528 153.073C179.306 153.178 180.849 155.106 180.697 155.258C180.545 155.409 180.475 155.538 175.742 152.185L173.942 150.783L173.089 148.844L174.865 147.021C174.865 147.021 182.076 147.641 182.251 147.898C182.427 148.131 181.667 148.715 180.089 148.739Z" fill="#F8C9B1"/>
<path d="M153.596 106.519C151.422 106.799 148.267 113.096 152.357 123.902C154.998 130.888 157.114 135.362 158.013 136.215C160.526 138.599 173.837 151.519 173.837 151.519C176.513 149.475 176.841 146.963 176.841 146.963L163.74 131.905C161.566 121.741 160.421 113.54 157.932 109.065C156.518 106.53 153.584 106.53 153.584 106.53L153.596 106.519Z" fill="white"/>
<path d="M147.776 82.6633L148.185 78.0254L142.938 78.4109L142.225 81.0862C142.05 81.7638 145.579 83.6446 146.736 83.4928C147.32 83.4227 147.706 83.2591 147.776 82.6633Z" fill="#F8C9B1"/>
<g opacity="0.6">
<path d="M147.904 81.2498L148.185 78.0254L142.786 78.9717L142.482 80.1516C143.569 80.7357 145.754 81.5769 147.904 81.2498Z" fill="#F3A57E"/>
</g>
<path d="M133.168 67.1608C133.168 67.1608 129.089 64.6491 125.571 68.5627C122.054 72.4763 126.693 76.203 124.356 79.2053C124.356 79.2053 130.258 78.0021 131.216 73.516C131.952 70.1165 132.946 69.1585 133.378 68.9015C133.635 68.7379 133.846 68.4926 133.904 68.2005C133.974 67.8618 133.857 67.4529 133.156 67.1725L133.168 67.1608Z" fill="#752911"/>
<path d="M133.997 66.2496C133.53 66.2729 133.168 66.6701 133.191 67.1374L133.296 69.1818C133.319 69.6959 133.775 70.0697 134.278 69.9996C134.734 69.9412 135.072 69.5323 135.037 69.0767L134.885 67.0323C134.85 66.5767 134.465 66.2379 134.009 66.2496H133.997Z" fill="#FA5371"/>
<path d="M150.627 60.1397C150.627 60.1397 153.467 56.2845 158.189 58.586C162.922 60.8991 160.023 66.086 163.319 67.9903C163.319 67.9903 157.406 69.0884 154.811 65.3033C152.848 62.4295 151.574 61.9154 151.071 61.8337C150.768 61.7869 150.487 61.6351 150.323 61.378C150.136 61.086 150.078 60.6654 150.627 60.1397Z" fill="#752911"/>
<path d="M149.003 60.3383C149.33 59.9995 149.879 60.0112 150.207 60.3383L151.644 61.7986C152.006 62.1608 151.971 62.7566 151.586 63.072C151.235 63.3641 150.709 63.3407 150.394 63.0019L148.991 61.5066C148.676 61.1795 148.687 60.6537 149.003 60.3383Z" fill="#FA5371"/>
<path d="M136.358 73.9483C136.358 73.9483 132.443 67.9085 135.598 64.0766C138.754 60.2448 143.09 59.1 146.467 59.6023C149.856 60.1163 153.327 64.6958 153.035 68.0954L142.505 68.5043L136.346 73.9483H136.358Z" fill="#752911"/>
<path d="M152.193 69.6842C152.158 70.6889 152.789 71.5183 153.619 71.53C154.449 71.5417 155.15 70.7356 155.197 69.7309C155.232 68.7263 154.601 67.8968 153.771 67.8851C152.941 67.8735 152.24 68.6795 152.193 69.6842Z" fill="#F8C9B1"/>
<path d="M153.97 73.4576C153.97 72.1842 153.748 70.9108 153.468 69.8478C153.409 69.6141 153.362 69.3805 153.316 69.1468C153.14 68.2005 152.778 67.2659 152.205 66.3781C150.336 63.5393 146.654 62.2425 143.265 63.2472C138.696 64.6024 136.3 69.3454 137.878 73.516C137.305 73.4459 136.756 73.5861 136.37 73.96C135.622 74.6843 135.751 75.981 136.65 76.8689C137.562 77.7567 138.894 77.8852 139.654 77.1726C139.759 77.0675 139.841 76.9623 139.911 76.8455C141.629 80.2451 145.696 81.8455 149.295 80.432C152.053 79.3455 154.017 76.6586 153.982 73.4693L153.97 73.4576Z" fill="#F8C9B1"/>
<path d="M137.866 73.5043C137.866 73.5043 142.377 69.7309 144.106 65.7356C144.106 65.7356 144.609 67.4412 144.235 68.2239C144.457 68.2823 147.577 65.7005 147.519 62.7799C147.46 59.8593 142.891 62.5346 142.891 62.5346C142.891 62.5346 139.946 63.0369 139.841 63.1304C139.736 63.2355 138.134 65.058 138.064 65.1748C138.006 65.2916 136.592 69.7426 136.592 69.7426L136.37 71.2964L136.346 73.9366L137.854 73.4927L137.866 73.5043Z" fill="#752911"/>
<path d="M295.238 174.534C295.156 173.027 294.899 171.508 295.109 170.012C295.284 168.751 295.787 167.559 296.149 166.333C296.827 164.043 296.991 161.636 297.154 159.253C297.447 154.919 297.75 150.585 298.043 146.251C298.498 139.51 298.966 132.757 300.228 126.122C300.579 124.276 300.976 122.278 300.146 120.608C299.971 120.257 299.632 119.872 299.246 120C298.977 120.082 298.849 120.374 298.744 120.643C295.986 128.131 294.934 136.18 291.86 143.54C291.124 145.304 290.259 147.033 289.885 148.914C289.429 151.157 289.675 153.482 289.733 155.783C289.815 159.078 289.5 162.384 288.588 165.55C288.109 167.209 287.478 168.821 287.209 170.526C286.882 172.653 287.162 174.814 287.361 176.952C287.758 181.064 287.887 185.188 287.758 189.323C287.688 191.753 289.733 191.683 291.101 190.2C292.047 189.16 292.047 188.015 292.363 186.718C293.426 182.454 295.483 179.195 295.226 174.569L295.238 174.534Z" fill="#3E8D7A"/>
<path d="M290.832 171.87C289.991 168.973 288.693 166.204 288.039 163.26C287.408 160.398 287.396 157.442 287.396 154.51C287.396 151.297 287.396 148.085 287.396 144.872C287.396 142.874 287.396 140.865 287.057 138.891C286.344 134.65 284.136 130.725 283.762 126.437C283.598 124.58 283.785 122.711 283.586 120.865C283.469 119.813 283.201 118.727 282.71 117.792C282.184 116.788 280.723 116.834 280.244 117.862C279.169 120.187 278.491 122.687 278.923 125.176C279.18 126.671 279.835 128.061 280.314 129.486C282.464 135.877 281.319 142.944 282.99 149.475C283.493 151.449 284.252 153.377 284.346 155.409C284.556 160.269 280.91 164.72 281.249 169.58C281.518 173.564 284.393 176.858 285.596 180.667C286.274 182.793 286.414 185.071 287.139 187.186C287.7 188.833 289.009 190.83 291.031 190.328C292.959 189.849 292.375 188.284 292.293 186.788C292.001 181.718 292.281 176.812 290.844 171.858L290.832 171.87Z" fill="#B2D8A7"/>
<path d="M286.94 173.891C286.742 172.15 286.508 170.375 285.702 168.821C284.72 166.928 282.99 165.573 281.483 164.066C278.655 161.262 276.493 157.804 275.184 154.054C274.179 151.145 273.676 148.05 272.285 145.304C271.432 143.634 270.275 142.127 269.317 140.514C267.038 136.706 265.799 132.197 262.714 129.007C262.118 132.874 263.298 136.975 265.846 139.942C266.606 140.83 267.494 141.624 268.066 142.641C269.118 144.475 269.025 146.718 269.142 148.832C269.375 152.804 270.497 156.73 272.402 160.223C274.424 163.938 277.357 167.244 278.433 171.333C279.239 174.393 279.005 177.828 280.735 180.492C280.922 180.784 281.132 181.064 281.179 181.403C281.202 181.59 281.179 181.788 281.144 181.975C281.109 182.221 281.062 182.466 281.027 182.711C280.63 185.223 280.221 188.412 282.383 190.281C283.878 191.578 285.807 191.613 286.882 189.884C287.969 188.143 287.864 185.597 287.794 183.646C287.665 180.386 287.314 177.115 286.94 173.879V173.891Z" fill="#3E8D7A"/>
<path d="M300.322 181.777C300.848 180.433 301.362 179.078 301.537 177.653C301.724 176.064 301.479 174.44 301.747 172.863C302.098 170.842 303.278 169.054 303.863 167.08C304.283 165.655 304.389 164.16 304.646 162.699C305.37 158.517 307.345 154.428 306.784 150.222C306.656 149.311 306.247 148.236 305.335 148.085C304.505 147.944 303.758 148.692 303.547 149.498C303.337 150.304 303.489 151.157 303.547 151.998C303.711 154.323 303.045 156.695 301.701 158.599C300.403 160.421 298.522 161.8 297.365 163.716C295.939 166.064 295.74 168.926 295.016 171.578C293.567 176.847 289.932 181.438 289.266 186.87C288.997 189.031 289.512 191.648 291.51 192.513C297.283 195.001 299.024 185.153 300.333 181.777H300.322Z" fill="#B2D8A7"/>
<path d="M282.418 181.111C280.606 178.202 276.983 176.543 275.826 173.319C275.534 172.501 275.417 171.613 275.055 170.818C274.249 169.054 272.437 168.061 270.637 167.244C270.392 167.127 270.112 167.314 270.1 167.582C270.1 168.015 270.299 168.435 270.661 168.669C272.04 169.592 273.092 171.005 273.559 172.606C274.108 174.498 273.875 176.566 274.564 178.412C275.137 179.966 276.329 181.227 276.89 182.781C277.404 184.206 277.346 185.76 277.591 187.256C277.836 188.751 278.491 190.328 279.87 190.959C284.837 193.249 283.598 182.968 282.429 181.087L282.418 181.111Z" fill="#A3D1C6"/>
<path d="M303.091 180.153C303.01 181.555 303.232 183.038 302.682 184.335C302.332 185.164 301.689 185.83 301.175 186.566C299.34 189.148 298.685 192.805 295.869 194.265C295.682 194.358 295.472 194.452 295.273 194.405C294.981 194.347 294.794 194.078 294.677 193.809C293.987 192.209 294.759 190.398 295.215 188.716C295.296 188.424 295.367 188.097 295.215 187.828C295.063 187.536 294.712 187.396 294.467 187.162C293.987 186.695 294.034 185.924 294.128 185.258C294.361 183.599 294.7 181.963 295.133 180.351C295.378 179.44 295.659 178.505 296.185 177.723C296.769 176.858 297.61 176.216 298.405 175.527C301.911 172.524 304.587 168.575 306.095 164.206C306.422 163.26 306.714 162.267 307.38 161.531C308.046 160.795 309.25 160.41 310.068 160.982C310.653 161.391 308.269 165.211 307.988 165.667C307.193 166.975 307.182 168.12 306.738 169.568C305.639 173.132 303.302 176.321 303.091 180.141V180.153Z" fill="#3E8D7A"/>
<path d="M274.845 186.204H304.061C305.113 186.204 305.943 187.115 305.826 188.167C305.101 194.23 301.093 199.277 295.624 201.485H297.225C297.996 201.485 298.662 202.081 298.685 202.84C298.709 203.634 298.078 204.289 297.283 204.289H281.693C280.922 204.289 280.256 203.693 280.232 202.933C280.209 202.139 280.84 201.485 281.635 201.485H283.294C277.825 199.277 273.816 194.23 273.092 188.167C272.963 187.127 273.805 186.204 274.856 186.204H274.845Z" fill="#C9D6E0"/>
<path d="M274.845 186.204H275.873C278.818 190.55 283.797 193.401 289.441 193.401C295.086 193.401 300.064 190.55 303.01 186.204H304.061C305.113 186.204 305.943 187.115 305.826 188.167C305.101 194.23 301.093 199.277 295.624 201.485H297.225C297.996 201.485 298.662 202.081 298.685 202.84C298.709 203.634 298.078 204.289 297.283 204.289H281.693C280.922 204.289 280.256 203.693 280.232 202.933C280.209 202.139 280.84 201.485 281.635 201.485H283.294C277.825 199.277 273.816 194.23 273.092 188.167C272.963 187.127 273.805 186.204 274.856 186.204H274.845Z" fill="#5C85A3"/>
<path d="M211.176 75.5137C211.129 75.3735 210.907 74.9763 210.849 74.8946C210.685 74.6726 210.405 74.5558 210.124 74.5908L209.809 74.6259L210.066 75.2684C210.3 75.7474 210.3 75.7007 209.762 76.2965C208.991 77.1376 209.61 77.4647 209.61 77.4647C209.61 77.4647 210.031 77.6983 210.942 76.6002C210.942 76.6002 211.375 76.0511 211.176 75.5137Z" fill="#F8C9B1"/>
<path d="M211.527 76.0162C211.48 75.8877 211.27 75.5138 211.211 75.432C211.059 75.2218 210.79 75.1049 210.522 75.14L210.218 75.175L210.463 75.7942C210.697 76.2498 210.685 76.2148 210.171 76.7755C209.435 77.5816 210.031 77.8853 210.031 77.8853C210.031 77.8853 210.44 78.1073 211.305 77.0559C211.305 77.0559 211.714 76.5302 211.527 76.0162Z" fill="#F8C9B1"/>
<path d="M211.702 76.7989C211.667 76.6937 211.48 76.3666 211.433 76.3082C211.305 76.133 211.083 76.0395 210.849 76.0629L210.592 76.0979L210.802 76.6236C211.001 77.0091 210.989 76.9741 210.557 77.4531C209.937 78.1306 210.44 78.3877 210.44 78.3877C210.44 78.3877 210.779 78.5746 211.515 77.6867C211.515 77.6867 211.866 77.2428 211.702 76.8105V76.7989Z" fill="#F8C9B1"/>
<path d="M210.627 74.8245C210.58 74.6843 210.358 74.2871 210.299 74.2054C210.136 73.9834 209.867 73.8666 209.575 73.9016L209.259 73.9367L209.516 74.5792C209.75 75.0582 209.75 75.0114 209.213 75.6072C208.441 76.4484 209.061 76.7755 209.061 76.7755C209.061 76.7755 209.481 77.0091 210.393 75.911C210.393 75.911 210.825 75.3619 210.627 74.8245Z" fill="#F8C9B1"/>
<path d="M209.517 74.5909C209.563 74.696 209.622 74.8012 209.645 74.918C209.669 75.0348 209.61 75.1283 209.528 75.2218C209.376 75.397 209.201 75.5605 209.037 75.7475C209.002 75.7942 208.967 75.8409 208.932 75.8993C208.897 75.9577 208.862 76.0045 208.839 76.0629C208.78 76.1797 208.757 76.3082 208.769 76.4367C208.769 76.5652 208.85 76.6937 208.944 76.7755C208.967 76.7989 208.991 76.8222 209.026 76.8339C209.061 76.8573 209.096 76.8573 209.131 76.869C209.201 76.869 209.271 76.869 209.33 76.8456C209.458 76.8106 209.575 76.7521 209.669 76.682C209.774 76.612 209.867 76.5302 209.961 76.4484C210.136 76.2848 210.3 76.1096 210.452 75.911C210.592 75.7007 210.685 75.4788 210.697 75.2334C210.697 75.1166 210.697 74.9881 210.65 74.883C210.639 74.8245 210.603 74.7778 210.58 74.7194L210.498 74.5675L210.568 74.7311C210.592 74.7895 210.615 74.8362 210.627 74.8946C210.65 75.0115 210.662 75.1283 210.639 75.2334C210.603 75.4671 210.51 75.6774 210.37 75.8643C210.218 76.0395 210.054 76.2264 209.879 76.3783C209.704 76.5302 209.505 76.682 209.295 76.7405C209.236 76.7521 209.189 76.7638 209.143 76.7638C209.119 76.7638 209.096 76.7638 209.084 76.7521C209.061 76.7405 209.037 76.7288 209.026 76.7054C208.944 76.6353 208.897 76.5419 208.886 76.4367C208.886 76.3316 208.886 76.2264 208.944 76.1213C208.967 76.0629 209.002 76.0161 209.026 75.9694C209.061 75.9227 209.096 75.876 209.119 75.8292C209.26 75.6423 209.435 75.4671 209.587 75.2802C209.622 75.2334 209.657 75.175 209.68 75.1166C209.704 75.0582 209.704 74.9881 209.68 74.9297C209.645 74.8129 209.575 74.7194 209.528 74.6143L209.517 74.5909Z" fill="#F8C9B1"/>
<path d="M209.458 76.7287C209.365 76.8806 209.318 77.0792 209.388 77.2661C209.423 77.3596 209.481 77.4297 209.563 77.4881C209.575 77.4998 209.61 77.5231 209.633 77.5231C209.657 77.5231 209.68 77.5231 209.715 77.5348C209.762 77.5348 209.82 77.5348 209.867 77.5348C210.066 77.4881 210.229 77.3829 210.381 77.2778C210.533 77.161 210.662 77.0325 210.79 76.8923C210.86 76.8222 210.907 76.7521 210.977 76.682C211.047 76.6119 211.094 76.5301 211.129 76.4367C211.211 76.2731 211.281 76.0862 211.281 75.8993C211.281 75.8058 211.281 75.7124 211.258 75.6189C211.246 75.5722 211.234 75.5254 211.211 75.4904L211.153 75.3619C211.059 75.21 210.977 75.0465 210.86 74.9063C210.942 75.0698 211.024 75.2217 211.094 75.3853L211.141 75.5021C211.153 75.5371 211.164 75.5839 211.176 75.6306C211.188 75.7124 211.199 75.8058 211.176 75.8876C211.153 76.0628 211.094 76.2264 211.012 76.3783C210.966 76.46 210.919 76.5301 210.86 76.6002C210.802 76.6703 210.744 76.7404 210.685 76.7988C210.568 76.939 210.428 77.0558 210.288 77.1727C210.148 77.2895 209.996 77.3829 209.832 77.4297C209.75 77.453 209.657 77.4647 209.598 77.4297C209.528 77.3829 209.47 77.3245 209.435 77.2428C209.4 77.1727 209.388 77.0792 209.388 76.9857C209.388 76.8923 209.423 76.8105 209.458 76.7287Z" fill="#F8C9B1"/>
<path d="M209.797 77.4998C209.797 77.6283 209.844 77.7685 209.949 77.8619C209.972 77.8853 209.996 77.9087 210.042 77.9204C210.077 77.932 210.113 77.932 210.148 77.932C210.218 77.932 210.288 77.9204 210.358 77.897C210.627 77.8035 210.837 77.6166 211.024 77.4297C211.118 77.3362 211.211 77.2311 211.293 77.126C211.386 77.0208 211.445 76.904 211.503 76.7755C211.55 76.647 211.585 76.5185 211.597 76.39C211.597 76.2615 211.585 76.1213 211.527 76.0045C211.597 76.2615 211.527 76.5185 211.421 76.7404C211.363 76.8573 211.305 76.9624 211.211 77.0559C211.129 77.161 211.036 77.2545 210.942 77.3479C210.849 77.4414 210.755 77.5232 210.65 77.6049C210.545 77.6867 210.44 77.7568 210.323 77.8035C210.264 77.8269 210.206 77.8503 210.148 77.8503C210.113 77.8503 210.089 77.8503 210.066 77.8503C210.042 77.8503 210.019 77.8269 209.996 77.8152C209.89 77.7451 209.82 77.6283 209.809 77.4998H209.797Z" fill="#F8C9B1"/>
<path d="M210.264 77.8853C210.218 77.9905 210.206 78.119 210.264 78.2358C210.288 78.2942 210.335 78.3409 210.381 78.3877C210.393 78.3877 210.405 78.411 210.416 78.4227C210.44 78.4227 210.451 78.4344 210.475 78.4461C210.51 78.4461 210.545 78.4461 210.58 78.4461C210.709 78.4461 210.837 78.376 210.942 78.3176C211.047 78.2475 211.141 78.1774 211.234 78.0839C211.328 78.0021 211.41 77.9087 211.48 77.8152C211.515 77.7685 211.562 77.7218 211.597 77.6633C211.632 77.6166 211.655 77.5582 211.679 77.4998C211.784 77.2778 211.807 77.0091 211.702 76.7989C211.76 77.0325 211.702 77.2662 211.585 77.4648C211.562 77.5115 211.527 77.5699 211.492 77.6166C211.456 77.6634 211.421 77.6984 211.375 77.7451C211.293 77.8386 211.211 77.9204 211.129 78.0021C211.047 78.0839 210.954 78.154 210.86 78.2241C210.767 78.2942 210.662 78.3409 210.557 78.3526C210.533 78.3526 210.498 78.3526 210.475 78.3526C210.475 78.3526 210.451 78.3526 210.44 78.3526C210.44 78.3526 210.416 78.3409 210.405 78.3292C210.358 78.2942 210.323 78.2592 210.299 78.2124C210.276 78.1657 210.253 78.1073 210.253 78.0606C210.253 78.0021 210.253 77.9437 210.264 77.8853Z" fill="#F8C9B1"/>
</svg>
