<svg width="235" height="230" viewBox="0 0 235 230" fill="none" xmlns="http://www.w3.org/2000/svg">
<path d="M208.291 197.725C203.607 202.662 199.176 205.849 195.674 208.363C154.522 237.934 105.819 229.309 95.4664 227.206C80.1852 224.101 50.6411 218.088 29.2833 192.937C-3.03025 154.888 2.00373 94.941 27.0677 55.365C31.6537 48.1283 55.8706 7.95258 105.094 1.51264C134.883 -2.38911 169.608 5.4801 194.753 26.5742C247.537 70.857 243.781 160.31 208.291 197.725Z" fill="#EDF1F5"/>
<path d="M217.602 8.93005C217.211 7.47614 215.402 6.99971 214.352 8.07577C95.0756 131.231 136.683 212.281 136.683 212.281C153.626 204.987 167.49 195.992 178.78 185.881C202.223 164.885 214.596 139.068 220.575 113.596C231.547 66.8238 220.933 21.2432 217.602 8.93005ZM173.673 164.688C171.897 168.138 169.983 171.514 167.995 174.841C167.49 175.67 167.001 176.508 166.48 177.321L164.916 179.777C163.841 181.396 162.782 183.014 161.65 184.591C157.202 190.949 152.201 196.92 146.645 202.342C146.425 202.555 146.075 202.547 145.863 202.334C145.652 202.112 145.66 201.759 145.872 201.545C151.378 196.189 156.363 190.283 160.802 183.991C161.935 182.431 162.994 180.821 164.061 179.219L165.617 176.787C166.138 175.974 166.627 175.145 167.132 174.323C169.127 171.021 171.033 167.67 172.817 164.244C179.993 150.559 185.671 136.111 190.395 121.383C195.112 106.638 198.859 91.5896 201.897 76.4016C203.412 68.8034 204.74 61.1724 205.888 53.5086C206.459 49.6807 206.988 45.8365 207.46 41.9922C207.933 38.148 208.365 34.2955 208.682 30.4431C208.69 30.3116 208.804 30.2131 208.935 30.2213C209.065 30.2295 209.163 30.3445 209.147 30.4759C208.837 34.3448 208.414 38.2055 207.957 42.058C207.493 45.9104 206.98 49.7547 206.426 53.5907C205.31 61.2628 203.999 68.9102 202.508 76.5248C199.519 91.7457 195.812 106.835 191.137 121.629C186.445 136.406 180.808 150.921 173.648 164.696H173.673V164.688Z" fill="#B2D8A7"/>
<path d="M232.036 104.667C231.848 103.829 230.83 103.508 230.211 104.092C226.79 107.303 223.58 110.474 220.575 113.595C192.489 142.756 182.013 167.686 178.78 185.88C175.171 206.194 180.588 218.105 180.588 218.105C248.31 192.69 234.854 117.473 232.027 104.667H232.036ZM229.087 118.089C228.15 122.319 227.042 126.492 225.877 130.656C224.704 134.813 223.434 138.944 222.09 143.052C220.746 147.159 219.296 151.233 217.756 155.266C216.209 159.299 214.596 163.316 212.836 167.259C209.342 175.161 205.408 182.882 200.838 190.234L200.414 190.924L199.974 191.606L199.087 192.961L198.199 194.316C197.905 194.768 197.58 195.204 197.27 195.647C196.643 196.526 196.04 197.421 195.397 198.292L193.434 200.88C190.762 204.28 187.895 207.533 184.783 210.556C184.563 210.77 184.213 210.761 184.001 210.54C183.789 210.318 183.797 209.965 184.017 209.751H184.025C187.104 206.786 189.963 203.582 192.627 200.239L194.59 197.693C195.234 196.83 195.836 195.951 196.464 195.08C196.773 194.637 197.091 194.21 197.392 193.766L198.28 192.427L199.168 191.088L199.608 190.415L200.031 189.733C204.617 182.463 208.584 174.8 212.111 166.947C213.887 163.02 215.516 159.036 217.088 155.02C218.644 151.003 220.118 146.945 221.487 142.854C222.855 138.764 224.151 134.648 225.348 130.509C226.537 126.36 227.661 122.196 228.623 117.998C228.655 117.867 228.777 117.785 228.908 117.818C229.03 117.842 229.111 117.974 229.087 118.097V118.089Z" fill="#3E8D7A"/>
<path d="M46.5112 11.3039C45.6396 46.6415 42.8213 168.532 44.1734 211.722C44.3119 216.298 47.953 219.969 52.4901 220.117C74.9312 220.857 139.493 222.738 176.205 221.185C183.854 220.865 189.931 214.614 190.094 206.901C190.859 169.814 192.537 65.4931 188.538 17.7028C188.057 11.9775 183.602 7.4186 177.932 6.84361C153.487 4.37934 88.5751 -1.64988 56.8561 0.428312C51.1379 0.806166 46.6578 5.52933 46.5112 11.3039Z" fill="#334A5B"/>
<path d="M55.6263 22.2863C54.4044 51.225 50.5353 147.504 51.7653 183.104C51.9445 188.304 56.0091 192.518 61.1653 192.821C82.3846 194.07 136.822 196.838 167.954 194.325C173.558 193.873 177.957 189.298 178.258 183.638C179.839 154.116 184.367 64.4663 183.186 29.2602C182.999 23.6417 178.682 19.0582 173.135 18.5571C150.172 16.4789 91.2063 11.5339 64.7575 12.9879C59.7887 13.2589 55.8462 17.2757 55.6263 22.2863Z" fill="#C9D6E0"/>
<path d="M101.975 6.60543C101.975 7.68971 102.814 8.58506 103.889 8.64256C109.192 8.92184 124.123 9.71862 130.794 10.1047C132.114 10.1786 133.14 8.98755 132.896 7.68149L132.855 7.45971C132.684 6.57257 131.951 5.89901 131.055 5.81687C126.542 5.39794 112.931 4.24795 103.914 4.56831C102.83 4.60938 101.975 5.51294 101.975 6.60543Z" fill="#C9D6E0"/>
<g filter="url(#filter0_d_21_1976)">
<path d="M67.2749 46.8218C68.8142 33.1959 59.717 20.9611 46.9559 19.4947C34.1947 18.0282 22.6019 27.8855 21.0626 41.5115C19.5233 55.1374 28.6204 67.3722 41.3816 68.8386C54.1428 70.305 65.7356 60.4478 67.2749 46.8218Z" fill="white"/>
<path d="M66.5058 46.7334C67.9942 33.5582 59.2 21.7284 46.8635 20.3108C34.5269 18.8931 23.3196 28.4245 21.8312 41.5998C20.3429 54.775 29.137 66.6048 41.4736 68.0224C53.8101 69.44 65.0174 59.9086 66.5058 46.7334Z" fill="#EE814A"/>
<path opacity="0.8" d="M64.847 45.5819H64.8307C64.676 45.5819 64.562 45.4422 64.5701 45.2862C64.6271 44.3662 64.6353 43.438 64.5701 42.518C64.5701 42.3619 64.676 42.2305 64.8307 42.2223C64.9855 42.2223 65.1158 42.329 65.1239 42.4851C65.1728 43.4215 65.1728 44.3744 65.1239 45.319C65.1239 45.4669 64.9936 45.5819 64.847 45.5819Z" fill="white"/>
<path opacity="0.8" d="M63.6577 36.5955C63.5436 36.5955 63.4378 36.5216 63.397 36.4066C60.7416 28.6359 54.2902 23.2556 46.5682 22.3767C45.3382 22.2371 44.092 22.2124 42.862 22.311C42.7072 22.311 42.5769 22.2042 42.5687 22.0563C42.5687 21.9003 42.6746 21.7689 42.8212 21.7606C44.0838 21.6621 45.3708 21.6867 46.6334 21.8264C54.5672 22.7299 61.1977 28.2499 63.9184 36.2259C63.9672 36.3737 63.8939 36.5298 63.7473 36.5791C63.7147 36.5791 63.6903 36.5955 63.6577 36.5955Z" fill="white"/>
<path opacity="0.8" d="M62.5204 46.8067C63.7803 35.6554 56.3373 25.6429 45.8959 24.4432C35.4545 23.2436 25.9687 31.311 24.7088 42.4624C23.4489 53.6137 30.8919 63.6262 41.3333 64.8259C51.7747 66.0255 61.2605 57.9581 62.5204 46.8067Z" fill="white"/>
<path d="M50.5351 33.8355C48.0832 33.8355 45.9002 35.1333 44.4829 37.154C43.0655 35.1333 40.8825 33.8355 38.4307 33.8355C34.1624 33.8355 30.6924 37.7619 30.6924 42.6083C30.6924 47.4546 38.1049 54.8556 42.9189 57.9688C43.8638 58.5767 45.0857 58.5274 45.9735 57.8374C50.1196 54.6339 58.2734 46.8714 58.2734 42.6083C58.2734 38.3451 54.8115 33.8355 50.5351 33.8355Z" fill="#5C85A3"/>
<path d="M44.9881 50.1325H44.9555C44.646 50.1161 44.369 49.9354 44.2387 49.6479L40.6383 41.6637L37.1601 45.5079C37.0054 45.6804 36.7854 45.779 36.5492 45.779H27.695C27.2388 45.779 26.8723 45.4094 26.8723 44.9494C26.8723 44.4894 27.2388 44.1197 27.695 44.1197H36.1827L40.2636 39.6183C40.451 39.413 40.7279 39.3144 40.9967 39.3555C41.2737 39.3966 41.5018 39.5773 41.6158 39.8319L45.0532 47.4629L48.5803 41.023C48.735 40.7437 49.0283 40.5794 49.346 40.5958C49.6636 40.6123 49.9406 40.8094 50.0628 41.1051L51.4964 44.5387H59.1858C59.642 44.5387 60.0086 44.9083 60.0086 45.3683C60.0086 45.8283 59.642 46.1979 59.1858 46.1979H50.9506C50.6167 46.1979 50.3234 46.0008 50.1931 45.6886L49.2075 43.3229L45.7049 49.7136C45.5583 49.9765 45.2813 50.1407 44.9881 50.1407V50.1325Z" fill="white"/>
</g>
<path d="M144.674 104.543L88.6974 102.137C86.2049 102.03 84.2581 99.886 84.364 97.3724C84.4699 94.8589 86.5959 92.8957 89.0884 93.0024L145.065 95.4092C147.558 95.516 149.504 97.6599 149.398 100.173C149.293 102.687 147.167 104.65 144.674 104.543Z" fill="#031119"/>
<path d="M156.387 98.9413L78.1079 95.5735C76.935 95.5242 76.0145 94.5138 76.0634 93.331L77.6762 55.1513C77.7658 52.991 79.5904 51.2989 81.7327 51.3892L156.501 54.601C158.643 54.6913 160.321 56.5313 160.232 58.6917L158.619 96.8713C158.57 98.0542 157.568 98.9824 156.395 98.9331H156.387V98.9413Z" fill="#5C85A3"/>
<path d="M86.0256 98.3581L148.266 101.036C153.854 101.274 158.228 106.079 157.992 111.714L157.642 119.945C156.672 142.838 136.431 181.478 113.729 180.5C91.027 179.523 74.1167 139.289 75.086 116.396L75.4363 108.166C75.6725 102.531 80.4377 98.1199 86.0256 98.3581Z" fill="#5C85A3"/>
<path d="M147.883 79.605C147.753 82.6936 145.317 85.1907 142.254 85.3468C125.678 86.201 108.556 85.5193 90.9941 83.1289C87.9477 82.7182 85.7158 80.024 85.8461 76.919L85.9846 73.6744C86.1149 70.594 88.5342 68.1134 91.5888 67.9326C108.792 66.9551 125.947 67.3905 143.012 70.0601C146.001 70.5283 148.152 73.1979 148.021 76.2454L147.883 79.605Z" fill="#031119"/>
<path d="M103.962 76.0894C103.872 78.1922 102.113 79.8186 100.036 79.7283C97.9506 79.6379 96.3378 77.8636 96.4274 75.769C96.517 73.6662 98.2764 72.0398 100.354 72.1301C102.439 72.2205 104.052 73.9947 103.962 76.0894Z" fill="#FDEDE5"/>
<path d="M137.449 77.5268C137.359 79.6297 135.599 81.2561 133.522 81.1657C131.437 81.0754 129.824 79.3011 129.914 77.2065C130.003 75.1036 131.763 73.4772 133.84 73.5676C135.925 73.6579 137.538 75.4322 137.449 77.5268Z" fill="#FDEDE5"/>
<path d="M100.085 81.215C100.085 81.0918 100.182 80.985 100.296 80.985C100.419 80.985 100.524 81.0836 100.524 81.2068C100.524 81.33 100.427 81.4286 100.305 81.4368C100.191 81.4368 100.093 81.3383 100.093 81.2233L100.085 81.215ZM98.9443 81.289C98.8221 81.2561 98.7569 81.1411 98.7813 81.0179C98.8139 80.8947 98.928 80.8208 99.0501 80.8536C99.1723 80.8865 99.2456 81.0015 99.2131 81.1247C99.1886 81.2315 99.0909 81.3054 98.985 81.2972H98.9443V81.289ZM101.388 81.0754C101.355 80.9522 101.421 80.829 101.543 80.8043C101.665 80.7715 101.787 80.8372 101.811 80.9604C101.844 81.0836 101.779 81.2068 101.657 81.2397H101.592C101.494 81.2397 101.412 81.174 101.388 81.0754ZM97.6654 80.8125C97.5513 80.755 97.5188 80.6154 97.5758 80.5086C97.6328 80.3936 97.7631 80.3525 97.8772 80.41C97.9912 80.4675 98.0238 80.6072 97.9668 80.714C97.9261 80.7961 97.8446 80.8372 97.7631 80.8372C97.7387 80.8372 97.7061 80.8372 97.6735 80.8125H97.6654ZM102.626 80.6154C102.561 80.5086 102.602 80.369 102.708 80.3033C102.813 80.2458 102.944 80.2786 103.009 80.3854C103.066 80.4922 103.033 80.6318 102.927 80.6975C102.887 80.7222 102.846 80.7304 102.805 80.7222C102.732 80.7222 102.659 80.6811 102.626 80.6154ZM96.5413 80.024C96.4517 79.9418 96.4435 79.8022 96.525 79.7036C96.6065 79.6133 96.7449 79.605 96.8427 79.6872C96.9323 79.7693 96.9404 79.909 96.859 80.0075C96.8101 80.0568 96.7449 80.0815 96.6798 80.0815C96.6309 80.0815 96.582 80.065 96.5413 80.024ZM103.701 79.8597C103.62 79.7693 103.62 79.6297 103.701 79.5393C103.791 79.4572 103.929 79.4572 104.019 79.5393C104.1 79.6297 104.1 79.7693 104.019 79.8597C103.97 79.909 103.913 79.9254 103.856 79.9254C103.799 79.9254 103.75 79.9008 103.709 79.8597H103.701ZM95.6453 78.9808C95.5801 78.874 95.6045 78.7426 95.7104 78.6686C95.8163 78.6029 95.9548 78.6276 96.02 78.7343C96.0851 78.8411 96.0607 78.9726 95.9548 79.0465C95.9141 79.0711 95.8652 79.0876 95.8245 79.0876C95.7593 79.0876 95.686 79.0465 95.6453 78.989V78.9808ZM104.565 78.8576C104.459 78.7918 104.426 78.6604 104.491 78.5454C104.557 78.4386 104.695 78.4058 104.801 78.4715C104.907 78.5372 104.939 78.6768 104.874 78.7836C104.834 78.8576 104.752 78.8986 104.671 78.8904C104.638 78.8904 104.597 78.8904 104.565 78.8576ZM95.0344 77.7404C94.9936 77.6254 95.0588 77.494 95.1728 77.4529C95.2869 77.4119 95.4172 77.4776 95.4579 77.5926C95.4987 77.7076 95.4335 77.839 95.3195 77.8801C95.2869 77.8801 95.2624 77.8965 95.238 77.8965C95.1565 77.8965 95.0751 77.839 95.0425 77.7486L95.0344 77.7404ZM105.151 77.6665C105.029 77.6336 104.964 77.5104 105.005 77.3872C105.045 77.2722 105.167 77.2065 105.282 77.2394C105.404 77.2804 105.469 77.4036 105.428 77.5186C105.404 77.6172 105.306 77.6829 105.2 77.6829C105.184 77.6829 105.167 77.6829 105.151 77.6829V77.6665ZM94.7493 76.3933C94.7493 76.2701 94.8307 76.1633 94.9529 76.1469C95.0751 76.1469 95.181 76.229 95.1973 76.3522C95.1973 76.4754 95.1158 76.5822 94.9936 76.5986H94.9692C94.8633 76.5986 94.7656 76.5083 94.7574 76.3933H94.7493ZM105.208 76.1387V76.1222C105.208 75.999 105.314 75.9004 105.436 75.9087C105.558 75.9087 105.656 76.0237 105.648 76.1387V76.1551C105.648 76.2783 105.542 76.3769 105.42 76.3686C105.298 76.3686 105.2 76.2537 105.208 76.1387ZM94.9936 75.268C94.8715 75.2433 94.79 75.1365 94.8063 75.0133C94.8307 74.8901 94.9448 74.808 95.0669 74.8326C95.1891 74.849 95.2706 74.964 95.2461 75.0872C95.2299 75.2022 95.1321 75.2844 95.0181 75.2762H94.9936V75.268ZM105.102 74.8572C105.078 74.7422 105.151 74.619 105.273 74.5944C105.396 74.5697 105.51 74.6437 105.542 74.7669C105.567 74.8901 105.493 75.0051 105.371 75.0379H105.314C105.216 75.0379 105.127 74.964 105.11 74.8655H105.102V74.8572ZM95.3113 73.9865C95.1973 73.9372 95.1484 73.8058 95.1973 73.6908C95.2461 73.5758 95.3765 73.5265 95.4905 73.5758C95.6046 73.6251 95.6534 73.7565 95.6046 73.8715C95.5638 73.9537 95.4742 74.0112 95.3928 74.003C95.3683 74.003 95.3439 74.003 95.3113 73.9865ZM104.687 73.658C104.63 73.543 104.687 73.4115 104.785 73.354C104.899 73.2965 105.029 73.3376 105.086 73.4526C105.143 73.5676 105.102 73.699 104.988 73.7565C104.948 73.773 104.915 73.7812 104.882 73.7812C104.809 73.7812 104.728 73.7319 104.695 73.658H104.687ZM95.9467 72.8283C95.8489 72.7462 95.8326 72.6065 95.9059 72.508C95.9792 72.4176 96.1259 72.393 96.2155 72.4751C96.3132 72.549 96.3295 72.6887 96.2562 72.7873C96.2073 72.8448 96.1422 72.8776 96.0689 72.8694C96.0281 72.8694 95.9793 72.853 95.9385 72.8201L95.9467 72.8283ZM103.986 72.6065C103.905 72.5162 103.913 72.3683 104.011 72.2862C104.109 72.204 104.247 72.2123 104.328 72.3108C104.41 72.4012 104.402 72.549 104.304 72.6312C104.255 72.6723 104.198 72.6887 104.149 72.6887C104.092 72.6887 104.027 72.664 103.986 72.6148V72.6065ZM96.8427 71.8591C96.7694 71.7605 96.7857 71.6208 96.8834 71.5469C96.9812 71.473 97.1196 71.4894 97.1929 71.588C97.2663 71.6866 97.25 71.8344 97.1522 71.9001C97.1033 71.933 97.0545 71.9494 97.0056 71.9494C96.9486 71.9494 96.8834 71.9166 96.8427 71.8591ZM103.05 71.7605C102.952 71.6948 102.927 71.5469 102.993 71.4483C103.058 71.3498 103.204 71.3169 103.302 71.3908C103.408 71.4648 103.432 71.6044 103.359 71.703C103.31 71.7687 103.237 71.8016 103.164 71.7933C103.123 71.7933 103.082 71.7933 103.041 71.7523L103.05 71.7605ZM97.9505 71.1444C97.9016 71.0294 97.9505 70.898 98.0645 70.8487C98.1786 70.7994 98.3089 70.8487 98.3578 70.9719C98.4066 71.0869 98.3578 71.2183 98.2356 71.2676C98.203 71.2841 98.1704 71.2923 98.146 71.2841C98.0645 71.2841 97.9831 71.2266 97.9505 71.1444ZM101.934 71.1773C101.82 71.128 101.763 71.0048 101.803 70.8898C101.844 70.7748 101.974 70.7173 102.088 70.7583C102.211 70.7994 102.268 70.9308 102.219 71.0458C102.186 71.1444 102.097 71.2019 101.999 71.1937C101.974 71.1937 101.95 71.1937 101.934 71.1773ZM99.1968 70.7255C99.1805 70.6023 99.2619 70.4873 99.3841 70.4709C99.5063 70.4544 99.6203 70.5366 99.6366 70.6598C99.6529 70.783 99.5715 70.898 99.4493 70.9144H99.4085C99.3108 70.9144 99.2131 70.8323 99.1968 70.7255ZM100.704 70.8898C100.582 70.8733 100.492 70.7666 100.508 70.6433C100.524 70.5201 100.63 70.4298 100.753 70.4462C100.875 70.4626 100.964 70.5694 100.948 70.6926C100.932 70.8076 100.834 70.898 100.72 70.898H100.704V70.8898Z" fill="#FDEDE5"/>
<path d="M133.547 82.6525C133.547 82.5293 133.644 82.4225 133.758 82.4225C133.881 82.4225 133.987 82.5211 133.987 82.6443C133.987 82.7675 133.889 82.8661 133.767 82.8743C133.653 82.8743 133.555 82.7758 133.555 82.6608L133.547 82.6525ZM132.414 82.7265C132.292 82.6936 132.227 82.5786 132.252 82.4554C132.284 82.3322 132.398 82.2583 132.52 82.2911C132.643 82.324 132.716 82.439 132.683 82.5622C132.659 82.669 132.561 82.7429 132.455 82.7347H132.414V82.7265ZM134.858 82.5129C134.826 82.3897 134.891 82.2665 135.013 82.2418C135.135 82.209 135.257 82.2747 135.282 82.3979C135.314 82.5211 135.249 82.6443 135.127 82.6772H135.062C134.964 82.6772 134.883 82.6115 134.858 82.5129ZM131.127 82.25C131.013 82.1925 130.981 82.0529 131.038 81.9461C131.095 81.8311 131.225 81.79 131.339 81.8475C131.453 81.905 131.486 82.0447 131.429 82.1515C131.388 82.2336 131.307 82.2747 131.225 82.2747C131.201 82.2747 131.168 82.2747 131.136 82.25H131.127ZM136.088 82.0529C136.023 81.9461 136.064 81.8065 136.17 81.7408C136.275 81.6833 136.406 81.7161 136.471 81.8229C136.528 81.9297 136.495 82.0693 136.389 82.135C136.349 82.1597 136.308 82.1679 136.267 82.1597C136.194 82.1597 136.121 82.1186 136.088 82.0529ZM130.003 81.4615C129.914 81.3793 129.906 81.2397 129.987 81.1411C130.069 81.0508 130.207 81.0425 130.305 81.1247C130.394 81.2068 130.402 81.3465 130.321 81.445C130.272 81.4943 130.207 81.519 130.142 81.519C130.093 81.519 130.044 81.5025 130.003 81.4615ZM137.163 81.2972C137.082 81.2068 137.082 81.0672 137.163 80.9768C137.253 80.8947 137.391 80.8947 137.481 80.9768C137.562 81.0672 137.562 81.2068 137.481 81.2972C137.432 81.3465 137.375 81.3629 137.318 81.3629C137.261 81.3629 137.212 81.3383 137.171 81.2972H137.163ZM129.107 80.4183C129.042 80.3115 129.067 80.1801 129.172 80.1061C129.278 80.0404 129.417 80.0651 129.482 80.1718C129.547 80.2786 129.523 80.4101 129.417 80.484C129.376 80.5086 129.327 80.5251 129.287 80.5251C129.221 80.5251 129.148 80.484 129.107 80.4265V80.4183ZM138.027 80.2951C137.921 80.2293 137.888 80.0979 137.953 79.9829C138.019 79.8761 138.157 79.8433 138.263 79.909C138.369 79.9747 138.401 80.1143 138.336 80.2211C138.296 80.2951 138.214 80.3361 138.133 80.3279C138.1 80.3279 138.059 80.3279 138.027 80.2951ZM128.496 79.1779C128.456 79.0629 128.521 78.9315 128.635 78.8904C128.749 78.8494 128.879 78.9151 128.92 79.0301C128.961 79.1451 128.896 79.2765 128.781 79.3176C128.749 79.3176 128.724 79.334 128.7 79.334C128.619 79.334 128.537 79.2765 128.505 79.1861L128.496 79.1779ZM138.613 79.104C138.491 79.0711 138.426 78.9479 138.467 78.8247C138.507 78.7097 138.63 78.644 138.744 78.6769C138.866 78.7179 138.931 78.8411 138.89 78.9561C138.866 79.0547 138.768 79.1204 138.662 79.1204C138.646 79.1204 138.63 79.1204 138.613 79.1204V79.104ZM128.211 77.8308C128.211 77.7076 128.293 77.6008 128.415 77.5844C128.537 77.5844 128.643 77.6665 128.659 77.7897C128.659 77.9129 128.578 78.0197 128.456 78.0361H128.431C128.325 78.0361 128.228 77.9458 128.219 77.8308H128.211ZM138.67 77.5762V77.5597C138.67 77.4365 138.776 77.3379 138.898 77.3462C139.021 77.3462 139.118 77.4612 139.11 77.5762V77.5926C139.11 77.7158 139.004 77.8144 138.882 77.8061C138.76 77.8061 138.662 77.6912 138.67 77.5762ZM128.456 76.7137C128.333 76.689 128.252 76.5822 128.268 76.459C128.293 76.3358 128.407 76.2537 128.529 76.2783C128.651 76.2947 128.733 76.4097 128.708 76.5329C128.692 76.6479 128.594 76.7301 128.48 76.7219H128.456V76.7137ZM138.564 76.2947C138.54 76.1797 138.613 76.0565 138.735 76.0319C138.858 76.0072 138.972 76.0812 139.004 76.2044C139.029 76.3276 138.955 76.4426 138.833 76.4754H138.776C138.678 76.4754 138.589 76.4015 138.573 76.303H138.564V76.2947ZM128.773 75.424C128.659 75.3747 128.61 75.2433 128.659 75.1283C128.708 75.0133 128.839 74.964 128.953 75.0133C129.067 75.0626 129.115 75.194 129.067 75.309C129.026 75.3912 128.936 75.4487 128.855 75.4405C128.83 75.4405 128.806 75.4405 128.773 75.424ZM138.149 75.1037C138.092 74.9887 138.141 74.8572 138.247 74.7997C138.361 74.7422 138.491 74.7833 138.548 74.8983C138.605 75.0133 138.564 75.1447 138.45 75.2022C138.41 75.2187 138.377 75.2269 138.344 75.2269C138.271 75.2269 138.19 75.1776 138.157 75.1037H138.149ZM129.409 74.2658C129.311 74.1837 129.295 74.044 129.368 73.9455C129.441 73.8551 129.588 73.8305 129.678 73.9126C129.775 73.9865 129.792 74.1262 129.718 74.2248C129.669 74.2823 129.604 74.3151 129.531 74.3069C129.49 74.3069 129.441 74.2905 129.401 74.2576L129.409 74.2658ZM137.448 74.044C137.367 73.9537 137.375 73.8058 137.473 73.7237C137.571 73.6415 137.709 73.6498 137.791 73.7483C137.872 73.8387 137.864 73.9865 137.766 74.0687C137.717 74.1098 137.66 74.1262 137.611 74.1262C137.554 74.1262 137.489 74.1015 137.448 74.0523V74.044ZM130.305 73.2966C130.231 73.198 130.248 73.0583 130.345 72.9844C130.443 72.9105 130.582 72.9269 130.655 73.0255C130.728 73.1241 130.712 73.2719 130.614 73.3376C130.565 73.3705 130.517 73.3869 130.468 73.3869C130.411 73.3869 130.345 73.3541 130.305 73.2966ZM136.512 73.198C136.406 73.1323 136.389 72.9844 136.455 72.8858C136.52 72.7791 136.666 72.7544 136.764 72.8283C136.87 72.9023 136.895 73.0419 136.821 73.1405C136.772 73.2062 136.699 73.2391 136.626 73.2308C136.585 73.2308 136.544 73.2308 136.504 73.1898L136.512 73.198ZM131.413 72.5819C131.364 72.4669 131.413 72.3355 131.527 72.2862C131.641 72.2369 131.771 72.2862 131.82 72.4094C131.869 72.5244 131.82 72.6558 131.698 72.7051C131.665 72.7216 131.632 72.7298 131.608 72.7216C131.527 72.7216 131.445 72.6641 131.413 72.5819ZM135.396 72.6148C135.282 72.5655 135.225 72.4423 135.265 72.3273C135.306 72.2123 135.436 72.1548 135.55 72.1958C135.673 72.2369 135.73 72.3683 135.681 72.4833C135.648 72.5819 135.559 72.6394 135.461 72.6312C135.436 72.6312 135.412 72.6312 135.396 72.6148ZM132.659 72.1712C132.643 72.048 132.724 71.933 132.846 71.9166C132.968 71.9001 133.082 71.9823 133.099 72.1055C133.115 72.2287 133.034 72.3437 132.911 72.3601H132.871C132.773 72.3601 132.675 72.278 132.659 72.1712ZM134.174 72.3273C134.052 72.3108 133.962 72.2041 133.978 72.0808C133.995 71.9576 134.101 71.8673 134.223 71.8837C134.345 71.9001 134.435 72.0069 134.418 72.1301C134.402 72.2451 134.304 72.3355 134.19 72.3355H134.174V72.3273Z" fill="#FDEDE5"/>
<path d="M83.9315 42.6165C83.8827 43.7829 82.9053 44.6865 81.7488 44.6372C80.5923 44.5879 79.6964 43.6022 79.7453 42.4358C79.7942 41.2693 80.7715 40.3658 81.928 40.4151C83.0845 40.4644 83.9804 41.4501 83.9315 42.6165Z" fill="#031119"/>
<path d="M81.1057 59.9485C81.1057 59.9485 86.0745 60.811 89.0802 54.3464L87.8666 51.5289C87.4511 50.5679 86.3433 50.1325 85.3984 50.5597L82.4742 51.8821C81.8307 52.1696 81.4071 52.8021 81.3745 53.5168L81.1057 59.9403V59.9485Z" fill="#1A2D3C"/>
<path d="M82.2215 43.5119C82.1726 43.3804 81.9772 43.4297 82.0016 43.5694L83.3291 52.9007C83.3617 53.1143 83.492 53.295 83.6875 53.3853C83.883 53.4757 84.1029 53.4675 84.2902 53.3525L84.8359 53.0157C85.2919 52.7364 85.4874 52.1696 85.2919 51.6686L82.2215 43.5036V43.5119Z" fill="#031119"/>
<path d="M155.035 45.6722C154.986 46.8386 155.882 47.8243 157.039 47.8736C158.195 47.9229 159.173 47.0193 159.221 45.8529C159.27 44.6865 158.374 43.7008 157.218 43.6515C156.061 43.6022 155.084 44.5058 155.035 45.6722Z" fill="#031119"/>
<path d="M156.387 63.1848C156.387 63.1848 151.37 63.612 148.91 56.9256L150.351 54.2231C150.84 53.3031 151.989 52.9664 152.893 53.4756L155.695 55.0446C156.314 55.3896 156.68 56.0549 156.648 56.7613L156.379 63.1848H156.387Z" fill="#1A2D3C"/>
<path d="M156.892 46.7975L154.79 55.9399C154.742 56.1617 154.587 56.3342 154.375 56.4164C154.163 56.4903 153.935 56.4656 153.756 56.326L153.276 55.9728C152.844 55.6607 152.706 55.0774 152.934 54.5928L156.68 46.7236C156.737 46.6004 156.932 46.6661 156.9 46.7975H156.892Z" fill="#031119"/>
<path d="M95.2872 62.7577C94.1549 62.7084 93.2263 61.7967 93.1693 60.6302C93.1123 59.3981 94.0572 58.3549 95.279 58.2974C111.44 57.5499 126.151 58.1331 140.267 60.0881C141.481 60.2524 142.328 61.386 142.165 62.6099C142.002 63.8338 140.886 64.6881 139.664 64.5238C125.825 62.6099 111.375 62.0349 95.4908 62.7742H95.2953V62.7577H95.2872Z" fill="#031119"/>
<path d="M116.832 86.6693C107.88 86.2832 98.8796 85.4536 89.8868 84.1639C86.5879 83.6957 84.2175 80.6318 84.3641 77.0504L84.5189 73.428C84.6655 69.8712 87.2721 67.0291 90.5629 66.8155C110.006 65.5752 127.528 66.2981 144.128 69.0252C147.338 69.5509 149.651 72.6066 149.504 76.1222L149.35 79.8679C149.195 83.4493 146.588 86.2914 143.273 86.4804C134.557 86.9896 125.719 87.0553 116.824 86.6693H116.832ZM118.804 66.873C109.811 66.487 100.452 66.6102 90.5955 67.2427C87.5083 67.4398 85.0809 70.1094 84.9424 73.4526L84.7877 77.0751C84.6492 80.4429 86.8648 83.3179 89.952 83.7532C107.856 86.3079 125.793 87.08 143.265 86.0614C146.36 85.8807 148.804 83.2111 148.942 79.8515L149.097 76.1058C149.236 72.8037 147.077 69.9369 144.071 69.4441C135.909 68.1052 127.528 67.2427 118.804 66.873Z" fill="#C9D6E0"/>
<path opacity="0.9" d="M130.166 126.82C131.429 135.338 125.369 143.167 116.62 144.3C107.88 145.434 99.7671 139.446 98.5045 130.927C97.2419 122.409 103.302 114.581 112.051 113.448C120.791 112.314 128.904 118.302 130.166 126.82Z" fill="white"/>
<path d="M124.277 122.253L119.382 122.376L119.268 117.867C119.235 116.692 118.185 115.764 116.906 115.797L110.039 115.969C108.76 116.002 107.75 116.98 107.783 118.154L107.897 122.664L103.001 122.787C101.722 122.82 100.712 123.798 100.745 124.972L100.9 131.297C100.932 132.472 101.983 133.4 103.262 133.367L108.157 133.244L108.271 137.753C108.304 138.928 109.355 139.856 110.634 139.823L117.5 139.651C118.779 139.618 119.789 138.641 119.757 137.466L119.643 132.956L124.538 132.833C125.817 132.8 126.827 131.823 126.794 130.648L126.64 124.323C126.607 123.149 125.556 122.22 124.277 122.253Z" fill="#A4BBCC"/>
<path d="M110.592 138.567C110.071 138.583 109.639 138.197 109.623 137.721L109.485 131.954L103.221 132.11C102.699 132.127 102.268 131.741 102.251 131.264L102.097 124.939C102.097 124.463 102.496 124.06 103.017 124.044L109.281 123.888L109.143 118.121C109.143 117.645 109.542 117.243 110.063 117.226L116.93 117.054C117.451 117.037 117.883 117.423 117.899 117.9L118.037 123.666L124.301 123.51C124.823 123.494 125.255 123.88 125.271 124.356L125.426 130.681C125.426 131.157 125.026 131.56 124.505 131.576L118.241 131.732L118.38 137.499C118.38 137.975 117.98 138.378 117.459 138.394L110.592 138.567Z" fill="#E83D1F"/>
<path d="M229.412 52.0464H165.535V26.221C165.535 24.6192 166.822 23.3213 168.41 23.3213L229.135 22.2864C231.001 22.2535 232.524 23.7649 232.524 25.646V48.9086C232.524 50.6418 231.131 52.0464 229.412 52.0464Z" fill="#5C85A3"/>
<path d="M168.296 43.6433C168.223 43.6433 168.158 43.5776 168.158 43.5036V37.573C168.158 37.4991 168.223 37.4333 168.296 37.4333C168.369 37.4333 168.435 37.4991 168.435 37.573V43.5036C168.435 43.5776 168.369 43.6433 168.296 43.6433Z" fill="white"/>
<path d="M226.912 49.4672H219.54C219.467 49.4672 219.401 49.4015 219.401 49.3275C219.401 49.2536 219.467 49.1879 219.54 49.1879H226.912C228.411 49.1879 229.632 48.1036 229.632 46.7647V41.5733C229.632 41.4994 229.698 41.4337 229.771 41.4337C229.844 41.4337 229.909 41.4994 229.909 41.5733V46.7647C229.909 48.2515 228.565 49.4672 226.912 49.4672Z" fill="white"/>
<path d="M229.762 39.7662C229.689 39.7662 229.624 39.7005 229.624 39.6265V30.7223C229.624 30.6484 229.689 30.5827 229.762 30.5827C229.836 30.5827 229.901 30.6484 229.901 30.7223V39.6265C229.901 39.7005 229.836 39.7662 229.762 39.7662Z" fill="white"/>
<path d="M186.876 25.761C186.803 25.761 186.738 25.7035 186.738 25.6213C186.738 25.5392 186.795 25.4817 186.876 25.4817L201.221 25.2599C201.294 25.2599 201.359 25.3174 201.359 25.3996C201.359 25.4817 201.302 25.5392 201.221 25.5392L186.876 25.761Z" fill="white"/>
<path d="M168.296 35.9055C168.223 35.9055 168.158 35.8398 168.158 35.7659V28.2334C168.158 26.8535 169.404 25.7281 170.935 25.7281L183.357 25.5392C183.431 25.5392 183.496 25.5967 183.496 25.6788C183.496 25.761 183.439 25.8185 183.357 25.8185L170.935 26.0074C169.551 26.0074 168.435 27.0095 168.435 28.2417V35.7741C168.435 35.848 168.369 35.9137 168.296 35.9137V35.9055Z" fill="white"/>
<path d="M165.535 46.1404L165.356 57.3446C165.356 57.7717 165.844 58.0017 166.17 57.7307L174.316 51.0032L165.543 46.1404H165.535Z" fill="#5C85A3"/>
<path d="M225.633 29.6216H171.62C171.444 29.6216 171.302 29.765 171.302 29.942V31.6834C171.302 31.8603 171.444 32.0037 171.62 32.0037H225.633C225.808 32.0037 225.951 31.8603 225.951 31.6834V29.942C225.951 29.765 225.808 29.6216 225.633 29.6216Z" fill="#C9D6E0"/>
<path d="M190.525 36.382H171.62C171.444 36.382 171.302 36.5254 171.302 36.7023V38.4437C171.302 38.6206 171.444 38.7641 171.62 38.7641H190.525C190.701 38.7641 190.843 38.6206 190.843 38.4437V36.7023C190.843 36.5254 190.701 36.382 190.525 36.382Z" fill="#C9D6E0"/>
<path d="M225.633 42.9287H208.104C207.928 42.9287 207.786 43.0721 207.786 43.249V44.9904C207.786 45.1674 207.928 45.3108 208.104 45.3108H225.633C225.808 45.3108 225.951 45.1674 225.951 44.9904V43.249C225.951 43.0721 225.808 42.9287 225.633 42.9287Z" fill="#C9D6E0"/>
<path d="M225.633 36.4887H193.906C193.73 36.4887 193.588 36.6322 193.588 36.8091V38.5505C193.588 38.7274 193.73 38.8709 193.906 38.8709H225.633C225.808 38.8709 225.95 38.7274 225.95 38.5505V36.8091C225.95 36.6322 225.808 36.4887 225.633 36.4887Z" fill="#C9D6E0"/>
<path d="M205.326 42.9287H171.62C171.444 42.9287 171.302 43.0721 171.302 43.249V44.9904C171.302 45.1674 171.444 45.3108 171.62 45.3108H205.326C205.501 45.3108 205.644 45.1674 205.644 44.9904V43.249C205.644 43.0721 205.501 42.9287 205.326 42.9287Z" fill="#C9D6E0"/>
<g filter="url(#filter1_d_21_1976)">
<path d="M78.0324 187.321C79.5468 173.916 69.9402 161.804 56.5756 160.268C43.2111 158.733 31.1493 168.355 29.635 181.76C28.1206 195.165 37.7272 207.277 51.0917 208.813C64.4563 210.348 76.5181 200.726 78.0324 187.321Z" fill="white"/>
<path d="M77.2312 187.211C78.6957 174.247 69.4074 162.535 56.4853 161.05C43.5632 159.565 31.9006 168.87 30.4362 181.834C28.9718 194.797 38.26 206.51 51.1821 207.994C64.1042 209.479 75.7668 200.174 77.2312 187.211Z" fill="#EE814A"/>
<path opacity="0.8" d="M75.4933 186.012H75.477C75.3222 186.004 75.2082 185.872 75.2164 185.716C75.2734 184.813 75.2652 183.893 75.2164 182.997C75.2164 182.841 75.3222 182.71 75.477 182.702C75.6317 182.685 75.762 182.808 75.7702 182.964C75.8272 183.893 75.8353 184.829 75.7702 185.757C75.7702 185.905 75.6399 186.02 75.4933 186.02V186.012Z" fill="white"/>
<path opacity="0.8" d="M74.1899 177.149C74.0759 177.149 73.97 177.083 73.9293 176.968C71.0946 169.296 64.3012 163.949 56.2044 163.029C54.9093 162.881 53.606 162.848 52.319 162.938C52.1724 162.955 52.0339 162.831 52.0257 162.675C52.0176 162.519 52.1316 162.388 52.2864 162.38C53.606 162.289 54.95 162.322 56.2696 162.478C64.5781 163.431 71.5426 168.91 74.4506 176.779C74.5076 176.927 74.4343 177.083 74.2877 177.141C74.2551 177.149 74.2225 177.157 74.1899 177.157V177.149Z" fill="white"/>
<path opacity="0.8" d="M73.0738 187.284C74.3134 176.313 66.4516 166.4 55.5141 165.144C44.5766 163.887 34.7051 171.762 33.4655 182.733C32.226 193.704 40.0877 203.617 51.0253 204.873C61.9628 206.13 71.8343 198.255 73.0738 187.284Z" fill="white"/>
<path d="M37.7547 173.723C37.7384 174.233 37.7547 174.742 37.7954 175.251C37.828 175.761 37.8769 176.27 37.9502 176.771C38.0968 177.781 38.2923 178.783 38.6019 179.769C38.7566 180.262 38.9358 180.747 39.1313 181.223C39.335 181.699 39.563 182.168 39.8237 182.628C40.3532 183.531 41.013 184.385 41.8357 185.084L41.9904 185.215L42.1533 185.338C42.2592 185.42 42.3651 185.503 42.4792 185.577C42.7154 185.724 42.9435 185.88 43.196 185.995L43.3833 186.086L43.4729 186.135L43.5707 186.176L43.9535 186.332C44.0839 186.382 44.2142 186.414 44.3445 186.464C44.4748 186.505 44.6052 186.546 44.7355 186.57C45.7863 186.825 46.8534 186.907 47.896 186.874C48.9386 186.842 49.965 186.727 50.9832 186.57C51.9932 186.406 52.987 186.201 53.9808 185.979C55.952 185.535 57.8906 185.018 59.7967 184.657C60.2773 184.566 60.7497 184.492 61.214 184.443L61.5643 184.41L61.9064 184.385C62.0205 184.377 62.1345 184.369 62.2567 184.369C62.3789 184.369 62.4929 184.361 62.6069 184.369C63.5355 184.369 64.4478 184.451 65.2868 184.706C65.7023 184.837 66.1014 184.993 66.4761 185.199C66.8427 185.404 67.2011 185.642 67.5187 185.922C68.1704 186.48 68.6999 187.203 69.156 188.008C69.3759 188.419 69.5796 188.846 69.7669 189.281L69.9054 189.618C69.9543 189.733 69.995 189.84 70.0357 189.955L70.1661 190.3C70.2068 190.415 70.2475 190.53 70.2882 190.645C70.3697 190.875 70.443 191.113 70.5245 191.351C70.6059 191.589 70.6711 191.828 70.7444 192.066L70.9562 192.789C71.0295 193.035 71.0947 193.273 71.1761 193.52C71.1761 193.553 71.2168 193.561 71.2413 193.553C71.2576 193.553 71.2739 193.528 71.2739 193.511C71.3064 193.257 71.3227 192.994 71.3472 192.739C71.3472 192.485 71.3716 192.222 71.3716 191.967C71.3716 191.45 71.3553 190.932 71.2983 190.415C71.2494 189.897 71.1598 189.38 71.0539 188.854C70.9318 188.337 70.7851 187.819 70.5896 187.318C70.3941 186.809 70.1498 186.316 69.8565 185.839C69.7832 185.724 69.7018 185.609 69.6203 185.486L69.3678 185.149C69.1886 184.928 69.0012 184.714 68.7976 184.517C67.983 183.712 66.9323 183.137 65.857 182.825C64.7818 182.513 63.6822 182.414 62.6151 182.43C62.4848 182.43 62.3463 182.43 62.216 182.439C62.0856 182.439 61.9472 182.447 61.8168 182.463L61.4177 182.496L61.0185 182.545C60.4972 182.611 59.9759 182.702 59.4709 182.808C58.4608 183.014 57.4752 183.26 56.4977 183.515L53.5979 184.279C52.6367 184.525 51.6755 184.763 50.7225 184.952C49.7613 185.141 48.8083 185.297 47.8553 185.363C46.9022 185.437 45.9573 185.412 45.0613 185.24C44.9473 185.223 44.8414 185.19 44.7274 185.166C44.6215 185.133 44.5074 185.117 44.4015 185.084L44.0838 184.977L44.0024 184.952L43.9291 184.919L43.7743 184.854C43.5625 184.772 43.3752 184.657 43.1797 184.558C43.0819 184.5 42.9923 184.435 42.8946 184.369L42.748 184.279L42.6095 184.172C42.2348 183.901 41.8927 183.58 41.575 183.244C41.2492 182.907 40.9641 182.521 40.6871 182.135C40.4183 181.74 40.174 181.322 39.9377 180.894C39.7178 180.459 39.5142 180.016 39.3268 179.564C39.1476 179.104 38.9766 178.644 38.8218 178.167C38.6752 177.691 38.5367 177.214 38.4227 176.73C38.1864 175.761 37.9991 174.775 37.8932 173.773C37.8932 173.74 37.8688 173.723 37.8362 173.723C37.8036 173.723 37.7873 173.748 37.7873 173.773L37.7547 173.723Z" fill="#F3A57E"/>
<path d="M51.1135 185.864C51.1135 185.864 51.1135 185.848 51.1298 185.839L54.0129 181.018C54.0862 180.894 54.0455 180.738 53.9315 180.664C53.8093 180.591 53.6546 180.632 53.5813 180.755L50.6981 185.577C50.6248 185.7 50.6656 185.856 50.7796 185.93C50.8936 185.995 51.0402 185.971 51.1135 185.864Z" fill="#F3A57E"/>
<path d="M47.9203 186.25C47.9203 186.25 47.9203 186.242 47.9203 186.234L53.0431 178.2C53.1164 178.077 53.0838 177.921 52.9698 177.847C52.8477 177.773 52.6929 177.806 52.6196 177.929L47.4968 185.963C47.4235 186.086 47.4561 186.242 47.5701 186.316C47.6841 186.39 47.8307 186.357 47.9121 186.25H47.9203Z" fill="#F3A57E"/>
<path d="M52.5879 175.145C52.6775 175.03 52.653 174.865 52.5472 174.775C52.4331 174.693 52.2702 174.717 52.1806 174.832L44.2061 185.445C44.1165 185.56 44.1327 185.724 44.2468 185.815C44.3608 185.897 44.5237 185.872 44.6133 185.757L52.5879 175.145Z" fill="#F3A57E"/>
<path d="M51.3335 173.05C51.415 172.935 51.3987 172.779 51.2928 172.688C51.1788 172.598 51.024 172.623 50.9344 172.738L41.8928 184.361C41.8032 184.476 41.8276 184.632 41.9335 184.722C42.0476 184.813 42.2023 184.788 42.2919 184.673L51.3335 173.05Z" fill="#F3A57E"/>
<path d="M40.7686 183.014L49.2318 171.169C49.3133 171.054 49.2889 170.89 49.1748 170.807C49.0608 170.725 48.8979 170.75 48.8164 170.865L40.3531 182.71C40.2717 182.825 40.2961 182.989 40.4102 183.071C40.5242 183.153 40.679 183.129 40.7604 183.014H40.7686Z" fill="#F3A57E"/>
<path d="M39.4407 180.566L46.7148 170.191C46.7962 170.076 46.7718 169.912 46.6577 169.83C46.5437 169.748 46.3889 169.772 46.2993 169.896L39.0253 180.27C38.9439 180.385 38.9683 180.549 39.0823 180.632C39.1964 180.714 39.3511 180.689 39.4326 180.574H39.4407V180.566Z" fill="#F3A57E"/>
<path d="M38.7975 177.905C38.7975 177.905 38.7975 177.896 38.7975 177.888L43.8552 169.986C43.9285 169.871 43.8959 169.715 43.7737 169.633C43.6597 169.559 43.4968 169.592 43.4235 169.707L38.3659 177.609C38.2926 177.724 38.3251 177.88 38.4473 177.962C38.5613 178.036 38.7079 178.011 38.7894 177.905H38.7975Z" fill="#F3A57E"/>
<path d="M62.1507 183.572C62.224 183.474 62.2159 183.334 62.1344 183.235C62.0367 183.137 61.8738 183.129 61.776 183.235L54.8767 189.914C54.7708 190.012 54.7708 190.176 54.8767 190.275C54.9745 190.374 55.1374 190.382 55.2351 190.275L62.1344 183.597C62.1344 183.589 62.1507 183.58 62.1589 183.564L62.1507 183.572Z" fill="#F3A57E"/>
<path d="M64.3827 183.597C64.4642 183.49 64.4479 183.334 64.342 183.244C64.2361 183.153 64.0732 183.17 63.9836 183.277L55.8461 193.043C55.7565 193.15 55.7647 193.314 55.8787 193.405C55.9846 193.495 56.1475 193.479 56.2371 193.372L64.3746 183.605L64.3827 183.597Z" fill="#F3A57E"/>
<path d="M66.6878 184.238C66.7693 184.123 66.753 183.967 66.6471 183.876C66.5331 183.786 66.3783 183.81 66.2887 183.925L56.9375 195.951C56.8479 196.066 56.8724 196.222 56.9783 196.312C57.0923 196.403 57.2471 196.378 57.3367 196.263L66.6878 184.238Z" fill="#F3A57E"/>
<path d="M59.0881 198.506C58.974 198.424 58.9496 198.259 59.0311 198.144C61.491 194.719 67.8772 185.807 68.1704 185.338C68.1867 185.314 68.203 185.289 68.2193 185.264C68.317 185.166 68.48 185.166 68.5777 185.264C68.7325 185.42 68.6266 185.568 68.5044 185.741C68.4392 185.839 68.3415 185.979 68.2193 186.152C67.9668 186.505 67.6165 187.006 67.1848 187.614C66.4273 188.682 65.3683 190.168 64.0324 192.025C61.7354 195.228 59.4383 198.432 59.4383 198.432C59.3569 198.547 59.194 198.571 59.0881 198.489V198.506ZM68.2193 185.634C68.203 185.618 68.1867 185.601 68.1786 185.577C68.1786 185.593 68.203 185.618 68.2193 185.634ZM68.146 185.437C68.146 185.412 68.146 185.379 68.1623 185.355C68.1623 185.379 68.146 185.404 68.146 185.437Z" fill="#F3A57E"/>
<path d="M62.3952 199.459C62.3952 199.459 62.3952 199.442 62.4115 199.434L69.8647 187.055C69.938 186.932 69.8973 186.776 69.7833 186.702C69.6611 186.628 69.5063 186.669 69.433 186.792L61.9798 199.171C61.9065 199.294 61.9472 199.45 62.0612 199.524C62.1753 199.59 62.3219 199.565 62.3952 199.459Z" fill="#F3A57E"/>
<path d="M66.2561 199.919C66.2561 199.902 66.2806 199.886 66.2887 199.869L70.8251 189.881C70.8821 189.749 70.8251 189.602 70.703 189.536C70.5726 189.478 70.4261 189.536 70.3609 189.667L65.8245 199.656C65.7674 199.787 65.8245 199.935 65.9466 200.001C66.0606 200.05 66.1828 200.017 66.2561 199.919Z" fill="#F3A57E"/>
<path d="M39.6039 170.775C40.6139 170.536 41.6403 170.38 42.6585 170.323C43.6685 170.265 44.6786 170.298 45.6479 170.471C46.1285 170.553 46.6009 170.676 47.0571 170.832C47.5132 170.988 47.9531 171.185 48.3604 171.415C48.7758 171.653 49.1587 171.916 49.5171 172.228C49.8755 172.532 50.2094 172.877 50.5108 173.247C51.1136 173.986 51.5942 174.849 51.9607 175.769C52.0585 175.999 52.1318 176.229 52.2214 176.467C52.2947 176.705 52.3762 176.943 52.4413 177.182C52.5798 177.666 52.6857 178.159 52.7916 178.652C52.8323 178.898 52.8893 179.153 52.9219 179.399L52.9789 179.777L53.0278 180.163L53.2314 181.724L53.6387 184.845C53.9238 186.932 54.2171 189.027 54.6977 191.105C54.942 192.14 55.2353 193.175 55.6263 194.185C56.0254 195.187 56.5467 196.165 57.2391 197.019C57.9315 197.873 58.8112 198.571 59.7887 199.056C60.7661 199.541 61.8088 199.812 62.8596 199.96C63.9103 200.116 64.9611 200.132 66.0119 200.099C66.5332 200.083 67.0545 200.042 67.5759 199.992C68.0972 199.943 68.6103 199.877 69.1317 199.804C69.1561 199.804 69.1805 199.771 69.1724 199.746C69.1724 199.721 69.148 199.697 69.1154 199.705C68.0809 199.762 67.0382 199.779 66.0119 199.746C65.4987 199.73 64.9856 199.689 64.4724 199.639C63.9592 199.582 63.4542 199.508 62.9573 199.409C61.9635 199.204 60.9942 198.892 60.1308 198.399C59.2673 197.914 58.518 197.257 57.9315 196.469C57.345 195.68 56.9133 194.768 56.5711 193.815C56.229 192.863 55.9847 191.869 55.781 190.858C55.5774 189.848 55.4308 188.821 55.2841 187.786C55.1457 186.751 55.0235 185.716 54.9013 184.673L54.5429 181.543C54.4859 181.018 54.4207 180.5 54.3555 179.974L54.3067 179.58L54.2496 179.178C54.2171 178.907 54.1682 178.644 54.1193 178.373C54.0216 177.839 53.9075 177.305 53.7609 176.779C53.6957 176.516 53.6061 176.253 53.5247 175.991C53.4351 175.728 53.3455 175.473 53.2396 175.218C52.8405 174.192 52.2947 173.206 51.586 172.327C51.2276 171.892 50.8285 171.489 50.3968 171.128C49.9569 170.775 49.4845 170.454 48.9794 170.2C47.9694 169.69 46.8697 169.403 45.7782 169.321C44.6867 169.238 43.5952 169.337 42.5444 169.567C42.0231 169.682 41.5099 169.83 41.0049 170.011C40.508 170.191 40.0111 170.397 39.5468 170.66C39.5224 170.676 39.5143 170.709 39.5224 170.733C39.5224 170.758 39.555 170.766 39.5794 170.758L39.6039 170.775Z" fill="#F3A57E"/>
</g>
<g filter="url(#filter2_d_21_1976)">
<path d="M30.0572 136.472C43.2069 136.472 53.8668 125.722 53.8668 112.462C53.8668 99.2016 43.2069 88.4519 30.0572 88.4519C16.9075 88.4519 6.24762 99.2016 6.24762 112.462C6.24762 125.722 16.9075 136.472 30.0572 136.472Z" fill="white"/>
<path d="M30.0571 135.675C42.7704 135.675 53.0766 125.282 53.0766 112.462C53.0766 99.6416 42.7704 89.2486 30.0571 89.2486C17.3438 89.2486 7.03766 99.6416 7.03766 112.462C7.03766 125.282 17.3438 135.675 30.0571 135.675Z" fill="#EE814A"/>
<path d="M8.83785 111.567H8.82156C8.69125 111.567 8.58537 111.443 8.59352 111.312C8.64239 110.4 8.74826 109.48 8.90301 108.593C8.92744 108.462 9.0496 108.371 9.18806 108.396C9.31837 108.421 9.40796 108.544 9.38352 108.683C9.22878 109.554 9.12291 110.449 9.08218 111.345C9.08218 111.476 8.96816 111.575 8.83785 111.575V111.567Z" fill="#C9D6E0"/>
<path d="M11.0697 103.065C11.029 103.065 10.9964 103.065 10.9638 103.04C10.8416 102.983 10.7928 102.835 10.8579 102.712C14.5397 95.3599 21.8952 90.7928 30.0571 90.7928C38.219 90.7928 32.6637 90.9078 33.9344 91.1461C34.0648 91.1707 34.1544 91.2939 34.1299 91.4335C34.1055 91.565 33.9833 91.6553 33.8448 91.6307C32.5985 91.4007 31.3278 91.2857 30.0571 91.2857C22.0826 91.2857 14.89 95.7542 11.2897 102.933C11.2489 103.016 11.1593 103.065 11.0697 103.065Z" fill="#C9D6E0"/>
<path opacity="0.8" d="M44.3293 126.856C51.9379 119.182 51.9379 106.741 44.3293 99.067C36.7208 91.3933 24.385 91.3933 16.7764 99.067C9.16793 106.741 9.16792 119.182 16.7764 126.856C24.385 134.53 36.7208 134.53 44.3293 126.856Z" fill="white"/>
<path d="M43.9776 114.088C44.336 113.259 44.3197 112.372 44.0183 111.591C43.7169 110.811 43.1141 110.154 42.2914 109.801C40.6542 109.086 38.7481 109.842 38.0394 111.501L35.7587 116.807C37.4937 118.097 39.4731 119.017 41.4769 119.912L43.9776 114.097V114.088Z" fill="#A4BBCC"/>
<path d="M42.2267 118.163L40.4754 122.229C39.7667 123.88 37.8606 124.644 36.2234 123.929C35.4007 123.568 34.806 122.91 34.4965 122.138C34.1951 121.358 34.1788 120.471 34.5372 119.641L36.2885 115.575L42.2267 118.171V118.163Z" fill="#5C85A3"/>
<path d="M34.4639 99.8778L28.7701 100.034V106.564L34.6431 106.4C35.5391 106.375 36.3373 105.989 36.9075 105.381C37.4777 104.773 37.8198 103.952 37.7954 103.048C37.7465 101.25 36.2559 99.8285 34.472 99.8778H34.4639Z" fill="url(#paint0_linear_21_1976)"/>
<path d="M30.2445 106.523L25.8459 106.646C24.062 106.696 22.5713 105.275 22.5225 103.476C22.498 102.572 22.8401 101.751 23.4103 101.143C23.9805 100.535 24.7788 100.149 25.6748 100.124L30.0734 100.001L30.2526 106.523H30.2445Z" fill="url(#paint1_linear_21_1976)"/>
<path d="M28.4443 118.803L23.1089 116.372C22.1233 118.302 21.1132 120.249 20.3068 122.253L25.7807 124.75C26.5952 125.12 27.4831 125.128 28.2569 124.833C29.0308 124.537 29.6987 123.945 30.0653 123.124C30.7984 121.481 30.0815 119.551 28.4524 118.803H28.4443Z" fill="url(#paint2_linear_21_1976)"/>
<path d="M21.7731 122.919L17.7655 121.095C16.1363 120.356 15.4114 118.417 16.1526 116.774C16.5192 115.953 17.1871 115.362 17.9609 115.066C18.7348 114.77 19.6226 114.778 20.4372 115.148L24.4448 116.972L21.7812 122.919H21.7731Z" fill="url(#paint3_linear_21_1976)"/>
</g>
<defs>
<filter id="filter0_d_21_1976" x="15.2928" y="17.7501" width="57.7519" height="60.8331" filterUnits="userSpaceOnUse" color-interpolation-filters="sRGB">
<feFlood flood-opacity="0" result="BackgroundImageFix"/>
<feColorMatrix in="SourceAlpha" type="matrix" values="0 0 0 0 0 0 0 0 0 0 0 0 0 0 0 0 0 0 127 0" result="hardAlpha"/>
<feOffset dy="4"/>
<feGaussianBlur stdDeviation="2.8"/>
<feComposite in2="hardAlpha" operator="out"/>
<feColorMatrix type="matrix" values="0 0 0 0 0 0 0 0 0 0 0 0 0 0 0 0 0 0 0.08 0"/>
<feBlend mode="normal" in2="BackgroundImageFix" result="effect1_dropShadow_21_1976"/>
<feBlend mode="normal" in="SourceGraphic" in2="effect1_dropShadow_21_1976" result="shape"/>
</filter>
<filter id="filter1_d_21_1976" x="23.8779" y="158.507" width="59.9115" height="60.0662" filterUnits="userSpaceOnUse" color-interpolation-filters="sRGB">
<feFlood flood-opacity="0" result="BackgroundImageFix"/>
<feColorMatrix in="SourceAlpha" type="matrix" values="0 0 0 0 0 0 0 0 0 0 0 0 0 0 0 0 0 0 127 0" result="hardAlpha"/>
<feOffset dy="4"/>
<feGaussianBlur stdDeviation="2.8"/>
<feComposite in2="hardAlpha" operator="out"/>
<feColorMatrix type="matrix" values="0 0 0 0 0 0 0 0 0 0 0 0 0 0 0 0 0 0 0.08 0"/>
<feBlend mode="normal" in2="BackgroundImageFix" result="effect1_dropShadow_21_1976"/>
<feBlend mode="normal" in="SourceGraphic" in2="effect1_dropShadow_21_1976" result="shape"/>
</filter>
<filter id="filter2_d_21_1976" x="0.64762" y="86.8519" width="58.8192" height="59.2203" filterUnits="userSpaceOnUse" color-interpolation-filters="sRGB">
<feFlood flood-opacity="0" result="BackgroundImageFix"/>
<feColorMatrix in="SourceAlpha" type="matrix" values="0 0 0 0 0 0 0 0 0 0 0 0 0 0 0 0 0 0 127 0" result="hardAlpha"/>
<feOffset dy="4"/>
<feGaussianBlur stdDeviation="2.8"/>
<feComposite in2="hardAlpha" operator="out"/>
<feColorMatrix type="matrix" values="0 0 0 0 0 0 0 0 0 0 0 0 0 0 0 0 0 0 0.08 0"/>
<feBlend mode="normal" in2="BackgroundImageFix" result="effect1_dropShadow_21_1976"/>
<feBlend mode="normal" in="SourceGraphic" in2="effect1_dropShadow_21_1976" result="shape"/>
</filter>
<linearGradient id="paint0_linear_21_1976" x1="28.7701" y1="103.221" x2="37.7873" y2="103.221" gradientUnits="userSpaceOnUse">
<stop stop-color="#E1473D"/>
<stop offset="1" stop-color="#E9605A"/>
</linearGradient>
<linearGradient id="paint1_linear_21_1976" x1="21.1947" y1="109.332" x2="39.589" y2="91.67" gradientUnits="userSpaceOnUse">
<stop stop-color="#FE7062"/>
<stop offset="1" stop-color="#FF928E"/>
</linearGradient>
<linearGradient id="paint2_linear_21_1976" x1="20.3068" y1="120.709" x2="30.3503" y2="120.709" gradientUnits="userSpaceOnUse">
<stop stop-color="#E1473D"/>
<stop offset="1" stop-color="#E9605A"/>
</linearGradient>
<linearGradient id="paint3_linear_21_1976" x1="13.8556" y1="122.82" x2="33.7532" y2="110.239" gradientUnits="userSpaceOnUse">
<stop stop-color="#FE7062"/>
<stop offset="1" stop-color="#FF928E"/>
</linearGradient>
</defs>
</svg>
