<svg width="343" height="206" viewBox="0 0 343 206" fill="none" xmlns="http://www.w3.org/2000/svg">
<path d="M23.7209 204.467C50.9767 167.967 33.279 135.603 24.5465 92.3188C3.1395 23.3851 86.4883 -32.259 169.849 21.5961C221.558 55.0058 269.837 21.1896 308.628 56.2953C339.477 84.2103 308.756 143.13 308.093 169.686C307.57 190.619 325.593 204.467 325.593 204.467H23.7209Z" fill="#EDF1F5"/>
<path d="M342.395 205.837H0.604649C0.26744 205.837 0 205.57 0 205.233C0 204.896 0.26744 204.629 0.604649 204.629H342.395C342.733 204.629 343 204.896 343 205.233C343 205.57 342.733 205.837 342.395 205.837Z" fill="#031119"/>
<path d="M289.523 194.929C297.337 194.929 303.674 188.598 303.674 180.792V161.52H275.384V180.792C275.384 188.598 281.721 194.929 289.535 194.929H289.523Z" fill="#A4BBCC"/>
<path d="M305.233 176.099H303.663V206H305.233V176.099Z" fill="#1A2D3C"/>
<path d="M275.372 176.099H273.802V206H275.372V176.099Z" fill="#1A2D3C"/>
<path d="M287.372 176.099H285.802V206H287.372V176.099Z" fill="#1A2D3C"/>
<path d="M305.233 194.929H275.302V196.498H305.233V194.929Z" fill="#1A2D3C"/>
<path d="M284.814 125.136C287.454 126.542 285.372 129.992 286.454 133.268C287.535 136.544 291.884 136.462 290.244 142.317C289.233 145.93 285.651 143.665 285.733 148.358C285.814 153.051 287.593 152.935 286.209 155.339C283.802 159.545 275.605 157.187 275.547 152.493C275.477 147.8 279.419 146.209 276.093 144.025C272.767 141.841 271.442 140.853 273.628 137.729C276.337 133.86 280.535 133.976 279.36 130.968C278.186 127.947 281.326 123.277 284.826 125.136H284.814Z" fill="#B2D8A7"/>
<path d="M283.419 161.427L282.733 161.624C278.058 145.337 282.43 130.003 282.477 129.852L283.163 130.05C283.116 130.201 278.802 145.349 283.419 161.427Z" fill="#031119"/>
<path d="M319.895 121.721C321.849 125.217 316.988 127.587 315.826 132.048C314.663 136.509 319.872 137.798 313.767 143.188C310.012 146.511 309.081 144.606 308.012 151.657C307.058 157.86 302.093 152.261 298.779 156.048C294.512 160.939 286.942 151.099 290.279 145.767C293.616 140.435 297.895 141.55 295.744 136.683C293.593 131.816 295.651 127.959 300.384 126.042C306.233 123.661 308.64 128.551 309.512 124.3C310.384 120.059 317.314 117.086 319.895 121.709V121.721Z" fill="#B2D8A7"/>
<path d="M291.954 161.52C298.454 140.075 314.314 126.193 314.465 126.054L313.837 125.333C313.674 125.473 297.605 139.541 291.035 161.252L291.954 161.531V161.52Z" fill="#031119"/>
<path d="M51.0697 68.4696C51.3604 70.2237 52.3371 71.8268 53.686 72.9769C55.0348 74.127 56.7441 74.8472 58.5116 74.8472H75.0464C77.372 74.8472 79.2092 73.5926 80.0116 71.7339C80.4185 70.7814 80.5697 69.6661 80.372 68.4696C80.0813 66.7155 79.1046 65.1124 77.7674 63.9623C76.4185 62.8123 74.7092 62.092 72.9418 62.092H56.4069C55.593 62.092 54.8371 62.2431 54.1627 62.5219C51.9302 63.4512 50.6278 65.7629 51.0697 68.4696Z" fill="#80A0B8"/>
<path d="M74.1976 81.248C74.8255 81.248 75.279 80.6323 75.0813 80.0283L72.8604 73.1511C72.7325 72.7678 72.372 72.5006 71.9767 72.5006C71.3488 72.5006 70.8953 73.1163 71.093 73.7204L73.3139 80.5975C73.4418 80.9808 73.8023 81.248 74.1976 81.248Z" fill="#334A5B"/>
<path d="M63.2441 81.248C63.872 81.248 64.3255 80.6323 64.1279 80.0283L61.9069 73.1511C61.779 72.7678 61.4186 72.5006 61.0232 72.5006C60.3953 72.5006 59.9418 73.1163 60.1395 73.7204L62.3604 80.5975C62.4883 80.9808 62.8488 81.248 63.2441 81.248Z" fill="#334A5B"/>
<path d="M53.8022 65.7745C54.0929 67.5287 55.0696 69.1318 56.4185 70.2818C57.7673 71.4319 59.4766 72.1521 61.2441 72.1521H77.7789C78.5929 72.1521 79.3371 72.0011 80.0115 71.7223C80.4185 70.7697 80.5696 69.6545 80.372 68.458C80.0813 66.7039 79.1045 65.1008 77.7673 63.9507C76.4185 62.8007 74.7092 62.0804 72.9417 62.0804H56.4069C55.5929 62.0804 54.8371 62.2314 54.1627 62.5102C53.7557 63.4628 53.6045 64.578 53.8022 65.7629V65.7745Z" fill="#A4BBCC"/>
<path d="M124.326 195.719H121.209V201.516H124.326V195.719Z" fill="#031119"/>
<path d="M100.965 195.719H97.8489V201.516H100.965V195.719Z" fill="#031119"/>
<path d="M74.8604 195.719H71.7441V201.516H74.8604V195.719Z" fill="#031119"/>
<path d="M74.0697 205.245C75.3798 205.245 76.4418 203.565 76.4418 201.493C76.4418 199.42 75.3798 197.74 74.0697 197.74C72.7596 197.74 71.6976 199.42 71.6976 201.493C71.6976 203.565 72.7596 205.245 74.0697 205.245Z" fill="#031119"/>
<path d="M76.3721 205.245C77.6822 205.245 78.7442 203.565 78.7442 201.493C78.7442 199.42 77.6822 197.74 76.3721 197.74C75.062 197.74 74 199.42 74 201.493C74 203.565 75.062 205.245 76.3721 205.245Z" fill="#031119"/>
<path d="M77.2906 204.943C76.3022 205.71 73.5348 205.361 73.1511 204.966L73.1278 198.043C73.872 197.392 76.4883 197.415 77.279 198.008V204.943H77.2906Z" fill="#031119"/>
<path d="M76.593 203.955C77.4921 203.955 78.2209 202.806 78.2209 201.388C78.2209 199.97 77.4921 198.821 76.593 198.821C75.6939 198.821 74.9651 199.97 74.9651 201.388C74.9651 202.806 75.6939 203.955 76.593 203.955Z" fill="#5C85A3"/>
<path d="M76.4301 203.026C76.976 203.026 77.4185 202.324 77.4185 201.458C77.4185 200.592 76.976 199.89 76.4301 199.89C75.8843 199.89 75.4418 200.592 75.4418 201.458C75.4418 202.324 75.8843 203.026 76.4301 203.026Z" fill="#031119"/>
<path d="M98.9419 205.245C100.252 205.245 101.314 203.565 101.314 201.493C101.314 199.42 100.252 197.74 98.9419 197.74C97.6318 197.74 96.5698 199.42 96.5698 201.493C96.5698 203.565 97.6318 205.245 98.9419 205.245Z" fill="#031119"/>
<path d="M96.6395 205.245C97.9496 205.245 99.0116 203.565 99.0116 201.493C99.0116 199.42 97.9496 197.74 96.6395 197.74C95.3295 197.74 94.2675 199.42 94.2675 201.493C94.2675 203.565 95.3295 205.245 96.6395 205.245Z" fill="#031119"/>
<path d="M95.7209 204.943C96.7093 205.71 99.4768 205.361 99.8605 204.966L99.8837 198.043C99.1395 197.392 96.5233 197.415 95.7326 198.008V204.943H95.7209Z" fill="#031119"/>
<path d="M96.407 203.955C97.306 203.955 98.0349 202.806 98.0349 201.388C98.0349 199.97 97.306 198.821 96.407 198.821C95.5079 198.821 94.7791 199.97 94.7791 201.388C94.7791 202.806 95.5079 203.955 96.407 203.955Z" fill="#5C85A3"/>
<path d="M96.5814 203.026C97.1273 203.026 97.5698 202.324 97.5698 201.458C97.5698 200.592 97.1273 199.89 96.5814 199.89C96.0355 199.89 95.593 200.592 95.593 201.458C95.593 202.324 96.0355 203.026 96.5814 203.026Z" fill="#031119"/>
<path d="M122.663 205.245C123.973 205.245 125.035 203.565 125.035 201.493C125.035 199.42 123.973 197.74 122.663 197.74C121.353 197.74 120.291 199.42 120.291 201.493C120.291 203.565 121.353 205.245 122.663 205.245Z" fill="#031119"/>
<path d="M120.36 205.245C121.671 205.245 122.733 203.565 122.733 201.493C122.733 199.42 121.671 197.74 120.36 197.74C119.05 197.74 117.988 199.42 117.988 201.493C117.988 203.565 119.05 205.245 120.36 205.245Z" fill="#031119"/>
<path d="M119.453 204.943C120.442 205.71 123.209 205.361 123.593 204.966L123.616 198.043C122.872 197.392 120.256 197.415 119.465 198.008V204.943H119.453Z" fill="#031119"/>
<path d="M120.14 203.955C121.039 203.955 121.768 202.806 121.768 201.388C121.768 199.97 121.039 198.821 120.14 198.821C119.241 198.821 118.512 199.97 118.512 201.388C118.512 202.806 119.241 203.955 120.14 203.955Z" fill="#5C85A3"/>
<path d="M120.314 203.026C120.86 203.026 121.302 202.324 121.302 201.458C121.302 200.592 120.86 199.89 120.314 199.89C119.768 199.89 119.326 200.592 119.326 201.458C119.326 202.324 119.768 203.026 120.314 203.026Z" fill="#031119"/>
<path d="M102.128 147.51H97.593V194.72H102.128V147.51Z" fill="#031119"/>
<path d="M126.488 196.288C126.488 196.254 126.523 196.207 126.523 196.172C126.523 193.675 114.151 191.642 98.8954 191.642C83.6395 191.642 71.2675 193.663 71.2675 196.172C71.2675 198.681 71.3023 196.254 71.3023 196.288H126.488Z" fill="#1A2D3C"/>
<path d="M103.477 152.528H96.1046V161.52H103.477V152.528Z" fill="#1A2D3C"/>
<path d="M103.477 184.161H96.1046V193.152H103.477V184.161Z" fill="#1A2D3C"/>
<path d="M51.0116 81.4571C51.0116 81.9101 51.0698 82.3632 51.1744 82.8395L66.4651 141.876C66.5349 142.166 66.6163 142.445 66.7209 142.724C67.8488 147.219 71.9535 150.344 76.6163 150.228L92.6047 149.81H124.105C126.012 149.81 127.721 149.066 128.965 147.858C130.209 146.65 130.988 145.001 130.988 143.154C130.988 141.306 130.884 141.876 130.686 141.295C129.802 138.6 127.035 136.764 123.907 136.764C123.907 136.764 109.744 137.148 105.616 133.186C101.488 129.213 92.1744 83.1067 92.1744 83.1067C91.3837 79.8308 88.0698 77.1473 84.6628 76.9963H84.3605C84.3605 76.9963 62.9767 76.8104 56.4186 76.8336H55.1977C54.907 76.8336 54.7326 76.8336 54.6628 76.8336H54.6395C52.4302 77.3215 51 79.1221 51 81.4223V81.4455L51.0116 81.4571ZM71.1279 136.532H71.5233L71.7093 137.31L71.4535 136.973L71.1279 136.532Z" fill="#A4BBCC"/>
<path d="M72.6279 149.833C72.6279 149.868 72.593 149.891 72.593 149.926C72.593 151.808 84.3837 153.33 98.9302 153.33C113.477 153.33 125.267 151.808 125.267 149.926C125.267 148.044 125.244 149.868 125.233 149.833H72.6163H72.6279Z" fill="#1A2D3C"/>
<path d="M51.0116 81.4571C51.0116 81.9101 51.0698 82.3632 51.1744 82.8395L66.4651 141.876C66.5349 142.166 66.6163 142.445 66.7209 142.724C67.8488 147.219 71.9535 150.344 76.6163 150.228L92.6047 149.81H124.105C126.012 149.81 127.721 149.066 128.965 147.858C130.209 146.65 130.988 145.001 130.988 143.154C130.988 141.306 130.884 141.876 130.686 141.295C128.884 145.988 76.2326 146.313 72.5698 140.238C68.9884 137.136 61.3372 84.3032 56.4186 76.822H55.1977C54.907 76.822 54.7326 76.822 54.6628 76.822H54.6395C52.4302 77.3099 51 79.1105 51 81.4106V81.4455L51.0116 81.4571Z" fill="#80A0B8"/>
<path d="M77.593 84.4077C82.4535 80.7833 99.1395 77.9721 109.826 82.9789C111.523 84.582 113.965 90.4136 115.488 95.8851L119.709 141.608H83.6046L77.593 84.4077Z" fill="#80A0B8"/>
<path d="M96.9535 86.522C91.2094 87.3584 87.6396 83.3506 86.8024 81.6778L89.1163 67.3544L93.7907 69.4338C95.6977 69.5964 97.6047 70.0495 99.2442 70.7L100.721 78.3438L101.047 80.005C101.791 81.6313 102.686 85.6972 96.9535 86.5336V86.522Z" fill="#F8C9B1"/>
<path d="M90.6046 70.9904C90.7907 72.7678 93.1279 79.9469 100.884 79.2035L99.4418 71.7339L90.6046 71.0021V70.9904Z" fill="#EE814A"/>
<path d="M108.651 62.0456C108.384 64.3689 107.744 69.4686 106.837 71.5945C105.465 74.8356 101.232 77.4609 98.4767 77.0079C95.3604 76.2528 91.6162 73.8598 90.093 71.1066C89.372 69.1666 88.2092 64.7639 88.1744 61.2672C88.093 53.9603 94.4185 49.848 100.442 50.5334C106.465 51.2188 109.488 54.7851 108.651 62.0456Z" fill="#F8C9B1"/>
<path d="M88.6278 66.2276C88.1627 63.6719 90.0697 63.3699 91.2558 65.6351C91.5116 63.9158 91.3255 58.5722 93.4883 57.5731C95.9534 56.3998 103.767 60.001 109.686 56.9923C109.686 56.9923 108.919 48.7793 96.8372 49.2672C82.6279 51.4511 88.6162 66.2276 88.6162 66.2276H88.6278Z" fill="#4E1F07"/>
<path d="M90.7907 64.6593C91.314 66.123 90.814 67.668 89.686 68.0979C88.5581 68.5277 87.2326 67.6797 86.7093 66.2159C86.186 64.7522 86.686 63.2072 87.8139 62.7774C88.9419 62.3476 90.2674 63.1956 90.7907 64.6593Z" fill="#F8C9B1"/>
<path d="M108.163 57.3756C108.163 57.3756 114.093 56.7948 112.244 51.0213C110.407 52.8916 108.535 51.9739 108.535 51.9739C108.535 51.9739 110.709 49.2439 107.116 45.2594C106.546 47.7454 101.593 48.849 98.7674 48.1055C94.279 46.9438 89.7441 48.5469 89.2674 52.8684C89.2674 52.8684 86.3372 53.577 87.3604 59.4086C91.8953 59.2459 93.8953 55.122 97.2325 54.5295C100.57 53.9371 103.419 58.0494 108.174 57.3756H108.163Z" fill="#4E1F07"/>
<path d="M102.442 76.1134C102.442 76.1134 100.326 76.6129 99.1627 76.5781C97.6279 76.5432 95.1976 75.6952 95.1976 75.6952L99.2209 77.8443L102.43 76.1134H102.442Z" fill="#4E1F07"/>
<path d="M98.5 86.6498L97.9302 88.7059L102 114.158L99.8488 118.305L96.0232 114.193L96.6512 88.7292L95.7325 87.37L96.8139 85.825L98.5 86.6498Z" fill="#1A2D3C"/>
<path d="M100.942 79.2499C100.86 82.2703 98.4999 83.9896 96.8023 85.7088C91.779 84.3961 87.9651 81.3177 86.8488 78.4716L84.4767 80.8182C84.8953 84.4891 87.8488 88.2994 92.3371 92.1677C93.0232 90.1929 94.0697 88.3807 97.0581 86.7543L103.779 88.6711C104.163 86.0573 104.453 83.6294 102.93 80.551L100.942 79.2383V79.2499Z" fill="#80A0B8"/>
<path d="M138.174 204.955C140.57 204.955 140.57 201.051 138.174 201.051C138.174 201.051 128.628 198.391 128.349 198.391C128.07 198.391 117.872 198.681 117.872 198.681C116.523 200.552 116.977 203.189 117.116 205.21L138.174 204.955Z" fill="#4E1F07"/>
<path d="M83.8255 205.024C83.6511 203.003 83.3604 200.854 84.7557 199.018C87.1278 198.147 91.6278 196.126 96.2674 198.74C96.2674 198.74 96.3604 200.041 99.9534 201.528C100.849 202.538 101.209 203.561 100.802 205.024H83.8255Z" fill="#4E1F07"/>
<path d="M117.488 198.391L127.558 146.662L97.8256 141.632V127.448C97.8256 127.448 121.035 127.448 120.709 127.448C119.686 127.448 142.523 125.868 145.721 138.251C148.919 150.635 129.535 198.228 129.535 198.228C126.767 197.845 120.384 199.773 118.012 200.517C115.977 201.156 115.419 199.994 117.5 198.379H117.488V198.391Z" fill="#031119"/>
<path d="M115.651 127.459L93.2442 145.744L95.093 198.647C89.186 195.394 82.6977 201.597 82.2093 200.889C82.2093 200.889 81.4884 200.552 82.686 197.717C80.4186 186.333 72.1512 143.641 74.7326 138.902C77.7093 133.419 82.6977 127.157 82.6977 127.157L115.674 127.483L115.651 127.459Z" fill="#031119"/>
<path d="M85.093 80.2374C85.4419 81.6081 89.4884 122.255 89.1395 128.424C88.7907 134.592 73.7558 135.951 74.0465 148.648C74.3605 162.135 74.7674 167.978 74.7674 167.978C69.1977 167.165 66.1977 160.637 65.3837 156.164C64.1047 148.381 65.0233 139.529 70.8256 128.307C70.8256 128.307 72.3721 85.8715 74.3023 84.4891C77.7442 82.038 85.093 80.2374 85.093 80.2374Z" fill="white"/>
<path d="M82.0813 98.4872C82.0813 98.4872 80.1511 104.121 80.1511 106.445C80.1511 108.768 91.4534 113.682 91.4534 113.682H72.9883V104.958L82.0813 98.4872Z" fill="#C9D6E0"/>
<path d="M92.3256 115.436C92.3256 115.436 94.5465 113.438 98.0581 113.159C101.57 112.88 104.651 119.56 104.651 119.56H92.5L92.3372 115.436H92.3256Z" fill="#F8C9B1"/>
<path d="M98.9884 113.24C98.9884 113.24 104.512 114.797 105.291 115.006C105.651 116.458 101.849 115.831 100.093 115.192C98.1512 114.483 99 113.24 99 113.24H98.9884Z" fill="#F8C9B1"/>
<path d="M74.7441 84.0593C71.372 86.1503 62.0697 108.059 61.9766 113.961C61.9418 116.563 63.0232 119.142 67.9766 119.455C70.7092 119.63 93.8836 119.827 93.8836 119.827L93.5929 113.682L76.1278 108.698L81.465 99.8464C87.8487 96.5589 82.3836 79.9818 74.7557 84.0477L74.7441 84.0593Z" fill="white"/>
<path d="M134.744 83.9663C134.744 83.9663 132.605 78.7388 132.872 77.3099C133.139 75.8811 138.395 74.0456 138.663 74.6729C138.919 75.3002 139.465 76.8685 136.023 77.8094C138.325 79.9353 140.919 84.1638 134.756 83.9663H134.744Z" fill="#F8C9B1"/>
<path d="M134.465 84.1987C134.465 84.1987 134.023 79.4823 134.791 77.5888C135.814 75.0563 138.826 73.43 138.826 73.43C138.826 73.43 144.151 77.612 144.314 78.3671C144.477 79.1222 140.035 83.7456 140.035 83.7456C140.035 83.7456 136.733 86.8821 134.453 84.1987H134.465Z" fill="#F8C9B1"/>
<path d="M135.093 78.007C135.093 78.007 136.395 66.2392 138.256 66.5761C139.116 66.7387 137.907 77.9721 137.907 77.9721L135.093 78.007Z" fill="#F8C9B1"/>
<path d="M134.139 82.4794H134.174C134.209 82.4794 134.221 82.4329 134.209 82.3981C133.663 80.8647 132.767 78.158 132.918 77.3216C133.116 76.218 136.57 74.7775 138.058 74.6265C138.5 74.58 138.57 74.673 138.581 74.7078C138.756 75.126 138.895 75.6255 138.628 76.1599C138.302 76.8337 137.407 77.368 135.988 77.7514L135.884 77.7862L135.965 77.8676C136.919 78.7504 138.07 80.1328 138.407 81.3874C138.407 81.4223 138.453 81.4455 138.488 81.4339C138.523 81.4339 138.546 81.3874 138.535 81.3526C138.198 80.1096 137.093 78.7504 136.139 77.8559C137.535 77.461 138.419 76.915 138.756 76.2296C139.081 75.5674 138.825 74.9401 138.709 74.673C138.651 74.5336 138.43 74.4755 138.046 74.522C136.535 74.673 133.023 76.1367 132.802 77.3216C132.639 78.1812 133.546 80.9112 134.105 82.4678C134.105 82.491 134.128 82.5026 134.151 82.5026V82.4794H134.139Z" fill="#EE814A"/>
<path d="M140.546 80.249C140.57 80.249 140.581 80.249 140.605 80.249H140.651L140.674 80.2257C141.43 79.0292 143.233 78.5529 143.256 78.5529C143.291 78.5529 143.314 78.5065 143.302 78.4716C143.302 78.4368 143.256 78.4135 143.221 78.4252C143.151 78.4484 141.384 78.9131 140.593 80.1212C139.465 79.7959 137.872 77.1241 137.849 77.0892C137.826 77.0544 137.791 77.0544 137.767 77.066C137.733 77.0892 137.733 77.1241 137.744 77.1473C137.814 77.2635 139.372 79.8889 140.558 80.2374H140.546V80.249Z" fill="#EE814A"/>
<path d="M134.663 82.6885L132.744 90.0303L138.686 91.9354L139.419 83.5481L134.663 82.6885Z" fill="#F8C9B1"/>
<path d="M116.442 86.2897L128.605 98.4872L134.012 84.4542L141.093 86.6846C141.093 86.6846 141.012 107.188 134.86 111.603C125.453 117.341 109.349 99.8348 109.349 99.8348C103.046 91.0293 112.674 81.1783 116.442 86.2897Z" fill="white"/>
<path d="M103.012 80.7369C103.012 80.7369 106.256 125.322 112.093 129.086C117.93 132.861 138.535 130.294 138.535 130.294C138.535 130.294 117.977 122.929 117.628 117.446C117.279 111.963 115.953 85.825 115.953 85.825C114.046 83.4784 107.988 80.7136 103.012 80.7369Z" fill="white"/>
<mask id="mask0_21_2806" style="mask-type:luminance" maskUnits="userSpaceOnUse" x="75" y="72" width="35" height="40">
<path d="M100.942 79.3313L102.256 91.1222C102.256 91.1222 96.2791 102.309 100.221 105.225C104.163 108.141 107.791 105.004 108.849 97.7089C109.907 90.4136 105.977 76.9847 102.477 74.3709C98.9767 71.7688 86.2791 71.9895 85.0465 73.488C83.8023 74.9866 71.4186 102.692 76.3023 108.361C81.186 114.042 96.9302 108.873 96.9302 108.873L94.3837 92.4233L87.4651 87.5443C87.4651 87.5443 87.0581 78.5994 87.1046 78.7388C87.1512 78.8782 88.0698 74.3477 88.0698 74.3477C92.4186 73.0931 95.7093 72.9304 100 74.6613L100.953 79.3196L100.942 79.3313Z" fill="white"/>
</mask>
<g mask="url(#mask0_21_2806)">
<path d="M105.911 102.131C106.262 100.238 105.682 98.5438 104.615 98.3462C103.548 98.1486 102.398 99.5226 102.047 101.415C101.696 103.308 102.276 105.002 103.343 105.2C104.41 105.397 105.56 104.023 105.911 102.131Z" fill="#5C85A3"/>
<path d="M103.977 101.542C103.744 102.774 104.128 103.877 104.826 104.005C105.523 104.133 106.267 103.238 106.5 102.007C106.733 100.776 106.349 99.6721 105.651 99.5443C104.953 99.4166 104.209 100.311 103.977 101.542Z" fill="#A4BBCC"/>
<path d="M104.709 99.1029C104.872 99.1029 105 98.9751 105.012 98.8125C105.012 98.7428 105.186 91.9005 104.163 84.7214C103.221 78.0766 97.686 74.8704 92.9418 74.6962C88.3488 74.5219 84.8023 77.0311 83.9069 81.097C83.1046 84.7446 84.1395 90.9712 84.186 91.2384C84.2092 91.401 84.372 91.5172 84.5348 91.4823C84.6976 91.4591 84.8139 91.2965 84.779 91.1338C84.779 91.0758 83.7209 84.7563 84.4883 81.2248C85.3139 77.461 88.6162 75.1376 92.9185 75.3002C97.4185 75.4629 102.674 78.5181 103.57 84.8143C104.581 91.9354 104.419 98.7312 104.407 98.8009C104.407 98.9635 104.535 99.1029 104.698 99.1029H104.709Z" fill="#031119"/>
<path d="M81.6046 108.373L83.5116 108.129C83.6743 108.106 83.7906 107.955 83.7674 107.792C83.7441 107.63 83.5929 107.513 83.4302 107.537L81.9883 107.723C80.0348 102.669 79.9185 97.2326 81.7325 94.4446C82.6278 93.0738 83.9418 92.342 85.6395 92.2607C87.2325 92.191 88.6395 92.7253 89.8255 93.8289C93.4185 97.1978 93.9999 104.969 94.0813 106.642L92.9883 106.596C92.8255 106.596 92.686 106.723 92.6743 106.886C92.6743 107.049 92.8023 107.188 92.965 107.2L94.6976 107.269V106.956C94.6976 106.561 94.4302 97.3488 90.2325 93.4107C88.9302 92.191 87.372 91.6101 85.6162 91.6798C83.7092 91.7611 82.2325 92.5859 81.2209 94.131C80.2209 95.676 79.7441 97.918 79.8488 100.59C79.9418 103.029 80.5348 105.724 81.5116 108.176L81.593 108.396V108.373H81.6046Z" fill="#031119"/>
<path d="M86.8139 91.2616V92.7369C86.8139 92.7369 85.1162 92.0748 83.4418 93.1551C83.0116 92.5627 82.7092 92.1212 82.7092 92.1212C82.7092 92.1212 84.0464 90.6692 86.8139 91.2616Z" fill="#5C85A3"/>
<path d="M85.5581 91.7844L85.2325 90.0999C84.7674 89.8444 83.7558 90.0999 83.6046 90.4833L83.9767 92.1213L85.5581 91.7844Z" fill="#5C85A3"/>
</g>
<path d="M109.628 113.717C111.581 113.519 115.686 110.964 116.663 110.127L128.593 119.769H110.105L109.616 113.728L109.628 113.717Z" fill="#5C85A3"/>
<path d="M126.86 119.792C126.36 119.792 111.419 110.685 111.419 110.685C108.14 113.403 104.698 114.716 101.233 115.692C102.244 117.701 103.733 119.06 105.395 119.816L126.872 119.781L126.86 119.792Z" fill="#334A5B"/>
<path d="M70.9999 116.9H52.5697V119.757H70.9999V116.9Z" fill="#C9D6E0"/>
<path d="M52.5697 116.9H36.8837V119.757H52.5697V116.9Z" fill="#1A2D3C"/>
<path d="M68.5 117.829H53.7441L60.593 119.2L68.5 117.829Z" fill="#1A2D3C"/>
<path d="M61.3488 123.277H58.2557V204.409H61.3488V123.277Z" fill="#1A2D3C"/>
<path d="M61.3488 123.301H58.2557V130.271H61.3488V123.301Z" fill="#1A2D3C"/>
<path d="M201.593 190.654H198.5V204.745H201.593V190.654Z" fill="#1A2D3C"/>
<path d="M182.953 190.654H179.86V204.745H182.953V190.654Z" fill="#1A2D3C"/>
<path d="M32.0697 122.406V204.862L29.1162 204.397V122.406H32.0697Z" fill="#1A2D3C"/>
<path d="M144.128 190.654H141.035V204.745H144.128V190.654Z" fill="#1A2D3C"/>
<path d="M160.384 190.654H157.291V204.745H160.384V190.654Z" fill="#1A2D3C"/>
<path d="M170.174 119.781H20.6511V123.266H170.174V119.781Z" fill="#1A2D3C"/>
<path d="M159.035 122.964H139.895V190.875H159.035V122.964Z" fill="#1A2D3C"/>
<path d="M203.453 122.964H156.372V190.875H203.453V122.964Z" fill="#1A2D3C"/>
<path d="M202.174 125.322H158.721V190.875H202.174V125.322Z" fill="#80A0B8"/>
<path d="M203.523 119.781H54V123.266H203.523V119.781Z" fill="#80A0B8"/>
<path d="M177.174 119.781H185.43L183.802 105.69H175.558L177.174 119.781Z" fill="#47687F"/>
<path d="M174.779 105.69L174.791 105.748L175.663 113.357L176.407 119.781H184.651L183.14 106.677V106.642L183.023 105.69H174.779Z" fill="#1A2D3C"/>
<path d="M191.395 118.317H165.198V119.757H191.395V118.317Z" fill="#47687F"/>
<path d="M184.326 118.305H163.36V119.746H184.326V118.305Z" fill="#1A2D3C"/>
<path d="M174.791 105.748L175.663 113.357L183.14 106.677L183.186 106.642H183.14L174.791 105.748Z" fill="#1A2D3C"/>
<path d="M153.767 106.596H198.535C199.512 106.596 200.36 105.806 200.442 104.83L203 73.7668C203.081 72.791 202.36 72.0011 201.384 72.0011H156.616C155.64 72.0011 154.791 72.791 154.709 73.7668L152.151 104.83C152.07 105.806 152.791 106.596 153.767 106.596Z" fill="#47687F"/>
<path d="M152.942 106.561H197.709C198.686 106.561 199.535 105.771 199.616 104.795L202.174 73.732C202.256 72.7562 201.535 71.9662 200.558 71.9662H155.791C154.814 71.9662 153.965 72.7562 153.884 73.732L151.326 104.795C151.244 105.771 151.965 106.561 152.942 106.561Z" fill="#1A2D3C"/>
<path d="M153.919 104.017H197.384L199.756 74.3825H156.291L153.919 104.017Z" fill="#EDF1F5"/>
<path d="M157.465 118.305H143.767V119.746H157.465V118.305Z" fill="#47687F"/>
<path d="M129.43 119.2V119.757H143.767V118.305L129.43 119.2Z" fill="#1A2D3C"/>
<path d="M192.86 78.611L163.058 78.9711C161.802 78.9711 160.709 80.0399 160.616 81.3409L159.512 96.5821C159.419 97.8715 160.36 98.9054 161.605 98.8938L191.407 98.5337C192.663 98.5337 193.756 97.4649 193.849 96.1639L194.965 80.9227C195.058 79.6333 194.116 78.5994 192.872 78.611H192.86ZM163.721 84.7911C163.744 84.5007 163.977 84.2684 164.256 84.2684L173.012 84.1638C173.279 84.1638 173.477 84.3729 173.477 84.6285C173.477 84.884 173.477 84.6517 173.477 84.6633C173.453 84.9421 173.221 85.1744 172.942 85.1861L164.186 85.2906C163.919 85.2906 163.721 85.0815 163.721 84.8259C163.721 84.5704 163.721 84.8027 163.721 84.7911ZM175.698 94.0729C175.674 94.3517 175.442 94.584 175.163 94.5956L163.5 94.735C163.233 94.735 163.035 94.5259 163.035 94.2703C163.035 94.0148 163.035 94.2471 163.035 94.2355C163.058 93.9567 163.291 93.7244 163.57 93.7127L175.233 93.5733C175.5 93.5733 175.698 93.7824 175.698 94.038C175.698 94.2936 175.698 94.0612 175.698 94.0729ZM175.942 90.7621C175.919 91.0525 175.686 91.2848 175.407 91.2848L163.744 91.4242C163.477 91.4242 163.279 91.2151 163.279 90.9596C163.279 90.704 163.279 90.9363 163.279 90.9247C163.302 90.6459 163.535 90.402 163.814 90.402L175.477 90.2626C175.744 90.2626 175.942 90.4717 175.942 90.7272C175.942 90.9828 175.942 90.7505 175.942 90.7621ZM176.174 87.4513C176.151 87.7301 175.919 87.9741 175.639 87.9741L163.977 88.1135C163.709 88.1135 163.512 87.9044 163.512 87.6372C163.512 87.37 163.512 87.614 163.512 87.6023C163.535 87.3235 163.767 87.0912 164.046 87.0796L175.709 86.9402C175.977 86.9402 176.174 87.1493 176.174 87.4049C176.174 87.6604 176.174 87.4281 176.174 87.4397V87.4513ZM190.279 95.2229C189.884 95.734 189.116 94.6653 188.163 94.4214C187.36 94.2123 186.43 94.2123 185.884 93.492C185.326 92.7485 185.174 91.1106 185.267 89.4959C184.791 89.2752 184.488 88.915 184.314 88.5433C184.151 88.8918 183.884 89.2287 183.465 89.4726C183.558 91.0874 183.407 92.7485 182.849 93.492C182.314 94.2123 181.384 94.2239 180.581 94.4214C179.628 94.6653 178.86 95.7224 178.465 95.2229C177.733 94.2936 177.558 90.5414 178.779 88.1135C179.198 87.2655 181.593 84.733 182.5 85.5113C182.907 85.8598 183.267 87.2074 183.419 88.7175C183.826 88.3458 183.884 87.8231 183.895 87.6604V81.701H184.744V87.5675C184.744 87.6023 184.744 88.3342 185.349 88.764C185.5 87.2306 185.86 85.8598 186.279 85.4997C187.186 84.7214 189.57 87.2538 190 88.1019C191.221 90.5298 191.046 94.282 190.314 95.2113H190.279V95.2229Z" fill="#5C85A3"/>
<path d="M208.349 194.604H205.232V200.401H208.349V194.604Z" fill="#031119"/>
<path d="M231.709 194.604H228.593V200.401H231.709V194.604Z" fill="#031119"/>
<path d="M257.814 194.604H254.698V200.401H257.814V194.604Z" fill="#031119"/>
<path d="M255.477 204.13C256.787 204.13 257.849 202.45 257.849 200.378C257.849 198.305 256.787 196.625 255.477 196.625C254.167 196.625 253.105 198.305 253.105 200.378C253.105 202.45 254.167 204.13 255.477 204.13Z" fill="#031119"/>
<path d="M253.174 204.13C254.484 204.13 255.546 202.45 255.546 200.378C255.546 198.305 254.484 196.625 253.174 196.625C251.864 196.625 250.802 198.305 250.802 200.378C250.802 202.45 251.864 204.13 253.174 204.13Z" fill="#031119"/>
<path d="M252.267 203.828C253.256 204.594 256.023 204.246 256.407 203.851L256.43 196.927C255.686 196.277 253.07 196.3 252.279 196.892V203.828H252.267Z" fill="#031119"/>
<path d="M252.953 202.84C253.852 202.84 254.581 201.691 254.581 200.273C254.581 198.855 253.852 197.706 252.953 197.706C252.054 197.706 251.325 198.855 251.325 200.273C251.325 201.691 252.054 202.84 252.953 202.84Z" fill="#5C85A3"/>
<path d="M253.128 201.923C253.674 201.923 254.116 201.22 254.116 200.354C254.116 199.488 253.674 198.786 253.128 198.786C252.582 198.786 252.139 199.488 252.139 200.354C252.139 201.22 252.582 201.923 253.128 201.923Z" fill="#031119"/>
<path d="M230.616 204.13C231.926 204.13 232.988 202.45 232.988 200.378C232.988 198.305 231.926 196.625 230.616 196.625C229.306 196.625 228.244 198.305 228.244 200.378C228.244 202.45 229.306 204.13 230.616 204.13Z" fill="#031119"/>
<path d="M232.919 204.13C234.229 204.13 235.291 202.45 235.291 200.378C235.291 198.305 234.229 196.625 232.919 196.625C231.609 196.625 230.547 198.305 230.547 200.378C230.547 202.45 231.609 204.13 232.919 204.13Z" fill="#031119"/>
<path d="M233.837 203.828C232.849 204.594 230.081 204.246 229.698 203.851L229.674 196.927C230.419 196.277 233.035 196.3 233.826 196.892V203.828H233.837Z" fill="#031119"/>
<path d="M233.14 202.84C234.039 202.84 234.767 201.691 234.767 200.273C234.767 198.855 234.039 197.706 233.14 197.706C232.24 197.706 231.512 198.855 231.512 200.273C231.512 201.691 232.24 202.84 233.14 202.84Z" fill="#5C85A3"/>
<path d="M232.965 201.923C233.511 201.923 233.953 201.22 233.953 200.354C233.953 199.488 233.511 198.786 232.965 198.786C232.419 198.786 231.977 199.488 231.977 200.354C231.977 201.22 232.419 201.923 232.965 201.923Z" fill="#031119"/>
<path d="M206.884 204.13C208.194 204.13 209.256 202.45 209.256 200.378C209.256 198.305 208.194 196.625 206.884 196.625C205.574 196.625 204.512 198.305 204.512 200.378C204.512 202.45 205.574 204.13 206.884 204.13Z" fill="#031119"/>
<path d="M209.186 204.13C210.496 204.13 211.558 202.45 211.558 200.378C211.558 198.305 210.496 196.625 209.186 196.625C207.876 196.625 206.814 198.305 206.814 200.378C206.814 202.45 207.876 204.13 209.186 204.13Z" fill="#031119"/>
<path d="M210.105 203.828C209.116 204.594 206.349 204.246 205.965 203.851L205.942 196.927C206.686 196.277 209.302 196.3 210.093 196.892V203.828H210.105Z" fill="#031119"/>
<path d="M209.419 202.84C210.318 202.84 211.046 201.691 211.046 200.273C211.046 198.855 210.318 197.706 209.419 197.706C208.52 197.706 207.791 198.855 207.791 200.273C207.791 201.691 208.52 202.84 209.419 202.84Z" fill="#5C85A3"/>
<path d="M209.244 201.923C209.79 201.923 210.232 201.22 210.232 200.354C210.232 199.488 209.79 198.786 209.244 198.786C208.698 198.786 208.256 199.488 208.256 200.354C208.256 201.22 208.698 201.923 209.244 201.923Z" fill="#031119"/>
<path d="M231.953 146.395H227.418V193.605H231.953V146.395Z" fill="#031119"/>
<path d="M203.07 195.173C203.07 195.138 203.035 195.092 203.035 195.057C203.035 192.559 215.407 190.527 230.663 190.527C245.919 190.527 258.291 192.548 258.291 195.057C258.291 197.566 258.256 195.138 258.256 195.173H203.07Z" fill="#1A2D3C"/>
<path d="M233.453 151.425H226.081V160.416H233.453V151.425Z" fill="#1A2D3C"/>
<path d="M233.453 183.057H226.081V192.048H233.453V183.057Z" fill="#1A2D3C"/>
<path d="M274.907 75.7649H274.884C274.826 75.7649 274.64 75.7649 274.349 75.7649H273.128C266.57 75.73 245.186 75.9275 245.186 75.9275H244.884C241.488 76.0786 238.163 78.762 237.372 82.0379C237.372 82.0379 228.058 128.145 223.93 132.118C219.802 136.079 205.64 135.696 205.64 135.696C202.512 135.696 199.744 137.531 198.86 140.226C198.663 140.807 198.558 141.434 198.558 142.085C198.558 143.92 199.337 145.581 200.581 146.79C201.826 147.998 203.535 148.741 205.442 148.741H236.942L257.384 149.159C262.035 149.287 266.14 146.162 267.279 141.655C267.384 141.376 267.465 141.097 267.535 140.807L278.36 81.7708C278.477 81.2945 278.523 80.8298 278.523 80.3884C278.523 78.0882 277.105 76.2877 274.884 75.7998L274.907 75.7765V75.7649ZM262.57 135.858L262.314 136.195L262.5 135.417H262.895L262.57 135.858Z" fill="#A4BBCC"/>
<path d="M261.395 148.73C261.395 148.764 261.43 148.788 261.43 148.822C261.43 150.704 245.174 152.226 230.628 152.226C216.081 152.226 204.291 150.704 204.291 148.822C204.291 146.941 204.314 148.764 204.326 148.73H261.407H261.395Z" fill="#1A2D3C"/>
<path d="M278.535 80.3535C278.535 80.8066 278.477 81.2596 278.372 81.7359C277.965 82.9208 267.86 140.517 267.291 141.62C266.163 146.127 262.058 149.252 257.395 149.125C245.291 148.73 217.791 148.637 205.453 148.706C201.058 148.799 197.465 144.42 198.86 140.203C197.337 147.359 256.407 148.242 262.593 138.855C266.988 135.568 264.558 73.0582 274.895 75.7649C277.105 76.2528 278.535 78.0534 278.535 80.3535Z" fill="#80A0B8"/>
<path d="M246.349 74.6962C252.139 115.448 213.442 109.558 214.558 93.1552C215.523 79.0176 224.081 77.368 221.849 68.0979C219.395 57.9216 223.023 49.0232 232.674 49.0232C242.325 49.0232 247.779 55.9003 245.767 67.8655C245.372 70.2354 246.105 72.7213 246.349 74.6846V74.6962Z" fill="#031119"/>
<path d="M210.07 188.796C210.139 189.202 211.477 197.009 211.477 197.009L216.86 196.544L217.639 186.972L210.07 188.784V188.796Z" fill="#F8C9B1"/>
<path d="M244.302 123.916C244.302 123.916 248.802 136.555 241.36 138.716C233.918 140.877 221.477 141.701 221.477 141.701L217.453 191.688C215.965 192.281 214.36 192.803 210.651 192.048C210.651 192.048 201.488 141.736 204.139 135.696C206.779 129.667 227.442 123.533 227.442 123.533L244.302 123.916Z" fill="#031119"/>
<path d="M218.488 197.857C218.093 198.879 214.988 200.343 211.523 201.411C209.151 202.143 206.605 202.678 204.639 202.782C203.407 202.84 202.395 202.724 201.802 202.376C201.802 202.376 200.267 198.414 203.674 196.242C207.07 194.058 210.918 193.628 210.918 193.628C211.407 194.325 212.209 194.79 213.186 194.906C213.849 194.987 214.593 194.906 215.384 194.639C216.023 194.43 216.686 194.093 217.372 193.628C217.372 193.628 217.686 193.953 218 194.488C218.035 194.534 218.07 194.592 218.093 194.65C218.535 195.452 218.953 196.637 218.512 197.88L218.488 197.857Z" fill="white"/>
<path d="M218.232 194.465L218.07 194.627L211.512 201.411C209.139 202.143 206.593 202.678 204.628 202.782C204.488 201.539 204.546 198.891 206.953 197.02C208.442 195.87 210.907 195.231 213.163 194.894C213.942 194.778 214.686 194.685 215.36 194.627C216.57 194.523 217.535 194.488 217.977 194.476H218.232V194.465Z" fill="#EDF1F5"/>
<path d="M215.116 190.039C215.186 190.445 215.767 198.252 215.767 198.252L220.384 198.194L221.709 189.876L215.116 190.039Z" fill="#F8C9B1"/>
<path d="M221.291 193.164C221.291 193.164 222.907 196.3 223.267 197.09C221.465 202.364 209.105 206.465 207.825 204.885C207.825 204.885 205.523 201.318 208.407 198.496C211.291 195.673 215.465 194.36 215.465 194.36C216.837 195.65 220.442 195.301 221.279 193.152H221.291V193.164Z" fill="white"/>
<path d="M256.546 125.705C256.546 125.705 258.988 136.718 249.709 139.692C242.337 142.062 229.651 146.906 229.651 146.906L221.605 191.7C221.267 192.652 215.907 193.001 215.221 192.246C215.221 192.246 213.349 142.933 217.058 137.496C222.756 129.144 230.477 124.032 230.477 124.032C238.291 123.138 249.686 122.302 256.546 125.705Z" fill="#031119"/>
<path d="M215.035 192.257C214.942 190.271 212.93 143.618 216.907 137.403C217.942 135.789 219.186 134.151 220.605 132.559L220.884 132.803C219.477 134.383 218.244 135.998 217.221 137.601C213.302 143.723 215.384 191.758 215.407 192.246H215.035V192.257Z" fill="#47687F"/>
<path d="M226.186 84.7911C230 80.1212 232.849 82.8976 232.674 88.1483C232.5 93.3991 228.953 116.296 224.698 114.727C220.442 113.159 221.395 90.6576 226.186 84.7911Z" fill="#F8C9B1"/>
<path d="M229.023 105.097L226.465 122.929C226.709 123.847 228.105 124.625 230.174 125.229C230.5 125.322 230.849 125.415 231.209 125.508C238.267 127.239 251.256 127.343 256.907 125.09C256.907 125.09 256.465 122.069 254.674 117.225C253.302 113.542 251.151 108.803 247.814 103.54C247.605 101.972 248.918 99.2191 250.244 96.0593C252.349 91.0293 254.453 84.9653 250.372 81.0621C243.721 74.7194 226.337 76.52 225.198 89.066C225.023 97.1861 229.046 105.086 229.046 105.086H229.023V105.097Z" fill="#FD5655"/>
<path d="M229.232 126.484C229.349 126.46 230.07 126.1 231.197 125.519C236.011 123.045 248.349 116.714 254.081 117.225C254.279 117.248 254.477 117.248 254.651 117.225C253.279 113.543 251.128 108.803 247.791 103.541C247.581 101.972 248.895 99.2191 250.221 96.0593L242.709 87.5443C242.709 87.5443 242.732 87.7418 242.779 88.0903C243.186 91.1571 245.093 106.27 244.058 108.71C243.116 110.94 233.291 121.57 230.163 125.241C229.488 126.042 229.116 126.507 229.232 126.484Z" fill="#B54811"/>
<path d="M231.081 82.1193C231.302 83.6294 233.244 87.6372 233.244 87.6372C233.244 87.6372 241.302 82.642 241.011 80.6672L239.709 75.3932L238.86 71.9546L230.651 73.1511L230.93 79.0176L231.081 82.1193Z" fill="#F8C9B1"/>
<path d="M230.93 79.0292L236.663 75.1841L230.651 73.1628L230.93 79.0292Z" fill="#EE814A"/>
<path d="M223.418 62.4521C222.953 69.7939 227.116 75.8462 232.709 75.974C238.302 76.1018 242.744 70.247 242.616 62.882C242.5 55.9468 238.325 50.5334 233.302 50.4172C228.279 50.301 223.86 55.5286 223.418 62.4521Z" fill="#F8C9B1"/>
<path d="M230.291 57.2943C237.279 66.2392 247.349 62.6845 245.023 57.3292C245.023 57.3292 242.325 49.9526 234.174 49.8364C223.977 49.6854 230.291 57.2943 230.291 57.2943Z" fill="#031119"/>
<path d="M230.244 55.5983C230.244 55.5983 229 62.4057 223.232 62.8587C219.372 63.1608 224.988 51.5905 228.663 51.8112C230.825 51.939 230.244 55.5983 230.244 55.5983Z" fill="#031119"/>
<path d="M251.663 83.7688C251.663 83.7688 248.663 80.5045 243.837 84.129C239.884 87.0912 246.57 106.003 246.57 106.003L226.872 124.683L228.384 126.588C228.384 126.588 251.953 116.714 254.953 108.907C255.988 103.97 253.977 87.2074 251.663 83.7572V83.7688Z" fill="#F8C9B1"/>
<path d="M228.802 107.908L229.872 126.379L227.326 126.809C227.326 126.809 221.825 114.135 222.07 106.979C222.291 100.706 229.558 102.205 228.791 107.92L228.802 107.908Z" fill="#F8C9B1"/>
<path d="M230.128 125.229C230.128 125.229 232.918 126.89 231.57 128.029C230.232 129.155 225.395 129.097 226.779 126.089C228.163 123.08 230.128 125.241 230.128 125.241V125.229Z" fill="#F8C9B1"/>
<path d="M226.849 124.381C226.628 124.334 221.791 127.773 223.244 129.26C224.709 130.747 232.011 126.274 230.558 124.462C229.116 122.638 226.837 124.381 226.837 124.381H226.849Z" fill="#F8C9B1"/>
</svg>
