<svg width="24" height="24" viewBox="0 0 24 24" fill="none" xmlns="http://www.w3.org/2000/svg">
<g clip-path="url(#clip0_1482_5813)">
<path opacity="0.25" d="M20.8543 0C22.5892 0 24 1.41189 24 3.14722V20.8528C24 22.5889 22.5892 24 20.8543 24H3.14722C1.41227 24 0 22.5889 0 20.8528V3.14722C0 1.41227 1.41189 0 3.14722 0H20.8543Z" fill="#5384B7"/>
<path d="M10 12C10 11.4696 10.2107 10.9609 10.5858 10.5858C10.9609 10.2107 11.4696 10 12 10C12.5304 10 13.0391 10.2107 13.4142 10.5858C13.7893 10.9609 14 11.4696 14 12C14 12.5304 13.7893 13.0391 13.4142 13.4142C13.0391 13.7893 12.5304 14 12 14C11.4696 14 10.9609 13.7893 10.5858 13.4142C10.2107 13.0391 10 12.5304 10 12Z" fill="#5384B7"/>
<path fill-rule="evenodd" clip-rule="evenodd" d="M4 12C4 13.23 4.34 13.6432 5.02 14.472C6.3776 16.125 8.6544 18 12 18C15.3456 18 17.6224 16.125 18.98 14.472C19.66 13.644 20 13.2292 20 12C20 10.77 19.66 10.3568 18.98 9.528C17.6224 7.875 15.3456 6 12 6C8.6544 6 6.3776 7.875 5.02 9.528C4.34 10.3575 4 10.7708 4 12ZM12 9.1875C11.2044 9.1875 10.4413 9.48382 9.87868 10.0113C9.31607 10.5387 9 11.2541 9 12C9 12.7459 9.31607 13.4613 9.87868 13.9887C10.4413 14.5162 11.2044 14.8125 12 14.8125C12.7956 14.8125 13.5587 14.5162 14.1213 13.9887C14.6839 13.4613 15 12.7459 15 12C15 11.2541 14.6839 10.5387 14.1213 10.0113C13.5587 9.48382 12.7956 9.1875 12 9.1875Z" fill="#5384B7"/>
</g>
<defs>
<clipPath id="clip0_1482_5813">
<rect width="24" height="24" fill="white"/>
</clipPath>
</defs>
</svg>
