<svg width="24" height="24" viewBox="0 0 24 24" fill="none" xmlns="http://www.w3.org/2000/svg">
<g clip-path="url(#clip0_1482_6172)">
<path opacity="0.25" d="M20.5679 0C22.279 0 23.6704 1.3925 23.6704 3.104V20.5664C23.6704 22.2787 22.279 23.6704 20.5679 23.6704H3.104C1.39288 23.6704 0 22.2787 0 20.5664V3.104C0 1.39288 1.3925 0 3.104 0H20.5679Z" fill="#5384B7"/>
<path d="M12 20C11.425 20 10.7032 19.9124 9.83475 19.7373C8.96625 19.5622 8.338 19.3808 7.95 19.1931C7.8125 19.1306 7.70325 19.0367 7.62225 18.9116C7.54125 18.7865 7.5005 18.6489 7.5 18.4988V17.7482H6.75C6.5375 17.7482 6.3595 17.6762 6.216 17.5321C6.0725 17.3879 6.0005 17.2098 6 16.9976V15.8717C6 15.6591 6.072 15.4809 6.216 15.3373C6.36 15.1937 6.538 15.1216 6.75 15.1211H7.5V13.62H6.75C6.5375 13.62 6.3595 13.5482 6.216 13.4045C6.0725 13.2609 6.0005 13.0825 6 12.8694V11.7435C6 11.5308 6.072 11.3527 6.216 11.2091C6.36 11.0654 6.538 10.9934 6.75 10.9929H7.5V9.4917H6.75C6.5375 9.4917 6.3595 9.4199 6.216 9.27628C6.0725 9.13267 6.0005 8.95428 6 8.74111V7.61522C6 7.40255 6.072 7.22441 6.216 7.0808C6.36 6.93719 6.538 6.86513 6.75 6.86463H7.5V5.73874C7.5 5.46352 7.6125 5.25711 7.8375 5.1195C8.0625 4.98189 8.3 4.96313 8.55 5.06321C8.5625 5.06321 8.90625 5.1758 9.58125 5.40097C10.2562 5.62615 11.0625 5.73874 12 5.73874C12.9375 5.73874 13.7437 5.62615 14.4187 5.40097C15.0937 5.1758 15.4375 5.06321 15.45 5.06321C15.7 4.96313 15.9375 4.98515 16.1625 5.12926C16.3875 5.27337 16.5 5.47653 16.5 5.73874V6.86463H17.25C17.4625 6.86463 17.6407 6.93644 17.7847 7.08005C17.9287 7.22366 18.0005 7.40205 18 7.61522V8.74111C18 8.95378 17.928 9.13217 17.784 9.27628C17.64 9.4204 17.462 9.4922 17.25 9.4917H16.5V10.9929H17.25C17.4625 10.9929 17.6407 11.0649 17.7847 11.2091C17.9287 11.3532 18.0005 11.5313 18 11.7435V12.8694C18 13.082 17.928 13.2604 17.784 13.4045C17.64 13.5487 17.462 13.6205 17.25 13.62H16.5V15.1211H17.25C17.4625 15.1211 17.6407 15.1932 17.7847 15.3373C17.9287 15.4814 18.0005 15.6596 18 15.8717V16.9976C18 17.2103 17.928 17.3887 17.784 17.5328C17.64 17.6769 17.462 17.7487 17.25 17.7482H16.5V18.4988C16.5 18.6489 16.4595 18.7865 16.3785 18.9116C16.2975 19.0367 16.188 19.1306 16.05 19.1931C15.6625 19.3808 15.0345 19.5622 14.166 19.7373C13.2975 19.9124 12.5755 20 12 20ZM12 9.97959C12.475 9.97959 12.9782 9.9358 13.5097 9.84824C14.0412 9.76067 14.538 9.63557 15 9.47294V6.78957C14.525 6.92718 14.0282 7.03677 13.5097 7.11833C12.9912 7.19989 12.488 7.24043 12 7.23993C11.525 7.23993 11.0282 7.19939 10.5097 7.11833C9.99125 7.03727 9.488 6.92768 9 6.78957V9.47294C9.45 9.63557 9.94375 9.76067 10.4812 9.84824C11.0187 9.9358 11.525 9.97959 12 9.97959ZM12 14.258C12.4625 14.258 12.9595 14.2142 13.491 14.1266C14.0225 14.039 14.5255 13.9077 15 13.7326V11.0304C14.45 11.1805 13.9282 11.2931 13.4347 11.3682C12.9412 11.4432 12.463 11.4808 12 11.4808C11.5125 11.4808 11.0125 11.4432 10.5 11.3682C9.9875 11.2931 9.4875 11.1805 9 11.0304V13.7326C9.475 13.9077 9.97825 14.039 10.5097 14.1266C11.0412 14.2142 11.538 14.258 12 14.258ZM12 18.4988C12.475 18.4988 12.9782 18.455 13.5097 18.3675C14.0412 18.2799 14.538 18.1548 15 17.9922V15.3088C14.525 15.4464 14.0282 15.556 13.5097 15.6376C12.9912 15.7191 12.488 15.7597 12 15.7592C11.525 15.7592 11.0282 15.7186 10.5097 15.6376C9.99125 15.5565 9.488 15.4469 9 15.3088V17.9922C9.45 18.1548 9.94375 18.2799 10.4812 18.3675C11.0187 18.455 11.525 18.4988 12 18.4988Z" fill="#5384B7"/>
</g>
<defs>
<clipPath id="clip0_1482_6172">
<rect width="24" height="24" fill="white"/>
</clipPath>
</defs>
</svg>
