<svg width="24" height="24" viewBox="0 0 24 24" fill="none" xmlns="http://www.w3.org/2000/svg">
<g clip-path="url(#clip0_1482_5823)">
<path opacity="0.25" d="M20.8543 0C22.5892 0 24 1.41189 24 3.14722V20.8528C24 22.5889 22.5892 24 20.8543 24H3.14722C1.41227 24 0 22.5889 0 20.8528V3.14722C0 1.41227 1.41189 0 3.14722 0H20.8543Z" fill="#5384B7"/>
<path fill-rule="evenodd" clip-rule="evenodd" d="M14.9892 5.53302C15.133 5.38947 15.3279 5.30884 15.5311 5.30884C15.7343 5.30884 15.9292 5.38947 16.073 5.53302L18.2375 7.6975L18.2428 7.7021L18.2474 7.70747L18.7843 8.24437C18.9242 8.38893 19.0016 8.58262 19 8.78373C18.9984 8.98484 18.9179 9.17727 18.7758 9.31958C18.6337 9.46189 18.4413 9.54269 18.2402 9.54458C18.0391 9.54647 17.8453 9.4693 17.7006 9.32968L16.6153 10.4142L17.9713 11.7703C18.111 11.9149 18.1883 12.1087 18.1866 12.3098C18.1848 12.5109 18.1042 12.7033 17.962 12.8455C17.8198 12.9877 17.6274 13.0683 17.4263 13.0701C17.2252 13.0718 17.0314 12.9945 16.8868 12.8548L16.3445 12.3125L12.0056 16.6515C11.7919 16.8652 11.5382 17.0347 11.259 17.1504C10.9798 17.266 10.6806 17.3256 10.3784 17.3256C10.0762 17.3256 9.77694 17.266 9.49774 17.1504C9.21854 17.0347 8.96487 16.8652 8.75119 16.6515L6.35815 19.0453C6.21433 19.1892 6.01923 19.2701 5.81577 19.2702C5.61231 19.2702 5.41715 19.1895 5.27323 19.0457C5.12931 18.9018 5.04841 18.7067 5.04834 18.5033C5.04827 18.2998 5.12902 18.1047 5.27284 17.9607L7.66665 15.5662C7.23528 15.1347 6.99295 14.5495 6.99295 13.9394C6.99295 13.3292 7.23528 12.744 7.66665 12.3125L12.0056 7.97362L11.4633 7.43135C11.3236 7.28669 11.2463 7.09295 11.248 6.89184C11.2498 6.69074 11.3304 6.49836 11.4727 6.35615C11.6149 6.21395 11.8072 6.13328 12.0083 6.13153C12.2094 6.12979 12.4032 6.2071 12.5478 6.34681L13.9039 7.7021L14.9884 6.61756C14.8447 6.47373 14.7639 6.27867 14.7639 6.07529C14.7639 5.87191 14.8447 5.67686 14.9884 5.53302M16.6145 8.24514L15.5307 9.32891L14.9884 8.78664L16.073 7.7021L16.6145 8.24514ZM9.83573 13.3971L9.29346 12.8548L10.378 11.7703L10.9203 12.3125C11.06 12.4572 11.1373 12.651 11.1356 12.8521C11.1338 13.0532 11.0531 13.2455 10.9109 13.3877C10.7687 13.53 10.5763 13.6106 10.3752 13.6124C10.1741 13.6141 9.98039 13.5368 9.83573 13.3971ZM11.4618 11.7703L10.9203 11.228L12.0056 10.1435L12.5478 10.6857C12.6211 10.7565 12.6795 10.8411 12.7197 10.9347C12.7599 11.0283 12.7811 11.1289 12.782 11.2308C12.7829 11.3326 12.7635 11.4336 12.7249 11.5279C12.6863 11.6221 12.6294 11.7078 12.5574 11.7798C12.4853 11.8518 12.3997 11.9088 12.3054 11.9473C12.2112 11.9859 12.1102 12.0053 12.0083 12.0044C11.9065 12.0035 11.8059 11.9824 11.7123 11.9422C11.6187 11.902 11.5341 11.8435 11.4633 11.7703" fill="#5384B7"/>
</g>
<defs>
<clipPath id="clip0_1482_5823">
<rect width="24" height="24" fill="white"/>
</clipPath>
</defs>
</svg>
