<svg width="24" height="24" viewBox="0 0 24 24" fill="none" xmlns="http://www.w3.org/2000/svg">
<g clip-path="url(#clip0_1482_3745)">
<path opacity="0.25" d="M20.5679 0C22.279 0 23.6704 1.3925 23.6704 3.104V20.5664C23.6704 22.2787 22.279 23.6704 20.5679 23.6704H3.104C1.39288 23.6704 0 22.2787 0 20.5664V3.104C0 1.39288 1.3925 0 3.104 0H20.5679Z" fill="#5384B7"/>
<path d="M12.8065 13.4L12.7276 14.04C12.7144 14.1467 12.6716 14.2333 12.599 14.3C12.5264 14.3667 12.4377 14.4 12.3331 14.4H11.4652C11.36 14.4 11.2711 14.3667 11.1985 14.3C11.1259 14.2333 11.0833 14.1467 11.0707 14.04L10.9918 13.4C10.8866 13.36 10.7911 13.3133 10.7054 13.26C10.6197 13.2067 10.5442 13.1467 10.479 13.08L9.88722 13.34C9.79517 13.38 9.70313 13.3867 9.61108 13.36C9.51903 13.3333 9.4467 13.2733 9.39411 13.18L8.96016 12.42C8.90757 12.3267 8.891 12.2333 8.91046 12.14C8.92992 12.0467 8.97936 11.9667 9.05879 11.9L9.57163 11.52C9.54533 11.4133 9.53218 11.3067 9.53218 11.2C9.53218 11.0933 9.54533 10.9867 9.57163 10.88L9.05879 10.5C8.97989 10.4333 8.93045 10.3533 8.91046 10.26C8.89047 10.1667 8.90704 10.0733 8.96016 9.98L9.39411 9.22C9.4467 9.12667 9.51903 9.06667 9.61108 9.04C9.70313 9.01333 9.79517 9.02 9.88722 9.06L10.479 9.32C10.5447 9.25333 10.6205 9.19333 10.7062 9.14C10.7919 9.08667 10.8871 9.04 10.9918 9L11.0707 8.36C11.0838 8.25333 11.1265 8.16667 11.1985 8.1C11.2706 8.03333 11.3595 8 11.4652 8H12.3331C12.4383 8 12.5269 8.03333 12.599 8.1C12.671 8.16667 12.7139 8.25333 12.7276 8.36L12.8065 9C12.9117 9.04 13.0069 9.08667 13.0921 9.14C13.1773 9.19333 13.253 9.25333 13.3193 9.32L13.911 9.06C14.0031 9.02 14.0951 9.01333 14.1872 9.04C14.2792 9.06667 14.3516 9.12667 14.4042 9.22L14.8381 9.98C14.8907 10.0733 14.907 10.1667 14.887 10.26C14.867 10.3533 14.8179 10.4333 14.7395 10.5L14.2266 10.88C14.2529 10.9867 14.2661 11.0933 14.2661 11.2C14.2661 11.3067 14.2529 11.4133 14.2266 11.52L14.7395 11.9C14.8184 11.9667 14.8676 12.0467 14.887 12.14C14.9065 12.2333 14.8902 12.3267 14.8381 12.42L14.4042 13.18C14.3516 13.2733 14.2792 13.3333 14.1872 13.36C14.0951 13.3867 14.0031 13.38 13.911 13.34L13.3193 13.08C13.2536 13.1467 13.1778 13.2067 13.0921 13.26C13.0063 13.3133 12.9111 13.36 12.8065 13.4ZM11.8991 12.4C12.2279 12.4 12.5072 12.2835 12.737 12.0504C12.9669 11.8173 13.0821 11.5339 13.0826 11.2C13.0831 10.8661 12.9679 10.5829 12.737 10.3504C12.5061 10.1179 12.2268 10.0011 11.8991 10C11.5714 9.99893 11.2919 10.1157 11.0604 10.3504C10.829 10.5851 10.7141 10.8683 10.7157 11.2C10.7172 11.5317 10.8322 11.8152 11.0604 12.0504C11.2887 12.2856 11.5683 12.4021 11.8991 12.4ZM15.8441 20C16.0676 20 16.2549 19.9232 16.4058 19.7696C16.5568 19.616 16.6325 19.4261 16.633 19.2V16.56C17.3826 15.8667 17.9643 15.0568 18.3783 14.1304C18.7922 13.204 18.9995 12.2272 19 11.2C19 9.2 18.3096 7.5 16.9289 6.1C15.5482 4.7 13.8716 4 11.8991 4C10.2554 4 8.79895 4.49013 7.52973 5.4704C6.26052 6.45067 5.4355 7.7272 5.05469 9.3L4.02901 13.4C3.96326 13.6533 4.00928 13.8835 4.16708 14.0904C4.32488 14.2973 4.53527 14.4005 4.79827 14.4H6.37624V16.8C6.37624 17.24 6.53062 17.6168 6.83937 17.9304C7.14813 18.244 7.51974 18.4005 7.95421 18.4H9.53218V19.2C9.53218 19.4267 9.60792 19.6168 9.75941 19.7704C9.91089 19.924 10.0981 20.0005 10.3212 20H15.8441Z" fill="#5384B7"/>
</g>
<defs>
<clipPath id="clip0_1482_3745">
<rect width="24" height="24" fill="white"/>
</clipPath>
</defs>
</svg>
