<svg width="24" height="24" viewBox="0 0 24 24" fill="none" xmlns="http://www.w3.org/2000/svg">
<path opacity="0.4" d="M16.19 2H7.81C4.17 2 2 4.17 2 7.81V16.18C2 19.83 4.17 22 7.81 22H16.18C19.82 22 21.99 19.83 21.99 16.19V7.81C22 4.17 19.83 2 16.19 2Z" fill="#334A5B"/>
<path d="M10.7397 16.28C10.5497 16.28 10.3597 16.21 10.2097 16.06C9.91969 15.77 9.91969 15.29 10.2097 15L13.2097 12L10.2097 9C9.91969 8.71 9.91969 8.23 10.2097 7.94C10.4997 7.65 10.9797 7.65 11.2697 7.94L14.7997 11.47C15.0897 11.76 15.0897 12.24 14.7997 12.53L11.2697 16.06C11.1197 16.21 10.9297 16.28 10.7397 16.28Z" fill="#334A5B"/>
</svg>
