<svg width="57" height="56" viewBox="0 0 57 56" fill="none" xmlns="http://www.w3.org/2000/svg">
<rect opacity="0.25" x="3.25" y="3" width="50" height="50" rx="5" fill="#5384B7"/>
<path d="M11.6541 11.2981C11.6387 11.2707 11.6289 11.2405 11.6253 11.2093C11.6218 11.1781 11.6246 11.1465 11.6335 11.1164C11.6425 11.0863 11.6574 11.0582 11.6774 11.0338C11.6975 11.0093 11.7222 10.9891 11.7502 10.9741L13.5127 10.0295C13.5407 10.0143 13.5714 10.0048 13.6031 10.0014C13.6348 9.998 13.6669 10.0008 13.6974 10.0097C13.728 10.0187 13.7565 10.0334 13.7812 10.0533C13.806 10.0731 13.8264 10.0975 13.8415 10.1252L14.5483 11.3939C17.2205 10.6057 20.1811 11.7267 21.5715 14.2319L18.1563 16.0663C18.4276 16.5557 18.4901 17.131 18.3302 17.6658C18.1703 18.2005 17.801 18.6509 17.3036 18.9177C16.8061 19.1846 16.2213 19.2461 15.6778 19.0888C15.1343 18.9315 14.6765 18.5681 14.4052 18.0788L10.9889 19.9108C9.59729 17.4068 10.2364 14.351 12.3597 12.5674L11.6541 11.2981ZM35.7159 34.1505H47.21V45.84H35.7159V34.1505ZM34.3985 39.9929H25.1155C24.3375 39.9928 23.5914 39.6888 23.041 39.1478C22.4907 38.6068 22.1811 37.873 22.1804 37.1076C22.1808 36.3422 22.4903 35.6083 23.0407 35.0673C23.5911 34.5263 24.3374 34.2226 25.1155 34.2229H34.3985V39.9929ZM14.3839 42.3335C14.3839 41.6884 14.915 41.1647 15.5713 41.1647H34.3979V45.8388H14.3839V42.3329V42.3335ZM21.5228 36.5098C21.5225 36.9675 21.4306 37.4208 21.2522 37.8436C21.0738 38.2664 20.8126 38.6505 20.4833 38.9739C20.154 39.2973 19.7632 39.5538 19.3332 39.7287C18.9032 39.9035 18.4424 39.9933 17.9771 39.9929C17.5118 39.9934 17.0509 39.9036 16.6208 39.7288C16.1907 39.554 15.7998 39.2976 15.4705 38.9741C15.1412 38.6507 14.8799 38.2665 14.7015 37.8437C14.5231 37.4209 14.4311 36.9676 14.4308 36.5098C14.4308 34.5872 16.0182 33.0284 17.9771 33.0284C19.9348 33.0284 21.5228 34.5872 21.5228 36.5098ZM40.9042 26.7557L38.9097 21.169C38.5228 20.1158 37.7798 19.2937 35.6826 19.2937H26.475C24.3784 19.2937 23.6343 20.1158 23.2491 21.169L21.2552 26.7557C21.1062 27.1165 21.0291 27.9274 21.8403 28.4704L26.529 31.5098C26.8578 31.7231 27.2591 31.7994 27.645 31.722C28.0309 31.6447 28.3699 31.4199 28.5876 31.0971C28.695 30.9368 28.7692 30.7573 28.8061 30.5688C28.843 30.3803 28.8417 30.1865 28.8024 29.9985C28.7631 29.8104 28.6866 29.6319 28.5771 29.473C28.4676 29.314 28.3274 29.1779 28.1645 29.0723L24.4431 26.6593L25.4905 23.8167H26.9402L26.091 26.1228L28.9164 27.9549C29.229 28.1564 29.4979 28.4171 29.7075 28.7216C29.917 29.0262 30.063 29.3686 30.1371 29.7291C30.2139 30.0895 30.2171 30.4613 30.1466 30.8229C30.0761 31.1845 29.9333 31.5288 29.7264 31.8356C29.5607 32.079 29.3573 32.2953 29.1235 32.4767H33.0354C32.802 32.2946 32.5985 32.0784 32.4318 31.8356C32.2251 31.5287 32.0822 31.1845 32.0115 30.823C31.9408 30.4614 31.9437 30.0896 32.02 29.7291C32.0944 29.3687 32.2406 29.0263 32.4502 28.7218C32.6599 28.4173 32.9287 28.1566 33.2413 27.9549L36.0684 26.1228L35.2156 23.8167H36.6665L37.7163 26.6593L33.9932 29.0723C33.3089 29.516 33.1178 30.4251 33.5706 31.0971C34.0234 31.769 34.9456 31.9547 35.6298 31.5098L40.3179 28.4704C41.1297 27.9268 41.0526 27.1165 40.9042 26.7557ZM31.9951 13.8261C31.8831 14.0654 31.7037 14.2681 31.4782 14.4102C31.2527 14.5523 30.9905 14.6278 30.7228 14.6277C30.4546 14.6276 30.1921 14.5521 29.9662 14.4101C29.7403 14.268 29.5603 14.0654 29.4475 13.8261H26.8791C26.8376 14.048 26.8133 14.2751 26.8133 14.5092C26.8144 15.5321 27.2282 16.5127 27.9638 17.2356C28.6995 17.9585 29.6967 18.3644 30.7364 18.3643C31.2513 18.3646 31.7613 18.2652 32.2372 18.0717C32.7131 17.8782 33.1455 17.5943 33.5099 17.2363C33.8743 16.8783 34.1634 16.4532 34.3607 15.9853C34.5581 15.5174 34.6599 15.0158 34.6602 14.5092C34.6602 14.2745 34.6346 14.048 34.5949 13.8261H31.9951ZM29.3608 12.9159C29.4376 12.6177 29.6132 12.3532 29.8598 12.1642C30.1065 11.9752 30.4101 11.8723 30.7228 11.872C31.3791 11.872 31.9328 12.3181 32.0823 12.9159H34.3077C33.9961 12.2413 33.4938 11.6691 32.8606 11.2679C32.2274 10.8666 31.4902 10.6531 30.737 10.653C29.9838 10.6531 29.2466 10.8666 28.6134 11.2679C27.9802 11.6691 27.4779 12.2413 27.1663 12.9159H29.3608Z" fill="#5384B7"/>
</svg>
