<svg width="114" height="110" viewBox="0 0 114 110" fill="none" xmlns="http://www.w3.org/2000/svg">
<rect x="17" y="68" width="81" height="12" fill="#FFC340" style="mix-blend-mode:overlay"/>
<path d="M5.68359 21H1.69922L1.23047 20.9883C0.902344 20.9883 0.738281 20.8438 0.738281 20.5547C0.738281 20.375 0.816406 20.2344 0.972656 20.1328C1.37891 19.9219 1.62109 19.582 1.69922 19.1133V6.98438C1.62109 6.51562 1.37891 6.17578 0.972656 5.96484C0.816406 5.86328 0.738281 5.72266 0.738281 5.54297C0.738281 5.25391 0.898438 5.10938 1.21875 5.10938C1.53906 5.10156 4.75391 5.09766 10.8633 5.09766C11.3164 5.09766 11.6758 5.15625 11.9414 5.27344C12.207 5.38281 12.3789 5.59375 12.457 5.90625C12.8008 7.14844 12.9727 7.79687 12.9727 7.85156C12.9727 8.00781 12.875 8.08594 12.6797 8.08594C12.5156 8.08594 12.4023 8.01172 12.3398 7.86328C12.082 7.11328 11.5781 6.57422 10.8281 6.24609C10.0781 5.91016 9.19531 5.74219 8.17969 5.74219H5.68359V12.7266H7.45312C7.80469 12.7266 8.16406 12.6758 8.53125 12.5742C9.35938 12.3555 9.82422 11.8867 9.92578 11.168C9.94922 11.0117 10.0586 10.9336 10.2539 10.9336C10.4648 10.9336 10.5703 11.0117 10.5703 11.168V14.9648C10.5703 15.0977 10.4648 15.1641 10.2539 15.1641C10.0586 15.1641 9.94922 15.0938 9.92578 14.9531C9.87891 14.5703 9.72656 14.2617 9.46875 14.0273C8.97656 13.5898 8.30469 13.3711 7.45312 13.3711H5.68359V19.1133C5.77734 19.582 6.01953 19.9219 6.41016 20.1328C6.57422 20.2266 6.65625 20.375 6.65625 20.5781C6.65625 20.8516 6.49219 20.9883 6.16406 20.9883L5.68359 21ZM17.5664 21.3164C16.5117 21.3164 15.543 21.0977 14.6602 20.6602C13.7773 20.2227 13.0469 19.5508 12.4688 18.6445C11.8281 17.5586 11.5078 16.3984 11.5078 15.1641C11.5078 14.9922 11.5156 14.8164 11.5312 14.6367C11.6797 12.8633 12.3242 11.4453 13.4648 10.3828C14.6133 9.32031 16.0742 8.78906 17.8477 8.78906C18.8711 8.78906 19.7344 8.95703 20.4375 9.29297C21.1406 9.62109 21.6875 10.0469 22.0781 10.5703C22.5312 11.1875 22.7578 11.8672 22.7578 12.6094C22.7578 13.0938 22.6367 13.5898 22.3945 14.0977C22.1523 14.6055 21.7305 15.0625 21.1289 15.4688C20.5273 15.8672 19.7539 16.1289 18.8086 16.2539C18.4961 16.3008 18.168 16.3242 17.8242 16.3242C17.1133 16.3242 16.3281 16.2305 15.4688 16.043C15.625 16.5977 15.8594 17.0977 16.1719 17.543C16.4922 17.9805 16.9023 18.332 17.4023 18.5977C17.9023 18.8555 18.4961 18.9844 19.1836 18.9844C20.1992 18.9844 21.1484 18.7031 22.0312 18.1406C22.1172 18.0859 22.2031 18.0586 22.2891 18.0586C22.3516 18.0586 22.4102 18.0781 22.4648 18.1172C22.5586 18.1875 22.6055 18.2812 22.6055 18.3984C22.6055 18.4531 22.5898 18.5078 22.5586 18.5625C21.9883 19.4141 21.2656 20.0859 20.3906 20.5781C19.5234 21.0703 18.582 21.3164 17.5664 21.3164ZM15.3047 15.3164C16.8984 15.3164 18.0586 14.8359 18.7852 13.875C19.2461 13.2109 19.4766 12.418 19.4766 11.4961C19.4766 10.2148 18.9609 9.55078 17.9297 9.50391C17.2812 9.52734 16.7305 9.83203 16.2773 10.418C15.832 11.0039 15.5391 11.6367 15.3984 12.3164C15.2656 12.9883 15.1992 13.5664 15.1992 14.0508C15.1992 14.4727 15.2344 14.8945 15.3047 15.3164ZM29.5664 21.3164C28.5117 21.3164 27.543 21.0977 26.6602 20.6602C25.7773 20.2227 25.0469 19.5508 24.4688 18.6445C23.8281 17.5586 23.5078 16.3984 23.5078 15.1641C23.5078 14.9922 23.5156 14.8164 23.5312 14.6367C23.6797 12.8633 24.3242 11.4453 25.4648 10.3828C26.6133 9.32031 28.0742 8.78906 29.8477 8.78906C30.8711 8.78906 31.7344 8.95703 32.4375 9.29297C33.1406 9.62109 33.6875 10.0469 34.0781 10.5703C34.5312 11.1875 34.7578 11.8672 34.7578 12.6094C34.7578 13.0938 34.6367 13.5898 34.3945 14.0977C34.1523 14.6055 33.7305 15.0625 33.1289 15.4688C32.5273 15.8672 31.7539 16.1289 30.8086 16.2539C30.4961 16.3008 30.168 16.3242 29.8242 16.3242C29.1133 16.3242 28.3281 16.2305 27.4688 16.043C27.625 16.5977 27.8594 17.0977 28.1719 17.543C28.4922 17.9805 28.9023 18.332 29.4023 18.5977C29.9023 18.8555 30.4961 18.9844 31.1836 18.9844C32.1992 18.9844 33.1484 18.7031 34.0312 18.1406C34.1172 18.0859 34.2031 18.0586 34.2891 18.0586C34.3516 18.0586 34.4102 18.0781 34.4648 18.1172C34.5586 18.1875 34.6055 18.2812 34.6055 18.3984C34.6055 18.4531 34.5898 18.5078 34.5586 18.5625C33.9883 19.4141 33.2656 20.0859 32.3906 20.5781C31.5234 21.0703 30.582 21.3164 29.5664 21.3164ZM27.3047 15.3164C28.8984 15.3164 30.0586 14.8359 30.7852 13.875C31.2461 13.2109 31.4766 12.418 31.4766 11.4961C31.4766 10.2148 30.9609 9.55078 29.9297 9.50391C29.2812 9.52734 28.7305 9.83203 28.2773 10.418C27.832 11.0039 27.5391 11.6367 27.3984 12.3164C27.2656 12.9883 27.1992 13.5664 27.1992 14.0508C27.1992 14.4727 27.2344 14.8945 27.3047 15.3164ZM38.1797 21L35.707 20.9883C35.3789 20.9883 35.2148 20.8516 35.2148 20.5781C35.2148 20.375 35.2969 20.2266 35.4609 20.1328C35.8516 19.9219 36.0938 19.582 36.1875 19.1133V8.56641C36.1875 7.91797 36.125 7.46094 36 7.19531C35.8828 6.92969 35.6953 6.72656 35.4375 6.58594C35.2891 6.48437 35.2148 6.34375 35.2148 6.16406C35.2148 5.875 35.3672 5.73047 35.6719 5.73047C36.8906 5.73047 38.1836 5.52344 39.5508 5.10938L39.6562 5.09766C39.8359 5.09766 39.9648 5.14844 40.043 5.25C40.1289 5.34375 40.1719 5.53125 40.1719 5.8125V19.1133C40.25 19.582 40.4922 19.9219 40.8984 20.1328C41.0547 20.2344 41.1328 20.375 41.1328 20.5547C41.1328 20.8438 40.9688 20.9883 40.6406 20.9883L38.1797 21ZM45.3984 8.55469C44.9766 8.55469 44.5898 8.49219 44.2383 8.36719C43.8945 8.23438 43.6172 8.04297 43.4062 7.79297C43.2031 7.53516 43.1016 7.21484 43.1016 6.83203C43.1016 6.44141 43.2031 6.12109 43.4062 5.87109C43.6172 5.61328 43.8945 5.42188 44.2383 5.29688C44.5898 5.16406 44.9766 5.09766 45.3984 5.09766C46.0312 5.09766 46.5703 5.25391 47.0156 5.56641C47.4688 5.87109 47.6953 6.29297 47.6953 6.83203C47.6953 7.37109 47.4688 7.79297 47.0156 8.09766C46.5703 8.40234 46.0312 8.55469 45.3984 8.55469ZM45.3984 21L42.9258 20.9883C42.6055 20.9883 42.4453 20.8438 42.4453 20.5547C42.4453 20.3672 42.5234 20.2266 42.6797 20.1328C42.875 20.0312 43.0312 19.9062 43.1484 19.7578C43.2656 19.6016 43.3516 19.3867 43.4062 19.1133V12.5859C43.4062 11.9375 43.3477 11.4805 43.2305 11.2148C43.1133 10.9492 42.9258 10.7461 42.668 10.6055C42.5195 10.5117 42.4453 10.3672 42.4453 10.1719C42.4453 9.89062 42.5977 9.75 42.9023 9.75C44.1602 9.75 45.418 9.55078 46.6758 9.15234C46.7383 9.12891 46.8047 9.11719 46.875 9.11719C47.0625 9.11719 47.1953 9.16797 47.2734 9.26953C47.3516 9.36328 47.3906 9.55078 47.3906 9.83203V19.1133C47.4453 19.3867 47.5312 19.6016 47.6484 19.7578C47.7656 19.9062 47.9219 20.0312 48.1172 20.1328C48.2812 20.2266 48.3633 20.375 48.3633 20.5781C48.3633 20.8516 48.1992 20.9883 47.8711 20.9883L45.3984 21ZM59.9766 21C59.5781 21 59.2031 20.9258 58.8516 20.7773C58.0703 20.457 57.6797 19.8047 57.6797 18.8203V13.5352C57.6797 12.5508 57.6211 11.7969 57.5039 11.2734C57.3164 10.4766 56.8906 10.0781 56.2266 10.0781C55.7891 10.0781 55.4023 10.3164 55.0664 10.793C54.7305 11.2617 54.4961 11.8867 54.3633 12.668V19.1133C54.4414 19.582 54.6836 19.9219 55.0898 20.1328C55.2461 20.2344 55.3242 20.375 55.3242 20.5547C55.3242 20.8438 55.1602 20.9883 54.832 20.9883L52.3711 21L49.8984 20.9883C49.5703 20.9883 49.4062 20.8516 49.4062 20.5781C49.4062 20.375 49.4883 20.2266 49.6523 20.1328C50.043 19.9219 50.2852 19.582 50.3789 19.1133V12.5859C50.3789 11.9375 50.3203 11.4805 50.2031 11.2148C50.0859 10.9492 49.8945 10.7461 49.6289 10.6055C49.4805 10.5039 49.4062 10.3555 49.4062 10.1602C49.4062 9.88672 49.5586 9.75 49.8633 9.75C51.1211 9.75 52.375 9.55469 53.625 9.16406C53.7031 9.13281 53.7773 9.11719 53.8477 9.11719C54.0273 9.11719 54.1562 9.16797 54.2344 9.26953C54.3203 9.36328 54.3633 9.55078 54.3633 9.83203V10.6172C55.0039 9.40625 56.125 8.80078 57.7266 8.80078C60.3281 8.80078 61.6406 10.5703 61.6641 14.1094V18.6445C61.6641 18.9492 61.7266 19.1602 61.8516 19.2773C61.9844 19.3945 62.168 19.4883 62.4023 19.5586C62.543 19.6133 62.6133 19.707 62.6133 19.8398C62.6133 19.8477 62.6094 19.8945 62.6016 19.9805C62.6016 20.0664 62.5352 20.168 62.4023 20.2852C62.1758 20.4727 61.8359 20.6406 61.3828 20.7891C60.9375 20.9297 60.4688 21 59.9766 21ZM69.2578 26.5078C67.6094 26.5078 66.1992 26.2344 65.0273 25.6875C63.7461 25.1016 63.1055 24.3047 63.1055 23.2969C63.1055 22.8906 63.1836 22.5508 63.3398 22.2773C63.5039 22.0117 63.7109 21.8125 63.9609 21.6797C64.2188 21.5547 64.4922 21.4922 64.7812 21.4922C65.8281 21.5078 66.3516 22.0664 66.3516 23.168C66.3516 23.2852 66.3438 23.4023 66.3281 23.5195V23.6953C66.3281 24.4297 66.6055 24.9727 67.1602 25.3242C67.7148 25.6758 68.4336 25.8516 69.3164 25.8516C69.9023 25.8516 70.4766 25.7695 71.0391 25.6055C71.6094 25.4414 72.0859 25.207 72.4688 24.9023C72.8516 24.6055 73.043 24.2578 73.043 23.8594C73.043 23.1094 72.3828 22.5586 71.0625 22.207C70.1641 21.9727 68.9492 21.793 67.418 21.668C66.7617 21.6133 66.2617 21.5547 65.918 21.4922C65.1055 21.2969 64.4609 20.9062 63.9844 20.3203C63.5156 19.7266 63.2812 19.043 63.2812 18.2695C63.2812 17.7852 63.3984 17.3164 63.6328 16.8633C63.875 16.4023 64.2305 16.0273 64.6992 15.7383C64.3711 15.1367 64.207 14.4258 64.207 13.6055C64.207 12.5977 64.4375 11.7617 64.8984 11.0977C65.3594 10.4336 65.9766 9.9375 66.75 9.60938C67.5312 9.28125 68.3945 9.11719 69.3398 9.11719C70.0664 9.11719 70.75 9.22266 71.3906 9.43359C71.2969 9.18359 71.25 8.9375 71.25 8.69531C71.25 7.36719 72.1602 6.70312 73.9805 6.70312C74.8086 6.70312 75.3477 6.94922 75.5977 7.44141C75.7227 7.69922 75.7852 7.95313 75.7852 8.20312C75.7852 9.17188 75.2852 9.65625 74.2852 9.65625C73.793 9.65625 73.375 9.37891 73.0312 8.82422C72.7969 8.44141 72.5625 8.25 72.3281 8.25C72.0703 8.25 71.9414 8.40234 71.9414 8.70703C71.9414 8.77734 71.9492 8.85938 71.9648 8.95312C72.0508 9.35938 72.2188 9.69141 72.4688 9.94922C73.0859 10.332 73.5742 10.832 73.9336 11.4492C74.293 12.0664 74.4727 12.7852 74.4727 13.6055C74.4727 14.5352 74.2422 15.3359 73.7812 16.0078C73.3203 16.6719 72.6992 17.1836 71.918 17.543C71.1445 17.9023 70.2852 18.082 69.3398 18.082C68.4492 18.082 67.6328 17.9375 66.8906 17.6484C66.1484 17.3516 65.543 16.9102 65.0742 16.3242C64.9648 16.5273 64.9102 16.7266 64.9102 16.9219C64.9102 17.5625 65.3945 18.0312 66.3633 18.3281C67.0742 18.5469 68.1719 18.7422 69.6562 18.9141C70.5312 19.0078 71.3789 19.1289 72.1992 19.2773C73.0273 19.4258 73.7461 19.6523 74.3555 19.957C75.3242 20.5039 75.8086 21.3008 75.8086 22.3477C75.8086 22.8086 75.6719 23.332 75.3984 23.918C75.125 24.5117 74.6172 25.0273 73.875 25.4648C72.625 26.1602 71.0859 26.5078 69.2578 26.5078ZM69.3398 17.4492C69.6523 17.4492 69.9375 17.3477 70.1953 17.1445C70.4531 16.9336 70.6562 16.5547 70.8047 16.0078C70.9609 15.4531 71.0391 14.6523 71.0391 13.6055C71.0391 12.5586 70.9609 11.7578 70.8047 11.2031C70.6562 10.6484 70.4531 10.2695 70.1953 10.0664C69.9375 9.85547 69.6523 9.75 69.3398 9.75C68.793 9.75 68.3906 9.96484 68.1328 10.3945C67.8047 10.957 67.6406 12.0273 67.6406 13.6055C67.6406 15.1836 67.8047 16.25 68.1328 16.8047C68.3906 17.2344 68.793 17.4492 69.3398 17.4492ZM93.9961 19.1133C94.0742 19.582 94.3164 19.9219 94.7227 20.1328C94.8789 20.2344 94.957 20.375 94.957 20.5547C94.957 20.8438 94.793 20.9883 94.4648 20.9883L92.0039 21L89.5312 20.9883C89.2031 20.9883 89.0391 20.8516 89.0391 20.5781C89.0391 20.375 89.1211 20.2266 89.2852 20.1328C89.6758 19.9219 89.918 19.582 90.0117 19.1133V8.56641C90.0117 8.17578 89.9688 7.80859 89.8828 7.46484C89.8047 7.12109 89.6523 6.84375 89.4258 6.63281C89.1992 6.42188 88.8672 6.31641 88.4297 6.31641C88.1719 6.31641 87.9375 6.38672 87.7266 6.52734C87.4766 6.69141 87.1914 7.00391 86.8711 7.46484C86.4883 8.01172 86.1562 8.38281 85.875 8.57812C85.625 8.75781 85.3086 8.84766 84.9258 8.84766C84.1133 8.84766 83.5273 8.54297 83.168 7.93359C82.9961 7.65234 82.9102 7.32422 82.9102 6.94922C82.9102 6.44922 83.1055 5.98828 83.4961 5.56641C84.0195 5.05859 84.7539 4.80469 85.6992 4.80469C86.207 4.80469 86.7266 4.86328 87.2578 4.98047C87.7969 5.09766 88.3008 5.21875 88.7695 5.34375C89.6133 5.55469 90.1523 5.66016 90.3867 5.66016C91.1836 5.66016 92.1797 5.47656 93.375 5.10938L93.4805 5.09766C93.6602 5.09766 93.7891 5.14844 93.8672 5.25C93.9531 5.34375 93.9961 5.53125 93.9961 5.8125V19.1133ZM85.5117 21L83.0391 20.9883C82.7109 20.9883 82.5469 20.8516 82.5469 20.5781C82.5469 20.375 82.6289 20.2266 82.793 20.1328C83.1836 19.9219 83.4258 19.582 83.5195 19.1133V12.5859C83.5195 11.9375 83.4609 11.4805 83.3438 11.2148C83.2266 10.9492 83.0352 10.7461 82.7695 10.6055C82.6211 10.5039 82.5469 10.3555 82.5469 10.1602C82.5469 9.88672 82.6992 9.75 83.0039 9.75C84.2617 9.75 85.5234 9.55078 86.7891 9.15234C86.8516 9.12891 86.918 9.11719 86.9883 9.11719C87.168 9.11719 87.2969 9.16797 87.375 9.26953C87.4609 9.36328 87.5039 9.55078 87.5039 9.83203V19.1133C87.582 19.582 87.8242 19.9219 88.2305 20.1328C88.3867 20.2344 88.4648 20.375 88.4648 20.5547C88.4648 20.8438 88.3008 20.9883 87.9727 20.9883L85.5117 21ZM98.7891 21L96.3164 20.9883C95.9883 20.9883 95.8242 20.8516 95.8242 20.5781C95.8242 20.375 95.9062 20.2266 96.0703 20.1328C96.4609 19.9219 96.7031 19.582 96.7969 19.1133V8.56641C96.7969 7.91797 96.7344 7.46094 96.6094 7.19531C96.4922 6.92969 96.3047 6.72656 96.0469 6.58594C95.8984 6.48437 95.8242 6.34375 95.8242 6.16406C95.8242 5.875 95.9766 5.73047 96.2812 5.73047C97.5 5.73047 98.793 5.52344 100.16 5.10938L100.266 5.09766C100.445 5.09766 100.574 5.14844 100.652 5.25C100.738 5.34375 100.781 5.53125 100.781 5.8125V19.1133C100.859 19.582 101.102 19.9219 101.508 20.1328C101.664 20.2344 101.742 20.375 101.742 20.5547C101.742 20.8438 101.578 20.9883 101.25 20.9883L98.7891 21ZM106.523 16.4648C106.266 16.4648 106.137 16.3633 106.137 16.1602C106.137 15.2148 106.289 14.3945 106.594 13.6992C106.898 12.9961 107.281 12.3828 107.742 11.8594C108.211 11.3281 108.699 10.8438 109.207 10.4062C109.715 9.96875 110.09 9.48438 110.332 8.95312C110.527 8.53125 110.625 8.12109 110.625 7.72266C110.625 7.62109 110.605 7.42187 110.566 7.125C110.527 6.82813 110.305 6.51953 109.898 6.19922C109.5 5.87891 108.91 5.71875 108.129 5.71875C107.707 5.71875 107.312 5.80859 106.945 5.98828C106.117 6.38672 105.703 7.11328 105.703 8.16797C105.703 8.64453 105.551 9.01953 105.246 9.29297C104.895 9.59766 104.508 9.75 104.086 9.75C103.734 9.75 103.414 9.62891 103.125 9.38672C102.844 9.14453 102.703 8.73828 102.703 8.16797C102.766 7.26953 103.309 6.53516 104.332 5.96484C105.355 5.39453 106.605 5.10938 108.082 5.10938C109.52 5.10938 110.688 5.44922 111.586 6.12891C112.492 6.80078 112.969 7.76172 113.016 9.01172C113 10.1758 112.383 11.2422 111.164 12.2109C110.625 12.6328 110.074 13.0312 109.512 13.4062C109.059 13.7031 108.641 13.9961 108.258 14.2852C107.398 14.9336 106.969 15.5586 106.969 16.1602C106.969 16.3633 106.82 16.4648 106.523 16.4648ZM106.863 21C106.363 21 105.938 20.8594 105.586 20.5781C105.234 20.2891 105.059 19.8555 105.059 19.2773C105.059 18.6992 105.234 18.2656 105.586 17.9766C105.938 17.6875 106.363 17.543 106.863 17.543C107.355 17.543 107.777 17.6992 108.129 18.0117C108.48 18.3164 108.656 18.7383 108.656 19.2773C108.656 19.8164 108.48 20.2383 108.129 20.543C107.777 20.8477 107.355 21 106.863 21Z" fill="white"/>
<path d="M20.723 44.848V53.088C20.723 54.0053 20.4403 54.7413 19.875 55.296C19.3097 55.84 18.563 56.112 17.635 56.112C16.6963 56.112 15.9443 55.8347 15.379 55.28C14.8137 54.7147 14.531 53.9467 14.531 52.976H15.987C15.9977 53.52 16.1363 53.9627 16.403 54.304C16.6803 54.6453 17.091 54.816 17.635 54.816C18.179 54.816 18.5843 54.656 18.851 54.336C19.1177 54.0053 19.251 53.5893 19.251 53.088V44.848H20.723ZM31.3674 47.232V56H29.9114V54.704C29.634 55.152 29.2447 55.504 28.7434 55.76C28.2527 56.0053 27.7087 56.128 27.1114 56.128C26.4287 56.128 25.8154 55.9893 25.2714 55.712C24.7274 55.424 24.2954 54.9973 23.9754 54.432C23.666 53.8667 23.5114 53.1787 23.5114 52.368V47.232H24.9514V52.176C24.9514 53.04 25.17 53.7067 25.6074 54.176C26.0447 54.6347 26.642 54.864 27.3994 54.864C28.178 54.864 28.7914 54.624 29.2394 54.144C29.6874 53.664 29.9114 52.9653 29.9114 52.048V47.232H31.3674ZM36.9298 56.144C36.2578 56.144 35.6551 56.032 35.1218 55.808C34.5884 55.5733 34.1671 55.2533 33.8578 54.848C33.5484 54.432 33.3778 53.9573 33.3458 53.424H34.8498C34.8924 53.8613 35.0951 54.2187 35.4578 54.496C35.8311 54.7733 36.3164 54.912 36.9138 54.912C37.4684 54.912 37.9058 54.7893 38.2258 54.544C38.5458 54.2987 38.7058 53.9893 38.7058 53.616C38.7058 53.232 38.5351 52.9493 38.1938 52.768C37.8524 52.576 37.3244 52.3893 36.6098 52.208C35.9591 52.0373 35.4258 51.8667 35.0098 51.696C34.6044 51.5147 34.2524 51.2533 33.9538 50.912C33.6658 50.56 33.5218 50.1013 33.5218 49.536C33.5218 49.088 33.6551 48.6773 33.9218 48.304C34.1884 47.9307 34.5671 47.6373 35.0578 47.424C35.5484 47.2 36.1084 47.088 36.7378 47.088C37.7084 47.088 38.4924 47.3333 39.0898 47.824C39.6871 48.3147 40.0071 48.9867 40.0498 49.84H38.5938C38.5618 49.3813 38.3751 49.0133 38.0338 48.736C37.7031 48.4587 37.2551 48.32 36.6898 48.32C36.1671 48.32 35.7511 48.432 35.4418 48.656C35.1324 48.88 34.9778 49.1733 34.9778 49.536C34.9778 49.824 35.0684 50.064 35.2498 50.256C35.4418 50.4373 35.6764 50.5867 35.9538 50.704C36.2418 50.8107 36.6364 50.9333 37.1378 51.072C37.7671 51.2427 38.2791 51.4133 38.6738 51.584C39.0684 51.744 39.4044 51.9893 39.6818 52.32C39.9698 52.6507 40.1191 53.0827 40.1298 53.616C40.1298 54.096 39.9964 54.528 39.7298 54.912C39.4631 55.296 39.0844 55.6 38.5938 55.824C38.1138 56.0373 37.5591 56.144 36.9298 56.144ZM43.9611 48.432V53.6C43.9611 54.0267 44.0518 54.3307 44.2331 54.512C44.4145 54.6827 44.7291 54.768 45.1771 54.768H46.2491V56H44.9371C44.1265 56 43.5185 55.8133 43.1131 55.44C42.7078 55.0667 42.5051 54.4533 42.5051 53.6V48.432H41.3691V47.232H42.5051V45.024H43.9611V47.232H46.2491V48.432H43.9611ZM60.8709 44.848V56H59.4149V50.944H53.7349V56H52.2789V44.848H53.7349V49.744H59.4149V44.848H60.8709ZM71.357 51.28C71.357 51.5573 71.341 51.8507 71.309 52.16H64.301C64.3543 53.024 64.6477 53.7013 65.181 54.192C65.725 54.672 66.381 54.912 67.149 54.912C67.7783 54.912 68.301 54.768 68.717 54.48C69.1437 54.1813 69.4423 53.7867 69.613 53.296H71.181C70.9463 54.1387 70.477 54.8267 69.773 55.36C69.069 55.8827 68.1943 56.144 67.149 56.144C66.317 56.144 65.5703 55.9573 64.909 55.584C64.2583 55.2107 63.7463 54.6827 63.373 54C62.9997 53.3067 62.813 52.5067 62.813 51.6C62.813 50.6933 62.9943 49.8987 63.357 49.216C63.7197 48.5333 64.2263 48.0107 64.877 47.648C65.5383 47.2747 66.2957 47.088 67.149 47.088C67.981 47.088 68.717 47.2693 69.357 47.632C69.997 47.9947 70.4877 48.496 70.829 49.136C71.181 49.7653 71.357 50.48 71.357 51.28ZM69.853 50.976C69.853 50.4213 69.7303 49.9467 69.485 49.552C69.2397 49.1467 68.9037 48.8427 68.477 48.64C68.061 48.4267 67.597 48.32 67.085 48.32C66.349 48.32 65.7197 48.5547 65.197 49.024C64.685 49.4933 64.3917 50.144 64.317 50.976H69.853ZM72.7349 51.584C72.7349 50.688 72.9162 49.904 73.2789 49.232C73.6415 48.5493 74.1375 48.0213 74.7669 47.648C75.4069 47.2747 76.1162 47.088 76.8949 47.088C77.6629 47.088 78.3295 47.2533 78.8949 47.584C79.4602 47.9147 79.8815 48.3307 80.1589 48.832V47.232H81.6309V56H80.1589V54.368C79.8709 54.88 79.4389 55.3067 78.8629 55.648C78.2975 55.9787 77.6362 56.144 76.8789 56.144C76.1002 56.144 75.3962 55.952 74.7669 55.568C74.1375 55.184 73.6415 54.6453 73.2789 53.952C72.9162 53.2587 72.7349 52.4693 72.7349 51.584ZM80.1589 51.6C80.1589 50.9387 80.0255 50.3627 79.7589 49.872C79.4922 49.3813 79.1295 49.008 78.6709 48.752C78.2229 48.4853 77.7269 48.352 77.1829 48.352C76.6389 48.352 76.1429 48.48 75.6949 48.736C75.2469 48.992 74.8895 49.3653 74.6229 49.856C74.3562 50.3467 74.2229 50.9227 74.2229 51.584C74.2229 52.256 74.3562 52.8427 74.6229 53.344C74.8895 53.8347 75.2469 54.2133 75.6949 54.48C76.1429 54.736 76.6389 54.864 77.1829 54.864C77.7269 54.864 78.2229 54.736 78.6709 54.48C79.1295 54.2133 79.4922 53.8347 79.7589 53.344C80.0255 52.8427 80.1589 52.2613 80.1589 51.6ZM83.5474 51.584C83.5474 50.688 83.7287 49.904 84.0914 49.232C84.454 48.5493 84.95 48.0213 85.5794 47.648C86.2194 47.2747 86.934 47.088 87.7234 47.088C88.406 47.088 89.0407 47.248 89.6274 47.568C90.214 47.8773 90.662 48.288 90.9714 48.8V44.16H92.4434V56H90.9714V54.352C90.6834 54.8747 90.2567 55.3067 89.6914 55.648C89.126 55.9787 88.4647 56.144 87.7074 56.144C86.9287 56.144 86.2194 55.952 85.5794 55.568C84.95 55.184 84.454 54.6453 84.0914 53.952C83.7287 53.2587 83.5474 52.4693 83.5474 51.584ZM90.9714 51.6C90.9714 50.9387 90.838 50.3627 90.5714 49.872C90.3047 49.3813 89.942 49.008 89.4834 48.752C89.0354 48.4853 88.5394 48.352 87.9954 48.352C87.4514 48.352 86.9554 48.48 86.5074 48.736C86.0594 48.992 85.702 49.3653 85.4354 49.856C85.1687 50.3467 85.0354 50.9227 85.0354 51.584C85.0354 52.256 85.1687 52.8427 85.4354 53.344C85.702 53.8347 86.0594 54.2133 86.5074 54.48C86.9554 54.736 87.4514 54.864 87.9954 54.864C88.5394 54.864 89.0354 54.736 89.4834 54.48C89.942 54.2133 90.3047 53.8347 90.5714 53.344C90.838 52.8427 90.9714 52.2613 90.9714 51.6ZM100.946 48.432V53.6C100.946 54.0267 101.036 54.3307 101.218 54.512C101.399 54.6827 101.714 54.768 102.161 54.768H103.234V56H101.922C101.111 56 100.503 55.8133 100.098 55.44C99.6922 55.0667 99.4895 54.4533 99.4895 53.6V48.432H98.3535V47.232H99.4895V45.024H100.946V47.232H103.234V48.432H100.946ZM108.822 56.144C108 56.144 107.254 55.9573 106.582 55.584C105.92 55.2107 105.398 54.6827 105.014 54C104.64 53.3067 104.454 52.5067 104.454 51.6C104.454 50.704 104.646 49.9147 105.03 49.232C105.424 48.5387 105.958 48.0107 106.63 47.648C107.302 47.2747 108.054 47.088 108.886 47.088C109.718 47.088 110.47 47.2747 111.142 47.648C111.814 48.0107 112.342 48.5333 112.726 49.216C113.12 49.8987 113.318 50.6933 113.318 51.6C113.318 52.5067 113.115 53.3067 112.71 54C112.315 54.6827 111.776 55.2107 111.094 55.584C110.411 55.9573 109.654 56.144 108.822 56.144ZM108.822 54.864C109.344 54.864 109.835 54.7413 110.294 54.496C110.752 54.2507 111.12 53.8827 111.398 53.392C111.686 52.9013 111.83 52.304 111.83 51.6C111.83 50.896 111.691 50.2987 111.414 49.808C111.136 49.3173 110.774 48.9547 110.326 48.72C109.878 48.4747 109.392 48.352 108.87 48.352C108.336 48.352 107.846 48.4747 107.398 48.72C106.96 48.9547 106.608 49.3173 106.342 49.808C106.075 50.2987 105.942 50.896 105.942 51.6C105.942 52.3147 106.07 52.9173 106.326 53.408C106.592 53.8987 106.944 54.2667 107.382 54.512C107.819 54.7467 108.299 54.864 108.822 54.864ZM21.3926 80H16.7051L16.3145 79.9902C16.041 79.9902 15.9043 79.8698 15.9043 79.6289C15.9043 79.4792 15.9694 79.362 16.0996 79.2773C16.4382 79.1016 16.64 78.8184 16.7051 78.4277V68.3203C16.64 67.9297 16.4382 67.6465 16.0996 67.4707C15.9694 67.3861 15.9043 67.2689 15.9043 67.1191C15.9043 66.8783 16.0378 66.7578 16.3047 66.7578C16.5716 66.7513 17.8118 66.748 20.0254 66.748V66.7578H21.5195C22.6393 66.7578 23.6191 66.9466 24.459 67.3242C25.3053 67.6953 26.0085 68.1966 26.5684 68.8281C27.1283 69.4531 27.5449 70.153 27.8184 70.9277C28.0983 71.7025 28.2383 72.5 28.2383 73.3203V73.9941C28.2383 74.4173 28.0951 75.0228 27.8086 75.8105C27.5221 76.5918 27.0924 77.2982 26.5195 77.9297C25.9531 78.5612 25.2402 79.0658 24.3809 79.4434C23.528 79.8145 22.5319 80 21.3926 80ZM21.1582 79.4629C21.7507 79.4629 22.278 79.2904 22.7402 78.9453C23.6322 78.2682 24.2669 77.1582 24.6445 75.6152C24.8333 74.8275 24.9277 73.9909 24.9277 73.1055C24.9277 71.5755 24.6315 70.2702 24.0391 69.1895C23.3424 67.9199 22.3366 67.2852 21.0215 67.2852H20.0254V79.4629H21.1582ZM31.207 80L29.1465 79.9902C28.8796 79.9902 28.7461 79.8698 28.7461 79.6289C28.7461 79.4727 28.8112 79.3555 28.9414 79.2773C29.1042 79.1927 29.2344 79.0885 29.332 78.9648C29.4297 78.8346 29.5013 78.6556 29.5469 78.4277V72.9883C29.5469 72.4479 29.498 72.0671 29.4004 71.8457C29.3027 71.6243 29.1465 71.4551 28.9316 71.3379C28.8079 71.2598 28.7461 71.1393 28.7461 70.9766C28.7461 70.7422 28.8698 70.625 29.1172 70.625C30.1719 70.625 31.2233 70.459 32.2715 70.127C32.3236 70.1074 32.3789 70.0977 32.4375 70.0977C32.5938 70.0977 32.7044 70.14 32.7695 70.2246C32.8346 70.3027 32.8672 70.459 32.8672 70.6934V71.1816C33.3815 70.2962 34.2474 69.8535 35.4648 69.8535C35.9271 69.8535 36.2917 69.9512 36.5586 70.1465C36.9492 70.446 37.1445 70.8366 37.1445 71.3184C37.1445 71.4616 37.112 71.6406 37.0469 71.8555C36.9818 72.0703 36.8288 72.2786 36.5879 72.4805C36.3535 72.6758 36.054 72.7734 35.6895 72.7734C35.2077 72.7734 34.8724 72.5521 34.6836 72.1094C34.5729 71.8424 34.4492 71.6309 34.3125 71.4746C34.1823 71.3118 34.0195 71.2305 33.8242 71.2305C33.5638 71.2305 33.3587 71.3835 33.209 71.6895C33.0592 71.9889 32.9648 72.2786 32.9258 72.5586C32.8867 72.832 32.8672 73.1283 32.8672 73.4473V78.4277C32.9128 78.6556 32.9844 78.8346 33.082 78.9648C33.1797 79.0885 33.3099 79.1927 33.4727 79.2773C33.6094 79.3555 33.6777 79.4792 33.6777 79.6484C33.6777 79.8763 33.541 79.9902 33.2676 79.9902L31.207 80ZM39.1367 80C38.7266 80 38.3717 79.8828 38.0723 79.6484C37.7793 79.4076 37.6328 79.0462 37.6328 78.5645C37.6328 78.0827 37.7793 77.7214 38.0723 77.4805C38.3717 77.2396 38.7266 77.1191 39.1367 77.1191C39.5534 77.1191 39.9082 77.2493 40.2012 77.5098C40.4941 77.7637 40.6406 78.1152 40.6406 78.5645C40.6406 79.0137 40.4941 79.3652 40.2012 79.6191C39.9082 79.873 39.5534 80 39.1367 80ZM54.3223 80H51.002L50.6016 79.9902C50.3281 79.9902 50.1914 79.8763 50.1914 79.6484C50.1914 79.4792 50.2598 79.3555 50.3965 79.2773C50.722 79.1016 50.9238 78.8184 51.002 78.4277V73.6426H45.8652V78.4277C45.9108 78.6556 45.9824 78.8346 46.0801 78.9648C46.1777 79.0885 46.3079 79.1927 46.4707 79.2773C46.6009 79.3555 46.666 79.4727 46.666 79.6289C46.666 79.8698 46.5326 79.9902 46.2656 79.9902L44.2051 80L42.1445 79.9902C41.8711 79.9902 41.7344 79.8763 41.7344 79.6484C41.7344 79.4792 41.8027 79.3555 41.9395 79.2773C42.1022 79.1927 42.2324 79.0885 42.3301 78.9648C42.4277 78.8346 42.4993 78.6556 42.5449 78.4277V68.3203C42.4993 68.0924 42.4277 67.9167 42.3301 67.793C42.2324 67.6628 42.1022 67.5553 41.9395 67.4707C41.8027 67.3926 41.7344 67.2689 41.7344 67.0996C41.7344 66.8717 41.8711 66.7578 42.1445 66.7578L44.2051 66.748L46.2656 66.7578C46.5326 66.7578 46.666 66.8783 46.666 67.1191C46.666 67.2754 46.6009 67.3926 46.4707 67.4707C46.3079 67.5553 46.1777 67.6628 46.0801 67.793C45.9824 67.9167 45.9108 68.0924 45.8652 68.3203V73.1055H51.002V68.3203C50.9238 67.9297 50.722 67.6465 50.3965 67.4707C50.2598 67.3926 50.1914 67.2689 50.1914 67.0996C50.1914 66.8717 50.3281 66.7578 50.6016 66.7578L51.002 66.748C53.2155 66.748 54.4557 66.7513 54.7227 66.7578C54.9896 66.7578 55.123 66.8783 55.123 67.1191C55.123 67.2689 55.0579 67.3861 54.9277 67.4707C54.5892 67.6465 54.3874 67.9297 54.3223 68.3203V78.4277C54.3874 78.8184 54.5892 79.1016 54.9277 79.2773C55.0579 79.362 55.123 79.4792 55.123 79.6289C55.123 79.8698 54.9863 79.9902 54.7129 79.9902L54.3223 80ZM60.4941 80.2637C59.6152 80.2637 58.8079 80.0814 58.0723 79.7168C57.3366 79.3522 56.7279 78.7923 56.2461 78.0371C55.7122 77.1322 55.4453 76.1654 55.4453 75.1367C55.4453 74.9935 55.4518 74.847 55.4648 74.6973C55.5885 73.2194 56.1257 72.0378 57.0762 71.1523C58.0332 70.2669 59.2507 69.8242 60.7285 69.8242C61.5814 69.8242 62.3008 69.9642 62.8867 70.2441C63.4727 70.5176 63.9284 70.8724 64.2539 71.3086C64.6315 71.8229 64.8203 72.3893 64.8203 73.0078C64.8203 73.4115 64.7194 73.8249 64.5176 74.248C64.3158 74.6712 63.9642 75.0521 63.4629 75.3906C62.9616 75.7227 62.3171 75.9408 61.5293 76.0449C61.2689 76.084 60.9954 76.1035 60.709 76.1035C60.1165 76.1035 59.4622 76.0254 58.7461 75.8691C58.8763 76.3314 59.0716 76.748 59.332 77.1191C59.599 77.4837 59.9408 77.7767 60.3574 77.998C60.7741 78.2129 61.2689 78.3203 61.8418 78.3203C62.6882 78.3203 63.4792 78.0859 64.2148 77.6172C64.2865 77.5716 64.3581 77.5488 64.4297 77.5488C64.4818 77.5488 64.5306 77.5651 64.5762 77.5977C64.6543 77.6562 64.6934 77.7344 64.6934 77.832C64.6934 77.8776 64.6803 77.9232 64.6543 77.9688C64.179 78.6784 63.5768 79.2383 62.8477 79.6484C62.125 80.0586 61.3405 80.2637 60.4941 80.2637ZM58.6094 75.2637C59.9375 75.2637 60.9043 74.8633 61.5098 74.0625C61.8939 73.5091 62.0859 72.8483 62.0859 72.0801C62.0859 71.0124 61.6562 70.459 60.7969 70.4199C60.2565 70.4395 59.7975 70.6934 59.4199 71.1816C59.0488 71.6699 58.8047 72.1973 58.6875 72.7637C58.5768 73.3236 58.5215 73.8053 58.5215 74.209C58.5215 74.5605 58.5508 74.9121 58.6094 75.2637ZM69.4883 78.3887C70.1198 78.3887 70.6406 77.9167 71.0508 76.9727C71.0508 75.651 71.054 74.6712 71.0605 74.0332C70.7871 74.2415 70.4876 74.4043 70.1621 74.5215C69.6217 74.7493 69.2214 75.0716 68.9609 75.4883C68.6549 75.9635 68.502 76.4518 68.502 76.9531C68.502 77.3177 68.5833 77.6497 68.7461 77.9492C68.9089 78.2422 69.1562 78.3887 69.4883 78.3887ZM72.9648 80C72.6328 80 72.3236 79.9414 72.0371 79.8242C71.7507 79.707 71.5163 79.5215 71.334 79.2676C71.1582 79.0072 71.0638 78.6654 71.0508 78.2422C70.3477 79.4141 69.3483 80 68.0527 80C67.5059 80 67.0241 79.8796 66.6074 79.6387C66.1973 79.3978 65.875 79.082 65.6406 78.6914C65.4128 78.3008 65.2988 77.8776 65.2988 77.4219C65.2988 76.7773 65.4388 76.2728 65.7188 75.9082C66.0052 75.5371 66.3796 75.2474 66.8418 75.0391C67.304 74.8307 67.8086 74.6549 68.3555 74.5117C69.3841 74.2708 70.1133 74.0169 70.543 73.75C70.8034 73.5938 70.9759 73.4147 71.0605 73.2129C71.0671 72.8874 71.0703 72.5521 71.0703 72.207C71.0703 71.9596 71.0378 71.7155 70.9727 71.4746C70.9076 71.2337 70.7839 71.0319 70.6016 70.8691C70.4258 70.7064 70.1784 70.625 69.8594 70.625C69.5664 70.625 69.3255 70.7031 69.1367 70.8594C68.9544 71.0156 68.8177 71.2207 68.7266 71.4746C68.6419 71.722 68.5996 71.9889 68.5996 72.2754C68.5996 72.7116 68.4792 73.0339 68.2383 73.2422C68.0039 73.4505 67.7337 73.5547 67.4277 73.5547C67.1022 73.5547 66.8223 73.4538 66.5879 73.252C66.3535 73.0436 66.2363 72.7311 66.2363 72.3145C66.2363 71.9564 66.3763 71.6081 66.6562 71.2695C66.9427 70.931 67.3594 70.651 67.9062 70.4297C68.4531 70.2083 69.1237 70.0977 69.918 70.0977C71.1029 70.0977 72.1152 70.3939 72.9551 70.9863C73.8991 71.6634 74.3711 72.6074 74.3711 73.8184V78.0371C74.3711 78.291 74.4199 78.4668 74.5176 78.5645C74.6152 78.6556 74.7585 78.7305 74.9473 78.7891C75.0775 78.8411 75.1426 78.9388 75.1426 79.082C75.1426 79.362 74.8105 79.6061 74.1465 79.8145C73.7689 79.9382 73.375 80 72.9648 80ZM78.2969 80L76.2363 79.9902C75.9629 79.9902 75.8262 79.8763 75.8262 79.6484C75.8262 79.4792 75.8945 79.3555 76.0312 79.2773C76.3568 79.1016 76.5586 78.8184 76.6367 78.4277V69.6387C76.6367 69.0983 76.5846 68.7174 76.4805 68.4961C76.3828 68.2747 76.2266 68.1055 76.0117 67.9883C75.888 67.9036 75.8262 67.7865 75.8262 67.6367C75.8262 67.3958 75.9531 67.2754 76.207 67.2754C77.2227 67.2754 78.3001 67.1029 79.4395 66.7578L79.5273 66.748C79.6771 66.748 79.7845 66.7904 79.8496 66.875C79.9212 66.9531 79.957 67.1094 79.957 67.3438V78.4277C80.0221 78.8184 80.224 79.1016 80.5625 79.2773C80.6927 79.362 80.7578 79.4792 80.7578 79.6289C80.7578 79.8698 80.6211 79.9902 80.3477 79.9902L78.2969 80ZM84.3125 69.6289C83.9609 69.6289 83.6387 69.5768 83.3457 69.4727C83.0592 69.362 82.8281 69.2025 82.6523 68.9941C82.4831 68.7793 82.3984 68.5124 82.3984 68.1934C82.3984 67.8678 82.4831 67.6009 82.6523 67.3926C82.8281 67.1777 83.0592 67.0182 83.3457 66.9141C83.6387 66.8034 83.9609 66.748 84.3125 66.748C84.8398 66.748 85.2891 66.8783 85.6602 67.1387C86.0378 67.3926 86.2266 67.7441 86.2266 68.1934C86.2266 68.6426 86.0378 68.9941 85.6602 69.248C85.2891 69.502 84.8398 69.6289 84.3125 69.6289ZM84.3125 80L82.252 79.9902C81.985 79.9902 81.8516 79.8698 81.8516 79.6289C81.8516 79.4727 81.9167 79.3555 82.0469 79.2773C82.2096 79.1927 82.3398 79.0885 82.4375 78.9648C82.5352 78.8346 82.6068 78.6556 82.6523 78.4277V72.9883C82.6523 72.4479 82.6035 72.0671 82.5059 71.8457C82.4082 71.6243 82.252 71.4551 82.0371 71.3379C81.9134 71.2598 81.8516 71.1393 81.8516 70.9766C81.8516 70.7422 81.9785 70.625 82.2324 70.625C83.2806 70.625 84.3288 70.459 85.377 70.127C85.429 70.1074 85.4844 70.0977 85.543 70.0977C85.6992 70.0977 85.8099 70.14 85.875 70.2246C85.9401 70.3027 85.9727 70.459 85.9727 70.6934V78.4277C86.0182 78.6556 86.0898 78.8346 86.1875 78.9648C86.2852 79.0885 86.4154 79.1927 86.5781 79.2773C86.7148 79.3555 86.7832 79.4792 86.7832 79.6484C86.7832 79.8763 86.6465 79.9902 86.373 79.9902L84.3125 80ZM97.7207 80H93.502C93.3587 80 93.2546 79.9512 93.1895 79.8535C93.1243 79.7493 93.0918 79.6484 93.0918 79.5508C93.0918 79.5378 93.0951 79.4987 93.1016 79.4336C93.1146 79.362 93.1797 79.3164 93.2969 79.2969C93.5182 79.2904 93.6289 79.2188 93.6289 79.082C93.6289 78.9518 93.5312 78.7663 93.3359 78.5254L91.8027 76.416L89.5273 79.0527C89.4362 79.1569 89.3906 79.2383 89.3906 79.2969C89.3906 79.4076 89.5273 79.4629 89.8008 79.4629C90.0156 79.4629 90.123 79.554 90.123 79.7363C90.123 79.9121 90.0156 80 89.8008 80H87.6035C87.4082 80 87.3105 79.9121 87.3105 79.7363C87.3105 79.554 87.4115 79.4629 87.6133 79.4629C87.8737 79.4629 88.1081 79.4141 88.3164 79.3164C88.5247 79.2188 88.7689 79.0072 89.0488 78.6816L91.4316 75.918L88.4141 71.7676C88.2122 71.4811 88.0332 71.2793 87.877 71.1621C87.7272 71.0449 87.5352 70.9701 87.3008 70.9375C87.112 70.8919 86.972 70.804 86.8809 70.6738C86.8092 70.5762 86.7734 70.4818 86.7734 70.3906C86.7734 70.3516 86.7865 70.293 86.8125 70.2148C86.8385 70.1367 86.9655 70.0977 87.1934 70.0977H91.4121C91.5553 70.0977 91.6628 70.153 91.7344 70.2637C91.793 70.3483 91.8223 70.4362 91.8223 70.5273C91.8223 70.5469 91.8158 70.5924 91.8027 70.6641C91.7962 70.7292 91.7311 70.7715 91.6074 70.791C91.3926 70.7975 91.2852 70.8691 91.2852 71.0059C91.2852 71.1361 91.3796 71.3216 91.5684 71.5625L93.1113 73.6719L95.3867 71.0352C95.4714 70.944 95.5137 70.8529 95.5137 70.7617C95.5137 70.6706 95.3802 70.625 95.1133 70.625C94.8984 70.625 94.791 70.5371 94.791 70.3613C94.791 70.1855 94.8952 70.0977 95.1035 70.0977H97.3008C97.5026 70.0977 97.6035 70.1855 97.6035 70.3613C97.6035 70.5371 97.4993 70.625 97.291 70.625C97.0371 70.625 96.8027 70.6803 96.5879 70.791C96.373 70.8952 96.1289 71.1035 95.8555 71.416L93.4727 74.1797L96.4902 78.3203C96.6986 78.6133 96.8776 78.8184 97.0273 78.9355C97.1771 79.0462 97.3691 79.1211 97.6035 79.1602C97.7923 79.1992 97.9355 79.2871 98.0332 79.4238C98.0983 79.515 98.1309 79.6061 98.1309 79.6973C98.1309 79.7298 98.1178 79.7884 98.0918 79.873C98.0658 79.9577 97.9421 80 97.7207 80ZM111.964 80L110.508 78.528C109.964 79.0933 109.383 79.5147 108.764 79.792C108.145 80.0587 107.447 80.192 106.668 80.192C105.9 80.192 105.217 80.0533 104.62 79.776C104.033 79.4987 103.575 79.104 103.244 78.592C102.924 78.08 102.764 77.4827 102.764 76.8C102.764 76.0213 102.983 75.3387 103.42 74.752C103.868 74.1547 104.524 73.6853 105.388 73.344C105.047 72.9387 104.801 72.5653 104.652 72.224C104.503 71.8827 104.428 71.5093 104.428 71.104C104.428 70.6347 104.545 70.2133 104.78 69.84C105.025 69.456 105.372 69.1573 105.82 68.944C106.268 68.7307 106.785 68.624 107.372 68.624C107.948 68.624 108.449 68.736 108.876 68.96C109.303 69.184 109.623 69.4987 109.836 69.904C110.049 70.2987 110.145 70.7413 110.124 71.232H108.668C108.679 70.7947 108.556 70.4533 108.3 70.208C108.044 69.952 107.713 69.824 107.308 69.824C106.881 69.824 106.535 69.9467 106.268 70.192C106.012 70.4267 105.884 70.7307 105.884 71.104C105.884 71.424 105.969 71.7333 106.14 72.032C106.321 72.3307 106.62 72.6987 107.036 73.136L110.364 76.48L110.652 76.032L111.74 74.208H113.308L111.996 76.48C111.815 76.8 111.601 77.136 111.356 77.488L113.868 80H111.964ZM106.668 78.944C107.244 78.944 107.761 78.832 108.22 78.608C108.689 78.384 109.132 78.0373 109.548 77.568L106.268 74.272C104.903 74.7947 104.22 75.6213 104.22 76.752C104.22 77.3813 104.444 77.904 104.892 78.32C105.351 78.736 105.943 78.944 106.668 78.944ZM6.62738 104.112C5.89138 104.112 5.23004 103.984 4.64338 103.728C4.06738 103.461 3.61404 103.099 3.28338 102.64C2.95271 102.171 2.78204 101.632 2.77138 101.024H4.32338C4.37671 101.547 4.59004 101.989 4.96338 102.352C5.34738 102.704 5.90204 102.88 6.62738 102.88C7.32071 102.88 7.86471 102.709 8.25938 102.368C8.66471 102.016 8.86738 101.568 8.86738 101.024C8.86738 100.597 8.75004 100.251 8.51538 99.984C8.28071 99.7173 7.98738 99.5147 7.63538 99.376C7.28338 99.2373 6.80871 99.088 6.21138 98.928C5.47538 98.736 4.88338 98.544 4.43538 98.352C3.99804 98.16 3.61938 97.8613 3.29938 97.456C2.99004 97.04 2.83538 96.4853 2.83538 95.792C2.83538 95.184 2.99004 94.6453 3.29938 94.176C3.60871 93.7067 4.04071 93.344 4.59538 93.088C5.16071 92.832 5.80604 92.704 6.53138 92.704C7.57671 92.704 8.43004 92.9653 9.09138 93.488C9.76338 94.0107 10.142 94.704 10.2274 95.568H8.62738C8.57404 95.1413 8.35004 94.768 7.95538 94.448C7.56071 94.1173 7.03804 93.952 6.38738 93.952C5.77938 93.952 5.28338 94.112 4.89938 94.432C4.51538 94.7413 4.32338 95.1787 4.32338 95.744C4.32338 96.1493 4.43538 96.48 4.65938 96.736C4.89404 96.992 5.17671 97.1893 5.50738 97.328C5.84871 97.456 6.32338 97.6053 6.93138 97.776C7.66738 97.9787 8.25938 98.1813 8.70738 98.384C9.15538 98.576 9.53938 98.88 9.85938 99.296C10.1794 99.7013 10.3394 100.256 10.3394 100.96C10.3394 101.504 10.1954 102.016 9.90738 102.496C9.61938 102.976 9.19271 103.365 8.62738 103.664C8.06204 103.963 7.39538 104.112 6.62738 104.112ZM14.258 96.432V101.6C14.258 102.027 14.3487 102.331 14.53 102.512C14.7113 102.683 15.026 102.768 15.474 102.768H16.546V104H15.234C14.4233 104 13.8153 103.813 13.41 103.44C13.0047 103.067 12.802 102.453 12.802 101.6V96.432H11.666V95.232H12.802V93.024H14.258V95.232H16.546V96.432H14.258ZM17.7661 99.584C17.7661 98.688 17.9475 97.904 18.3101 97.232C18.6728 96.5493 19.1688 96.0213 19.7981 95.648C20.4381 95.2747 21.1475 95.088 21.9261 95.088C22.6941 95.088 23.3608 95.2533 23.9261 95.584C24.4915 95.9147 24.9128 96.3307 25.1901 96.832V95.232H26.6621V104H25.1901V102.368C24.9021 102.88 24.4701 103.307 23.8941 103.648C23.3288 103.979 22.6675 104.144 21.9101 104.144C21.1315 104.144 20.4275 103.952 19.7981 103.568C19.1688 103.184 18.6728 102.645 18.3101 101.952C17.9475 101.259 17.7661 100.469 17.7661 99.584ZM25.1901 99.6C25.1901 98.9387 25.0568 98.3627 24.7901 97.872C24.5235 97.3813 24.1608 97.008 23.7021 96.752C23.2541 96.4853 22.7581 96.352 22.2141 96.352C21.6701 96.352 21.1741 96.48 20.7261 96.736C20.2781 96.992 19.9208 97.3653 19.6541 97.856C19.3875 98.3467 19.2541 98.9227 19.2541 99.584C19.2541 100.256 19.3875 100.843 19.6541 101.344C19.9208 101.835 20.2781 102.213 20.7261 102.48C21.1741 102.736 21.6701 102.864 22.2141 102.864C22.7581 102.864 23.2541 102.736 23.7021 102.48C24.1608 102.213 24.5235 101.835 24.7901 101.344C25.0568 100.843 25.1901 100.261 25.1901 99.6ZM30.5786 96.656C30.8346 96.1547 31.1973 95.7653 31.6666 95.488C32.1466 95.2107 32.728 95.072 33.4106 95.072V96.576H33.0266C31.3946 96.576 30.5786 97.4613 30.5786 99.232V104H29.1226V95.232H30.5786V96.656ZM36.8674 96.432V101.6C36.8674 102.027 36.958 102.331 37.1394 102.512C37.3207 102.683 37.6354 102.768 38.0834 102.768H39.1554V104H37.8434C37.0327 104 36.4247 103.813 36.0194 103.44C35.614 103.067 35.4114 102.453 35.4114 101.6V96.432H34.2754V95.232H35.4114V93.024H36.8674V95.232H39.1554V96.432H36.8674ZM44.6411 98.416C44.6411 97.328 44.8865 96.352 45.3771 95.488C45.8678 94.6133 46.5345 93.9307 47.3771 93.44C48.2305 92.9493 49.1745 92.704 50.2091 92.704C51.4251 92.704 52.4865 92.9973 53.3931 93.584C54.2998 94.1707 54.9611 95.0027 55.3771 96.08H53.6331C53.3238 95.408 52.8758 94.8907 52.2891 94.528C51.7131 94.1653 51.0198 93.984 50.2091 93.984C49.4305 93.984 48.7318 94.1653 48.1131 94.528C47.4945 94.8907 47.0091 95.408 46.6571 96.08C46.3051 96.7413 46.1291 97.52 46.1291 98.416C46.1291 99.3013 46.3051 100.08 46.6571 100.752C47.0091 101.413 47.4945 101.925 48.1131 102.288C48.7318 102.651 49.4305 102.832 50.2091 102.832C51.0198 102.832 51.7131 102.656 52.2891 102.304C52.8758 101.941 53.3238 101.424 53.6331 100.752H55.3771C54.9611 101.819 54.2998 102.645 53.3931 103.232C52.4865 103.808 51.4251 104.096 50.2091 104.096C49.1745 104.096 48.2305 103.856 47.3771 103.376C46.5345 102.885 45.8678 102.208 45.3771 101.344C44.8865 100.48 44.6411 99.504 44.6411 98.416ZM61.8965 95.072C62.5578 95.072 63.1552 95.216 63.6885 95.504C64.2218 95.7813 64.6378 96.2027 64.9365 96.768C65.2458 97.3333 65.4005 98.0213 65.4005 98.832V104H63.9605V99.04C63.9605 98.1653 63.7418 97.4987 63.3045 97.04C62.8672 96.5707 62.2698 96.336 61.5125 96.336C60.7445 96.336 60.1312 96.576 59.6725 97.056C59.2245 97.536 59.0005 98.2347 59.0005 99.152V104H57.5445V92.16H59.0005V96.48C59.2885 96.032 59.6832 95.6853 60.1845 95.44C60.6965 95.1947 61.2672 95.072 61.8965 95.072ZM67.2349 99.584C67.2349 98.688 67.4162 97.904 67.7789 97.232C68.1415 96.5493 68.6375 96.0213 69.2669 95.648C69.9069 95.2747 70.6162 95.088 71.3949 95.088C72.1629 95.088 72.8295 95.2533 73.3949 95.584C73.9602 95.9147 74.3815 96.3307 74.6589 96.832V95.232H76.1309V104H74.6589V102.368C74.3709 102.88 73.9389 103.307 73.3629 103.648C72.7975 103.979 72.1362 104.144 71.3789 104.144C70.6002 104.144 69.8962 103.952 69.2669 103.568C68.6375 103.184 68.1415 102.645 67.7789 101.952C67.4162 101.259 67.2349 100.469 67.2349 99.584ZM74.6589 99.6C74.6589 98.9387 74.5255 98.3627 74.2589 97.872C73.9922 97.3813 73.6295 97.008 73.1709 96.752C72.7229 96.4853 72.2269 96.352 71.6829 96.352C71.1389 96.352 70.6429 96.48 70.1949 96.736C69.7469 96.992 69.3895 97.3653 69.1229 97.856C68.8562 98.3467 68.7229 98.9227 68.7229 99.584C68.7229 100.256 68.8562 100.843 69.1229 101.344C69.3895 101.835 69.7469 102.213 70.1949 102.48C70.6429 102.736 71.1389 102.864 71.6829 102.864C72.2269 102.864 72.7229 102.736 73.1709 102.48C73.6295 102.213 73.9922 101.835 74.2589 101.344C74.5255 100.843 74.6589 100.261 74.6589 99.6ZM80.3674 96.432V101.6C80.3674 102.027 80.458 102.331 80.6394 102.512C80.8207 102.683 81.1354 102.768 81.5834 102.768H82.6554V104H81.3434C80.5327 104 79.9247 103.813 79.5194 103.44C79.114 103.067 78.9114 102.453 78.9114 101.6V96.432H77.7754V95.232H78.9114V93.024H80.3674V95.232H82.6554V96.432H80.3674ZM86.1955 96.432V101.6C86.1955 102.027 86.2862 102.331 86.4675 102.512C86.6488 102.683 86.9635 102.768 87.4115 102.768H88.4835V104H87.1715C86.3608 104 85.7528 103.813 85.3475 103.44C84.9422 103.067 84.7395 102.453 84.7395 101.6V96.432H83.6035V95.232H84.7395V93.024H86.1955V95.232H88.4835V96.432H86.1955ZM90.9996 93.808C90.7223 93.808 90.4876 93.712 90.2956 93.52C90.1036 93.328 90.0076 93.0933 90.0076 92.816C90.0076 92.5387 90.1036 92.304 90.2956 92.112C90.4876 91.92 90.7223 91.824 90.9996 91.824C91.2663 91.824 91.4903 91.92 91.6716 92.112C91.8636 92.304 91.9596 92.5387 91.9596 92.816C91.9596 93.0933 91.8636 93.328 91.6716 93.52C91.4903 93.712 91.2663 93.808 90.9996 93.808ZM91.7036 95.232V104H90.2476V95.232H91.7036ZM98.4571 95.072C99.5238 95.072 100.388 95.3973 101.049 96.048C101.71 96.688 102.041 97.616 102.041 98.832V104H100.601V99.04C100.601 98.1653 100.382 97.4987 99.9451 97.04C99.5078 96.5707 98.9105 96.336 98.1531 96.336C97.3851 96.336 96.7718 96.576 96.3131 97.056C95.8651 97.536 95.6411 98.2347 95.6411 99.152V104H94.1851V95.232H95.6411V96.48C95.9291 96.032 96.3185 95.6853 96.8091 95.44C97.3105 95.1947 97.8598 95.072 98.4571 95.072ZM108.036 95.088C108.793 95.088 109.454 95.2533 110.02 95.584C110.596 95.9147 111.022 96.3307 111.3 96.832V95.232H112.772V104.192C112.772 104.992 112.601 105.701 112.26 106.32C111.918 106.949 111.428 107.44 110.788 107.792C110.158 108.144 109.422 108.32 108.58 108.32C107.428 108.32 106.468 108.048 105.7 107.504C104.932 106.96 104.478 106.219 104.34 105.28H105.78C105.94 105.813 106.27 106.24 106.772 106.56C107.273 106.891 107.876 107.056 108.58 107.056C109.38 107.056 110.03 106.805 110.532 106.304C111.044 105.803 111.3 105.099 111.3 104.192V102.352C111.012 102.864 110.585 103.291 110.02 103.632C109.454 103.973 108.793 104.144 108.036 104.144C107.257 104.144 106.548 103.952 105.908 103.568C105.278 103.184 104.782 102.645 104.42 101.952C104.057 101.259 103.876 100.469 103.876 99.584C103.876 98.688 104.057 97.904 104.42 97.232C104.782 96.5493 105.278 96.0213 105.908 95.648C106.548 95.2747 107.257 95.088 108.036 95.088ZM111.3 99.6C111.3 98.9387 111.166 98.3627 110.9 97.872C110.633 97.3813 110.27 97.008 109.812 96.752C109.364 96.4853 108.868 96.352 108.324 96.352C107.78 96.352 107.284 96.48 106.836 96.736C106.388 96.992 106.03 97.3653 105.764 97.856C105.497 98.3467 105.364 98.9227 105.364 99.584C105.364 100.256 105.497 100.843 105.764 101.344C106.03 101.835 106.388 102.213 106.836 102.48C107.284 102.736 107.78 102.864 108.324 102.864C108.868 102.864 109.364 102.736 109.812 102.48C110.27 102.213 110.633 101.835 110.9 101.344C111.166 100.843 111.3 100.261 111.3 99.6Z" fill="white"/>
</svg>
