<svg width="139" height="80" viewBox="0 0 139 80" fill="none" xmlns="http://www.w3.org/2000/svg">
<path d="M56.387 13.26H58.827V14H55.477V7.03H56.387V13.26ZM59.4534 11.24C59.4534 10.68 59.5668 10.19 59.7934 9.77C60.0201 9.34333 60.3301 9.01333 60.7234 8.78C61.1234 8.54667 61.5668 8.43 62.0534 8.43C62.5334 8.43 62.9501 8.53333 63.3034 8.74C63.6568 8.94667 63.9201 9.20667 64.0934 9.52V8.52H65.0134V14H64.0934V12.98C63.9134 13.3 63.6434 13.5667 63.2834 13.78C62.9301 13.9867 62.5168 14.09 62.0434 14.09C61.5568 14.09 61.1168 13.97 60.7234 13.73C60.3301 13.49 60.0201 13.1533 59.7934 12.72C59.5668 12.2867 59.4534 11.7933 59.4534 11.24ZM64.0934 11.25C64.0934 10.8367 64.0101 10.4767 63.8434 10.17C63.6768 9.86333 63.4501 9.63 63.1634 9.47C62.8834 9.30333 62.5734 9.22 62.2334 9.22C61.8934 9.22 61.5834 9.3 61.3034 9.46C61.0234 9.62 60.8001 9.85333 60.6334 10.16C60.4668 10.4667 60.3834 10.8267 60.3834 11.24C60.3834 11.66 60.4668 12.0267 60.6334 12.34C60.8001 12.6467 61.0234 12.8833 61.3034 13.05C61.5834 13.21 61.8934 13.29 62.2334 13.29C62.5734 13.29 62.8834 13.21 63.1634 13.05C63.4501 12.8833 63.6768 12.6467 63.8434 12.34C64.0101 12.0267 64.0934 11.6633 64.0934 11.25ZM68.4913 14.09C68.0713 14.09 67.6946 14.02 67.3613 13.88C67.0279 13.7333 66.7646 13.5333 66.5713 13.28C66.3779 13.02 66.2713 12.7233 66.2513 12.39H67.1913C67.2179 12.6633 67.3446 12.8867 67.5713 13.06C67.8046 13.2333 68.1079 13.32 68.4813 13.32C68.8279 13.32 69.1013 13.2433 69.3013 13.09C69.5013 12.9367 69.6013 12.7433 69.6013 12.51C69.6013 12.27 69.4946 12.0933 69.2813 11.98C69.0679 11.86 68.7379 11.7433 68.2913 11.63C67.8846 11.5233 67.5513 11.4167 67.2913 11.31C67.0379 11.1967 66.8179 11.0333 66.6313 10.82C66.4513 10.6 66.3613 10.3133 66.3613 9.96C66.3613 9.68 66.4446 9.42333 66.6113 9.19C66.7779 8.95667 67.0146 8.77333 67.3213 8.64C67.6279 8.5 67.9779 8.43 68.3713 8.43C68.9779 8.43 69.4679 8.58333 69.8413 8.89C70.2146 9.19667 70.4146 9.61667 70.4413 10.15H69.5313C69.5113 9.86333 69.3946 9.63333 69.1813 9.46C68.9746 9.28667 68.6946 9.2 68.3413 9.2C68.0146 9.2 67.7546 9.27 67.5613 9.41C67.3679 9.55 67.2713 9.73333 67.2713 9.96C67.2713 10.14 67.3279 10.29 67.4413 10.41C67.5613 10.5233 67.7079 10.6167 67.8813 10.69C68.0613 10.7567 68.3079 10.8333 68.6213 10.92C69.0146 11.0267 69.3346 11.1333 69.5813 11.24C69.8279 11.34 70.0379 11.4933 70.2113 11.7C70.3913 11.9067 70.4846 12.1767 70.4913 12.51C70.4913 12.81 70.4079 13.08 70.2413 13.32C70.0746 13.56 69.8379 13.75 69.5313 13.89C69.2313 14.0233 68.8846 14.09 68.4913 14.09ZM72.8859 9.27V12.5C72.8859 12.7667 72.9425 12.9567 73.0559 13.07C73.1692 13.1767 73.3659 13.23 73.6459 13.23H74.3159V14H73.4959C72.9892 14 72.6092 13.8833 72.3559 13.65C72.1025 13.4167 71.9759 13.0333 71.9759 12.5V9.27H71.2659V8.52H71.9759V7.14H72.8859V8.52H74.3159V9.27H72.8859ZM76.3284 6.6V14H75.4184V6.6H76.3284ZM82.5994 8.52L79.2994 16.58H78.3594L79.4394 13.94L77.2294 8.52H78.2394L79.9594 12.96L81.6594 8.52H82.5994ZM83.8041 14.06C83.6308 14.06 83.4841 14 83.3641 13.88C83.2441 13.76 83.1841 13.6133 83.1841 13.44C83.1841 13.2667 83.2441 13.12 83.3641 13C83.4841 12.88 83.6308 12.82 83.8041 12.82C83.9708 12.82 84.1108 12.88 84.2241 13C84.3441 13.12 84.4041 13.2667 84.4041 13.44C84.4041 13.6133 84.3441 13.76 84.2241 13.88C84.1108 14 83.9708 14.06 83.8041 14.06ZM85.9038 14.06C85.7304 14.06 85.5838 14 85.4638 13.88C85.3438 13.76 85.2838 13.6133 85.2838 13.44C85.2838 13.2667 85.3438 13.12 85.4638 13C85.5838 12.88 85.7304 12.82 85.9038 12.82C86.0704 12.82 86.2104 12.88 86.3238 13C86.4438 13.12 86.5038 13.2667 86.5038 13.44C86.5038 13.6133 86.4438 13.76 86.3238 13.88C86.2104 14 86.0704 14.06 85.9038 14.06ZM100.164 14H97.5078L97.1875 13.9922C96.9688 13.9922 96.8594 13.901 96.8594 13.7188C96.8594 13.5833 96.9141 13.4844 97.0234 13.4219C97.2839 13.2812 97.4453 13.0547 97.5078 12.7422V8.91406H93.3984V12.7422C93.4349 12.9245 93.4922 13.0677 93.5703 13.1719C93.6484 13.2708 93.7526 13.3542 93.8828 13.4219C93.987 13.4844 94.0391 13.5781 94.0391 13.7031C94.0391 13.8958 93.9323 13.9922 93.7188 13.9922L92.0703 14L90.4219 13.9922C90.2031 13.9922 90.0938 13.901 90.0938 13.7188C90.0938 13.5833 90.1484 13.4844 90.2578 13.4219C90.388 13.3542 90.4922 13.2708 90.5703 13.1719C90.6484 13.0677 90.7057 12.9245 90.7422 12.7422V4.65625C90.7057 4.47396 90.6484 4.33333 90.5703 4.23438C90.4922 4.13021 90.388 4.04427 90.2578 3.97656C90.1484 3.91406 90.0938 3.8151 90.0938 3.67969C90.0938 3.4974 90.2031 3.40625 90.4219 3.40625L92.0703 3.39844L93.7188 3.40625C93.9323 3.40625 94.0391 3.5026 94.0391 3.69531C94.0391 3.82031 93.987 3.91406 93.8828 3.97656C93.7526 4.04427 93.6484 4.13021 93.5703 4.23438C93.4922 4.33333 93.4349 4.47396 93.3984 4.65625V8.48438H97.5078V4.65625C97.4453 4.34375 97.2839 4.11719 97.0234 3.97656C96.9141 3.91406 96.8594 3.8151 96.8594 3.67969C96.8594 3.4974 96.9688 3.40625 97.1875 3.40625L97.5078 3.39844C99.2786 3.39844 100.271 3.40104 100.484 3.40625C100.698 3.40625 100.805 3.5026 100.805 3.69531C100.805 3.8151 100.753 3.90885 100.648 3.97656C100.378 4.11719 100.216 4.34375 100.164 4.65625V12.7422C100.216 13.0547 100.378 13.2812 100.648 13.4219C100.753 13.4896 100.805 13.5833 100.805 13.7031C100.805 13.8958 100.695 13.9922 100.477 13.9922L100.164 14ZM105.102 14.2109C104.398 14.2109 103.753 14.0651 103.164 13.7734C102.576 13.4818 102.089 13.0339 101.703 12.4297C101.276 11.7057 101.062 10.9323 101.062 10.1094C101.062 9.99479 101.068 9.8776 101.078 9.75781C101.177 8.57552 101.607 7.63021 102.367 6.92188C103.133 6.21354 104.107 5.85938 105.289 5.85938C105.971 5.85938 106.547 5.97135 107.016 6.19531C107.484 6.41406 107.849 6.69792 108.109 7.04688C108.411 7.45833 108.562 7.91146 108.562 8.40625C108.562 8.72917 108.482 9.0599 108.32 9.39844C108.159 9.73698 107.878 10.0417 107.477 10.3125C107.076 10.5781 106.56 10.7526 105.93 10.8359C105.721 10.8672 105.503 10.8828 105.273 10.8828C104.799 10.8828 104.276 10.8203 103.703 10.6953C103.807 11.0651 103.964 11.3984 104.172 11.6953C104.385 11.987 104.659 12.2214 104.992 12.3984C105.326 12.5703 105.721 12.6562 106.18 12.6562C106.857 12.6562 107.49 12.4688 108.078 12.0938C108.135 12.0573 108.193 12.0391 108.25 12.0391C108.292 12.0391 108.331 12.0521 108.367 12.0781C108.43 12.125 108.461 12.1875 108.461 12.2656C108.461 12.3021 108.451 12.3385 108.43 12.375C108.049 12.9427 107.568 13.3906 106.984 13.7188C106.406 14.0469 105.779 14.2109 105.102 14.2109ZM103.594 10.2109C104.656 10.2109 105.43 9.89062 105.914 9.25C106.221 8.80729 106.375 8.27865 106.375 7.66406C106.375 6.8099 106.031 6.36719 105.344 6.33594C104.911 6.35156 104.544 6.55469 104.242 6.94531C103.945 7.33594 103.75 7.75781 103.656 8.21094C103.568 8.65885 103.523 9.04427 103.523 9.36719C103.523 9.64844 103.547 9.92969 103.594 10.2109ZM112.297 12.7109C112.802 12.7109 113.219 12.3333 113.547 11.5781C113.547 10.5208 113.549 9.73698 113.555 9.22656C113.336 9.39323 113.096 9.52344 112.836 9.61719C112.404 9.79948 112.083 10.0573 111.875 10.3906C111.63 10.7708 111.508 11.1615 111.508 11.5625C111.508 11.8542 111.573 12.1198 111.703 12.3594C111.833 12.5938 112.031 12.7109 112.297 12.7109ZM115.078 14C114.812 14 114.565 13.9531 114.336 13.8594C114.107 13.7656 113.919 13.6172 113.773 13.4141C113.633 13.2057 113.557 12.9323 113.547 12.5938C112.984 13.5312 112.185 14 111.148 14C110.711 14 110.326 13.9036 109.992 13.7109C109.664 13.5182 109.406 13.2656 109.219 12.9531C109.036 12.6406 108.945 12.3021 108.945 11.9375C108.945 11.4219 109.057 11.0182 109.281 10.7266C109.51 10.4297 109.81 10.1979 110.18 10.0312C110.549 9.86458 110.953 9.72396 111.391 9.60938C112.214 9.41667 112.797 9.21354 113.141 9C113.349 8.875 113.487 8.73177 113.555 8.57031C113.56 8.3099 113.562 8.04167 113.562 7.76562C113.562 7.56771 113.536 7.3724 113.484 7.17969C113.432 6.98698 113.333 6.82552 113.188 6.69531C113.047 6.5651 112.849 6.5 112.594 6.5C112.359 6.5 112.167 6.5625 112.016 6.6875C111.87 6.8125 111.76 6.97656 111.688 7.17969C111.62 7.3776 111.586 7.59115 111.586 7.82031C111.586 8.16927 111.49 8.42708 111.297 8.59375C111.109 8.76042 110.893 8.84375 110.648 8.84375C110.388 8.84375 110.164 8.76302 109.977 8.60156C109.789 8.4349 109.695 8.1849 109.695 7.85156C109.695 7.5651 109.807 7.28646 110.031 7.01562C110.26 6.74479 110.594 6.52083 111.031 6.34375C111.469 6.16667 112.005 6.07812 112.641 6.07812C113.589 6.07812 114.398 6.3151 115.07 6.78906C115.826 7.33073 116.203 8.08594 116.203 9.05469V12.4297C116.203 12.6328 116.242 12.7734 116.32 12.8516C116.398 12.9245 116.513 12.9844 116.664 13.0312C116.768 13.0729 116.82 13.151 116.82 13.2656C116.82 13.4896 116.555 13.6849 116.023 13.8516C115.721 13.9505 115.406 14 115.078 14ZM119.344 14L117.695 13.9922C117.477 13.9922 117.367 13.901 117.367 13.7188C117.367 13.5833 117.422 13.4844 117.531 13.4219C117.792 13.2812 117.953 13.0547 118.016 12.7422V5.71094C118.016 5.27865 117.974 4.97396 117.891 4.79688C117.812 4.61979 117.688 4.48438 117.516 4.39062C117.417 4.32292 117.367 4.22917 117.367 4.10938C117.367 3.91667 117.469 3.82031 117.672 3.82031C118.484 3.82031 119.346 3.68229 120.258 3.40625L120.328 3.39844C120.448 3.39844 120.534 3.43229 120.586 3.5C120.643 3.5625 120.672 3.6875 120.672 3.875V12.7422C120.724 13.0547 120.885 13.2812 121.156 13.4219C121.26 13.4896 121.312 13.5833 121.312 13.7031C121.312 13.8958 121.203 13.9922 120.984 13.9922L119.344 14ZM124.156 5.70312C123.875 5.70312 123.617 5.66146 123.383 5.57812C123.154 5.48958 122.969 5.36198 122.828 5.19531C122.693 5.02344 122.625 4.8099 122.625 4.55469C122.625 4.29427 122.693 4.08073 122.828 3.91406C122.969 3.74219 123.154 3.61458 123.383 3.53125C123.617 3.44271 123.875 3.39844 124.156 3.39844C124.578 3.39844 124.938 3.5026 125.234 3.71094C125.536 3.91406 125.688 4.19531 125.688 4.55469C125.688 4.91406 125.536 5.19531 125.234 5.39844C124.938 5.60156 124.578 5.70312 124.156 5.70312ZM124.156 14L122.508 13.9922C122.294 13.9922 122.188 13.8958 122.188 13.7031C122.188 13.5781 122.24 13.4844 122.344 13.4219C122.474 13.3542 122.578 13.2708 122.656 13.1719C122.734 13.0677 122.792 12.9245 122.828 12.7422V8.39062C122.828 7.95833 122.789 7.65365 122.711 7.47656C122.633 7.29948 122.508 7.16406 122.336 7.07031C122.237 7.00781 122.188 6.91146 122.188 6.78125C122.188 6.59375 122.289 6.5 122.492 6.5C123.331 6.5 124.169 6.36719 125.008 6.10156C125.049 6.08594 125.094 6.07812 125.141 6.07812C125.266 6.07812 125.354 6.11198 125.406 6.17969C125.458 6.24219 125.484 6.36719 125.484 6.55469V12.7422C125.521 12.9245 125.578 13.0677 125.656 13.1719C125.734 13.2708 125.839 13.3542 125.969 13.4219C126.078 13.4844 126.133 13.5833 126.133 13.7188C126.133 13.901 126.023 13.9922 125.805 13.9922L124.156 14ZM134.883 14H131.508C131.393 14 131.31 13.9609 131.258 13.8828C131.206 13.7995 131.18 13.7188 131.18 13.6406C131.18 13.6302 131.182 13.599 131.188 13.5469C131.198 13.4896 131.25 13.4531 131.344 13.4375C131.521 13.4323 131.609 13.375 131.609 13.2656C131.609 13.1615 131.531 13.013 131.375 12.8203L130.148 11.1328L128.328 13.2422C128.255 13.3255 128.219 13.3906 128.219 13.4375C128.219 13.526 128.328 13.5703 128.547 13.5703C128.719 13.5703 128.805 13.6432 128.805 13.7891C128.805 13.9297 128.719 14 128.547 14H126.789C126.633 14 126.555 13.9297 126.555 13.7891C126.555 13.6432 126.635 13.5703 126.797 13.5703C127.005 13.5703 127.193 13.5312 127.359 13.4531C127.526 13.375 127.721 13.2057 127.945 12.9453L129.852 10.7344L127.438 7.41406C127.276 7.1849 127.133 7.02344 127.008 6.92969C126.888 6.83594 126.734 6.77604 126.547 6.75C126.396 6.71354 126.284 6.64323 126.211 6.53906C126.154 6.46094 126.125 6.38542 126.125 6.3125C126.125 6.28125 126.135 6.23438 126.156 6.17188C126.177 6.10938 126.279 6.07812 126.461 6.07812H129.836C129.951 6.07812 130.036 6.1224 130.094 6.21094C130.141 6.27865 130.164 6.34896 130.164 6.42188C130.164 6.4375 130.159 6.47396 130.148 6.53125C130.143 6.58333 130.091 6.61719 129.992 6.63281C129.82 6.63802 129.734 6.69531 129.734 6.80469C129.734 6.90885 129.81 7.05729 129.961 7.25L131.195 8.9375L133.016 6.82812C133.083 6.75521 133.117 6.68229 133.117 6.60938C133.117 6.53646 133.01 6.5 132.797 6.5C132.625 6.5 132.539 6.42969 132.539 6.28906C132.539 6.14844 132.622 6.07812 132.789 6.07812H134.547C134.708 6.07812 134.789 6.14844 134.789 6.28906C134.789 6.42969 134.706 6.5 134.539 6.5C134.336 6.5 134.148 6.54427 133.977 6.63281C133.805 6.71615 133.609 6.88281 133.391 7.13281L131.484 9.34375L133.898 12.6562C134.065 12.8906 134.208 13.0547 134.328 13.1484C134.448 13.237 134.602 13.2969 134.789 13.3281C134.94 13.3594 135.055 13.4297 135.133 13.5391C135.185 13.612 135.211 13.6849 135.211 13.7578C135.211 13.7839 135.201 13.8307 135.18 13.8984C135.159 13.9661 135.06 14 134.883 14ZM37.7108 32L35.7188 28.58H34.3988V32H33.3068V23.636H36.0068C36.6388 23.636 37.1708 23.744 37.6028 23.96C38.0428 24.176 38.3708 24.468 38.5868 24.836C38.8028 25.204 38.9108 25.624 38.9108 26.096C38.9108 26.672 38.7428 27.18 38.4068 27.62C38.0788 28.06 37.5828 28.352 36.9188 28.496L39.0188 32H37.7108ZM34.3988 27.704H36.0068C36.5988 27.704 37.0428 27.56 37.3388 27.272C37.6348 26.976 37.7828 26.584 37.7828 26.096C37.7828 25.6 37.6348 25.216 37.3388 24.944C37.0508 24.672 36.6068 24.536 36.0068 24.536H34.3988V27.704ZM46.6076 28.46C46.6076 28.668 46.5956 28.888 46.5716 29.12H41.3156C41.3556 29.768 41.5756 30.276 41.9756 30.644C42.3836 31.004 42.8756 31.184 43.4516 31.184C43.9236 31.184 44.3156 31.076 44.6276 30.86C44.9476 30.636 45.1716 30.34 45.2996 29.972H46.4756C46.2996 30.604 45.9476 31.12 45.4196 31.52C44.8916 31.912 44.2356 32.108 43.4516 32.108C42.8276 32.108 42.2676 31.968 41.7716 31.688C41.2836 31.408 40.8996 31.012 40.6196 30.5C40.3396 29.98 40.1996 29.38 40.1996 28.7C40.1996 28.02 40.3356 27.424 40.6076 26.912C40.8796 26.4 41.2596 26.008 41.7476 25.736C42.2436 25.456 42.8116 25.316 43.4516 25.316C44.0756 25.316 44.6276 25.452 45.1076 25.724C45.5876 25.996 45.9556 26.372 46.2116 26.852C46.4756 27.324 46.6076 27.86 46.6076 28.46ZM45.4796 28.232C45.4796 27.816 45.3876 27.46 45.2036 27.164C45.0196 26.86 44.7676 26.632 44.4476 26.48C44.1356 26.32 43.7876 26.24 43.4036 26.24C42.8516 26.24 42.3796 26.416 41.9876 26.768C41.6036 27.12 41.3836 27.608 41.3276 28.232H45.4796ZM47.641 28.7C47.641 28.02 47.777 27.428 48.049 26.924C48.321 26.412 48.697 26.016 49.177 25.736C49.665 25.456 50.221 25.316 50.845 25.316C51.653 25.316 52.317 25.512 52.837 25.904C53.365 26.296 53.713 26.84 53.881 27.536H52.705C52.593 27.136 52.373 26.82 52.045 26.588C51.725 26.356 51.325 26.24 50.845 26.24C50.221 26.24 49.717 26.456 49.333 26.888C48.949 27.312 48.757 27.916 48.757 28.7C48.757 29.492 48.949 30.104 49.333 30.536C49.717 30.968 50.221 31.184 50.845 31.184C51.325 31.184 51.725 31.072 52.045 30.848C52.365 30.624 52.585 30.304 52.705 29.888H53.881C53.705 30.56 53.353 31.1 52.825 31.508C52.297 31.908 51.637 32.108 50.845 32.108C50.221 32.108 49.665 31.968 49.177 31.688C48.697 31.408 48.321 31.012 48.049 30.5C47.777 29.988 47.641 29.388 47.641 28.7ZM58.2061 32.108C57.5901 32.108 57.0301 31.968 56.5261 31.688C56.0301 31.408 55.6381 31.012 55.3501 30.5C55.0701 29.98 54.9301 29.38 54.9301 28.7C54.9301 28.028 55.0741 27.436 55.3621 26.924C55.6581 26.404 56.0581 26.008 56.5621 25.736C57.0661 25.456 57.6301 25.316 58.2541 25.316C58.8781 25.316 59.4421 25.456 59.9461 25.736C60.4501 26.008 60.8461 26.4 61.1341 26.912C61.4301 27.424 61.5781 28.02 61.5781 28.7C61.5781 29.38 61.4261 29.98 61.1221 30.5C60.8261 31.012 60.4221 31.408 59.9101 31.688C59.3981 31.968 58.8301 32.108 58.2061 32.108ZM58.2061 31.148C58.5981 31.148 58.9661 31.056 59.3101 30.872C59.6541 30.688 59.9301 30.412 60.1381 30.044C60.3541 29.676 60.4621 29.228 60.4621 28.7C60.4621 28.172 60.3581 27.724 60.1501 27.356C59.9421 26.988 59.6701 26.716 59.3341 26.54C58.9981 26.356 58.6341 26.264 58.2421 26.264C57.8421 26.264 57.4741 26.356 57.1381 26.54C56.8101 26.716 56.5461 26.988 56.3461 27.356C56.1461 27.724 56.0461 28.172 56.0461 28.7C56.0461 29.236 56.1421 29.688 56.3341 30.056C56.5341 30.424 56.7981 30.7 57.1261 30.884C57.4541 31.06 57.8141 31.148 58.2061 31.148ZM70.9218 25.304C71.4338 25.304 71.8898 25.412 72.2898 25.628C72.6898 25.836 73.0058 26.152 73.2378 26.576C73.4698 27 73.5858 27.516 73.5858 28.124V32H72.5058V28.28C72.5058 27.624 72.3418 27.124 72.0138 26.78C71.6938 26.428 71.2578 26.252 70.7058 26.252C70.1378 26.252 69.6858 26.436 69.3498 26.804C69.0138 27.164 68.8458 27.688 68.8458 28.376V32H67.7658V28.28C67.7658 27.624 67.6018 27.124 67.2738 26.78C66.9538 26.428 66.5178 26.252 65.9658 26.252C65.3978 26.252 64.9458 26.436 64.6098 26.804C64.2738 27.164 64.1058 27.688 64.1058 28.376V32H63.0138V25.424H64.1058V26.372C64.3218 26.028 64.6098 25.764 64.9698 25.58C65.3378 25.396 65.7418 25.304 66.1818 25.304C66.7338 25.304 67.2218 25.428 67.6458 25.676C68.0698 25.924 68.3858 26.288 68.5938 26.768C68.7778 26.304 69.0818 25.944 69.5058 25.688C69.9298 25.432 70.4018 25.304 70.9218 25.304ZM83.2851 25.304C83.7971 25.304 84.2531 25.412 84.6531 25.628C85.0531 25.836 85.3691 26.152 85.6011 26.576C85.8331 27 85.9491 27.516 85.9491 28.124V32H84.8691V28.28C84.8691 27.624 84.7051 27.124 84.3771 26.78C84.0571 26.428 83.6211 26.252 83.0691 26.252C82.5011 26.252 82.0491 26.436 81.7131 26.804C81.3771 27.164 81.2091 27.688 81.2091 28.376V32H80.1291V28.28C80.1291 27.624 79.9651 27.124 79.6371 26.78C79.3171 26.428 78.8811 26.252 78.3291 26.252C77.7611 26.252 77.3091 26.436 76.9731 26.804C76.6371 27.164 76.4691 27.688 76.4691 28.376V32H75.3771V25.424H76.4691V26.372C76.6851 26.028 76.9731 25.764 77.3331 25.58C77.7011 25.396 78.1051 25.304 78.5451 25.304C79.0971 25.304 79.5851 25.428 80.0091 25.676C80.4331 25.924 80.7491 26.288 80.9571 26.768C81.1411 26.304 81.4451 25.944 81.8691 25.688C82.2931 25.432 82.7651 25.304 83.2851 25.304ZM93.7404 28.46C93.7404 28.668 93.7284 28.888 93.7044 29.12H88.4484C88.4884 29.768 88.7084 30.276 89.1084 30.644C89.5164 31.004 90.0084 31.184 90.5844 31.184C91.0564 31.184 91.4484 31.076 91.7604 30.86C92.0804 30.636 92.3044 30.34 92.4324 29.972H93.6084C93.4324 30.604 93.0804 31.12 92.5524 31.52C92.0244 31.912 91.3684 32.108 90.5844 32.108C89.9604 32.108 89.4004 31.968 88.9044 31.688C88.4164 31.408 88.0324 31.012 87.7524 30.5C87.4724 29.98 87.3324 29.38 87.3324 28.7C87.3324 28.02 87.4684 27.424 87.7404 26.912C88.0124 26.4 88.3924 26.008 88.8804 25.736C89.3764 25.456 89.9444 25.316 90.5844 25.316C91.2084 25.316 91.7604 25.452 92.2404 25.724C92.7204 25.996 93.0884 26.372 93.3444 26.852C93.6084 27.324 93.7404 27.86 93.7404 28.46ZM92.6124 28.232C92.6124 27.816 92.5204 27.46 92.3364 27.164C92.1524 26.86 91.9004 26.632 91.5804 26.48C91.2684 26.32 90.9204 26.24 90.5364 26.24C89.9844 26.24 89.5124 26.416 89.1204 26.768C88.7364 27.12 88.5164 27.608 88.4604 28.232H92.6124ZM98.3858 25.304C99.1858 25.304 99.8338 25.548 100.33 26.036C100.826 26.516 101.074 27.212 101.074 28.124V32H99.9938V28.28C99.9938 27.624 99.8298 27.124 99.5018 26.78C99.1738 26.428 98.7258 26.252 98.1578 26.252C97.5818 26.252 97.1218 26.432 96.7778 26.792C96.4418 27.152 96.2738 27.676 96.2738 28.364V32H95.1818V25.424H96.2738V26.36C96.4898 26.024 96.7818 25.764 97.1498 25.58C97.5258 25.396 97.9378 25.304 98.3858 25.304ZM102.45 28.688C102.45 28.016 102.586 27.428 102.858 26.924C103.13 26.412 103.502 26.016 103.974 25.736C104.454 25.456 104.99 25.316 105.582 25.316C106.094 25.316 106.57 25.436 107.01 25.676C107.45 25.908 107.786 26.216 108.018 26.6V23.12H109.122V32H108.018V30.764C107.802 31.156 107.482 31.48 107.058 31.736C106.634 31.984 106.138 32.108 105.57 32.108C104.986 32.108 104.454 31.964 103.974 31.676C103.502 31.388 103.13 30.984 102.858 30.464C102.586 29.944 102.45 29.352 102.45 28.688ZM108.018 28.7C108.018 28.204 107.918 27.772 107.718 27.404C107.518 27.036 107.246 26.756 106.902 26.564C106.566 26.364 106.194 26.264 105.786 26.264C105.378 26.264 105.006 26.36 104.67 26.552C104.334 26.744 104.066 27.024 103.866 27.392C103.666 27.76 103.566 28.192 103.566 28.688C103.566 29.192 103.666 29.632 103.866 30.008C104.066 30.376 104.334 30.66 104.67 30.86C105.006 31.052 105.378 31.148 105.786 31.148C106.194 31.148 106.566 31.052 106.902 30.86C107.246 30.66 107.518 30.376 107.718 30.008C107.918 29.632 108.018 29.196 108.018 28.7ZM113.295 32.108C112.791 32.108 112.339 32.024 111.939 31.856C111.539 31.68 111.223 31.44 110.991 31.136C110.759 30.824 110.631 30.468 110.607 30.068H111.735C111.767 30.396 111.919 30.664 112.191 30.872C112.471 31.08 112.835 31.184 113.283 31.184C113.699 31.184 114.027 31.092 114.267 30.908C114.507 30.724 114.627 30.492 114.627 30.212C114.627 29.924 114.499 29.712 114.243 29.576C113.987 29.432 113.591 29.292 113.055 29.156C112.567 29.028 112.167 28.9 111.855 28.772C111.551 28.636 111.287 28.44 111.063 28.184C110.847 27.92 110.739 27.576 110.739 27.152C110.739 26.816 110.839 26.508 111.039 26.228C111.239 25.948 111.523 25.728 111.891 25.568C112.259 25.4 112.679 25.316 113.151 25.316C113.879 25.316 114.467 25.5 114.915 25.868C115.363 26.236 115.603 26.74 115.635 27.38H114.543C114.519 27.036 114.379 26.76 114.123 26.552C113.875 26.344 113.539 26.24 113.115 26.24C112.723 26.24 112.411 26.324 112.179 26.492C111.947 26.66 111.831 26.88 111.831 27.152C111.831 27.368 111.899 27.548 112.035 27.692C112.179 27.828 112.355 27.94 112.563 28.028C112.779 28.108 113.075 28.2 113.451 28.304C113.923 28.432 114.307 28.56 114.603 28.688C114.899 28.808 115.151 28.992 115.359 29.24C115.575 29.488 115.687 29.812 115.695 30.212C115.695 30.572 115.595 30.896 115.395 31.184C115.195 31.472 114.911 31.7 114.543 31.868C114.183 32.028 113.767 32.108 113.295 32.108ZM121.768 26.324V30.2C121.768 30.52 121.836 30.748 121.972 30.884C122.108 31.012 122.344 31.076 122.68 31.076H123.484V32H122.5C121.892 32 121.436 31.86 121.132 31.58C120.828 31.3 120.676 30.84 120.676 30.2V26.324H119.824V25.424H120.676V23.768H121.768V25.424H123.484V26.324H121.768ZM128.071 25.304C128.567 25.304 129.015 25.412 129.415 25.628C129.815 25.836 130.127 26.152 130.351 26.576C130.583 27 130.699 27.516 130.699 28.124V32H129.619V28.28C129.619 27.624 129.455 27.124 129.127 26.78C128.799 26.428 128.351 26.252 127.783 26.252C127.207 26.252 126.747 26.432 126.403 26.792C126.067 27.152 125.899 27.676 125.899 28.364V32H124.807V23.12H125.899V26.36C126.115 26.024 126.411 25.764 126.787 25.58C127.171 25.396 127.599 25.304 128.071 25.304ZM138.483 28.46C138.483 28.668 138.471 28.888 138.447 29.12H133.191C133.231 29.768 133.451 30.276 133.851 30.644C134.259 31.004 134.751 31.184 135.327 31.184C135.799 31.184 136.191 31.076 136.503 30.86C136.823 30.636 137.047 30.34 137.175 29.972H138.351C138.175 30.604 137.823 31.12 137.295 31.52C136.767 31.912 136.111 32.108 135.327 32.108C134.703 32.108 134.143 31.968 133.647 31.688C133.159 31.408 132.775 31.012 132.495 30.5C132.215 29.98 132.075 29.38 132.075 28.7C132.075 28.02 132.211 27.424 132.483 26.912C132.755 26.4 133.135 26.008 133.623 25.736C134.119 25.456 134.687 25.316 135.327 25.316C135.951 25.316 136.503 25.452 136.983 25.724C137.463 25.996 137.831 26.372 138.087 26.852C138.351 27.324 138.483 27.86 138.483 28.46ZM137.355 28.232C137.355 27.816 137.263 27.46 137.079 27.164C136.895 26.86 136.643 26.632 136.323 26.48C136.011 26.32 135.663 26.24 135.279 26.24C134.727 26.24 134.255 26.416 133.863 26.768C133.479 27.12 133.259 27.608 133.203 28.232H137.355ZM48.8715 44.636C49.0875 44.26 49.4075 43.948 49.8315 43.7C50.2635 43.444 50.7635 43.316 51.3315 43.316C51.9155 43.316 52.4435 43.456 52.9155 43.736C53.3955 44.016 53.7715 44.412 54.0435 44.924C54.3155 45.428 54.4515 46.016 54.4515 46.688C54.4515 47.352 54.3155 47.944 54.0435 48.464C53.7715 48.984 53.3955 49.388 52.9155 49.676C52.4435 49.964 51.9155 50.108 51.3315 50.108C50.7715 50.108 50.2755 49.984 49.8435 49.736C49.4195 49.48 49.0955 49.164 48.8715 48.788V53.12H47.7795V43.424H48.8715V44.636ZM53.3355 46.688C53.3355 46.192 53.2355 45.76 53.0355 45.392C52.8355 45.024 52.5635 44.744 52.2195 44.552C51.8835 44.36 51.5115 44.264 51.1035 44.264C50.7035 44.264 50.3315 44.364 49.9875 44.564C49.6515 44.756 49.3795 45.04 49.1715 45.416C48.9715 45.784 48.8715 46.212 48.8715 46.7C48.8715 47.196 48.9715 47.632 49.1715 48.008C49.3795 48.376 49.6515 48.66 49.9875 48.86C50.3315 49.052 50.7035 49.148 51.1035 49.148C51.5115 49.148 51.8835 49.052 52.2195 48.86C52.5635 48.66 52.8355 48.376 53.0355 48.008C53.2355 47.632 53.3355 47.192 53.3355 46.688ZM61.8888 46.46C61.8888 46.668 61.8768 46.888 61.8528 47.12H56.5968C56.6368 47.768 56.8568 48.276 57.2568 48.644C57.6648 49.004 58.1568 49.184 58.7328 49.184C59.2048 49.184 59.5968 49.076 59.9088 48.86C60.2288 48.636 60.4528 48.34 60.5808 47.972H61.7568C61.5808 48.604 61.2288 49.12 60.7008 49.52C60.1728 49.912 59.5168 50.108 58.7328 50.108C58.1088 50.108 57.5488 49.968 57.0528 49.688C56.5648 49.408 56.1808 49.012 55.9008 48.5C55.6208 47.98 55.4808 47.38 55.4808 46.7C55.4808 46.02 55.6168 45.424 55.8888 44.912C56.1608 44.4 56.5408 44.008 57.0288 43.736C57.5248 43.456 58.0928 43.316 58.7328 43.316C59.3568 43.316 59.9088 43.452 60.3888 43.724C60.8688 43.996 61.2368 44.372 61.4928 44.852C61.7568 45.324 61.8888 45.86 61.8888 46.46ZM60.7608 46.232C60.7608 45.816 60.6688 45.46 60.4848 45.164C60.3008 44.86 60.0488 44.632 59.7288 44.48C59.4168 44.32 59.0688 44.24 58.6848 44.24C58.1328 44.24 57.6608 44.416 57.2688 44.768C56.8848 45.12 56.6648 45.608 56.6088 46.232H60.7608ZM64.4223 44.492C64.6143 44.116 64.8863 43.824 65.2383 43.616C65.5983 43.408 66.0343 43.304 66.5463 43.304V44.432H66.2583C65.0343 44.432 64.4223 45.096 64.4223 46.424V50H63.3303V43.424H64.4223V44.492ZM70.4828 44.324H69.1028V50H68.0108V44.324H67.1588V43.424H68.0108V42.956C68.0108 42.22 68.1988 41.684 68.5748 41.348C68.9588 41.004 69.5708 40.832 70.4108 40.832V41.744C69.9308 41.744 69.5908 41.84 69.3908 42.032C69.1988 42.216 69.1028 42.524 69.1028 42.956V43.424H70.4828V44.324ZM77.756 46.46C77.756 46.668 77.744 46.888 77.72 47.12H72.464C72.504 47.768 72.724 48.276 73.124 48.644C73.532 49.004 74.024 49.184 74.6 49.184C75.072 49.184 75.464 49.076 75.776 48.86C76.096 48.636 76.32 48.34 76.448 47.972H77.624C77.448 48.604 77.096 49.12 76.568 49.52C76.04 49.912 75.384 50.108 74.6 50.108C73.976 50.108 73.416 49.968 72.92 49.688C72.432 49.408 72.048 49.012 71.768 48.5C71.488 47.98 71.348 47.38 71.348 46.7C71.348 46.02 71.484 45.424 71.756 44.912C72.028 44.4 72.408 44.008 72.896 43.736C73.392 43.456 73.96 43.316 74.6 43.316C75.224 43.316 75.776 43.452 76.256 43.724C76.736 43.996 77.104 44.372 77.36 44.852C77.624 45.324 77.756 45.86 77.756 46.46ZM76.628 46.232C76.628 45.816 76.536 45.46 76.352 45.164C76.168 44.86 75.916 44.632 75.596 44.48C75.284 44.32 74.936 44.24 74.552 44.24C74 44.24 73.528 44.416 73.136 44.768C72.752 45.12 72.532 45.608 72.476 46.232H76.628ZM78.7894 46.7C78.7894 46.02 78.9254 45.428 79.1974 44.924C79.4694 44.412 79.8454 44.016 80.3254 43.736C80.8134 43.456 81.3694 43.316 81.9934 43.316C82.8014 43.316 83.4654 43.512 83.9854 43.904C84.5134 44.296 84.8614 44.84 85.0294 45.536H83.8534C83.7414 45.136 83.5214 44.82 83.1934 44.588C82.8734 44.356 82.4734 44.24 81.9934 44.24C81.3694 44.24 80.8654 44.456 80.4814 44.888C80.0974 45.312 79.9054 45.916 79.9054 46.7C79.9054 47.492 80.0974 48.104 80.4814 48.536C80.8654 48.968 81.3694 49.184 81.9934 49.184C82.4734 49.184 82.8734 49.072 83.1934 48.848C83.5134 48.624 83.7334 48.304 83.8534 47.888H85.0294C84.8534 48.56 84.5014 49.1 83.9734 49.508C83.4454 49.908 82.7854 50.108 81.9934 50.108C81.3694 50.108 80.8134 49.968 80.3254 49.688C79.8454 49.408 79.4694 49.012 79.1974 48.5C78.9254 47.988 78.7894 47.388 78.7894 46.7ZM87.8185 44.324V48.2C87.8185 48.52 87.8865 48.748 88.0225 48.884C88.1585 49.012 88.3945 49.076 88.7305 49.076H89.5345V50H88.5505C87.9425 50 87.4865 49.86 87.1825 49.58C86.8785 49.3 86.7265 48.84 86.7265 48.2V44.324H85.8745V43.424H86.7265V41.768H87.8185V43.424H89.5345V44.324H87.8185ZM93.6488 46.688C93.6488 46.016 93.7848 45.428 94.0568 44.924C94.3288 44.412 94.7008 44.016 95.1728 43.736C95.6528 43.456 96.1888 43.316 96.7808 43.316C97.2928 43.316 97.7688 43.436 98.2088 43.676C98.6488 43.908 98.9848 44.216 99.2168 44.6V41.12H100.321V50H99.2168V48.764C99.0008 49.156 98.6808 49.48 98.2568 49.736C97.8328 49.984 97.3368 50.108 96.7688 50.108C96.1848 50.108 95.6528 49.964 95.1728 49.676C94.7008 49.388 94.3288 48.984 94.0568 48.464C93.7848 47.944 93.6488 47.352 93.6488 46.688ZM99.2168 46.7C99.2168 46.204 99.1168 45.772 98.9168 45.404C98.7168 45.036 98.4448 44.756 98.1008 44.564C97.7648 44.364 97.3928 44.264 96.9848 44.264C96.5768 44.264 96.2048 44.36 95.8688 44.552C95.5328 44.744 95.2648 45.024 95.0648 45.392C94.8648 45.76 94.7648 46.192 94.7648 46.688C94.7648 47.192 94.8648 47.632 95.0648 48.008C95.2648 48.376 95.5328 48.66 95.8688 48.86C96.2048 49.052 96.5768 49.148 96.9848 49.148C97.3928 49.148 97.7648 49.052 98.1008 48.86C98.4448 48.66 98.7168 48.376 98.9168 48.008C99.1168 47.632 99.2168 47.196 99.2168 46.7ZM105.034 50.108C104.418 50.108 103.858 49.968 103.354 49.688C102.858 49.408 102.466 49.012 102.178 48.5C101.898 47.98 101.758 47.38 101.758 46.7C101.758 46.028 101.902 45.436 102.19 44.924C102.486 44.404 102.886 44.008 103.39 43.736C103.894 43.456 104.458 43.316 105.082 43.316C105.706 43.316 106.27 43.456 106.774 43.736C107.278 44.008 107.674 44.4 107.962 44.912C108.258 45.424 108.406 46.02 108.406 46.7C108.406 47.38 108.254 47.98 107.95 48.5C107.654 49.012 107.25 49.408 106.738 49.688C106.226 49.968 105.658 50.108 105.034 50.108ZM105.034 49.148C105.426 49.148 105.794 49.056 106.138 48.872C106.482 48.688 106.758 48.412 106.966 48.044C107.182 47.676 107.29 47.228 107.29 46.7C107.29 46.172 107.186 45.724 106.978 45.356C106.77 44.988 106.498 44.716 106.162 44.54C105.826 44.356 105.462 44.264 105.07 44.264C104.67 44.264 104.302 44.356 103.966 44.54C103.638 44.716 103.374 44.988 103.174 45.356C102.974 45.724 102.874 46.172 102.874 46.7C102.874 47.236 102.97 47.688 103.162 48.056C103.362 48.424 103.626 48.7 103.954 48.884C104.282 49.06 104.642 49.148 105.034 49.148ZM109.434 46.7C109.434 46.02 109.57 45.428 109.842 44.924C110.114 44.412 110.49 44.016 110.97 43.736C111.458 43.456 112.014 43.316 112.638 43.316C113.446 43.316 114.11 43.512 114.63 43.904C115.158 44.296 115.506 44.84 115.674 45.536H114.498C114.386 45.136 114.166 44.82 113.838 44.588C113.518 44.356 113.118 44.24 112.638 44.24C112.014 44.24 111.51 44.456 111.126 44.888C110.742 45.312 110.55 45.916 110.55 46.7C110.55 47.492 110.742 48.104 111.126 48.536C111.51 48.968 112.014 49.184 112.638 49.184C113.118 49.184 113.518 49.072 113.838 48.848C114.158 48.624 114.378 48.304 114.498 47.888H115.674C115.498 48.56 115.146 49.1 114.618 49.508C114.09 49.908 113.43 50.108 112.638 50.108C112.014 50.108 111.458 49.968 110.97 49.688C110.49 49.408 110.114 49.012 109.842 48.5C109.57 47.988 109.434 47.388 109.434 46.7ZM118.463 44.324V48.2C118.463 48.52 118.531 48.748 118.667 48.884C118.803 49.012 119.039 49.076 119.375 49.076H120.179V50H119.195C118.587 50 118.131 49.86 117.827 49.58C117.523 49.3 117.371 48.84 117.371 48.2V44.324H116.519V43.424H117.371V41.768H118.463V43.424H120.179V44.324H118.463ZM124.37 50.108C123.754 50.108 123.194 49.968 122.69 49.688C122.194 49.408 121.802 49.012 121.514 48.5C121.234 47.98 121.094 47.38 121.094 46.7C121.094 46.028 121.238 45.436 121.526 44.924C121.822 44.404 122.222 44.008 122.726 43.736C123.23 43.456 123.794 43.316 124.418 43.316C125.042 43.316 125.606 43.456 126.11 43.736C126.614 44.008 127.01 44.4 127.298 44.912C127.594 45.424 127.742 46.02 127.742 46.7C127.742 47.38 127.59 47.98 127.286 48.5C126.99 49.012 126.586 49.408 126.074 49.688C125.562 49.968 124.994 50.108 124.37 50.108ZM124.37 49.148C124.762 49.148 125.13 49.056 125.474 48.872C125.818 48.688 126.094 48.412 126.302 48.044C126.518 47.676 126.626 47.228 126.626 46.7C126.626 46.172 126.522 45.724 126.314 45.356C126.106 44.988 125.834 44.716 125.498 44.54C125.162 44.356 124.798 44.264 124.406 44.264C124.006 44.264 123.638 44.356 123.302 44.54C122.974 44.716 122.71 44.988 122.51 45.356C122.31 45.724 122.21 46.172 122.21 46.7C122.21 47.236 122.306 47.688 122.498 48.056C122.698 48.424 122.962 48.7 123.29 48.884C123.618 49.06 123.978 49.148 124.37 49.148ZM130.27 44.492C130.462 44.116 130.734 43.824 131.086 43.616C131.446 43.408 131.882 43.304 132.394 43.304V44.432H132.106C130.882 44.432 130.27 45.096 130.27 46.424V50H129.178V43.424H130.27V44.492ZM135.982 50.108C135.478 50.108 135.026 50.024 134.626 49.856C134.226 49.68 133.91 49.44 133.678 49.136C133.446 48.824 133.318 48.468 133.294 48.068H134.422C134.454 48.396 134.606 48.664 134.878 48.872C135.158 49.08 135.522 49.184 135.97 49.184C136.386 49.184 136.714 49.092 136.954 48.908C137.194 48.724 137.314 48.492 137.314 48.212C137.314 47.924 137.186 47.712 136.93 47.576C136.674 47.432 136.278 47.292 135.742 47.156C135.254 47.028 134.854 46.9 134.542 46.772C134.238 46.636 133.974 46.44 133.75 46.184C133.534 45.92 133.426 45.576 133.426 45.152C133.426 44.816 133.526 44.508 133.726 44.228C133.926 43.948 134.21 43.728 134.578 43.568C134.946 43.4 135.366 43.316 135.838 43.316C136.566 43.316 137.154 43.5 137.602 43.868C138.05 44.236 138.29 44.74 138.322 45.38H137.23C137.206 45.036 137.066 44.76 136.81 44.552C136.562 44.344 136.226 44.24 135.802 44.24C135.41 44.24 135.098 44.324 134.866 44.492C134.634 44.66 134.518 44.88 134.518 45.152C134.518 45.368 134.586 45.548 134.722 45.692C134.866 45.828 135.042 45.94 135.25 46.028C135.466 46.108 135.762 46.2 136.138 46.304C136.61 46.432 136.994 46.56 137.29 46.688C137.586 46.808 137.838 46.992 138.046 47.24C138.262 47.488 138.374 47.812 138.382 48.212C138.382 48.572 138.282 48.896 138.082 49.184C137.882 49.472 137.598 49.7 137.23 49.868C136.87 50.028 136.454 50.108 135.982 50.108ZM3.94164 64.225V66.85H7.46664V68.515H3.94164V71.29H7.91664V73H1.84164V62.515H7.91664V64.225H3.94164ZM13.005 73.135C12.325 73.135 11.715 73.015 11.175 72.775C10.635 72.525 10.205 72.19 9.88504 71.77C9.57504 71.35 9.40504 70.885 9.37504 70.375H11.49C11.53 70.695 11.685 70.96 11.955 71.17C12.235 71.38 12.58 71.485 12.99 71.485C13.39 71.485 13.7 71.405 13.92 71.245C14.15 71.085 14.265 70.88 14.265 70.63C14.265 70.36 14.125 70.16 13.845 70.03C13.575 69.89 13.14 69.74 12.54 69.58C11.92 69.43 11.41 69.275 11.01 69.115C10.62 68.955 10.28 68.71 9.99004 68.38C9.71004 68.05 9.57004 67.605 9.57004 67.045C9.57004 66.585 9.70004 66.165 9.96004 65.785C10.23 65.405 10.61 65.105 11.1 64.885C11.6 64.665 12.185 64.555 12.855 64.555C13.845 64.555 14.635 64.805 15.225 65.305C15.815 65.795 16.14 66.46 16.2 67.3H14.19C14.16 66.97 14.02 66.71 13.77 66.52C13.53 66.32 13.205 66.22 12.795 66.22C12.415 66.22 12.12 66.29 11.91 66.43C11.71 66.57 11.61 66.765 11.61 67.015C11.61 67.295 11.75 67.51 12.03 67.66C12.31 67.8 12.745 67.945 13.335 68.095C13.935 68.245 14.43 68.4 14.82 68.56C15.21 68.72 15.545 68.97 15.825 69.31C16.115 69.64 16.265 70.08 16.275 70.63C16.275 71.11 16.14 71.54 15.87 71.92C15.61 72.3 15.23 72.6 14.73 72.82C14.24 73.03 13.665 73.135 13.005 73.135ZM20.0989 65.89C20.3689 65.51 20.7389 65.195 21.2089 64.945C21.6889 64.685 22.2339 64.555 22.8439 64.555C23.5539 64.555 24.1939 64.73 24.7639 65.08C25.3439 65.43 25.7989 65.93 26.1289 66.58C26.4689 67.22 26.6389 67.965 26.6389 68.815C26.6389 69.665 26.4689 70.42 26.1289 71.08C25.7989 71.73 25.3439 72.235 24.7639 72.595C24.1939 72.955 23.5539 73.135 22.8439 73.135C22.2339 73.135 21.6939 73.01 21.2239 72.76C20.7639 72.51 20.3889 72.195 20.0989 71.815V76.96H17.9989V64.69H20.0989V65.89ZM24.4939 68.815C24.4939 68.315 24.3889 67.885 24.1789 67.525C23.9789 67.155 23.7089 66.875 23.3689 66.685C23.0389 66.495 22.6789 66.4 22.2889 66.4C21.9089 66.4 21.5489 66.5 21.2089 66.7C20.8789 66.89 20.6089 67.17 20.3989 67.54C20.1989 67.91 20.0989 68.345 20.0989 68.845C20.0989 69.345 20.1989 69.78 20.3989 70.15C20.6089 70.52 20.8789 70.805 21.2089 71.005C21.5489 71.195 21.9089 71.29 22.2889 71.29C22.6789 71.29 23.0389 71.19 23.3689 70.99C23.7089 70.79 23.9789 70.505 24.1789 70.135C24.3889 69.765 24.4939 69.325 24.4939 68.815ZM35.8899 68.665C35.8899 68.965 35.8699 69.235 35.8299 69.475H29.7549C29.8049 70.075 30.0149 70.545 30.3849 70.885C30.7549 71.225 31.2099 71.395 31.7499 71.395C32.5299 71.395 33.0849 71.06 33.4149 70.39H35.6799C35.4399 71.19 34.9799 71.85 34.2999 72.37C33.6199 72.88 32.7849 73.135 31.7949 73.135C30.9949 73.135 30.2749 72.96 29.6349 72.61C29.0049 72.25 28.5099 71.745 28.1499 71.095C27.7999 70.445 27.6249 69.695 27.6249 68.845C27.6249 67.985 27.7999 67.23 28.1499 66.58C28.4999 65.93 28.9899 65.43 29.6199 65.08C30.2499 64.73 30.9749 64.555 31.7949 64.555C32.5849 64.555 33.2899 64.725 33.9099 65.065C34.5399 65.405 35.0249 65.89 35.3649 66.52C35.7149 67.14 35.8899 67.855 35.8899 68.665ZM33.7149 68.065C33.7049 67.525 33.5099 67.095 33.1299 66.775C32.7499 66.445 32.2849 66.28 31.7349 66.28C31.2149 66.28 30.7749 66.44 30.4149 66.76C30.0649 67.07 29.8499 67.505 29.7699 68.065H33.7149ZM36.8827 68.845C36.8827 67.985 37.0577 67.235 37.4077 66.595C37.7577 65.945 38.2427 65.445 38.8627 65.095C39.4827 64.735 40.1927 64.555 40.9927 64.555C42.0227 64.555 42.8727 64.815 43.5427 65.335C44.2227 65.845 44.6777 66.565 44.9077 67.495H42.6427C42.5227 67.135 42.3177 66.855 42.0277 66.655C41.7477 66.445 41.3977 66.34 40.9777 66.34C40.3777 66.34 39.9027 66.56 39.5527 67C39.2027 67.43 39.0277 68.045 39.0277 68.845C39.0277 69.635 39.2027 70.25 39.5527 70.69C39.9027 71.12 40.3777 71.335 40.9777 71.335C41.8277 71.335 42.3827 70.955 42.6427 70.195H44.9077C44.6777 71.095 44.2227 71.81 43.5427 72.34C42.8627 72.87 42.0127 73.135 40.9927 73.135C40.1927 73.135 39.4827 72.96 38.8627 72.61C38.2427 72.25 37.7577 71.75 37.4077 71.11C37.0577 70.46 36.8827 69.705 36.8827 68.845ZM47.5111 63.7C47.1411 63.7 46.8311 63.585 46.5811 63.355C46.3411 63.115 46.2211 62.82 46.2211 62.47C46.2211 62.12 46.3411 61.83 46.5811 61.6C46.8311 61.36 47.1411 61.24 47.5111 61.24C47.8811 61.24 48.1861 61.36 48.4261 61.6C48.6761 61.83 48.8011 62.12 48.8011 62.47C48.8011 62.82 48.6761 63.115 48.4261 63.355C48.1861 63.585 47.8811 63.7 47.5111 63.7ZM48.5461 64.69V73H46.4461V64.69H48.5461ZM50.0809 68.815C50.0809 67.975 50.2459 67.23 50.5759 66.58C50.9159 65.93 51.3709 65.43 51.9409 65.08C52.5209 64.73 53.1659 64.555 53.8759 64.555C54.4959 64.555 55.0359 64.68 55.4959 64.93C55.9659 65.18 56.3409 65.495 56.6209 65.875V64.69H58.7359V73H56.6209V71.785C56.3509 72.175 55.9759 72.5 55.4959 72.76C55.0259 73.01 54.4809 73.135 53.8609 73.135C53.1609 73.135 52.5209 72.955 51.9409 72.595C51.3709 72.235 50.9159 71.73 50.5759 71.08C50.2459 70.42 50.0809 69.665 50.0809 68.815ZM56.6209 68.845C56.6209 68.335 56.5209 67.9 56.3209 67.54C56.1209 67.17 55.8509 66.89 55.5109 66.7C55.1709 66.5 54.8059 66.4 54.4159 66.4C54.0259 66.4 53.6659 66.495 53.3359 66.685C53.0059 66.875 52.7359 67.155 52.5259 67.525C52.3259 67.885 52.2259 68.315 52.2259 68.815C52.2259 69.315 52.3259 69.755 52.5259 70.135C52.7359 70.505 53.0059 70.79 53.3359 70.99C53.6759 71.19 54.0359 71.29 54.4159 71.29C54.8059 71.29 55.1709 71.195 55.5109 71.005C55.8509 70.805 56.1209 70.525 56.3209 70.165C56.5209 69.795 56.6209 69.355 56.6209 68.845ZM62.887 61.9V73H60.787V61.9H62.887ZM67.0618 61.9V73H64.9618V61.9H67.0618ZM77.0866 64.69L71.9416 76.93H69.7066L71.5066 72.79L68.1766 64.69H70.5316L72.6766 70.495L74.8516 64.69H77.0866ZM85.6028 66.415H84.1478V73H82.0178V66.415H81.0728V64.69H82.0178V64.27C82.0178 63.25 82.3078 62.5 82.8878 62.02C83.4678 61.54 84.3428 61.315 85.5128 61.345V63.115C85.0028 63.105 84.6478 63.19 84.4478 63.37C84.2478 63.55 84.1478 63.875 84.1478 64.345V64.69H85.6028V66.415ZM90.6537 73.135C89.8537 73.135 89.1337 72.96 88.4937 72.61C87.8537 72.25 87.3487 71.745 86.9787 71.095C86.6187 70.445 86.4387 69.695 86.4387 68.845C86.4387 67.995 86.6237 67.245 86.9937 66.595C87.3737 65.945 87.8887 65.445 88.5387 65.095C89.1887 64.735 89.9137 64.555 90.7137 64.555C91.5137 64.555 92.2387 64.735 92.8887 65.095C93.5387 65.445 94.0487 65.945 94.4187 66.595C94.7987 67.245 94.9887 67.995 94.9887 68.845C94.9887 69.695 94.7937 70.445 94.4037 71.095C94.0237 71.745 93.5037 72.25 92.8437 72.61C92.1937 72.96 91.4637 73.135 90.6537 73.135ZM90.6537 71.305C91.0337 71.305 91.3887 71.215 91.7187 71.035C92.0587 70.845 92.3287 70.565 92.5287 70.195C92.7287 69.825 92.8287 69.375 92.8287 68.845C92.8287 68.055 92.6187 67.45 92.1987 67.03C91.7887 66.6 91.2837 66.385 90.6837 66.385C90.0837 66.385 89.5787 66.6 89.1687 67.03C88.7687 67.45 88.5687 68.055 88.5687 68.845C88.5687 69.635 88.7637 70.245 89.1537 70.675C89.5537 71.095 90.0537 71.305 90.6537 71.305ZM98.6291 65.98C98.8991 65.54 99.2491 65.195 99.6791 64.945C100.119 64.695 100.619 64.57 101.179 64.57V66.775H100.624C99.9641 66.775 99.4641 66.93 99.1241 67.24C98.7941 67.55 98.6291 68.09 98.6291 68.86V73H96.5291V64.69H98.6291V65.98ZM114.118 64.69L108.973 76.93H106.738L108.538 72.79L105.208 64.69H107.563L109.708 70.495L111.883 64.69H114.118ZM118.94 73.135C118.14 73.135 117.42 72.96 116.78 72.61C116.14 72.25 115.635 71.745 115.265 71.095C114.905 70.445 114.725 69.695 114.725 68.845C114.725 67.995 114.91 67.245 115.28 66.595C115.66 65.945 116.175 65.445 116.825 65.095C117.475 64.735 118.2 64.555 119 64.555C119.8 64.555 120.525 64.735 121.175 65.095C121.825 65.445 122.335 65.945 122.705 66.595C123.085 67.245 123.275 67.995 123.275 68.845C123.275 69.695 123.08 70.445 122.69 71.095C122.31 71.745 121.79 72.25 121.13 72.61C120.48 72.96 119.75 73.135 118.94 73.135ZM118.94 71.305C119.32 71.305 119.675 71.215 120.005 71.035C120.345 70.845 120.615 70.565 120.815 70.195C121.015 69.825 121.115 69.375 121.115 68.845C121.115 68.055 120.905 67.45 120.485 67.03C120.075 66.6 119.57 66.385 118.97 66.385C118.37 66.385 117.865 66.6 117.455 67.03C117.055 67.45 116.855 68.055 116.855 68.845C116.855 69.635 117.05 70.245 117.44 70.675C117.84 71.095 118.34 71.305 118.94 71.305ZM132.66 64.69V73H130.545V71.95C130.275 72.31 129.92 72.595 129.48 72.805C129.05 73.005 128.58 73.105 128.07 73.105C127.42 73.105 126.845 72.97 126.345 72.7C125.845 72.42 125.45 72.015 125.16 71.485C124.88 70.945 124.74 70.305 124.74 69.565V64.69H126.84V69.265C126.84 69.925 127.005 70.435 127.335 70.795C127.665 71.145 128.115 71.32 128.685 71.32C129.265 71.32 129.72 71.145 130.05 70.795C130.38 70.435 130.545 69.925 130.545 69.265V64.69H132.66ZM137.447 62.35L137.207 69.595H135.437L135.182 62.35H137.447ZM136.367 73.105C135.987 73.105 135.672 72.99 135.422 72.76C135.182 72.52 135.062 72.225 135.062 71.875C135.062 71.525 135.182 71.235 135.422 71.005C135.672 70.765 135.987 70.645 136.367 70.645C136.737 70.645 137.042 70.765 137.282 71.005C137.522 71.235 137.642 71.525 137.642 71.875C137.642 72.225 137.522 72.52 137.282 72.76C137.042 72.99 136.737 73.105 136.367 73.105Z" fill="white"/>
<rect y="64" width="139" height="9" fill="#FFC340" style="mix-blend-mode:overlay"/>
</svg>
