<svg width="122" height="142" viewBox="0 0 122 142" fill="none" xmlns="http://www.w3.org/2000/svg">
<path d="M1.68 4.03V11H0.77V4.03H1.68ZM5.90094 5.42C6.5676 5.42 7.1076 5.62333 7.52094 6.03C7.93427 6.43 8.14094 7.01 8.14094 7.77V11H7.24094V7.9C7.24094 7.35333 7.10427 6.93667 6.83094 6.65C6.5576 6.35667 6.18427 6.21 5.71094 6.21C5.23094 6.21 4.8476 6.36 4.56094 6.66C4.28094 6.96 4.14094 7.39667 4.14094 7.97V11H3.23094V5.52H4.14094V6.3C4.32094 6.02 4.56427 5.80333 4.87094 5.65C5.18427 5.49667 5.5276 5.42 5.90094 5.42ZM11.5674 11.09C11.1474 11.09 10.7708 11.02 10.4374 10.88C10.1041 10.7333 9.84076 10.5333 9.64742 10.28C9.45409 10.02 9.34742 9.72333 9.32742 9.39H10.2674C10.2941 9.66333 10.4208 9.88667 10.6474 10.06C10.8808 10.2333 11.1841 10.32 11.5574 10.32C11.9041 10.32 12.1774 10.2433 12.3774 10.09C12.5774 9.93667 12.6774 9.74333 12.6774 9.51C12.6774 9.27 12.5708 9.09333 12.3574 8.98C12.1441 8.86 11.8141 8.74333 11.3674 8.63C10.9608 8.52333 10.6274 8.41667 10.3674 8.31C10.1141 8.19667 9.89409 8.03333 9.70742 7.82C9.52742 7.6 9.43742 7.31333 9.43742 6.96C9.43742 6.68 9.52076 6.42333 9.68742 6.19C9.85409 5.95667 10.0908 5.77333 10.3974 5.64C10.7041 5.5 11.0541 5.43 11.4474 5.43C12.0541 5.43 12.5441 5.58333 12.9174 5.89C13.2908 6.19667 13.4908 6.61667 13.5174 7.15H12.6074C12.5874 6.86333 12.4708 6.63333 12.2574 6.46C12.0508 6.28667 11.7708 6.2 11.4174 6.2C11.0908 6.2 10.8308 6.27 10.6374 6.41C10.4441 6.55 10.3474 6.73333 10.3474 6.96C10.3474 7.14 10.4041 7.29 10.5174 7.41C10.6374 7.52333 10.7841 7.61667 10.9574 7.69C11.1374 7.75667 11.3841 7.83333 11.6974 7.92C12.0908 8.02667 12.4108 8.13333 12.6574 8.24C12.9041 8.34 13.1141 8.49333 13.2874 8.7C13.4674 8.90667 13.5608 9.17667 13.5674 9.51C13.5674 9.81 13.4841 10.08 13.3174 10.32C13.1508 10.56 12.9141 10.75 12.6074 10.89C12.3074 11.0233 11.9608 11.09 11.5674 11.09ZM15.962 6.27V9.5C15.962 9.76667 16.0187 9.95667 16.132 10.07C16.2454 10.1767 16.442 10.23 16.722 10.23H17.392V11H16.572C16.0654 11 15.6854 10.8833 15.432 10.65C15.1787 10.4167 15.052 10.0333 15.052 9.5V6.27H14.342V5.52H15.052V4.14H15.962V5.52H17.392V6.27H15.962ZM18.1546 8.24C18.1546 7.68 18.2679 7.19 18.4946 6.77C18.7213 6.34333 19.0313 6.01333 19.4246 5.78C19.8246 5.54667 20.2679 5.43 20.7546 5.43C21.2346 5.43 21.6513 5.53333 22.0046 5.74C22.3579 5.94667 22.6213 6.20667 22.7946 6.52V5.52H23.7146V11H22.7946V9.98C22.6146 10.3 22.3446 10.5667 21.9846 10.78C21.6313 10.9867 21.2179 11.09 20.7446 11.09C20.2579 11.09 19.8179 10.97 19.4246 10.73C19.0313 10.49 18.7213 10.1533 18.4946 9.72C18.2679 9.28667 18.1546 8.79333 18.1546 8.24ZM22.7946 8.25C22.7946 7.83667 22.7113 7.47667 22.5446 7.17C22.3779 6.86333 22.1513 6.63 21.8646 6.47C21.5846 6.30333 21.2746 6.22 20.9346 6.22C20.5946 6.22 20.2846 6.3 20.0046 6.46C19.7246 6.62 19.5013 6.85333 19.3346 7.16C19.1679 7.46667 19.0846 7.82667 19.0846 8.24C19.0846 8.66 19.1679 9.02667 19.3346 9.34C19.5013 9.64667 19.7246 9.88333 20.0046 10.05C20.2846 10.21 20.5946 10.29 20.9346 10.29C21.2746 10.29 21.5846 10.21 21.8646 10.05C22.1513 9.88333 22.3779 9.64667 22.5446 9.34C22.7113 9.02667 22.7946 8.66333 22.7946 8.25ZM27.9224 5.42C28.5891 5.42 29.1291 5.62333 29.5424 6.03C29.9558 6.43 30.1624 7.01 30.1624 7.77V11H29.2624V7.9C29.2624 7.35333 29.1258 6.93667 28.8524 6.65C28.5791 6.35667 28.2058 6.21 27.7324 6.21C27.2524 6.21 26.8691 6.36 26.5824 6.66C26.3024 6.96 26.1624 7.39667 26.1624 7.97V11H25.2524V5.52H26.1624V6.3C26.3424 6.02 26.5858 5.80333 26.8924 5.65C27.2058 5.49667 27.5491 5.42 27.9224 5.42ZM32.7589 6.27V9.5C32.7589 9.76667 32.8156 9.95667 32.9289 10.07C33.0422 10.1767 33.2389 10.23 33.5189 10.23H34.1889V11H33.3689C32.8622 11 32.4822 10.8833 32.2289 10.65C31.9756 10.4167 31.8489 10.0333 31.8489 9.5V6.27H31.1389V5.52H31.8489V4.14H32.7589V5.52H34.1889V6.27H32.7589ZM36.2015 3.6V11H35.2915V3.6H36.2015ZM42.4724 5.52L39.1724 13.58H38.2324L39.3124 10.94L37.1024 5.52H38.1124L39.8324 9.96L41.5324 5.52H42.4724ZM43.6772 11.06C43.5039 11.06 43.3572 11 43.2372 10.88C43.1172 10.76 43.0572 10.6133 43.0572 10.44C43.0572 10.2667 43.1172 10.12 43.2372 10C43.3572 9.88 43.5039 9.82 43.6772 9.82C43.8439 9.82 43.9839 9.88 44.0972 10C44.2172 10.12 44.2772 10.2667 44.2772 10.44C44.2772 10.6133 44.2172 10.76 44.0972 10.88C43.9839 11 43.8439 11.06 43.6772 11.06ZM45.7768 11.06C45.6035 11.06 45.4568 11 45.3368 10.88C45.2168 10.76 45.1568 10.6133 45.1568 10.44C45.1568 10.2667 45.2168 10.12 45.3368 10C45.4568 9.88 45.6035 9.82 45.7768 9.82C45.9435 9.82 46.0835 9.88 46.1968 10C46.3168 10.12 46.3768 10.2667 46.3768 10.44C46.3768 10.6133 46.3168 10.76 46.1968 10.88C46.0835 11 45.9435 11.06 45.7768 11.06ZM4.88281 29H1.13281L0.820312 28.9922C0.601562 28.9922 0.492188 28.8958 0.492188 28.7031C0.492188 28.5833 0.544271 28.4896 0.648438 28.4219C0.919271 28.2812 1.08073 28.0547 1.13281 27.7422V19.6562C1.08073 19.3438 0.919271 19.1172 0.648438 18.9766C0.544271 18.9089 0.492188 18.8151 0.492188 18.6953C0.492188 18.5026 0.598958 18.4062 0.8125 18.4062C1.02604 18.401 2.01823 18.3984 3.78906 18.3984V18.4062H4.98438C5.88021 18.4062 6.66406 18.5573 7.33594 18.8594C8.01302 19.1562 8.57552 19.5573 9.02344 20.0625C9.47135 20.5625 9.80469 21.1224 10.0234 21.7422C10.2474 22.362 10.3594 23 10.3594 23.6562V24.1953C10.3594 24.5339 10.2448 25.0182 10.0156 25.6484C9.78646 26.2734 9.44271 26.8385 8.98438 27.3438C8.53125 27.849 7.96094 28.2526 7.27344 28.5547C6.59115 28.8516 5.79427 29 4.88281 29ZM4.69531 28.5703C5.16927 28.5703 5.59115 28.4323 5.96094 28.1562C6.67448 27.6146 7.18229 26.7266 7.48438 25.4922C7.63542 24.862 7.71094 24.1927 7.71094 23.4844C7.71094 22.2604 7.47396 21.2161 7 20.3516C6.44271 19.3359 5.63802 18.8281 4.58594 18.8281H3.78906V28.5703H4.69531ZM12.7344 29L11.0859 28.9922C10.8724 28.9922 10.7656 28.8958 10.7656 28.7031C10.7656 28.5781 10.8177 28.4844 10.9219 28.4219C11.0521 28.3542 11.1562 28.2708 11.2344 28.1719C11.3125 28.0677 11.3698 27.9245 11.4062 27.7422V23.3906C11.4062 22.9583 11.3672 22.6536 11.2891 22.4766C11.2109 22.2995 11.0859 22.1641 10.9141 22.0703C10.8151 22.0078 10.7656 21.9115 10.7656 21.7812C10.7656 21.5938 10.8646 21.5 11.0625 21.5C11.9062 21.5 12.7474 21.3672 13.5859 21.1016C13.6276 21.0859 13.6719 21.0781 13.7188 21.0781C13.8438 21.0781 13.9323 21.112 13.9844 21.1797C14.0365 21.2422 14.0625 21.3672 14.0625 21.5547V21.9453C14.474 21.237 15.1667 20.8828 16.1406 20.8828C16.5104 20.8828 16.8021 20.9609 17.0156 21.1172C17.3281 21.3568 17.4844 21.6693 17.4844 22.0547C17.4844 22.1693 17.4583 22.3125 17.4062 22.4844C17.3542 22.6562 17.2318 22.8229 17.0391 22.9844C16.8516 23.1406 16.612 23.2188 16.3203 23.2188C15.9349 23.2188 15.6667 23.0417 15.5156 22.6875C15.4271 22.474 15.3281 22.3047 15.2188 22.1797C15.1146 22.0495 14.9844 21.9844 14.8281 21.9844C14.6198 21.9844 14.4557 22.1068 14.3359 22.3516C14.2161 22.5911 14.1406 22.8229 14.1094 23.0469C14.0781 23.2656 14.0625 23.5026 14.0625 23.7578V27.7422C14.099 27.9245 14.1562 28.0677 14.2344 28.1719C14.3125 28.2708 14.4167 28.3542 14.5469 28.4219C14.6562 28.4844 14.7109 28.5833 14.7109 28.7188C14.7109 28.901 14.6016 28.9922 14.3828 28.9922L12.7344 29ZM19.0781 29C18.75 29 18.4661 28.9062 18.2266 28.7188C17.9922 28.526 17.875 28.237 17.875 27.8516C17.875 27.4661 17.9922 27.1771 18.2266 26.9844C18.4661 26.7917 18.75 26.6953 19.0781 26.6953C19.4115 26.6953 19.6953 26.7995 19.9297 27.0078C20.1641 27.2109 20.2812 27.4922 20.2812 27.8516C20.2812 28.2109 20.1641 28.4922 19.9297 28.6953C19.6953 28.8984 19.4115 29 19.0781 29ZM31.2266 29H28.5703L28.25 28.9922C28.0312 28.9922 27.9219 28.901 27.9219 28.7188C27.9219 28.5833 27.9766 28.4844 28.0859 28.4219C28.3464 28.2812 28.5078 28.0547 28.5703 27.7422V23.9141H24.4609V27.7422C24.4974 27.9245 24.5547 28.0677 24.6328 28.1719C24.7109 28.2708 24.8151 28.3542 24.9453 28.4219C25.0495 28.4844 25.1016 28.5781 25.1016 28.7031C25.1016 28.8958 24.9948 28.9922 24.7812 28.9922L23.1328 29L21.4844 28.9922C21.2656 28.9922 21.1562 28.901 21.1562 28.7188C21.1562 28.5833 21.2109 28.4844 21.3203 28.4219C21.4505 28.3542 21.5547 28.2708 21.6328 28.1719C21.7109 28.0677 21.7682 27.9245 21.8047 27.7422V19.6562C21.7682 19.474 21.7109 19.3333 21.6328 19.2344C21.5547 19.1302 21.4505 19.0443 21.3203 18.9766C21.2109 18.9141 21.1562 18.8151 21.1562 18.6797C21.1562 18.4974 21.2656 18.4062 21.4844 18.4062L23.1328 18.3984L24.7812 18.4062C24.9948 18.4062 25.1016 18.5026 25.1016 18.6953C25.1016 18.8203 25.0495 18.9141 24.9453 18.9766C24.8151 19.0443 24.7109 19.1302 24.6328 19.2344C24.5547 19.3333 24.4974 19.474 24.4609 19.6562V23.4844H28.5703V19.6562C28.5078 19.3438 28.3464 19.1172 28.0859 18.9766C27.9766 18.9141 27.9219 18.8151 27.9219 18.6797C27.9219 18.4974 28.0312 18.4062 28.25 18.4062L28.5703 18.3984C30.3411 18.3984 31.3333 18.401 31.5469 18.4062C31.7604 18.4062 31.8672 18.5026 31.8672 18.6953C31.8672 18.8151 31.8151 18.9089 31.7109 18.9766C31.4401 19.1172 31.2786 19.3438 31.2266 19.6562V27.7422C31.2786 28.0547 31.4401 28.2812 31.7109 28.4219C31.8151 28.4896 31.8672 28.5833 31.8672 28.7031C31.8672 28.8958 31.7578 28.9922 31.5391 28.9922L31.2266 29ZM36.1641 29.2109C35.4609 29.2109 34.8151 29.0651 34.2266 28.7734C33.638 28.4818 33.151 28.0339 32.7656 27.4297C32.3385 26.7057 32.125 25.9323 32.125 25.1094C32.125 24.9948 32.1302 24.8776 32.1406 24.7578C32.2396 23.5755 32.6693 22.6302 33.4297 21.9219C34.1953 21.2135 35.1693 20.8594 36.3516 20.8594C37.0339 20.8594 37.6094 20.9714 38.0781 21.1953C38.5469 21.4141 38.9115 21.6979 39.1719 22.0469C39.474 22.4583 39.625 22.9115 39.625 23.4062C39.625 23.7292 39.5443 24.0599 39.3828 24.3984C39.2214 24.737 38.9401 25.0417 38.5391 25.3125C38.138 25.5781 37.6224 25.7526 36.9922 25.8359C36.7839 25.8672 36.5651 25.8828 36.3359 25.8828C35.862 25.8828 35.3385 25.8203 34.7656 25.6953C34.8698 26.0651 35.026 26.3984 35.2344 26.6953C35.4479 26.987 35.7214 27.2214 36.0547 27.3984C36.388 27.5703 36.7839 27.6562 37.2422 27.6562C37.9193 27.6562 38.5521 27.4688 39.1406 27.0938C39.1979 27.0573 39.2552 27.0391 39.3125 27.0391C39.3542 27.0391 39.3932 27.0521 39.4297 27.0781C39.4922 27.125 39.5234 27.1875 39.5234 27.2656C39.5234 27.3021 39.513 27.3385 39.4922 27.375C39.112 27.9427 38.6302 28.3906 38.0469 28.7188C37.4688 29.0469 36.8411 29.2109 36.1641 29.2109ZM34.6562 25.2109C35.7188 25.2109 36.4922 24.8906 36.9766 24.25C37.2839 23.8073 37.4375 23.2786 37.4375 22.6641C37.4375 21.8099 37.0938 21.3672 36.4062 21.3359C35.974 21.3516 35.6068 21.5547 35.3047 21.9453C35.0078 22.3359 34.8125 22.7578 34.7188 23.2109C34.6302 23.6589 34.5859 24.0443 34.5859 24.3672C34.5859 24.6484 34.6094 24.9297 34.6562 25.2109ZM43.3594 27.7109C43.8646 27.7109 44.2812 27.3333 44.6094 26.5781C44.6094 25.5208 44.612 24.737 44.6172 24.2266C44.3984 24.3932 44.1589 24.5234 43.8984 24.6172C43.4661 24.7995 43.1458 25.0573 42.9375 25.3906C42.6927 25.7708 42.5703 26.1615 42.5703 26.5625C42.5703 26.8542 42.6354 27.1198 42.7656 27.3594C42.8958 27.5938 43.0938 27.7109 43.3594 27.7109ZM46.1406 29C45.875 29 45.6276 28.9531 45.3984 28.8594C45.1693 28.7656 44.9818 28.6172 44.8359 28.4141C44.6953 28.2057 44.6198 27.9323 44.6094 27.5938C44.0469 28.5312 43.2474 29 42.2109 29C41.7734 29 41.388 28.9036 41.0547 28.7109C40.7266 28.5182 40.4688 28.2656 40.2812 27.9531C40.099 27.6406 40.0078 27.3021 40.0078 26.9375C40.0078 26.4219 40.1198 26.0182 40.3438 25.7266C40.5729 25.4297 40.8724 25.1979 41.2422 25.0312C41.612 24.8646 42.0156 24.724 42.4531 24.6094C43.276 24.4167 43.8594 24.2135 44.2031 24C44.4115 23.875 44.5495 23.7318 44.6172 23.5703C44.6224 23.3099 44.625 23.0417 44.625 22.7656C44.625 22.5677 44.599 22.3724 44.5469 22.1797C44.4948 21.987 44.3958 21.8255 44.25 21.6953C44.1094 21.5651 43.9115 21.5 43.6562 21.5C43.4219 21.5 43.2292 21.5625 43.0781 21.6875C42.9323 21.8125 42.8229 21.9766 42.75 22.1797C42.6823 22.3776 42.6484 22.5911 42.6484 22.8203C42.6484 23.1693 42.5521 23.4271 42.3594 23.5938C42.1719 23.7604 41.9557 23.8438 41.7109 23.8438C41.4505 23.8438 41.2266 23.763 41.0391 23.6016C40.8516 23.4349 40.7578 23.1849 40.7578 22.8516C40.7578 22.5651 40.8698 22.2865 41.0938 22.0156C41.3229 21.7448 41.6562 21.5208 42.0938 21.3438C42.5312 21.1667 43.0677 21.0781 43.7031 21.0781C44.651 21.0781 45.4609 21.3151 46.1328 21.7891C46.888 22.3307 47.2656 23.0859 47.2656 24.0547V27.4297C47.2656 27.6328 47.3047 27.7734 47.3828 27.8516C47.4609 27.9245 47.5755 27.9844 47.7266 28.0312C47.8307 28.0729 47.8828 28.151 47.8828 28.2656C47.8828 28.4896 47.6172 28.6849 47.0859 28.8516C46.7839 28.9505 46.4688 29 46.1406 29ZM50.4062 29L48.7578 28.9922C48.5391 28.9922 48.4297 28.901 48.4297 28.7188C48.4297 28.5833 48.4844 28.4844 48.5938 28.4219C48.8542 28.2812 49.0156 28.0547 49.0781 27.7422V20.7109C49.0781 20.2786 49.0365 19.974 48.9531 19.7969C48.875 19.6198 48.75 19.4844 48.5781 19.3906C48.4792 19.3229 48.4297 19.2292 48.4297 19.1094C48.4297 18.9167 48.5312 18.8203 48.7344 18.8203C49.5469 18.8203 50.4089 18.6823 51.3203 18.4062L51.3906 18.3984C51.5104 18.3984 51.5964 18.4323 51.6484 18.5C51.7057 18.5625 51.7344 18.6875 51.7344 18.875V27.7422C51.7865 28.0547 51.9479 28.2812 52.2188 28.4219C52.3229 28.4896 52.375 28.5833 52.375 28.7031C52.375 28.8958 52.2656 28.9922 52.0469 28.9922L50.4062 29ZM55.2188 20.7031C54.9375 20.7031 54.6797 20.6615 54.4453 20.5781C54.2161 20.4896 54.0312 20.362 53.8906 20.1953C53.7552 20.0234 53.6875 19.8099 53.6875 19.5547C53.6875 19.2943 53.7552 19.0807 53.8906 18.9141C54.0312 18.7422 54.2161 18.6146 54.4453 18.5312C54.6797 18.4427 54.9375 18.3984 55.2188 18.3984C55.6406 18.3984 56 18.5026 56.2969 18.7109C56.599 18.9141 56.75 19.1953 56.75 19.5547C56.75 19.9141 56.599 20.1953 56.2969 20.3984C56 20.6016 55.6406 20.7031 55.2188 20.7031ZM55.2188 29L53.5703 28.9922C53.3568 28.9922 53.25 28.8958 53.25 28.7031C53.25 28.5781 53.3021 28.4844 53.4062 28.4219C53.5365 28.3542 53.6406 28.2708 53.7188 28.1719C53.7969 28.0677 53.8542 27.9245 53.8906 27.7422V23.3906C53.8906 22.9583 53.8516 22.6536 53.7734 22.4766C53.6953 22.2995 53.5703 22.1641 53.3984 22.0703C53.2995 22.0078 53.25 21.9115 53.25 21.7812C53.25 21.5938 53.3516 21.5 53.5547 21.5C54.3932 21.5 55.2318 21.3672 56.0703 21.1016C56.112 21.0859 56.1562 21.0781 56.2031 21.0781C56.3281 21.0781 56.4167 21.112 56.4688 21.1797C56.5208 21.2422 56.5469 21.3672 56.5469 21.5547V27.7422C56.5833 27.9245 56.6406 28.0677 56.7188 28.1719C56.7969 28.2708 56.901 28.3542 57.0312 28.4219C57.1406 28.4844 57.1953 28.5833 57.1953 28.7188C57.1953 28.901 57.0859 28.9922 56.8672 28.9922L55.2188 29ZM65.9453 29H62.5703C62.4557 29 62.3724 28.9609 62.3203 28.8828C62.2682 28.7995 62.2422 28.7188 62.2422 28.6406C62.2422 28.6302 62.2448 28.599 62.25 28.5469C62.2604 28.4896 62.3125 28.4531 62.4062 28.4375C62.5833 28.4323 62.6719 28.375 62.6719 28.2656C62.6719 28.1615 62.5938 28.013 62.4375 27.8203L61.2109 26.1328L59.3906 28.2422C59.3177 28.3255 59.2812 28.3906 59.2812 28.4375C59.2812 28.526 59.3906 28.5703 59.6094 28.5703C59.7812 28.5703 59.8672 28.6432 59.8672 28.7891C59.8672 28.9297 59.7812 29 59.6094 29H57.8516C57.6953 29 57.6172 28.9297 57.6172 28.7891C57.6172 28.6432 57.6979 28.5703 57.8594 28.5703C58.0677 28.5703 58.2552 28.5312 58.4219 28.4531C58.5885 28.375 58.7839 28.2057 59.0078 27.9453L60.9141 25.7344L58.5 22.4141C58.3385 22.1849 58.1953 22.0234 58.0703 21.9297C57.9505 21.8359 57.7969 21.776 57.6094 21.75C57.4583 21.7135 57.3464 21.6432 57.2734 21.5391C57.2161 21.4609 57.1875 21.3854 57.1875 21.3125C57.1875 21.2812 57.1979 21.2344 57.2188 21.1719C57.2396 21.1094 57.3411 21.0781 57.5234 21.0781H60.8984C61.013 21.0781 61.099 21.1224 61.1562 21.2109C61.2031 21.2786 61.2266 21.349 61.2266 21.4219C61.2266 21.4375 61.2214 21.474 61.2109 21.5312C61.2057 21.5833 61.1536 21.6172 61.0547 21.6328C60.8828 21.638 60.7969 21.6953 60.7969 21.8047C60.7969 21.9089 60.8724 22.0573 61.0234 22.25L62.2578 23.9375L64.0781 21.8281C64.1458 21.7552 64.1797 21.6823 64.1797 21.6094C64.1797 21.5365 64.0729 21.5 63.8594 21.5C63.6875 21.5 63.6016 21.4297 63.6016 21.2891C63.6016 21.1484 63.6849 21.0781 63.8516 21.0781H65.6094C65.7708 21.0781 65.8516 21.1484 65.8516 21.2891C65.8516 21.4297 65.7682 21.5 65.6016 21.5C65.3984 21.5 65.2109 21.5443 65.0391 21.6328C64.8672 21.7161 64.6719 21.8828 64.4531 22.1328L62.5469 24.3438L64.9609 27.6562C65.1276 27.8906 65.2708 28.0547 65.3906 28.1484C65.5104 28.237 65.6641 28.2969 65.8516 28.3281C66.0026 28.3594 66.1172 28.4297 66.1953 28.5391C66.2474 28.612 66.2734 28.6849 66.2734 28.7578C66.2734 28.7839 66.263 28.8307 66.2422 28.8984C66.2214 28.9661 66.1224 29 65.9453 29ZM73.6498 27.45H70.6098L70.0498 29H69.0898L71.6098 22.07H72.6598L75.1698 29H74.2098L73.6498 27.45ZM73.3898 26.71L72.1298 23.19L70.8698 26.71H73.3898ZM78.938 23.42C79.6047 23.42 80.1447 23.6233 80.558 24.03C80.9714 24.43 81.178 25.01 81.178 25.77V29H80.278V25.9C80.278 25.3533 80.1414 24.9367 79.868 24.65C79.5947 24.3567 79.2214 24.21 78.748 24.21C78.268 24.21 77.8847 24.36 77.598 24.66C77.318 24.96 77.178 25.3967 77.178 25.97V29H76.268V23.52H77.178V24.3C77.358 24.02 77.6014 23.8033 77.908 23.65C78.2214 23.4967 78.5647 23.42 78.938 23.42ZM82.3245 26.24C82.3245 25.68 82.4379 25.19 82.6645 24.77C82.8912 24.3433 83.2012 24.0133 83.5945 23.78C83.9945 23.5467 84.4379 23.43 84.9245 23.43C85.4045 23.43 85.8212 23.5333 86.1745 23.74C86.5279 23.9467 86.7912 24.2067 86.9645 24.52V23.52H87.8845V29H86.9645V27.98C86.7845 28.3 86.5145 28.5667 86.1545 28.78C85.8012 28.9867 85.3879 29.09 84.9145 29.09C84.4279 29.09 83.9879 28.97 83.5945 28.73C83.2012 28.49 82.8912 28.1533 82.6645 27.72C82.4379 27.2867 82.3245 26.7933 82.3245 26.24ZM86.9645 26.25C86.9645 25.8367 86.8812 25.4767 86.7145 25.17C86.5479 24.8633 86.3212 24.63 86.0345 24.47C85.7545 24.3033 85.4445 24.22 85.1045 24.22C84.7645 24.22 84.4545 24.3 84.1745 24.46C83.8945 24.62 83.6712 24.8533 83.5045 25.16C83.3379 25.4667 83.2545 25.8267 83.2545 26.24C83.2545 26.66 83.3379 27.0267 83.5045 27.34C83.6712 27.6467 83.8945 27.8833 84.1745 28.05C84.4545 28.21 84.7645 28.29 85.1045 28.29C85.4445 28.29 85.7545 28.21 86.0345 28.05C86.3212 27.8833 86.5479 27.6467 86.7145 27.34C86.8812 27.0267 86.9645 26.6633 86.9645 26.25ZM90.3323 21.6V29H89.4223V21.6H90.3323ZM96.6033 23.52L93.3033 31.58H92.3633L93.4433 28.94L91.2333 23.52H92.2433L93.9633 27.96L95.6633 23.52H96.6033ZM98.198 28.25H100.888V29H97.158V28.25L99.818 24.26H97.178V23.52H100.868V24.26L98.198 28.25ZM107.069 26.05C107.069 26.2233 107.059 26.4067 107.039 26.6H102.659C102.692 27.14 102.875 27.5633 103.209 27.87C103.549 28.17 103.959 28.32 104.439 28.32C104.832 28.32 105.159 28.23 105.419 28.05C105.685 27.8633 105.872 27.6167 105.979 27.31H106.959C106.812 27.8367 106.519 28.2667 106.079 28.6C105.639 28.9267 105.092 29.09 104.439 29.09C103.919 29.09 103.452 28.9733 103.039 28.74C102.632 28.5067 102.312 28.1767 102.079 27.75C101.845 27.3167 101.729 26.8167 101.729 26.25C101.729 25.6833 101.842 25.1867 102.069 24.76C102.295 24.3333 102.612 24.0067 103.019 23.78C103.432 23.5467 103.905 23.43 104.439 23.43C104.959 23.43 105.419 23.5433 105.819 23.77C106.219 23.9967 106.525 24.31 106.739 24.71C106.959 25.1033 107.069 25.55 107.069 26.05ZM106.129 25.86C106.129 25.5133 106.052 25.2167 105.899 24.97C105.745 24.7167 105.535 24.5267 105.269 24.4C105.009 24.2667 104.719 24.2 104.399 24.2C103.939 24.2 103.545 24.3467 103.219 24.64C102.899 24.9333 102.715 25.34 102.669 25.86H106.129ZM110.21 29.09C109.79 29.09 109.413 29.02 109.08 28.88C108.747 28.7333 108.483 28.5333 108.29 28.28C108.097 28.02 107.99 27.7233 107.97 27.39H108.91C108.937 27.6633 109.063 27.8867 109.29 28.06C109.523 28.2333 109.827 28.32 110.2 28.32C110.547 28.32 110.82 28.2433 111.02 28.09C111.22 27.9367 111.32 27.7433 111.32 27.51C111.32 27.27 111.213 27.0933 111 26.98C110.787 26.86 110.457 26.7433 110.01 26.63C109.603 26.5233 109.27 26.4167 109.01 26.31C108.757 26.1967 108.537 26.0333 108.35 25.82C108.17 25.6 108.08 25.3133 108.08 24.96C108.08 24.68 108.163 24.4233 108.33 24.19C108.497 23.9567 108.733 23.7733 109.04 23.64C109.347 23.5 109.697 23.43 110.09 23.43C110.697 23.43 111.187 23.5833 111.56 23.89C111.933 24.1967 112.133 24.6167 112.16 25.15H111.25C111.23 24.8633 111.113 24.6333 110.9 24.46C110.693 24.2867 110.413 24.2 110.06 24.2C109.733 24.2 109.473 24.27 109.28 24.41C109.087 24.55 108.99 24.7333 108.99 24.96C108.99 25.14 109.047 25.29 109.16 25.41C109.28 25.5233 109.427 25.6167 109.6 25.69C109.78 25.7567 110.027 25.8333 110.34 25.92C110.733 26.0267 111.053 26.1333 111.3 26.24C111.547 26.34 111.757 26.4933 111.93 26.7C112.11 26.9067 112.203 27.1767 112.21 27.51C112.21 27.81 112.127 28.08 111.96 28.32C111.793 28.56 111.557 28.75 111.25 28.89C110.95 29.0233 110.603 29.09 110.21 29.09ZM113.785 29.06C113.611 29.06 113.465 29 113.345 28.88C113.225 28.76 113.165 28.6133 113.165 28.44C113.165 28.2667 113.225 28.12 113.345 28C113.465 27.88 113.611 27.82 113.785 27.82C113.951 27.82 114.091 27.88 114.205 28C114.325 28.12 114.385 28.2667 114.385 28.44C114.385 28.6133 114.325 28.76 114.205 28.88C114.091 29 113.951 29.06 113.785 29.06ZM113.785 24.78C113.611 24.78 113.465 24.72 113.345 24.6C113.225 24.48 113.165 24.3333 113.165 24.16C113.165 23.9867 113.225 23.84 113.345 23.72C113.465 23.6 113.611 23.54 113.785 23.54C113.951 23.54 114.091 23.6 114.205 23.72C114.325 23.84 114.385 23.9867 114.385 24.16C114.385 24.3333 114.325 24.48 114.205 24.6C114.091 24.72 113.951 24.78 113.785 24.78ZM8.98734 44.468C8.57934 44.468 8.23134 44.328 7.94334 44.048C7.66334 43.76 7.52334 43.412 7.52334 43.004C7.52334 42.588 7.66334 42.24 7.94334 41.96C8.23134 41.672 8.57934 41.528 8.98734 41.528C9.40334 41.528 9.75534 41.672 10.0433 41.96C10.3313 42.24 10.4753 42.588 10.4753 43.004C10.4753 43.412 10.3313 43.76 10.0433 44.048C9.75534 44.328 9.40334 44.468 8.98734 44.468ZM27.408 38.696V47H26.316V40.808L23.556 47H22.788L20.016 40.796V47H18.924V38.696H20.1L23.172 45.56L26.244 38.696H27.408ZM35.2599 43.46C35.2599 43.668 35.2479 43.888 35.2239 44.12H29.9679C30.0079 44.768 30.2279 45.276 30.6279 45.644C31.0359 46.004 31.5279 46.184 32.1039 46.184C32.5759 46.184 32.9679 46.076 33.2799 45.86C33.5999 45.636 33.8239 45.34 33.9519 44.972H35.1279C34.9519 45.604 34.5999 46.12 34.0719 46.52C33.5439 46.912 32.8879 47.108 32.1039 47.108C31.4799 47.108 30.9199 46.968 30.4239 46.688C29.9359 46.408 29.5519 46.012 29.2719 45.5C28.9919 44.98 28.8519 44.38 28.8519 43.7C28.8519 43.02 28.9879 42.424 29.2599 41.912C29.5319 41.4 29.9119 41.008 30.3999 40.736C30.8959 40.456 31.4639 40.316 32.1039 40.316C32.7279 40.316 33.2799 40.452 33.7599 40.724C34.2399 40.996 34.6079 41.372 34.8639 41.852C35.1279 42.324 35.2599 42.86 35.2599 43.46ZM34.1319 43.232C34.1319 42.816 34.0399 42.46 33.8559 42.164C33.6719 41.86 33.4199 41.632 33.0999 41.48C32.7879 41.32 32.4399 41.24 32.0559 41.24C31.5039 41.24 31.0319 41.416 30.6399 41.768C30.2559 42.12 30.0359 42.608 29.9799 43.232H34.1319ZM36.2933 43.688C36.2933 43.016 36.4293 42.428 36.7013 41.924C36.9733 41.412 37.3453 41.016 37.8173 40.736C38.2973 40.456 38.8333 40.316 39.4253 40.316C39.9373 40.316 40.4133 40.436 40.8533 40.676C41.2933 40.908 41.6293 41.216 41.8613 41.6V38.12H42.9653V47H41.8613V45.764C41.6453 46.156 41.3253 46.48 40.9013 46.736C40.4773 46.984 39.9813 47.108 39.4133 47.108C38.8293 47.108 38.2973 46.964 37.8173 46.676C37.3453 46.388 36.9733 45.984 36.7013 45.464C36.4293 44.944 36.2933 44.352 36.2933 43.688ZM41.8613 43.7C41.8613 43.204 41.7613 42.772 41.5613 42.404C41.3613 42.036 41.0893 41.756 40.7453 41.564C40.4093 41.364 40.0373 41.264 39.6293 41.264C39.2213 41.264 38.8493 41.36 38.5133 41.552C38.1773 41.744 37.9093 42.024 37.7093 42.392C37.5093 42.76 37.4093 43.192 37.4093 43.688C37.4093 44.192 37.5093 44.632 37.7093 45.008C37.9093 45.376 38.1773 45.66 38.5133 45.86C38.8493 46.052 39.2213 46.148 39.6293 46.148C40.0373 46.148 40.4093 46.052 40.7453 45.86C41.0893 45.66 41.3613 45.376 41.5613 45.008C41.7613 44.632 41.8613 44.196 41.8613 43.7ZM45.3747 39.356C45.1667 39.356 44.9907 39.284 44.8467 39.14C44.7027 38.996 44.6307 38.82 44.6307 38.612C44.6307 38.404 44.7027 38.228 44.8467 38.084C44.9907 37.94 45.1667 37.868 45.3747 37.868C45.5747 37.868 45.7427 37.94 45.8787 38.084C46.0227 38.228 46.0947 38.404 46.0947 38.612C46.0947 38.82 46.0227 38.996 45.8787 39.14C45.7427 39.284 45.5747 39.356 45.3747 39.356ZM45.9027 40.424V47H44.8107V40.424H45.9027ZM47.3558 43.7C47.3558 43.02 47.4918 42.428 47.7638 41.924C48.0358 41.412 48.4118 41.016 48.8918 40.736C49.3798 40.456 49.9358 40.316 50.5598 40.316C51.3678 40.316 52.0318 40.512 52.5518 40.904C53.0798 41.296 53.4278 41.84 53.5958 42.536H52.4198C52.3078 42.136 52.0878 41.82 51.7598 41.588C51.4398 41.356 51.0398 41.24 50.5598 41.24C49.9358 41.24 49.4318 41.456 49.0478 41.888C48.6638 42.312 48.4718 42.916 48.4718 43.7C48.4718 44.492 48.6638 45.104 49.0478 45.536C49.4318 45.968 49.9358 46.184 50.5598 46.184C51.0398 46.184 51.4398 46.072 51.7598 45.848C52.0798 45.624 52.2998 45.304 52.4198 44.888H53.5958C53.4198 45.56 53.0678 46.1 52.5398 46.508C52.0118 46.908 51.3518 47.108 50.5598 47.108C49.9358 47.108 49.3798 46.968 48.8918 46.688C48.4118 46.408 48.0358 46.012 47.7638 45.5C47.4918 44.988 47.3558 44.388 47.3558 43.7ZM54.6449 43.688C54.6449 43.016 54.7809 42.428 55.0529 41.924C55.3249 41.412 55.6969 41.016 56.1689 40.736C56.6489 40.456 57.1809 40.316 57.7649 40.316C58.3409 40.316 58.8409 40.44 59.2649 40.688C59.6889 40.936 60.0049 41.248 60.2129 41.624V40.424H61.3169V47H60.2129V45.776C59.9969 46.16 59.6729 46.48 59.2409 46.736C58.8169 46.984 58.3209 47.108 57.7529 47.108C57.1689 47.108 56.6409 46.964 56.1689 46.676C55.6969 46.388 55.3249 45.984 55.0529 45.464C54.7809 44.944 54.6449 44.352 54.6449 43.688ZM60.2129 43.7C60.2129 43.204 60.1129 42.772 59.9129 42.404C59.7129 42.036 59.4409 41.756 59.0969 41.564C58.7609 41.364 58.3889 41.264 57.9809 41.264C57.5729 41.264 57.2009 41.36 56.8649 41.552C56.5289 41.744 56.2609 42.024 56.0609 42.392C55.8609 42.76 55.7609 43.192 55.7609 43.688C55.7609 44.192 55.8609 44.632 56.0609 45.008C56.2609 45.376 56.5289 45.66 56.8649 45.86C57.2009 46.052 57.5729 46.148 57.9809 46.148C58.3889 46.148 58.7609 46.052 59.0969 45.86C59.4409 45.66 59.7129 45.376 59.9129 45.008C60.1129 44.632 60.2129 44.196 60.2129 43.7ZM64.2543 38.12V47H63.1623V38.12H64.2543ZM75.7586 38.636V47H74.6666V43.208H70.4066V47H69.3146V38.636H70.4066V42.308H74.6666V38.636H75.7586ZM78.1872 39.356C77.9792 39.356 77.8032 39.284 77.6592 39.14C77.5152 38.996 77.4432 38.82 77.4432 38.612C77.4432 38.404 77.5152 38.228 77.6592 38.084C77.8032 37.94 77.9792 37.868 78.1872 37.868C78.3872 37.868 78.5552 37.94 78.6912 38.084C78.8352 38.228 78.9072 38.404 78.9072 38.612C78.9072 38.82 78.8352 38.996 78.6912 39.14C78.5552 39.284 78.3872 39.356 78.1872 39.356ZM78.7152 40.424V47H77.6232V40.424H78.7152ZM82.9043 47.108C82.4003 47.108 81.9483 47.024 81.5483 46.856C81.1483 46.68 80.8323 46.44 80.6003 46.136C80.3683 45.824 80.2403 45.468 80.2163 45.068H81.3443C81.3763 45.396 81.5283 45.664 81.8003 45.872C82.0803 46.08 82.4443 46.184 82.8923 46.184C83.3083 46.184 83.6363 46.092 83.8763 45.908C84.1163 45.724 84.2363 45.492 84.2363 45.212C84.2363 44.924 84.1083 44.712 83.8523 44.576C83.5963 44.432 83.2003 44.292 82.6643 44.156C82.1763 44.028 81.7763 43.9 81.4643 43.772C81.1603 43.636 80.8963 43.44 80.6723 43.184C80.4563 42.92 80.3483 42.576 80.3483 42.152C80.3483 41.816 80.4483 41.508 80.6483 41.228C80.8483 40.948 81.1323 40.728 81.5003 40.568C81.8683 40.4 82.2883 40.316 82.7603 40.316C83.4883 40.316 84.0763 40.5 84.5243 40.868C84.9723 41.236 85.2123 41.74 85.2443 42.38H84.1523C84.1283 42.036 83.9883 41.76 83.7323 41.552C83.4843 41.344 83.1483 41.24 82.7243 41.24C82.3323 41.24 82.0203 41.324 81.7883 41.492C81.5563 41.66 81.4403 41.88 81.4403 42.152C81.4403 42.368 81.5083 42.548 81.6443 42.692C81.7883 42.828 81.9643 42.94 82.1723 43.028C82.3883 43.108 82.6843 43.2 83.0603 43.304C83.5323 43.432 83.9163 43.56 84.2123 43.688C84.5083 43.808 84.7603 43.992 84.9683 44.24C85.1843 44.488 85.2963 44.812 85.3043 45.212C85.3043 45.572 85.2043 45.896 85.0043 46.184C84.8043 46.472 84.5203 46.7 84.1523 46.868C83.7923 47.028 83.3763 47.108 82.9043 47.108ZM88.1779 41.324V45.2C88.1779 45.52 88.2459 45.748 88.3819 45.884C88.5179 46.012 88.7539 46.076 89.0899 46.076H89.8939V47H88.9099C88.3019 47 87.8459 46.86 87.5419 46.58C87.2379 46.3 87.0859 45.84 87.0859 45.2V41.324H86.2339V40.424H87.0859V38.768H88.1779V40.424H89.8939V41.324H88.1779ZM94.085 47.108C93.469 47.108 92.909 46.968 92.405 46.688C91.909 46.408 91.517 46.012 91.229 45.5C90.949 44.98 90.809 44.38 90.809 43.7C90.809 43.028 90.953 42.436 91.241 41.924C91.537 41.404 91.937 41.008 92.441 40.736C92.945 40.456 93.509 40.316 94.133 40.316C94.757 40.316 95.321 40.456 95.825 40.736C96.329 41.008 96.725 41.4 97.013 41.912C97.309 42.424 97.457 43.02 97.457 43.7C97.457 44.38 97.305 44.98 97.001 45.5C96.705 46.012 96.301 46.408 95.789 46.688C95.277 46.968 94.709 47.108 94.085 47.108ZM94.085 46.148C94.477 46.148 94.845 46.056 95.189 45.872C95.533 45.688 95.809 45.412 96.017 45.044C96.233 44.676 96.341 44.228 96.341 43.7C96.341 43.172 96.237 42.724 96.029 42.356C95.821 41.988 95.549 41.716 95.213 41.54C94.877 41.356 94.513 41.264 94.121 41.264C93.721 41.264 93.353 41.356 93.017 41.54C92.689 41.716 92.425 41.988 92.225 42.356C92.025 42.724 91.925 43.172 91.925 43.7C91.925 44.236 92.021 44.688 92.213 45.056C92.413 45.424 92.677 45.7 93.005 45.884C93.333 46.06 93.693 46.148 94.085 46.148ZM99.9848 41.492C100.177 41.116 100.449 40.824 100.801 40.616C101.161 40.408 101.597 40.304 102.109 40.304V41.432H101.821C100.597 41.432 99.9848 42.096 99.9848 43.424V47H98.8928V40.424H99.9848V41.492ZM109.033 40.424L105.073 50.096H103.945L105.241 46.928L102.589 40.424H103.801L105.865 45.752L107.905 40.424H109.033ZM8.98734 62.468C8.57934 62.468 8.23134 62.328 7.94334 62.048C7.66334 61.76 7.52334 61.412 7.52334 61.004C7.52334 60.588 7.66334 60.24 7.94334 59.96C8.23134 59.672 8.57934 59.528 8.98734 59.528C9.40334 59.528 9.75534 59.672 10.0433 59.96C10.3313 60.24 10.4753 60.588 10.4753 61.004C10.4753 61.412 10.3313 61.76 10.0433 62.048C9.75534 62.328 9.40334 62.468 8.98734 62.468ZM18.516 60.812C18.516 59.996 18.7 59.264 19.068 58.616C19.436 57.96 19.936 57.448 20.568 57.08C21.208 56.712 21.916 56.528 22.692 56.528C23.604 56.528 24.4 56.748 25.08 57.188C25.76 57.628 26.256 58.252 26.568 59.06H25.26C25.028 58.556 24.692 58.168 24.252 57.896C23.82 57.624 23.3 57.488 22.692 57.488C22.108 57.488 21.584 57.624 21.12 57.896C20.656 58.168 20.292 58.556 20.028 59.06C19.764 59.556 19.632 60.14 19.632 60.812C19.632 61.476 19.764 62.06 20.028 62.564C20.292 63.06 20.656 63.444 21.12 63.716C21.584 63.988 22.108 64.124 22.692 64.124C23.3 64.124 23.82 63.992 24.252 63.728C24.692 63.456 25.028 63.068 25.26 62.564H26.568C26.256 63.364 25.76 63.984 25.08 64.424C24.4 64.856 23.604 65.072 22.692 65.072C21.916 65.072 21.208 64.892 20.568 64.532C19.936 64.164 19.436 63.656 19.068 63.008C18.7 62.36 18.516 61.628 18.516 60.812ZM31.4575 58.304C31.9535 58.304 32.4015 58.412 32.8015 58.628C33.2015 58.836 33.5135 59.152 33.7375 59.576C33.9695 60 34.0855 60.516 34.0855 61.124V65H33.0055V61.28C33.0055 60.624 32.8415 60.124 32.5135 59.78C32.1855 59.428 31.7375 59.252 31.1695 59.252C30.5935 59.252 30.1335 59.432 29.7895 59.792C29.4535 60.152 29.2855 60.676 29.2855 61.364V65H28.1935V56.12H29.2855V59.36C29.5015 59.024 29.7975 58.764 30.1735 58.58C30.5575 58.396 30.9855 58.304 31.4575 58.304ZM36.9613 59.492C37.1533 59.116 37.4253 58.824 37.7773 58.616C38.1373 58.408 38.5733 58.304 39.0853 58.304V59.432H38.7973C37.5733 59.432 36.9613 60.096 36.9613 61.424V65H35.8693V58.424H36.9613V59.492ZM43.2139 65.108C42.5979 65.108 42.0379 64.968 41.5339 64.688C41.0379 64.408 40.6459 64.012 40.3579 63.5C40.0779 62.98 39.9379 62.38 39.9379 61.7C39.9379 61.028 40.0819 60.436 40.3699 59.924C40.6659 59.404 41.0659 59.008 41.5699 58.736C42.0739 58.456 42.6379 58.316 43.2619 58.316C43.8859 58.316 44.4499 58.456 44.9539 58.736C45.4579 59.008 45.8539 59.4 46.1419 59.912C46.4379 60.424 46.5859 61.02 46.5859 61.7C46.5859 62.38 46.4339 62.98 46.1299 63.5C45.8339 64.012 45.4299 64.408 44.9179 64.688C44.4059 64.968 43.8379 65.108 43.2139 65.108ZM43.2139 64.148C43.6059 64.148 43.9739 64.056 44.3179 63.872C44.6619 63.688 44.9379 63.412 45.1459 63.044C45.3619 62.676 45.4699 62.228 45.4699 61.7C45.4699 61.172 45.3659 60.724 45.1579 60.356C44.9499 59.988 44.6779 59.716 44.3419 59.54C44.0059 59.356 43.6419 59.264 43.2499 59.264C42.8499 59.264 42.4819 59.356 42.1459 59.54C41.8179 59.716 41.5539 59.988 41.3539 60.356C41.1539 60.724 41.0539 61.172 41.0539 61.7C41.0539 62.236 41.1499 62.688 41.3419 63.056C41.5419 63.424 41.8059 63.7 42.1339 63.884C42.4619 64.06 42.8219 64.148 43.2139 64.148ZM51.2257 58.304C52.0257 58.304 52.6737 58.548 53.1697 59.036C53.6657 59.516 53.9137 60.212 53.9137 61.124V65H52.8337V61.28C52.8337 60.624 52.6697 60.124 52.3417 59.78C52.0137 59.428 51.5657 59.252 50.9977 59.252C50.4217 59.252 49.9617 59.432 49.6177 59.792C49.2817 60.152 49.1137 60.676 49.1137 61.364V65H48.0217V58.424H49.1137V59.36C49.3297 59.024 49.6217 58.764 49.9897 58.58C50.3657 58.396 50.7777 58.304 51.2257 58.304ZM56.2614 57.356C56.0534 57.356 55.8774 57.284 55.7334 57.14C55.5894 56.996 55.5174 56.82 55.5174 56.612C55.5174 56.404 55.5894 56.228 55.7334 56.084C55.8774 55.94 56.0534 55.868 56.2614 55.868C56.4614 55.868 56.6294 55.94 56.7654 56.084C56.9094 56.228 56.9814 56.404 56.9814 56.612C56.9814 56.82 56.9094 56.996 56.7654 57.14C56.6294 57.284 56.4614 57.356 56.2614 57.356ZM56.7894 58.424V65H55.6974V58.424H56.7894ZM58.2426 61.7C58.2426 61.02 58.3786 60.428 58.6506 59.924C58.9226 59.412 59.2986 59.016 59.7786 58.736C60.2666 58.456 60.8226 58.316 61.4466 58.316C62.2546 58.316 62.9186 58.512 63.4386 58.904C63.9666 59.296 64.3146 59.84 64.4826 60.536H63.3066C63.1946 60.136 62.9746 59.82 62.6466 59.588C62.3266 59.356 61.9266 59.24 61.4466 59.24C60.8226 59.24 60.3186 59.456 59.9346 59.888C59.5506 60.312 59.3586 60.916 59.3586 61.7C59.3586 62.492 59.5506 63.104 59.9346 63.536C60.3186 63.968 60.8226 64.184 61.4466 64.184C61.9266 64.184 62.3266 64.072 62.6466 63.848C62.9666 63.624 63.1866 63.304 63.3066 62.888H64.4826C64.3066 63.56 63.9546 64.1 63.4266 64.508C62.8986 64.908 62.2386 65.108 61.4466 65.108C60.8226 65.108 60.2666 64.968 59.7786 64.688C59.2986 64.408 58.9226 64.012 58.6506 63.5C58.3786 62.988 58.2426 62.388 58.2426 61.7ZM71.7428 56.636C72.6548 56.636 73.4428 56.808 74.1068 57.152C74.7788 57.488 75.2908 57.972 75.6428 58.604C76.0028 59.236 76.1828 59.98 76.1828 60.836C76.1828 61.692 76.0028 62.436 75.6428 63.068C75.2908 63.692 74.7788 64.172 74.1068 64.508C73.4428 64.836 72.6548 65 71.7428 65H69.1388V56.636H71.7428ZM71.7428 64.1C72.8228 64.1 73.6468 63.816 74.2148 63.248C74.7828 62.672 75.0668 61.868 75.0668 60.836C75.0668 59.796 74.7788 58.984 74.2028 58.4C73.6348 57.816 72.8148 57.524 71.7428 57.524H70.2308V64.1H71.7428ZM78.1872 57.356C77.9792 57.356 77.8032 57.284 77.6592 57.14C77.5152 56.996 77.4432 56.82 77.4432 56.612C77.4432 56.404 77.5152 56.228 77.6592 56.084C77.8032 55.94 77.9792 55.868 78.1872 55.868C78.3872 55.868 78.5552 55.94 78.6912 56.084C78.8352 56.228 78.9072 56.404 78.9072 56.612C78.9072 56.82 78.8352 56.996 78.6912 57.14C78.5552 57.284 78.3872 57.356 78.1872 57.356ZM78.7152 58.424V65H77.6232V58.424H78.7152ZM82.9043 65.108C82.4003 65.108 81.9483 65.024 81.5483 64.856C81.1483 64.68 80.8323 64.44 80.6003 64.136C80.3683 63.824 80.2403 63.468 80.2163 63.068H81.3443C81.3763 63.396 81.5283 63.664 81.8003 63.872C82.0803 64.08 82.4443 64.184 82.8923 64.184C83.3083 64.184 83.6363 64.092 83.8763 63.908C84.1163 63.724 84.2363 63.492 84.2363 63.212C84.2363 62.924 84.1083 62.712 83.8523 62.576C83.5963 62.432 83.2003 62.292 82.6643 62.156C82.1763 62.028 81.7763 61.9 81.4643 61.772C81.1603 61.636 80.8963 61.44 80.6723 61.184C80.4563 60.92 80.3483 60.576 80.3483 60.152C80.3483 59.816 80.4483 59.508 80.6483 59.228C80.8483 58.948 81.1323 58.728 81.5003 58.568C81.8683 58.4 82.2883 58.316 82.7603 58.316C83.4883 58.316 84.0763 58.5 84.5243 58.868C84.9723 59.236 85.2123 59.74 85.2443 60.38H84.1523C84.1283 60.036 83.9883 59.76 83.7323 59.552C83.4843 59.344 83.1483 59.24 82.7243 59.24C82.3323 59.24 82.0203 59.324 81.7883 59.492C81.5563 59.66 81.4403 59.88 81.4403 60.152C81.4403 60.368 81.5083 60.548 81.6443 60.692C81.7883 60.828 81.9643 60.94 82.1723 61.028C82.3883 61.108 82.6843 61.2 83.0603 61.304C83.5323 61.432 83.9163 61.56 84.2123 61.688C84.5083 61.808 84.7603 61.992 84.9683 62.24C85.1843 62.488 85.2963 62.812 85.3043 63.212C85.3043 63.572 85.2043 63.896 85.0043 64.184C84.8043 64.472 84.5203 64.7 84.1523 64.868C83.7923 65.028 83.3763 65.108 82.9043 65.108ZM92.8459 61.46C92.8459 61.668 92.8339 61.888 92.8099 62.12H87.5539C87.5939 62.768 87.8139 63.276 88.2139 63.644C88.6219 64.004 89.1139 64.184 89.6899 64.184C90.1619 64.184 90.5539 64.076 90.8659 63.86C91.1859 63.636 91.4099 63.34 91.5379 62.972H92.7139C92.5379 63.604 92.1859 64.12 91.6579 64.52C91.1299 64.912 90.4739 65.108 89.6899 65.108C89.0659 65.108 88.5059 64.968 88.0099 64.688C87.5219 64.408 87.1379 64.012 86.8579 63.5C86.5779 62.98 86.4379 62.38 86.4379 61.7C86.4379 61.02 86.5739 60.424 86.8459 59.912C87.1179 59.4 87.4979 59.008 87.9859 58.736C88.4819 58.456 89.0499 58.316 89.6899 58.316C90.3139 58.316 90.8659 58.452 91.3459 58.724C91.8259 58.996 92.1939 59.372 92.4499 59.852C92.7139 60.324 92.8459 60.86 92.8459 61.46ZM91.7179 61.232C91.7179 60.816 91.6259 60.46 91.4419 60.164C91.2579 59.86 91.0059 59.632 90.6859 59.48C90.3739 59.32 90.0259 59.24 89.6419 59.24C89.0899 59.24 88.6179 59.416 88.2259 59.768C87.8419 60.12 87.6219 60.608 87.5659 61.232H91.7179ZM93.8793 61.688C93.8793 61.016 94.0153 60.428 94.2873 59.924C94.5593 59.412 94.9313 59.016 95.4033 58.736C95.8833 58.456 96.4153 58.316 96.9993 58.316C97.5753 58.316 98.0753 58.44 98.4993 58.688C98.9233 58.936 99.2393 59.248 99.4473 59.624V58.424H100.551V65H99.4473V63.776C99.2313 64.16 98.9073 64.48 98.4753 64.736C98.0513 64.984 97.5553 65.108 96.9873 65.108C96.4033 65.108 95.8753 64.964 95.4033 64.676C94.9313 64.388 94.5593 63.984 94.2873 63.464C94.0153 62.944 93.8793 62.352 93.8793 61.688ZM99.4473 61.7C99.4473 61.204 99.3473 60.772 99.1473 60.404C98.9473 60.036 98.6753 59.756 98.3313 59.564C97.9953 59.364 97.6233 59.264 97.2153 59.264C96.8073 59.264 96.4353 59.36 96.0993 59.552C95.7633 59.744 95.4953 60.024 95.2953 60.392C95.0953 60.76 94.9953 61.192 94.9953 61.688C94.9953 62.192 95.0953 62.632 95.2953 63.008C95.4953 63.376 95.7633 63.66 96.0993 63.86C96.4353 64.052 96.8073 64.148 97.2153 64.148C97.6233 64.148 97.9953 64.052 98.3313 63.86C98.6753 63.66 98.9473 63.376 99.1473 63.008C99.3473 62.632 99.4473 62.196 99.4473 61.7ZM104.725 65.108C104.221 65.108 103.769 65.024 103.369 64.856C102.969 64.68 102.653 64.44 102.421 64.136C102.189 63.824 102.061 63.468 102.037 63.068H103.165C103.197 63.396 103.349 63.664 103.621 63.872C103.901 64.08 104.265 64.184 104.713 64.184C105.129 64.184 105.457 64.092 105.697 63.908C105.937 63.724 106.057 63.492 106.057 63.212C106.057 62.924 105.929 62.712 105.673 62.576C105.417 62.432 105.021 62.292 104.485 62.156C103.997 62.028 103.597 61.9 103.285 61.772C102.981 61.636 102.717 61.44 102.493 61.184C102.277 60.92 102.169 60.576 102.169 60.152C102.169 59.816 102.269 59.508 102.469 59.228C102.669 58.948 102.953 58.728 103.321 58.568C103.689 58.4 104.109 58.316 104.581 58.316C105.309 58.316 105.897 58.5 106.345 58.868C106.793 59.236 107.033 59.74 107.065 60.38H105.973C105.949 60.036 105.809 59.76 105.553 59.552C105.305 59.344 104.969 59.24 104.545 59.24C104.153 59.24 103.841 59.324 103.609 59.492C103.377 59.66 103.261 59.88 103.261 60.152C103.261 60.368 103.329 60.548 103.465 60.692C103.609 60.828 103.785 60.94 103.993 61.028C104.209 61.108 104.505 61.2 104.881 61.304C105.353 61.432 105.737 61.56 106.033 61.688C106.329 61.808 106.581 61.992 106.789 62.24C107.005 62.488 107.117 62.812 107.125 63.212C107.125 63.572 107.025 63.896 106.825 64.184C106.625 64.472 106.341 64.7 105.973 64.868C105.613 65.028 105.197 65.108 104.725 65.108ZM114.666 61.46C114.666 61.668 114.654 61.888 114.63 62.12H109.374C109.414 62.768 109.634 63.276 110.034 63.644C110.442 64.004 110.934 64.184 111.51 64.184C111.982 64.184 112.374 64.076 112.686 63.86C113.006 63.636 113.23 63.34 113.358 62.972H114.534C114.358 63.604 114.006 64.12 113.478 64.52C112.95 64.912 112.294 65.108 111.51 65.108C110.886 65.108 110.326 64.968 109.83 64.688C109.342 64.408 108.958 64.012 108.678 63.5C108.398 62.98 108.258 62.38 108.258 61.7C108.258 61.02 108.394 60.424 108.666 59.912C108.938 59.4 109.318 59.008 109.806 58.736C110.302 58.456 110.87 58.316 111.51 58.316C112.134 58.316 112.686 58.452 113.166 58.724C113.646 58.996 114.014 59.372 114.27 59.852C114.534 60.324 114.666 60.86 114.666 61.46ZM113.538 61.232C113.538 60.816 113.446 60.46 113.262 60.164C113.078 59.86 112.826 59.632 112.506 59.48C112.194 59.32 111.846 59.24 111.462 59.24C110.91 59.24 110.438 59.416 110.046 59.768C109.662 60.12 109.442 60.608 109.386 61.232H113.538ZM118.436 65.108C117.932 65.108 117.48 65.024 117.08 64.856C116.68 64.68 116.364 64.44 116.132 64.136C115.9 63.824 115.772 63.468 115.748 63.068H116.876C116.908 63.396 117.06 63.664 117.332 63.872C117.612 64.08 117.976 64.184 118.424 64.184C118.84 64.184 119.168 64.092 119.408 63.908C119.648 63.724 119.768 63.492 119.768 63.212C119.768 62.924 119.64 62.712 119.384 62.576C119.128 62.432 118.732 62.292 118.196 62.156C117.708 62.028 117.308 61.9 116.996 61.772C116.692 61.636 116.428 61.44 116.204 61.184C115.988 60.92 115.88 60.576 115.88 60.152C115.88 59.816 115.98 59.508 116.18 59.228C116.38 58.948 116.664 58.728 117.032 58.568C117.4 58.4 117.82 58.316 118.292 58.316C119.02 58.316 119.608 58.5 120.056 58.868C120.504 59.236 120.744 59.74 120.776 60.38H119.684C119.66 60.036 119.52 59.76 119.264 59.552C119.016 59.344 118.68 59.24 118.256 59.24C117.864 59.24 117.552 59.324 117.32 59.492C117.088 59.66 116.972 59.88 116.972 60.152C116.972 60.368 117.04 60.548 117.176 60.692C117.32 60.828 117.496 60.94 117.704 61.028C117.92 61.108 118.216 61.2 118.592 61.304C119.064 61.432 119.448 61.56 119.744 61.688C120.04 61.808 120.292 61.992 120.5 62.24C120.716 62.488 120.828 62.812 120.836 63.212C120.836 63.572 120.736 63.896 120.536 64.184C120.336 64.472 120.052 64.7 119.684 64.868C119.324 65.028 118.908 65.108 118.436 65.108ZM8.98734 80.468C8.57934 80.468 8.23134 80.328 7.94334 80.048C7.66334 79.76 7.52334 79.412 7.52334 79.004C7.52334 78.588 7.66334 78.24 7.94334 77.96C8.23134 77.672 8.57934 77.528 8.98734 77.528C9.40334 77.528 9.75534 77.672 10.0433 77.96C10.3313 78.24 10.4753 78.588 10.4753 79.004C10.4753 79.412 10.3313 79.76 10.0433 80.048C9.75534 80.328 9.40334 80.468 8.98734 80.468ZM21.576 83.084C21.024 83.084 20.528 82.988 20.088 82.796C19.656 82.596 19.316 82.324 19.068 81.98C18.82 81.628 18.692 81.224 18.684 80.768H19.848C19.888 81.16 20.048 81.492 20.328 81.764C20.616 82.028 21.032 82.16 21.576 82.16C22.096 82.16 22.504 82.032 22.8 81.776C23.104 81.512 23.256 81.176 23.256 80.768C23.256 80.448 23.168 80.188 22.992 79.988C22.816 79.788 22.596 79.636 22.332 79.532C22.068 79.428 21.712 79.316 21.264 79.196C20.712 79.052 20.268 78.908 19.932 78.764C19.604 78.62 19.32 78.396 19.08 78.092C18.848 77.78 18.732 77.364 18.732 76.844C18.732 76.388 18.848 75.984 19.08 75.632C19.312 75.28 19.636 75.008 20.052 74.816C20.476 74.624 20.96 74.528 21.504 74.528C22.288 74.528 22.928 74.724 23.424 75.116C23.928 75.508 24.212 76.028 24.276 76.676H23.076C23.036 76.356 22.868 76.076 22.572 75.836C22.276 75.588 21.884 75.464 21.396 75.464C20.94 75.464 20.568 75.584 20.28 75.824C19.992 76.056 19.848 76.384 19.848 76.808C19.848 77.112 19.932 77.36 20.1 77.552C20.276 77.744 20.488 77.892 20.736 77.996C20.992 78.092 21.348 78.204 21.804 78.332C22.356 78.484 22.8 78.636 23.136 78.788C23.472 78.932 23.76 79.16 24 79.472C24.24 79.776 24.36 80.192 24.36 80.72C24.36 81.128 24.252 81.512 24.036 81.872C23.82 82.232 23.5 82.524 23.076 82.748C22.652 82.972 22.152 83.084 21.576 83.084ZM31.631 76.424L27.671 86.096H26.543L27.839 82.928L25.187 76.424H26.399L28.463 81.752L30.503 76.424H31.631ZM40.6367 76.304C41.1487 76.304 41.6047 76.412 42.0047 76.628C42.4047 76.836 42.7207 77.152 42.9527 77.576C43.1847 78 43.3007 78.516 43.3007 79.124V83H42.2207V79.28C42.2207 78.624 42.0567 78.124 41.7287 77.78C41.4087 77.428 40.9727 77.252 40.4207 77.252C39.8527 77.252 39.4007 77.436 39.0647 77.804C38.7287 78.164 38.5607 78.688 38.5607 79.376V83H37.4807V79.28C37.4807 78.624 37.3167 78.124 36.9887 77.78C36.6687 77.428 36.2327 77.252 35.6807 77.252C35.1127 77.252 34.6607 77.436 34.3247 77.804C33.9887 78.164 33.8207 78.688 33.8207 79.376V83H32.7287V76.424H33.8207V77.372C34.0367 77.028 34.3247 76.764 34.6847 76.58C35.0527 76.396 35.4567 76.304 35.8967 76.304C36.4487 76.304 36.9367 76.428 37.3607 76.676C37.7847 76.924 38.1007 77.288 38.3087 77.768C38.4927 77.304 38.7967 76.944 39.2207 76.688C39.6447 76.432 40.1167 76.304 40.6367 76.304ZM46.184 77.636C46.4 77.26 46.72 76.948 47.144 76.7C47.576 76.444 48.076 76.316 48.644 76.316C49.228 76.316 49.756 76.456 50.228 76.736C50.708 77.016 51.084 77.412 51.356 77.924C51.628 78.428 51.764 79.016 51.764 79.688C51.764 80.352 51.628 80.944 51.356 81.464C51.084 81.984 50.708 82.388 50.228 82.676C49.756 82.964 49.228 83.108 48.644 83.108C48.084 83.108 47.588 82.984 47.156 82.736C46.732 82.48 46.408 82.164 46.184 81.788V86.12H45.092V76.424H46.184V77.636ZM50.648 79.688C50.648 79.192 50.548 78.76 50.348 78.392C50.148 78.024 49.876 77.744 49.532 77.552C49.196 77.36 48.824 77.264 48.416 77.264C48.016 77.264 47.644 77.364 47.3 77.564C46.964 77.756 46.692 78.04 46.484 78.416C46.284 78.784 46.184 79.212 46.184 79.7C46.184 80.196 46.284 80.632 46.484 81.008C46.692 81.376 46.964 81.66 47.3 81.86C47.644 82.052 48.016 82.148 48.416 82.148C48.824 82.148 49.196 82.052 49.532 81.86C49.876 81.66 50.148 81.376 50.348 81.008C50.548 80.632 50.648 80.192 50.648 79.688ZM54.5333 77.324V81.2C54.5333 81.52 54.6013 81.748 54.7373 81.884C54.8733 82.012 55.1093 82.076 55.4453 82.076H56.2493V83H55.2653C54.6573 83 54.2013 82.86 53.8973 82.58C53.5933 82.3 53.4413 81.84 53.4413 81.2V77.324H52.5893V76.424H53.4413V74.768H54.5333V76.424H56.2493V77.324H54.5333ZM60.4404 83.108C59.8244 83.108 59.2644 82.968 58.7604 82.688C58.2644 82.408 57.8724 82.012 57.5844 81.5C57.3044 80.98 57.1644 80.38 57.1644 79.7C57.1644 79.028 57.3084 78.436 57.5964 77.924C57.8924 77.404 58.2924 77.008 58.7964 76.736C59.3004 76.456 59.8644 76.316 60.4884 76.316C61.1124 76.316 61.6764 76.456 62.1804 76.736C62.6844 77.008 63.0804 77.4 63.3684 77.912C63.6644 78.424 63.8124 79.02 63.8124 79.7C63.8124 80.38 63.6604 80.98 63.3564 81.5C63.0604 82.012 62.6564 82.408 62.1444 82.688C61.6324 82.968 61.0644 83.108 60.4404 83.108ZM60.4404 82.148C60.8324 82.148 61.2004 82.056 61.5444 81.872C61.8884 81.688 62.1644 81.412 62.3724 81.044C62.5884 80.676 62.6964 80.228 62.6964 79.7C62.6964 79.172 62.5924 78.724 62.3844 78.356C62.1764 77.988 61.9044 77.716 61.5684 77.54C61.2324 77.356 60.8684 77.264 60.4764 77.264C60.0764 77.264 59.7084 77.356 59.3724 77.54C59.0444 77.716 58.7804 77.988 58.5804 78.356C58.3804 78.724 58.2804 79.172 58.2804 79.7C58.2804 80.236 58.3764 80.688 58.5684 81.056C58.7684 81.424 59.0324 81.7 59.3604 81.884C59.6884 82.06 60.0484 82.148 60.4404 82.148ZM73.1562 76.304C73.6682 76.304 74.1242 76.412 74.5242 76.628C74.9242 76.836 75.2402 77.152 75.4722 77.576C75.7042 78 75.8202 78.516 75.8202 79.124V83H74.7402V79.28C74.7402 78.624 74.5762 78.124 74.2482 77.78C73.9282 77.428 73.4922 77.252 72.9402 77.252C72.3722 77.252 71.9202 77.436 71.5842 77.804C71.2482 78.164 71.0802 78.688 71.0802 79.376V83H70.0002V79.28C70.0002 78.624 69.8362 78.124 69.5082 77.78C69.1882 77.428 68.7522 77.252 68.2002 77.252C67.6322 77.252 67.1802 77.436 66.8442 77.804C66.5082 78.164 66.3402 78.688 66.3402 79.376V83H65.2482V76.424H66.3402V77.372C66.5562 77.028 66.8442 76.764 67.2042 76.58C67.5722 76.396 67.9762 76.304 68.4162 76.304C68.9682 76.304 69.4562 76.428 69.8802 76.676C70.3042 76.924 70.6202 77.288 70.8282 77.768C71.0122 77.304 71.3162 76.944 71.7402 76.688C72.1642 76.432 72.6362 76.304 73.1562 76.304ZM79.9395 83.108C79.4355 83.108 78.9835 83.024 78.5835 82.856C78.1835 82.68 77.8675 82.44 77.6355 82.136C77.4035 81.824 77.2755 81.468 77.2515 81.068H78.3795C78.4115 81.396 78.5635 81.664 78.8355 81.872C79.1155 82.08 79.4795 82.184 79.9275 82.184C80.3435 82.184 80.6715 82.092 80.9115 81.908C81.1515 81.724 81.2715 81.492 81.2715 81.212C81.2715 80.924 81.1435 80.712 80.8875 80.576C80.6315 80.432 80.2355 80.292 79.6995 80.156C79.2115 80.028 78.8115 79.9 78.4995 79.772C78.1955 79.636 77.9315 79.44 77.7075 79.184C77.4915 78.92 77.3835 78.576 77.3835 78.152C77.3835 77.816 77.4835 77.508 77.6835 77.228C77.8835 76.948 78.1675 76.728 78.5355 76.568C78.9035 76.4 79.3235 76.316 79.7955 76.316C80.5235 76.316 81.1115 76.5 81.5595 76.868C82.0075 77.236 82.2475 77.74 82.2795 78.38H81.1875C81.1635 78.036 81.0235 77.76 80.7675 77.552C80.5195 77.344 80.1835 77.24 79.7595 77.24C79.3675 77.24 79.0555 77.324 78.8235 77.492C78.5915 77.66 78.4755 77.88 78.4755 78.152C78.4755 78.368 78.5435 78.548 78.6795 78.692C78.8235 78.828 78.9995 78.94 79.2075 79.028C79.4235 79.108 79.7195 79.2 80.0955 79.304C80.5675 79.432 80.9515 79.56 81.2475 79.688C81.5435 79.808 81.7955 79.992 82.0035 80.24C82.2195 80.488 82.3315 80.812 82.3395 81.212C82.3395 81.572 82.2395 81.896 82.0395 82.184C81.8395 82.472 81.5555 82.7 81.1875 82.868C80.8275 83.028 80.4115 83.108 79.9395 83.108ZM5.06 94.03V94.77H3.16V101H2.25V94.77H0.34V94.03H5.06ZM8.90016 95.42C9.31349 95.42 9.68682 95.51 10.0202 95.69C10.3535 95.8633 10.6135 96.1267 10.8002 96.48C10.9935 96.8333 11.0902 97.2633 11.0902 97.77V101H10.1902V97.9C10.1902 97.3533 10.0535 96.9367 9.78016 96.65C9.50682 96.3567 9.13349 96.21 8.66016 96.21C8.18016 96.21 7.79682 96.36 7.51016 96.66C7.23016 96.96 7.09016 97.3967 7.09016 97.97V101H6.18016V93.6H7.09016V96.3C7.27016 96.02 7.51682 95.8033 7.83016 95.65C8.15016 95.4967 8.50682 95.42 8.90016 95.42ZM17.5766 98.05C17.5766 98.2233 17.5666 98.4067 17.5466 98.6H13.1666C13.2 99.14 13.3833 99.5633 13.7166 99.87C14.0566 100.17 14.4666 100.32 14.9466 100.32C15.34 100.32 15.6666 100.23 15.9266 100.05C16.1933 99.8633 16.38 99.6167 16.4866 99.31H17.4666C17.32 99.8367 17.0266 100.267 16.5866 100.6C16.1466 100.927 15.6 101.09 14.9466 101.09C14.4266 101.09 13.96 100.973 13.5466 100.74C13.14 100.507 12.82 100.177 12.5866 99.75C12.3533 99.3167 12.2366 98.8167 12.2366 98.25C12.2366 97.6833 12.35 97.1867 12.5766 96.76C12.8033 96.3333 13.12 96.0067 13.5266 95.78C13.94 95.5467 14.4133 95.43 14.9466 95.43C15.4666 95.43 15.9266 95.5433 16.3266 95.77C16.7266 95.9967 17.0333 96.31 17.2466 96.71C17.4666 97.1033 17.5766 97.55 17.5766 98.05ZM16.6366 97.86C16.6366 97.5133 16.56 97.2167 16.4066 96.97C16.2533 96.7167 16.0433 96.5267 15.7766 96.4C15.5166 96.2667 15.2266 96.2 14.9066 96.2C14.4466 96.2 14.0533 96.3467 13.7266 96.64C13.4066 96.9333 13.2233 97.34 13.1766 97.86H16.6366ZM21.4478 95.42C22.1145 95.42 22.6545 95.6233 23.0678 96.03C23.4811 96.43 23.6878 97.01 23.6878 97.77V101H22.7878V97.9C22.7878 97.3533 22.6511 96.9367 22.3778 96.65C22.1045 96.3567 21.7311 96.21 21.2578 96.21C20.7778 96.21 20.3945 96.36 20.1078 96.66C19.8278 96.96 19.6878 97.3967 19.6878 97.97V101H18.7778V95.52H19.6878V96.3C19.8678 96.02 20.1111 95.8033 20.4178 95.65C20.7311 95.4967 21.0745 95.42 21.4478 95.42ZM31.2395 94.316C31.8075 94.316 32.3035 94.44 32.7275 94.688C33.1595 94.936 33.4795 95.248 33.6875 95.624V94.424H34.7915V101.144C34.7915 101.744 34.6635 102.276 34.4075 102.74C34.1515 103.212 33.7835 103.58 33.3035 103.844C32.8315 104.108 32.2795 104.24 31.6475 104.24C30.7835 104.24 30.0635 104.036 29.4875 103.628C28.9115 103.22 28.5715 102.664 28.4675 101.96H29.5475C29.6675 102.36 29.9155 102.68 30.2915 102.92C30.6675 103.168 31.1195 103.292 31.6475 103.292C32.2475 103.292 32.7355 103.104 33.1115 102.728C33.4955 102.352 33.6875 101.824 33.6875 101.144V99.764C33.4715 100.148 33.1515 100.468 32.7275 100.724C32.3035 100.98 31.8075 101.108 31.2395 101.108C30.6555 101.108 30.1235 100.964 29.6435 100.676C29.1715 100.388 28.7995 99.984 28.5275 99.464C28.2555 98.944 28.1195 98.352 28.1195 97.688C28.1195 97.016 28.2555 96.428 28.5275 95.924C28.7995 95.412 29.1715 95.016 29.6435 94.736C30.1235 94.456 30.6555 94.316 31.2395 94.316ZM33.6875 97.7C33.6875 97.204 33.5875 96.772 33.3875 96.404C33.1875 96.036 32.9155 95.756 32.5715 95.564C32.2355 95.364 31.8635 95.264 31.4555 95.264C31.0475 95.264 30.6755 95.36 30.3395 95.552C30.0035 95.744 29.7355 96.024 29.5355 96.392C29.3355 96.76 29.2355 97.192 29.2355 97.688C29.2355 98.192 29.3355 98.632 29.5355 99.008C29.7355 99.376 30.0035 99.66 30.3395 99.86C30.6755 100.052 31.0475 100.148 31.4555 100.148C31.8635 100.148 32.2355 100.052 32.5715 99.86C32.9155 99.66 33.1875 99.376 33.3875 99.008C33.5875 98.632 33.6875 98.196 33.6875 97.7ZM42.6369 97.46C42.6369 97.668 42.6249 97.888 42.6009 98.12H37.3449C37.3849 98.768 37.6049 99.276 38.0049 99.644C38.4129 100.004 38.9049 100.184 39.4809 100.184C39.9529 100.184 40.3449 100.076 40.6569 99.86C40.9769 99.636 41.2009 99.34 41.3289 98.972H42.5049C42.3289 99.604 41.9769 100.12 41.4489 100.52C40.9209 100.912 40.2649 101.108 39.4809 101.108C38.8569 101.108 38.2969 100.968 37.8009 100.688C37.3129 100.408 36.9289 100.012 36.6489 99.5C36.3689 98.98 36.2289 98.38 36.2289 97.7C36.2289 97.02 36.3649 96.424 36.6369 95.912C36.9089 95.4 37.2889 95.008 37.7769 94.736C38.2729 94.456 38.8409 94.316 39.4809 94.316C40.1049 94.316 40.6569 94.452 41.1369 94.724C41.6169 94.996 41.9849 95.372 42.2409 95.852C42.5049 96.324 42.6369 96.86 42.6369 97.46ZM41.5089 97.232C41.5089 96.816 41.4169 96.46 41.2329 96.164C41.0489 95.86 40.7969 95.632 40.4769 95.48C40.1649 95.32 39.8169 95.24 39.4329 95.24C38.8809 95.24 38.4089 95.416 38.0169 95.768C37.6329 96.12 37.4129 96.608 37.3569 97.232H41.5089ZM47.2823 94.304C48.0823 94.304 48.7303 94.548 49.2263 95.036C49.7223 95.516 49.9703 96.212 49.9703 97.124V101H48.8903V97.28C48.8903 96.624 48.7263 96.124 48.3983 95.78C48.0703 95.428 47.6223 95.252 47.0543 95.252C46.4783 95.252 46.0183 95.432 45.6743 95.792C45.3383 96.152 45.1703 96.676 45.1703 97.364V101H44.0783V94.424H45.1703V95.36C45.3863 95.024 45.6783 94.764 46.0463 94.58C46.4223 94.396 46.8343 94.304 47.2823 94.304ZM57.7541 97.46C57.7541 97.668 57.7421 97.888 57.7181 98.12H52.4621C52.5021 98.768 52.7221 99.276 53.1221 99.644C53.5301 100.004 54.0221 100.184 54.5981 100.184C55.0701 100.184 55.4621 100.076 55.7741 99.86C56.0941 99.636 56.3181 99.34 56.4461 98.972H57.6221C57.4461 99.604 57.0941 100.12 56.5661 100.52C56.0381 100.912 55.3821 101.108 54.5981 101.108C53.9741 101.108 53.4141 100.968 52.9181 100.688C52.4301 100.408 52.0461 100.012 51.7661 99.5C51.4861 98.98 51.3461 98.38 51.3461 97.7C51.3461 97.02 51.4821 96.424 51.7541 95.912C52.0261 95.4 52.4061 95.008 52.8941 94.736C53.3901 94.456 53.9581 94.316 54.5981 94.316C55.2221 94.316 55.7741 94.452 56.2541 94.724C56.7341 94.996 57.1021 95.372 57.3581 95.852C57.6221 96.324 57.7541 96.86 57.7541 97.46ZM56.6261 97.232C56.6261 96.816 56.5341 96.46 56.3501 96.164C56.1661 95.86 55.9141 95.632 55.5941 95.48C55.2821 95.32 54.9341 95.24 54.5501 95.24C53.9981 95.24 53.5261 95.416 53.1341 95.768C52.7501 96.12 52.5301 96.608 52.4741 97.232H56.6261ZM60.2875 95.492C60.4795 95.116 60.7515 94.824 61.1035 94.616C61.4635 94.408 61.8995 94.304 62.4115 94.304V95.432H62.1235C60.8995 95.432 60.2875 96.096 60.2875 97.424V101H59.1955V94.424H60.2875V95.492ZM63.264 97.688C63.264 97.016 63.4 96.428 63.672 95.924C63.944 95.412 64.316 95.016 64.788 94.736C65.268 94.456 65.8 94.316 66.384 94.316C66.96 94.316 67.46 94.44 67.884 94.688C68.308 94.936 68.624 95.248 68.832 95.624V94.424H69.936V101H68.832V99.776C68.616 100.16 68.292 100.48 67.86 100.736C67.436 100.984 66.94 101.108 66.372 101.108C65.788 101.108 65.26 100.964 64.788 100.676C64.316 100.388 63.944 99.984 63.672 99.464C63.4 98.944 63.264 98.352 63.264 97.688ZM68.832 97.7C68.832 97.204 68.732 96.772 68.532 96.404C68.332 96.036 68.06 95.756 67.716 95.564C67.38 95.364 67.008 95.264 66.6 95.264C66.192 95.264 65.82 95.36 65.484 95.552C65.148 95.744 64.88 96.024 64.68 96.392C64.48 96.76 64.38 97.192 64.38 97.688C64.38 98.192 64.48 98.632 64.68 99.008C64.88 99.376 65.148 99.66 65.484 99.86C65.82 100.052 66.192 100.148 66.6 100.148C67.008 100.148 67.38 100.052 67.716 99.86C68.06 99.66 68.332 99.376 68.532 99.008C68.732 98.632 68.832 98.196 68.832 97.7ZM73.1134 95.324V99.2C73.1134 99.52 73.1814 99.748 73.3174 99.884C73.4534 100.012 73.6894 100.076 74.0254 100.076H74.8294V101H73.8454C73.2374 101 72.7814 100.86 72.4774 100.58C72.1734 100.3 72.0214 99.84 72.0214 99.2V95.324H71.1694V94.424H72.0214V92.768H73.1134V94.424H74.8294V95.324H73.1134ZM82.1525 97.46C82.1525 97.668 82.1405 97.888 82.1165 98.12H76.8605C76.9005 98.768 77.1205 99.276 77.5205 99.644C77.9285 100.004 78.4205 100.184 78.9965 100.184C79.4685 100.184 79.8605 100.076 80.1725 99.86C80.4925 99.636 80.7165 99.34 80.8445 98.972H82.0205C81.8445 99.604 81.4925 100.12 80.9645 100.52C80.4365 100.912 79.7805 101.108 78.9965 101.108C78.3725 101.108 77.8125 100.968 77.3165 100.688C76.8285 100.408 76.4445 100.012 76.1645 99.5C75.8845 98.98 75.7445 98.38 75.7445 97.7C75.7445 97.02 75.8805 96.424 76.1525 95.912C76.4245 95.4 76.8045 95.008 77.2925 94.736C77.7885 94.456 78.3565 94.316 78.9965 94.316C79.6205 94.316 80.1725 94.452 80.6525 94.724C81.1325 94.996 81.5005 95.372 81.7565 95.852C82.0205 96.324 82.1525 96.86 82.1525 97.46ZM81.0245 97.232C81.0245 96.816 80.9325 96.46 80.7485 96.164C80.5645 95.86 80.3125 95.632 79.9925 95.48C79.6805 95.32 79.3325 95.24 78.9485 95.24C78.3965 95.24 77.9245 95.416 77.5325 95.768C77.1485 96.12 76.9285 96.608 76.8725 97.232H81.0245ZM85.9219 101.108C85.4179 101.108 84.9659 101.024 84.5659 100.856C84.1659 100.68 83.8499 100.44 83.6179 100.136C83.3859 99.824 83.2579 99.468 83.2339 99.068H84.3619C84.3939 99.396 84.5459 99.664 84.8179 99.872C85.0979 100.08 85.4619 100.184 85.9099 100.184C86.3259 100.184 86.6539 100.092 86.8939 99.908C87.1339 99.724 87.2539 99.492 87.2539 99.212C87.2539 98.924 87.1259 98.712 86.8699 98.576C86.6139 98.432 86.2179 98.292 85.6819 98.156C85.1939 98.028 84.7939 97.9 84.4819 97.772C84.1779 97.636 83.9139 97.44 83.6899 97.184C83.4739 96.92 83.3659 96.576 83.3659 96.152C83.3659 95.816 83.4659 95.508 83.6659 95.228C83.8659 94.948 84.1499 94.728 84.5179 94.568C84.8859 94.4 85.3059 94.316 85.7779 94.316C86.5059 94.316 87.0939 94.5 87.5419 94.868C87.9899 95.236 88.2299 95.74 88.2619 96.38H87.1699C87.1459 96.036 87.0059 95.76 86.7499 95.552C86.5019 95.344 86.1659 95.24 85.7419 95.24C85.3499 95.24 85.0379 95.324 84.8059 95.492C84.5739 95.66 84.4579 95.88 84.4579 96.152C84.4579 96.368 84.5259 96.548 84.6619 96.692C84.8059 96.828 84.9819 96.94 85.1899 97.028C85.4059 97.108 85.7019 97.2 86.0779 97.304C86.5499 97.432 86.9339 97.56 87.2299 97.688C87.5259 97.808 87.7779 97.992 87.9859 98.24C88.2019 98.488 88.3139 98.812 88.3219 99.212C88.3219 99.572 88.2219 99.896 88.0219 100.184C87.8219 100.472 87.5379 100.7 87.1699 100.868C86.8099 101.028 86.3939 101.108 85.9219 101.108ZM2.496 113.504V117.164C2.496 117.412 2.552 117.592 2.664 117.704C2.784 117.808 2.984 117.86 3.264 117.86H4.104V119H3.024C2.408 119 1.936 118.856 1.608 118.568C1.28 118.28 1.116 117.812 1.116 117.164V113.504H0.336V112.388H1.116V110.744H2.496V112.388H4.104V113.504H2.496ZM6.73284 113.348C6.93284 113.012 7.19684 112.752 7.52484 112.568C7.86084 112.376 8.25684 112.28 8.71284 112.28V113.696H8.36484C7.82884 113.696 7.42084 113.832 7.14084 114.104C6.86884 114.376 6.73284 114.848 6.73284 115.52V119H5.36484V112.388H6.73284V113.348ZM16.0303 115.532C16.0303 115.78 16.0143 116.004 15.9823 116.204H10.9303C10.9703 116.732 11.1663 117.156 11.5183 117.476C11.8703 117.796 12.3023 117.956 12.8143 117.956C13.5503 117.956 14.0703 117.648 14.3743 117.032H15.8503C15.6503 117.64 15.2863 118.14 14.7583 118.532C14.2383 118.916 13.5903 119.108 12.8143 119.108C12.1823 119.108 11.6143 118.968 11.1103 118.688C10.6143 118.4 10.2223 118 9.93431 117.488C9.65431 116.968 9.51431 116.368 9.51431 115.688C9.51431 115.008 9.65031 114.412 9.92231 113.9C10.2023 113.38 10.5903 112.98 11.0863 112.7C11.5903 112.42 12.1663 112.28 12.8143 112.28C13.4383 112.28 13.9943 112.416 14.4823 112.688C14.9703 112.96 15.3503 113.344 15.6223 113.84C15.8943 114.328 16.0303 114.892 16.0303 115.532ZM14.6023 115.1C14.5943 114.596 14.4143 114.192 14.0623 113.888C13.7103 113.584 13.2743 113.432 12.7543 113.432C12.2823 113.432 11.8783 113.584 11.5423 113.888C11.2063 114.184 11.0063 114.588 10.9423 115.1H14.6023ZM16.9206 115.664C16.9206 115 17.0566 114.412 17.3286 113.9C17.6086 113.388 17.9846 112.992 18.4566 112.712C18.9366 112.424 19.4646 112.28 20.0406 112.28C20.5606 112.28 21.0126 112.384 21.3966 112.592C21.7886 112.792 22.1006 113.044 22.3326 113.348V112.388H23.7126V119H22.3326V118.016C22.1006 118.328 21.7846 118.588 21.3846 118.796C20.9846 119.004 20.5286 119.108 20.0166 119.108C19.4486 119.108 18.9286 118.964 18.4566 118.676C17.9846 118.38 17.6086 117.972 17.3286 117.452C17.0566 116.924 16.9206 116.328 16.9206 115.664ZM22.3326 115.688C22.3326 115.232 22.2366 114.836 22.0446 114.5C21.8606 114.164 21.6166 113.908 21.3126 113.732C21.0086 113.556 20.6806 113.468 20.3286 113.468C19.9766 113.468 19.6486 113.556 19.3446 113.732C19.0406 113.9 18.7926 114.152 18.6006 114.488C18.4166 114.816 18.3246 115.208 18.3246 115.664C18.3246 116.12 18.4166 116.52 18.6006 116.864C18.7926 117.208 19.0406 117.472 19.3446 117.656C19.6566 117.832 19.9846 117.92 20.3286 117.92C20.6806 117.92 21.0086 117.832 21.3126 117.656C21.6166 117.48 21.8606 117.224 22.0446 116.888C22.2366 116.544 22.3326 116.144 22.3326 115.688ZM27.1054 113.504V117.164C27.1054 117.412 27.1614 117.592 27.2734 117.704C27.3934 117.808 27.5934 117.86 27.8734 117.86H28.7134V119H27.6334C27.0174 119 26.5454 118.856 26.2174 118.568C25.8894 118.28 25.7254 117.812 25.7254 117.164V113.504H24.9454V112.388H25.7254V110.744H27.1054V112.388H28.7134V113.504H27.1054ZM37.9782 112.28C38.4982 112.28 38.9622 112.388 39.3702 112.604C39.7862 112.82 40.1102 113.14 40.3422 113.564C40.5822 113.988 40.7022 114.5 40.7022 115.1V119H39.3462V115.304C39.3462 114.712 39.1982 114.26 38.9022 113.948C38.6062 113.628 38.2022 113.468 37.6902 113.468C37.1782 113.468 36.7702 113.628 36.4662 113.948C36.1702 114.26 36.0222 114.712 36.0222 115.304V119H34.6662V115.304C34.6662 114.712 34.5182 114.26 34.2222 113.948C33.9262 113.628 33.5222 113.468 33.0102 113.468C32.4982 113.468 32.0902 113.628 31.7862 113.948C31.4902 114.26 31.3422 114.712 31.3422 115.304V119H29.9742V112.388H31.3422V113.144C31.5662 112.872 31.8502 112.66 32.1942 112.508C32.5382 112.356 32.9062 112.28 33.2982 112.28C33.8262 112.28 34.2982 112.392 34.7142 112.616C35.1302 112.84 35.4502 113.164 35.6742 113.588C35.8742 113.188 36.1862 112.872 36.6102 112.64C37.0342 112.4 37.4902 112.28 37.9782 112.28ZM48.503 115.532C48.503 115.78 48.487 116.004 48.455 116.204H43.403C43.443 116.732 43.639 117.156 43.991 117.476C44.343 117.796 44.775 117.956 45.287 117.956C46.023 117.956 46.543 117.648 46.847 117.032H48.323C48.123 117.64 47.759 118.14 47.231 118.532C46.711 118.916 46.063 119.108 45.287 119.108C44.655 119.108 44.087 118.968 43.583 118.688C43.087 118.4 42.695 118 42.407 117.488C42.127 116.968 41.987 116.368 41.987 115.688C41.987 115.008 42.123 114.412 42.395 113.9C42.675 113.38 43.063 112.98 43.559 112.7C44.063 112.42 44.639 112.28 45.287 112.28C45.911 112.28 46.467 112.416 46.955 112.688C47.443 112.96 47.823 113.344 48.095 113.84C48.367 114.328 48.503 114.892 48.503 115.532ZM47.075 115.1C47.067 114.596 46.887 114.192 46.535 113.888C46.183 113.584 45.747 113.432 45.227 113.432C44.755 113.432 44.351 113.584 44.015 113.888C43.679 114.184 43.479 114.588 43.415 115.1H47.075ZM53.1852 112.28C53.7052 112.28 54.1692 112.388 54.5772 112.604C54.9932 112.82 55.3172 113.14 55.5492 113.564C55.7812 113.988 55.8972 114.5 55.8972 115.1V119H54.5412V115.304C54.5412 114.712 54.3932 114.26 54.0972 113.948C53.8012 113.628 53.3972 113.468 52.8852 113.468C52.3732 113.468 51.9652 113.628 51.6612 113.948C51.3652 114.26 51.2172 114.712 51.2172 115.304V119H49.8492V112.388H51.2172V113.144C51.4412 112.872 51.7252 112.66 52.0692 112.508C52.4212 112.356 52.7932 112.28 53.1852 112.28ZM59.2382 113.504V117.164C59.2382 117.412 59.2942 117.592 59.4062 117.704C59.5262 117.808 59.7262 117.86 60.0062 117.86H60.8462V119H59.7662C59.1502 119 58.6782 118.856 58.3502 118.568C58.0222 118.28 57.8582 117.812 57.8582 117.164V113.504H57.0782V112.388H57.8582V110.744H59.2382V112.388H60.8462V113.504H59.2382ZM66.5922 113.36C66.8242 113.056 67.1402 112.8 67.5402 112.592C67.9402 112.384 68.3922 112.28 68.8962 112.28C69.4722 112.28 69.9962 112.424 70.4682 112.712C70.9482 112.992 71.3242 113.388 71.5962 113.9C71.8682 114.412 72.0042 115 72.0042 115.664C72.0042 116.328 71.8682 116.924 71.5962 117.452C71.3242 117.972 70.9482 118.38 70.4682 118.676C69.9962 118.964 69.4722 119.108 68.8962 119.108C68.3922 119.108 67.9442 119.008 67.5522 118.808C67.1602 118.6 66.8402 118.344 66.5922 118.04V122.144H65.2242V112.388H66.5922V113.36ZM70.6122 115.664C70.6122 115.208 70.5162 114.816 70.3242 114.488C70.1402 114.152 69.8922 113.9 69.5802 113.732C69.2762 113.556 68.9482 113.468 68.5962 113.468C68.2522 113.468 67.9242 113.556 67.6122 113.732C67.3082 113.908 67.0602 114.164 66.8682 114.5C66.6842 114.836 66.5922 115.232 66.5922 115.688C66.5922 116.144 66.6842 116.544 66.8682 116.888C67.0602 117.224 67.3082 117.48 67.6122 117.656C67.9242 117.832 68.2522 117.92 68.5962 117.92C68.9482 117.92 69.2762 117.832 69.5802 117.656C69.8922 117.472 70.1402 117.208 70.3242 116.864C70.5162 116.52 70.6122 116.12 70.6122 115.664ZM74.725 110.12V119H73.357V110.12H74.725ZM76.0651 115.664C76.0651 115 76.2011 114.412 76.4731 113.9C76.7531 113.388 77.1291 112.992 77.6011 112.712C78.0811 112.424 78.6091 112.28 79.1851 112.28C79.7051 112.28 80.1571 112.384 80.5411 112.592C80.9331 112.792 81.2451 113.044 81.4771 113.348V112.388H82.8571V119H81.4771V118.016C81.2451 118.328 80.9291 118.588 80.5291 118.796C80.1291 119.004 79.6731 119.108 79.1611 119.108C78.5931 119.108 78.0731 118.964 77.6011 118.676C77.1291 118.38 76.7531 117.972 76.4731 117.452C76.2011 116.924 76.0651 116.328 76.0651 115.664ZM81.4771 115.688C81.4771 115.232 81.3811 114.836 81.1891 114.5C81.0051 114.164 80.7611 113.908 80.4571 113.732C80.1531 113.556 79.8251 113.468 79.4731 113.468C79.1211 113.468 78.7931 113.556 78.4891 113.732C78.1851 113.9 77.9371 114.152 77.7451 114.488C77.5611 114.816 77.4691 115.208 77.4691 115.664C77.4691 116.12 77.5611 116.52 77.7451 116.864C77.9371 117.208 78.1851 117.472 78.4891 117.656C78.8011 117.832 79.1291 117.92 79.4731 117.92C79.8251 117.92 80.1531 117.832 80.4571 117.656C80.7611 117.48 81.0051 117.224 81.1891 116.888C81.3811 116.544 81.4771 116.144 81.4771 115.688ZM87.9899 112.28C88.5099 112.28 88.9739 112.388 89.3819 112.604C89.7979 112.82 90.1219 113.14 90.3539 113.564C90.5859 113.988 90.7019 114.5 90.7019 115.1V119H89.3459V115.304C89.3459 114.712 89.1979 114.26 88.9019 113.948C88.6059 113.628 88.2019 113.468 87.6899 113.468C87.1779 113.468 86.7699 113.628 86.4659 113.948C86.1699 114.26 86.0219 114.712 86.0219 115.304V119H84.6539V112.388H86.0219V113.144C86.2459 112.872 86.5299 112.66 86.8739 112.508C87.2259 112.356 87.5979 112.28 87.9899 112.28ZM94.8469 119.108C94.3269 119.108 93.8589 119.016 93.4429 118.832C93.0349 118.64 92.7109 118.384 92.4709 118.064C92.2309 117.736 92.1029 117.372 92.0869 116.972H93.5029C93.5269 117.252 93.6589 117.488 93.8989 117.68C94.1469 117.864 94.4549 117.956 94.8229 117.956C95.2069 117.956 95.5029 117.884 95.7109 117.74C95.9269 117.588 96.0349 117.396 96.0349 117.164C96.0349 116.916 95.9149 116.732 95.6749 116.612C95.4429 116.492 95.0709 116.36 94.5589 116.216C94.0629 116.08 93.6589 115.948 93.3469 115.82C93.0349 115.692 92.7629 115.496 92.5309 115.232C92.3069 114.968 92.1949 114.62 92.1949 114.188C92.1949 113.836 92.2989 113.516 92.5069 113.228C92.7149 112.932 93.0109 112.7 93.3949 112.532C93.7869 112.364 94.2349 112.28 94.7389 112.28C95.4909 112.28 96.0949 112.472 96.5509 112.856C97.0149 113.232 97.2629 113.748 97.2949 114.404H95.9269C95.9029 114.108 95.7829 113.872 95.5669 113.696C95.3509 113.52 95.0589 113.432 94.6909 113.432C94.3309 113.432 94.0549 113.5 93.8629 113.636C93.6709 113.772 93.5749 113.952 93.5749 114.176C93.5749 114.352 93.6389 114.5 93.7669 114.62C93.8949 114.74 94.0509 114.836 94.2349 114.908C94.4189 114.972 94.6909 115.056 95.0509 115.16C95.5309 115.288 95.9229 115.42 96.2269 115.556C96.5389 115.684 96.8069 115.876 97.0309 116.132C97.2549 116.388 97.3709 116.728 97.3789 117.152C97.3789 117.528 97.2749 117.864 97.0669 118.16C96.8589 118.456 96.5629 118.688 96.1789 118.856C95.8029 119.024 95.3589 119.108 94.8469 119.108ZM107.276 119L106.366 118.08C106.026 118.433 105.663 118.697 105.276 118.87C104.89 119.037 104.453 119.12 103.966 119.12C103.486 119.12 103.06 119.033 102.686 118.86C102.32 118.687 102.033 118.44 101.826 118.12C101.626 117.8 101.526 117.427 101.526 117C101.526 116.513 101.663 116.087 101.936 115.72C102.216 115.347 102.626 115.053 103.166 114.84C102.953 114.587 102.8 114.353 102.706 114.14C102.613 113.927 102.566 113.693 102.566 113.44C102.566 113.147 102.64 112.883 102.786 112.65C102.94 112.41 103.156 112.223 103.436 112.09C103.716 111.957 104.04 111.89 104.406 111.89C104.766 111.89 105.08 111.96 105.346 112.1C105.613 112.24 105.813 112.437 105.946 112.69C106.08 112.937 106.14 113.213 106.126 113.52H105.216C105.223 113.247 105.146 113.033 104.986 112.88C104.826 112.72 104.62 112.64 104.366 112.64C104.1 112.64 103.883 112.717 103.716 112.87C103.556 113.017 103.476 113.207 103.476 113.44C103.476 113.64 103.53 113.833 103.636 114.02C103.75 114.207 103.936 114.437 104.196 114.71L106.276 116.8L106.456 116.52L107.136 115.38H108.116L107.296 116.8C107.183 117 107.05 117.21 106.896 117.43L108.466 119H107.276ZM103.966 118.34C104.326 118.34 104.65 118.27 104.936 118.13C105.23 117.99 105.506 117.773 105.766 117.48L103.716 115.42C102.863 115.747 102.436 116.263 102.436 116.97C102.436 117.363 102.576 117.69 102.856 117.95C103.143 118.21 103.513 118.34 103.966 118.34ZM4.704 137.084C3.928 137.084 3.212 136.904 2.556 136.544C1.908 136.176 1.392 135.668 1.008 135.02C0.632 134.364 0.444 133.628 0.444 132.812C0.444 131.996 0.632 131.264 1.008 130.616C1.392 129.968 1.908 129.464 2.556 129.104C3.212 128.736 3.928 128.552 4.704 128.552C5.488 128.552 6.204 128.736 6.852 129.104C7.508 129.464 8.024 129.968 8.4 130.616C8.776 131.264 8.964 131.996 8.964 132.812C8.964 133.628 8.776 134.364 8.4 135.02C8.024 135.668 7.508 136.176 6.852 136.544C6.204 136.904 5.488 137.084 4.704 137.084ZM4.704 135.896C5.256 135.896 5.748 135.772 6.18 135.524C6.612 135.268 6.948 134.908 7.188 134.444C7.436 133.972 7.56 133.428 7.56 132.812C7.56 132.196 7.436 131.656 7.188 131.192C6.948 130.728 6.612 130.372 6.18 130.124C5.748 129.876 5.256 129.752 4.704 129.752C4.152 129.752 3.66 129.876 3.228 130.124C2.796 130.372 2.456 130.728 2.208 131.192C1.968 131.656 1.848 132.196 1.848 132.812C1.848 133.428 1.968 133.972 2.208 134.444C2.456 134.908 2.796 135.268 3.228 135.524C3.66 135.772 4.152 135.896 4.704 135.896ZM11.6782 131.372C11.9102 131.052 12.2262 130.792 12.6262 130.592C13.0342 130.384 13.4862 130.28 13.9822 130.28C14.5662 130.28 15.0942 130.42 15.5662 130.7C16.0382 130.98 16.4102 131.38 16.6822 131.9C16.9542 132.412 17.0902 133 17.0902 133.664C17.0902 134.328 16.9542 134.924 16.6822 135.452C16.4102 135.972 16.0342 136.38 15.5542 136.676C15.0822 136.964 14.5582 137.108 13.9822 137.108C13.4702 137.108 13.0142 137.008 12.6142 136.808C12.2222 136.608 11.9102 136.352 11.6782 136.04V137H10.3102V128.12H11.6782V131.372ZM15.6982 133.664C15.6982 133.208 15.6022 132.816 15.4102 132.488C15.2262 132.152 14.9782 131.9 14.6662 131.732C14.3622 131.556 14.0342 131.468 13.6822 131.468C13.3382 131.468 13.0102 131.556 12.6982 131.732C12.3942 131.908 12.1462 132.164 11.9542 132.5C11.7702 132.836 11.6782 133.232 11.6782 133.688C11.6782 134.144 11.7702 134.544 11.9542 134.888C12.1462 135.224 12.3942 135.48 12.6982 135.656C13.0102 135.832 13.3382 135.92 13.6822 135.92C14.0342 135.92 14.3622 135.832 14.6662 135.656C14.9782 135.472 15.2262 135.208 15.4102 134.864C15.6022 134.52 15.6982 134.12 15.6982 133.664ZM20.843 137.108C20.323 137.108 19.855 137.016 19.439 136.832C19.031 136.64 18.707 136.384 18.467 136.064C18.227 135.736 18.099 135.372 18.083 134.972H19.499C19.523 135.252 19.655 135.488 19.895 135.68C20.143 135.864 20.451 135.956 20.819 135.956C21.203 135.956 21.499 135.884 21.707 135.74C21.923 135.588 22.031 135.396 22.031 135.164C22.031 134.916 21.911 134.732 21.671 134.612C21.439 134.492 21.067 134.36 20.555 134.216C20.059 134.08 19.655 133.948 19.343 133.82C19.031 133.692 18.759 133.496 18.527 133.232C18.303 132.968 18.191 132.62 18.191 132.188C18.191 131.836 18.295 131.516 18.503 131.228C18.711 130.932 19.007 130.7 19.391 130.532C19.783 130.364 20.231 130.28 20.735 130.28C21.487 130.28 22.091 130.472 22.547 130.856C23.011 131.232 23.259 131.748 23.291 132.404H21.923C21.899 132.108 21.779 131.872 21.563 131.696C21.347 131.52 21.055 131.432 20.687 131.432C20.327 131.432 20.051 131.5 19.859 131.636C19.667 131.772 19.571 131.952 19.571 132.176C19.571 132.352 19.635 132.5 19.763 132.62C19.891 132.74 20.047 132.836 20.231 132.908C20.415 132.972 20.687 133.056 21.047 133.16C21.527 133.288 21.919 133.42 22.223 133.556C22.535 133.684 22.803 133.876 23.027 134.132C23.251 134.388 23.367 134.728 23.375 135.152C23.375 135.528 23.271 135.864 23.063 136.16C22.855 136.456 22.559 136.688 22.175 136.856C21.799 137.024 21.355 137.108 20.843 137.108ZM30.9131 133.532C30.9131 133.78 30.8971 134.004 30.8651 134.204H25.8131C25.8531 134.732 26.0491 135.156 26.4011 135.476C26.7531 135.796 27.1851 135.956 27.6971 135.956C28.4331 135.956 28.9531 135.648 29.2571 135.032H30.7331C30.5331 135.64 30.1691 136.14 29.6411 136.532C29.1211 136.916 28.4731 137.108 27.6971 137.108C27.0651 137.108 26.4971 136.968 25.9931 136.688C25.4971 136.4 25.1051 136 24.8171 135.488C24.5371 134.968 24.3971 134.368 24.3971 133.688C24.3971 133.008 24.5331 132.412 24.8051 131.9C25.0851 131.38 25.4731 130.98 25.9691 130.7C26.4731 130.42 27.0491 130.28 27.6971 130.28C28.3211 130.28 28.8771 130.416 29.3651 130.688C29.8531 130.96 30.2331 131.344 30.5051 131.84C30.7771 132.328 30.9131 132.892 30.9131 133.532ZM29.4851 133.1C29.4771 132.596 29.2971 132.192 28.9451 131.888C28.5931 131.584 28.1571 131.432 27.6371 131.432C27.1651 131.432 26.7611 131.584 26.4251 131.888C26.0891 132.184 25.8891 132.588 25.8251 133.1H29.4851ZM33.6274 131.348C33.8274 131.012 34.0914 130.752 34.4194 130.568C34.7554 130.376 35.1514 130.28 35.6074 130.28V131.696H35.2594C34.7234 131.696 34.3154 131.832 34.0354 132.104C33.7634 132.376 33.6274 132.848 33.6274 133.52V137H32.2594V130.388H33.6274V131.348ZM39.4208 135.776L41.2928 130.388H42.7448L40.2248 137H38.5928L36.0848 130.388H37.5488L39.4208 135.776ZM43.3229 133.664C43.3229 133 43.4589 132.412 43.7309 131.9C44.0109 131.388 44.3869 130.992 44.8589 130.712C45.3389 130.424 45.8669 130.28 46.4429 130.28C46.9629 130.28 47.4149 130.384 47.7989 130.592C48.1909 130.792 48.5029 131.044 48.7349 131.348V130.388H50.1149V137H48.7349V136.016C48.5029 136.328 48.1869 136.588 47.7869 136.796C47.3869 137.004 46.9309 137.108 46.4189 137.108C45.8509 137.108 45.3309 136.964 44.8589 136.676C44.3869 136.38 44.0109 135.972 43.7309 135.452C43.4589 134.924 43.3229 134.328 43.3229 133.664ZM48.7349 133.688C48.7349 133.232 48.6389 132.836 48.4469 132.5C48.2629 132.164 48.0189 131.908 47.7149 131.732C47.4109 131.556 47.0829 131.468 46.7309 131.468C46.3789 131.468 46.0509 131.556 45.7469 131.732C45.4429 131.9 45.1949 132.152 45.0029 132.488C44.8189 132.816 44.7269 133.208 44.7269 133.664C44.7269 134.12 44.8189 134.52 45.0029 134.864C45.1949 135.208 45.4429 135.472 45.7469 135.656C46.0589 135.832 46.3869 135.92 46.7309 135.92C47.0829 135.92 47.4109 135.832 47.7149 135.656C48.0189 135.48 48.2629 135.224 48.4469 134.888C48.6389 134.544 48.7349 134.144 48.7349 133.688ZM53.5077 131.504V135.164C53.5077 135.412 53.5637 135.592 53.6757 135.704C53.7957 135.808 53.9957 135.86 54.2757 135.86H55.1157V137H54.0357C53.4197 137 52.9477 136.856 52.6197 136.568C52.2917 136.28 52.1277 135.812 52.1277 135.164V131.504H51.3477V130.388H52.1277V128.744H53.5077V130.388H55.1157V131.504H53.5077ZM57.0726 129.512C56.8246 129.512 56.6166 129.428 56.4486 129.26C56.2806 129.092 56.1966 128.884 56.1966 128.636C56.1966 128.388 56.2806 128.18 56.4486 128.012C56.6166 127.844 56.8246 127.76 57.0726 127.76C57.3126 127.76 57.5166 127.844 57.6846 128.012C57.8526 128.18 57.9366 128.388 57.9366 128.636C57.9366 128.884 57.8526 129.092 57.6846 129.26C57.5166 129.428 57.3126 129.512 57.0726 129.512ZM57.7446 130.388V137H56.3766V130.388H57.7446ZM62.4086 137.108C61.7846 137.108 61.2206 136.968 60.7166 136.688C60.2126 136.4 59.8166 136 59.5286 135.488C59.2406 134.968 59.0966 134.368 59.0966 133.688C59.0966 133.016 59.2446 132.42 59.5406 131.9C59.8366 131.38 60.2406 130.98 60.7526 130.7C61.2646 130.42 61.8366 130.28 62.4686 130.28C63.1006 130.28 63.6726 130.42 64.1846 130.7C64.6966 130.98 65.1006 131.38 65.3966 131.9C65.6926 132.42 65.8406 133.016 65.8406 133.688C65.8406 134.36 65.6886 134.956 65.3846 135.476C65.0806 135.996 64.6646 136.4 64.1366 136.688C63.6166 136.968 63.0406 137.108 62.4086 137.108ZM62.4086 135.92C62.7606 135.92 63.0886 135.836 63.3926 135.668C63.7046 135.5 63.9566 135.248 64.1486 134.912C64.3406 134.576 64.4366 134.168 64.4366 133.688C64.4366 133.208 64.3446 132.804 64.1606 132.476C63.9766 132.14 63.7326 131.888 63.4286 131.72C63.1246 131.552 62.7966 131.468 62.4446 131.468C62.0926 131.468 61.7646 131.552 61.4606 131.72C61.1646 131.888 60.9286 132.14 60.7526 132.476C60.5766 132.804 60.4886 133.208 60.4886 133.688C60.4886 134.4 60.6686 134.952 61.0286 135.344C61.3966 135.728 61.8566 135.92 62.4086 135.92ZM70.529 130.28C71.049 130.28 71.513 130.388 71.921 130.604C72.337 130.82 72.661 131.14 72.893 131.564C73.125 131.988 73.241 132.5 73.241 133.1V137H71.885V133.304C71.885 132.712 71.737 132.26 71.441 131.948C71.145 131.628 70.741 131.468 70.229 131.468C69.717 131.468 69.309 131.628 69.005 131.948C68.709 132.26 68.561 132.712 68.561 133.304V137H67.193V130.388H68.561V131.144C68.785 130.872 69.069 130.66 69.413 130.508C69.765 130.356 70.137 130.28 70.529 130.28ZM77.3859 137.108C76.8659 137.108 76.3979 137.016 75.9819 136.832C75.5739 136.64 75.2499 136.384 75.0099 136.064C74.7699 135.736 74.6419 135.372 74.6259 134.972H76.0419C76.0659 135.252 76.1979 135.488 76.4379 135.68C76.6859 135.864 76.9939 135.956 77.3619 135.956C77.7459 135.956 78.0419 135.884 78.2499 135.74C78.4659 135.588 78.5739 135.396 78.5739 135.164C78.5739 134.916 78.4539 134.732 78.2139 134.612C77.9819 134.492 77.6099 134.36 77.0979 134.216C76.6019 134.08 76.1979 133.948 75.8859 133.82C75.5739 133.692 75.3019 133.496 75.0699 133.232C74.8459 132.968 74.7339 132.62 74.7339 132.188C74.7339 131.836 74.8379 131.516 75.0459 131.228C75.2539 130.932 75.5499 130.7 75.9339 130.532C76.3259 130.364 76.7739 130.28 77.2779 130.28C78.0299 130.28 78.6339 130.472 79.0899 130.856C79.5539 131.232 79.8019 131.748 79.8339 132.404H78.4659C78.4419 132.108 78.3219 131.872 78.1059 131.696C77.8899 131.52 77.5979 131.432 77.2299 131.432C76.8699 131.432 76.5939 131.5 76.4019 131.636C76.2099 131.772 76.1139 131.952 76.1139 132.176C76.1139 132.352 76.1779 132.5 76.3059 132.62C76.4339 132.74 76.5899 132.836 76.7739 132.908C76.9579 132.972 77.2299 133.056 77.5899 133.16C78.0699 133.288 78.4619 133.42 78.7659 133.556C79.0779 133.684 79.3459 133.876 79.5699 134.132C79.7939 134.388 79.9099 134.728 79.9179 135.152C79.9179 135.528 79.8139 135.864 79.6059 136.16C79.3979 136.456 79.1019 136.688 78.7179 136.856C78.3419 137.024 77.8979 137.108 77.3859 137.108ZM83.1121 128.66L82.9561 134.48H81.8161L81.6601 128.66H83.1121ZM82.4281 137.084C82.1801 137.084 81.9721 137 81.8041 136.832C81.6361 136.664 81.5521 136.456 81.5521 136.208C81.5521 135.96 81.6361 135.752 81.8041 135.584C81.9721 135.416 82.1801 135.332 82.4281 135.332C82.6681 135.332 82.8721 135.416 83.0401 135.584C83.2081 135.752 83.2921 135.96 83.2921 136.208C83.2921 136.456 83.2081 136.664 83.0401 136.832C82.8721 137 82.6681 137.084 82.4281 137.084Z" fill="white"/>
<rect x="1" y="127" width="86" height="9" fill="#FFC340" style="mix-blend-mode:overlay"/>
<rect x="3" y="110" width="97" height="9" fill="#FFC340" style="mix-blend-mode:overlay"/>
</svg>
