<svg width="96" height="155" viewBox="0 0 96 155" fill="none" xmlns="http://www.w3.org/2000/svg">
<path d="M7.09439 105.887C8.13793 100.008 9.6548 94.2446 11.3903 88.5342C12.9847 83.2805 14.5708 77.8635 18.1249 73.5593C18.0862 73.5787 18.1913 73.479 18.2218 73.4403L18.2052 73.4569C18.2467 73.4154 18.2855 73.3738 18.3242 73.3323L18.3159 73.3434C18.529 73.1219 18.7588 72.9171 18.9553 72.6846C18.9996 72.632 19.055 72.56 19.1048 72.4964L19.0937 72.5213C19.174 72.4493 19.2709 72.3912 19.3428 72.3082C19.3954 72.2556 19.4453 72.2057 19.4978 72.1531L19.4895 72.1587C19.5311 72.1199 19.5698 72.0812 19.6113 72.0452C19.5947 72.0618 19.6944 71.9705 19.7248 71.94L19.7137 71.9566C19.7968 71.893 19.8771 71.8265 19.9601 71.7629C19.9601 71.7629 19.9463 71.7684 19.9463 71.7656C20.1262 71.6106 20.3199 71.4694 20.4805 71.2951C20.5691 71.2785 20.8929 71.021 21.023 70.8743L21.0175 70.9048L21.0479 70.9103C21.3884 70.6778 21.7316 70.448 22.0721 70.2155C22.1108 70.1934 22.1551 70.1602 22.2077 70.1297L22.205 70.1574C22.3544 70.091 22.5233 70.055 22.6119 69.8944C22.6506 69.8889 22.7973 69.8834 22.825 69.7865C23.5032 69.59 24.1952 69.2024 24.9259 69.0862C24.9896 69.0751 25.1363 69.0696 25.1501 68.9201C25.0754 68.3139 25.6788 66.2213 25.2166 66.0192C24.9038 66.0331 24.6519 65.831 24.3612 65.7563C23.5862 65.2248 22.7226 64.3169 22.4901 63.2318C19.8079 65.6677 13.8705 62.3904 15.9105 61.5323C18.1249 61.5323 19.3428 59.1961 19.6086 57.2723C19.8577 53.4193 16.9707 50.0312 17.8647 46.0896C16.835 48.4756 16.2095 51.3571 17.3167 53.7957L17.3028 53.7819C17.4744 54.4019 17.3388 54.5957 16.8018 54.5015L16.8156 54.5126C16.7409 54.4296 16.6662 54.3493 16.5914 54.2663C16.5471 54.0199 16.3755 53.9175 16.1513 53.8787C15.2296 49.9814 16.453 46.1311 18.7256 42.9036C18.9083 42.6268 19.1463 42.1618 19.5311 42.3555C19.9297 42.5576 19.6501 42.9949 19.5449 43.3188C19.0633 44.7997 18.7034 46.311 18.6398 47.8694C18.4598 51.5066 21.4216 54.6759 20.3282 58.338C19.8438 60.3891 18.529 61.6845 16.6247 62.5149C21.441 65.3217 23.5253 59.4563 23.6028 61.9973C22.7752 63.2125 25.1418 65.7618 25.51 64.9093C26.0857 57.884 25.9916 56.1374 30.7304 50.8782C29.4793 46.0425 29.1444 41.0158 28.815 36.05C28.2724 29.0026 28.8703 33.3346 36.4408 30.1015C44.2106 26.8823 51.7895 21.5733 55.6813 13.9253C56.0522 13.1807 56.6944 11.0881 57.5165 11.1822C58.0092 11.4867 57.5552 12.0375 57.367 12.4112C53.6551 18.9299 59.6229 26.7578 64.5721 30.8489C66.0143 32.0225 67.4951 33.1436 69.2501 33.8356C69.4383 33.9103 69.6404 34.0183 69.5739 34.2619C68.6909 34.9234 66.8557 33.2239 65.8426 33.0273C65.826 32.9858 65.8094 32.9443 65.7901 32.9028C66.0973 34.356 66.244 36.0445 67.3567 37.3371C68.7186 33.974 73.5737 32.3243 75.0075 36.5289C75.9403 40.4013 74.7999 44.664 71.6056 47.1525C69.5462 49.0403 67.3623 47.3435 67.1962 48.1074C66.3713 51.1163 64.9541 53.9756 63.0857 56.4779C62.6622 57.0149 62.4491 57.5657 62.4712 58.2826C62.6401 59.8355 62.4712 65.3549 64.4143 65.4269C65.5077 65.1778 66.5457 64.8262 67.4398 64.137C67.7636 63.8187 68.1927 64.173 68.0737 64.555C68.0681 64.6823 67.8993 64.7459 67.9519 64.901C75.1459 64.566 76.959 55.2489 74.2823 49.735C74.0083 49.187 74.6726 48.9517 74.8331 49.5302C77.2579 54.2192 76.4829 59.8881 73.0893 63.8768C78.2267 63.5253 81.4404 57.8868 81.2272 53.1286C81.6507 49.8817 77.9112 45.7463 78.9464 45.2121C79.9014 45.3117 81.5068 49.4859 81.8113 50.5184C83.7489 53.1729 84.7897 56.0848 83.6769 59.257C83.6133 59.2598 83.5634 59.257 83.569 59.3373C86.9515 56.8405 87.3695 51.955 86.2013 48.1766C85.1883 43.6399 80.6349 41.7078 78.6281 37.7883C76.2476 33.0744 76.5881 27.7211 75.2151 22.7303C73.5986 17.2082 70.6368 11.2348 64.9735 9.02315C62.9916 8.09309 60.5917 8.8709 58.7289 8.00175L58.7621 7.96853C58.9448 8.04881 59.1136 8.09863 59.3212 8.00452C60.2153 7.58932 61.1841 7.61146 62.1335 7.53396C62.1944 7.52842 62.2553 7.52565 62.3162 7.52012L62.3383 7.50074C63.5701 7.76647 65.1977 8.00452 66.4433 8.69099C66.4239 8.6467 66.5319 8.74081 66.5734 8.76295C71.8298 11.7303 74.8608 17.3991 76.1978 23.1345C77.4738 27.6408 77.125 32.5568 79.2453 36.825L79.2315 36.8112C79.273 36.9773 79.3256 37.1378 79.464 37.2541C79.4446 37.2402 79.4889 37.4451 79.5747 37.4644C79.6329 37.5087 79.6661 37.8021 79.7823 37.8796C79.8239 38.0125 79.8848 38.1343 80.0038 38.2173L79.9927 38.2035C80.0315 38.3391 80.1007 38.4582 80.2114 38.5467L80.1975 38.5301C80.2418 38.6658 80.3166 38.7765 80.4328 38.8623C80.419 38.8401 80.5048 38.9536 80.5325 38.9869C80.4826 38.9564 80.6266 39.1225 80.657 39.1723C80.6792 39.2 80.7207 39.2526 80.7594 39.2996C80.7235 39.2664 80.8342 39.3688 80.8702 39.4021C80.837 39.3716 80.9366 39.4823 80.967 39.5211C80.9172 39.4851 81.0279 39.5958 81.0584 39.6346L81.0418 39.6456C81.1138 39.7176 81.1829 39.7868 81.2549 39.8588V39.8781C81.3989 40.0553 81.5317 40.2408 81.7338 40.3542L81.7282 40.3487C83.6714 42.1618 85.5979 44.1077 86.6664 46.6016L86.6525 46.5878C87.8788 50.0229 88.2497 54.0642 86.3481 57.3194L86.3536 57.3111C86.3065 57.383 86.2595 57.4522 86.2124 57.5242C86.2595 57.4799 86.1598 57.6017 86.1321 57.6432L86.1377 57.6349C86.0353 57.6737 86.0408 57.7733 86.0159 57.8564L86.027 57.8425C85.6616 58.2134 85.4734 58.7117 85.0471 59.0272C85.0111 59.0798 84.8007 59.2431 84.7177 59.3594C84.7537 59.304 84.6374 59.4175 84.5987 59.4452L84.6042 59.4175C84.5378 59.4701 84.4741 59.5199 84.4077 59.5698L84.416 59.5615C84.2997 59.6362 84.1807 59.7082 84.0644 59.7829C84.034 59.7746 84.0091 59.7829 83.9925 59.8106C83.5634 59.8715 83.1621 60.1261 82.7054 59.9877L82.7247 59.996C82.6279 59.7608 82.7829 59.6085 82.9074 59.448C82.7884 60.1455 83.5524 59.8106 83.8568 59.5033C83.2645 59.7912 83.3946 59.0355 82.9074 59.4507C82.9545 59.2099 83.0015 58.9719 83.0486 58.7311L83.0375 58.7366C83.5911 56.6717 83.2202 54.4573 82.1739 52.6027C82.2652 57.1921 80.4771 61.0313 76.6711 63.6553C76.577 63.7079 76.4414 63.7882 76.3306 63.8519L76.3445 63.838C75.9486 64.018 75.5224 64.1259 75.1625 64.3833L75.1515 64.3501L75.1155 64.3557C74.3294 64.4941 73.5682 64.8124 72.7461 64.6767L72.7378 64.6657C72.4665 64.5688 72.4056 64.1896 72.1482 64.5107L72.1592 64.5024C72.0291 64.5356 71.899 64.5688 71.8077 64.6795C71.8077 64.6795 71.7994 64.6768 71.7994 64.6795C71.733 64.721 71.6665 64.7598 71.6001 64.8013L71.5807 64.7764C71.5807 64.7764 71.5503 64.7875 71.553 64.7875C70.3434 65.3798 68.7767 66.213 67.4342 65.7812C67.0301 65.5321 66.7755 65.593 66.4544 65.8061C65.8842 65.9611 65.206 66.1189 64.4337 66.1576C66.208 67.1181 67.9546 67.6828 69.7954 67.9818C71.6998 68.5852 73.8865 68.934 75.8905 69.4322L75.9099 69.3907C76.6794 69.7062 77.4849 69.9166 78.2848 70.1436L78.2738 70.1242C78.7084 70.3069 79.1429 70.4923 79.5747 70.675L79.5609 70.6612C79.7048 70.7387 79.8488 70.8162 79.9927 70.8937L79.9872 70.8826C80.2474 71.021 80.5076 71.1567 80.765 71.2951L80.7594 71.2923C80.9394 71.403 81.1193 71.5137 81.2992 71.6272L81.2881 71.6189C81.4597 71.7407 81.6314 71.8625 81.8057 71.9843C81.803 71.9455 81.8943 72.048 81.9386 72.0756C81.8943 72.0313 82.0051 72.1504 82.0383 72.1891C82.0023 72.1531 82.1213 72.25 82.1601 72.2805L82.1462 72.2722C82.2985 72.4576 82.4839 72.6043 82.6971 72.7123L82.6832 72.7012C82.8576 72.859 83.0265 73.0251 83.2147 73.169C83.1842 73.1275 83.2894 73.2382 83.3254 73.2686C83.2894 73.241 83.3974 73.3406 83.4306 73.3766L83.4057 73.3711C83.4638 73.5344 83.6105 73.6146 83.7351 73.7171C83.7683 73.7475 83.8015 73.778 83.8347 73.8084L83.8375 73.825C83.8873 73.8804 83.9399 73.933 83.9897 73.9883C86.0934 76.3854 87.3224 79.4607 87.8456 82.6051C88.3023 85.7607 88.3659 89.265 88.1362 92.5534L88.1556 92.5727L88.1749 92.5534C87.231 101.428 85.4927 110.235 82.9628 118.808C82.9794 118.833 82.9932 118.858 83.0098 118.883C82.531 119.943 82.2846 121.08 81.8971 122.174L81.9165 122.204C81.6314 122.96 81.3435 123.718 81.0584 124.474L81.075 124.457C80.9643 124.712 80.8536 124.964 80.7428 125.219L80.7539 125.213C80.621 125.374 80.574 125.567 80.5214 125.761L80.5352 125.747C80.1394 126.539 79.7408 127.331 79.345 128.122L79.3561 128.114C79.3118 128.189 79.2647 128.263 79.2204 128.335C79.2703 128.294 79.1706 128.416 79.1457 128.457L79.1512 128.446C78.2821 132.105 81.1331 136.183 80.7677 139.997C79.5554 145.719 79.2121 140.833 80.4522 147.512C80.538 148.141 80.3415 148.63 79.81 148.982C79.6993 149.054 79.5747 149.093 79.6329 149.306C80.2003 151.199 80.3553 153.184 80.6626 155.108H79.6938C79.6938 154.504 79.2481 148.971 78.3402 149.763C72.9232 151.783 67.199 152.868 61.4498 153.375C48.9744 154.349 35.7959 154.266 24.0208 149.563C23.6471 151.418 23.6056 153.278 23.3454 155.108H22.4845C22.706 153.07 22.8084 151.022 23.2181 149.007C22.3323 147.601 22.7669 145.854 23.1599 144.29C23.2457 143.983 23.2291 143.739 23.063 143.488C21.8202 141.716 21.9891 139.504 22.4292 137.503H22.4043C22.5869 137.215 22.5869 136.85 22.6589 136.526H22.6119C22.9662 135.665 23.0935 134.749 23.2679 133.844L23.2513 133.847C23.8768 130.926 24.6076 128.001 24.8235 125.019C21.8866 127.707 17.5519 128.468 13.8041 127.214L13.7985 127.231C13.5106 127.123 13.2255 127.012 12.9377 126.904L12.9432 126.913C6.31105 124.056 5.55261 115.868 6.50481 109.557L6.48266 109.566C6.75116 108.572 6.8259 107.553 6.90063 106.535V106.54C7.06671 106.355 7.00305 106.103 7.07779 105.89L7.09439 105.887ZM24.7515 78.1929L24.7294 78.1736C24.7737 78.2123 24.818 78.2511 24.8623 78.2898L24.8484 78.2815C24.9314 78.4005 25.056 78.4531 25.1889 78.4891H25.1861C27.1154 79.6489 29.4101 80.1444 31.6549 80.089C32.2694 80.1804 32.2584 78.0767 32.6265 77.5231L32.6154 77.5369L32.7345 77.3072L32.7234 77.3238C32.8231 77.2767 32.8092 77.1743 32.8314 77.0913L32.8258 77.0996C32.9891 76.9501 33.0805 76.7563 33.169 76.5598L33.158 76.5737C33.2078 76.5072 33.2549 76.438 33.3047 76.3716L33.2825 76.3771C33.3185 76.3328 33.3573 76.2858 33.3933 76.2415L33.3822 76.2581C33.4237 76.1806 33.4652 76.1031 33.5067 76.0256L33.4791 76.0477C33.6285 75.8595 33.85 75.7239 33.9164 75.4831L33.9081 75.4941C35.8651 72.8202 35.1177 69.255 35.2672 66.1466C35.0817 62.9772 38.2705 61.8589 40.3631 60.2258L40.3548 60.2313C40.3963 60.1926 40.4378 60.1538 40.4794 60.1151L40.4655 60.1317C40.5735 60.104 40.6704 60.0597 40.7174 59.9462V59.9407C40.7562 59.9019 40.7921 59.8604 40.8309 59.8217L40.8171 59.83C40.8558 59.7884 40.8946 59.7442 40.9333 59.7026L40.9112 59.7165C40.9472 59.6694 40.9831 59.6224 41.0191 59.5753L41.0025 59.5947C41.0413 59.5532 41.08 59.5089 41.1188 59.4674L41.1105 59.4784C41.2129 59.4369 41.2074 59.3373 41.235 59.2514L41.224 59.2708C41.2738 59.2099 41.3236 59.1463 41.3734 59.0854V59.0632C42.1928 57.7872 41.0717 57.2419 40.0171 57.9422V57.8979L39.9756 57.8896C39.7652 57.9726 39.5355 58.0003 39.3556 58.1525L39.3722 58.1359C39.2614 58.1719 39.1286 58.1692 39.0511 58.2799L39.0594 58.2743C38.9736 58.2882 38.8767 58.2826 38.8296 58.3823L38.8435 58.374C38.7604 58.3989 38.6552 58.3823 38.6054 58.4847L38.622 58.4709C38.5777 58.5041 38.5335 58.5401 38.4864 58.5733L38.4753 58.5401C38.3812 58.5954 38.2843 58.6508 38.1902 58.7061L38.1985 58.7006C38.1515 58.7311 38.1072 58.7615 38.0601 58.7947L38.0518 58.7615C37.9134 58.8446 37.7723 58.9304 37.6339 59.0134L37.6532 58.9996C37.5785 59.0438 37.5038 59.0881 37.429 59.1324L37.4456 59.1213C37.3626 59.1463 37.2629 59.1435 37.2159 59.2404L37.2297 59.2321C37.1827 59.2681 37.1356 59.304 37.0913 59.34L37.1079 59.3151C37.036 59.3622 36.964 59.4092 36.892 59.4563L36.9059 59.4452L36.5654 59.6666L36.582 59.6528C36.5377 59.6888 36.4907 59.7275 36.4464 59.7635L36.4519 59.7386C36.3855 59.7884 36.3163 59.8383 36.2498 59.8853L36.2637 59.8742C36.1557 59.9075 36.0644 59.9601 36.0118 60.0652V60.0542C35.9454 60.104 35.8817 60.1511 35.8153 60.2009L35.8291 60.1898C35.7239 60.2258 35.627 60.2756 35.58 60.3836C34.6361 60.7185 33.6618 62.9634 32.8286 62.5177C32.4715 62.2437 32.8064 61.7537 33.0306 61.4935C34.2984 60.0376 35.7599 58.8335 37.4761 57.9283C39.1147 56.7187 41.6392 57.0426 42.7298 55.1686C44.3906 51.1578 36.0284 55.1852 34.9101 56.1983C33.7642 57.0066 32.7428 57.9505 31.9262 59.1047C31.4889 60.0293 30.4841 59.2902 31.1705 58.5428C33.6396 55.1769 37.7086 52.6719 41.9077 52.5529C42.4889 52.6636 43.1394 52.0352 43.1671 51.4678C41.8855 49.0375 36.2886 51.9384 34.3482 52.7632C32.6736 53.6075 31.3034 54.8143 30.2488 56.3699C30.1049 56.5803 29.9249 56.8986 29.6288 56.7464C29.6177 53.1065 36.3246 50.5239 39.458 49.7876C40.8669 49.6188 41.4509 47.2494 39.6213 47.468C35.4831 48.1822 32.0508 50.9889 29.2938 54.0088C24.8567 60.1649 27.5112 68.9035 24.7875 75.8041C24.7654 75.8208 24.7598 75.8401 24.7764 75.8623C24.7239 75.9813 24.674 76.1003 24.6214 76.2194L24.6353 76.2C24.5412 76.2526 24.5412 76.3494 24.5246 76.438L24.5384 76.4214C24.4277 76.5072 24.4498 76.6456 24.4111 76.7591L24.4249 76.737C24.2837 76.8947 24.2478 77.0968 24.2035 77.2933L24.2145 77.2795C24.0927 77.4373 23.8907 77.5923 24.1869 77.775V77.7528C24.2311 77.7943 24.2782 77.8331 24.3225 77.8746L24.3003 77.8525C24.3446 77.8912 24.3917 77.9327 24.436 77.9715L24.4166 77.9604C24.4886 78.0075 24.5578 78.0545 24.6297 78.1044L24.6159 78.0795C24.663 78.1182 24.7072 78.1542 24.7543 78.1929H24.7515ZM9.57453 109.867C10.7952 110.883 12.4283 111.354 13.793 112.19C16.215 113.485 18.0779 115.437 19.8964 117.438C22.5039 120.854 26.7251 121.695 30.6252 122.678C30.8384 119.245 31.6494 116.043 33.4237 113.106C29.9886 110.368 29.0558 105.422 25.2221 102.936L25.2359 102.931C25.1557 102.867 25.0754 102.806 24.9951 102.742L25.0062 102.762C24.9619 102.72 24.9176 102.682 24.8761 102.64L24.8955 102.659C24.8539 102.621 24.8097 102.579 24.7681 102.54L24.782 102.549C24.674 102.466 24.5688 102.385 24.4609 102.302L24.4775 102.327L24.3363 102.219L24.3502 102.228L24.1619 102.075L24.1592 102.095C24.1149 102.059 24.0706 102.02 24.0263 101.984L24.0457 102.006C23.9986 101.97 23.9516 101.934 23.9073 101.895L23.9211 101.904L23.3924 101.544L23.4035 101.569C23.3565 101.538 23.3094 101.505 23.2596 101.475L23.2679 101.48C23.1931 101.436 23.1212 101.394 23.0464 101.35L23.0658 101.361C22.8859 101.184 22.6589 101.09 22.4264 101.004V101.015C22.1662 100.805 21.8617 100.683 21.5406 100.603L21.5545 100.614C20.9926 99.8858 14.0809 99.4762 16.3091 100.921L16.3395 100.913C16.7022 101.173 17.1201 101.306 17.5519 101.397L17.5381 101.386C18.6647 101.79 24.1758 104.395 23.8436 105.607C23.5696 105.995 23.1599 105.641 22.8637 105.441C20.1317 103.459 12.4339 101.43 9.92053 103.977C9.95929 104.406 10.4797 104.514 10.8257 104.578C13.1425 104.688 15.3652 105.253 17.5353 106.017C18.4405 106.424 21.9143 107.556 21.7039 108.641C21.4936 108.982 21.1974 108.813 20.9511 108.671C19.0688 107.484 9.74891 103.733 8.74966 106.576C8.80502 107.365 9.82365 107.528 10.488 107.548C13.8068 108.259 17.0122 109.621 19.7719 111.589C20.0321 111.791 20.1456 112.06 19.9518 112.331C19.3705 112.785 17.7512 111.21 17.026 111.01L17.0371 111.024C16.9568 110.988 16.8793 110.95 16.799 110.914L16.8156 110.925C16.7188 110.869 16.6247 110.814 16.5278 110.759L16.5001 110.767L16.5056 110.795L16.37 110.703L16.3838 110.712C16.1818 110.493 15.8856 110.473 15.6365 110.354L15.6448 110.366C15.5174 110.244 15.3597 110.191 15.1936 110.152L15.2074 110.166L14.6538 109.931L14.6732 109.945C14.6151 109.853 14.521 109.856 14.4296 109.851L14.4379 109.856C14.33 109.806 14.2248 109.759 14.1168 109.709L14.1307 109.729C13.948 109.651 13.7653 109.577 13.5798 109.499L13.5909 109.516C13.5023 109.397 13.3639 109.427 13.2449 109.402L13.2643 109.416C13.184 109.272 13.0318 109.358 12.9211 109.314L12.9294 109.319C12.4339 109.012 11.8747 108.879 11.3156 108.749L11.3294 108.768C11.2077 108.644 11.036 108.669 10.8866 108.636L10.9004 108.66C10.106 108.137 8.42857 108.575 9.36139 109.668L9.35032 109.654C9.39184 109.696 9.43336 109.74 9.47211 109.781L9.45274 109.762C9.49703 109.804 9.53855 109.845 9.58284 109.884L9.56623 109.865L9.57453 109.867ZM53.7824 18.7084C47.7454 25.6672 39.2587 31.6627 29.8696 32.4793C29.7118 32.4793 29.4433 32.4128 29.5125 32.7671C29.7256 33.8411 29.5679 34.94 29.709 36.0251C30.1879 40.8774 30.3568 45.7103 31.5525 50.4769C32.6071 49.5994 33.7254 48.9019 34.7994 48.1379V48.1268C34.9184 48.1213 35.0236 48.0798 35.0984 47.9801L35.09 47.9884C36.9225 46.9393 42.5139 44.8218 41.6253 48.852C41.3458 49.652 41.3347 49.6465 42.1872 49.6852C43.5463 49.7461 44.1996 50.4575 44.0169 51.6754C44.0363 52.1903 43.4799 52.4892 43.5519 52.9625C44.1497 54.2635 43.8896 55.5838 42.8626 56.6052C42.572 56.8931 42.1208 57.1256 42.5305 57.6405C42.5637 57.682 42.5222 57.7789 42.5277 57.8481C42.7104 60.8956 39.3085 61.8119 37.4041 63.4561C35.5717 64.8705 36.4436 67.4586 36.1751 69.4599C36.1668 69.7367 36.236 69.7865 36.5322 69.8031C41.0413 69.5069 37.7861 75.782 42.1042 74.4451C48.955 72.6846 45.0383 70.9463 48.8277 68.635C50.2394 68.3278 52.5783 67.597 51.6261 65.7673C49.3674 61.6153 47.8644 57.0786 47.2222 52.3951C46.7738 49.3641 46.5026 44.3817 42.428 44.3125C40.5237 44.3319 40.0199 45.8654 38.6193 46.3248C38.4393 46.1311 38.3618 46.0038 38.5611 45.6993C39.5023 44.2433 40.8337 43.4959 42.5277 43.3382C42.7491 43.3188 42.8903 43.2551 42.9983 43.0614C43.5629 42.505 44.0972 39.8865 44.5982 40.0608C45.3677 40.6172 44.2605 42.3666 43.9477 43.0697C43.7954 43.3243 43.7705 43.4461 44.1221 43.6039C46.2341 44.4564 47.1004 46.5491 47.6153 48.6334C48.072 48.4756 48.8055 47.9137 49.0713 48.5918C49.1709 48.924 49.1405 49.2174 48.7917 49.4167C48.4706 49.5994 47.9364 49.5191 47.8284 49.879C47.8838 50.7841 48.1108 51.8415 48.3101 52.7577C48.1191 53.5909 49.0906 53.2809 49.5861 53.3999L49.6083 53.3833L49.5917 53.3611C50.5411 53.721 53.4281 54.0282 53.1015 55.4897C52.9326 55.7914 52.6974 55.5645 52.5008 55.4731C51.2774 54.8005 49.957 54.4102 48.5453 54.4296C48.8277 55.808 50.5632 63.4727 51.9168 63.1488C59.4236 61.1365 64.9597 54.3493 66.5983 46.9117C66.698 46.3802 67.0467 46.2695 67.4702 46.6155C70.36 48.7635 73.809 43.9693 74.0193 41.3092C74.4512 39.8505 74.5397 38.162 73.9142 36.6756V36.6811C73.8948 36.6008 73.9225 36.4929 73.809 36.4569L73.8173 36.4652C73.8007 36.2908 73.7841 36.1137 73.6124 36.0085V36.0334C72.6187 34.1871 70.1358 35.0065 69.0397 36.2963C68.1705 36.8057 68.0737 39.3329 66.7893 38.0734C65.3887 36.623 65.1368 34.4639 64.979 32.5402C64.9707 32.3685 65.0233 32.1969 64.8019 32.0364C61.447 29.6282 58.7538 26.3896 56.938 22.686L56.9518 22.6999C56.9158 22.531 56.8577 22.3733 56.7331 22.2515L56.747 22.2681C56.6611 21.9996 56.5975 21.7228 56.4037 21.5041L56.4176 21.5235C56.1629 20.7291 55.9083 19.9374 55.6536 19.143H55.6674C55.6231 18.8191 55.5595 18.4953 55.4211 18.1963C55.5263 17.604 55.2439 17.0172 55.4322 16.3473C55.1637 16.5632 55.0917 16.804 54.9727 17.0116L54.9782 17.0061C54.9339 17.0808 54.8896 17.1556 54.8481 17.2303L54.8592 17.2109C54.7457 17.2995 54.671 17.413 54.6322 17.5486L54.6543 17.532C54.6184 17.5763 54.5824 17.6206 54.5464 17.6649L54.5519 17.6566C54.4772 17.7645 54.3997 17.8725 54.3249 17.9804L54.3333 17.9721C54.2834 18.0386 54.2336 18.105 54.1838 18.1714L54.2032 18.1631C54.1644 18.2074 54.1284 18.2545 54.0897 18.2987L54.1007 18.2794C53.9873 18.4288 53.8738 18.5783 53.7658 18.7306L53.7935 18.7112L53.7824 18.7084ZM52.4925 65.3771C52.5091 65.4629 52.4925 65.5597 52.5894 65.6123L52.5728 65.6206C54.0675 69.7505 48.216 68.3084 47.7454 71.3864C47.3274 74.1046 44.5732 74.4672 42.4391 75.3142C50.7985 80.6537 62.5653 76.4242 67.747 68.5215C62.2525 67.4752 61.5605 63.0934 61.746 58.3518C61.6879 58.3076 61.6325 58.266 61.5744 58.2217C59.1468 61.0673 55.7422 63.2651 52.0663 64.0678C51.5154 64.0429 52.4095 65.139 52.4981 65.3826L52.4925 65.3743V65.3771ZM8.2016 105.35C8.48947 105.175 8.76351 104.951 9.07352 104.843C9.60221 104.799 8.55037 103.648 9.44443 102.895C13.3086 97.1704 12.9072 89.2096 18.327 84.4154C20.2867 82.0377 20.212 77.966 23.4367 76.7591C23.8492 75.8097 25.7868 70.138 24.7488 70.0578C20.6964 71.3643 17.9367 74.8713 16.0627 78.5196C12.2318 87.0284 9.92884 96.2625 8.17392 105.391C8.18222 105.378 8.19329 105.366 8.2016 105.353V105.35ZM68.1761 134.55C81.5732 134.289 83.7378 111.243 86.0906 101.046C87.7764 90.7376 89.8717 75.0596 77.4212 70.866C74.5619 70.0218 71.5088 69.3658 68.6439 68.743C63.9576 75.9509 54.6073 80.3271 46.1012 77.9438C44.3712 77.4594 42.7021 76.8172 41.3125 75.6215C40.2302 75.3474 39.0372 75.0485 38.7438 73.7807C38.5058 72.405 38.3701 70.6141 36.5045 70.8466C36.2111 70.8605 36.1613 70.9629 36.1502 71.2286C36.0533 73.2188 35.5412 75.0651 34.2763 76.6622C33.6673 77.5452 32.7954 78.8545 33.1303 79.9313C34.4506 81.6253 33.4459 83.8923 33.1746 85.7773C32.6348 87.4104 33.3185 88.9134 33.5704 90.5355C33.9911 93.3201 33.4818 96.0189 32.7954 98.7011C32.1698 101.854 30.7581 105.134 30.9297 108.334C31.4806 109.458 32.9725 112.61 34.398 112.284C35.8402 111.362 37.6034 112.605 39.1922 112.533C40.5015 112.882 41.4426 111.821 42.7104 111.68C47.189 110.18 64.5168 117.283 65.4108 114.086C67.7387 104.697 68.965 95.0003 72.4056 85.9157C72.9647 84.7421 74.4096 80.3769 75.5584 80.2883C76.0068 80.5319 75.6054 80.9416 75.4587 81.2156C70.2881 91.3936 69.0397 102.903 66.4322 113.878C66.2855 114.559 66.2855 114.54 66.9415 114.592C68.4944 114.722 70.0362 114.949 71.5392 115.373C72.2174 115.65 73.6567 115.818 73.618 116.721C73.4768 116.948 73.272 116.942 73.0505 116.851C70.8527 115.832 68.4224 115.65 66.0585 115.334C65.6406 115.276 65.1839 115.201 64.7825 115.478C67.5034 116.618 69.9919 118.091 71.7717 120.555C72.1426 120.856 72.3613 121.919 71.5918 121.559C67.2294 115.697 59.7032 115.47 53.1402 113.928C50.3971 113.352 47.6817 112.591 44.8556 112.48C41.3457 112.353 40.0392 114.482 36.2028 112.859C32.8175 112.19 31.6411 120.233 31.5498 122.672C31.4031 125.197 34.47 125.435 36.2858 126.082C37.1965 126.323 37.9826 126.652 38.7189 127.292C40.3299 128.698 42.3505 129.332 44.3518 129.957C52.1022 132.172 60.0271 134.777 68.1761 134.547V134.55ZM78.0911 130.096C70.1469 140.847 53.2094 133.005 42.7187 130.375C40.7506 129.711 38.9016 128.834 37.4373 127.303C35.9537 126.741 34.2707 126.594 32.812 125.847C31.8404 125.448 31.0072 124.892 30.7221 123.788C30.6917 123.671 30.6889 123.538 30.4813 123.494C29.2828 123.303 27.9846 122.797 26.8469 122.719C26.5646 123.287 25.9944 123.691 25.8975 124.366C25.3356 129.221 24.2395 133.977 23.1904 138.74C22.1579 142.123 25.2775 144.025 24.4664 144.426C23.6111 144.492 23.9322 146.372 23.6831 147.036C23.5779 148.105 23.7329 148.354 24.7155 148.835C31.0543 151.62 38.0989 152.259 44.9359 152.76C55.1387 153.325 65.5824 152.78 75.4227 149.837C76.5106 149.278 79.4031 149.048 79.5111 147.709C79.3229 146.972 79.3367 143.955 78.3457 144.072C78.235 144.08 78.1603 143.861 78.2378 143.709C81.8085 139.621 78.3374 134.788 78.0939 130.096H78.0911ZM32.2694 88.2713C28.7651 89.9874 24.6685 88.9965 21.4908 87.0035C20.9068 86.5219 19.3539 85.6057 19.758 84.7642C19.9573 84.6009 20.1345 84.7642 20.2646 84.9109C23.1378 87.9834 27.8296 89.074 31.8238 87.8422C32.0093 87.7813 32.1366 87.7453 32.1698 87.5156C32.1477 86.1011 33.6535 81.6945 32.5462 80.9831C29.363 81.3734 25.7646 80.6205 23.4257 78.3286C23.0907 77.9687 22.9108 78.0518 22.6506 78.2704C20.5857 80.197 20.7711 83.3663 18.7366 85.3289C16.9513 86.879 15.8164 88.93 14.9666 91.1195C13.757 94.8536 12.791 98.571 11.0111 102.136C12.6304 101.765 14.2248 101.904 15.8967 101.918C12.7577 99.49 17.6156 98.4769 19.5587 99.0471C24.0734 99.764 27.4531 103.119 30.0135 106.731C30.9187 100.578 34.1489 94.5297 32.2694 88.2685V88.2713ZM7.86944 106.919C6.87018 112.832 5.99549 120.447 11.1938 124.698C15.559 128.147 22.3683 127.231 25.7425 122.833C25.8975 122.647 26.0968 122.5 25.6622 122.379C19.4646 120.646 16.9568 113.706 10.7869 111.75C9.43336 111.201 7.60094 109.931 8.41473 108.256C8.49224 108.071 8.52545 107.957 8.3483 107.808C8.0798 107.578 7.99953 107.24 7.86944 106.919ZM15.9576 101.973C16.0102 101.992 16.0489 102.031 16.0877 101.976C16.0378 101.923 16.0074 101.906 15.9576 101.973Z" fill="#173977"/>
<path d="M23.3621 155.102C23.6223 153.272 23.661 151.412 24.0375 149.558C35.8126 154.263 48.9883 154.344 61.4665 153.369C67.2156 152.863 72.9399 151.778 78.3569 149.757C79.3063 148.988 79.6745 154.479 79.7104 155.102H23.3648H23.3621Z" fill="#2C599F"/>
<path d="M24.2588 0.0575642C26.6144 -0.396389 29.3464 1.90936 28.1728 4.33968C27.1652 5.67386 25.4131 6.25237 24.1426 7.30698C21.1559 9.44942 23.0935 12.3171 18.6453 13.809C14.5902 15.2207 16.6274 15.6387 14.9113 17.9361C13.2006 19.5277 9.42783 22.9241 7.28262 20.4882C6.6183 19.3229 7.59264 18.0884 8.38152 17.2469C9.9842 15.5224 4.28763 15.0159 6.6183 11.041C8.57805 8.0322 12.1322 7.05509 15.0829 5.35277C18.0474 3.45114 20.2591 -0.432374 24.2616 0.0575642H24.2588Z" fill="#81A5D4"/>
<path d="M10.3523 47.0888C10.2416 49.0735 8.73306 50.499 8.07704 52.2927C6.73179 55.916 13.0733 56.6025 12.0325 60.3531C12.3841 62.3987 7.21342 64.5328 10.0091 65.8864C13.5605 67.2676 8.10472 70.1546 4.94088 67.3728C1.30925 65.2719 7.40164 60.7019 3.79769 58.8363C2.27252 58.0446 0.417953 57.1561 0.251873 55.2406C-0.141185 52.9432 0.71413 51.0277 2.22823 49.3835C3.83645 47.5677 9.62159 42.0344 10.3523 47.0861V47.0888Z" fill="#81A5D4"/>
<path d="M84.7565 7.11876C84.7897 7.96577 84.452 8.5858 84.2472 9.24735C83.0957 12.724 88.7258 12.8098 87.5882 16.6518C87.4609 18.9216 81.3962 23.9123 80.6626 19.9263C81.5788 13.2859 75.7024 16.4885 75.9709 10.6673C75.6941 7.19072 84.2555 2.08375 84.7538 7.11876H84.7565Z" fill="#81A5D4"/>
<path d="M16.1569 53.876C15.1245 54.1998 14.1667 52.1128 13.6989 51.3848C13.71 51.3931 13.6242 51.227 13.5965 51.1633L13.6131 51.1827C13.5854 51.0637 13.5965 50.9308 13.4858 50.845L13.5024 50.8505C12.9322 49.1676 13.1675 47.4182 13.4886 45.7131L13.4803 45.7242C13.6851 45.356 13.7211 44.9381 13.818 44.5395L13.8069 44.5478C13.9314 44.4758 13.9093 44.3346 13.9508 44.2239L13.9287 44.2295C14.0505 44.0634 14.1031 43.8696 14.1252 43.6703L14.1197 43.6759C14.3024 43.5458 14.3051 43.3299 14.3716 43.1444L14.3549 43.1582C14.4629 42.9396 14.5736 42.7209 14.6816 42.505L14.6705 42.5133C14.712 42.4358 14.7508 42.3583 14.7923 42.2808L14.7785 42.3002C14.939 42.1479 15.0414 41.9597 15.1134 41.7549C16.6967 39.2 19.5477 37.279 20.893 34.4888C20.9926 34.4252 21.0065 34.32 21.0286 34.2176L21.0175 34.2397C21.167 34.0958 21.2113 33.8909 21.2777 33.7083L21.2501 33.6944C21.3442 33.6391 21.3054 33.5394 21.3303 33.4619L21.322 33.473C21.5767 33.0771 21.6182 32.637 21.6404 32.1803C21.8673 31.9949 21.6791 31.7374 21.7538 31.5271L21.7511 31.5326C22.2161 29.2573 21.9753 26.8464 22.5455 24.5517L22.5206 24.5628C22.6313 24.4686 22.6092 24.3358 22.6175 24.214L22.6341 24.1918C22.7116 23.6521 22.9413 23.0708 23.0686 22.5172L23.0548 22.5227C23.1683 22.4369 23.1489 22.3013 23.1821 22.185L23.1683 22.2044C23.2984 22.0411 23.3565 21.8501 23.3897 21.648L23.3759 21.6619C23.4506 21.4792 23.5254 21.2937 23.6029 21.111C23.589 21.1055 23.6804 20.956 23.7053 20.8924L23.6942 20.9062C23.8437 20.5824 23.9904 20.2557 24.1399 19.9319L24.126 19.9457C24.1648 19.8682 24.2035 19.7907 24.2423 19.7132L24.2312 19.7298C30.0247 8.79617 47.2749 -1.80255 58.5241 7.13536C58.6459 7.39832 58.7677 7.66405 58.7704 7.96299C50.0927 1.43603 37.3543 6.17209 30.1271 13.3662C27.3148 16.2172 24.9786 19.68 23.7773 23.5275C22.6617 26.8187 23.2846 30.3728 22.277 33.6557C21.2113 36.9136 18.2745 38.89 16.3867 41.6165C14.2166 44.6364 13.0844 48.9683 15.2241 52.3038C15.512 52.7577 16.0877 53.1148 15.9189 53.8012C15.8995 53.8815 16.0628 53.8677 16.1486 53.876H16.1569Z" fill="#173977"/>
<path d="M93.3401 52.9985C94.3228 52.8241 94.6715 53.6462 95.0646 54.2164C97.0382 57.5381 94.9483 60.4362 92.3215 62.4679C91.361 63.7356 91.1783 65.7341 89.249 65.9224C86.9017 66.1521 85.5786 63.6028 87.2367 61.9945C87.9148 61.2832 88.7674 60.7739 89.4954 60.1123C91.4247 58.3961 88.3411 53.6656 93.3401 53.0013V52.9985Z" fill="#709BD4"/>
<path d="M90.5998 28.3964C94.3007 28.5542 93.5727 30.9679 90.8849 32.3076C89.3321 33.0688 87.1592 35.6071 85.5288 33.8245C84.3441 31.0454 88.2276 28.7452 90.5971 28.3964H90.5998Z" fill="#81A5D4"/>
<path d="M92.6563 97.068C92.3518 98.488 90.9872 99.7585 91.8176 101.267C93.3926 103.996 89.3209 105.563 90.6661 108.24C91.9145 110.742 88.6898 112.051 88.9527 114.429C89.069 115.508 88.5901 117.701 87.231 117.524C87.1009 117.382 87.0594 117.186 87.2006 117.036C88.7534 115.265 87.4469 112.669 89.3652 111.027C91.0177 109.076 88.1638 106.476 90.3672 104.603C92.3518 102.814 89.8053 100.647 91.0093 98.6624C91.4993 98.1752 91.7484 96.3206 92.3075 96.3345C92.6702 96.4092 92.6148 96.7635 92.6563 97.068Z" fill="#173977"/>
<path d="M8.17952 86.4333C8.0771 86.544 7.97192 86.6492 7.8695 86.7572C7.70342 86.9039 7.48751 87.0976 7.30206 87.2609C7.1249 87.3468 6.93668 87.5571 6.75953 87.69L6.77614 87.6845C6.55193 87.8284 6.33879 87.9834 6.23361 88.2436L6.24468 88.2381C5.12364 89.8297 6.8398 91.7839 5.58035 93.3949L5.59143 93.3921C5.51946 93.5056 5.44472 93.6218 5.37275 93.7353C3.29398 95.4044 6.02601 97.6133 4.54512 98.3468C3.99429 98.3192 4.12992 96.805 3.74517 96.3373C3.067 94.7124 4.54512 93.6301 5.11533 92.2821C5.20944 90.2836 4.1659 88.0415 6.36924 86.7849C9.12341 85.3289 6.44121 82.3422 8.2155 80.3133C8.19336 80.3492 8.28193 80.2413 8.31515 80.2053C8.43417 80.0973 8.61133 79.9174 8.7525 79.7846C8.73866 79.7929 8.84384 79.7071 8.87429 79.6794C8.8383 79.7237 8.94902 79.624 8.98777 79.5963C8.98777 79.5963 9.00715 79.6185 9.00715 79.6157C9.07082 79.5714 9.13725 79.5271 9.20091 79.4828L9.18984 79.4967C9.33378 79.4219 9.47771 79.3472 9.62442 79.2725L9.62719 79.2974C9.80711 79.2531 9.9898 79.1922 10.1697 79.2974H10.2057L10.2085 79.2614C10.3053 79.4164 10.4022 79.5742 10.3275 79.7707L10.3386 79.7541C10.2555 79.8455 10.1725 79.934 10.0867 80.0254L10.0562 80.0337C10.0009 80.0863 9.94551 80.1361 9.89291 80.1859L9.90952 80.1749C9.79603 80.2496 9.68531 80.3271 9.57182 80.4018C9.59674 80.388 9.48325 80.4766 9.45003 80.507L9.46387 80.4821C9.2535 80.5624 9.10403 80.7285 8.97947 80.9084C8.92411 80.9914 8.86598 81.0745 8.81062 81.1575L8.8217 81.1437C8.78018 81.2212 8.73589 81.2959 8.69437 81.3734C8.69437 81.3734 8.71097 81.3568 8.71097 81.3596C7.88887 82.8709 9.23136 84.5566 8.37605 86.1012L8.38989 86.0873C8.3456 86.1621 8.30131 86.2368 8.25702 86.3115C8.31515 86.2783 8.20443 86.3918 8.17675 86.4333H8.17952Z" fill="#173977"/>
<path d="M91.6406 78.5002C91.7624 78.6137 91.8703 78.741 91.9866 78.86L92.0309 78.8711C92.0696 78.9016 92.0973 78.9486 92.1416 78.968C92.1804 79.004 92.2164 79.0372 92.2551 79.0732L92.2413 79.0621C92.28 79.1008 92.3188 79.1396 92.3575 79.1784L92.3824 79.1534C92.3188 79.1922 92.4461 79.242 92.4765 79.2891C93.6059 80.3105 94.0349 81.2488 93.116 82.7076C91.8178 84.8805 95.4771 86.1095 92.9969 89.2207C92.6343 89.7522 91.9146 89.2899 92.3603 88.7612C93.08 87.7011 93.2239 86.1842 92.3492 85.1711C90.5943 83.3664 94.2232 81.3512 91.8039 79.8842C88.9086 78.3452 92.4295 75.6325 89.9272 74.1295C89.6338 73.9385 89.1051 73.8029 89.3681 73.3268C89.822 72.5683 91.3721 74.0326 91.6323 74.5309C91.6185 74.517 91.7098 74.6859 91.7375 74.7468L91.7181 74.7302C91.7486 74.8464 91.7292 74.9821 91.8399 75.0706L91.8205 75.054C91.9506 75.6796 91.8288 76.2775 91.624 76.8671L91.6351 76.856C91.5105 76.9695 91.541 77.1383 91.4828 77.2767L91.4939 77.3016C91.4939 77.3016 91.5216 77.2933 91.5188 77.2933C91.3555 77.7168 91.314 78.1265 91.6406 78.5002Z" fill="#173977"/>
<path d="M6.58231 129.85C6.31105 129.382 6.15881 128.884 6.14497 128.335C6.19202 125.584 1.539 126.135 2.32788 122.941C2.56039 122.431 2.29467 120.92 3.03926 121.025C4.03851 121.822 2.34726 123.926 3.86966 124.732L3.86413 124.72C4.03021 124.903 4.23781 125.006 4.47586 125.055C8.61403 126.558 5.33948 129.913 9.22853 129.958C10.106 129.927 10.8893 130.215 11.526 130.846C11.4678 130.816 11.5896 130.926 11.6201 130.965L11.5952 130.948C11.6754 131.059 11.753 131.167 11.8305 131.278C11.8166 131.253 11.908 131.364 11.9384 131.397C11.9384 131.397 11.9135 131.38 11.9163 131.38C12.3315 132.252 13.3113 131.859 13.984 132.249C13.9535 132.249 14.0227 132.504 13.9508 132.595H13.9425C13.8871 132.645 13.8317 132.695 13.7764 132.745L13.7874 132.737C13.1425 132.933 12.5142 132.914 11.9135 132.579L11.8941 132.598C11.8526 132.565 11.8111 132.529 11.7696 132.496L11.7834 132.526C11.5454 132.319 11.3294 132.097 11.1218 131.859L11.1551 131.848C11.025 131.701 10.8949 131.557 10.7648 131.411C10.7648 131.389 10.7537 131.375 10.7288 131.372C9.87071 130.417 8.50331 131.145 7.46254 130.58L7.47084 130.591C7.35735 130.519 7.24387 130.447 7.13038 130.373C7.07225 130.326 6.92278 130.209 6.8259 130.132L6.84527 130.151C6.77054 130.074 6.6958 129.993 6.62383 129.916L6.64044 129.902C6.62937 129.877 6.61276 129.861 6.58508 129.852L6.58231 129.85Z" fill="#173977"/>
<path d="M93.257 43.2247C93.4369 43.8918 92.7892 45.0986 92.1138 44.2654C91.6239 43.6454 92.0363 42.4026 91.3471 41.9375C90.1734 40.5757 86.6387 41.5666 86.4781 39.9003C86.8795 37.9378 93.7608 39.8228 93.257 43.2274V43.2247Z" fill="#709BD4"/>
<path d="M8.6363 35.1172C9.1816 35.1282 9.67984 35.5241 10.1642 35.9559C11.3683 37.088 12.0797 33.9712 14.2858 35.3386C14.7121 35.4715 14.5128 36.2078 14.0865 36.0611C13.0928 35.6985 12.3731 36.1746 11.6064 36.7282C9.94834 37.9931 8.79408 34.893 7.16095 36.4984C5.59149 37.3454 6.5077 34.9788 8.63907 35.1172H8.6363Z" fill="#173977"/>
<path d="M8.22648 27.1813C9.30047 27.1564 9.98971 27.8511 10.6596 28.6096C10.9557 28.8864 11.3045 28.939 11.6394 28.7148C12.3231 28.1169 14.7756 28.2553 14.615 29.3459C14.4711 29.6587 14.1722 29.6697 13.8871 29.5175C12.5086 28.5514 11.1578 30.7548 9.90113 29.1327C8.09639 26.8076 7.83066 28.8975 6.82864 28.1529C6.63488 27.5245 7.7227 27.1758 8.22371 27.1841L8.22648 27.1813Z" fill="#173977"/>
<path d="M88.7425 44.4398C88.6705 43.1472 90.0545 42.9147 90.0157 44.2599C90.049 45.2342 88.676 45.6079 88.7425 44.4398Z" fill="#709BD4"/>
<path d="M65.3223 134.55C58.1642 134.068 51.2054 131.973 44.3546 129.957C42.3533 129.332 40.3327 128.695 38.7217 127.292C36.726 125.235 31.6467 126.29 31.5526 122.672C31.7242 119.406 32.4272 115.818 34.5282 113.25C36.0118 112.026 37.9826 113.778 39.7265 113.513C41.4565 113.266 43.0038 112.179 44.8584 112.483C50.9314 113.05 56.8106 114.864 62.7951 115.993C66.4461 116.699 69.2113 118.811 71.5918 121.562C72.3364 121.922 72.1648 120.859 71.7717 120.557C69.9891 118.094 67.5035 116.621 64.7825 115.481C67.0744 115.057 69.6321 115.854 71.9074 116.403C72.4527 116.48 73.164 117.23 73.618 116.726C73.7619 116.491 73.5709 116.35 73.4325 116.228C71.5531 114.974 69.1283 114.875 66.9416 114.598C66.2855 114.542 66.2855 114.565 66.4323 113.884C69.0397 102.906 70.2881 91.3963 75.4587 81.2184C75.6054 80.9443 76.0068 80.5347 75.5584 80.2911C75.1902 80.089 75.0048 80.5873 74.8359 80.8475C71.6776 86.1676 70.2687 92.3098 68.8598 98.2748C67.6834 103.54 66.6786 108.843 65.4109 114.088C65.3334 114.642 64.9486 114.67 64.5057 114.78C63.7251 115.362 62.9086 115.055 62.1003 114.88C55.6592 113.867 49.2817 111.185 42.7076 111.683C41.4426 111.821 40.496 112.887 39.1895 112.536C37.5979 112.61 35.843 111.362 34.3953 112.287C32.9753 112.66 31.4778 109.419 30.927 108.337C30.7526 105.137 32.1698 101.857 32.7926 98.7039C33.4791 96.0217 33.9884 93.3229 33.5677 90.5383C33.3185 88.919 32.6265 87.4104 33.1718 85.7801C33.4376 83.8895 34.4562 81.6308 33.1276 79.934C32.7788 78.8462 33.6784 77.5591 34.2707 76.665C35.5357 75.0679 36.0478 73.2216 36.1447 71.2314C36.1585 70.9684 36.2056 70.8633 36.499 70.8494C38.3757 70.6307 38.4892 72.3967 38.7383 73.7863C39.0428 75.0651 40.2137 75.3447 41.307 75.627C42.6966 76.8228 44.3684 77.4677 46.0957 77.9494C54.6018 80.3326 63.9521 75.9592 68.6384 68.7485C71.506 69.3713 74.5564 70.0273 77.4157 70.8716C89.8718 75.0706 87.7625 90.7376 86.0851 101.051C84.3468 110.244 82.6334 119.721 78.2904 128.095C75.7964 132.977 70.576 134.973 65.3195 134.555L65.3223 134.55ZM51.6511 82.3173C53.132 82.356 59.5095 81.5671 59.8278 80.2413C59.6866 79.898 59.2769 80.1333 59.014 80.2274C55.7007 81.3762 52.3016 81.7471 48.8139 81.3955C44.2467 80.9831 39.3445 79.1285 37.0388 74.9018C36.9419 74.7191 36.881 74.434 36.6042 74.5558C36.1281 75.1703 37.1218 76.2913 37.4761 76.856C40.8697 81.0412 46.4777 82.3948 51.6511 82.32V82.3173ZM37.0886 123.622C37.274 124.35 36.8505 125.515 37.5508 125.756C38.0269 125.722 37.8276 125.127 37.8608 124.809C37.7363 121.271 38.5888 117.723 40.3299 114.637C40.4157 114.484 40.579 114.266 40.3133 114.127C37.9633 115.985 37.2657 120.779 37.0886 123.622ZM63.775 78.4642C65.4967 77.9244 70.767 73.324 70.3158 71.5885C70.0362 71.4307 69.9476 71.6964 69.8314 71.8653C68.6937 73.5261 67.3817 75.0236 65.8011 76.283C65.5188 76.7536 62.4629 78.1653 63.775 78.4642ZM70.0168 85.0106C69.9006 86.0735 70.6618 86.1011 70.7614 85.0825C70.7005 84.1165 71.9876 80.8751 71.5392 80.6094C70.3822 81.2599 70.277 83.7649 70.0196 85.0106H70.0168ZM35.771 123.538C37.847 123.494 33.4819 121.725 33.385 122.462C33.4154 123.19 35.1869 123.312 35.771 123.538ZM36.0312 120.4C37.9743 120.303 33.8251 118.562 33.7033 119.37C34.005 120.101 35.3087 120.167 36.0312 120.4ZM35.4139 115.938C33.814 116.297 37.4512 117.546 37.6477 116.926C37.5647 116.153 36.0284 116.212 35.4139 115.938ZM50.8041 95.9414C51.4213 95.8861 51.4047 94.837 50.7404 94.8508C49.9654 94.8259 50.0678 95.922 50.8041 95.9414ZM76.5438 122.34C76.0317 122.359 75.9155 123.383 76.5687 123.359C77.2275 123.403 77.4102 122.215 76.5438 122.34ZM63.2463 129.221C62.4518 129.091 62.4878 130.198 63.1439 130.209C63.75 130.279 63.8552 129.21 63.2463 129.221ZM44.8584 100.39C44.9608 99.7391 43.8508 99.7004 43.9228 100.376C43.8342 101.054 44.911 101.129 44.8584 100.39ZM44.8113 85.3455C44.5234 85.2874 44.3795 85.5503 44.3795 85.8714C44.6259 87.1419 46.2728 85.3344 44.8113 85.3455ZM38.8933 97.8126C38.7743 97.2507 37.8138 97.569 37.9079 98.1115C38.0325 98.751 38.9902 98.4658 38.8933 97.8126ZM59.2548 100.644C58.6458 100.575 58.5794 101.602 59.205 101.572C59.8029 101.63 59.8887 100.6 59.2548 100.644ZM78.2323 90.4995C78.7499 90.4884 78.8606 89.5473 78.224 89.6304C77.5873 89.6027 77.4738 90.5659 78.2323 90.4995ZM61.519 120.311C61.4886 119.611 60.6111 119.876 60.6056 120.438C60.5253 121.072 61.4997 120.787 61.519 120.311ZM54.2198 87.9363C54.7457 87.7786 55.028 87.0091 54.2835 87.0118C53.6773 86.9509 53.68 87.8007 54.2198 87.9363ZM62.9086 87.5294C62.9778 86.9205 61.9924 87.0201 62.0837 87.6042C62.0809 87.8228 62.0588 88.0609 62.3882 88.0221C62.6622 87.9889 62.9169 87.9087 62.9086 87.5294ZM37.7612 104.395C37.8442 103.786 36.9834 103.971 36.9696 104.459C36.9696 104.973 37.8913 105.098 37.7612 104.395Z" fill="#8CAAD4"/>
<path d="M16.1541 53.8732C16.0683 53.8649 15.905 53.8787 15.9244 53.7985C16.0932 53.1092 15.5175 52.7549 15.2296 52.301C13.0872 48.9683 14.2248 44.6281 16.3922 41.6137C18.2799 38.8872 21.2168 36.9108 22.2825 33.6529C23.2873 30.3728 22.6672 26.8159 23.7828 23.5247C24.9841 19.6772 27.3203 16.2144 30.1326 13.3634C37.3239 6.24129 50.0872 1.33361 58.7427 7.99068C60.6056 8.85983 63.0055 8.08202 64.9874 9.01207C70.6507 11.2237 73.6125 17.1971 75.229 22.7193C76.6019 27.71 76.2615 33.0633 78.6419 37.7772C80.646 41.6967 85.2021 43.6316 86.2152 48.1656C87.375 51.9079 86.9737 56.7132 83.6908 59.2459C84.8284 55.9575 83.7434 53.1923 81.8251 50.5073C81.5068 49.4444 79.9374 45.3394 78.9603 45.201C77.9056 45.6218 81.684 49.9952 81.2383 53.1175C81.4515 57.8758 78.2378 63.5142 73.1004 63.8657C76.4967 59.877 77.269 54.2054 74.8442 49.5191C74.6892 48.9545 74.0194 49.1593 74.2962 49.724C76.9756 55.2351 75.157 64.5577 67.9657 64.8899C67.9131 64.7349 68.082 64.6712 68.0875 64.5439C68.2065 64.1481 67.7775 63.8214 67.4536 64.1259C66.5568 64.8179 65.5216 65.1667 64.4282 65.4158C62.4961 65.3881 62.6484 59.7829 62.4851 58.2743C62.4629 57.5574 62.6761 57.0038 63.0996 56.4696C64.968 53.9673 66.3852 51.1107 67.2101 48.1019C67.3651 47.3379 69.5739 49.0375 71.6195 47.1469C74.8166 44.6557 75.957 40.3958 75.0214 36.5206C73.5848 32.3243 68.7352 33.9546 67.3706 37.3288C66.2883 36.0583 66.1278 34.5221 65.8371 33.0329L65.8537 33.019C66.9194 33.2266 68.6467 34.9068 69.5822 34.2536C69.6487 34.0127 69.4466 33.902 69.2584 33.8273C67.5035 33.1381 66.0254 32.017 64.5805 30.8406C59.6396 26.7467 53.6579 18.9271 57.3753 12.4029C57.5663 12.0264 58.0175 11.4811 57.5248 11.1739C56.7304 11.0272 56.0079 13.2748 55.6868 13.917C51.795 21.565 44.219 26.874 36.4492 30.0932C28.8814 33.3263 28.2808 28.9916 28.8233 36.0417C29.1527 41.0075 29.4849 46.0342 30.7388 50.8699C25.9889 56.1485 26.0968 57.873 25.5183 64.9037C25.1446 65.7507 22.7807 63.2097 23.6111 61.9918C23.5226 59.4618 21.4466 65.3134 16.633 62.5094C18.5346 61.6762 19.8522 60.3891 20.3366 58.3325C21.4299 54.6704 18.4709 51.501 18.6481 47.8639C18.7118 46.3055 19.0716 44.7941 19.5532 43.3133C19.6584 42.9922 19.938 42.5521 19.5394 42.35C19.1546 42.1562 18.9194 42.6213 18.7339 42.898C16.4614 46.1255 15.2351 49.9759 16.1597 53.8704L16.1541 53.8732ZM26.9106 31.5492C36.4381 29.1632 45.6888 22.5919 51.6594 14.8166C51.7756 14.6505 51.8199 14.4346 51.6179 14.2879C51.2386 14.0748 51.02 14.6782 50.7764 14.8775C46.2119 20.6737 40.1334 24.9613 33.5787 28.2387C31.2508 29.4981 28.9257 30.7852 26.1798 30.8877C25.7979 30.8877 25.7785 31.4634 26.1439 31.4911C26.3875 31.5354 26.6421 31.5326 26.9106 31.5492ZM59.3932 15.7549C59.944 20.0564 62.8172 23.5663 65.4856 26.8076C66.6537 28.0421 69.5961 32.1554 71.3261 31.5686C71.4728 31.3139 71.1489 31.1894 70.9635 31.0897C70.0224 30.5804 69.2473 29.8607 68.5221 29.0968C65.4413 25.5509 62.0782 21.9387 60.4838 17.4434C60.1489 16.8262 60.243 15.3951 59.6479 15.1155C59.3628 15.1709 59.396 15.5307 59.3987 15.7549H59.3932ZM23.3676 58.7228C24.591 60.4777 24.7266 53.7763 24.2588 53.1812C23.9793 52.0712 23.506 51.0277 23.1932 49.926C21.9974 46.0536 23.0991 43.9693 24.2229 40.5923C22.6617 40.7445 22.0417 45.0017 21.9614 46.3802C21.8396 50.6623 24.9038 54.3853 23.3648 58.7228H23.3676ZM48.0942 12.3752C47.2333 11.5808 42.5775 16.2089 41.4399 16.8705C40.7036 17.7424 35.7682 20.4412 36.2111 21.1C37.0387 21.3961 38.9736 19.5969 39.7985 19.1236C42.5277 16.8898 45.6943 14.8581 48.0942 12.378V12.3752ZM27.3729 26.1018C27.204 26.6997 27.9043 26.8768 27.9791 26.3398C28.3666 25.1745 29.0614 24.1725 29.6786 23.1289C31.2066 20.6017 33.4182 18.6835 35.7987 16.9895C35.9703 16.8511 36.1558 16.6186 35.9703 16.3861C32.6708 17.2469 28.4856 22.7691 27.3756 26.1018H27.3729ZM48.7447 9.33316C48.9661 9.37745 49.1682 9.29718 49.2235 9.09788C48.8139 8.17613 46.7434 8.67161 45.8825 8.68268C43.9117 8.86814 37.4207 10.8999 36.7343 12.5828C36.892 12.8956 37.1772 12.7046 37.382 12.5883C40.8614 10.695 44.684 9.001 48.7447 9.33593V9.33316ZM64.5417 16.8151C66.1056 19.1402 68.0322 21.3297 69.2445 23.915C69.8258 24.5738 70.2244 27.2975 71.0244 27.1951C72.2257 26.7024 64.6469 14.1716 64.5417 16.8151ZM71.1185 55.7555C71.1019 55.1022 70.9884 52.2401 70.0113 52.1737C69.6874 52.2761 69.8286 52.5446 69.8674 52.7605C71.1545 55.8357 70.2493 58.8003 68.7685 61.607C68.583 62.3018 69.2778 61.9503 69.4272 61.5517C70.6479 59.8909 71.124 58.0058 71.1185 55.7555ZM67.0301 58.6037C66.9942 58.1692 67.1242 56.9153 66.4461 56.8267C66.1527 56.8433 66.2883 57.1312 66.2717 57.3028C66.5983 59.2238 65.97 60.9593 64.9984 62.5841C64.9569 64.6186 67.4813 59.8355 67.0329 58.6037H67.0301ZM27.2428 33.0688C27.2981 32.5512 26.8054 32.518 26.6864 32.9886C26.0857 34.5359 25.3024 35.9697 24.0679 37.1184C23.9184 37.2568 23.7136 37.4478 23.9045 37.661C25.4076 37.9931 26.9826 34.3283 27.24 33.0688H27.2428ZM27.2594 46.6183C27.4725 46.0287 26.8193 45.8294 26.7141 46.347C26.3266 47.5151 26.2712 50.3523 27.3978 50.9474C27.6497 50.8588 27.55 50.6236 27.5002 50.4381C27.1542 49.1371 26.9521 47.8279 27.2566 46.6183H27.2594Z" fill="#2C599F"/>
<path d="M78.0911 130.096C78.3374 134.785 81.8057 139.621 78.235 143.709C78.1575 143.861 78.2322 144.08 78.343 144.072C79.3754 143.966 79.2841 146.95 79.5083 147.709C79.4834 149.026 76.4275 149.298 75.4199 149.837C65.5797 152.78 55.136 153.325 44.9331 152.76C38.0961 152.262 31.0515 151.62 24.7128 148.835C23.7329 148.354 23.5751 148.105 23.6803 147.036C23.8879 146.413 23.6665 144.445 24.4609 144.426C25.2608 144.058 22.1717 142.112 23.1876 138.74C24.2394 133.977 25.3328 129.221 25.8947 124.366C25.9916 123.691 26.5618 123.289 26.8441 122.719C27.9845 122.797 29.28 123.303 30.4785 123.494C30.6861 123.538 30.6889 123.671 30.7193 123.788C31.0072 124.892 31.8376 125.448 32.8092 125.847C34.2707 126.597 35.9509 126.741 37.4345 127.303C38.8988 128.834 40.7478 129.714 42.7159 130.375C53.2177 133.002 70.1275 140.852 78.0883 130.096H78.0911ZM45.6223 146.352C39.7181 146.059 33.6728 145.414 28.0316 143.324C27.2233 143.297 27.7825 144.025 28.2641 144.119C37.0166 147.512 46.7157 147.559 55.9774 147.249C62.3826 146.867 68.8459 146.07 74.9217 143.911C75.1708 143.82 75.5694 143.703 75.4615 143.355C75.3424 142.975 74.9743 143.189 74.7196 143.252C72.901 143.706 71.1018 144.235 69.2694 144.647C61.5162 146.333 53.5305 146.765 45.6223 146.35V146.352ZM74.2131 139.468C74.8331 139.435 74.7085 138.489 74.1328 138.489C73.3716 138.447 73.5737 139.41 74.2131 139.468ZM49.7937 139.695C49.8324 139.078 48.9024 139.341 48.9854 139.848C48.991 140.459 49.91 140.302 49.7937 139.695Z" fill="#8CAAD4"/>
<path d="M48.0166 51.191C47.8118 50.1032 47.4298 49.6797 48.7834 49.4223C49.1321 49.223 49.1654 48.9323 49.0629 48.5974C48.7944 47.9192 48.0637 48.4839 47.607 48.6389C47.0949 46.5546 46.2257 44.462 44.1137 43.6094C43.765 43.4517 43.7899 43.3271 43.9393 43.0752C44.2549 42.3638 45.3566 40.6283 44.5898 40.0664C44.0944 39.8809 43.5408 42.5382 42.9899 43.0669C42.882 43.2607 42.7408 43.3243 42.5194 43.3437C41.163 43.3271 37.6394 45.0682 38.7549 46.6459C38.1957 46.7899 37.6394 46.9338 37.0802 47.075C37.7169 46.3913 38.6746 45.6965 38.3369 44.6198C37.9909 43.2607 36.4021 43.6676 35.4886 43.0143C34.1351 42.123 31.8348 42.159 31.1069 43.7257C31.1124 44.0412 30.9961 44.2682 30.711 44.3928C30.7968 44.5616 31.0017 44.4149 31.0432 44.5699C31.1899 45.1318 31.3698 45.6799 31.666 46.1837C30.9463 47.111 34.1793 47.9386 34.7966 48.1351C33.7226 48.8991 32.6043 49.5966 31.5497 50.4741C30.354 45.7076 30.1851 40.8746 29.7062 36.0223C29.5623 34.9373 29.7201 33.8411 29.5097 32.7644C29.4405 32.4101 29.709 32.4765 29.8668 32.4765C39.2559 31.6627 47.7426 25.6672 53.7796 18.7084C53.7547 18.7665 53.9236 18.6143 53.8987 18.5257C54.0509 18.5091 54.1118 18.4261 54.0869 18.2766C54.0675 18.3098 54.1561 18.1963 54.1893 18.1603C54.217 18.1991 54.3526 18.0718 54.3194 17.9694C54.4993 18.0026 54.5574 17.8116 54.5381 17.6538C54.5574 17.6317 54.6017 17.5735 54.6405 17.5265C54.7014 17.568 54.9062 17.3687 54.8481 17.2054L54.837 17.2248C54.9422 17.186 54.9699 17.103 54.9671 17.0033C55.6563 17.2248 54.9726 18.1105 55.41 18.1963C55.4238 18.5285 55.338 18.8883 55.6563 19.143H55.6425C55.6453 20.0177 55.911 20.8066 56.4065 21.5235C56.2985 21.7477 56.4701 22.1214 56.7359 22.2708C56.6528 22.3733 56.7165 22.6611 56.9407 22.7027C56.8881 22.7082 56.9435 22.9019 57.0376 22.9241C58.8645 26.528 61.4996 29.6836 64.7908 32.0392C65.0122 32.1997 64.9568 32.3685 64.9679 32.5429C65.1229 34.4667 65.3776 36.6257 66.7782 38.0762C68.0626 39.3384 68.1594 36.8029 69.0286 36.2991C70.1247 35.0092 72.6076 34.1899 73.6041 36.0362C73.5571 36.1054 73.593 36.4154 73.8089 36.468C73.7813 36.5067 73.8283 36.6507 73.9114 36.6839V36.6783C74.2214 38.0623 74.13 39.4768 74.1107 40.8746C73.9446 41.0269 74.0525 41.2317 73.9972 41.4144C73.9003 41.73 73.5654 41.9901 73.7785 42.3749C73.1169 44.7443 70.0694 48.5863 67.4647 46.6155C67.0439 46.2695 66.6924 46.3802 66.5927 46.9117C64.9541 54.3493 59.4153 61.1365 51.9112 63.1488C50.5604 63.517 48.8249 55.7665 48.5398 54.4296C49.9515 54.4102 51.2746 54.8005 52.4953 55.4731C52.6946 55.5645 52.9298 55.7914 53.0959 55.4897C53.3644 54.1168 51.0504 53.8566 50.0982 53.4774C49.9874 53.1757 49.7549 53.411 49.5861 53.3611L49.6027 53.3833C49.265 53.0151 48.49 53.5078 48.2962 52.7965C48.299 52.4726 48.3958 51.144 48.0194 51.191H48.0166ZM55.1775 41.6248C55.219 41.5833 55.2577 41.5445 55.2993 41.503L55.2854 41.5113C55.5041 41.5113 55.5096 41.3535 55.5152 41.1957C55.5622 41.1736 55.5871 41.1459 55.5484 41.0961C56.0771 40.5563 55.612 38.6076 56.3511 38.7682C57.0957 38.7516 58.4852 39.4021 58.8451 38.4941C59.5509 37.2652 49.5833 37.4755 50.3335 38.4C50.6628 39.7868 52.5202 38.4056 52.5119 39.3329C52.5174 39.7065 52.4759 40.0996 52.7748 40.4068L52.7693 40.4345H52.7416C52.7195 40.7695 52.7416 41.0878 53.0516 41.3037L53.0461 41.2981C53.0461 41.4393 53.1208 41.5085 53.2565 41.5196C53.2786 41.7272 53.3783 41.8462 53.6025 41.8268L53.5859 41.813C54.0537 42.3112 54.718 42.2697 55.0751 41.7189L55.0668 41.7327C55.1083 41.694 55.147 41.6524 55.1885 41.6137L55.1775 41.6275V41.6248ZM40.9222 31.4662L40.9305 31.4496C40.8862 31.4883 40.8419 31.5271 40.7949 31.5658L40.8143 31.5437C40.77 31.5824 40.7229 31.6212 40.6786 31.6599L40.6952 31.6489C40.5181 31.635 40.4046 31.707 40.3631 31.8841L40.3797 31.862C40.3354 31.898 40.2883 31.934 40.2441 31.9699L40.2524 31.9644C40.0614 31.9672 39.8565 31.9478 39.8565 32.2329C39.6905 32.1333 39.5438 32.2468 39.4967 32.4128L39.5105 32.4018C39.4081 32.3962 39.3223 32.4184 39.2808 32.5236L39.2974 32.5125C39.1922 32.5042 39.1064 32.5291 39.0704 32.6426L39.0898 32.6287C38.9874 32.6149 38.896 32.6287 38.8517 32.7395L38.8684 32.7284C38.7355 32.7228 38.5888 32.6896 38.5611 32.8862L38.5528 32.8612C38.4532 32.8308 38.3701 32.8419 38.312 32.9388L38.3175 32.9332C38.1957 32.9304 38.0684 32.9166 37.9881 33.0439H37.9937C36.6733 33.354 35.2616 33.5616 34.0105 34.0155L34.0188 34.01C33.6922 34.0266 33.3517 34.0044 33.1579 34.3532L33.1718 34.3394C33.0721 34.3366 32.9836 34.3504 32.9365 34.4556L32.9531 34.4446C32.7815 34.4279 32.6708 34.5054 32.6182 34.6688L32.6293 34.6577C32.4576 34.6494 32.3442 34.7241 32.2999 34.893L32.3192 34.8708C32.286 34.9151 32.25 34.9622 32.2168 35.0065L32.2334 34.9843L32.2528 35.0037C31.9788 35.2002 31.9815 35.3691 32.3082 35.4992L32.2943 35.4909C32.3358 35.5296 32.3801 35.5711 32.4217 35.6099L32.405 35.5905C32.4521 35.6265 32.4992 35.6625 32.5462 35.6985L32.5185 35.6819C32.8618 35.8728 33.8389 35.6625 34.2264 35.3137C36.964 34.713 40.2441 34.6438 41.9602 32.0558C42.5747 31.7485 41.7637 30.1597 41.3319 30.9126L41.3485 30.8987C41.0606 30.9319 41.0136 31.1174 41.0523 31.361V31.3444C40.9748 31.3555 40.9333 31.3942 40.9278 31.4717L40.9222 31.4662ZM59.252 32.6066L59.2714 32.626C59.2298 32.5208 59.1385 32.5069 59.0416 32.5014L59.0555 32.5125C59.0056 32.4101 58.9198 32.3907 58.8174 32.4045L58.8368 32.4184C58.798 32.3021 58.7067 32.2855 58.6015 32.2993L58.6153 32.3132C58.5268 32.0059 58.2915 32.0585 58.0645 32.0834L58.0783 32.1028C58.0119 31.9257 57.8569 31.8786 57.6936 31.8537C56.1684 31.7513 54.4855 31.1395 53.0267 31.3167C48.6643 30.8544 48.8969 27.6131 48.119 29.141C48.8304 34.1318 55.5595 32.5069 59.0693 33.4896C59.299 33.8937 59.3987 33.5034 59.5648 33.3429C59.9551 32.9886 59.49 32.8529 59.2492 32.6038L59.252 32.6066ZM54.7567 43.9111C54.1754 43.7312 53.6717 43.3935 53.1319 43.1223C51.9029 42.9257 53.3174 44.199 53.7104 44.3928C52.8247 44.6087 53.5167 46.2529 53.5056 46.8812C53.4696 47.2078 53.8461 47.4348 53.9679 47.7559C54.0371 47.9358 54.0896 47.6092 54.2004 47.6009C54.2917 47.5954 54.3221 47.6701 54.3249 47.7393C54.3388 48.0244 54.5685 48.0521 54.7623 48.1324C55.4321 48.4258 55.8529 49.0375 56.6528 48.8908C56.7691 48.8908 56.8715 48.8631 56.8964 49.0043C57.1483 49.7544 58.1669 49.3088 58.7371 49.3641C59.3378 49.7074 59.9689 49.0237 60.564 48.9351C60.5779 48.9434 60.5917 48.9489 60.6055 48.9572C60.5917 48.9489 60.5806 48.9406 60.5668 48.9351C60.7467 48.6361 61.0844 48.8576 61.3557 48.686C62.1971 47.648 63.2324 46.8812 63.7721 45.6799C63.9327 44.8578 63.6393 44.0357 63.7445 43.2191C63.8026 42.7486 63.3569 42.6849 63.1853 42.4109C62.7507 41.5971 62.6345 41.5943 61.7072 41.4116C59.3627 40.1107 57.2756 42.9894 55.0003 43.3935C54.7374 43.4683 54.599 43.626 54.7512 43.9111H54.7567ZM36.355 38.4969C35.5827 38.7599 33.2299 38.2616 33.2493 39.4187C33.6257 40.1937 34.8686 39.4989 35.5689 39.5903C35.9038 39.5543 36.0422 39.6789 36.0339 40.0304C35.9786 41.1348 37.0664 43.3022 38.3369 42.2393C39.6683 41.5196 38.5805 39.1834 40.1832 39.3135C40.4627 39.3384 40.8143 39.1695 40.7561 38.7599C39.9451 37.744 37.6227 38.9287 36.3522 38.4969H36.355ZM70.1524 39.6539C70.9164 40.9909 70.8167 42.1728 69.9171 43.2994C69.7843 43.4655 69.5075 43.6676 69.7427 43.889C71.625 44.2682 72.1426 39.9833 70.8333 39.1308C70.4264 38.5938 71.708 37.9821 72.162 37.8769C72.3779 37.8326 72.4277 37.7163 72.4139 37.4949C72.3779 36.9302 71.5613 37.0686 71.2292 37.2513C67.7138 39.0173 67.9574 44.9907 70.1524 39.6512V39.6539ZM46.8042 29.2628C45.7607 29.7389 46.7987 32.6509 47.7869 32.4101C48.0194 32.2246 47.8727 31.9949 47.7564 31.79C47.3855 31.134 47.0534 30.4669 47.1115 29.6808C47.1253 29.4787 47.0451 29.3348 46.807 29.2656L46.8042 29.2628Z" fill="#D2E1F9"/>
<path d="M32.2695 88.2713C34.149 94.5353 30.9215 100.581 30.0136 106.734C27.456 103.122 24.0735 99.7668 19.5588 99.0499C17.6185 98.4797 12.7551 99.4928 15.8968 101.92C14.2249 101.906 12.6305 101.765 11.0112 102.139C12.7911 98.5738 13.7571 94.8564 14.9667 91.1223C15.8193 88.9301 16.9541 86.8817 18.7367 85.3317C20.7712 83.3691 20.5885 80.197 22.6507 78.2732C22.9109 78.0546 23.0908 77.9715 23.4258 78.3314C25.7647 80.6233 29.3604 81.3762 32.5463 80.9859C33.6591 81.6723 32.1422 86.1205 32.1727 87.5156C32.1394 87.7454 32.0093 87.7813 31.8267 87.8422C27.8324 89.0768 23.1379 87.9834 20.2675 84.9109C20.1346 84.767 19.9602 84.6009 19.7609 84.7642C19.3512 85.6057 20.9124 86.5219 21.4937 87.0035C24.6686 88.9965 28.768 89.9874 32.2723 88.2713H32.2695ZM24.1288 81.1077C23.9046 79.1535 22.4625 83.6625 22.3075 84.0888C22.6092 85.8603 24.0707 81.4814 24.1288 81.1077ZM25.5488 85.4645C25.8201 87.69 27.4089 82.2481 26.8027 82.19C25.8837 82.7325 25.9225 84.5704 25.5488 85.4645ZM30.4371 83.5186C30.5977 82.8238 29.8891 82.7048 29.8337 83.3636C29.8254 84.111 28.9507 85.9046 29.5181 86.3613C30.3485 86.3032 30.2184 84.1469 30.4371 83.5186ZM18.9222 93.6163C18.8807 92.9797 17.8953 93.0461 17.9146 93.6634C17.8925 94.3775 18.8613 94.2391 18.9222 93.6163Z" fill="#8CAAD4"/>
<path d="M33.6895 75.8208C33.6175 75.8955 33.5511 75.9702 33.4819 76.0477L33.5096 76.0256C33.3933 76.0643 33.3657 76.1474 33.385 76.2581C33.3989 76.2332 33.3131 76.3412 33.2854 76.3771C33.266 76.3467 33.1165 76.4629 33.1608 76.5737C32.9726 76.593 32.7899 76.8505 32.8287 77.0996L32.8342 77.0913C32.7373 77.1411 32.7207 77.2269 32.7262 77.3238L32.7373 77.3072C32.6349 77.3515 32.6183 77.4401 32.6183 77.5369C31.7907 78.121 32.4411 80.1084 31.0987 79.9977C29.5929 80.0143 28.0898 79.3943 26.6975 79.2199C26.2325 79.0898 25.7979 78.8933 25.3993 78.622C25.3606 78.5251 25.2775 78.5002 25.1862 78.4919H25.189C25.1253 78.3397 25.0146 78.2705 24.8485 78.2843C24.8679 78.2926 24.7599 78.204 24.7295 78.1763C24.771 78.2151 24.6492 78.1127 24.6132 78.085C24.6575 78.0878 24.5302 77.9245 24.4139 77.9687C24.4416 77.9798 24.3281 77.8912 24.2949 77.8608C24.3392 77.9051 24.2174 77.7944 24.1814 77.7611V77.7833C24.1897 77.6172 24.2008 77.4539 24.2091 77.2906C24.4361 77.2657 24.461 76.9557 24.4167 76.7481C24.4167 76.7481 24.4028 76.7702 24.4056 76.7702C24.5606 76.701 24.5385 76.5626 24.5329 76.4325C24.5745 76.4629 24.6686 76.2969 24.6298 76.2083C24.652 76.1972 24.9924 76.0754 24.771 75.8706C24.7571 75.8484 24.7599 75.8291 24.7821 75.8125C26.4539 72.6043 26.0996 68.1755 26.692 64.5134C27.1432 60.9261 26.6505 56.9014 29.2856 54.0199C32.0425 50.9973 35.4776 48.1933 39.6131 47.4791C41.4372 47.2687 40.8642 49.6216 39.4497 49.7987C36.3302 50.5267 29.6039 53.1231 29.6205 56.7575C29.9167 56.9125 30.0966 56.5942 30.2406 56.381C32.8287 52.7743 37.6754 50.5876 42.0655 50.6513C43.8509 50.7011 43.1367 52.6636 41.9022 52.5639C41.1078 52.4117 40.3715 52.6331 39.6573 52.8435C36.7149 53.7127 34.077 55.1161 32.0149 57.4578C31.6855 58.0225 30.4676 58.8529 31.1485 59.4923C31.5139 59.7386 31.7519 59.3539 31.9207 59.1158C34.2099 56.0378 37.8055 54.0642 41.5756 53.4968C42.752 53.1286 43.3886 54.1998 42.7243 55.1797C41.6337 57.0537 39.1093 56.7298 37.4706 57.9394C35.7544 58.8473 34.2929 60.0514 33.0252 61.5046C32.7982 61.7676 32.4688 62.252 32.8231 62.5288C33.7283 62.9384 34.4701 60.8818 35.3752 60.5441C35.4776 60.5386 35.569 60.5192 35.5745 60.3891C35.7268 60.4196 35.7821 60.3227 35.8209 60.2009C35.8403 60.2452 36.0257 60.1926 36.0008 60.0653C36.1198 60.1178 36.2222 59.9961 36.2527 59.8826C36.2804 59.9241 36.452 59.8632 36.4409 59.7442C36.4326 59.7912 36.5295 59.6833 36.571 59.6584C36.6485 59.7248 36.8727 59.6113 36.8949 59.4508C36.9198 59.495 37.0942 59.4314 37.0969 59.3207C37.0609 59.3732 37.1772 59.2653 37.2187 59.2376C37.2409 59.2764 37.4125 59.2182 37.4346 59.1269C37.4457 59.1712 37.6339 59.1103 37.6422 59.0051C37.7253 59.0577 38.0242 58.9885 38.0408 58.7671L38.0491 58.8003C38.0962 58.7698 38.1405 58.7394 38.1875 58.7062C38.2567 58.7172 38.4699 58.7449 38.4643 58.5456L38.4754 58.5788C38.5197 58.5456 38.564 58.5096 38.611 58.4764C38.6166 58.5262 38.8076 58.4709 38.8325 58.3795C38.8491 58.4128 39.0235 58.3685 39.0484 58.2799C39.1286 58.2937 39.3196 58.2993 39.3612 58.1415C39.5106 58.2135 39.8733 58.1664 39.9646 57.8951L40.0089 57.9034L40.0061 57.9477C41.2822 57.8896 41.5147 57.7235 41.3624 59.0909C41.2213 59.0798 41.2102 59.174 41.213 59.2764L41.224 59.257C41.1216 59.2985 41.0967 59.3816 41.0995 59.4812C41.0995 59.4729 41.0192 59.567 40.9915 59.5975C41.022 59.567 40.9306 59.6805 40.9002 59.7193C40.9334 59.6777 40.7784 59.758 40.8033 59.8327C40.795 59.7968 40.676 59.8715 40.7036 59.9462C40.5542 59.9185 40.4905 60.0071 40.4518 60.1317C40.4711 60.104 40.3743 60.2009 40.341 60.2313C40.341 60.2369 40.1445 60.1732 40.2331 60.3282C38.1322 61.8728 35.0763 63.0519 35.2534 66.1438C35.1012 69.136 35.8126 72.4881 34.113 75.1564C33.9552 75.2146 33.8833 75.3253 33.8943 75.4914C33.7809 75.4858 33.6563 75.6658 33.6757 75.818L33.6895 75.8208Z" fill="#D2E1F9"/>
<path d="M25.4131 103.091C29.1305 105.577 30.0329 110.432 33.4237 113.106C31.6494 116.043 30.8384 119.245 30.6253 122.678C18.2135 120.405 21.0286 114.966 10.3358 110.41C10.3053 110.144 10.0894 110.213 9.92886 110.183C9.79599 110.097 9.6825 109.984 9.57455 109.867C9.605 109.9 9.49981 109.795 9.46383 109.762C9.49981 109.795 9.39463 109.687 9.36141 109.651C9.25623 108.234 9.8043 108.694 10.9115 108.658C10.9253 108.774 11.1911 108.804 11.3405 108.768C11.7308 109.026 12.3896 109.261 12.9404 109.319L12.9321 109.314C13.018 109.444 13.1481 109.43 13.2754 109.416C13.2588 109.502 13.4913 109.557 13.602 109.516C13.6241 109.745 13.9259 109.776 14.1418 109.729C14.1141 109.809 14.3383 109.876 14.449 109.856C14.4573 109.928 14.5957 109.97 14.6815 109.945C14.6981 110.097 15.0109 110.211 15.213 110.166C15.213 110.33 15.4538 110.44 15.6503 110.366C15.7389 110.673 16.1126 110.687 16.3894 110.712C16.3728 110.7 16.4807 110.772 16.5112 110.795L16.5056 110.767C16.5056 110.767 16.5333 110.759 16.5333 110.761C16.5361 110.977 16.6994 110.919 16.8212 110.925L16.8046 110.914C16.8516 111.019 16.9402 111.035 17.0426 111.024C17.0177 111.005 17.0592 111.129 17.1229 111.055C17.8371 111.279 19.3816 112.771 19.9574 112.331C20.1511 112.057 20.0376 111.791 19.7774 111.589C17.015 109.621 13.8124 108.259 10.4935 107.548C7.14424 107.213 8.96282 104.852 12.3204 105.718C15.3791 106.178 18.2661 107.135 20.9566 108.669C21.6043 109.192 22.1496 108.295 21.394 107.949C18.291 105.862 14.5376 104.857 10.8312 104.575C10.4825 104.508 9.96484 104.403 9.92609 103.974C12.4422 101.428 20.129 103.454 22.8693 105.438C23.1655 105.638 23.5724 105.992 23.8492 105.605C24.1315 104.398 19.0024 101.959 17.8537 101.5C17.8288 101.256 17.6461 101.428 17.5437 101.381C17.2696 101.104 16.7991 100.802 16.3147 100.913L16.2925 100.891C16.1486 99.1745 20.5552 100.586 21.56 100.603C21.7123 100.816 22.086 101.04 22.432 101.004C22.5427 101.226 22.7752 101.394 23.0686 101.353C23.0215 101.386 23.1959 101.489 23.2707 101.472C23.2873 101.483 23.3565 101.53 23.4035 101.56C23.3925 101.738 23.6969 101.895 23.9211 101.895C23.9073 101.887 24.0153 101.97 24.0485 101.995C23.9986 101.951 24.09 102.109 24.162 102.084C24.1592 102.128 24.2339 102.247 24.353 102.217C24.3363 102.208 24.4471 102.291 24.4775 102.316C24.4249 102.372 24.6187 102.587 24.782 102.54C24.7682 102.535 24.8678 102.621 24.8983 102.651C24.865 102.618 24.9758 102.723 25.0117 102.756C24.9619 102.82 25.0671 103.019 25.2415 102.925C25.1944 103.025 25.3328 103.088 25.4186 103.086L25.4131 103.091Z" fill="#D2E1F9"/>
<path d="M60.7302 59.2376C61.0126 58.8999 61.2921 58.5622 61.5745 58.2245C61.6326 58.2688 61.688 58.3103 61.7461 58.3546C61.5606 63.099 62.2554 67.478 67.7471 68.5243C62.5654 76.427 50.7986 80.6565 42.4392 75.317C44.5733 74.47 47.3275 74.1101 47.7455 71.3892C48.2133 68.3139 54.0732 69.7477 52.5729 65.6234C52.9244 65.6289 53.0822 66.1161 53.478 65.9999C55.7949 65.4905 57.5304 63.9155 59.0196 62.1689C59.3684 61.9198 61.4056 59.1906 60.7302 59.2404V59.2376Z" fill="#D2E1F9"/>
<path d="M38.7578 46.6459C38.7107 46.5408 38.6636 46.4356 38.6166 46.3276C40.0089 45.8764 40.5127 44.3319 42.4254 44.3153C46.5026 44.3845 46.7656 49.3641 47.2196 52.3951C47.859 57.0813 49.362 61.6181 51.6235 65.7701C52.5701 67.5915 50.245 68.3333 48.825 68.6378C45.055 70.9352 48.9274 72.7068 42.1015 74.4478C37.7862 75.7848 41.0414 69.5069 36.5323 69.8059C36.2361 69.7893 36.1669 69.7394 36.1752 69.4626C36.4437 67.4641 35.5745 64.8733 37.4042 63.4588C39.3086 61.8146 42.7132 60.8984 42.5278 57.8508C42.5222 57.7816 42.5638 57.6848 42.5306 57.6432C42.1181 57.1256 42.5721 56.8959 42.8627 56.608C43.8897 55.5866 44.1498 54.2635 43.552 52.9653C43.4661 52.7798 43.5437 52.7079 43.6239 52.5999C44.5208 51.3432 43.9921 49.6548 42.1873 49.6852C41.3348 49.6465 41.3459 49.652 41.6254 48.852C42.406 46.9919 40.2968 45.9401 38.7578 46.6487V46.6459ZM44.8114 49.89C45.1823 52.7715 45.7497 64.6242 47.8894 65.7618C48.1496 65.6511 47.9918 65.3217 47.9337 65.0864C47.5102 63.4145 47.0812 61.7399 46.8293 60.0376C46.5525 59.4674 45.3235 45.1346 44.8114 49.89ZM40.9943 70.4397C42.1015 73.097 42.2925 64.8207 42.442 64.2145C42.3202 63.3924 43.1201 61.3745 42.442 60.9538C42.132 60.8984 42.143 61.1974 42.0904 61.3856C41.4261 64.3695 41.3486 67.334 40.9943 70.4397ZM37.6284 67.8129C37.9467 70.4481 38.8795 64.6712 38.7661 64.1896C39.065 63.337 38.2457 63.3896 38.2291 64.1453C37.9661 65.3577 37.7115 66.5728 37.6284 67.8129Z" fill="#F2F5FB"/>
<path d="M7.8695 106.919C8.00236 107.24 8.07986 107.578 8.34836 107.808C8.52551 107.96 8.49507 108.071 8.41479 108.256C7.60377 109.931 9.43619 111.201 10.7897 111.75C16.9596 113.707 19.4675 120.646 25.665 122.379C26.0968 122.498 25.9003 122.647 25.7453 122.83C22.3711 127.228 15.5618 128.147 11.1966 124.696C5.99555 120.441 6.87301 112.832 7.87226 106.917L7.8695 106.919ZM16.9043 121.734C17.0012 121.014 15.977 121.036 15.9991 121.684C15.9521 122.298 16.9652 122.401 16.9043 121.734ZM10.8783 117.324C10.9448 116.652 9.98979 116.679 10.059 117.349C10.0368 117.939 10.978 117.961 10.8783 117.324Z" fill="#8CAAD4"/>
<path d="M8.19885 105.35C9.89841 96.2155 12.254 87.0174 16.06 78.5196C17.9339 74.8741 20.6937 71.3615 24.746 70.0578C25.8034 70.0993 23.8104 75.9038 23.434 76.7591C20.176 78.002 20.3034 82.0211 18.3242 84.4154C12.9045 89.2096 13.3086 97.1704 9.44169 102.895C8.53932 103.659 9.605 104.749 9.07077 104.843C8.75799 104.954 8.48673 105.176 8.19885 105.35Z" fill="#8CAAD4"/>
<path d="M34.7995 48.1351C34.1877 47.9386 30.9492 47.111 31.6688 46.1837C31.3727 45.6799 31.1927 45.1318 31.046 44.5699C31.0045 44.4149 30.7997 44.5616 30.7139 44.3928C30.999 44.2682 31.1152 44.0385 31.1097 43.7257C31.8377 42.159 34.1351 42.1258 35.4915 43.0143C36.4049 43.6676 37.9965 43.2607 38.3425 44.6198C38.6802 45.6965 37.7252 46.3913 37.0858 47.075C36.4409 47.3379 35.7959 47.5981 35.187 47.9441C35.1288 47.8943 35.1067 47.9331 35.0929 47.9857C35.0181 47.958 34.8022 47.9441 34.8022 48.1351H34.7995Z" fill="#B6CEF1"/>
<path d="M60.7302 59.2376C61.4167 59.1795 59.3573 61.9337 59.0224 62.1662C57.5332 63.9128 55.7949 65.4878 53.4808 65.9971C53.085 66.1133 52.9272 65.6262 52.5757 65.6206C52.631 65.5487 52.584 65.4213 52.4954 65.3771L52.5009 65.3854C52.4511 65.3217 52.6117 65.1473 52.3902 65.175C52.2075 64.9425 52.047 64.6989 51.9861 64.4027C55.1222 63.1516 58.2362 61.6568 60.7358 59.2376H60.7302Z" fill="#B6CEF1"/>
<path d="M27.0407 59.4701C27.0241 62.7945 26.4622 66.1106 26.2103 69.4377C25.8144 71.475 25.9141 74.1683 24.782 75.8042C26.5618 70.5532 26.1383 64.8844 27.0379 59.4701H27.0407Z" fill="#F2F5FB"/>
<path d="M26.7002 79.2143C28.0925 79.3915 29.5928 80.0088 31.1013 79.9922C32.4604 80.0863 31.7601 78.1763 32.6293 77.5203C32.2694 78.0712 32.2528 80.1998 31.6577 80.0863C29.9415 80.1527 28.2918 79.8427 26.7002 79.2116V79.2143Z" fill="#F2F5FB"/>
<path d="M21.5545 100.611C20.5608 100.594 16.1403 99.1828 16.287 100.899C14.1141 99.4928 20.9898 99.8803 21.5545 100.611Z" fill="#F2F5FB"/>
<path d="M74.119 40.7778C74.1107 39.4076 74.2214 38.0319 73.9059 36.6783C74.4623 38.0181 74.4733 39.3882 74.119 40.7778Z" fill="#F2F5FB"/>
<path d="M10.9116 108.66C9.85146 108.71 9.22865 108.204 9.37259 109.668C8.43977 108.575 10.12 108.137 10.9116 108.66Z" fill="#F2F5FB"/>
<path d="M41.3734 59.066C41.5284 57.6986 41.2738 57.8979 40.0171 57.945C41.0745 57.2446 42.1928 57.7899 41.3734 59.066Z" fill="#F2F5FB"/>
<path d="M56.4066 21.5262C55.9111 20.8093 55.6453 20.0204 55.6426 19.1458C55.8972 19.9402 56.1519 20.7318 56.4066 21.5262Z" fill="#F2F5FB"/>
<path d="M82.9241 59.4452C83.4113 59.03 83.2839 59.7857 83.8735 59.4978C83.569 59.8051 82.8051 60.14 82.9241 59.4424V59.4452Z" fill="#2C599F"/>
<path d="M15.9576 101.973C16.0076 101.909 16.0409 101.926 16.0881 101.976C16.0493 102.029 16.0076 101.99 15.9576 101.973Z" fill="#6E9BD6"/>
<path d="M51.6512 82.3173C46.4805 82.392 40.8698 81.0357 37.4762 76.8532C37.1053 76.2803 36.1392 75.1758 36.6015 74.553C36.8783 74.4312 36.9392 74.7163 37.0388 74.899C39.3446 79.1258 44.2467 80.9776 48.8139 81.3928C52.3016 81.7443 55.698 81.3734 59.0141 80.2247C59.277 80.1333 59.6867 79.8953 59.8279 80.2385C59.5317 81.5644 53.1044 82.356 51.6539 82.3145L51.6512 82.3173Z" fill="#173977"/>
<path d="M37.0886 123.622C37.2685 120.782 37.9633 115.985 40.3134 114.127C40.8199 114.166 38.7218 117.573 38.7079 118.418C38.0021 120.654 37.7806 122.957 37.8664 125.291C37.8664 125.52 37.836 125.747 37.5509 125.756C36.8506 125.523 37.2741 124.341 37.0886 123.622Z" fill="#173977"/>
<path d="M63.775 78.4642C62.4547 78.1736 65.5272 76.7453 65.8012 76.283C67.3817 75.0236 68.6966 73.5261 69.8314 71.8653C69.9477 71.6964 70.0363 71.4307 70.3158 71.5885C70.7726 73.3157 65.5023 77.9244 63.775 78.4642Z" fill="#173977"/>
<path d="M70.0169 85.0106C70.2743 83.765 70.3795 81.2599 71.5365 80.6067C71.9877 80.8502 70.6951 84.1442 70.7615 85.0798C70.6646 86.0928 69.9006 86.079 70.0169 85.0078V85.0106Z" fill="#173977"/>
<path d="M35.771 123.538C35.1842 123.312 33.4155 123.19 33.385 122.462C33.4791 121.725 37.8498 123.494 35.771 123.538Z" fill="#173977"/>
<path d="M36.0311 120.4C35.3087 120.167 34.005 120.098 33.7032 119.37C33.8223 118.562 37.9743 120.303 36.0311 120.4Z" fill="#173977"/>
<path d="M35.414 115.938C36.0285 116.209 37.5647 116.153 37.6477 116.923C37.454 117.543 33.8141 116.297 35.414 115.938Z" fill="#173977"/>
<path d="M50.8041 95.9414C50.0679 95.922 49.9654 94.8231 50.7405 94.8508C51.4048 94.837 51.4214 95.8888 50.8041 95.9414Z" fill="#2C599F"/>
<path d="M76.5439 122.34C77.4103 122.215 77.2276 123.403 76.5688 123.359C75.9183 123.386 76.0318 122.359 76.5439 122.34Z" fill="#2C599F"/>
<path d="M63.2463 129.221C63.8552 129.21 63.7501 130.279 63.1439 130.209C62.4879 130.198 62.4519 129.091 63.2463 129.221Z" fill="#2C599F"/>
<path d="M44.8584 100.39C44.911 101.131 43.8342 101.054 43.9228 100.376C43.8508 99.7004 44.9608 99.7391 44.8584 100.39Z" fill="#2C599F"/>
<path d="M44.8113 85.3455C46.2701 85.3372 44.6259 87.1419 44.3795 85.8714C44.3795 85.5476 44.5235 85.2846 44.8113 85.3455Z" fill="#2C599F"/>
<path d="M38.8934 97.8126C38.993 98.4659 38.0325 98.751 37.908 98.1116C37.8139 97.5718 38.7744 97.2507 38.8934 97.8126Z" fill="#2C599F"/>
<path d="M59.2548 100.644C59.8859 100.6 59.8028 101.63 59.2049 101.572C58.5794 101.602 58.6458 100.575 59.2548 100.644Z" fill="#2C599F"/>
<path d="M78.2323 90.4995C77.4738 90.566 77.5901 89.6027 78.2239 89.6304C78.8606 89.5501 78.7471 90.4912 78.2323 90.4995Z" fill="#2C599F"/>
<path d="M61.5191 120.311C61.4997 120.787 60.5254 121.072 60.6057 120.438C60.6112 119.876 61.4887 119.611 61.5191 120.311Z" fill="#2C599F"/>
<path d="M54.2199 87.9363C53.6801 87.7979 53.6773 86.9509 54.2835 87.0118C55.0281 87.0091 54.7486 87.7786 54.2199 87.9363Z" fill="#2C599F"/>
<path d="M62.9086 87.5294C62.9169 87.9087 62.665 87.9889 62.3882 88.0221C62.0588 88.0609 62.081 87.8229 62.0837 87.6042C61.9896 87.0201 62.9778 86.9177 62.9086 87.5294Z" fill="#2C599F"/>
<path d="M37.7613 104.395C37.8914 105.098 36.9668 104.973 36.9696 104.459C36.9835 103.971 37.8415 103.786 37.7613 104.395Z" fill="#2C599F"/>
<path d="M26.9106 31.5492C26.5453 31.4911 25.8726 31.6627 25.8809 31.1451C25.9086 30.9956 26.011 30.8932 26.1799 30.8877C28.9257 30.7852 31.2509 29.4981 33.5788 28.2387C40.1334 24.9613 46.212 20.6737 50.7764 14.8775C51.0311 14.6699 51.2304 14.0831 51.6179 14.2879C51.82 14.4374 51.7757 14.6505 51.6594 14.8166C45.6916 22.5892 36.4381 29.1632 26.9106 31.5492Z" fill="#173977"/>
<path d="M59.3933 15.7549C59.3905 15.528 59.3601 15.1764 59.6424 15.1155C60.2458 15.4145 60.1379 16.8151 60.4783 17.4407C62.0727 21.9387 65.4358 25.5482 68.5166 29.094C69.2419 29.858 70.0169 30.5776 70.9608 31.087C71.149 31.1894 71.4729 31.3112 71.3234 31.5658C69.6238 32.1748 66.6288 28.0172 65.4829 26.8048C62.8145 23.5635 59.9441 20.0537 59.3905 15.7522L59.3933 15.7549Z" fill="#173977"/>
<path d="M23.3675 58.7228C24.9065 54.3853 21.8423 50.6623 21.9641 46.3802C22.0472 44.9796 22.6534 40.7667 24.2228 40.5923C22.1606 45.6937 22.2963 47.9137 24.2588 53.1812C24.7266 53.8179 24.5937 60.4472 23.3647 58.7228H23.3675Z" fill="#173977"/>
<path d="M48.0942 12.3752C45.6943 14.8553 42.5277 16.8871 39.7985 19.1208C38.9764 19.5942 37.0249 21.3961 36.2111 21.1C35.7572 20.4495 40.7285 17.723 41.4399 16.8705C42.6135 16.1895 47.1835 11.6112 48.0942 12.3752Z" fill="#173977"/>
<path d="M27.3728 26.1018C28.48 22.7774 32.6708 17.2441 35.9675 16.386C36.1557 16.6186 35.9675 16.8538 35.7959 16.9922C33.4154 18.6863 31.2038 20.6017 29.6758 23.1317C29.0585 24.1752 28.3638 25.1772 27.9763 26.3426C27.9043 26.8768 27.1984 26.7052 27.3701 26.1045L27.3728 26.1018Z" fill="#173977"/>
<path d="M48.7447 9.33316C44.6867 9.00099 40.8614 10.6922 37.382 12.5856C37.1771 12.7046 36.8893 12.8928 36.7343 12.58C37.4539 10.8805 43.8757 8.8792 45.8825 8.6799C46.7517 8.66883 48.8055 8.17613 49.2235 9.09511C49.1709 9.2944 48.9661 9.37467 48.7447 9.33039V9.33316Z" fill="#173977"/>
<path d="M64.5417 16.8151C64.633 14.1689 72.2119 26.6581 71.0244 27.1951C70.2161 27.292 69.8231 24.5683 69.2418 23.915C68.0294 21.327 66.1029 19.1375 64.5389 16.8151H64.5417Z" fill="#173977"/>
<path d="M71.1185 55.7555C71.124 58.0059 70.6479 59.8909 69.4272 61.5517C69.2805 61.942 68.583 62.3129 68.7684 61.607C70.2493 58.803 71.1545 55.8357 69.8673 52.7605C69.8314 52.5446 69.6902 52.2761 70.0113 52.1737C70.9856 52.2207 71.1046 55.1188 71.1185 55.7555Z" fill="#173977"/>
<path d="M67.0302 58.6037C67.4759 59.841 64.9542 64.6159 64.9957 62.5841C65.9701 60.9593 66.5957 59.2238 66.269 57.3028C66.2884 57.1312 66.15 56.8433 66.4434 56.8267C67.1216 56.9125 66.9915 58.1692 67.0275 58.6037H67.0302Z" fill="#173977"/>
<path d="M27.2427 33.0689C26.9853 34.3255 25.4103 37.9931 23.9073 37.661C23.7163 37.4478 23.9211 37.2569 24.0706 37.1185C25.3051 35.9697 26.0885 34.5359 26.6891 32.9886C26.8054 32.5236 27.3008 32.5457 27.2455 33.0689H27.2427Z" fill="#173977"/>
<path d="M27.2594 46.6183C26.9549 47.8279 27.157 49.1371 27.503 50.4381C27.5528 50.6208 27.6525 50.8561 27.4006 50.9474C26.274 50.3523 26.3294 47.5179 26.7169 46.347C26.8221 45.8294 27.4753 46.0287 27.2622 46.6183H27.2594Z" fill="#173977"/>
<path d="M45.6224 146.352C53.5334 146.768 61.5191 146.336 69.2695 144.65C70.4127 144.6 75.0906 142.726 75.4615 143.357C75.5695 143.706 75.1709 143.822 74.9218 143.914C68.846 146.073 62.3855 146.87 55.9775 147.252C48.1136 147.476 34.0964 147.681 27.6276 143.507C27.8186 143.103 28.3888 143.446 28.7016 143.51C34.1075 145.525 39.9092 146.081 45.6196 146.352H45.6224Z" fill="#173977"/>
<path d="M74.2131 139.468C73.5737 139.41 73.3716 138.447 74.1328 138.489C74.7086 138.489 74.8304 139.432 74.2131 139.468Z" fill="#2C599F"/>
<path d="M49.7938 139.695C49.9101 140.302 48.9939 140.462 48.9856 139.848C48.8998 139.341 49.8326 139.078 49.7938 139.695Z" fill="#2C599F"/>
<path d="M45.6223 146.352C45.0604 146.236 44.4902 146.316 43.9255 146.261C44.4957 146.195 45.0715 146.062 45.6223 146.352Z" fill="#B6CEF1"/>
<path d="M60.5668 48.9351C59.9717 49.0237 59.3406 49.7074 58.7399 49.3641C58.8728 49.3752 58.9448 49.2728 59.025 49.1842C59.0084 49.1759 58.9918 49.1676 58.9752 49.1565C58.9697 49.1897 58.9641 49.223 58.9586 49.2589C58.87 49.2617 58.7925 49.2839 58.7427 49.3669C58.1753 49.3143 57.1511 49.7572 56.902 49.0071C56.8771 48.8659 56.7746 48.8908 56.6584 48.8936C55.8557 49.0403 55.4349 48.4313 54.7678 48.1351C54.5713 48.0549 54.3416 48.0272 54.3305 47.7421C54.3277 47.6701 54.2973 47.5954 54.2059 47.6037C54.0952 47.612 54.0426 47.9358 53.9734 47.7587C53.8516 47.4348 53.4752 47.2106 53.5112 46.884C53.5222 46.2529 52.8302 44.6115 53.716 44.3955L53.6938 44.4038C54.1949 44.6281 55.7782 45.3477 55.9858 44.4786C55.8861 43.972 55.0862 44.2599 54.7623 43.9167C54.6101 43.6316 54.7512 43.471 55.0114 43.3991C56.592 42.9589 57.8902 41.9209 59.3959 41.3369C60.2374 40.9217 61.1177 40.9383 61.9591 41.5113C62.6788 41.3867 62.939 42.0012 63.1964 42.4137C63.3653 42.6877 63.8137 42.7513 63.7556 43.2219C63.8912 45.3145 63.9549 46.3138 62.1529 47.7559C61.8539 47.958 61.7654 48.4368 61.3668 48.6887C61.0927 48.8603 60.7578 48.6389 60.5751 48.9406L60.5668 48.9351Z" fill="#B6CEF1"/>
<path d="M50.5771 38.7931C50.4082 38.6325 50.2754 38.4332 50.3695 38.1924C51.0477 37.5198 59.1385 37.2568 58.8424 38.4941C58.4881 39.4021 57.0902 38.7516 56.3484 38.7682C55.6564 38.544 56.0356 40.631 55.5125 41.1985C55.435 41.3037 55.3602 41.4089 55.2827 41.514L55.2966 41.5057C55.255 41.5473 55.2163 41.586 55.1748 41.6275C55.1914 41.6109 55.0945 41.7078 55.0668 41.7327L55.0751 41.7189C54.5935 41.9846 54.1008 42.0732 53.5859 41.813L53.6025 41.8268C53.4088 41.658 53.215 41.4919 53.0434 41.2981C52.9604 41.0379 52.9188 40.6836 52.7389 40.4318H52.7666C52.8164 37.9848 52.3735 39.1391 50.5771 38.7931Z" fill="#173977"/>
<path d="M59.3821 32.7256C59.4153 32.7561 59.4485 32.7865 59.4818 32.817C59.7226 33.1657 59.5565 33.6169 59.0721 33.4924C58.0175 33.0688 56.9103 33.1768 55.8141 33.1491C53.0572 32.9996 49.3979 32.817 48.1634 29.8773C47.989 29.476 48.0443 28.8089 48.5647 28.7369C50.5715 31.8758 54.8038 31.3361 58.0811 32.1083L58.0673 32.089C58.25 32.1637 58.4327 32.2412 58.6181 32.3187L58.6043 32.3049C58.6818 32.3436 58.7621 32.3851 58.8396 32.4239L58.8202 32.4101C58.8756 32.5014 58.9697 32.5014 59.0583 32.518C59.0638 32.5125 59.2105 32.6011 59.2714 32.6315C59.2326 32.5927 59.3434 32.6979 59.3793 32.7311L59.3821 32.7256Z" fill="#173977"/>
<path d="M36.3551 38.4969C37.6284 38.9287 39.9425 37.744 40.759 38.7599C40.8172 39.1695 40.4629 39.3384 40.1861 39.3135C38.5889 39.1806 39.6657 41.5251 38.3398 42.2393C37.0693 43.3022 35.9815 41.1348 36.0368 40.0332C36.0451 39.6816 35.9067 39.5571 35.5718 39.593C34.8687 39.4989 33.6314 40.1965 33.2522 39.4214C33.2245 38.2644 35.5912 38.7599 36.3579 38.4969H36.3551Z" fill="#173977"/>
<path d="M41.8551 30.896C42.8571 34.5442 34.8963 35.0341 32.5158 35.6763C32.5712 35.7095 32.4411 35.6154 32.4024 35.585C32.43 35.6182 32.3276 35.5158 32.2916 35.4853L32.3055 35.4936C32.2114 35.3358 32.1809 35.1753 32.2501 34.9981L32.2307 34.9788L32.2141 35.0009C32.2474 34.9566 32.2833 34.9096 32.3165 34.8653L32.2972 34.8874C32.4079 34.8099 32.5186 34.7324 32.6266 34.6521L32.6155 34.6632C32.7401 34.6079 32.8757 34.5691 32.9504 34.439C32.9504 34.4445 33.1082 34.3615 33.1691 34.3338L33.1553 34.3477C33.4376 34.2176 33.767 34.212 34.0161 34.0044C35.3226 33.8328 36.7481 33.6003 37.9937 33.0356C38.0795 33.0163 38.2567 33.0827 38.3176 32.9304C38.3757 32.9194 38.4726 32.8806 38.5501 32.8585C38.5501 32.8585 38.5584 32.8834 38.5584 32.8806C38.6608 32.828 38.7632 32.7754 38.8657 32.7228C38.8657 32.7339 39.0262 32.6509 39.0899 32.6232C39.0733 32.6426 39.2421 32.5374 39.2975 32.5069C39.2864 32.5291 39.4912 32.4848 39.5106 32.399L39.4968 32.4101C39.6103 32.3436 39.7265 32.2772 39.84 32.2108L39.8594 32.2301C39.9922 32.1416 40.1251 32.053 40.2552 31.9644C40.269 31.9506 40.3382 31.898 40.3798 31.862L40.3631 31.8841C40.4739 31.8066 40.5846 31.7291 40.6953 31.6489C40.6732 31.6599 40.7839 31.5713 40.8143 31.5409C40.7756 31.5852 40.8918 31.4772 40.9306 31.4496C40.9223 31.4772 41.0109 31.3693 41.0413 31.3416C41.0413 31.3416 41.0441 31.3582 41.0413 31.3582C41.1991 31.242 41.2655 31.0676 41.3375 30.896L41.3209 30.9098C41.4953 30.86 41.6724 30.8434 41.8496 30.8987L41.8551 30.896Z" fill="#173977"/>
<path d="M70.1524 39.6539C67.9546 44.9962 67.7165 39.0145 71.2291 37.2541C71.5613 37.0658 72.3779 36.9358 72.4138 37.4977C72.4249 37.7191 72.3779 37.8354 72.162 37.8824C71.7135 37.9793 70.4236 38.6021 70.8333 39.1363C72.1426 39.9889 71.625 44.2737 69.7427 43.8945C69.5074 43.6731 69.7842 43.471 69.9171 43.3049C70.8167 42.1756 70.9164 40.9937 70.1524 39.6595V39.6539Z" fill="#173977"/>
<path d="M54.7568 43.9111C55.0806 44.2544 55.8806 43.9665 55.9802 44.473C55.6896 45.3727 54.2917 44.6004 53.6883 44.3983L53.7104 44.39C53.3174 44.199 51.9029 42.923 53.1319 43.1195C53.6689 43.3908 54.1755 43.7285 54.7568 43.9084V43.9111Z" fill="#173977"/>
<path d="M46.8044 29.2628C47.0452 29.3348 47.1255 29.476 47.1089 29.678C47.0535 30.4641 47.3829 31.134 47.7538 31.7873C47.8701 31.9921 48.0168 32.2218 47.7843 32.4073C46.7988 32.6481 45.7581 29.7389 46.8016 29.2601L46.8044 29.2628Z" fill="#173977"/>
<path d="M24.1288 81.1077C24.0763 81.4703 22.6092 85.8631 22.3075 84.0888C22.457 83.6708 23.9046 79.1507 24.1288 81.1077Z" fill="#173977"/>
<path d="M25.5487 85.4645C25.9196 84.5704 25.8836 82.7325 26.8026 82.1899C27.4088 82.237 25.8227 87.6955 25.5487 85.4645Z" fill="#173977"/>
<path d="M30.437 83.5186C30.2184 84.1469 30.3512 86.2977 29.518 86.3613C28.9478 85.9102 29.8253 84.1082 29.8336 83.3636C29.889 82.7076 30.5976 82.8211 30.437 83.5186Z" fill="#173977"/>
<path d="M18.9221 93.6163C18.8612 94.2391 17.8924 94.3775 17.9146 93.6633C17.898 93.0433 18.8806 92.9796 18.9221 93.6163Z" fill="#2C599F"/>
<path d="M44.8113 49.89C45.3234 45.1318 46.5496 59.4452 46.8292 60.0376C47.081 61.7427 47.5101 63.4145 47.9336 65.0864C47.9917 65.3189 48.1495 65.6511 47.8893 65.759C45.7469 64.6048 45.1877 52.7992 44.8113 49.8873V49.89Z" fill="#173977"/>
<path d="M40.9943 70.4397C41.3458 67.334 41.4261 64.3695 42.0904 61.3856C42.143 61.1946 42.1319 60.8984 42.4419 60.9538C43.1229 61.3551 42.3229 63.4118 42.4419 64.2145C42.2925 64.8179 42.1042 73.0943 40.9943 70.4397Z" fill="#173977"/>
<path d="M37.6284 67.8129C37.7115 66.5701 37.9689 65.3549 38.2291 64.1453C38.2401 63.3952 39.0622 63.3287 38.7661 64.1896C38.8796 64.6629 37.9467 70.4508 37.6284 67.8129Z" fill="#173977"/>
<path d="M16.9042 121.734C16.9651 122.401 15.952 122.301 15.999 121.684C15.9741 121.036 17.001 121.014 16.9042 121.734Z" fill="#2C599F"/>
<path d="M10.8783 117.324C10.978 117.961 10.0341 117.939 10.059 117.349C9.9898 116.679 10.9475 116.652 10.8783 117.324Z" fill="#2C599F"/>
<path d="M58.7399 49.3675C58.7871 49.284 58.8676 49.2617 58.9564 49.2589C58.9064 49.3369 58.8287 49.3647 58.7399 49.3647V49.3675Z" fill="#D2E1F9"/>
<path d="M58.9559 49.2595C58.9615 49.2261 58.967 49.1927 58.9726 49.1565C58.9892 49.1649 59.0059 49.1732 59.0225 49.1844C59.0003 49.2094 58.9753 49.2344 58.9531 49.2567L58.9559 49.2595Z" fill="#D2E1F9"/>
</svg>
