<svg width="106" height="129" viewBox="0 0 106 129" fill="none" xmlns="http://www.w3.org/2000/svg">
<path opacity="0.5" d="M105.066 92H51V101.691H105.066V92Z" fill="#FFD033"/>
<path d="M39.5486 5.04862V7.61459H43.7257V10H39.5486V12.7813H44.2708V15.2569H36.4305V2.57292H44.2708V5.04862H39.5486Z" fill="white"/>
<path d="M52.3125 15.2569L50.3611 12.4549L48.7187 15.2569H45.3438L48.6979 10.1076L45.25 5.17361H48.75L50.7014 7.95487L52.3437 5.17361H55.7188L52.309 10.25L55.809 15.2569H52.309H52.3125Z" fill="white"/>
<path d="M61.3959 5.46528C61.9306 5.17708 62.5556 5.03125 63.2743 5.03125C64.1146 5.03125 64.8716 5.24306 65.5556 5.66319C66.2361 6.08333 66.7743 6.6875 67.1702 7.46875C67.566 8.25347 67.7639 9.16319 67.7639 10.1979C67.7639 11.2326 67.566 12.1458 67.1702 12.934C66.7743 13.7222 66.2361 14.3299 65.5556 14.7604C64.875 15.1875 64.1146 15.4028 63.2743 15.4028C62.5695 15.4028 61.9445 15.2569 61.4063 14.9687C60.8646 14.6806 60.441 14.3056 60.1389 13.8472V20.0625H57.0209V5.17361H60.1389V6.60069C60.4445 6.13194 60.8611 5.75 61.3959 5.4618V5.46528ZM63.9375 8.38194C63.507 7.94097 62.9722 7.72222 62.3403 7.72222C61.7084 7.72222 61.1945 7.94444 60.7639 8.39236C60.3334 8.8368 60.1181 9.44792 60.1181 10.2188C60.1181 10.9896 60.3334 11.5972 60.7639 12.0451C61.1945 12.4896 61.7222 12.7153 62.3403 12.7153C62.9584 12.7153 63.4896 12.4896 63.9271 12.0382C64.3646 11.5868 64.5834 10.9757 64.5834 10.2049C64.5834 9.43403 64.3681 8.82986 63.9341 8.38889L63.9375 8.38194Z" fill="white"/>
<path d="M72.5174 1.88542V15.257H69.3993V1.88542H72.5174Z" fill="white"/>
<path d="M74.7535 7.46875C75.1493 6.6875 75.6875 6.08333 76.3681 5.66319C77.0486 5.24306 77.809 5.03125 78.6493 5.03125C79.3681 5.03125 79.9965 5.17708 80.5382 5.46528C81.0799 5.75347 81.4965 6.13542 81.7882 6.60417V5.17708H84.9063V15.2604H81.7882V13.8333C81.4826 14.3021 81.0625 14.684 80.5208 14.9722C79.9792 15.2604 79.3507 15.4062 78.632 15.4062C77.8056 15.4062 77.0521 15.191 76.3715 14.7639C75.691 14.3368 75.1528 13.7292 74.7569 12.9375C74.3611 12.1493 74.1632 11.2361 74.1632 10.2014C74.1632 9.16667 74.3611 8.25694 74.7569 7.47222L74.7535 7.46875ZM81.1354 8.39236C80.7049 7.94791 80.1771 7.72222 79.559 7.72222C78.941 7.72222 78.4132 7.94097 77.9827 8.38194C77.5521 8.82291 77.3368 9.42708 77.3368 10.1979C77.3368 10.9687 77.5521 11.5799 77.9827 12.0313C78.4132 12.4826 78.941 12.7083 79.559 12.7083C80.1771 12.7083 80.7049 12.4861 81.1354 12.0382C81.566 11.5937 81.7813 10.9826 81.7813 10.2118C81.7813 9.44097 81.566 8.83333 81.1354 8.38542V8.39236Z" fill="white"/>
<path d="M87.3924 3.64931C87.0452 3.32987 86.8716 2.93404 86.8716 2.46529C86.8716 1.99654 87.0452 1.58334 87.3924 1.26389C87.7396 0.94445 88.1841 0.784729 88.7327 0.784729C89.2813 0.784729 89.7084 0.94445 90.0556 1.26389C90.4028 1.58334 90.5764 1.98265 90.5764 2.46529C90.5764 2.94792 90.4028 3.32987 90.0556 3.64931C89.7084 3.96876 89.2674 4.12848 88.7327 4.12848C88.198 4.12848 87.7396 3.96876 87.3924 3.64931ZM90.2813 5.17709V15.2604H87.1633V5.17709H90.2813Z" fill="white"/>
<path d="M101.597 6.21529C102.309 6.97918 102.663 8.03126 102.663 9.36807V15.2604H99.5624V9.78474C99.5624 9.11113 99.3854 8.58682 99.0347 8.21182C98.6805 7.83682 98.2083 7.65279 97.6111 7.65279C97.0138 7.65279 96.5416 7.84029 96.1875 8.21182C95.8333 8.58682 95.6597 9.10765 95.6597 9.78474V15.2604H92.5416V5.1771H95.6597V6.5139C95.9756 6.06946 96.4027 5.71529 96.9375 5.45835C97.4722 5.19793 98.0729 5.06946 98.743 5.06946C99.934 5.06946 100.885 5.4514 101.597 6.21529Z" fill="white"/>
<path d="M73.8125 27.3368C74.4202 27.6563 74.8958 28.1354 75.2431 28.7743C75.5903 29.4132 75.7639 30.191 75.7639 31.1042V36.941H74.1215V31.3403C74.1215 30.3542 73.8715 29.5972 73.375 29.0729C72.875 28.5486 72.1945 28.2882 71.3333 28.2882C70.4722 28.2882 69.7604 28.559 69.2465 29.1007C68.7292 29.6424 68.4722 30.4306 68.4722 31.4688V36.9445H66.8125V23.5729H68.4722V28.4514C68.8021 27.9445 69.2535 27.5556 69.8299 27.2778C70.4063 27 71.0556 26.8611 71.7708 26.8611C72.5243 26.8611 73.2049 27.0208 73.8125 27.3403V27.3368Z" fill="white"/>
<path d="M80.2951 36.4722C79.5347 36.0521 78.941 35.4514 78.5069 34.6736C78.0764 33.8958 77.8611 32.9965 77.8611 31.9722C77.8611 30.9479 78.0833 30.066 78.5278 29.2882C78.9722 28.5104 79.5764 27.9132 80.3437 27.5C81.1111 27.0868 81.9653 26.875 82.9166 26.875C83.868 26.875 84.7222 27.0833 85.4896 27.5C86.2569 27.9167 86.8611 28.5104 87.3055 29.2813C87.75 30.0521 87.9722 30.9514 87.9722 31.9722C87.9722 32.9931 87.743 33.8958 87.2882 34.6736C86.8333 35.4514 86.2153 36.0486 85.4375 36.4722C84.6597 36.8924 83.7951 37.1042 82.8472 37.1042C81.8993 37.1042 81.0625 36.8924 80.3021 36.4722H80.2951ZM84.5173 35.2431C85.0382 34.9653 85.4618 34.5521 85.7847 33.9965C86.1076 33.441 86.2673 32.7674 86.2673 31.9722C86.2673 31.1771 86.1076 30.5035 85.7916 29.9479C85.4757 29.3924 85.0625 28.9827 84.5521 28.7118C84.0416 28.441 83.4896 28.3056 82.8923 28.3056C82.2951 28.3056 81.7291 28.441 81.2222 28.7118C80.7152 28.9827 80.3125 29.3958 80.0104 29.9479C79.7048 30.5035 79.5555 31.1771 79.5555 31.9722C79.5555 32.7674 79.7048 33.4618 80.0035 34.0139C80.3021 34.5695 80.6979 34.9792 81.1979 35.25C81.6944 35.5208 82.243 35.6563 82.8403 35.6563C83.4375 35.6563 83.9965 35.5174 84.5173 35.2396V35.2431Z" fill="white"/>
<path d="M103.465 27.0382L100.347 36.941H98.632L96.2257 29.0799L93.8195 36.941H92.1042L88.9688 27.0382H90.6632L92.9618 35.3507L95.441 27.0382H97.1354L99.5625 35.3681L101.823 27.0382H103.465Z" fill="white"/>
<path d="M1.05208 50.9722C1.46528 50.2083 2.03471 49.6146 2.75694 49.191C3.47916 48.7708 4.29166 48.559 5.19097 48.559C5.96874 48.559 6.69097 48.7361 7.3611 49.0938C8.03124 49.4514 8.54165 49.9167 8.89235 50.4931V45.2535H10.5694V58.625H8.89235V56.7639C8.56248 57.3542 8.07639 57.8403 7.43403 58.2188C6.79167 58.5972 6.03472 58.7882 5.17361 58.7882C4.3125 58.7882 3.47916 58.5729 2.75694 58.1389C2.03471 57.7049 1.46528 57.0972 1.05208 56.3125C0.638889 55.5313 0.430542 54.6389 0.430542 53.6389C0.430542 52.6389 0.635417 51.7396 1.05208 50.9722ZM8.43749 51.7049C8.13193 51.1493 7.72222 50.7257 7.20833 50.4306C6.69097 50.1354 6.125 49.9861 5.50347 49.9861C4.88195 49.9861 4.31945 50.132 3.80903 50.4201C3.29861 50.7083 2.89235 51.132 2.5868 51.684C2.28124 52.2396 2.13194 52.8889 2.13194 53.6354C2.13194 54.382 2.28472 55.0521 2.5868 55.6146C2.89235 56.1736 3.29861 56.6042 3.80903 56.8993C4.31945 57.1944 4.88542 57.3403 5.50347 57.3403C6.12153 57.3403 6.69097 57.1944 7.20833 56.8993C7.72569 56.6042 8.1354 56.1771 8.43749 55.6146C8.73957 55.0521 8.89235 54.4028 8.89235 53.6528C8.89235 52.9028 8.73957 52.257 8.43749 51.7014V51.7049Z" fill="white"/>
<path d="M15.1944 58.1563C14.434 57.7361 13.8402 57.1354 13.4062 56.3577C12.9756 55.5799 12.7604 54.6806 12.7604 53.6563C12.7604 52.632 12.9826 51.75 13.427 50.9722C13.8715 50.1945 14.4757 49.5972 15.243 49.184C16.0104 48.7709 16.8645 48.5625 17.8159 48.5625C18.7673 48.5625 19.6215 48.7709 20.3889 49.184C21.1562 49.5972 21.7604 50.1945 22.2048 50.9653C22.6493 51.7361 22.8715 52.6354 22.8715 53.6563C22.8715 54.6771 22.6423 55.5799 22.1875 56.3577C21.7326 57.1354 21.1145 57.7327 20.3368 58.1563C19.559 58.5764 18.6944 58.7882 17.7465 58.7882C16.7986 58.7882 15.9618 58.5764 15.2014 58.1563H15.1944ZM19.4166 56.9271C19.9375 56.6493 20.3611 56.2327 20.684 55.6806C21.0069 55.1285 21.1666 54.4514 21.1666 53.6563C21.1666 52.8611 21.0069 52.1875 20.6909 51.632C20.375 51.0764 19.9618 50.6667 19.4514 50.3924C18.9409 50.1215 18.3888 49.9861 17.7916 49.9861C17.1944 49.9861 16.6284 50.1215 16.1215 50.3924C15.618 50.6632 15.2118 51.0764 14.9097 51.632C14.6041 52.1875 14.4548 52.8611 14.4548 53.6563C14.4548 54.4514 14.6041 55.1459 14.9027 55.6979C15.2013 56.2535 15.5972 56.6632 16.0972 56.934C16.5937 57.2049 17.1423 57.3403 17.7396 57.3403C18.3368 57.3403 18.8958 57.2014 19.4166 56.9236V56.9271Z" fill="white"/>
<path d="M38.5278 48.7222L32.5104 63.2882H30.7952L32.7639 58.5174L28.7327 48.7222H30.5729L33.7084 56.7465L36.8091 48.7222H38.5243H38.5278Z" fill="white"/>
<path d="M41.9999 58.1563C41.2395 57.7361 40.6458 57.1354 40.2117 56.3577C39.7812 55.5799 39.5659 54.6806 39.5659 53.6563C39.5659 52.632 39.7881 51.75 40.2326 50.9722C40.677 50.1945 41.2812 49.5972 42.0486 49.184C42.8159 48.7709 43.6701 48.5625 44.6215 48.5625C45.5729 48.5625 46.427 48.7709 47.1944 49.184C47.9617 49.5972 48.5659 50.1945 49.0104 50.9653C49.4548 51.7361 49.677 52.6354 49.677 53.6563C49.677 54.6771 49.4479 55.5799 48.993 56.3577C48.5381 57.1354 47.9201 57.7327 47.1423 58.1563C46.3645 58.5764 45.4999 58.7882 44.552 58.7882C43.6041 58.7882 42.7673 58.5764 42.0069 58.1563H41.9999ZM46.2222 56.9271C46.743 56.6493 47.1666 56.2327 47.4895 55.6806C47.8124 55.1285 47.9722 54.4514 47.9722 53.6563C47.9722 52.8611 47.8124 52.1875 47.4965 51.632C47.1805 51.0764 46.7673 50.6667 46.2569 50.3924C45.7465 50.1215 45.1944 49.9861 44.5972 49.9861C43.9999 49.9861 43.434 50.1215 42.927 50.3924C42.4236 50.6632 42.0173 51.0764 41.7152 51.632C41.4097 52.1875 41.2604 52.8611 41.2604 53.6563C41.2604 54.4514 41.4097 55.1459 41.7083 55.6979C42.0069 56.2535 42.4027 56.6632 42.9027 56.934C43.3992 57.2049 43.9479 57.3403 44.5451 57.3403C45.1423 57.3403 45.7013 57.2014 46.2222 56.9236V56.9271Z" fill="white"/>
<path d="M60.7188 48.7222V58.625H59.0591V57.1632C58.7431 57.6701 58.3021 58.0625 57.7361 58.3472C57.1702 58.6285 56.5486 58.7708 55.8681 58.7708C55.0903 58.7708 54.3924 58.6111 53.7708 58.2917C53.1493 57.9722 52.6597 57.4931 52.3021 56.8542C51.9445 56.2153 51.7639 55.4375 51.7639 54.5243V48.7222H53.4063V54.3056C53.4063 55.2813 53.6563 56.0313 54.1528 56.5556C54.6493 57.0799 55.3334 57.3403 56.1945 57.3403C57.0556 57.3403 57.7813 57.0694 58.2917 56.5278C58.8021 55.9861 59.0591 55.1979 59.0591 54.1597V48.7222H60.7188Z" fill="white"/>
<path d="M72.4653 50.0799H70.3681V58.6285H68.7083V50.0799H67.4132V48.7257H68.7083V48.0208C68.7083 46.9132 68.9965 46.1042 69.5764 45.5903C70.1528 45.0799 71.0799 44.8229 72.3576 44.8229V46.1979C71.6285 46.1979 71.1146 46.3403 70.816 46.6215C70.5174 46.9063 70.3681 47.3715 70.3681 48.0208V48.7257H72.4653V50.0799Z" fill="white"/>
<path d="M83.4618 54.2882H75.4757C75.5347 55.2639 75.875 56.0243 76.4896 56.5729C77.1042 57.1215 77.8472 57.3958 78.7222 57.3958C79.441 57.3958 80.0382 57.2292 80.5174 56.8993C80.9965 56.5695 81.3333 56.125 81.5313 55.5695H83.3195C83.0521 56.5209 82.5174 57.2952 81.7153 57.8924C80.9132 58.4896 79.9167 58.7882 78.7257 58.7882C77.7778 58.7882 76.9306 58.5764 76.1806 58.1563C75.434 57.7361 74.8472 57.1354 74.4201 56.3577C73.9931 55.5799 73.7812 54.6806 73.7812 53.6563C73.7812 52.632 73.9861 51.7361 74.4028 50.9653C74.816 50.1945 75.3958 49.6007 76.1458 49.184C76.8958 48.7674 77.7535 48.5625 78.7257 48.5625C79.6979 48.5625 80.5139 48.7674 81.2431 49.1771C81.9722 49.5868 82.5347 50.1493 82.9306 50.8681C83.3264 51.5833 83.5243 52.3958 83.5243 53.2986C83.5243 53.6111 83.507 53.9445 83.4688 54.2917L83.4618 54.2882ZM81.3819 51.3333C81.1007 50.882 80.7222 50.5382 80.2431 50.3021C79.7639 50.066 79.2292 49.9514 78.6458 49.9514C77.8056 49.9514 77.0938 50.2153 76.5035 50.7465C75.9132 51.2778 75.5764 52.0104 75.4896 52.9514H81.7986C81.7986 52.3264 81.6597 51.7847 81.3785 51.3333H81.3819Z" fill="white"/>
<path d="M94.7673 54.2882H86.7812C86.8403 55.2639 87.1806 56.0243 87.7951 56.5729C88.4097 57.1215 89.1528 57.3958 90.0278 57.3958C90.7465 57.3958 91.3437 57.2292 91.8229 56.8993C92.3021 56.5695 92.6389 56.125 92.8368 55.5695H94.625C94.3576 56.5209 93.8229 57.2952 93.0208 57.8924C92.2187 58.4896 91.2222 58.7882 90.0312 58.7882C89.0833 58.7882 88.2361 58.5764 87.4861 58.1563C86.7396 57.7361 86.1528 57.1354 85.7257 56.3577C85.2986 55.5799 85.0868 54.6806 85.0868 53.6563C85.0868 52.632 85.2917 51.7361 85.7083 50.9653C86.1215 50.1945 86.7014 49.6007 87.4514 49.184C88.2014 48.7674 89.059 48.5625 90.0312 48.5625C91.0035 48.5625 91.8194 48.7674 92.5486 49.1771C93.2778 49.5868 93.8403 50.1493 94.2361 50.8681C94.6319 51.5833 94.8298 52.3958 94.8298 53.2986C94.8298 53.6111 94.8125 53.9445 94.7743 54.2917L94.7673 54.2882ZM92.6875 51.3333C92.4062 50.882 92.0278 50.5382 91.5486 50.3021C91.0694 50.066 90.5347 49.9514 89.9514 49.9514C89.1111 49.9514 88.3993 50.2153 87.809 50.7465C87.2187 51.2778 86.8819 52.0104 86.7951 52.9514H93.1042C93.1042 52.3264 92.9653 51.7847 92.684 51.3333H92.6875Z" fill="white"/>
<path d="M98.6701 45.2535V58.625H97.0104V45.2535H98.6701Z" fill="white"/>
<path d="M103.212 56.3472L101.17 61.2083H100.059L101.389 56.3472H103.212Z" fill="white"/>
<path d="M69.6007 80.309L67.941 78.6458C67.3195 79.2847 66.6598 79.7569 65.9549 80.066C65.25 80.3715 64.4514 80.5278 63.566 80.5278C62.6806 80.5278 61.9167 80.3715 61.2396 80.059C60.5625 79.7465 60.0417 79.2986 59.6702 78.7222C59.2987 78.1424 59.1146 77.4688 59.1146 76.6979C59.1146 75.8194 59.3681 75.0451 59.8716 74.375C60.375 73.7083 61.1216 73.1806 62.1042 72.7951C61.7153 72.3368 61.4341 71.9167 61.2639 71.5313C61.0938 71.1458 61.007 70.7257 61.007 70.2674C61.007 69.7361 61.1424 69.2569 61.4167 68.8299C61.691 68.4028 62.0834 68.0694 62.5938 67.8264C63.1042 67.5833 63.6945 67.4653 64.3611 67.4653C65.0278 67.4653 65.5903 67.5903 66.0764 67.8438C66.5625 68.0972 66.9271 68.4479 67.1702 68.8993C67.4132 69.3507 67.5244 69.8542 67.5 70.4097H65.8403C65.8507 69.9167 65.7119 69.5278 65.4202 69.2431C65.1285 68.9618 64.75 68.8194 64.2882 68.8194C63.8021 68.8194 63.4098 68.9549 63.1112 69.2257C62.8125 69.4965 62.6632 69.8438 62.6632 70.2639C62.6632 70.625 62.7639 70.9757 62.9653 71.3125C63.1667 71.6493 63.5035 72.066 63.9757 72.559L67.7674 76.3368L68.0973 75.8299L69.3368 73.7708H71.1251L69.6285 76.3368C69.4202 76.6979 69.1771 77.0764 68.8993 77.4757L71.7639 80.3125H69.5938L69.6007 80.309ZM65.3438 78.7361C65.8716 78.4826 66.375 78.0903 66.8473 77.5625L63.1077 73.8403C61.5521 74.4306 60.7744 75.3646 60.7744 76.6424C60.7744 77.3542 61.0313 77.9444 61.5487 78.4132C62.066 78.8819 62.7362 79.1181 63.5625 79.1181C64.2188 79.1181 64.8125 78.993 65.3403 78.7396L65.3438 78.7361Z" fill="white"/>
<path d="M80.2153 71.7639V77.6007C80.2153 78.0833 80.3195 78.4236 80.5243 78.6215C80.7292 78.8194 81.0903 78.9201 81.6007 78.9201H82.8229V80.3125H81.3264C80.4028 80.3125 79.7083 80.1007 79.2465 79.6806C78.7847 79.2604 78.5521 78.566 78.5521 77.6042V71.7674H77.257V70.4132H78.5521V67.9202H80.2118V70.4132H82.8195V71.7674H80.2118L80.2153 71.7639Z" fill="white"/>
<path d="M93.8923 75.9722H85.9062C85.9653 76.9479 86.3055 77.7083 86.9201 78.2569C87.5347 78.8056 88.2778 79.0799 89.1528 79.0799C89.8715 79.0799 90.4687 78.9132 90.9479 78.5833C91.4271 78.2535 91.7639 77.809 91.9618 77.2535H93.75C93.4826 78.2049 92.9479 78.9792 92.1458 79.5764C91.3437 80.1736 90.3472 80.4722 89.1562 80.4722C88.2083 80.4722 87.3611 80.2604 86.6111 79.8403C85.8646 79.4201 85.2778 78.8194 84.8507 78.0417C84.4236 77.2639 84.2118 76.3646 84.2118 75.3403C84.2118 74.316 84.4166 73.4201 84.8333 72.6493C85.2465 71.8785 85.8264 71.2847 86.5764 70.8681C87.3264 70.4514 88.184 70.2465 89.1562 70.2465C90.1285 70.2465 90.9444 70.4514 91.6736 70.8611C92.4028 71.2708 92.9653 71.8333 93.3611 72.5521C93.7569 73.2674 93.9548 74.0799 93.9548 74.9826C93.9548 75.2951 93.9375 75.6285 93.8993 75.9757L93.8923 75.9722ZM91.8125 73.0174C91.5312 72.566 91.1528 72.2222 90.6736 71.9861C90.1944 71.75 89.6597 71.6354 89.0764 71.6354C88.2361 71.6354 87.5243 71.8993 86.934 72.4306C86.3437 72.9618 86.0069 73.6944 85.9201 74.6354H92.2291C92.2291 74.0104 92.0903 73.4687 91.809 73.0174H91.8125Z" fill="white"/>
<path d="M97.7951 66.9375V80.309H96.1354V66.9375H97.7951Z" fill="white"/>
<path d="M102.281 66.9375V80.309H100.622V66.9375H102.281Z" fill="white"/>
<path d="M63.9792 101.993H60.9514L60.5868 101.983C60.3368 101.983 60.2118 101.878 60.2118 101.674C60.2118 101.521 60.2743 101.41 60.3993 101.337C60.6944 101.177 60.8785 100.924 60.9514 100.569V96.2465H56.2674V100.569C56.309 100.774 56.375 100.934 56.4618 101.049C56.5486 101.163 56.6701 101.26 56.8194 101.337C56.9375 101.406 56.9965 101.514 56.9965 101.656C56.9965 101.875 56.875 101.983 56.632 101.983L54.7535 101.993L52.875 101.983C52.625 101.983 52.5 101.878 52.5 101.674C52.5 101.521 52.5625 101.41 52.6875 101.337C52.8368 101.26 52.9549 101.163 53.0451 101.049C53.1354 100.934 53.1979 100.774 53.2396 100.569V91.4375C53.1979 91.2327 53.1319 91.0729 53.0451 90.9549C52.9549 90.8403 52.8368 90.7431 52.6875 90.6667C52.5625 90.5972 52.5 90.4827 52.5 90.3299C52.5 90.125 52.625 90.0209 52.875 90.0209L54.7535 90.0104L56.632 90.0209C56.875 90.0209 56.9965 90.1285 56.9965 90.3472C56.9965 90.4896 56.9375 90.5938 56.8194 90.6667C56.6701 90.7431 56.5521 90.8403 56.4618 90.9549C56.3715 91.0695 56.3055 91.2292 56.2674 91.4375V95.7604H60.9514V91.4375C60.8785 91.0833 60.6944 90.8299 60.3993 90.6702C60.2743 90.6007 60.2118 90.4861 60.2118 90.3334C60.2118 90.1285 60.3368 90.0243 60.5868 90.0243L60.9514 90.0139C62.9687 90.0139 64.1007 90.0139 64.3437 90.0174C64.5868 90.0174 64.7083 90.132 64.7083 90.3472C64.7083 90.4827 64.6493 90.5903 64.5313 90.6667C64.2222 90.8264 64.0382 91.0799 63.9792 91.4341V100.566C64.0382 100.92 64.2222 101.174 64.5313 101.333C64.6493 101.41 64.7083 101.517 64.7083 101.653C64.7083 101.872 64.5833 101.979 64.3333 101.979L63.9757 101.99L63.9792 101.993Z" fill="white"/>
<path d="M69.6076 102.233C68.8055 102.233 68.0694 102.069 67.3992 101.74C66.7291 101.41 66.1735 100.903 65.7326 100.222C65.2465 99.4063 65.0034 98.5313 65.0034 97.6007C65.0034 97.4722 65.0104 97.3403 65.0208 97.2049C65.1319 95.8681 65.6249 94.8021 66.493 94.0035C67.361 93.2049 68.4722 92.8021 69.8194 92.8021C70.5972 92.8021 71.2534 92.9271 71.7881 93.1771C72.3229 93.4271 72.7395 93.75 73.0347 94.1424C73.3784 94.6077 73.552 95.1181 73.552 95.6771C73.552 96.0417 73.4617 96.4167 73.2777 96.7986C73.0937 97.1806 72.7743 97.5243 72.3159 97.8264C71.8576 98.1285 71.2708 98.3264 70.552 98.4236C70.3159 98.4583 70.0659 98.4757 69.8055 98.4757C69.2638 98.4757 68.6701 98.4063 68.0173 98.2639C68.1354 98.6806 68.3159 99.0556 68.5555 99.3889C68.7951 99.7222 69.1076 99.9861 69.486 100.184C69.8645 100.382 70.3159 100.479 70.8402 100.479C71.6111 100.479 72.3333 100.267 73.0034 99.8438C73.0694 99.8021 73.1354 99.7813 73.1979 99.7813C73.2465 99.7813 73.2881 99.7952 73.3298 99.8264C73.4027 99.8785 73.4374 99.9514 73.4374 100.038C73.4374 100.08 73.427 100.122 73.4027 100.163C72.9687 100.806 72.4201 101.309 71.7603 101.681C71.1006 102.052 70.3819 102.236 69.611 102.236L69.6076 102.233ZM67.8888 97.7153C69.1006 97.7153 69.9826 97.3542 70.5347 96.632C70.8854 96.132 71.059 95.5347 71.059 94.8403C71.059 93.875 70.6666 93.375 69.8819 93.3403C69.3888 93.3577 68.9722 93.5868 68.6319 94.0278C68.2916 94.4688 68.0694 94.9445 67.9652 95.4514C67.861 95.9618 67.809 96.3959 67.809 96.7604C67.809 97.0799 67.8368 97.3958 67.8888 97.7118V97.7153Z" fill="white"/>
<path d="M80.9792 101.993C80.6771 101.993 80.3959 101.941 80.132 101.833C79.8716 101.726 79.6598 101.559 79.4966 101.326C79.3334 101.094 79.2466 100.788 79.2327 100.403C78.5903 101.462 77.6806 101.99 76.5 101.99C76 101.99 75.5625 101.882 75.1875 101.663C74.8091 101.444 74.5174 101.16 74.3056 100.809C74.0938 100.455 73.9896 100.073 73.9896 99.6632C73.9896 99.0799 74.1181 98.625 74.3785 98.2917C74.6355 97.9583 74.9757 97.6979 75.3993 97.5104C75.823 97.3229 76.2813 97.1632 76.7778 97.0347C77.7153 96.816 78.382 96.5868 78.7743 96.3472C79.0104 96.2049 79.1702 96.0452 79.2466 95.8611C79.2535 95.566 79.257 95.2639 79.257 94.9514C79.257 94.7292 79.2257 94.5069 79.1667 94.2882C79.1077 94.0694 78.9966 93.8889 78.8334 93.7396C78.6702 93.5938 78.4445 93.5174 78.1528 93.5174C77.8855 93.5174 77.6667 93.5868 77.5 93.7292C77.3334 93.8715 77.2049 94.0556 77.125 94.2813C77.0452 94.507 77.0035 94.75 77.0035 95.0104C77.0035 95.4028 76.8959 95.6945 76.6771 95.8854C76.4584 96.0764 76.2118 96.1667 75.9341 96.1667C75.6354 96.1667 75.382 96.0729 75.1667 95.8889C74.9514 95.7049 74.8473 95.4236 74.8473 95.0452C74.8473 94.7222 74.9757 94.4063 75.2361 94.1007C75.4931 93.7952 75.8716 93.5417 76.3716 93.3403C76.8716 93.1389 77.4827 93.0417 78.2049 93.0417C79.2847 93.0417 80.2084 93.309 80.9757 93.8438C81.8368 94.4549 82.2674 95.309 82.2674 96.4028V100.215C82.2674 100.444 82.3125 100.601 82.3993 100.688C82.4896 100.774 82.6181 100.84 82.7917 100.896C82.9098 100.944 82.9688 101.031 82.9688 101.16C82.9688 101.413 82.6667 101.632 82.0591 101.823C81.7153 101.934 81.3542 101.99 80.9827 101.99L80.9792 101.993ZM77.8091 100.538C78.3855 100.538 78.8611 100.111 79.2327 99.2604C79.2327 98.066 79.2327 97.1806 79.2431 96.6042C78.9931 96.7917 78.7222 96.9375 78.4236 97.0451C77.9306 97.25 77.566 97.5417 77.3299 97.9202C77.0521 98.3507 76.9098 98.7917 76.9098 99.2431C76.9098 99.5729 76.9827 99.8715 77.132 100.139C77.2813 100.406 77.507 100.542 77.8091 100.542V100.538Z" fill="white"/>
<path d="M85.8403 101.993L83.9618 101.983C83.7118 101.983 83.5868 101.878 83.5868 101.674C83.5868 101.521 83.6493 101.41 83.7743 101.337C84.0694 101.177 84.2535 100.924 84.3264 100.569V92.6285C84.3264 92.1389 84.2813 91.7951 84.1875 91.5972C84.0938 91.3958 83.9514 91.2431 83.7569 91.1389C83.6424 91.0625 83.5868 90.9549 83.5868 90.8194C83.5868 90.6007 83.7014 90.4931 83.934 90.4931C84.8611 90.4931 85.8438 90.3368 86.8819 90.0243L86.9618 90.0139C87.0972 90.0139 87.1979 90.0521 87.2604 90.125C87.3229 90.1979 87.3542 90.3403 87.3542 90.5521V100.566C87.4132 100.92 87.5972 101.174 87.9062 101.333C88.0243 101.41 88.0833 101.517 88.0833 101.653C88.0833 101.872 87.9583 101.979 87.7083 101.979L85.8368 101.99L85.8403 101.993Z" fill="white"/>
<path d="M91.309 101.993L89.4305 101.983C89.1874 101.983 89.0659 101.875 89.0659 101.656C89.0659 101.514 89.1249 101.41 89.243 101.337C89.3923 101.26 89.5104 101.163 89.6006 101.049C89.6909 100.934 89.7534 100.774 89.7951 100.569V95.6562C89.7951 95.1667 89.7499 94.8229 89.6631 94.625C89.5729 94.4236 89.4305 94.2708 89.2361 94.1667C89.1215 94.0972 89.0659 93.9861 89.0659 93.8403C89.0659 93.6285 89.1805 93.5208 89.4131 93.5208C90.368 93.5208 91.3229 93.3715 92.2812 93.0694C92.3298 93.0521 92.3784 93.0417 92.434 93.0417C92.5763 93.0417 92.677 93.0799 92.7361 93.1528C92.7951 93.2257 92.8263 93.3681 92.8263 93.5799V100.566C92.868 100.771 92.934 100.931 93.0208 101.045C93.1111 101.16 93.2291 101.257 93.3784 101.333C93.5034 101.403 93.5659 101.517 93.5659 101.67C93.5659 101.875 93.4409 101.979 93.1909 101.979L91.3124 101.99L91.309 101.993ZM91.309 92.6215C90.9895 92.6215 90.6944 92.5729 90.4305 92.4757C90.1666 92.3785 89.9548 92.2361 89.7986 92.0417C89.6423 91.8507 89.5624 91.6111 89.5624 91.3229C89.5624 91.0347 89.6423 90.7882 89.7986 90.5938C89.9548 90.4028 90.1666 90.2569 90.4305 90.1597C90.6944 90.0625 90.9861 90.0139 91.309 90.0139C91.7881 90.0139 92.2013 90.1285 92.5416 90.3611C92.8819 90.5937 93.052 90.9132 93.052 91.3194C93.052 91.7257 92.8819 92.0417 92.5416 92.2743C92.2013 92.5035 91.7881 92.6181 91.309 92.6181V92.6215Z" fill="white"/>
<path d="M103.535 101.993H99.6875C99.5555 101.993 99.4618 101.948 99.4028 101.858C99.3437 101.767 99.3125 101.677 99.3125 101.587C99.3125 101.576 99.3159 101.538 99.3264 101.476C99.3368 101.413 99.3923 101.375 99.5 101.358C99.7014 101.351 99.8021 101.288 99.8021 101.163C99.8021 101.038 99.7118 100.878 99.5347 100.66L98.1354 98.7535L96.059 101.135C95.9757 101.229 95.934 101.302 95.934 101.358C95.934 101.458 96.059 101.507 96.309 101.507C96.5034 101.507 96.6042 101.59 96.6042 101.753C96.6042 101.917 96.5069 101.993 96.309 101.993H94.3055C94.1285 101.993 94.0382 101.913 94.0382 101.753C94.0382 101.594 94.1284 101.507 94.3125 101.507C94.5486 101.507 94.7639 101.462 94.9549 101.375C95.1458 101.288 95.368 101.097 95.6215 100.802L97.7951 98.3056L95.0451 94.5556C94.8611 94.2952 94.6979 94.1146 94.559 94.007C94.4201 93.8993 94.243 93.8333 94.0278 93.8056C93.8541 93.7639 93.7291 93.684 93.6458 93.566C93.5798 93.4792 93.5486 93.3924 93.5486 93.309C93.5486 93.2743 93.559 93.2222 93.5833 93.1493C93.6076 93.0799 93.7222 93.0417 93.9305 93.0417H97.7778C97.9097 93.0417 98.0069 93.0903 98.0729 93.191C98.125 93.2674 98.1528 93.3472 98.1528 93.4306C98.1528 93.4479 98.1493 93.4896 98.1389 93.5486C98.1285 93.6111 98.0694 93.6493 97.9548 93.6667C97.7604 93.6736 97.6597 93.7361 97.6597 93.8611C97.6597 93.9861 97.7465 94.1458 97.9166 94.3646L99.3229 96.2708L101.396 93.8889C101.472 93.8056 101.51 93.7257 101.51 93.6424C101.51 93.559 101.389 93.5174 101.146 93.5174C100.951 93.5174 100.851 93.4375 100.851 93.2778C100.851 93.1181 100.944 93.0382 101.135 93.0382H103.139C103.323 93.0382 103.413 93.1181 103.413 93.2778C103.413 93.4375 103.319 93.5174 103.128 93.5174C102.896 93.5174 102.684 93.566 102.486 93.6632C102.292 93.7604 102.066 93.9514 101.819 94.2327L99.6458 96.7292L102.396 100.469C102.587 100.733 102.75 100.917 102.885 101.021C103.021 101.125 103.198 101.194 103.41 101.229C103.583 101.264 103.712 101.344 103.802 101.469C103.861 101.552 103.892 101.632 103.892 101.715C103.892 101.743 103.882 101.799 103.858 101.875C103.833 101.951 103.722 101.99 103.521 101.99L103.535 101.993Z" fill="white"/>
<path d="M9.07644 123.451C8.4688 123.191 7.98962 122.83 7.63545 122.368C7.28129 121.906 7.08685 121.372 7.05212 120.767H8.7674C8.81601 121.26 9.04866 121.663 9.4688 121.979C9.88894 122.295 10.4375 122.448 11.1181 122.448C11.75 122.448 12.25 122.309 12.6146 122.031C12.9792 121.753 13.1632 121.406 13.1632 120.983C13.1632 120.559 12.9688 120.226 12.5799 120.017C12.191 119.806 11.5903 119.597 10.7744 119.392C10.0313 119.201 9.42712 119.003 8.95837 118.806C8.48962 118.608 8.09033 118.313 7.75352 117.92C7.42019 117.528 7.25352 117.014 7.25352 116.375C7.25352 115.868 7.4063 115.406 7.70838 114.983C8.01393 114.562 8.44448 114.226 9.00351 113.979C9.56254 113.733 10.2014 113.608 10.9167 113.608C12.0243 113.608 12.9167 113.885 13.5973 114.438C14.2778 114.99 14.6424 115.75 14.691 116.715H13.0313C12.9931 116.198 12.7848 115.781 12.4028 115.469C12.0209 115.156 11.507 115 10.8612 115C10.2639 115 9.79171 115.125 9.43754 115.378C9.08337 115.632 8.90978 115.962 8.90978 116.372C8.90978 116.698 9.01741 116.965 9.22921 117.177C9.44102 117.389 9.70838 117.556 10.0313 117.684C10.3542 117.809 10.7987 117.951 11.3716 118.108C12.0903 118.299 12.6736 118.49 13.1216 118.677C13.5695 118.865 13.9584 119.146 14.2778 119.517C14.6007 119.892 14.7674 120.378 14.7778 120.983C14.7778 121.524 14.625 122.014 14.323 122.444C14.0209 122.875 13.5903 123.219 13.0382 123.465C12.4861 123.712 11.8507 123.837 11.132 123.837C10.3646 123.837 9.6806 123.708 9.06948 123.448L9.07644 123.451Z" fill="white"/>
<path d="M25.7257 113.774L19.7083 128.34H17.993L19.9618 123.569L15.9305 113.774H17.7708L20.9062 121.799L24.0069 113.774H25.7222H25.7257Z" fill="white"/>
<path d="M41.4792 114.073C42.0869 114.392 42.566 114.872 42.9202 115.51C43.2709 116.149 43.448 116.927 43.448 117.84V123.677H41.8056V118.076C41.8056 117.09 41.5591 116.333 41.066 115.809C40.573 115.285 39.9098 115.024 39.0695 115.024C38.2292 115.024 37.5209 115.299 37.0105 115.847C36.5001 116.396 36.2431 117.188 36.2431 118.222V123.681H34.6008V118.08C34.6008 117.094 34.3542 116.337 33.8612 115.813C33.3681 115.288 32.7049 115.028 31.8646 115.028C31.0244 115.028 30.316 115.302 29.8056 115.851C29.2952 116.399 29.0383 117.191 29.0383 118.226V123.684H27.3785V113.781H29.0383V115.208C29.3681 114.691 29.8056 114.292 30.3612 114.017C30.9133 113.74 31.5244 113.601 32.1945 113.601C33.0348 113.601 33.7744 113.788 34.4202 114.16C35.066 114.535 35.5452 115.08 35.8612 115.806C36.1424 115.108 36.6042 114.566 37.2466 114.181C37.8924 113.795 38.6077 113.601 39.3994 113.601C40.191 113.601 40.8716 113.76 41.4792 114.08V114.073Z" fill="white"/>
<path d="M49.2951 114.181C49.9444 113.802 50.7013 113.611 51.5659 113.611C52.4305 113.611 53.2604 113.823 53.9826 114.243C54.7048 114.663 55.2743 115.257 55.6875 116.024C56.1006 116.788 56.309 117.677 56.309 118.691C56.309 119.705 56.1006 120.583 55.6875 121.365C55.2743 122.149 54.7048 122.757 53.9826 123.191C53.2604 123.625 52.4548 123.84 51.5659 123.84C50.677 123.84 49.9652 123.649 49.3125 123.271C48.6597 122.892 48.1666 122.42 47.8263 121.854V128.378H46.1666V113.778H47.8263V115.604C48.1562 115.038 48.6423 114.566 49.2951 114.188V114.181ZM54.1562 116.74C53.8507 116.184 53.4409 115.764 52.927 115.476C52.4097 115.188 51.8437 115.042 51.2222 115.042C50.6007 115.042 50.052 115.191 49.5347 115.486C49.0173 115.781 48.6041 116.208 48.2951 116.771C47.9861 117.33 47.8298 117.979 47.8298 118.712C47.8298 119.444 47.9861 120.111 48.2951 120.674C48.6041 121.233 49.0173 121.663 49.5347 121.958C50.052 122.253 50.6145 122.399 51.2222 122.399C51.8298 122.399 52.4097 122.253 52.927 121.958C53.4444 121.663 53.8541 121.236 54.1562 120.674C54.4583 120.111 54.6111 119.455 54.6111 118.694C54.6111 117.934 54.4583 117.299 54.1562 116.743V116.74Z" fill="white"/>
<path d="M60.5208 115.128V120.965C60.5208 121.448 60.625 121.788 60.8299 121.986C61.0347 122.184 61.3958 122.285 61.9062 122.285H63.1285V123.677H61.6319C60.7083 123.677 60.0139 123.465 59.5521 123.045C59.0903 122.625 58.8576 121.931 58.8576 120.969V115.132H57.5625V113.778H58.8576V111.285H60.5173V113.778H63.125V115.132H60.5173L60.5208 115.128Z" fill="white"/>
<path d="M66.9479 123.208C66.1875 122.788 65.5938 122.188 65.1598 121.41C64.7292 120.632 64.5139 119.733 64.5139 118.708C64.5139 117.684 64.7362 116.802 65.1806 116.024C65.625 115.247 66.2292 114.649 66.9966 114.236C67.7639 113.823 68.6181 113.615 69.5695 113.615C70.5209 113.615 71.375 113.823 72.1424 114.236C72.9098 114.649 73.5139 115.247 73.9584 116.017C74.4028 116.788 74.625 117.688 74.625 118.708C74.625 119.729 74.3959 120.632 73.941 121.41C73.4861 122.188 72.8681 122.785 72.0903 123.208C71.3125 123.628 70.448 123.84 69.5 123.84C68.5521 123.84 67.7153 123.628 66.9549 123.208H66.9479ZM71.1702 121.979C71.691 121.701 72.1146 121.285 72.4375 120.733C72.7604 120.181 72.9202 119.503 72.9202 118.708C72.9202 117.913 72.7605 117.24 72.4445 116.684C72.1285 116.128 71.7153 115.719 71.2049 115.444C70.6945 115.174 70.1424 115.038 69.5452 115.038C68.9479 115.038 68.382 115.174 67.875 115.444C67.3716 115.715 66.9653 116.128 66.6632 116.684C66.3577 117.24 66.2084 117.913 66.2084 118.708C66.2084 119.503 66.3577 120.198 66.6563 120.75C66.9549 121.306 67.3507 121.715 67.8507 121.986C68.3473 122.257 68.8959 122.392 69.4931 122.392C70.0903 122.392 70.6493 122.253 71.1702 121.976V121.979Z" fill="white"/>
<path d="M90.9028 114.073C91.5105 114.392 91.9896 114.872 92.3438 115.51C92.6945 116.149 92.8716 116.927 92.8716 117.84V123.677H91.2292V118.076C91.2292 117.09 90.9827 116.333 90.4896 115.809C89.9966 115.285 89.3334 115.024 88.4931 115.024C87.6528 115.024 86.9445 115.299 86.4341 115.847C85.9236 116.396 85.6667 117.188 85.6667 118.222V123.681H84.0243V118.08C84.0243 117.094 83.7778 116.337 83.2848 115.813C82.7917 115.288 82.1285 115.028 81.2882 115.028C80.448 115.028 79.7396 115.302 79.2292 115.851C78.7188 116.399 78.4619 117.191 78.4619 118.226V123.684H76.8021V113.781H78.4619V115.208C78.7917 114.691 79.2292 114.292 79.7848 114.017C80.3369 113.74 80.948 113.601 81.6181 113.601C82.4584 113.601 83.198 113.788 83.8438 114.16C84.4896 114.535 84.9688 115.08 85.2848 115.806C85.566 115.108 86.0278 114.566 86.6702 114.181C87.316 113.795 88.0313 113.601 88.823 113.601C89.6146 113.601 90.2952 113.76 90.9028 114.08V114.073Z" fill="white"/>
<path d="M97.0659 123.451C96.4583 123.191 95.9791 122.83 95.625 122.368C95.2708 121.906 95.0763 121.372 95.0416 120.767H96.7569C96.8055 121.26 97.0381 121.663 97.4583 121.979C97.8784 122.295 98.427 122.448 99.1076 122.448C99.7395 122.448 100.24 122.309 100.604 122.031C100.969 121.753 101.153 121.406 101.153 120.983C101.153 120.559 100.958 120.226 100.569 120.017C100.181 119.806 99.5798 119.597 98.7638 119.392C98.0208 119.201 97.4166 119.003 96.9479 118.806C96.4791 118.608 96.0798 118.313 95.743 117.92C95.4097 117.528 95.243 117.014 95.243 116.375C95.243 115.868 95.3958 115.406 95.6979 114.983C96.0034 114.562 96.434 114.226 96.993 113.979C97.552 113.733 98.1909 113.608 98.9062 113.608C100.014 113.608 100.906 113.885 101.587 114.438C102.267 114.99 102.632 115.75 102.681 116.715H101.021C100.983 116.198 100.774 115.781 100.392 115.469C100.01 115.156 99.4965 115 98.8506 115C98.2534 115 97.7812 115.125 97.427 115.378C97.0729 115.632 96.8993 115.962 96.8993 116.372C96.8993 116.698 97.0069 116.965 97.2187 117.177C97.4305 117.389 97.6979 117.556 98.0208 117.684C98.3437 117.809 98.7882 117.951 99.3611 118.108C100.08 118.299 100.663 118.49 101.111 118.677C101.559 118.865 101.948 119.146 102.267 119.517C102.59 119.892 102.757 120.378 102.767 120.983C102.767 121.524 102.615 122.014 102.312 122.444C102.01 122.875 101.58 123.219 101.028 123.465C100.476 123.712 99.8402 123.837 99.1215 123.837C98.3541 123.837 97.6701 123.708 97.059 123.448L97.0659 123.451Z" fill="white"/>
</svg>
