<svg width="56" height="56" viewBox="0 0 56 56" fill="none" xmlns="http://www.w3.org/2000/svg">
<path opacity="0.4" d="M43.5634 4.66675H39.1301C34.0434 4.66675 31.3601 7.35008 31.3601 12.4367V16.8701C31.3601 21.9567 34.0434 24.6401 39.1301 24.6401H43.5634C48.6501 24.6401 51.3334 21.9567 51.3334 16.8701V12.4367C51.3334 7.35008 48.6501 4.66675 43.5634 4.66675Z" fill="#5384B7"/>
<path opacity="0.4" d="M16.8934 31.3367H12.4601C7.35008 31.3367 4.66675 34.02 4.66675 39.1067V43.54C4.66675 48.65 7.35008 51.3333 12.4367 51.3333H16.8701C21.9567 51.3333 24.6401 48.65 24.6401 43.5633V39.13C24.6634 34.02 21.9801 31.3367 16.8934 31.3367Z" fill="#5384B7"/>
<path d="M14.6767 24.6867C20.2051 24.6867 24.6867 20.2051 24.6867 14.6767C24.6867 9.14838 20.2051 4.66675 14.6767 4.66675C9.14838 4.66675 4.66675 9.14838 4.66675 14.6767C4.66675 20.2051 9.14838 24.6867 14.6767 24.6867Z" fill="#5384B7"/>
<path d="M41.3232 51.3332C46.8516 51.3332 51.3332 46.8516 51.3332 41.3232C51.3332 35.7949 46.8516 31.3132 41.3232 31.3132C35.7949 31.3132 31.3132 35.7949 31.3132 41.3232C31.3132 46.8516 35.7949 51.3332 41.3232 51.3332Z" fill="#5384B7"/>
</svg>
