<svg width="115" height="66" viewBox="0 0 115 66" fill="none" xmlns="http://www.w3.org/2000/svg">
<g clip-path="url(#clip0_33_335)">
<path d="M33.0558 41.6811C33.2986 41.5212 33.4208 41.2984 33.4208 41.0127C33.4208 40.5558 33.1716 40.3233 32.6733 40.3168C32.175 40.3104 29.8562 40.3071 25.7203 40.3071L24.9728 40.3265C24.4617 40.3265 24.2062 40.5429 24.2062 40.9755C24.2062 41.2968 24.3348 41.5325 24.5903 41.6811C25.1981 42.0153 25.5759 42.5529 25.7219 43.2955V52.3915H16.1232V43.2955C16.2089 42.8629 16.3422 42.5254 16.5248 42.2833C16.7073 42.0411 16.9501 41.8409 17.2548 41.6795C17.4976 41.5309 17.6198 41.3081 17.6198 41.0111C17.6198 40.5542 17.3707 40.3249 16.8723 40.3249L13.0221 40.3055L9.91932 40.3249V40.3055L8.64172 40.2878C7.88786 40.2878 7.1086 40.312 6.30554 40.362C3.98206 40.5106 2.34577 41.3404 1.3967 42.8499C0.922163 43.6055 0.653947 44.2449 0.593637 44.7712C0.533328 45.2975 0.503174 45.6527 0.503174 45.8384C0.503174 46.4825 0.619031 47.1009 0.849157 47.695C1.14118 48.4619 1.60937 49.0931 2.25372 49.5888C2.89808 50.0844 3.71384 50.3315 4.69942 50.3315C5.39297 50.3315 6.05637 50.1829 6.68803 49.8859C7.32127 49.5888 7.83707 49.1593 8.23861 48.5959C8.64014 48.0324 8.8417 47.356 8.8417 46.5633C8.8417 45.8706 8.64331 45.3346 8.24813 44.9568C7.85294 44.5791 7.38793 44.3902 6.8515 44.3902C6.51186 44.3902 6.18016 44.4677 5.8564 44.6227C5.53422 44.7776 5.266 45.015 5.05333 45.3379C4.84067 45.6608 4.73433 46.0676 4.73433 46.5633C4.73433 46.9959 4.60102 47.3237 4.3328 47.5465C4.06617 47.7693 3.7678 47.8807 3.43927 47.8807C2.89173 47.8807 2.51718 47.5933 2.31721 47.0169C2.11723 46.4406 2.01566 45.9304 2.01566 45.4848C2.01566 43.9623 2.66002 42.837 3.95031 42.1057C4.53436 41.8086 5.45328 41.6601 6.70549 41.6601C7.21653 41.6601 7.7117 41.7247 8.19258 41.8554C8.67347 41.9846 9.08135 42.2058 9.41463 42.5141C9.74951 42.8241 9.91615 43.2503 9.91615 43.7944V62.5063C9.83045 62.9406 9.69713 63.2764 9.51462 63.5185C9.3321 63.7607 9.08928 63.9609 8.78456 64.1224C8.52904 64.2709 8.40049 64.5066 8.40049 64.8279C8.40049 65.2606 8.65601 65.4769 9.16705 65.4769L13.0173 65.4963L16.8676 65.4769C17.3659 65.4769 17.6151 65.2477 17.6151 64.7908C17.6151 64.4937 17.4929 64.2709 17.2501 64.1224C16.9453 63.9609 16.7025 63.7607 16.52 63.5185C16.3375 63.278 16.2042 62.9406 16.1185 62.5063V53.4103H25.7171V62.5063C25.5711 63.2489 25.1934 63.7865 24.5855 64.1207C24.33 64.2693 24.2015 64.505 24.2015 64.8263C24.2015 65.259 24.457 65.4753 24.968 65.4753L25.7155 65.4947H31.9194L32.6495 65.4753C33.1605 65.4753 33.4161 65.246 33.4161 64.7891C33.4161 64.505 33.2938 64.2822 33.051 64.1207C32.4178 63.7865 32.0416 63.2489 31.9194 62.5063V43.2923C32.0401 42.5497 32.4178 42.012 33.051 41.6778L33.0558 41.6811Z" fill="#F0F1F5"/>
<path d="M46.1396 57.9809C47.6108 57.7823 48.8154 57.3658 49.7534 56.728C50.6898 56.0903 51.3468 55.3703 51.7246 54.5646C52.1023 53.7606 52.2896 52.9744 52.2896 52.2075C52.2896 51.0321 51.9372 49.9553 51.231 48.9769C50.6231 48.1487 49.7709 47.4706 48.6758 46.9443C47.5807 46.418 46.2364 46.1548 44.643 46.1548C41.8815 46.1548 39.6088 46.9959 37.8265 48.6798C36.0442 50.3637 35.038 52.6095 34.8063 55.4187C34.7825 55.7028 34.7698 55.9821 34.7698 56.2534C34.7698 58.2085 35.2681 60.0474 36.2664 61.7668C37.1663 63.2021 38.3042 64.266 39.6786 64.9603C41.053 65.6529 42.5623 66 44.205 66C45.8476 66 47.2553 65.6093 48.6123 64.8311C49.9692 64.0513 51.0913 62.9874 51.9785 61.6377C52.0277 61.5505 52.0515 61.4649 52.0515 61.3777C52.0515 61.1921 51.9785 61.0435 51.8325 60.9321C51.7468 60.8708 51.6563 60.8401 51.5579 60.8401C51.4246 60.8401 51.2897 60.8837 51.1564 60.9693C49.782 61.8605 48.3028 62.3061 46.7221 62.3061C45.6508 62.3061 44.7271 62.0994 43.9479 61.6845C43.1686 61.2696 42.5338 60.7126 42.0402 60.0135C41.5466 59.3144 41.18 58.5249 40.9356 57.6467C42.2735 57.9437 43.4971 58.0923 44.6033 58.0923C45.1382 58.0923 45.6492 58.0551 46.1364 57.9809H46.1396ZM40.6832 56.4955C40.5737 55.8271 40.5182 55.1588 40.5182 54.4904C40.5182 53.7235 40.6245 52.8048 40.8372 51.7344C41.0499 50.664 41.5069 49.6647 42.2052 48.7363C42.9052 47.808 43.759 47.3253 44.77 47.2882C46.3761 47.3624 47.1792 48.4151 47.1792 50.4445C47.1792 51.9056 46.8205 53.1616 46.1031 54.2127C44.9715 55.7351 43.1654 56.4955 40.6832 56.4955Z" fill="#F0F1F5"/>
<path d="M71.2139 63.1973C70.8616 63.0859 70.5934 62.9406 70.4109 62.7613C70.2283 62.5821 70.1363 62.2512 70.1363 61.7684V53.7493C70.1363 51.4471 69.2539 49.6534 67.4906 48.365C65.921 47.2397 64.0292 46.6763 61.8152 46.6763C60.3313 46.6763 59.0775 46.8862 58.0554 47.3075C57.0334 47.7289 56.2573 48.2601 55.7288 48.9043C55.2003 49.5484 54.9352 50.2104 54.9352 50.8901C54.9352 51.6828 55.1543 52.2737 55.5923 52.6628C56.0303 53.0535 56.5541 53.2472 57.1619 53.2472C57.7333 53.2472 58.2411 53.0486 58.6855 52.6531C59.1299 52.2575 59.3521 51.644 59.3521 50.8158C59.3521 50.2717 59.4346 49.7615 59.5981 49.2837C59.7631 48.8074 60.0171 48.4199 60.3646 48.1228C60.7106 47.8258 61.1582 47.6772 61.7057 47.6772C62.3009 47.6772 62.7675 47.8322 63.1024 48.1406C63.4372 48.4506 63.6642 48.8332 63.7864 49.2917C63.907 49.7502 63.9689 50.2136 63.9689 50.6834C63.9689 51.3389 63.9626 51.9766 63.9499 52.595C63.7912 52.9792 63.469 53.3199 62.9833 53.6153C62.1803 54.1223 60.817 54.605 58.895 55.0635C57.8729 55.3363 56.9302 55.6705 56.0668 56.0661C55.2035 56.4616 54.5067 57.0106 53.9766 57.7096C53.4481 58.4087 53.1831 59.3709 53.1831 60.5963C53.1831 61.4633 53.3989 62.2673 53.8306 63.01C54.2623 63.7526 54.8638 64.3532 55.6367 64.8101C56.4096 65.2686 57.3063 65.4963 58.3284 65.4963C60.7487 65.4963 62.6167 64.3823 63.9308 62.1543C63.9546 62.9583 64.134 63.6057 64.4688 64.0949C64.8037 64.5841 65.2386 64.9393 65.7734 65.1621C66.3083 65.3849 66.886 65.4963 67.5065 65.4963C68.2731 65.4963 69.0095 65.3784 69.7141 65.1443C70.9552 64.7488 71.5758 64.2838 71.5758 63.7526C71.5758 63.4798 71.4536 63.2957 71.2108 63.1956L71.2139 63.1973ZM63.9324 59.7439C63.1658 61.5392 62.193 62.4352 61.0122 62.4352C60.3916 62.4352 59.9298 62.1543 59.6251 61.5908C59.3203 61.0274 59.1696 60.3994 59.1696 59.7068C59.1696 58.7542 59.4552 57.8259 60.0266 56.9218C60.5138 56.1291 61.2613 55.5172 62.2707 55.0845C62.8786 54.8617 63.4388 54.5533 63.9499 54.1562C63.9372 55.3686 63.9308 57.2317 63.9308 59.7439H63.9324Z" fill="#F0F1F5"/>
<path d="M81.7063 64.1256C81.073 63.7914 80.6969 63.2538 80.5747 62.5111V41.4421C80.5747 40.9965 80.5112 40.6962 80.3826 40.5412C80.2541 40.3863 80.0509 40.3088 79.7716 40.3088L79.6065 40.3281C77.4783 40.9836 75.4643 41.3114 73.5661 41.3114C73.0916 41.3114 72.8551 41.5406 72.8551 41.9975C72.8551 42.2817 72.971 42.5045 73.2011 42.6659C73.6026 42.8887 73.8978 43.21 74.0867 43.6314C74.2755 44.0527 74.3692 44.776 74.3692 45.8028V62.5095C74.2232 63.2522 73.8454 63.7898 73.2376 64.124C72.9821 64.2725 72.8535 64.5082 72.8535 64.8295C72.8535 65.2622 73.109 65.4785 73.6201 65.4785L77.4703 65.4979L81.3031 65.4785C81.8142 65.4785 82.0697 65.2493 82.0697 64.7924C82.0697 64.5082 81.9475 64.2854 81.7047 64.124L81.7063 64.1256Z" fill="#F0F1F5"/>
<path d="M86.88 45.3944C87.4211 45.6543 88.0211 45.7851 88.6781 45.7851C89.6637 45.7851 90.5064 45.4767 91.2047 44.8616C91.9046 44.2449 92.2538 43.3924 92.2538 42.3026C92.2538 41.2129 91.9046 40.3556 91.2047 39.7308C90.5048 39.1076 89.6621 38.7944 88.6781 38.7944C88.0211 38.7944 87.4211 38.9251 86.88 39.1851C86.3388 39.4466 85.9071 39.8325 85.5849 40.3459C85.2627 40.8593 85.1008 41.5115 85.1008 42.301C85.1008 43.0905 85.2627 43.7202 85.5849 44.2319C85.9071 44.7454 86.3388 45.1328 86.88 45.3928V45.3944Z" fill="#F0F1F5"/>
<path d="M92.9108 64.1256C92.6061 63.9641 92.3633 63.7639 92.1808 63.5218C91.9983 63.2812 91.8634 62.9438 91.7793 62.5095V47.8064C91.7793 47.3608 91.7189 47.0605 91.5967 46.9055C91.4745 46.7505 91.2682 46.673 90.9762 46.673C90.8667 46.673 90.7635 46.6924 90.6667 46.7295C88.7083 47.3608 86.7498 47.6756 84.7897 47.6756C84.3152 47.6756 84.0787 47.8984 84.0787 48.344C84.0787 48.654 84.1946 48.8816 84.4247 49.0302C84.8263 49.253 85.1183 49.5743 85.3008 49.9956C85.4833 50.417 85.5738 51.1403 85.5738 52.1671V62.5079C85.4881 62.9422 85.3548 63.278 85.1722 63.5202C84.9897 63.7623 84.7469 63.9625 84.4422 64.124C84.1994 64.2725 84.0771 64.4953 84.0771 64.7924C84.0771 65.2509 84.3263 65.4785 84.8247 65.4785L88.6749 65.4979L92.5252 65.4785C93.0362 65.4785 93.2917 65.2622 93.2917 64.8295C93.2917 64.5082 93.1648 64.2725 92.9093 64.124L92.9108 64.1256Z" fill="#F0F1F5"/>
<path d="M114.317 64.4033C114.135 64.1433 113.867 63.977 113.514 63.9012C113.076 63.8269 112.718 63.6816 112.438 63.4653C112.159 63.2489 111.824 62.8614 111.435 62.3044L105.796 54.4338L110.25 49.1803C110.761 48.5862 111.216 48.1874 111.618 47.9824C112.019 47.779 112.457 47.6756 112.932 47.6756C113.321 47.6756 113.516 47.5077 113.516 47.1751C113.516 46.8426 113.327 46.673 112.951 46.673H108.845C108.456 46.673 108.261 46.8409 108.261 47.1751C108.261 47.5093 108.461 47.6756 108.863 47.6756C109.361 47.6756 109.61 47.7628 109.61 47.9356C109.61 48.1083 109.531 48.2827 109.374 48.4554L105.122 53.4684L102.238 49.458C101.886 48.9995 101.71 48.6475 101.71 48.3989C101.71 48.1503 101.91 48.0034 102.311 47.9905C102.541 47.9533 102.667 47.8694 102.686 47.7402C102.705 47.6094 102.713 47.5271 102.713 47.49C102.713 47.3172 102.657 47.1493 102.549 46.9879C102.416 46.778 102.214 46.673 101.946 46.673H94.0631C93.6377 46.673 93.3997 46.7473 93.3521 46.8958C93.3029 47.0444 93.2791 47.1558 93.2791 47.23C93.2791 47.4028 93.3457 47.582 93.4806 47.7677C93.6504 48.0147 93.9123 48.1826 94.2646 48.2698C94.7027 48.3311 95.0645 48.4732 95.3502 48.696C95.6359 48.9188 95.9676 49.303 96.3453 49.8471L101.984 57.7371L97.5308 62.9906C97.0071 63.6089 96.5516 64.011 96.1628 64.1966C95.7739 64.3823 95.3359 64.4743 94.8487 64.4743C94.4709 64.4743 94.2837 64.6471 94.2837 64.9942C94.2837 65.3413 94.4662 65.4963 94.8312 65.4963H98.937C99.3385 65.4963 99.5385 65.3284 99.5385 64.9942C99.5385 64.66 99.3385 64.4743 98.937 64.4743C98.4259 64.4743 98.1704 64.3694 98.1704 64.1595C98.1704 64.0481 98.2561 63.8931 98.426 63.6961L102.678 58.6848L105.542 62.6951C105.907 63.1537 106.09 63.5056 106.09 63.7526C106.09 64.0126 105.882 64.1482 105.469 64.1611C105.25 64.1982 105.131 64.2822 105.114 64.4113C105.096 64.5421 105.087 64.6196 105.087 64.6438C105.087 64.8295 105.147 65.0184 105.269 65.2105C105.392 65.4026 105.585 65.4979 105.853 65.4979H113.737C114.151 65.4979 114.381 65.4172 114.43 65.2573C114.478 65.0959 114.503 64.9845 114.503 64.9231C114.503 64.7504 114.443 64.5776 114.321 64.4033H114.317Z" fill="#F0F1F5"/>
<path d="M39.3136 20.449C39.3136 18.749 37.9535 17.3654 36.2807 17.3654C34.6079 17.3654 33.2478 18.749 33.2478 20.449C33.2478 22.1491 34.6079 23.5327 36.2807 23.5327C37.9535 23.5327 39.3136 22.1491 39.3136 20.449Z" fill="#F0F1F5"/>
<path d="M78.7192 23.5327C80.392 23.5327 81.7521 22.1491 81.7521 20.449C81.7521 18.749 80.392 17.3654 78.7192 17.3654C77.0464 17.3654 75.6863 18.749 75.6863 20.449C75.6863 21.2724 76.0021 22.0474 76.575 22.6302C77.148 23.213 77.9098 23.5327 78.7192 23.5327Z" fill="#F0F1F5"/>
<path d="M56.8206 0.0371331C57.0428 0.0129159 57.2634 0 57.484 0C58.9616 0 60.3947 0.548924 61.4961 1.55313C62.7626 2.70749 63.4879 4.3591 63.4879 6.0866C63.4879 7.2022 63.188 8.29521 62.6214 9.24452C60.1408 13.3937 58.8298 17.9546 58.8298 22.4348V23.8895C58.8298 27.3203 59.7218 30.793 61.4834 34.2109C61.8151 34.8567 61.9929 35.5848 61.9929 36.3178C61.9977 38.7088 60.0932 40.7608 57.7475 40.89C56.4984 40.9578 55.3129 40.517 54.4082 39.6452C53.5036 38.7734 53.0037 37.5948 53.0037 36.3258C53.0037 35.5993 53.1671 34.9035 53.4877 34.2609C55.2653 30.701 56.1667 27.1071 56.1667 23.5747V21.8197C56.1667 17.5478 54.8796 13.2371 52.4434 9.3543C51.715 8.19188 51.4023 6.8454 51.5388 5.45856C51.8181 2.62676 54.0384 0.347113 56.819 0.0355186L56.8206 0.0371331Z" fill="#F0F1F5"/>
<path d="M44.0019 21.718V23.573C44.0019 25.4927 43.5337 27.514 42.6116 29.5805C42.4323 29.9809 42.3418 30.4088 42.3418 30.8527C42.3418 31.7004 42.6719 32.4898 43.2734 33.0759C43.8432 33.6345 44.586 33.9364 45.3731 33.9364C45.4144 33.9364 45.4557 33.9364 45.4985 33.9348C47.0507 33.8718 48.3283 32.5867 48.4045 31.0094C48.4299 30.504 48.3315 29.9971 48.122 29.5434C47.211 27.5737 46.7491 25.6347 46.7491 23.7781V21.6308C46.7491 19.0477 47.576 16.4387 49.1393 14.0864C49.6392 13.3324 49.9043 12.4525 49.9058 11.5419C49.909 9.15089 48.0045 7.1005 45.6604 6.97134C44.413 6.90353 43.2258 7.3459 42.3212 8.21772C41.4166 9.08954 40.9182 10.2681 40.9182 11.5339C40.9182 12.4186 41.1674 13.2775 41.6403 14.0169C43.1862 16.4387 44.0035 19.1026 44.0035 21.7196L44.0019 21.718Z" fill="#F0F1F5"/>
<path d="M70.9617 23.6328V21.7664C70.9617 19.1849 71.7806 16.5727 73.3296 14.2107C73.8232 13.4583 74.0835 12.58 74.0819 11.6711C74.0771 9.28812 72.1726 7.2458 69.8364 7.11664C68.5858 7.04722 67.4019 7.4912 66.4972 8.36302C65.5926 9.23484 65.0942 10.4134 65.0942 11.6808C65.0942 12.6333 65.3799 13.5455 65.9195 14.3205C67.4209 16.4726 68.2144 19.0477 68.2144 21.7681V23.5262C68.2144 25.5492 67.751 27.5544 66.8765 29.3287C66.6639 29.7597 66.5559 30.2231 66.5559 30.7091C66.5559 31.5567 66.8861 32.3461 67.4876 32.9322C68.0573 33.4892 68.8001 33.7927 69.5873 33.7927C69.6285 33.7927 69.6714 33.7927 69.7126 33.7911C71.2648 33.7281 72.5424 32.443 72.6186 30.8657C72.644 30.3603 72.5456 29.8534 72.3361 29.3997C71.4251 27.4317 70.9633 25.4927 70.9633 23.636L70.9617 23.6328Z" fill="#F0F1F5"/>
</g>
<defs>
<clipPath id="clip0_33_335">
<rect width="114" height="66" fill="white" transform="translate(0.5)"/>
</clipPath>
</defs>
</svg>
