<svg width="57" height="56" viewBox="0 0 57 56" fill="none" xmlns="http://www.w3.org/2000/svg">
<rect opacity="0.25" x="3.75" y="3" width="50" height="50" rx="5" fill="#5384B7"/>
<path d="M30.0625 16.5625C30.0625 16.2144 29.9242 15.8806 29.6781 15.6344C29.4319 15.3883 29.0981 15.25 28.75 15.25C28.4019 15.25 28.0681 15.3883 27.8219 15.6344C27.5758 15.8806 27.4375 16.2144 27.4375 16.5625V17.875H23.5C23.1519 17.875 22.8181 18.0133 22.5719 18.2594C22.3258 18.5056 22.1875 18.8394 22.1875 19.1875C22.1875 19.5356 22.3258 19.8694 22.5719 20.1156C22.8181 20.3617 23.1519 20.5 23.5 20.5H27.4375V22.25H21.3125C20.9644 22.25 20.6306 22.3883 20.3844 22.6344C20.1383 22.8806 20 23.2144 20 23.5625C20 23.9106 20.1383 24.2444 20.3844 24.4906C20.6306 24.7367 20.9644 24.875 21.3125 24.875H27.4375V26.625H21.3125C20.9644 26.625 20.6306 26.7633 20.3844 27.0094C20.1383 27.2556 20 27.5894 20 27.9375C20 28.2856 20.1383 28.6194 20.3844 28.8656C20.6306 29.1117 20.9644 29.25 21.3125 29.25H27.4375V31.875H23.9375C23.1017 31.8753 22.2877 32.1414 21.6132 32.6351C20.9388 33.1287 20.4389 33.8241 20.1859 34.6207C19.9329 35.4172 19.94 36.2737 20.206 37.066C20.4721 37.8583 20.9834 38.5454 21.6659 39.0278C22.3483 39.5102 23.1666 39.763 24.0023 39.7495C24.838 39.736 25.6477 39.4569 26.3142 38.9527C26.9808 38.4484 27.4696 37.7452 27.7099 36.9447C27.9502 36.1442 27.9296 35.288 27.651 34.5H29.849C29.5704 35.288 29.5498 36.1442 29.7901 36.9447C30.0304 37.7452 30.5192 38.4484 31.1858 38.9527C31.8523 39.4569 32.662 39.736 33.4977 39.7495C34.3334 39.763 35.1517 39.5102 35.8341 39.0278C36.5166 38.5454 37.0279 37.8583 37.294 37.066C37.56 36.2737 37.5671 35.4172 37.3141 34.6207C37.0611 33.8241 36.5612 33.1287 35.8868 32.6351C35.2123 32.1414 34.3983 31.8753 33.5625 31.875H30.0625V29.25H36.1875C36.5356 29.25 36.8694 29.1117 37.1156 28.8656C37.3617 28.6194 37.5 28.2856 37.5 27.9375C37.5 27.5894 37.3617 27.2556 37.1156 27.0094C36.8694 26.7633 36.5356 26.625 36.1875 26.625H30.0625V24.875H36.1875C36.5356 24.875 36.8694 24.7367 37.1156 24.4906C37.3617 24.2444 37.5 23.9106 37.5 23.5625C37.5 23.2144 37.3617 22.8806 37.1156 22.6344C36.8694 22.3883 36.5356 22.25 36.1875 22.25H30.0625V20.5H34C34.3481 20.5 34.6819 20.3617 34.9281 20.1156C35.1742 19.8694 35.3125 19.5356 35.3125 19.1875C35.3125 18.8394 35.1742 18.5056 34.9281 18.2594C34.6819 18.0133 34.3481 17.875 34 17.875H30.0625V16.5625ZM33.5625 34.5C33.9106 34.5 34.2444 34.6383 34.4906 34.8844C34.7367 35.1306 34.875 35.4644 34.875 35.8125C34.875 36.1606 34.7367 36.4944 34.4906 36.7406C34.2444 36.9867 33.9106 37.125 33.5625 37.125C33.2144 37.125 32.8806 36.9867 32.6344 36.7406C32.3883 36.4944 32.25 36.1606 32.25 35.8125C32.25 35.4644 32.3883 35.1306 32.6344 34.8844C32.8806 34.6383 33.2144 34.5 33.5625 34.5ZM22.625 35.8125C22.625 35.4644 22.7633 35.1306 23.0094 34.8844C23.2556 34.6383 23.5894 34.5 23.9375 34.5C24.2856 34.5 24.6194 34.6383 24.8656 34.8844C25.1117 35.1306 25.25 35.4644 25.25 35.8125C25.25 36.1606 25.1117 36.4944 24.8656 36.7406C24.6194 36.9867 24.2856 37.125 23.9375 37.125C23.5894 37.125 23.2556 36.9867 23.0094 36.7406C22.7633 36.4944 22.625 36.1606 22.625 35.8125ZM20.4375 10C18.9291 10 17.4824 10.5992 16.4158 11.6658C15.3492 12.7324 14.75 14.1791 14.75 15.6875V39.3125C14.75 40.0594 14.8971 40.799 15.1829 41.489C15.4688 42.1791 15.8877 42.806 16.4158 43.3342C16.944 43.8623 17.5709 44.2812 18.261 44.5671C18.951 44.8529 19.6906 45 20.4375 45H37.0625C37.8094 45 38.549 44.8529 39.239 44.5671C39.9291 44.2812 40.556 43.8623 41.0842 43.3342C41.6123 42.806 42.0312 42.1791 42.3171 41.489C42.6029 40.799 42.75 40.0594 42.75 39.3125V15.6875C42.75 14.1791 42.1508 12.7324 41.0842 11.6658C40.0176 10.5992 38.5709 10 37.0625 10H20.4375ZM17.375 15.6875C17.375 13.997 18.747 12.625 20.4375 12.625H37.0625C38.753 12.625 40.125 13.997 40.125 15.6875V39.3125C40.125 40.1247 39.8023 40.9037 39.228 41.478C38.6537 42.0523 37.8747 42.375 37.0625 42.375H20.4375C19.6253 42.375 18.8463 42.0523 18.272 41.478C17.6977 40.9037 17.375 40.1247 17.375 39.3125V15.6875Z" fill="#5384B7"/>
</svg>
