<svg width="12" height="12" viewBox="0 0 12 12" fill="none" xmlns="http://www.w3.org/2000/svg">
<path d="M9.24162 8.38353C8.5582 8.54763 7.84476 8.53968 7.16517 8.36039C6.48558 8.1811 5.86106 7.83606 5.34754 7.35619C4.83402 6.87631 4.44753 6.27656 4.22267 5.61066C3.99782 4.94475 3.94162 4.23348 4.05912 3.54053C4.04152 3.55808 4.02263 3.57429 4.00262 3.58903C3.86262 3.69553 3.68762 3.73503 3.33762 3.81403L3.02012 3.88603C1.79012 4.16453 1.17512 4.30353 1.02862 4.77403C0.882617 5.24403 1.30162 5.73453 2.14012 6.71503L2.35712 6.96853C2.59512 7.24703 2.71462 7.38653 2.76812 7.55853C2.82162 7.73103 2.80362 7.91703 2.76762 8.28853L2.73462 8.62703C2.60812 9.93553 2.54462 10.5895 2.92762 10.88C3.31062 11.1705 3.88662 10.906 5.03762 10.3755L5.33612 10.2385C5.66312 10.0875 5.82662 10.0125 6.00012 10.0125C6.17362 10.0125 6.33712 10.0875 6.66462 10.2385L6.96212 10.3755C8.11362 10.9055 8.68962 11.1705 9.07212 10.8805C9.45562 10.5895 9.39212 9.93553 9.26562 8.62703L9.24162 8.38353Z" fill="#FFC340"/>
<path opacity="0.5" d="M4.57635 2.704L4.41235 2.998C4.23235 3.321 4.14235 3.4825 4.00235 3.589C4.02235 3.574 4.04118 3.55783 4.05885 3.5405C3.94133 4.2335 3.99752 4.94484 4.2224 5.61079C4.44728 6.27675 4.83382 6.87653 5.3474 7.35642C5.86098 7.83632 6.48558 8.18134 7.16523 8.36058C7.84489 8.53983 8.5584 8.5477 9.24185 8.3835L9.23185 8.2885C9.19635 7.917 9.17835 7.731 9.23185 7.5585C9.28535 7.3865 9.40435 7.247 9.64285 6.9685L9.85985 6.715C10.6983 5.735 11.1173 5.2445 10.9708 4.774C10.8248 4.3035 10.2098 4.164 8.97985 3.886L8.66185 3.814C8.31235 3.735 8.13735 3.6955 7.99685 3.589C7.85685 3.4825 7.76685 3.321 7.58685 2.998L7.42335 2.704C6.78985 1.568 6.47335 1 5.99985 1C5.52635 1 5.20985 1.568 4.57635 2.704Z" fill="#FFC340"/>
</svg>
